<?xml version="1.0" encoding="UTF-8"?>
<svg id="Layer_2" data-name="Layer 2" xmlns="http://www.w3.org/2000/svg" viewBox="0 0 1345.31 694.49">
  <defs>
    <style>
      .cls-1 {
        fill: #e41f1b;
      }

      .cls-1, .cls-2 {
        stroke-width: 0px;
      }

      .cls-2 {
        fill: #bfbebf;
      }
    </style>
  </defs>
  <g id="Livello_1" data-name="Livello 1">
    <g>
      <g>
        <path class="cls-2" d="M893.47,293.86c-.24-2.62-1.2-4.14-3.95-4.53-3.74-.53-7.08,1.16-8.25,3.86-1.07,2.46,2.92,1.59,4.44,2.63.89.6,1.95,1.01,2.98,1.33,3.11.98,4.22-.87,4.78-3.29M762.61,441.32c2.15-3.37,3.07-6.16,2.88-9.25-.11-1.79-.49-3.54-2.52-4.08-1.67-.44-3.09.23-4.23,1.49-1.27,1.4-1.86,2.98-.8,4.72,1.38,2.24,2.88,4.41,4.67,7.12M803.41,341.62c-.61-3.05-2.13-5.88-4.92-7.85-.91-.64-1.79.17-2.28,1.03-1.79,3.18-1.58,6.33.48,9.27.95,1.37,2.09,3.14,4.1,2.48,2.03-.67,2.41-2.68,2.63-4.93M748.27,444.2c-2.67,1.45-2.32,6.49-6.04,4.55-4.35-2.26-2.97.97-2.71,2.48.35,2.11,1.43,4.08,2.03,6.16.32,1.1-2.01,2.82.39,3.34,1.43.31,3.73-.8,3.82-2.14.33-4.8,3.31-9.13,2.52-14.4M808.37,258.1c-1.84.02-3.54.29-3.71,2.63-.32,4.4,3.34,6.07,6.02,8.21,1.08.87,3.05.69,4.28-.75.1-.12.18-.26.23-.41,1.28-3.19-3.25-9.62-6.82-9.69M791.44,248.29c0,3.18,1.43,4.76,4.24,4.92,3.94.22,4.98-3.25,6.76-5.65.53-.72-6.03-5.67-7.59-5.33-3.47.75-2.23,4.27-3.41,6.06M699.16,476.98c1.37-.03,2.21-.94,2.83-2.08,1.06-1.95,1.84-4.03,1.97-6.24.13-2.07,2.66-4.84.61-5.88-2.02-1.03-4.5,1.48-6.55,2.89-.51.35-.95.83-1.32,1.33-1.6,2.2.19,9.65,2.45,9.98M784.49,315.43c.28-2.76-3.5-6.92-7.04-7.91-2.09-.58-3.07.83-3.59,2.21-1.41,3.75.77,5.88,3.88,7.42.56.28,1.01.75,1.57,1.04,2.87,1.52,4.87.44,5.19-2.77M769.54,399.47c-3.27.97-1.26,4.36-3.05,5.6-3.54,2.45-3.59,6.82-5.79,9.99-.6.87-.96,2.21.06,3.04,1.05.86,2.05-.1,2.98-.62,5.68-3.13,7.78-9.47,5.8-18.01M891.71,318.49c-2.85-2.79-2.42-7.28-6.33-6.79-3.77.47-4.71,4.06-4.98,7.61-.24,3.13-.66,6.26-1.28,9.34-.42,2.13.42,3.31,2.16,4.16.83.4,1.91,1.17,2.57.31,1.1-1.42-.5-2.61-.9-3.86-2.56-7.94-.16-11.76,8.76-10.76M826.67,193.7c1.46,2.05.71,6.02,3.62,6.18,4.27.23,6.48,2.07,8.03,5.79.9,2.15,3.12,2.46,5.28,1.83,1.61-.47,3.03-1.48,2.8-3.28-.29-2.29.12-4.83-1.64-7.25-.69,1.81-1.1,3.16-1.71,4.41-.69,1.42-2.02,1.9-2.93.5-3.16-4.9-8.66-5.91-13.46-8.18M888.3,272.32c-.25,4.38-.49,8.12-.66,11.87-.02.57.19,1.59.5,1.67,2.53.69,4.88,3.96,7.67,1.27,2.31-2.22,3.12-5.13.91-8.05-2.1-2.77-4.75-4.9-8.42-6.76M706.5,413.5c-2.66-.05-4.28,2.3-5.88,4.7-.77,1.15-1.05,2.29.07,3.4,2.13,2.11,4.64,2.52,7.41,1.61,1.79-.59,3.61-1.14,5.33-1.9,1.96-.86,1.88-2.72,1.84-4.47-.03-1.11-.02-2.28-1.56-2.46-2.18-.26-4.35-.53-7.21-.89M808.1,273.25c.08-2.17-6.91-11.16-8.58-11.48-1.49-.29-1.84.79-2.25,1.82-3.06,7.8-2.36,9.33,5.49,12.13.3.1.59.22.87.34,3.28,1.44,4.21-.41,4.47-2.81M749.86,372.83c-2.33.06-3.98.08-4.61,1.96-.61,1.83.04,3.38,1.34,4.71,2.41,2.47,5.93,2.78,8.72,4.51,1.17.72,2.43,1.71,3.75.18,1.2-1.41,1.89-2.93.79-4.71-2.47-3.98-5.94-6.36-9.99-6.66M889.4,157.75c-2.47,7.85-1.08,15.62-1.18,23.76-3.98-4.49-.99-10.09-3.76-15.72-.44,6.35-.84,11.43-1.12,16.51-.14,2.66,1.56,3.9,3.9,4.62,1.64.51,3.09.76,4.03-1.1,1.01-2,2.2-4.23.47-6.18-4.63-5.19-3.39-10.7-1.27-16.29.76-2,1.54-3.76-1.06-5.61M814.92,286.19c0-3.66-2.6-6-6.81-6.12-3.05-.09-7.91,3.5-7.7,5.68.14,1.5,6.04,6.07,7.84,6.07,3.89,0,6.67-2.35,6.67-5.63M801.84,401.98c-.36,4.09,1.06,7.41,2.86,10.54,1.07,1.85,1.55,5.44,4.29,4.46,2.41-.86,3.05-4.12,2.9-6.92-.12-2.27-1.27-4.17-2.46-6-1.19-1.83-2.48-3.6-3.76-5.38-.61-.85-.93-2.34-2.16-2.17-1.52.2-1.55,1.76-1.66,2.99-.08.93-.02,1.88-.02,2.49M874.29,283.9c.31-.25.62-.5.92-.75-3.43-5.09-1.48-12.77-9.11-16.02-2.56-1.09-4.12-1.02-5.8.6-1.98,1.9-1.7,4.18.26,5.77,4.46,3.61,9.14,6.96,13.73,10.41M797.83,174.84c-.32-.73-.51-1.31-.82-1.81-2.08-3.29-4.96-3.51-8.23-2.06-1.94.86-2.35,2.36-1.75,4.29,1.09,3.54,3.21,4.54,6.88,3.53,4.25-1.17,5.72,1.7,5.9,5.27.15,3.01,1.04,5.52,3.28,7.56.98.89,1.87,1.33,2.58-.19,1.62-3.49,4.4-6.48,4.81-10.8-2.41.93-2.5,3.4-3.98,4.71-1.39,1.23-3.19,2.56-3.79-.33-1.14-5.53-4.78-8.31-9.69-10.17h4.82ZM772.31,326.09c-1.68.18-2.17,1.65-2.47,2.97-1.57,6.93,1.23,13.02,4.19,18.93,1.2,2.39,3.27,1.36,4.62-.25,1.47-1.77,5.11-4.3,2.54-5.94-5.34-3.41-6.2-8.33-7.18-13.59-.18-.96-.47-1.84-1.7-2.12M829.71,278.88c.31-3.44-5.97-10.56-9.13-10.44-.54.02-1.15.41-1.58.79-5.41,4.77-4.88,9.02,1.44,11.96.71.33,1.36.79,2.08,1.1,1.42.62,1.79,3.58,4.07,2.08,1.93-1.27,2.54-3.51,3.12-5.5M758.79,341.54c3.61-4.07,4.65-8.5,3.61-13.27-.79-3.65-3.53-6.11-7.04-6.85-3-.63-3.26,3.83-6.13,4.36-.9.17-.02,1.32.47,1.86,3.69,4.05,6.35,8.8,9.1,13.89M883.95,272.94c.64-1.72-.21-2.62-1.64-3.39-1.64-.9-3.16-2.01-4.75-3.01-1.17-.73-2.45-2.07-3.79-1.08-1.66,1.22-.47,2.89.17,4.24,2.25,4.83,4.55,9.61,4.64,15.13.03,1.71-.8,4.41,1.83,4.59,2.14.14,3.26-2.16,4.08-4.05.59-1.35.24-2.74-.06-4.14-.58-2.73-1.49-5.48-.5-8.29M746.71,362.01c.24,1.73-.61,4.53,2.05,5.38,2.65.84,5.76,1.28,8.12-.76,2.04-1.77,1.93-5.06.75-6.57-2.03-2.59-2.62-5.18-2.88-8.21-.1-1.22-1.23-2.23-2.64-2.36-1.53-.14-2.24.99-2.73,2.18-1.33,3.2-2.65,6.41-2.67,10.34M746.99,388.05c-1.68.33-2.15,1.42-2.83,2.24-.92,1.11-1.79,2.36-3.47,1.97-1.89-.44-1.48-2.15-1.71-3.48-.13-.77-.13-1.63-.48-2.3-1.83-3.48-4.63-1.69-7.06-1.05-1.64.44-2.97,1.7-1.69,3.54,2.51,3.62,4.75,7.46,8.24,10.31,2.72,2.21,5.09,1.52,6.84-1.07,2.05-3.02,2.01-6.55,2.14-10.16M778.41,373.42c3.28-.01,7.26-3.4,7.75-6.62.23-1.51.13-3.04-1.73-3.29-2.67-.37-4.04-2.07-5.3-4.2-1.32-2.22-3.5-2.07-5.42-1.12-1.95.96-3.18,2.62-2.28,5.04.88,2.36,1.65,4.76,2.66,7.06.79,1.8,2.09,3.16,4.3,3.13M808.17,220.4c-.12-.48-.21-1.28-.5-1.99-2.28-5.6-7.58-8.27-12.04-11.48-2.4-1.72-3.34,1.29-2.84,3.48.45,1.97,2.32,3.95,2.05,5.68-.97,6.12,3.14,7.44,7.42,8.84,2.86.93,5.78-1.18,5.91-4.52M673.88,378.33c.11,1.2-.22,2.37.82,2.82,1.35.59,2.01-.57,2.55-1.5.79-1.35,1.06-3.28,2.19-4.09,3.22-2.33,2.42-4.56.65-7.22-1.15-1.73-1.81-3.71-.9-5.83,2.9-6.7,3.33-13.56,2.39-20.8-.77-5.93,1.09-8.18,6.39-9.74,2.83-.83,1.82-2.09.64-3.28-1.86-1.85-4.06-1.76-5.95-.11-2.76,2.41-4.41,5.48-3.51,9.21,1.68,6.93,1.09,13.76-.51,20.58-1.58,6.74-3.21,13.48-4.75,19.95M853.6,393.81c.05-4.09-6.87-11.74-10.79-12.02-1.17-.08-1.64.45-2.06,1.43-3.79,8.92-3.72,9.16,4.62,14.19.27.16.54.33.8.5,1.4.87,2.54,2.74,4.54,1.52,2.04-1.25,2.86-3.27,2.89-5.62M784.63,433.12c-.22,2.38.71,5.31,2.76,7.88,1.46,1.82,3.21,3.05,5.71,2.4,2.32-.6,3.87-2.08,4.49-4.39.3-1.12,1.15-2.68-.64-3.19-1.5-.42-1.62,1.06-1.85,2.12-.39,1.82-1.3,3.8-3.22,3.35-2.44-.57-1.62-3.01-1.29-4.76.7-3.75,1.05-7.32-.66-11.04-1.34-2.91,1.19-4.19,3.46-5.06,1.15-.44,2.47-.43,3.69-.73,1.05-.26,1.55-1.07,1.42-2.13-.22-1.79-1.17-3.25-2.39-4.5-.91-.93-1.8-.27-2.39.48-4.36,5.56-9.11,10.95-9.08,19.57M835.5,427.4l1.12-.58c-1.88-7.48-1.45-16.18-10.87-19.71-1.97-.74-3.92-3.02-6.06-1.31-1.93,1.55-.17,3.83-.03,5.79.05.79.16,1.58.1,2.36-.23,3.09.6,4.77,4.25,4.26,3.03-.43,5.47,1.19,7.31,3.58,1.42,1.85,2.78,3.74,4.17,5.61M837.58,274.01c3.61-.09,5.35-2.13,4.21-5.52-1.9-5.71-5.17-10.78-8.63-15.62-1.73-2.41-4.49-2.6-6.77.14-2.1,2.53-1.69,4.54.95,6.24,1.19.76,2.41,1.51,3.69,2.08,2.93,1.32,3.87,2.9,2.29,6.21-2.13,4.45-.5,6.57,4.25,6.46M728.44,440.96c1.78-1.44,1.84-3.72,3.89-3.48,1.99.24,2.02,2.15,2.54,3.58.22.59.4,1.2.57,1.8.43,1.52,1.29,2.6,3,2.41,1.73-.19,2.42-1.38,2.18-3.02-.19-1.31-.17-2.6.67-3.6,2.09-2.5,2.95-4.61-.37-7.03-2.22-1.62-3.54-4.66-5.89-5.88-3.04-1.58-9.6,4.95-8.89,8.64.4,2.1,1.41,4.09,2.3,6.57M884.79,370.85c.02-2.45-.85-3.85-3.41-3.33-1.56.31-3.13.86-4.61.01-1.54-.88-2.93-1.34-4.08.43-1.34,2.06-.19,3.7,1.24,4.98,1.51,1.35,3.48,2.19,4.96,3.57,1.93,1.8,2.45,4.26.82,6.4-1.69,2.22-3.98,2.12-6.27.49-1.15-.82-2.42-2.87-3.89-.89-1.13,1.53-.3,3.44.99,4.72,2.51,2.51,5.76,3.59,9.08,2.55,4.06-1.27,5.2-5.02,5.1-8.75-.09-3.45-.91-6.87.06-10.18M807.45,350.48c.03,8.66,1.88,11.61,7.3,13.56,1.24.45,2.47.93,3.43-.32,1.03-1.34,3.03-3.31,1.79-4.46-4.76-4.46-3.91-9.7-3.09-15.12.11-.75-.13-1.56-.23-2.34-.31-2.3-2.1-3.11-3.96-3.45-2.04-.37-2.61,1.46-3.12,2.9-1.26,3.56-2.06,7.24-2.11,9.23M784.56,191.27c.03-6.36-2.59-8.25-8.61-6.19-5.47,1.87-7.4,9.98-3.63,15.45,1.69,2.45,3.83,4.62,3.94,7.86.03,1.01.57,1.9,1.73,1.83,1.3-.08,2.84-.63,2.88-1.98.16-5.91,3.55-11.09,3.69-16.97M810.94,232.32c-4.76-.32-7.32,2.91-5.85,7.54,1.27,3.99,3.55,7.33,7.06,9.71,2.58,1.75,5.1,4.1,7.95.15,3.62-5.02,4.38-10.88,1.17-13.21-3.04-2.21-6.42-3.94-10.33-4.19M827.24,389.46c.29-4.02-2.73-5.84-6.27-7.26-5.22-2.09-10.38-4.15-10.12-11.27.06-1.6-1.06-2.7-2.89-1.58-3.03,1.88-4.74,8.3-2.41,11.06,3.92,4.65,5.53,12.3,13.99,11.56.48-.04,1.03.65,1.55,1,3.36,2.29,5.71,1.13,6.15-3.51M753.42,425.44c.34-.57.6-.82.63-1.08.09-1.1.17-2.2.12-3.3-.32-7.14.23-13.61,8.79-16.1,2.56-.74,3.72-6.66,2.1-8.81-2.16-2.85-4.37-.48-6.23.47-7.9,4.05-10.79,12.5-15.98,18.92-1.64,2.03.87,2.47,2.49,2.28,2.53-.29,4.24.61,5.32,2.93.72,1.53,1,3.33,2.77,4.68M852.61,433.83c5.2.14,11.78-5.6,12.29-10.72.13-1.3.07-2.76-1.06-3.46-5.09-3.13-9.43-7.19-14.06-10.89-1.02-.82-3.2-2.63-4.23.06-.78,2.03-.78,4.45,1.45,5.93.75.5,1.8.54,2.67.9,1.3.54,2.7.99,3.8,1.82,1.73,1.3,3.09,3.21,1.44,5.23-1.75,2.14-2.97-.07-4.17-1.14-1.62-1.44-3.31-1.62-5.2-.55-1.57.89-2.08,2.25-1.96,3.96.33,4.44,4.7,8.74,9.02,8.86M759,307.28c4.16,0,6.06,1.77,5.58,5.29-.55,4.08,1.52,2.84,3.51,1.97,2.3-1.01,1.58-2.53.84-4.28-3.59-8.5-11.89-10.77-19.03-14.61-2.72-1.47-3.76-.96-4.16,2.31-.57,4.66-2.89,8.26-8.04,9.14-.98.17-1.77.66-2.12,1.66-1.08,3.03-3.17,5.89-.68,9.31,2.71,3.74,6.41,5.99,10.78,5.76,3-.16,6.43-2.09,7.08-5.4.65-3.32-2.93-2.89-4.98-3.66-.44-.16-.88-.38-1.24-.67-.85-.7-1.8-1.44-1.24-2.75.46-1.06,1.48-1.23,2.4-.94,2.06.65,3.41-.29,5.13-1.34,1.92-1.17,4.46-1.34,6.16-1.79M798.96,162.09c3.57.42,5.07-1.39,3.92-4.57-1.34-3.71-4.18-6.27-7.24-8.54-2.66-1.97-4.32-4.54-5.26-7.65-.51-1.68-.09-4.35-2.92-3.9-2.26.35-3.17,2.53-3.49,4.6-.21,1.35.08,2.8.27,4.19.17,1.2,1.08,2.56-.21,3.47-1.21.85-2.38-.22-3.52-.7-4.44-1.86-9.05.19-8.59,4.13.4,3.39,1.48,6.92,4.95,8.68,1.92.98,3.33,2.28,4.38,4.13,1.75,3.09,3.17,2.73,4.96-.2,3.51-5.75,4.9-6.14,11.23-4.16.6.19,1.19.4,1.51.51M814.9,324.62c2.89-.16,3.57.55,3.93,4.45.21,2.23.47,5.6,3.3,4.2,4.6-2.28,9.97-3.22,13.74-7.03,1.3-1.31,3.3-3.35,2.09-4.86-4.45-5.56-6.78-12.88-13.58-16.52-3.33-1.79-6.49-3.89-9.83-5.67-1.39-.74-2.83-2.8-4.55-1.19-1.33,1.26-.79,3.31-.38,4.97,1.61,6.53,6.96,7.93,12.53,9.06,1.46.3,3.74.21,3.85,1.93.12,1.8-2.19,1.94-3.6,2.42-3.95,1.33-7.44.13-10.65-2.23-1.01-.74-1.84-1.79-2.93-2.37-2.53-1.33-5.03.25-4.88,2.97.29,5.33,5.65,10.16,10.93,9.86M790.92,352.89c-1.63,4.61-3.8,8.77.03,13.27,1.92,2.25,1.89,5.03-.06,7.38-1.6,1.94-3.37,3.78-5.29,5.4-7.69,6.51-11.09,15.11-12.18,24.8-.58,5.1.61,9.97,2.13,15.94,2.14-4.02,4.54-6.1,7.19-7.79,6.09-3.88,8.64-9.47,9.51-16.5,1.13-9.18,1.94-18.56,6.85-26.79,1.59-2.66,4.74-5.19-1.48-5.92-1.55-.18-2.05-2.22-2.87-3.56-1.2-1.96-1.46-4.48-3.82-6.23M899.88,268.59c.93-2.03,1.48-3.29,2.08-4.52.63-1.29,1.35-2.7,3.01-2.6,1.49.09,1.67,1.66,2.28,2.73,2.17,3.76.68,7.31-.43,10.93-2.13,7-1.35,9.26,4.67,12.83,3,1.78,3.38,4.35,2.69,7.32-.33,1.43-.9,2.93-2.88,1.66-3.58-2.31-3.35.45-3.01,2.48.39,2.32,1.38,4.58,3.22,6.2,1.32,1.16,2.36,3.81,4.45,2.6,1.96-1.13,2.53-3.57,1.33-5.85-1.11-2.1-.49-3.4,1.38-4.74,5.16-3.68,6.91-9.13,5.41-15.26-.77-3.17-2.13-5.57-5.61-6.18-3.38-.6-4.49-3.11-5.03-6.08-1.3-7.14-3.2-14.14-5.77-20.91-2.55-6.7-6.1-12.79-12.19-17.02-1.08-.75-2.09-1.59-3.33-.38-1.08,1.06-.58,2.28.33,2.86,6.86,4.38,7.28,10.5,5.07,17.48-.27.85-.05,1.89.09,2.82.66,4.19,1.37,8.37,2.24,13.64M734.8,356.93c-5.38,2.65-6.38-.06-6.98-3.4-.16-.92-.41-1.88-.87-2.67-1.3-2.22-2.37-4.55.73-5.93,3.28-1.46,3.39,1.61,4.19,3.51,1.38,3.29,3.05,5.37,6.43,1.84.62-.65,1.57-1.06,2.44-1.38,3.53-1.3,3.19-3.36,1.24-5.79-1.3-1.62-2.84-2.85-4.8-3.69-4.45-1.9-4.54-2.7-.81-5.9,1.35-1.16,3.24-2.36,1.71-4.15-1.85-2.17-2.23-6.07-5.73-6.32-4.67-.34-10.78,4.96-11.47,9.76-.91,6.35-4.64,10.27-9.92,13.46-6.9,4.17-12.31,9.71-13.81,18.15-.41,2.3.21,4.07,1.95,5.42,1.73,1.34,2.8-.24,4.09-1.08,4.23-2.76,6.27-2.21,8.59,2.15.64,1.21.92,3.01,2.66,2.92,1.96-.1,2.1-2.06,2.67-3.47.35-.87.51-1.83.91-2.68,2.45-5.28,7.63-5.77,11.05-.89,2.2-2.54,3.74-5.37,5.74-9.87M840.25,339.7c.1,2.95.41,5.82,2.27,8.13,1.8,2.24,2.97-1.54,4.9-.76,1.33.54,3.65-.55,3.97,1.49.37,2.29-1.82,2.59-3.56,2.81-1.13.14-2.36.07-2.2,1.71.12,1.28,1.14,1.82,2.23,2.16,5.53,1.75,10.43-1.81,10.53-7.68.07-4.1.03-8.2.11-12.3.03-1.78.83-3.23,2.82-3,1.72.2,3.65.76,2.8,3.28-1.13,3.35,1.43,2.66,3.14,2.99,4.17.8,5.06,2.43,3.45,6.25-.24.58-.56,1.13-.84,1.69-.89,1.8-.87,3.6,1.14,4.38,1.89.73,2.21-1.29,2.84-2.43,2.61-4.77,1.56-9.46-.47-14.09-2.61-5.97-2.38-11.53,1.77-16.88,3.4-4.39,1.38-9.75-4.13-9.68-6.11.08-8.68-2.94-10.72-7.8-.9-2.15-2.6-3.94-3.75-6-.69-1.23-2.95-2.16-1.47-3.93,1.01-1.2,2.61-.57,3.97-.06,1.3.49,2.81,1.32,3.66-.56.67-1.48.95-3.63-.34-4.43-3.21-1.98-5.25-6.29-8.6-6.72-3.22-.41-4.44,4.33-6.77,6.59-.11.11-.21.25-.26.4-2.82,8.4-11,16.57-.83,25.51,1.32,1.16,1.62,3.38.52,5.31-.63,1.11-1.46,1.7-2.69,1.32-4.64-1.45-3.2,1.67-2.34,3.46,2.01,4.18,1.62,8.19.24,12.39-.68,2.07-.93,4.29-1.38,6.44M884.51,255.79c-4.21-5.22-5.34-10.34-4.23-16.03.15-.75.14-1.71,1.16-1.8.89-.07,1.36.62,1.65,1.4.44,1.17.75,2.78,2.51,1.74,1.51-.9,1.47-2.57.47-3.72-3.28-3.76-6.16-8.22-12.23-7.65-2.59.24-5.11-.16-6.85-2.4-8.53-10.99-21.01-10.84-33.11-11.73-2.22-.16-3.44.55-2.24,3.02,2.14,4.41.54,7.84-2.71,10.99-1.62,1.58-4.35,3.29-3.3,5.71.82,1.88,3.75.77,5.72.86,3.38.16,7.02-.09,8.17,4,1.18,4.2-3.31,3.8-5.12,5.6-.84.83-2.72.82-2.52,2.43.19,1.53,1.61,2.3,2.92,2.87,1.88.82,3.85,1.43,5.74,2.22,3.84,1.6,5.82,4.68,6.62,8.62.35,1.74-.32,4.13,2.43,4.42,2.91.31,5.7-.06,7.74-2.52,1.38-1.65,1.34-4.9,3.78-5.06,2.9-.19,2.74,3.41,4.33,5.02.98,1,1.89,2.39,3.53,1.76,1.33-.51,1.69-1.8,1.5-3.17-.63-4.54,2.1-3.57,4.28-2.33,2.86,1.63,5.44,3.74,8.13,5.67.99.71,1.83,2.21,3.18,1.49,1.31-.7.83-2.31.58-3.46-1.04-4.77.54-8.01,5.18-9.71,1.22-.45,2.41-1.07,2.16-2.67-.22-1.42-1.33-2.05-2.6-2.45-4.3-1.35-5.9.04-6.89,6.87M699.3,326.28c5.13,1.59,8.01-.16,8.59-5.19.16-1.4.28-2.82.6-4.19.8-3.43,1.64-5.87,6.6-5.07,3.96.64,8.34-1.06,12.49-1.93,1.56-.33,3.21-1.46,2.77-3.26-.45-1.85-2.12-.33-3.24-.43-.62-.06-1.26.11-1.89.07-2.21-.14-4.93-.02-5.92-2.16-1.28-2.77,2.78-2.37,3.36-4.41-.26-1.22-1.43-.82-2.27-1.02-1.84-.44-4.34-.72-3.8-3.17.46-2.07,2.99-2.18,4.83-1.88,2.95.47,5.84,1.34,8.76,2,2.28.52,4.76.47,5.96-1.65,1.14-2.02-1.41-2.85-2.48-4-3.72-4,.33-5.87,2.12-9.14-.11,5.19,4.04,6.38,6.37,8.92.9.98,1.72-.13,1.57-1.23-.13-.9-.77-1.71-.97-2.61-.35-1.54-4.13-2.04-1.54-4.34,1.41-1.26,7.62.82,8.17,2.59.7,2.28,1.39,4.56,3.02,6.35,1.54,1.7,3.42,2.96,5.85,2.12,2.33-.81,2.68-2.88,2.72-5.03.01-.63-.02-1.27.03-1.89.09-1.04-.31-2.46,1.15-2.75,1.24-.24,2.01.81,2.53,1.8,1.57,3.02,3.66,5.51,6.78,7.02,3.44,1.67,6.79,2.56,9.77-1.6-1.58,6.87,4.6,7.86,7.82,10.87.91.85,4.62,3.71,4.8-1.64.05-1.57,2.26-2.72,3.88-3.11,1.67-.41,1.59,1.54,2.16,2.57,1.31,2.41,3.41,2.31,5.21,1.04,2.02-1.43.89-3.5-.55-4.32-4.75-2.67-5.66-8.9-10.88-11.19-1.99-.87-1.6-3.37-.94-5.14,1.21-3.24.71-5.07-2.38-7.42-2.16-1.64-3.26-4.92-5.98-6.79-.99-.68-.5-3.55-.62-5.43-.19-3.13,2.06-1.8,3.56-1.96,1.05-.11,1.63-.9,1.8-1.92.3-1.81-.63-3.09-2.07-3.92-2.37-1.36-5.11-1.61-7.73-1.82-2.2-.18-3.84-.89-4.31-2.9-.46-2,1.57-2.47,2.92-3.15,1.85-.93,3.34-2.48,5.98-.94,2.27,1.33,4.07-.86,5.25-2.8,1.79-2.93.62-5.68-1.48-7.65-1.76-1.65-3.31-2.85-3.68-5.59-.38-2.85-2.81-1.91-4.42-.87-2.12,1.38-4.34,3.67-6.59,1.09-1.81-2.07-1.94-5.26-1.07-7.85,2.09-6.22-3.42-13.77-10.01-13.4-2.28.13-4.35,1.03-4.78,3.18-1,5-3.86,9.76-2.25,15.15.27.89.81,1.91-.13,2.6-.92.68-1.81-.08-2.59-.57-3.94-2.45-8.21-4-12.75-4.88-1.22-.24-2.81-.87-3.56.25-.93,1.37.86,2.07,1.55,3.01.65.89,1.57,1.63,1.99,2.6.75,1.74-.14,3.26-1.67,3.91-1.7.73-1.79-1.01-2.41-2.07-2.02-3.43-4.85-6.46-3.12-11.08.54-1.43-1.2-2.05-2.58-1.83-2.19.35-3.92-1.05-5.9-1.38-2.4-.4-3.3-1.96-3.11-3.99.24-2.51-.13-5.23.51-7.46.96-3.34,4.26-.68,6.49-1.16,4.89-1.03,6.3-3.32,4.33-7.96-.83-1.97-2.56-4.07-.84-6.15,1.58-1.91,3.83-.52,5.79-.3.63.07,1.26.17,1.88.16,2.92-.08,6.45.78,7.59-3.07,1.08-3.67-.39-6.46-4.11-7.89-1.07-.41-1.82-1.23-2.21-2.34,1.29-.55,2.64-1.01,3.87-1.69,1.35-.75,2.32-.81,3,.81,1.41,3.34,3.21,6.55,4.23,10,1.17,3.95-.34,7.45-3.34,10.23-2.89,2.69-5.21.34-7.66-.91-.93-.47-1.91-1.52-2.97-.47-1,1-.1,2.1.29,3.06,1.09,2.67.84,5.14-.43,7.73-2.66,5.4,1.6,11.37,7.67,10.98,2.22-.14,3.83-1.1,3.69-3.4-.49-8.14,4.12-11.63,11.32-13.15,3.91-.82,5.77-3.46,5.83-7.51.1-5.89-1.71-8.12-8.93-10.89-2-.77-4.62-1.16-4.88-3.86-.28-2.84,2.37-3.64,4.28-4.37,3.44-1.32,5.15-3.44,4.8-7.14,2.07,1.02,2.74,2.87,3.13,4.98.89,4.81,4.47,6.69,8.77,7.31,3.64.52,6.49-2.68,5.63-6.22-.92-3.78-2.46-7.1-7-8-2.6-.52-5.19-1.47-7.57-2.66-3.55-1.79-4.58-.29-4.67,2.99-3.52.1-4.67-2.54-5.98-5.07-.47-.92-.95-2.17-2.33-1.87-1.12.25-.99,1.43-1.24,2.3-.98,3.43-1.58,7.05-4.46,9.6-2.27,2.01-3.79,4.53-5.01,7.26-6.67,1.11-13.47,1.61-19.62,4.93-3.38,1.83-5.06,4.2-5.21,8.21-.19,4.85-.92,9.73-1.88,14.5-1.18,5.83-4.31,7.38-8.78,3.64-3.38-2.82-6.7-2.85-10.45-3-4.99-.2-7.75-2.96-7.91-7.62-.08-2.41.69-3.84,3.34-2.71,3.94,1.69,7.02.85,9.47-2.68,1.41-2.04,3.24-1.72,4.92-.39,1.95,1.55,3.72,2.52,5.49-.21,1.61-2.47,1.24-4.96-1.25-6.03-4.09-1.76-5.01-3.65-2.74-7.75,1.35-2.43-.75-5.11-1.95-7.5-.56-1.12-1.57-2.62-.03-3.28,2.42-1.04,4.45-3.29,7.32-2.98,1.77.2,1,1.94,1.37,3.04.82,2.47,1.27,6.1,4.04,6.35,3.25.3,6.47.2,10.15-1.73,7.19-3.76,9.89-10.88,15.11-15.96.89-.86,1.71-1.41,2.89-1.04,5.32,1.63,8.3-1.05,10.04-5.62.84-2.22,2.08-2.76,4.35-2.4,6.21.97,8.21-1.09,7.66-7.57-.1-1.21-.83-2.57.71-3.35,1.1-.56,2.39-.27,3.1.51,3.49,3.79,7.02,1.52,10.31-.02,6.98-3.26,10.28-3,16.04,2.04,2.04,1.78,3.93,3.7,7,3.26,1.53-.22,2.34.67,2.65,2.08.21.92.27,1.91.62,2.76,1.24,3,2.01,7.37,5.79,7.15,3.62-.21,6.06-3.84,7.47-7.23,1.42-3.42-.33-6.08-3.1-8.15-.88-.66-1.73-1.37-2.57-2.09-1.75-1.51-4.3-2.62-3.83-5.49.51-3.14,3.43-.97,5.13-1.96,2.97-1.73,3.54-.2,2.69,2.67-1.15,3.89,1.89,4.95,4.55,5.9,2.09.74,2.25-1.01,2.39-2.47.38-3.95-.71-7.41-3.02-10.66-2.43-3.42-1.37-5.94,2.62-6.96,3.47-.89,9.07,2.12,10.3,5.55,1.32,3.69,3.73,6.56,6.72,8.99,2.23,1.81,3.18,4.07,3.38,6.96.19,2.71-1.64,2.94-3.34,3.76-2.2,1.06-2.25-.71-2.91-1.86-.78-1.36-1.64-2.69-3.34-3.18-.21.23-.54.42-.57.65-.25,1.95,2.29,4.48-.89,5.78-3.21,1.31-3.36-1.91-4.52-3.54-.62-.87-.89-2.21-2.26-2.12-1.3.09-1.84,1.25-2.01,2.34-.44,2.85-1.75,5.37-2.67,8.05-1.49,4.33,1.29,9.76,6.21,12.85-.18,1.32-1.6,1.39-2.26,2.23-.8,1.03.1,2.42.56,2.14,2.54-1.54,4.11.56,6.12,1.11,1.38.38,3.54-1.74,4.03,1.3.6,3.7,1.87,7.44.5,11.18-.46,1.26-1.6.53-2.35-.06-.86-.68-1.6-1.55-2.49-2.18-1.53-1.07-3.73-1.73-4.65-.06-1.23,2.23,1.55,2.08,2.71,2.72,1.23.68,2.61,1.12,3.96,1.55,3.73,1.18,5.79-.04,6.16-4,.28-2.97.06-5.99,0-8.98-.03-1.5-1.15-3.55.81-4.19,2-.66,2.08,1.9,3.09,2.95,1.53,1.57,2.61,3.55,4.56,4.75,2.84,1.76,4.44,1.06,4.87-2.25.45-3.4-.69-6.53-1.58-9.73-1.48-5.29-.14-8.54,4.24-10.9,1.19-.64,1.69.23,2.34.89,1.49,1.51,3.34,2.12,5.13.96,1.93-1.24,1.33-3.37.94-5.2-.23-1.06-.85-2.03-1.22-3.07-.42-1.2-2.08-2.41-.27-3.69,1.07-.75,2.45-.92,3.63-.38,1.75.81.48,2.17.34,3.3-.71,5.47,3.48,10.61,9.65,11.34-2.55-4.45-6.23-8.34-4.66-14.69,3.55,7.4,5.78,15.26,14.45,18.24.32-2.42-1.38-3.51-2.55-4.74-3.09-3.23-5.44-6.95-7.56-10.83-1.46-2.68-2.77-5.38,2.48-4.34.51.1,1.12-.29,2.26-.62-2.4-1.93-4.03-4.17-7.8-1.59,1.3-3.08,2.71-5.09,1.76-7.76,3.02,2.04,5.4,4.27,8.42,5.65,2.85,1.31,3.22,3.08-.11,4.34-3.25,1.23-4.2,3.33-2.41,6.25,1.88,3.05,4.19,3.21,6.49-.55,1.7,3.31.81,6.14,1.05,8.81.14,1.57.03,3.17.29,4.71.25,1.46,1.37,2.2,2.81,1.71,1.65-.56.8-1.7.36-2.69-.6-1.38-2.09-2.94-.41-4.23,1.48-1.14,2.96.36,4.33,1.01,5.85,2.76,9.96,6.92,11.06,14.03-3.38-.6-5.11-2.9-7.21-4.65-1.31-1.09-2.92-2.83-4.51-1.94-2.02,1.14-.2,3.1.2,4.63.57,2.15,1.49,4.29.43,6.44-.98,2.01-.33,3.16,1.38,4.3,3.66,2.45,3.99,6.06,4.45,10.24.65,5.97-1.25,9.31-6.45,11.87-2.58,1.28-2.05,3.7.56,5.08,1.24.66,2.64,1.03,3.98,1.48,1.59.54,3.99.61,3.62,2.88-.34,2.07-2.71,1.82-4.36,1.92-5.96.36-11.72-.39-16.66-4.07-2.07-1.54-3.12-1.71-3.78,1.17-.6,2.6-1.61,5.11-2.43,7.67-6.16,1.66-6.77,3.51-3.1,8.76,1.56,2.24,3.49,3.99,5.82,5.31,1.14.65,2.43,1.9,3.76.5,1.03-1.08,1.23-2.57.67-3.96-1.03-2.59-2.2-5.13-3.31-7.69,5.73,1.37,10.86,4.63,17.33,3.77,3.54-.48,6.52,4.52,6.17,8.54-.1,1.1.23,1.82,1,2.46,4.39,3.69,6.59,9.25,11.07,12.88,2.46,2,2.72,4.06-.25,6.06-.99.66-1.81,1.81-2.31,2.91-1.05,2.34-.78,3.92,2.46,3.88,4.2-.04,5.79,2.2,3.71,5.85-2.29,4.02.87,6.6,1.87,9.66.54,1.67,1.95.15,2.3-.73.8-2.01,1.3-4.14,2.51-6.41-1.36,13.69,8.44,23.39,12.66,35.95-4.22-1.65-5.33-6.46-9.88-6.39-.68,1.79.67,3.13,1.36,4.53,1.7,3.41,3.13,6.93,3.84,10.66.65,3.47,2.43,6.1,5.16,8.18.87.66,2.15,1.1,2.22,2.3.17,2.71,1.77,6.69-1.11,7.68-2.71.93-3.21-3.11-4-5.36-.83-2.34-1.31-4.8-2.28-8.49-2.81,5.81-1.58,10.11.54,14.58-2.68-2.5-4.61-6.52-8.73-2.29-.96.99-3.56.62-2.83,2.96.69,2.24.56,5.15,4.03,5.7,1.11.17,3.27-.62,3.33,1.59.04,1.33-1.39,1.54-2.49,1.72-1.7.27-3.47.89-4.19-1.62-1.8-6.31-5.75-11.56-8.85-17.22-2.44-4.44-5.92-7.67-11.74-7.89,12.46,9.29,15.92,23.44,20.49,37.04-3.16.48-3.55-1.67-3.47-4.04.11-3.64-1.6-6.36-4.14-8.67-1.53-1.4-3.17-1.5-4.36.48-1.39,2.32.78,1.91,1.9,2.48,3.45,1.78,2.75,4.7,2.17,7.86-2.04-1.03-.92-3.65-3.35-4.39.24,2.96.25,5.76-4.16,4.77-1.76-.39-1.84,1.41-1.92,3-.42,8.88.39,17.71.83,26.56.05.94-.26,2.08.99,2.31,1.4.25,1.89-.94,2.2-2,.8-2.71-.7-5.28-.59-7.95.08-1.82-.75-4.07,1.16-5.26,2.12-1.32,3.55.74,4.87,1.89,2.53,2.22,6.2,3,6.49,7.83.38,6.32-3.18,10.17-6.65,14.25-1.19,1.4-2.58,2.43-1.61,4.39.54,1.1,1.19,2.64,2.13,2.93,1.55.49,1.64-1.49,2.39-2.4.67-.82.62-3.03,2.37-1.89,1.2.78.11,2.14-.7,2.76-5.54,4.22-4.7,10.76-6.46,16.66.95-10.83-5.14-17.22-13.64-22-1.5-.84-3.34-2.97-4.93-.81-1.59,2.16-.77,4.65,1.38,6.25,2.47,1.84,4.63,3.86,5.65,6.81,1.02,2.96,1.59,5.88-1.8,7.9-2.08,1.24-2.31,2.88-.76,4.71,1.61,1.92,3.18,2.26,5.1.18,1.03-1.12,2.56-1.77,3.89-2.6.72-.45,1.55-1.56,2.24-.11.53,1.11-.24,1.79-1.3,2.01-1.27.27-1.94,1.14-2.14,2.27-.74,4.21-2.1,7.47-7.47,6.71-1.66-.23-2.08,1.35-2.1,3.02-.03,2.91-2.75,3.36-4.66,3.95-2.06.63-3.14-2.65-5.5-2.21.2-.9.37-1.81.61-2.7.73-2.75-.89-4.25-3.04-5.14-2.55-1.05-2.46,1.3-3.29,2.74-2.18,3.77-3.74,7.47-4.19,12.04-.47,4.78-1.09,10.25-6.28,13.12-.73.4-1.47,1.09-1.23,1.85,1.25,3.88-1.48,6.35-2.76,9.48-1.63,3.99-4.13,5.02-7.7,4.32-4.36-.85-9.3.64-13.01-3.12-.9-.91-1.95-.49-2.91.41-1.83,1.72-3.82,3.27-5.68,4.96-4.46,4.06-9.58,2.92-10.54-2.92-1.43-8.71-8.33-10.4-14.78-12.97-.69-.28-1.31-.19-1.68.36-1.87,2.74-4.53,1.76-6.92,1.34-3.73-.65-7.12.31-9.53,2.88-5.53,5.91-12.31,4.16-18.91,3.67-1.47-.11-3.36-1.6-4.12.37-.57,1.49,1.56,2.03,2.68,2.78.65.43,1.43.68,2.08,1.12,1.49,1.02,1.44,2.43.56,3.73-1.15,1.7-2.45.94-3.54-.16-1.83-1.85-3.9-5.38-6.37-3.18-2.4,2.14.26,5.57,1.59,8.06,1.77,3.33,4.33,3.2,6.84.45,1.54,1.59,1.33,3.54,1.35,5.37.02,1.38.24,3.03-1.35,3.76-1.64.76-2.63-.45-3.53-1.6-1.38-1.76-3.7-1.66-5.43-2.72-.74-.45-1.49-.34-1.98.55-3.82,6.88-10.11,9.38-17.57,6.85-2.35-.79-4.36-.99-6.72.4-4.76,2.8-8.26,1.06-9.68-4.31-.44-1.66-1.01-3.35-1.83-4.85-.91-1.67-.77-4.63-3.5-4.42-2.7.21-4.31,2.4-5.47,4.76-.72,1.47-.75,3.05-.65,4.64.28,4.61-2.06,6.58-6.64,5.53-.92-.21-1.93-.41-2.67-.94-3.79-2.73-7.49-4.02-11.92-1.06-1.91,1.27-3.06-.45-3.65-2.35-1.59-5.08-.42-10.65-2.91-15.61-.61-1.22.59-3.5,1.78-3.41,3.03.24,3.54-5.56,7.76-2.81.86.56,2.41-2.74,1.15-4.9-3.56-6.14-6.48-7.61-13.59-6.23-3.7.72-7.29,1.97-10.92,3.03-1.1.32-2.13,1.02-2.42,2.1-1.38,5.06-5.05,1.88-6.87,1.23-1.68-.6-2.91-3.26,0-5.63,2.81-2.29,1.63-6.83-2.7-11.08-2.47-2.41-2.96-3.81.92-4.61,2.7-.55,2.32-3.07,3.22-4.78.84-1.59,1.12-3.91,3.55-.88,1.25,1.55,3.33-.59,5.01-1.1,1.39-.42,1.95-1.53,1.53-3-.3-1.06-.69-2.1-.97-3.17-1.26-4.8-.89-5.24,3.92-4.96.92.05,1.92.15,2.75-.15,1.09-.39,1.71-1.46,1.78-2.6.03-.52-.36-1.27-.79-1.56-1.26-.87-1.97.13-2.71,1-.38.45-.89.78-1.37,1.2-1.65-1.57-1.01-3.4-1.07-5.05-.08-2.11,0-4.35,2.98-4.35,2.9,0,4.84,1.27,5.04,4.43.07,1.16-.92,2.7.77,3.31,1.49.54,2.74-.43,3.85-1.33,4.09-3.33,3.61-7.81,3.44-12.78-.81.65-1.25.86-1.48,1.21-.86,1.31-.34,3.79-2.96,3.59-1.4-.11-2.45-1.04-2.66-2.34-.34-2.09-.01-4.29,1.99-5.41,2.04-1.15,4.3-1.99,6.56-2.67,3.18-.96,3.25,2.23,4.57,3.74,1.54,1.77,3.07,1.14,4.56-.03,1.9-1.49,3.25-3.25,1.53-5.63-5.37-7.43-18.91-11.75-24.99-.84-3.78,6.79-10.38,10.51-14.77,16.44-.47.64-1.16,1.31-1.95.71-.4-.3-.55-1.12-.53-1.7.02-.77.37-1.53.45-2.31.2-1.89,2.84-3.75.62-5.58-2.02-1.66-4.58-1.68-7.23-1.06-1.88.44-3.89,3.12-5.48,1.22-1.47-1.75.44-4.14,1.35-6.09.82-1.79,1.25-3.26.19-5.3-1.36-2.62.54-5.16,1.51-7.52.76-1.86,2.12-.69,2.91.32,1.76,2.23,3.73,5.55,6.67,3.71,3.19-2,1.86-6.09,1.05-9.18-1.03-3.89-4.36-3.6-7.39-2.86-1.83.44-3.06.81-4.27-1.33-3.26-5.74-5.91-5.69-9.02.37-1.53,2.98-2.6,2.7-4.13.46-1.64-2.4-2.45-5.3-2.63-8.05-.19-2.99,1.87-4.99,5.14-4.93,3.78.07,7.22-.55,9.84-3.62,1.53-1.79,2.53-1.05,3.53.71,1.48,2.6,3.16,5.09,4.79,7.59.97,1.5,2.08,2.98,4.19,2.15,1.87-.74,2.37-2.4,2.34-4.26,0-.47.04-.99-.14-1.41-3.73-8.77.07-16.27,3.83-23.86.94-1.91,3.7-4.65,1.27-6.08-2.18-1.29-4.24,1.83-5.81,3.8-.66.83-1.33,1.64-3.03,3.73.91-6.64-.67-10.7-5.45-13.6-1.83-1.11-2.18-4.14-1.45-6.57.65-2.17,2.33-1.45,3.91-1.26,2.64.32,1.61-2.66,3-3.6,1.86.37,2.62,2.15,4,3.13,1.91,1.35,3.64,3.31,6.23,3,7.17-.85,11.59,2.81,14.89,8.62,1.32,2.32,2.66,4.7,5.33,5.82l-.04-.03"/>
        <path class="cls-2" d="M540.98,553.56c.68-.06,1.82-.02,2.86-.3,1.68-.46,3.63-1.06,3.3-3.3-.32-2.16-2.27-1.42-3.76-1.74-3.99-.86-8.02-.84-12.03-1.27-1.1-.12-2.26-.72-2.87.64-.75,1.66.69,2.25,1.74,2.84,3.21,1.8,6.63,2.91,10.76,3.14M629.18,636.31c5.56.72,10.53.13,14.53-3.31,1.38-1.18,4.08-2.4,2.57-4.78-1.3-2.05-3.87-1.84-6.03-1.13-1.16.38-2.3,1.06-3.21,1.88-2.68,2.38-5.24,4.89-7.86,7.35M590.96,606.55c-4.69-1.94-8.47-3.75-12.77-1.5-3.09,1.62-4.27,4.85-2.56,6.8,3.26,3.7,6.77,3.74,9.79-.09,1.43-1.81,2.73-3.69,5.54-5.2M678.68,573.3c.04-2.1-3.43-3.93-5.87-2.88-3.69,1.58-6.72,4.14-9.03,7.39-1.91,2.69-.54,5.56,2.56,5.88,3.83.39,12.27-6.71,12.35-10.39M617.61,565.03c-.34.87-.51,1.15-.56,1.44-.08.46-.15.94-.12,1.4.33,6.49-1.61,11.45-8.69,13-2.04.45-2,1.65-1,3.12.97,1.42,1.97,2.82,2.92,4.27,1.14,1.74,2.02,1.67,2.95-.23,2.49-5.08,5.63-9.78,9.17-14.18,2.3-2.87,2.12-4.97-1.21-6.7-1.08-.56-2.09-1.28-3.45-2.12M600.46,597.19c-1.05,6.5.77,7.91,7.46,6.47,1.29-.28,2.75-1.46,3.93-.03.79.96.06,2.05-.41,3.06-.55,1.19-2.62,2.39-1.29,3.57,1.55,1.38,3.11-.55,4.51-1.38.78-.46,1.42-1.25,1.93-2.02,1.94-2.94,1.49-8.12-1.04-9.97-3.11-2.28-6.02-2.25-8.51,1.19-2.31,3.18-4.52,1.25-6.58-.89M591.01,572.44c-1.74,2.23-1.71,4.73-1.53,7.14.23,3.17-1,5.62-3.53,7.25-2.74,1.76-4.65,3.77-4.02,7.27.66,3.66,3.9,4.67,6.58,6.19,1.3.74,2.75.69,3.95-.4,1.41-1.27.64-2.49-.05-3.79-2.19-4.13-1.67-7.83,1.86-11.04,1.28-1.16,2.49-2.42,3.08-4.11.33-.94.39-1.92-.47-2.58-.84-.65-1.4.04-1.96.62-.6.62-1.06,1.88-2.18,1.08-.91-.66-1.13-1.84-1.11-2.98.02-1.44,1.24-2.97-.62-4.63M699.16,580.23c-.65-1.58-2.03-2.25-3.33-1.22-4.83,3.85-8.35,1.8-11.7-2.13-2.08-2.44-3.34-1.52-4.11,1.17-.83,2.91-1.99,5.63-4.62,7.48-1.87,1.32-4.78,2.63-2.25,5.38,2.09,2.28,5.4,4.88,8.22,2.33,4.88-4.39,10.68-7.22,15.94-10.91.74-.52,1.67-.94,1.84-2.1M632.58,610.19c.56-.16,1.5-.32,2.36-.7,5.33-2.33,10.73-4.4,16.31-6.12,5.04-1.55,5.35-4.24,1.35-7.7-2.11-1.83-4.83-2.95-6.08-5.76-.49-1.1.29-3.45-1.94-3.07-1.82.31-1.96,2.23-2.02,3.84-.05,1.41,0,2.83-.08,4.25-.25,4.81-2.84,7.86-7.57,8.87-1.51.32-3.16.12-4.37,1.43-.94,1.01-1.32,2.16-.95,3.46.36,1.29,1.45,1.52,2.99,1.49M686.17,612.76c-.38-2.05.7-4.69-1.8-5.52-2.42-.8-2.94,1.71-3.86,3.28-.24.4-.43.86-.75,1.18-.8.78-1.71,1.54-2.9,1.13-1.33-.45-1.28-1.77-1.16-2.8.18-1.54.59-3.07,1.04-4.57.61-2.03,1.3-4.45-.89-5.51-2.67-1.29-3.76,1.42-4.9,3.19-1.27,1.96-2.09,4.16-4.06,5.71-1.42,1.11-4.47,2.43-2.2,4.61,2.17,2.09,3.72,6.89,8.21,4.27,2.89-1.69,5.04-1.91,7.52.55,2.29,2.27,4.05.89,5.04-1.49.53-1.27.5-2.76.7-4.03M555.58,555.62c-.28,2.21.41,3.11,2.9,2.87,2.71-.26,4.53-1.08,6.16-3.48,2.89-4.23,5.82-8.75,11.88-9.05,1.36-.07,3.7.65,3.22-2.04-.4-2.2-1.83-3.74-4.42-2.99-2.16.63-3.97,1.88-5.54,3.49-2.78,2.87-5.52,2.44-8.27-.07-4.59-4.19-4.49-10.05.59-14.03,1.31-1.03.99-1.71.67-2.7-.59-1.79-1.96-2.39-3.71-2.15-2.52.35-2.68,2.26-2.73,4.24-.2,8.64.49,17.31-.75,25.89M748.6,605.7c-1.42.02-2.85-.05-4.26.06-3.08.23-4.71,1.79-4,5,1.26,5.72.31,10.63-4.76,14.24-1.03.74-1.99,1.86-1.41,3.24,2.35,5.61-.31,10.87-1.14,16.21-.68,4.38-3.55,6.94-8.33,6.67-3.53-.2-6.9.4-10.15,1.84-1.92.85-4.18.89-4.82-1.29-.74-2.53,1.63-3.13,3.54-3.17,2.68-.05,3.23-2.3,4.77-3.61,6.7-5.73,1.44-9.92-1.21-14.53-.92-1.6-2.33-2.68-4.18-2.76-5.19-.21-6.52-3.43-6.7-7.92-.16-4.17-1.45-4.88-4.82-2.47-2.54,1.82-4.66,4.22-6.9,6.43-1.03,1.01-1.47,2.38.1,3.13,3.24,1.54,3.58,3.79,1.86,6.53-1.89,3.01-4.64,4.17-8.14,3.06-2.69-.85-4.56-2.46-5.7-5.21-2.64-6.43-4.58-6.84-10.08-2.61-1.19.92-2.19,2.8-3.95,1.98-1.86-.87-1-2.77-.69-4.23.61-2.83-.64-4.54-3.09-5.63-2.42-1.08-4.7-.92-6.43,1.2-.98,1.19-1.91,2.59-2.33,4.05-1.69,5.75-5.28,9.98-10.12,13.27-2.05,1.39-3.19,2.45-1.5,5.25,1.64,2.71-2.97,8.66-7.6,8.1-11.1-1.33-22.78,3.76-33.37-2.95-1.08-.68-2.67-1.8-3.73-.05-.8,1.33.54,2.3,1.35,3.22,3.06,3.5,6.2,6.14,11.45,3.81,3.13-1.39,5.98.73,9.9,2.61-5.14,1.76-9.69,1.88-13.26,4.52-.29.22-1.03.19-1.35-.04-6.54-4.64-15.59-5.54-19.8-13.68-1.81-3.49-1.19-5.77,2.98-7.82,1.45-.72,4.01-.72,3.6-2.99-.41-2.3-2.85-2.12-4.71-2.19-3-.11-6.04.02-8.68-1.74-1.11-.74-1.92-1.79-1.52-3.19.45-1.58,1.84-1.55,3.12-1.36,7.76,1.19,15.79,1.3,22.72,5.77.66.42,1.41.79,2.16.95,2.74.58,7.01,1.86,7.75-.56.84-2.75-3.62-2.22-5.71-3.02-4.99-1.89-10.04-3.52-14.6-7.37,5.27-3.05,9.5-1.6,13.33,1.56,4.48,3.7,9.27,5.08,14.97,3.41,1.94-.57,3.64-1.32,2.71-3.4-1.18-2.63,1.95-6.03-.41-7.39-2.68-1.55-4.25,2.43-6.6,3.55-4.92,2.33-10.03,1.58-13.81-2.45-4.84-5.17-11.76-4.91-15.4,1.2-2.58,4.33-5.44,5.01-9.82,3.49-3.53-1.23-9.66,4.55-9.06,8.26.24,1.5,1.35,2.03,2.65,2.31,1.43.31,2.44.91,1.66,2.58-.59,1.27-1.61,1.96-3.05,1.65-.6-.13-1.38-.31-1.71-.75-4.7-6.2-12.3-8.07-18.28-12.36-2.84-2.04-5.23-4.54-6.94-7.66-1.29-2.36-3.19-3.1-5.45-1.35-1.56,1.21-2.65,2.7.35,3.61,1.02.31,2.55.33,1.87,1.95-.62,1.48-2.13,2-3.6,1.43-2.93-1.13-3.79-3.61-3.6-6.51.11-1.72.52-3.43.71-5.15.47-4.31-1.33-7.03-5.71-7.73-2.75-.44-4.8-1.66-5.39-4.51-.36-1.74-.41-3.78,1.58-4.5,4.53-1.63,3.46-2.76.15-4.82-2.39-1.48-4.53-3.4-7.21-4.4-.67-.25-1.68-.41-2.2-.09-1.04.65-.43,1.72-.02,2.53.93,1.82,2.18,3.51,2.9,5.41.91,2.39-.17,4.54-2.24,5.66-2.43,1.31-2.73-1.25-3.52-2.61-1.81-3.1-4.43-5.39-7.48-7.07-5.09-2.81-6.55-7.87-8.29-12.76-.58-1.62-.24-3.4,1.83-3.62,2.33-.25,2.3,1.71,2.27,3.28-.05,2.66-1.59,6.9,2.71,6.44,4.25-.45,1.21-4.53,1.33-6.98.17-3.42-.47-6.68-3.45-8.88-1.96-1.45-3.81-2.88-5.59.67-1.54,3.07-4.04,4-6.56.56-2.28-3.12-5.51-5.13-8.58-7.35-5.51-3.98-5.18-7.94.86-11.06,7.15-3.69,14.24-3.57,21.18.66,2.38,1.45,5.6,3.99,7.45,1.04,1.75-2.78-2.51-3.59-4.29-4.98-5.88-4.61-12.18-8.78-11.65-17.65.11-1.79-1.26-2.03-2.63-1.16-2.78,1.77-3.39,4.35-2.7,7.43.59,2.63,1.39,5.32-1.64,7.17-4.7,2.86-9.97,3.39-12.7.89-1.4-1.28-2.88-1.72-4.63-2.02-4.6-.78-7.2-3.52-7.82-8.76,2.79.69,6.06,1.94,5.16-2.97-.21-1.14.92-1.37,2.03-1.15,4.17.81,8.75.38,11.86,4.27.53.66,1.58.91,2.75,1.56.55-2.43-.64-4.02-1.83-5.18-1.68-1.63-1.8-3.05-.68-4.94,1.04-1.77,2.3-1.75,4.01-1.08.79.31,2.16.39,2.7-.08,5.15-4.45,6.7-.51,8.3,3.42,5.45,1,5.97.43,4.22-4.61-.25-.73-.45-1.47-.68-2.21,3.17-1.56,6.23-.15,9.24.52,1.84.41,2.85,1.37,1.38,3.77-2.36,3.87-1.26,7.66,2.15,9.23,2.96,1.36,5.8.96,5.98-2.67.28-5.83,4.88-8.23,8.1-11.78,2.69-2.97,5.8-4.68,9.99-3.61,3.44.88,5.95,4.29,10.06,3.55.76-.14,1.18,1.36,1.09,2.35-.15,1.55.48,2.41,2.04,2.56.94.09,2.04.34,2.62-.57.76-1.2.24-2.4-.44-3.54-.99-1.65-3.95-2.92-.89-5.37,3.92-3.13,9.24-4.15,11.6-1.96,1.73,1.6,3.34,3.33,5.05,4.96,1.39,1.33,2.05,2.68.87,4.57-1.58,2.53-2.47,5.33-.36,7.92,2.05,2.52,4.51,1.28,6.89.25,1.21-.52,2.45-.57,2.94,1.22,1.02,3.74,4.14,2.71,6.62,2.59,2.09-.1,2.58-1.92,1.83-3.5-.9-1.89-1.3-4.77-3.79-4.94-1.91-.13.21,3.08-2.27,3.78-.98-1.02-.08-3.55-2.48-4.03-1.37-.28-3.74-1.14-2.99-2.91.88-2.06,4.11-3.32,5.58-2.42,4.79,2.97,10.14,2.87,15.27,4.03,2.5.57,3.31,2.65,3.44,5.08.08,1.41.18,3.11,2.28,2.8,1.87-.27,1.71-1.45,1.54-3.15-.32-3.3-.15-6.76,3.95-8.02,1.79-.55,8.54,3.26,9.51,5.29,1.07,2.22-.88,4.67-4.02,4.8-1.57.06-3.75-.47-3.64,1.7.12,2.46,2.54,1.72,4.16,1.65,1.25-.05,2.48-.52,3.73-.57,1.61-.06,3.3.26,4.09,1.83.78,1.54-.4,2.76-1.44,3.68-2.78,2.46-3.93,4.9-.63,7.85.99.89,1.12,2.16,1,3.5-.46,5.21,5.4,11.03,10.53,10.05,3.03-.58,5.89-2.09,8.76-3.33,1.04-.45,1.92-1.58,1.49-2.69-.77-1.99.12-3.24,1.28-4.64,1.12-1.34,1.2-2.9.12-4.36-1.11-1.51-2.42-1.07-3.76-.3-4.21,2.41-4.71-2.48-6.99-3.78-1.74-.99.78-2.22,1.18-3.42.93-2.78,2.99-2.83,5.37-1.89,3.54,1.39,5.57-2.21,8.64-2.66,4.44-.65,3.44-4,2.64-7.31,3.91.47,6.66,3.01,8.75,5.23,3.17,3.37,6.97,4.59,10.97,5.93,1.7.57,3.97.76,3.4,3.58-.7,3.42,1.08,2.94,3.22,2.08,5.64-2.27,8.73-.03,8.46,5.82-.12,2.64-.06,5.45.72,7.93,1.2,3.79,2.81,7.66,8.23,6.44,1.31-.3,2.88-.12,1.73,1.85-1.18,2.04-4.45,4.08-1.9,6.33,2.59,2.28,5.97.82,8.7-1.14.37-.27.82-.42,1.19-.61,1.21.58.21,2.23,1.03,2.51,6.15,2.13,2.56,5.67,1.19,8.64-2.63,5.72-5.23,11.44-10.09,15.85-3.45,3.13-.85,6.45.7,9.44,1.67,3.22,3.98,1.3,6.08.43,1.33-.55,2.74-1.24,4.11-.7,2.9,1.12,4-.28,5.99-2.38,3.6-3.8,3.35-5.39-1.55-6.86-1.35-.41-3.13-1.57-2.61-3.43.42-1.51,2.25-1.59,3.62-1.71,2.01-.18,4.2-.53,5.34,1.89.07.14.08.31.16.44.73,1.17-.81,3.95,1.66,3.56,2.15-.34,2.76-2.92,2.81-5,.09-3.23-2.05-5.52-3.82-7.94-4.23-5.8-3.97-7.62,2.37-10.97,5.39-2.85,10.1-3.91,16.63-.17,4.74,2.71,4.99,7.26,8.39,10.01,1.04.84.45,2.72-.57,3.89-1.14,1.32-2.55,1.06-3.89.41-.99-.48-1.83-1.26-2.83-1.71-4.54-2.06-8.6.31-9.2,5.19-.3,2.49-.67,5.02-1.39,7.42-1.05,3.52.89,3.49,3.2,2.88,2.25-.6,3.47-2.61,4.98-4.22,3.8-4.04,6.41-3.67,9.1,1.16,1,1.79,2.08,3.53,3.12,5.3l.04-.05Z"/>
        <path class="cls-2" d="M464.79,419.11c2.91-.37,5.9-1.06,6.65-4.55.47-2.19-3.75-6.02-6.29-6.12-1.56-.06-6.21,4.8-5.95,6.54.44,3.02,2.75,3.89,5.59,4.13M431.57,438.74c-.76-.01-2.66-.72-3.58,1.41-.7,1.61.37,2.27,1.54,2.92.61.34,1.02,1.15.39,1.53-2.19,1.34-4.73,2.03-7.19,1.42-2.21-.55-1.83-2.63-1.43-4.37.74-3.22,1.72-6.4,2.25-9.66,1.05-6.42-1.63-11.98-4.09-17.69-1.39-3.22-4.26-6.47-1.51-10.51,1.81-2.65,3.14-3.07,4.43.26.39,1.01.54,2.31,2.02,2.21,1.51-.1,2.02-1.38,2.48-2.55.93-2.35.1-4.65-.23-6.99-.74-5.29.52-6.41,5.53-5.18,1.32.32,2.81,1.43,3.95.02,1.2-1.49.1-3.02-.58-4.4-1.87-3.77-3.21-7.58-1.71-11.82.82-2.3,1.3-6.87,2.6-6.43,3.35,1.14,8.46-2.36,10.2,3.38.32,1.07,1.5,1.13,2.4.58,1.82-1.11,3.12-2.7,3.51-4.83.27-1.48-.72-2.31-1.96-2.86-3.17-1.41-6.48-1.15-9.79-.85-1.19.11-2.58.93-3.39-.61-.7-1.33.1-2.51.89-3.46,1.3-1.57,2.85-2.93,4.15-4.5,1.49-1.8,2.69-1.33,3.7.33,2.59,4.28,6,6.41,11.09,4.59,1.06-.38,1.99-.13,2.17,1.06.61,3.9,3.32,6.77,4.88,10.19.67,1.48,1.27,3.11.79,4.59-1.6,5.01,1.39,4.84,4.85,4.84,4.55,0,8.85-.49,12.36-3.71.93-.86,1.86-1.99,1.28-3.31-.67-1.53-1.87-.24-2.86-.26-4.48-.08-7.82-3.77-12.31-4.02-.38-.02-.95-1.64-.96-2.52-.07-5.68-1.57-11.25-1.19-16.97.14-2.11.66-4.01,1.86-5.76,1.18-1.73,2.48-3.68.03-5.31-2.2-1.46-4.69-1.37-6.5.59-2.27,2.47-3.23,6.38-7.5,6.49-4.01.11-5.94-3.21-8.6-5.31-2.44-1.92-4.71-1.51-6.7.66-1.05,1.14-1.91,2.45-3.71,4.8,0-7.89-.88-14.52,1-21.11,1.06-3.7,3.9-4.22,7.12-3.86,3.25.36,3.94,2.68,3.93,5.47,0,2.5-.6,5.01.5,7.47,1.93,4.3,5.99,5.02,9,1.47,1.49-1.76,1.67-3.08-.8-4.44-5.54-3.07-5.74-5.16-2.38-10.41,2.02-3.14,3.74-6.25,7.98-6.55.39-.03.8-.46,1.1-.79.73-.8-.7-3.63,2.04-2.42,1.97.87,4.19,1.9,4.82,4.24.53,1.96-1.16,2.85-2.6,3.43-3.97,1.59-4.18,5.31-4.83,8.61-.39,1.96.83,4.14,2.79,4.41,2.95.41,6.48-.33,7.79-3.04,2.53-5.24,7.17-4.39,11.37-5,2.01-.29,2.44,1.17,2.15,2.75-.63,3.36-5.55,6.62-8.83,6-1.17-.22-2.61-1.34-3.5-.07-.95,1.36.34,2.68,1.01,3.86,1.66,2.91,4.02,4.32,7.5,3.37,3.48-.95,6.25-1.05,5.91,4.07-.12,1.89,1.18,3.87,1.8,5.82,1.04,3.3,1.42,6.5-1.34,9.27-1.9,1.9-1.8,4.31-1.52,6.68.55,4.69,1.3,9.36,1.83,14.06.29,2.54,1.68,4.43,3.96,4.72,5.24.67,3.58,4.02,2.97,6.87-.75,3.49-2.99,5.03-6.63,4.31-7.11-1.4-7.48-1.04-7.94,6.58-.24,3.93.27,7.74,3.11,10.58,3.28,3.28,3.94,6.62,1.68,10.64-.42.75-1.36,1.67-.4,2.52.95.84,2.12.39,3.09-.17,1.56-.91,2.42-2.38,3.18-4,1-2.13,2.18-4.19,3.37-6.23.85-1.46,2.1-2.32,3.9-2.15,1.94.19,2.51,1.52,2.94,3.18,1,3.9,5.18,5.61,6.39,9.69.9,3.02-.12,5.16-.89,7.62-.48,1.56-1.44,1.04-2.6.57-5.21-2.13-7.53-.26-6.96,5.44.2,2.02.72,4.17-1.62,5.45-.82.45-1.16,1.23-.7,1.98,1.65,2.68,4.17,4.17,7.12,5.11,2.82.89,2.88-1.83,4.08-3,1.16-1.14,1.32-3.69,3.56-3.19,2.14.47,1.72,2.69,2,4.35.73,4.34,1.16,8.73,7.48,8.5,1.85-.07,4.9-.29,5.28,3.31.16,1.46,2.28,1.2,2.42.14.64-4.94,5.53-5.03,8.23-7.55,2.7-2.53,3.83-4.49.26-7.13-2.04-1.51-1.69-2.57.28-4.7,6.4-6.9,15.78-6.04,23.31-9.84,2.39-1.21,3.93.5,4.29,2.86.57,3.75-1.75,7.41-4.71,7.62-1.4.1-2.91-.33-4.19.06-1.88.56-3.44,1.94-3.41,4.07.03,2.37,2.26,2.47,3.84,2.72,4.91.78,9.39,2.72,13.83,4.76,2.85,1.31,4.65,2.39,1.98,6.31-1.72,2.52-4.49,3.78-5.57,5.55-2.05,3.35-4.85,6.64-5.77,10.59-.65,2.77-1.81,3.07-4.28,2.74-2.99-.41-5.77-1.29-8.64-2.17-4.77-1.47-4.03-3.84-2.03-6.93.51-.8,1.05-1.58,1.49-2.42.94-1.77,1.49-3.62-.28-5.18-1.69-1.49-3.59-1.74-5.69-.64-3.47,1.82-6.04,4.71-8.2,7.73-1.6,2.24-3.62,3.74-5.51,5.75-.51-.91-.74-1.98-1.3-2.2-4.39-1.73-5.86-4.22-2.68-8.38.4-.52.42-1.62-.31-2.18-.72-.55-1.5-.14-2.19.25-.41.23-.8.5-1.18.79-3.67,2.84-6.38,3.1-9.77-1.22-4.41-5.62-6.81-5.34-12.55-.92-.37.29-.91.87-1.11.78-6.46-3.02-4.29,2.79-5.33,5.73-3.33-2.71-8.47-3.57-6.37-9.6.68-1.95-1.26-2.3-2.46-2.83-3.04-1.32-5.42-3.27-6.4-6.53-1.02-3.4-2.56-3.2-5.13-1.33-2.2,1.59-3.54,3.96-6.46,6.43,1.21-4.43-.94-7.28-1.66-10.46-.83-3.65-4.48-4.07-7.34-3.06-3.01,1.06-5.05,1.16-6.81-1.73-.92-1.51-2.67-1.5-4.21-1.8-1.75-.34-2.3-1.72-2.2-3.19.17-2.54,1.78-.66,2.76-.74,3.48-.29,3.24-2.36,2.08-4.64-1.09-2.14-5.02-4.51,1.36-5.03,2.18-.18,3.28-3.55,2.83-5.88-.47-2.43-2.42-1.58-3.58-.35-4.08,4.35-8.3,2.82-12.27.15-2.25-1.51-2.48-.79-4.06,1.09-5.84,6.97,1.47,12.03.94,18.53"/>
        <path class="cls-2" d="M544.99,422.08c.1-1.09-.03-2.28.35-3.27,1.06-2.71-1.72-4.95-2.46-4.72-4.16,1.27-7.49-2.06-11.06-1.65-3.23.37-6.15,1.97-9.34-.32-1.09-.78-1.95.48-2.28,1.65-.73,2.59-2.28,2.46-3.78.86-3.52-3.77-8.22-6.37-10.88-11.01-1.52-2.66-2.82-5.25-.37-8.89,1.82,4.85,4.08,4.04,6.68,1.19,1.55-1.7,3.62-2.52,6-2.14,3.6.57,4.73,2.89,2.98,6.06-.53.96-1.21,1.86-1.61,2.87-.44,1.13-1.33,2.48-.33,3.55,1.12,1.21,2.34-.07,3.45-.47,3.58-1.31,7.1-1.01,10.68.06,1.6.48,3.1,1.57,5.32,1.03-1.51-2.02-2.89-3.88-4.27-5.73-.99-1.32-1.9-2.79-.56-4.26,1.21-1.34,3.24-2.39,4.66-1.24,3.42,2.77,5.35.66,7.63-1.5,1.71-1.61,3.58-4.52,6.11-1.19,2.18,2.87.48,4.95-2.11,6.56-1.88,1.17-4.34,2.49-3.19,5.05,1.28,2.85,4.51,3.77,7.24,4.89,1.14.47,1.45-.94,1.58-1.85.35-2.49.69-4.99.92-7.49.52-5.78,2.46-7.9,8.13-8.39,1.98-.17,3.69-.51,4.97-2.21,4.47-5.94,8.78-11.98,11.39-19.01,1.47-3.95,1.36-8.02.52-12.13-.28-1.37-1.83-3.17.3-4.14,1.58-.72,2.97.48,4.19,1.54.89.77.99,2.81,2.58,2.27,1.47-.49,1.44-2.32,1.75-3.66.43-1.87.15-3.75-.24-5.63-.35-1.69-.88-3.76,1.67-4.1,2.32-.32,3.03,1.72,3.11,3.4.23,4.75,1.07,9.36,2.17,13.97.45,1.88,1.05,3.15,3.1,2.01,2.31-1.28,2.68.2,3.08,1.85.97,3.97,2.67,3.48,5.06,1.01,2.9-3,6.01-5.77,4.57-10.61-.22-.75-.11-1.66.88-1.91.87-.22,1.52.3,1.91,1.04.52.97,1.62,2.42,1.3,2.93-2.59,4.1-.56,9.61-4.03,13.27-2.36,2.49-3.24,7.43-6.56,7.45-2.6.01-5.13-3.69-7.86-5.5-3.42-2.27-7.66-.99-10.38,3.26-1.52,2.37-2.51,5.08-3.66,7.67-2.07,4.65-4.84,8-10.59,8.37-2.38.15-4,3.05-4.64,5.34-.64,2.31,1.08,4.61,3.15,5.26,4.71,1.47,5.96,5.86,8.46,9.12,2.18,2.85-.77,5.63-1.02,8.5-.01.15-.68.43-.77.35-2.7-2.5-6.66-1.86-9.36-3.5-2.12-1.28-3.28-2.65-6.31-3.21-4.04-.75-3.7.63-4.11,3-.63,3.67-3.43,5.91-5.7,8.49-1.11,1.27-2.23.86-3.19-.29-1.18-1.42-2.67-2.17-4.52-2.22-.23-.55-.46-1.1-.7-1.66"/>
        <path class="cls-2" d="M554.68,344.18c4.82-.01,7.21-1.34,7.02-4.3-.3-4.68-4.22-2.49-6.53-2.93-2.92-.56-5.61.78-5.68,4.04-.07,3.19,2.73,3.28,5.19,3.19M543.93,379.31c-2.38.84-4.74,1.73-7.15,2.51-2.2.71-3.8,2.13-5.28,3.84-1.17,1.36-.91,4.59-3.21,4.07-2.73-.61-3.68-3.68-4.69-6.13-.97-2.34.86-3.38,2.53-4.39,3.11-1.87,2.4-4.26,1.1-6.93-.9-1.86-3.07-3.87-1.16-6.01,1.8-2.02,4.1-.71,6.13.17,2.29,1,3.31.57,2.82-2.15-.64-3.48-1.58-6.69-4.67-8.95-1.88-1.38-4.5-3.84-1.5-5.43,2.14-1.14,5.09-6.53,8.45-1.13,1.08,1.73,2.42,2.2,3.89.99,2.41-1.97,4.12-4.43,2.93-7.8-.74-2.08-2.55-3.15-4.37-4.14-1.93-1.05-2.76-2.7-2.06-4.74.61-1.77,1.77-3.44,3.7-1.22,2.7,3.12,4.92,1.87,6.26-.93,2.96-6.13,9.73-4.4,14.2-7.33.56-.36,1.21.2,1.5.8.2.42.32.9.36,1.36.26,3.13,2.58,5.01,5.03,4.34,2.77-.76,2.28-4.18,2.06-6.56-.12-1.34-2.29-2.63-.43-4.05,1.82-1.39,3.11.43,4.59,1.21,3.9,2.04,7.71,4.06,11.12,7,3.46,2.98,5.26-.11,6.66-3.48,3.74,3.56.98,7.76,1.98,11.3.29,1.04-2.34,1.16-3.69,1.06-7.03-.54-12,1.8-15.18,8.6-2.48,5.32-9.39,6.94-16.82,5.11-9.47-2.33-11.15-1.1-11.35,8.74-.08,3.78-1.44,7.07-3.11,10.31-1.67,3.25-2.3,6.53-.68,9.98l.04-.05Z"/>
        <path class="cls-2" d="M407.31,357.97c1.83,1.06.34,3.33,2.41,5.41.94-3.82.99-6.97-.22-10.14-.68-1.76-1.65-3.41-2.33-5.18-1.07-2.78-.51-5.24,2.53-6.08,4.29-1.2,6.1-4.1,6.97-8.27,1.56,2.67,1.21,5.37.26,8.1-1.21,3.44-2.41,6.88-1.83,10.61.27,1.77.81,3.68,2.8,3.92,1.75.21,1.9-1.82,2.57-2.97,1.19-2.03,1.4-4.57,3.15-6.31,1.2-1.2,2.64-1.73,4.31-.93,2.1,1,.99,2.04.19,3.33-1.24,2.01.44,3.3,1.7,4.37,2.68,2.28,3.84,5.18,3.06,8.44-1.34,5.55-.75,11.64-4.87,16.47-1.25,1.46-1.45,3.8-2.22,5.69-.71,1.74-1.12,3.96-2.43,5.04-3.38,2.78-7.14,4.82-6.42,10.37.23,1.81-3.05,2.34-5.11,4.41.98-3.38,1.81-5.96,2.46-8.59,1.56-6.28-.23-8.36-6.58-7.33-2.12.34-3.68.28-3.74-2.03-.23-8.96-1.18-17.99,1.81-26.74.25-.74.54-1.48,1.55-1.6"/>
        <path class="cls-2" d="M827.71,81.18c3.34,7.93,6.62,15.88,10.08,23.76.74,1.69.56,4.62,3.43,4.41,3.02-.22,4.72-2.53,5.48-5.21.5-1.76.5-3.76.28-5.6-.29-2.4-1.01-4.95,1.56-6.35,2.47-1.35,5.19-1.07,7.7.31,2.88,1.58,4.63,4.27,6.32,6.89,1.25,1.93-.12,3.57-1.52,4.97-1.55,1.56-3.21,2.57-5.45,1.28-1.16-.67-2.29-2.28-3.73-1.11-1.55,1.25-1.07,3.24-.68,4.88,1.19,4.99,3.58,9.84.99,15.25-.66-1.88-4.92-.81-3.53-4.69.24-.66-.8-1.37-1.7-1.05-1.43.51-2.41,1.44-2.44,3.11-.04,1.81,2.83,4.43-.21,5.17-2.28.56-3.42-2.82-4.59-4.73-1.98-3.23-3.5-6.73-2.74-10.64-1.29-1.47-.77,4.2-2.5.53-.47-.99-.92-2.11-.9-3.16.08-4.1-2.48-4.67-5.63-4.28-1.8.22-3.78.66-4.43-1.43-.62-1.98,1.6-1.93,2.74-2.51,2.04-1.05,1.17-2.22.26-3.41-2.3-2.99-2.8-6,0-8.94,2.2-2.3.64-4.68.11-7.06.36-.13.73-.27,1.09-.4"/>
        <path class="cls-2" d="M416.8,268.24c-2.97,4.65-6.93,7.95-7.9,13.53-.49,2.81-3.42,5.08-4.46,8.09-.32.93-1.43,1.21-2.43.81-1.35-.54-1.81-1.73-1.83-3.04-.03-2.83,1.4-5.12,2.98-7.31,3.6-5.01,6.28-10.42,7.37-16.54.36-2.01,1.48-3.48,3.3-4.33,1.44-.68,2.92-1.3,3.85-2.64,2.01-2.88,3.74-4.16,5.07.46.37,1.3,1.43,1.68,2.62,1.01,1.18-.66,1.91-1.7,1.55-3.14-.34-1.36-1.07-2.67-1.19-4.04-.21-2.37,1.17-3.99,3.4-4.44,2.13-.43,3.49.73,4.17,2.87,1.23,3.92,2.99,7.19-.98,11.36-2.98,3.13-1.56,8.43.09,12.63.96,2.43,1.38,4.19-1.99,4.7-1.29.19-2.19,1.21-2.93,2.26-1.24,1.76-2.89,2.53-4.91,1.68-1.98-.83-2.94-2.78-2.54-4.64.82-3.76-1.3-6.16-3.25-9.31"/>
        <path class="cls-2" d="M692.67,310.17c3.15,1.71,4.35,6.24,9.04,5.9,1.37-.1,1.31,1.92,1.15,3.16-.36,2.75-1.74,5.02-3.55,7.05l.04.03c-5.24-13.3-15.28-20.91-29.02-23.51-2.92-.55-3.77-1.6-4.41-3.98-.67-2.51-1.3-4.85,1.07-6.9,7.21-6.25,16.28-6.86,23.87-1.57,1.57,1.09,1.7,2.55,1.14,4.17-.82,2.38-1.83,4.7-2.52,7.12-1.02,3.58-1.1,6.93,3.22,8.56l-.04-.04Z"/>
        <path class="cls-2" d="M629.85,235.6c-.6-1.34-.84-2.6-1.58-3.38-4.2-4.43-3.9-10.26.93-14.1,1.86-1.48,3.91-2.65,6.25-3.26,1.22-.31,2.45-.62,3.62-1.07,6.84-2.64,8.28-5.77,5.31-12.4-1.49-3.33-3.25-6.05,2.72-6.16,2.66-.05,4.47-2.09,4.93-4.98.35-2.23,1.41-3.99,4.02-3.66,2.36.29,3.92,1.48,4.58,4.06.73,2.86.08,5.37-1.22,7.73-5.2,9.45-10.78,18.53-20.83,23.83-5.13,2.7-6.8,8.02-8.73,13.4"/>
        <path class="cls-2" d="M764.98,627.97c6.3-2.32,10.8,2.03,16.24,2.28,2.73.12,2.67,3.19.46,4.96-2.2,1.77-4.6,3.31-7.01,4.79-4.15,2.54-7.44,5.74-9.05,10.48-1.16,3.4-3.96,4.71-7.26,5.17-.93.13-1.97.09-2.42-.98-.44-1.05.17-1.9.93-2.44,1.27-.91,2.64-1.7,4.03-2.42,2.25-1.18,3.48-3.12,4.26-5.42.53-1.57.04-2.83-1.5-3.49-1.54-.66-2.11.36-2.85,1.57-2.64,4.3-7.28,4.65-11.54,4.91-2.84.17-4.37-4.54-2.48-6.94,2.83-3.57,6.93-4.73,11.18-5.25,3.12-.38,5.23-.63,3.5-4.82-2.01-4.86,3.18-1.53,3.51-2.39"/>
        <path class="cls-2" d="M713.41,273.57c2.07-3.15.99-6.29,1.18-9.34.21-3.49,2.38-6.13,3.73-9.12,1.32-2.9.54-4.42-2.83-4.68-6.52-.49-12.51.63-16.34,6.37-2.92,4.38-6.8,2.28-10.27,2.12-1.47-.07-3.18-2.24-1.82-4.06,2.23-2.99,1.74-5.84.58-8.91-.53-1.42-.43-2.76,1.59-4.01.64,4.36,3.38,5.87,7.29,5.7,1.3-.06,2.91-.2,3.38-1.35,2.15-5.3,4.74-3.02,7.7-.82,2.73,2.03,5.25.91,7.73-1.01,3.72-2.88,10.32-.41,11.1,3.96.35,1.95,0,3.58-2.08,4.15-5.22,1.42-4.85,5.52-3.85,9.13,1.1,4.01,1.55,6.93-3.28,8.58-1.16.4-1.46,2.72-3.82,3.28"/>
        <path class="cls-2" d="M688.21,655.41c1.29-3.15,1.18-6.16,4.55-6.93,1.65-.37,2.75-1.05,1.69-2.9-.93-1.61-2.79-2.49-3.92-1.11-4.37,5.37-12.6,7-14.16,15.19-.67,3.48-4,3.66-6.93.8-1.3-1.27-1.9-3.38-4.26-3.37-1.17,0-2.89.44-2.79-1.5.06-1.35,1.56-1.35,2.62-1.52,7.74-1.26,14.05-5.41,20.17-9.95,5.98-4.43,12.04-8.63,19.57-10.13,3.1-.62,4.18.13,3.51,3.31-.32,1.52-.48,3.16-.26,4.68.35,2.39-.04,3.3-2.65,2.36-2.66-.96-3.61,1.22-4.61,2.99-2.56,4.57-6.44,7.13-12.53,8.09"/>
        <path class="cls-2" d="M694.63,687.08c-1.81-.06-3.68.07-4.75-1.63-1.28-2.04-.43-4.12.78-5.74,2.77-3.72,7-6.49,7.29-11.78.02-.43.87-1.19,1.3-1.17,7.21.35,9.96-6.4,15.03-9.42,1.29-.77,2.4-1.61,3.85-.98,1.78.77.63,2.08.44,3.23-.18,1.08-.47,2.24-.25,3.27,1,4.64-.31,7.16-5.48,7.55-3.31.25-4.17,3.49-5.13,6.16-2.24,6.2-6.35,10.01-13.07,10.51"/>
        <path class="cls-2" d="M460.28,235.77c-5.49-.64-10.75-2.58-16.34-2.61-1.75,0-2.21-1.55-2.23-3.09-.02-1.89.48-3.72,2.61-3.89,5.97-.48,10.79-5.28,17.23-4.2,2.7.45,3.96-1.55,3.31-4.33-.47-2.04-.43-3.97,2.04-4.51,2.43-.53,3.83.96,4.62,3.09.33.89.38,1.91.85,2.7,1.93,3.26,4.68,6.49-1.98,7.7-1.5.27-1.73,2.53-2.32,3.95-1.46,3.52-4.24,4.89-7.8,5.18"/>
        <path class="cls-2" d="M543.89,379.35c6.46-.57,10.68-4.37,13.39-9.85,1.75-3.55,4.28-5.94,7.56-8.05,2.35-1.51,3.87-1.63,5.61.44,1.21,1.44,2.7,2.7,3.62,4.3,2.2,3.83.61,7.15-3.72,7.27-5,.14-9.03,1.28-11.22,6.27-.55,1.26-1.55,2.4-2.56,3.35-2.11,1.99-4.17,5.1-7.39,3.99-3.23-1.11-5.01-4.14-5.23-7.77l-.04.05Z"/>
        <path class="cls-2" d="M748.57,605.75c2.09-.43,3.72-1.67,5.27-3.03,1.61-1.41.41-2.8.02-4.29-.78-3.04-2.7.39-4.35-1.52,2.26-3.42,4.43-7.34,7.25-10.73,2.03-2.43,6.51-1.4,7.45,1.53,1.16,3.6,1.93,7.38,1.1,11.19-.56,2.55-1.82,4.76-4.72,5.3-.88.16-2.1-.57-2.6.43-.68,1.37.88,1.25,1.5,1.77.09.07-.19.89-.47,1.05-4.97,2.83-1.84,5.15.3,7.77.95,1.16,4.25,2.33,1.62,4.19-1.72,1.22-4.68,1.05-6.27-1.44-.49-.78-.94-1.76-.93-2.65.02-4.17-2.09-7.13-5.14-9.62l-.04.05"/>
        <path class="cls-2" d="M577.23,223.43c2.84-10.91,8.37-14.7,18.49-12.38,4.94,1.14,9.45,2.11,13.61-1.99,1.37-1.35,3.71-1.66,5.11.14,1.59,2.04-.67,3.13-1.81,4.16-2.34,2.1-4.76,4.17-7.41,5.84-3.74,2.36-7.91,3.47-12.14,1.36-4.09-2.04-7.67-2.23-11.14,1.24-1.03,1.03-2.56,1.86-4.7,1.63"/>
        <path class="cls-2" d="M518.9,360.54c-.62,2.22-.68,4.66-3.53,5.67-2.51.89-4.15.21-5.78-1.71-1.72-2.03-3.43-2.14-4.58.72-1.1,2.74-2.18,4.59-4.3.49-1.04-2-3.24-1.95-4.99-.82-2.32,1.51-.71,2.88.44,4.22.66.78,2.09,1.74.84,2.7-1.61,1.23-1.8-.86-2.64-1.59-2.41-2.09-2.59-4.42-1.42-7.2.61-1.44.88-3.03,1.24-4.56q1.31-5.63,5.57-1.89c2.17,1.92,4.54,3.48,7.49,3.74,1.5.13,3.6.66,4.18-1.17.64-1.99-1.49-2.81-2.86-3.03-4.61-.75-4.46-3.88-4.08-7.27.23-2.07,1.53-2.63,3.35-2.28,2.77.54,11.24,11.29,11.07,13.98"/>
        <path class="cls-2" d="M747.71,671.2c.62-7.45,3.59-9.92,10.6-8.82,2.37.37,4.23-.09,5.82-2.13,2.31-2.97,4.56-6.07,7.87-8.1,3.19-1.96,6.6-3.15,10.34-2.16,5.45,1.44,10.57,1.51,15.17-2.4.98-.83,2.46-1.41,3.18.21.61,1.37-.83,1.93-1.8,2.29-6.37,2.34-12.85,4.36-19.5,5.77-5.65,1.2-10.65,2.77-13.58,8.82-2.26,4.66-8.32,6.13-12.01,11.75-.37-3.49,1.11-5.04,2.02-6.74.52-.96,1.3-2.09.34-3.04-1.23-1.21-2.29,0-3.3.68-1.77,1.17-2.65,3.56-5.14,3.87"/>
        <path class="cls-2" d="M611.51,197.14c-3.61-1.17-8.75-1.67-13.13-4.35-2.92-1.78-4.36-4.64-3.86-8.03.37-2.54,2.8-2.96,4.8-2.93,3.04.05,4.72,2.18,5.82,4.82,1.4,3.37,2.5,7.41,7.55,5.45,4.01-1.56,5.16-6.67,2.87-11.4-.53-1.1-1.87-2.25-.91-3.38.98-1.15,2.29.37,3.5.4.61.01,1.24.24,1.83.45,1.75.66,4.35-.58,5.12,2.32.73,2.74-.58,4.42-2.67,5.96-2.16,1.59-2.69,4.18-3.33,6.63-.86,3.3-3.02,4.64-7.58,4.06"/>
        <path class="cls-2" d="M417.15,302.19c0,2.23-.29,3.69.06,4.98.75,2.73,1.37,5.67,2.88,7.97,2.11,3.22,4.78-.76,7.27-.15,1,.24,2.18-.41,3.46,1.03-4.93,2.58-7.64,9.05-14.93,6.69-1.87-.61-2.54,1.27-2.85,2.98-.39,2.22-.85,4.87-4.02,3.73-2.92-1.04-3.53-3.29-1.94-6.1,1.55-2.75,1.51-5.68.86-8.73-1.22-5.73.14-11.29,1.54-16.81.28-1.11.86-2.03,1.86-2.63.98-.58,2.1-1.15,3.09-.39,1.34,1.03.11,1.98-.45,2.81-3.08,4.51-3.94,9.55-3.7,14.89.06,1.28.2,2.55,1.02,3.58,1.08,1.34,2.53,2.09,4.17,1.32,1.88-.88.97-2.42.4-3.67-1.67-3.7-3.12-7.34,1.28-11.5"/>
        <path class="cls-2" d="M605.95,683.47c6.62.71,14.56,2.72,22.5,4.7.88.22,1.73.79,2.45,1.38.96.78,2.33,1.6,2.03,2.97-.35,1.61-2.02,1.05-3.2,1.24-9.65,1.59-18.88.93-26.99-5.22-1.42-1.08-3.59-1.72-3.58-4.03,0-.93,1.07-1.09,6.79-1.03"/>
        <path class="cls-2" d="M521.98,88.23c1.09.46,1.97.79,2.81,1.2,2.58,1.29,3.59-.39,4.79-2.25,2.57-3.99,4.57-4.06,6.82-.08,2.17,3.84,4.07,7.8,7.69,10.57.62.47,1.23,1.11.71,1.99-.46.77-1.31,1-2.06.71-5.76-2.23-11.83-1.06-17.72-1.66-4-.41-6.58-6.24-4.37-9.48.31-.45.91-.7,1.33-1.02"/>
        <path class="cls-2" d="M657.93,130.82c2.96,2.04,5.26,3.93,7.62.31.92-1.41,2.96-.62,4.43-.05,3.12,1.2,4.85.58,4.8-3.14-.02-1.23-.6-3.34,1.64-3.16,2.19.17,1.94,2.12,1.69,3.7-.77,4.87-3.16,8.84-6.86,12.06-2.25,1.96-4.63,3.8-6.71,5.93-2.85,2.92-4.57,1.69-5.14-1.5-.77-4.3-.94-8.7-1.47-14.16"/>
        <path class="cls-2" d="M621.06,350.37c.96.24,1.59.34,2.18.55,4.08,1.43,6.38.61,6.12-4.32-.1-2,.6-4.04.87-6.07.22-1.61.98-2.68,2.66-2.78.74-.04,1.83-.08,2.19.35,1.05,1.25-.04,2.32-.75,3.33-.65.93-1.47,2.03-.61,3,3.78,4.28,1.3,9.41,2.08,14.08.28,1.7-.76,1.89-2.28,2.59-7.45,3.45-10.1-2.24-13.55-6.53-.79-.99-1.46-2.18-1.01-3.49.42-1.23,1.53-.72,2.08-.72"/>
        <path class="cls-2" d="M480.09,291.18c-3.52.03-6.99-.18-9.62-2.98-2.27-2.41-2.58-4.66.74-6.46,3.1-1.68,6.14-5.26,8.97.63.87,1.81,3,1.54,3.92-.74.35-.87.42-1.86.81-2.71.72-1.57,1.43-3.43,3.72-2.72,2.09.65,1.74,2.28,1.24,3.89-.18.59-.2,1.24-.23,1.86-.37,8.12-1.55,9.26-9.55,9.22"/>
        <path class="cls-2" d="M666.57,688.07c-1.96.11-4.29-.25-6.45-1.27-1.32-.62-3.46-.77-3.18-2.85.23-1.76,2.07-2.43,3.54-2.71,3.53-.68,7.12-1.36,10.7-1.43,3.82-.08,6.73-1.01,8.34-4.77.4-.93,1.33-1.78,2.23-2.32,1.35-.82,2.74-.46,3.88.62,1.23,1.17,1.36,2.59.25,3.78-5.18,5.52-10.3,11.23-19.31,10.95"/>
        <path class="cls-2" d="M700.34,16.44c-4.72-.56-8.13-1.9-9.8-6.22-1.65-4.25,1.14-6.38,3.64-8.77,1.96-1.87,3.57-2.1,5.41.34,1.84,2.44,3.59,5.28,7.38,5.08,1.21-.06,1.65.9,1.57,1.9-.2,2.39-.62,4.88-2.94,6.07-1.76.91-3.85,1.2-5.26,1.6"/>
        <path class="cls-2" d="M756.25,246.87c.02,2.22-1.1,3.85-3.04,4.92-3.99,2.19-4.28,5.02-1.72,8.55,1.2,1.66,2.18,3.47,3.25,5.22.51.84.93,1.79,0,2.55-1.21.98-1.97,0-2.75-.8-3.9-4.03-6.66-9.07-11.27-12.52-1.42-1.06.06-2.26,1-3.04,2.23-1.86,4.44-3.67,3.45-7.1-.11-.4,0-1.18.25-1.32,2.76-1.51,5.76-.47,8.61-.44,1.75.02,2.91,1.79,2.23,3.98"/>
        <path class="cls-2" d="M699.13,91.55c6.04,4.21,9.2,8.74,7.92,15.58-.51,2.72-.26,5.01,3.21,6.31,3.36,1.25.28,4.33.46,6.51.14,1.68-3.22,2.24-5.12,1.92-2.02-.34-2.41-2.24-1.89-4.15.55-2.05-.2-3.62-1.55-5.14-2.99-3.38-4.05-7.2-3.14-11.77.54-2.69.1-5.58.1-9.26"/>
        <path class="cls-2" d="M557.01,224.87c-.31,8.8-5.3,14.09-13.9,14.75-.85.07-1.59-.05-2.04-.8-.51-.84-.06-1.53.59-2.03.87-.68,1.87-1.22,2.1-2.42.2-1.08.52-2.28-.29-3.16-.84-.91-1.71,0-2.53.34-1.38.56-2.86,1.92-3.72-.66-.61-1.86-.49-3.58,1.44-4.41,2.15-.93,4.41-1.67,6.7-2.2,2.77-.65,3.8,1.35,4.83,3.45.68,1.4,1.84,1.09,2.53-.09.63-1.07.99-2.3,1.48-3.45.36-.86.62-2.12,1.7-1.98,1.5.19,1.05,1.64,1.13,2.68"/>
        <path class="cls-2" d="M544.99,422.08c.23.55.47,1.11.7,1.66-.52,4.04-2.81,3.8-5.73,2.49-2.14-.96-3.92-1.79-4.12,2.18-.2,4.03-7.66,7.36-10.79,5.53-1.98-1.16-2.26-2.07-.35-3.35,1.32-.89,3.39-2.02,2.67-3.43-2.33-4.55,1.11-5.21,3.8-5.92,3.43-.9,4.08-2.84,2.43-6.97,4.5,3.09,7.95,5.45,11.4,7.81"/>
        <path class="cls-2" d="M519.11,311.86c.79,1.11,1.26,1.71,1.67,2.35,1.24,1.96,2.65,3.76,5.3,2.75,2.44-.93,2.32-3.01,1.99-5.17-.36-2.35.23-4.41,2.53-5.6,1.35-.7,2.77-.75,4.05.09,1.47.96.58,2.14.25,3.35-.84,3.02-1.3,6.17-2.32,9.12-2.12,6.18-6.05,8.67-10.37,6.89-4.09-1.68-5.66-7.74-3.11-13.79"/>
        <path class="cls-2" d="M517.58,89c.04,5.65-2.05,8.19-7.41,9.02-2.85.44-5.03,1.71-6.36,4.32-1.03,2.02-2.33,3.68-4.72,1.86-2.23-1.7-3.17-3.95-1.39-6.58,1-1.47,2.52-2.34,4.07-3.14,3.87-1.98,8.28-3.22,9.88-8.1.48-1.46,2.21-1.75,3.68-1.38,2.19.55,2.04,2.51,2.25,4.01"/>
        <path class="cls-2" d="M542.46,128.62c.78-2.83.95-6.34,5.92-3.33,2.99,1.81,3.42-1.51,4.01-3.49,1.39-4.73,4.23-5.75,8.33-2.9.79.55,1.64,1.11,1.48,2.19-.17,1.15-1.23,1.19-2.14,1.47-5.51,1.7-6.26,2.87-5.32,8.4.27,1.56.74,3.15.13,4.64-.69,1.68-2.36,3.57-3.79,1.75-1.92-2.44-4.3-3.49-6.91-4.57-1.75-.72-2.08-2.2-1.71-4.17"/>
        <path class="cls-2" d="M585.78,54.53c.92.17,2.61.55,4.32.78,2.3.31,3.85,1.24,3.91,3.84.05,2.36-.3,4.64-2.85,5.39-4.76,1.4-8.13,4.03-9.37,9.01-.23.93-.79,1.99-1.94,1.5-1.58-.67-2.25-2.18-2.36-3.83-.1-1.6.99-2.67,2.14-3.48,2.87-2.03,2.95-4.3,1.52-7.37-1.98-4.26-.78-5.85,4.62-5.84"/>
        <path class="cls-2" d="M665.29,635.23c2.37,0,4.73-.04,7.1.02.96.02,1.97.3,2.34,1.3.4,1.08-.34,1.81-1.21,2.27-3.6,1.89-6.06,4.92-8.55,8.01-1.59,1.97-3.79,2.71-6.35,1.39-2.54-1.31-2.67-3.25-1.75-5.58.12-.29.11-.65.28-.9,1.41-2.07-2.67-5.31,1.12-6.56,2.13-.7,4.67-.13,7.03-.13v.18"/>
        <path class="cls-2" d="M928.1,231.25c-5.53-1.13-9.13-4.87-9.67-10.17-.27-2.65-.13-5.34-.13-8.01,0-2.12.15-4.34,2.84-4.67,2.35-.29,3.18,1.62,3.86,3.44,2.34,6.24,2.55,12.81,3.1,19.41"/>
        <path class="cls-2" d="M692.71,310.2c-.29-1.38-.4-2.83-.91-4.12-1.35-3.36-.26-5.35,3.05-6.58,3.32-1.23,5.39-3.25,3.71-7.22-.65-1.55.23-3.09,1.6-3.45,1.76-.46,1.4,1.58,2.03,2.52,2.89,4.35,1.09,10.12,4.52,14.39.82,1.02-.89,2.16-1.84,2.92-1.24,1-2,.07-2.65-.89-.53-.78-1-1.6-1.53-2.38-.56-.82-1.24-1.47-2.34-.98-.78.36-1.33,1.11-1.1,1.89,1.45,4.88-2.24,3.55-4.58,3.86l.04.04Z"/>
        <path class="cls-2" d="M480.81,237.3c5.04-2.64,8.22-5.57,9.57-10.42.84-3.02,9.85-3.83,12.3-1.42,1.01.99.34,1.85-.46,2.29-1.08.6-2.32,1.01-3.53,1.24-3.74.71-7.9.77-3.29,6.24,1.8,2.13-.9,3.71-2.69,4.51-4.08,1.81-7.56-.15-11.89-2.44"/>
        <path class="cls-2" d="M534.13,632.77c2.5,2.09,5.04,4.14,7.5,6.28,4.07,3.54,8.34,6.7,13.65,8.19,1.74.49,4.33.63,3.61,3.28-.64,2.39-2.97,2.44-5.14,2.07-4.62-.79-8.71-2.56-12.04-6.01-3.74-3.87-6.24-8.4-7.59-13.81"/>
        <path class="cls-2" d="M475.45,590.14c-2.75-7.27-7.9-11.82-12.06-17.11-1.12-1.43-2.27-2.83-.75-4.57,1.67-1.91,3.19-.77,4.98.18,6.38,3.39,10.31,8.16,9.89,15.75-.1,1.72-.26,3.41-2.05,5.76"/>
        <path class="cls-2" d="M548.65,69.71c2.76-10.02,9.52-14.77,18.87-14.28,2.67.14,4.74.71,4.66,3.95-.08,3.14-2.52,5.44-4.78,4.66-7.39-2.56-13.02.14-18.75,5.67"/>
        <path class="cls-2" d="M653.41,321.83c-.21,6.69-8.69,13.19-14.55,11.52-1.43-.41-2.96-.99-2.46-2.8.68-2.48.29-5.01.71-7.46.34-2,2.19-4.22,3.81-2.09,4,5.25,8,2.16,12.49.82"/>
        <path class="cls-2" d="M642.27,250.8c6.04-6.75,9.2-14.83,13.82-23.37,1.12,7.19-.12,13.46,1.23,19.52.29,1.3-.68,2.15-2.08,1.48-3.26-1.55-5.67-.56-7.84,2.1-1.32,1.62-3.03,1.11-5.14.26"/>
        <path class="cls-2" d="M516.84,114.23c2.18.17,4.35.46,6.53.48,1.37.01,3.06-.79,3.63,1.04.55,1.77-.12,3.82-1.75,4.48-3.6,1.46-6.88,4.67-11.34,2.65-.54-.25-1.24-.12-1.85-.26-1.55-.36-3.85,1.46-4.58-.83-.74-2.32,1.16-4.06,2.79-5.57,1.85-1.7,4.12-2.17,6.56-1.98"/>
        <path class="cls-2" d="M463.45,139.45c.11-6.5,9.34-13.53,15.13-11.68,1.92.61,1.73,2.03.99,3.42-1.38,2.6-3.75,4.21-6.16,5.71-1.88,1.17-3.7,2.33-5.06,4.17-.83,1.13-.68,3.66-2.92,3.01-2.3-.67-1.87-2.98-1.98-4.63"/>
        <path class="cls-2" d="M399.56,324.28c-4.76-7.07-5.11-28.44.02-32.89-1.86,6.39,1.08,11.06,2.57,16.09,1.74,5.85-1.42,10.9-2.59,16.8"/>
        <path class="cls-2" d="M440.82,534.89c-4.47-4.43-6.29-9.35-6.33-14.81-.03-3.95-.82-7.11-4.67-8.92-.99-.46-2.1-1.2-1.77-2.48.41-1.58,1.92-1.32,3.14-1.35,1.72-.03,2.9.83,3.96,2.15,3.79,4.76,6.99,18.15,5.67,25.4"/>
        <path class="cls-2" d="M929.84,419.25c-.75-1.98-1.3-3.42-1.9-5.01,4.88,1.78,4.92,1.77,5.41,6.56.21,2.1.67,3.76,3.31,3.49,2.28-.23,3.13,1.15,3.19,3.12.05,1.5.65,3.48-1.17,4.19-1.88.74-3.35-.65-4.26-2.15-1.48-2.45-3.68-2.35-6.12-2.45-2.56-.1-4.55-1.23-4-4.5.58-3.42,1.32-4.01,5.53-3.26"/>
        <path class="cls-2" d="M581.84,169.47c4.48-5.71,7.86-11.83,15.46-12.87.45-.06.85-.5,1.29-.54,2.09-.16,5.03-1.05,5.76,1.27.73,2.31-1.16,4.42-3.82,5.05-6.31,1.49-11.5,5.87-18.69,7.1"/>
        <path class="cls-2" d="M914.83,195.47c-2.54-5.34-5.56-9.06-6.62-13.73-.62-2.74-.67-6.17,1.79-7.27,2.61-1.16,4.28,2.15,5.4,4.13,2.94,5.16,2.34,10.48-.57,16.88"/>
        <path class="cls-2" d="M850.73,84.84c-2.01-4.16-3.55-7.4-5.15-10.6-.73-1.46-1.07-2.93,1.01-3.21,4.92-.67,9.54.54,13.84,2.93,1.48.82,1.27,2.44,1.34,3.8.08,1.57-1.25,1.3-2.01,1.04-5.03-1.75-7.8.35-9.04,6.06"/>
        <path class="cls-2" d="M641.53,90.99c-6.02.71-7.53,6.23-11.77,8.3-1.28.62-2.12,2.95-3.93,1.43-1.5-1.26-2.15-3.11-1.52-5.15,1.23-4.02,4.32-6.15,8.02-7.42,3.29-1.13,6.04.16,9.21,2.84"/>
        <path class="cls-2" d="M943.6,290.54c7.47,5.03,7.16,17.03,2.61,21.99-.77.84-1.6,1.69-2.81,1.34-1.31-.38-1.29-1.63-1.38-2.73-.18-2.23.22-4.41.87-6.52,1.4-4.57.97-9.25.71-14.08"/>
        <path class="cls-2" d="M745.84,655.46c-7.57,8.65-11.83,21.51-26.87,20.65,10.83-4.49,16.54-15.52,26.87-20.65"/>
        <path class="cls-2" d="M689.41,47.41c-.19,4.28-6.54,12.36-9.89,13.21-2.29.58-3.73-.07-3.64-2.71.13-3.81,7.75-11.87,11.51-12.2,1.85-.16,2.03,1.02,2.02,1.7"/>
        <path class="cls-2" d="M402.28,359.4c-5.9-8.61-4.74-21.45,2.31-30.12-.77,10.09-1.49,19.48-2.31,30.12"/>
        <path class="cls-2" d="M940.73,387.56c4.23-1.69,3.8-4.77,2.65-8.13-.44-1.28-1.56-3.09.16-3.75,2.11-.8,2.32,1.58,2.89,2.88,1.05,2.38,1.34,4.88.28,7.36-.95,2.23-1.35,6.25-3.88,5.66-2.87-.67-6.91-2.18-7.08-6.46-.08-2.04-3.04-5.31.6-5.98,3.68-.69,3.45,3.1,3.61,5.74.05.91-.09,1.88.76,2.68"/>
        <path class="cls-2" d="M801.89,660.37c1.07,4.25-1.43,5.11-5.22,5-4.64-.14-8.89,1.7-13.23,3.02-1.16.35-2.71,1.19-3.43-.12-.81-1.48.66-2.59,1.71-3.47,1.88-1.56,4.12-2.18,6.56-2.17,2.35.01,4.71.03,7.05-.12,1.72-.11,3.65-.36,4.48-2.08.93-1.94-1.02-2.19-2.16-2.88-.96-.58-.7-1.33.07-1.8,1.16-.7,2.47-1.82,3.68-.15.97,1.34,1.06,2.92.49,4.78"/>
        <path class="cls-2" d="M588.56,663.07c-2.03-.8-5.13-1.61-7.8-3.18-2.9-1.7-2.58-4.54-.76-6.94,1.92-2.55,3.84-1.14,5.51.54,1.78,1.8,3.66,3.42,5.99,4.5,1.31.6,2.68,1.38,1.92,3.18-.7,1.65-2.14,2.18-4.86,1.9"/>
        <path class="cls-2" d="M441.83,492.64c2.33-.89,4.29-.56,6.2.86,2.54,1.89,4.1,4.84,8.07,5.2,2.07.18.4,3.32-.26,4.75-.72,1.57-1.72,3.77-3.79,3.73-1.74-.03-1.89-2.28-2.73-3.54-1.22-1.83-2.53-3.61-3.61-5.52-1.07-1.89-3.24-2.97-3.88-5.48"/>
        <path class="cls-2" d="M580.23,19.09c1.34-4.94,5.36-7.98,9.56-10.84,1.23-.84,2-.29,2.15,1.26.41,4.21-3.72,11.09-7.73,12.77-2.84,1.18-4.27.39-3.98-3.19"/>
        <path class="cls-2" d="M440.44,288.74c-.66,3.29-1.27,6.54-1.96,9.76-.4,1.83-1.71,2.3-3.21,1.47-2.26-1.24-3.65-3.16-2.68-5.85.34-.94,1.37-1.68,2.19-2.38,2.11-1.81,1.85-3.34-.25-4.99-.84-.66-3.57-.91-1.46-2.85,1.53-1.4,3.65-2.21,5.52-.33,1.4,1.4,1.74,3.31,1.87,5.17"/>
        <path class="cls-2" d="M748.28,618.52c1.7.1,2.71.87,3.25,2.04,1.04,2.27,1.91,4.6,2.85,6.91.48,1.19-.03,2.11-.83,2.95-3.46,3.58-5.56-.66-8.13-1.58-2.47-.89-2.6-3.17-.88-4.92,1.62-1.64,1.55-4.48,3.74-5.4"/>
        <path class="cls-2" d="M479.13,181.5c-.45-1.48-1.11-2.93-1.32-4.44-.43-3.21-1.63-5.64-4.93-6.78-1.52-.52-3.03-1.58-2.23-3.51.96-2.32,2.89-3.76,5.44-3.92,1.8-.11,3.1,1.01,3.14,2.82.14,5.26,2,10.45-.11,15.82"/>
        <path class="cls-2" d="M681.4,201.85c3.93,2.51,5.07,4.92,3.42,8.38-1.39,2.92-3.6,5.19-6.14,7.01-2.51,1.8-4.74,1.01-6.28-1.66-.65-1.13-.74-2.41.71-2.58,6.2-.75,9.17-4.14,8.29-11.14"/>
        <path class="cls-2" d="M675.97,144.04c.53-3.05,2.13-5.1,5.3-4.84,2.65.22,5.18,1.28,6.66,3.76.35.59-6.57,6.74-7.51,6.7-3.66-.16-3.75-3.13-4.45-5.61"/>
        <path class="cls-2" d="M524.62,219.48c2.44,1.05,5.84,1.65,5.69,5.49-.1,2.57-1.92,4.75-4.63,4.13-2.87-.66-6.47-1.46-6.2-5.75.18-2.9,2.06-4.02,5.13-3.86"/>
        <path class="cls-2" d="M495.22,328.06c.76.43,1.51.58,1.88-.43.31-.85-.1-1.55-.84-1.97-1.28-.73-2.9-1.63-1.1-3.02,1.46-1.13,3.21.14,3.88,1.46,1.47,2.9,2.73,5.96,3.69,9.07.64,2.08-.77,3.2-2.84,3.32-3.14.17-7.22-4.78-6.62-7.9.31-1.64,1.11-1.08,1.95-.52"/>
        <path class="cls-2" d="M578.48,663.65c3.56.21,8.8,4.23,8.27,6.31-.52,2.05-1.13,4.5-4.08,4.42-2.62-.07-7.16-5.93-6.94-8.81.16-2.14,1.82-1.75,2.76-1.92"/>
        <path class="cls-2" d="M606.06,252.31c-2.43-.03-4.38-.74-4.61-3.56-.08-.93,7.07-6.9,8.08-6.66,2.26.53,3.07,2.62,3.64,4.47.48,1.57-5.05,5.83-7.1,5.74"/>
        <path class="cls-2" d="M501.23,522.24c.23.74.43,1.48.68,2.21,1.75,5.05,1.23,5.61-4.22,4.61.2-1.85.44-3.7.57-5.56.08-1.13-1.13-2.67.57-3.2.55-.17,1.59,1.24,2.4,1.93"/>
        <path class="cls-2" d="M846.76,236.37c5.06,1.71,9.23.94,11.7-4.85,1.19-2.8,2.43-.3,2.65.71,1.11,5.17,3.46,6.8,8.7,4.5,3.23-1.42,5.37,1.73,6.63,4.05,1.55,2.85-.88,5.46-2.95,6.6-3.05,1.69-4.75,3.28-4.74,7.05,0,3.06-2.12,4.34-5.31,2.89-2.5-1.14-4.64-2.69-6.33-4.81-3.43-4.31-6.64-8.8-12.13-10.85-1.65-.62-2.15-2.36-1.69-3.99.43-1.54,1.93-1.33,3.47-1.3"/>
        <path class="cls-2" d="M856.71,322.53c-2.64.02-5.2-.1-5.13-3.76.07-3.98,4.2-7.62,8.63-7.67,3.08-.03,4.08,1.72,4.06,4.48-.04,4.48-2.68,6.93-7.55,6.94"/>
      </g>
      <g>
        <path class="cls-1" d="M446.92,297.54c-6.22-25.8-19.66-43.65-41.09-54.56-16.73-8.53-35.16-11.1-54.78-7.64-27.82,4.9-47.57,20.1-58.71,45.18-9.11,20.52-10.88,42.93-5.27,66.62,5,21.11,15.81,37.44,32.13,48.53,13.91,9.45,29.11,14.12,46.12,14.12,5.26,0,10.7-.45,16.33-1.34,24.58-3.9,43.33-16.67,55.72-37.98,8.56-14.71,12.46-30.98,11.92-49.71.47-6.81-.35-14.83-2.37-23.21ZM373.38,245.45c.07-.71.54-1.79,1.51-2.05.88.25,1.74.75,1.73,1.48,0,.65-.17,1.19-.43,1.41-.05.05-.21.19-.67.12l-.15-.02c-1.86-.25-2.04-.49-2-.95ZM367.29,254.86c-.27.03-.78-.1-.99-.33-.07-.08-.07-.11-.06-.15.15-.91.99-1.2,2.69-1.47,0,0,.01,0,.02,0,.03.12.07.3.09.43.03.17.07.35.11.53-.16.49-.59.84-1.87.99ZM367.74,258.27c12.02,0,22.34,3.37,31.34,10.18,9.96,7.54,16.38,17.86,19.62,31.55,4.44,18.75,3.49,36.45-2.84,52.6-8.23,20.99-25.67,32.44-49.02,32.29h-.02c-.22,0-.44,0-.66,0-26.47,0-45.36-15.37-51.87-42.26-4.76-19.67-3.18-38.15,4.7-54.94,7.69-16.38,20.47-26,37.99-28.59,3.73-.55,7.32-.83,10.77-.83Z"/>
        <path class="cls-1" d="M612.64,341.39c-6.59.18-12.35.18-17.6-.02-1.39-.05-2.94.03-3.97,1.03-.77.75-1.12,1.85-1.11,3.46,0,1.23-.28,2.49-.59,3.82-.1.44-.2.88-.29,1.31-4.25,20.37-19.79,33.38-40.55,33.94-21.42.59-39.73-10.86-47.74-29.85-7.37-17.48-8.51-36.01-3.48-56.65,3.26-13.37,9.81-23.73,19.47-30.77,10.53-7.69,22.62-10.54,36.95-8.72,18.96,2.4,30.16,12.16,34.24,29.84.55,2.38,2,3.45,4.55,3.38,7.52-.19,13.31-.19,18.78.01,1.74.06,2.92-.31,3.62-1.14.93-1.09.75-2.67.54-3.77-4-20.35-13.58-34.58-29.29-43.49-16.34-9.26-34.32-12.03-54.95-8.47-20.23,3.49-36.46,13.67-48.24,30.25-4.26,6-7.67,12.44-10.25,19.39,1.06-2.17,2.39-4.41,4.04-6.94-4.22,8.69-6.82,17.96-8.1,27.9.08-3.54.25-6.51.59-9.16-1.82,8.16-2.66,16.94-2.55,26.44-.26,7.69.65,16.15,2.56,23.82,5.3,21.24,15.16,36.87,30.13,47.79,13.58,9.9,28.69,14.82,45.75,14.82,8,0,16.44-1.08,25.34-3.24,28.88-7,46.43-36.29,46.71-60.57.01-1.16-.09-2.6-1.01-3.51-.9-.88-2.24-.97-3.56-.93Z"/>
        <path class="cls-1" d="M920.34,395.2c-2.05-8.01-2.78-16.37-3.48-24.45-.33-3.83-.68-7.79-1.16-11.68-1.05-8.5-2.8-18.2-10.23-25.77-2.97-3.03-6.52-4.98-10.28-6.97,7.69-3.43,13.69-7.17,17.86-13.39,6.76-10.09,9.21-21.61,7.49-35.21-3.37-26.59-24.86-39.15-44.67-39.8-17.78-.58-35.88-.46-53.38-.35-9.01.06-18.33.12-27.49.09-1.08,0-2.53.11-3.43,1.01-.88.89-1,2.24-.99,3.56.11,14.86.19,30.78-.03,46.46-.04,3.24.88,6.11,1.77,8.89.23.71.45,1.41.67,2.12l.11.38c.27.97.64,2.31,1.82,2.8.81.34,1.75.2,2.88-.42.09-.05.14-.06.14-.07.13.07.39.45.55.68.14.2.28.4.42.58.15.18.25.5.36.84.27.83.71,2.22,2.49,2.43l1.18.14-.06-1.18c-.09-1.88.74-3.94,2.01-4.99.45-.37,1.15-.78,1.94-.59,1.65.4,2.89.27,3.77-.4,1.17-.89,1.36-2.47,1.4-3.58.04-1.09.33-1.65.56-1.79.22-.14.62,0,.83.09.94.41,2.31.87,3.3.2,1-.67.97-1.96.95-3.09,0-.18,0-.37,0-.55,0-2.24.01-4.48.03-6.71.03-6.43.06-13.07-.09-19.61-.04-1.72.17-2.69.67-3.14.43-.39,1.25-.51,2.42-.37l1.94.24-.94-1.71c-.94-1.72-1.38-2.78-.83-3.82.08.13.16.26.24.39.7,1.13,1.36,2.19,1.77,3.31.73,1.96,2.27,1.8,3.02,1.72.23-.03.48-.05.61-.02.68.16,1.25.08,1.68-.23.63-.45.71-1.18.76-1.67.01-.12.03-.3.04-.33.49-.92.5-2.16,0-2.95-.34-.55-.91-.84-1.52-.83-.5.02-.79-.02-.94-.06.09-.26.33-.69.48-.94l.14-.25c.19-.35.4-.54.6-.56.34-.04.91.29,1.35.79.93,1.05,2.16,1.57,3.24,2.04,1.29.55,2.4,1.03,2.97,2.22.42.87,1.38,1.28,2.16,1.3.73.03,1.34-.29,1.65-.84.65-1.18,1.23-1.05,2.8-.51,1.05.36,2.42.82,3.67.15.02.87.26,1.53.73,2,.8.81,1.96.76,2.88.71.2,0,.4-.02.6-.02,1.36,0,2.72,0,4.08,0,5.96-.02,12.11-.04,18.09.8,8.47,1.19,13.54,3.87,16.94,8.95,3.43,5.12,3.98,11,4.08,16.58.24,14.64-6.79,23.45-20.9,26.16-5.1.98-10.36.87-15.46.77-2.43-.05-4.94-.1-7.42-.04h-.4c-6.48.18-7.06.57-7.99,6.85-1.01-.17-1.62-.94-2.55-2.18-.37-.49-.74-1-1.2-1.5l-1.21-1.34-.5,1.73c-.9,3.14-1.31,4.58-.56,5.63.71,1,1.99,1.05,4.52,1.17.41.02.81.02,1.22.02.6,0,.94.24,1.11.78.09.27.1.32-.67.95l-.12.1c-1.76,1.45-3.45,2.32-5.33,2.74-2.75.62-2.55,2.82-2.44,4,.04.39.07.76.04,1.04-.11.94.07,1.68.54,2.19.72.79,1.81.77,2.69.76h.37s4.41,0,4.41,0c4.35.02,8.84.03,13.26-.02,6.2-.08,11.58.44,16.43,1.6,12.85,3.05,16.37,11.36,17.89,23.77.52,4.26.75,8.64.97,12.88.2,3.83.41,7.79.83,11.67.08.74.15,1.48.22,2.23.38,4.05.78,8.23,2.71,12.12.91,1.83,2.04,4.1,5.31,4.1.04,0,.08,0,.12,0,6.99-.12,13.9-.08,21.56-.03.03,0,.05,0,.08,0,1.78,0,2.93-.49,3.42-1.45.51-1.01.19-2.29-.95-3.82-1.23-1.65-2.06-3.42-2.61-5.55Z"/>
        <path class="cls-1" d="M118.38,339.47c.35,0,.68,0,.88.07.73.3,1.48.18,1.96-.33.43-.46.52-1.13.24-1.71-.57-1.17-.51-2.52-.45-3.96.07-1.74.15-3.55-.91-5.15-1.05-1.58-1.53-3.24-2.04-5.01-.16-.54-.32-1.09-.49-1.64-.37-1.14-.28-2.33-.18-3.58.12-1.52.24-3.09-.4-4.77-8.61-22.98-17.29-46.54-26.54-72.02-1-2.77-2.45-3.78-5.41-3.71-5.62.13-13.01.24-20.34-.02-3.65-.13-5.03,1.59-5.97,4.23-6.74,18.76-14.05,38.91-22.34,61.59-13.94,38.13-25.28,69.01-35.68,97.18-.61,1.65-1.08,3.22-.26,4.34.67.91,1.93,1.12,3.22,1.12.27,0,.54,0,.81-.02,5.71-.29,11.54-.18,17.18-.08l1.97.04c2.59.05,3.93-.89,4.8-3.45,2.43-7.14,4.98-14.37,7.45-21.36,2.35-6.67,4.79-13.57,7.11-20.38.73-2.13,1.54-2.72,3.74-2.69,12.07.12,26.31.2,40.44-.08.32-.02.8.14,1.29.28,1.23.35,2.76.79,4.03-.12.98-.7,1.52-2.03,1.63-4.08.03-.5.12-.68.11-.71.36-.04,1.53.7,2.53,1.9,2.71,3.21,6.46,3.03,9.47,2.89.62-.03,1.24-.06,1.83-.06,0,0,.01,0,.02,0,.48,0,.9-.18,1.23-.52.83-.87.74-2.55.65-4.5-.05-.94-.09-1.91-.01-2.61.05-.42-.02-.8-.07-1.15-.03-.2-.08-.5-.05-.6.2-.62.37-1.34.53-2.03.26-1.11.75-3.16,1.27-3.37,3.53-1.41,3.13-3.97,2.87-5.67-.06-.38-.12-.76-.14-1.13-.02-.48-.16-.91-.28-1.3-.03-.09-.05-.18-.08-.26.5.6.8,1.42,1.1,2.27l.06.17c.72,2.02,2.3,2,3.24,1.98ZM52.08,335.67c-.05-.07-.17-.43.41-2.1,1.75-5.02,3.55-10.03,5.34-15.03,5.72-15.98,11.64-32.51,16.09-49.24.23-.88.5-1.76.82-2.78,4.01,15.87,9.32,31.06,14.46,45.79,2.42,6.94,4.93,14.12,7.24,21.21.41,1.27.57,2,.47,2.19,0,.01-.25.27-1.99.26-6.69-.09-13.46-.13-20.27-.13s-13.66.04-20.5.13c-1.79.02-2.06-.26-2.08-.29Z"/>
        <path class="cls-1" d="M1063.04,237.69c-43.68.05-86.6.05-127.58,0-1.06,0-2.27.11-3.06.92-.79.81-.86,2.01-.84,2.95.17,5.84.23,10.73-.02,15.62-.07,1.42-.01,3.01.99,4.05.81.84,2.04,1.18,4.06,1.16,7.71-.09,15.55-.09,23.12-.08,7.35,0,14.94.01,22.41-.07,1.39-.02,2.2.15,2.58.52.38.37.55,1.19.54,2.58-.11,17.1-.1,34.49-.08,51.3,0,5.54,0,11.09,0,16.63s0,10.87,0,16.3c.01,16.92.02,34.41-.08,51.62,0,1.37.12,2.91,1.13,3.89,1,.97,2.51,1.04,3.86.99,5.03-.21,10.96-.36,16.76.03.37.03.72.04,1.04.04,1.68,0,2.78-.34,3.57-1.08,1.2-1.13,1.36-3,1.35-4.86-.08-23.49-.09-47.38-.1-70.48,0-21.04-.02-42.8-.08-64.2,0-1.53.17-2.39.58-2.79.4-.39,1.25-.54,2.72-.5,6.21.19,12.53.15,18.63.11,2.43-.01,4.87-.03,7.3-.03h.46c1.11.02,2.38.04,3.27-.83.58-.57.87-1.38.88-2.49v-.2c0-.57.01-1.64.27-1.86.05-.04.21-.07.5-.02l.57.09c1.82.29,3.13.59,3.47,1.77,1.1,3.82,4.02,3.67,6.16,3.55.23-.01.46-.02.69-.03.73-.03,1.47.01,2.25.05,1.77.09,3.59.18,5.41-.49,1.32-.49,1.22-1.9,1.17-2.65-.01-.15-.02-.3-.02-.44,0-1.91,0-3.83,0-5.74-.02-3.78-.03-7.68.07-11.51.02-.85-.04-2.08-.84-2.9-.79-.81-1.93-.89-3.12-.92Z"/>
        <path class="cls-1" d="M735.28,351.55c.93-.45,1.37-1.52,1.54-2.11.02-.05.12-.19.19-.29.27-.39.68-.98.48-1.7-.13-.48-.5-.86-1.09-1.12-.48-.21-.95-.69-1.44-1.2-1.21-1.25-3.05-3.14-6.17-.88l-.91.66.76.83c.41.44.97.54,1.38.6.11.02.25.04.35.07,0,.03,0,.07,0,.13-.1.89-.41,1.58-.82,1.84-.12-.09-.32-.3-.44-.44-.21-.23-.45-.49-.74-.7-.88-.63-1.26-1.66-1.7-2.85-.47-1.27-.99-2.69-2.27-3.69.49-1.54.44-2.69-.17-3.53-.86-1.19-2.55-1.3-4.09-1.3h-.08c-10.46.03-20.92.02-31.38.02h-9.77c-1.39,0-2.83,0-3.24-.17-.02-.44.44-1.75.88-3.02,1.58-4.49,3.18-8.98,4.79-13.46,4.71-13.18,9.59-26.81,13.65-40.48.96-3.22,1.88-6.44,2.88-9.89l.64-2.23c3.59,14.5,8.54,28.77,13.34,42.58,2.16,6.22,4.39,12.65,6.46,19.01.39,1.18.94,2.46,2.12,2.99.84.38,1.85.31,3.08-.22l1.28-.55-.93-1.03c-1.48-1.64-2.39-2.81-2.34-3.57.04-.66.84-1.5,2.13-2.63.52-.46.61-1.17.63-1.38.02-.23.04-.39.06-.5.09.04.22.1.39.2.85.52,1.89.62,2.65.26.62-.29,1.01-.85,1.1-1.56.09-.69-.04-1.26-.41-1.67-.58-.66-1.46-.66-2.11-.67-.19,0-.37,0-.53-.02-.1-.01-.21-.02-.32-.02.07-.09.14-.18.21-.27.71-.92,1.43-1.86,2.1-2.86l.13-.2c1-1.48,2.38-3.51.76-5.89-.88-1.29-.85-2.41.09-4.42.98-2.1.63-3.44.15-4.19-.5-.8-1.64-1.76-4.25-1.79-1.74-.02-3.49-.02-5.37-.01h-.86c.63-1.07.99-2.22.72-3.55-.53-2.62,1.17-3.7,3.63-4.94,3.39-1.71,5.52-4.49,5.82-7.61.3-3.07-1.2-6.15-4.12-8.42-.44-.35-.93-.65-1.39-.95-1.82-1.16-2.92-1.98-2.72-4.01.08-.8-.39-1.73-1.13-2.26-.73-.52-1.64-.59-2.5-.2-1.95.9-2.78.08-4.19-1.56-.79-.91-1.6-1.86-2.77-2.33-.04-.01-.07-.03-.09-.05.41-.53.93-1.32.79-2.19-.15-.89-.88-1.36-1.53-1.78-.2-.13-.41-.26-.62-.42-.58-.43-1.27-.76-1.93-1.08-.55-.27-1.7-.82-1.76-1.11-.23-1.23.46-3.26,1.48-4.35.57-.6,2.14-.56,3.25.38.08.07.16.16.23.24.3.34.77.85,1.5.88.51.03.99-.2,1.46-.64.58-.56.85-1.14.8-1.74-.08-.9-.81-1.39-1.29-1.71-.08-.06-.16-.11-.23-.16-1.79-1.35-1.59-3.18-1.11-4.48.37-1,.45-1.96.53-2.89.07-.78.13-1.52.35-2.29l.36-1.27h-1.33c-2.11,0-4.2.01-6.29.03-5.04.04-10.24.07-15.32-.11-3.34-.11-4.99,1.04-6.17,4.29-12.7,34.94-25.67,70.44-38.22,104.77l-13.23,36.2c-1.77,4.85-3.51,9.72-5.28,14.68-.83,2.34-1.68,4.7-2.54,7.09l-.48,1.34h1.42c2.27,0,4.51-.01,6.72-.03,5.53-.04,10.75-.07,16.03.12.13,0,.25,0,.37,0,3.09,0,4.19-1.46,5.1-4.11,2.35-6.86,4.81-13.82,7.19-20.55,2.41-6.81,4.9-13.85,7.28-20.8.67-1.96,1.28-2.45,3.06-2.45h.04c20.74.09,41.06.06,56.45.02h.04c1.66,0,2.48.24,2.82,2.31l.52,3.13,1.37-2.87c1.37-2.86,2.55-5.33,1.57-7.79l-.18-.45c-.19-.48-.44-1.08-.56-1.51.31.07.81.22,1.61.55.58.23,1.16.22,1.69-.03Z"/>
        <path class="cls-1" d="M258.09,299.42c-2.12-1.1-3.22.48-3.88,1.42l-.15.21c-2.34,3.29-5.32,6.82-9.71,8-2.16.58-3.76,1.21-4.73,3.96-1.13,3.22-2.81,4.02-6.2,2.94-1.36-.43-2.74-.71-3.66.13-.94.87-.73,2.37-.49,3.43.06.28.12.55.17.82.24,1.26.52,2.68,1.74,3.9.23.23.38.4.47.51-.15.05-.38.11-.72.16-4.49.69-7.19,3.37-7.81,7.74-.18,1.29-.64,2.55-1.13,3.89-.14.37-.27.75-.4,1.12-4.27,12.34-7.74,25.02-10.84,36.99,0,0,0,0,0,0-.55-2-1.09-4-1.63-5.99-1.46-5.4-2.97-10.99-4.69-16.42-4-12.6-8.21-25.36-12.28-37.7l-2.83-8.59c-2.61-7.92-5.23-15.84-7.84-23.77-4.6-13.92-9.2-27.84-13.75-41.78-.46-1.4-1.17-2.69-3.31-2.69h-.01c-6.28.02-12.56.02-18.84.01h-7.19s0,.99,0,.99c-.01,1.2.15,2.15.54,3.27,3.98,11.28,8.02,22.86,12,34.42l.95,2.76c13.88,40.31,28.24,81.98,42.26,123.01,1.01,2.94,2.51,4,5.63,3.89,5.65-.19,12.34-.34,19.13.03.21.01.41.02.61.02,3.66,0,5.1-1.93,6.09-4.82,4.89-14.22,9.94-28.65,14.83-42.61,1.86-5.32,3.72-10.64,5.58-15.96,1.86-5.32,3.71-10.64,5.57-15.97,2.61-7.49,5.22-14.98,7.84-22.47.4-1.15,1.25-3.55-1.31-4.88Z"/>
        <path class="cls-1" d="M1086.05,302.27v23.52s.99,0,.99,0c.64,0,1.26.04,1.85.07,1.33.08,2.59.15,3.81-.18.96-.26,1.71-.18,2.3.24,1,.72,1.34,2.28,1.38,3.01.23,3.9,2.17,5.05,4.53,5.31-1.1,1.91-1.58,3.05-1.16,4.13.33.86,1.09,1.37,2.48,1.91-1.97,1.23-2.73,3.49-3.16,5.54-.18.84.58,1.48.87,1.72,1.27,1.07,6.46,3.97,8.16,3.31,1.02-.4,1.28-.25,1.28-.25,0,0,.24.19.25,1.27,0,.17-.02.37-.04.58-.08.77-.19,1.83.52,2.54.37.37.87.56,1.49.56.1,0,.21,0,.32-.02.65-.06,1.15-.31,1.49-.75.59-.75.46-1.73.35-2.51-.03-.24-.07-.47-.07-.67.02-1.18.04-2.36.06-3.55.09-4.52.18-9.19-.12-13.79-.11-1.65.06-2.64.52-3.13.48-.51,1.56-.72,3.38-.71,14.2.11,28.63.11,42.6.11,10.99,0,22.35,0,33.53.06h.09c1.39,0,2.93-.15,3.88-1.15.97-1.02,1.01-2.57.94-3.8-.26-4.57-.26-9.28,0-14,.07-1.32.02-2.81-.94-3.82-.97-1.02-2.56-1.15-3.93-1.14-13.55.07-27.33.07-40.66.08-12.01,0-24.42,0-36.63.06-1.33.01-2.01-.13-2.32-.45-.31-.31-.45-1.02-.43-2.17.19-13.74.19-26.32,0-38.47-.03-1.58.15-2.48.58-2.91.42-.43,1.31-.63,2.88-.61,16.18.12,32.64.11,48.55.11,8.41,0,16.81,0,25.25.01,1.5,0,2.89,0,3.8-1,.62-.68.85-1.69.7-3.08-.09-.87.08-1.2.15-1.25.07-.05.45-.11,1.3.27,1.24.55,2.39.51,3.16-.12.53-.43,1.07-1.29.7-2.96-.09-.41-.2-.79-.31-1.16.58.56,1.21,1.03,1.82,1.46.41.29.82.57,1.19.89l1.09.91.46-1.24c.14-.07.45-.16.64-.21.64-.17,1.43-.38,1.71-1.16.18-.5.06-1.05-.35-1.63-.69-.96-1.81-1.35-2.8-1.69-.86-.29-1.67-.57-2.09-1.15l-.49-.67-1.04.49c-.52.23-1.17.52-1.42,1.2,0,.02-.01.05-.02.07-1.51-2.12-3.94-3.12-7.75-3.35-.49-.03-.94-.09-1.39-.14-1.65-.21-3.35-.42-5.64.74-1,.5-2.05-.03-2.75-.57-2.02-1.53-3.8-5.13-3.23-8.05l.23-1.19h-20.88c-21.85.01-44.44.02-66.66-.08-1.4,0-2.98.12-3.97,1.11-.99.99-1.12,2.51-1.11,4,.1,19.83.09,40,.08,59.51ZM1160.09,246.24c-.16-.49-.5-1.52-.35-1.71,0,0,.24-.28,1.55-.21,1.08.05,2.55.48,2.79,3.59.02.21.09.99.37,1.59.14,1.92-.24,2.27-.29,2.31-.12.08-.49.09-1.16-.17l-.12-.05c-.57-.22-1.23-.48-1.93-.48-.44,0-.89.1-1.36.37-.01,0-.02.01-.03.02-.06-.05-.13-.12-.18-.17-.08-.08-.15-.15-.23-.22-.1-.09-.17-.19-.23-.28.64-.23,1.1-.61,1.38-1.13.58-1.07.16-2.34-.21-3.45Z"/>
        <path class="cls-1" d="M1269.03,403.72c-1.1-1.01-1.59-1.5-1.58-2.4.02-1.04-.39-1.95-.78-2.84-.73-1.66-1.03-2.51.31-3.72.14-.13.45-.49.34-1.1-.31-1.71-6.27-9.02-7.87-9.65-2.08-.83-3.3-1.83-3.52-2.89-.25-1.23.84-2.61,1.8-3.55,2.43-2.39,2.69-4.94,2.61-7.35-.06-1.89-.05-3.83-.03-5.71,0-.83.01-1.67.01-2.5,0-1.91-.03-3.83-.07-5.75-.07-4.28-.15-8.71.17-13.01.21-2.84-.02-5.66-.24-8.38-.24-3.02-.49-6.14-.14-9.25.21-1.82.35-3.66.44-5.5l1.59.27-1.53-1.74c.23-6.55-.17-13.14-.66-19.42v-.13c-.18-2.13-.37-4.56-2.59-6.09-.52-.36-1.13-.37-1.61-.37-.12,0-.29,0-.41-.02,0-.05,0-.12,0-.22.07-.69.43-.88,2.02-1.08.09-.01.18-.02.27-.03.57-.05,2.31-.21,2.16-2.21-.11-1.39-1.04-1.73-1.7-1.81.76-.45,1.37-1.07,1.79-1.83.8-1.42.9-3.27.27-5.07-1.06-3.02-.7-5.85-.33-8.84.11-.87.22-1.74.3-2.64.55-6.28.45-12.69.36-18.9-.04-2.84-.09-5.77-.07-8.64,0-.83-.08-2.03-.91-2.84-.82-.8-2.02-.87-2.84-.85-3.45.08-6.97.07-10.37.05-1.42,0-2.84-.01-4.27-.01-4.16,0-6.25,0-7.51,1.27-1.25,1.26-1.24,3.34-1.21,7.47v.36c0,.9.12,2.2.99,3.02.83.77,1.99.81,2.92.76.21-.01.43-.03.64-.05.5-.05.97-.09,1.37-.02.56.09,1.85.46,1.83,1.83,0,.12,0,.21-.02.27-.15-.02-.35-.06-.5-.09-.3-.06-.63-.13-1.01-.14-.63-.02-1.8-.06-2.46.76-.26.32-.53.88-.32,1.75.15.61.5,1.09,1.02,1.36.66.35,1.48.34,2.45-.02.62-.23,1.1-.24,1.43-.05.48.29.84,1.08,1.02,2.25.15,1.01-.22,2-.61,3.05-.25.66-.5,1.35-.63,2.06-.21,1.14-.39,1.14-1.27,1.16-.44.01-.95.02-1.47.21-.16.06-.28.09-.37.11,0-.09,0-.19-.01-.26-.01-.31-.03-.66-.12-1.01-.33-1.2-1.21-1.74-1.92-2.17-.42-.25-.81-.49-1.12-.85l-1.75-2.01v142.45c0,.18,0,.36,0,.54.01.33.02.64,0,.92-.11,1.1.09,1.92.61,2.5.7.77,1.77.87,2.53.87h.06c7.83-.04,15.6-.04,23.83-.03h11.1s-1.81-1.72-1.81-1.72c-.21-.2-.41-.38-.6-.56ZM1256.7,317.93c-1.52.13-2.06.11-2.59-.61-.02-.03-.04-.18.03-.39.06-.17.17-.3.28-.34.27-.1.5-.14.73-.14.69,0,1.24.46,2.09,1.44-.19.01-.37.03-.54.04Z"/>
        <path class="cls-1" d="M1210.15,391.8c0-1.45.01-2.9.01-4.35,0-5.94-.43-6.35-6.49-6.35h-19.12c-22.21-.01-45.18-.02-67.78.06-1.36,0-2.22-.16-2.57-.53-.32-.34-.43-1.06-.33-2.19.26-3.26.15-6.56.04-9.77l-.03-.73c0-.1.04-.23.08-.36.14-.59.36-1.48-.26-2.16-.65-.71-1.7-.54-2.05-.49-1.39.22-1.99.84-2.25,1.33-.23.43-.41,1.16.06,2.16.22.47.18.65.19.65-.09.15-.71.37-1.08.5l-.23.09c-2.85,1.05-4.81.78-6.74-.92-2.51-2.21-4.27-3.05-5.54-2.64-1.48.48-1.73.06-2.47-1.21-.34-.59-.73-1.25-1.32-1.84l-2.5-2.49.82,3.43c.22.91.08,1.24.02,1.35-.18.28-.87.4-1.53.51-.51.09-1.04.18-1.57.37l-1.74.62,1.46,1.12c.38.29.71.59,1.03.87.72.65,1.41,1.26,2.3,1.5.67.17,1.04.32,1.26.43-.3.29-.85.69-1.31,1.03-1.9,1.39-3.97,3.83-4.09,6.5-.25,5.55-.21,11.18-.16,16.64.02,2.1.03,4.19.03,6.29v1h2.95s.13-.85.13-.85c.12-.78.2-1.5-.04-2.47-.15-.61.31-2.16,1.31-3.57.7-1,1.28-1.35,1.38-1.38,2.28.64,3.5-.4,4.59-1.32l.29-.24c2.11-1.75,4.35-2.43,6.3-1.91,1.82.48,3.28,1.99,4.13,4.25.17.46.5.75.76.99.09.08.22.19.24.22.8,1.9,2.12,3.38,3.4,4.8,1.13,1.26,2.19,2.46,2.87,3.88.59,1.25,1.51,1.56,2.3,1.56.58,0,1.1-.17,1.37-.26l.13-.04c1.55-.48,5.66-1.77,5.3-3.39-.34-1.56.39-2,1.93-2.79.79-.4,1.6-.82,2.17-1.52.44-.54,1.43-.94,2.49-1.37,1.18-.48,2.53-1.02,3.58-1.96.49-.43.81-.51.79-.54,0,0,.14.16.18.74.09,1.26.53,2.22,1.38,3.02.09.08.13.14.14.15-.03.05-.1.14-.26.27,0,0,0,0,0,0-.08-.12-.17-.28-.23-.4l-.11-.2c-.21-.42-.49-.98-1.16-1.19-.44-.14-.92-.06-1.43.23-.46.26-1.15.93-1.16,1.73,0,.46.15,1.02,2.04,2.94.18.18,4.4,4.43,5.84,4.43h17.76c15.99,0,32.52,0,48.78.05.86.02,2.1-.09,2.92-.92.79-.81.88-1.95.85-3.07-.08-3.42-.06-6.9-.05-10.27Z"/>
        <path class="cls-1" d="M1345.31,401.83c-.16-5.23-.16-10.64,0-16.55.03-1.06-.06-2.39-.95-3.29-.91-.92-2.31-1.02-3.42-1.01-8.62.09-17.38.08-25.86.06-3.12,0-6.23,0-9.35,0h-9.2c-8.54,0-17.08.01-25.63-.02h-.48c-1.65-.02-3.22-.04-4.05,1.14-.82,1.15-.35,2.83.06,3.99,1.4,3.88,2.97,7.26,8.04,9.38.9.38,1.83.74,2.77,1.1,4.39,1.7,8.93,3.45,11.73,7.5,1.17,1.69,2.94,1.93,4.58,1.92,15.99-.04,31.64-.07,47.34.02.03,0,.07,0,.1,0,1.2,0,2.53-.13,3.39-1.02.88-.91.95-2.27.92-3.21Z"/>
        <path class="cls-1" d="M762.42,372.44l-1.84-4.95c-.56-1.51-1.17-2.88-2.46-3.12-1.3-.24-2.48.88-3.36,1.88-.46.53-.92,1.07-1.38,1.61-2.45,2.89-4.76,5.62-8.31,6.82l-.14.05c-2.44.82-3.77,1.16-4.94-.92-.04-.07-.1-.3-.14-.45-.16-.6-.4-1.5-1.25-1.95-.62-.32-1.37-.31-2.29.04-.99.37-1.61.88-1.91,1.57-.42.97-.02,1.92.27,2.61.07.16.14.32.19.47,1.35,4.01,2.73,8.02,4.11,12.02,1.68,4.87,3.42,9.9,5.06,14.87.71,2.15,1.89,3.05,4.03,3.05.08,0,.16,0,.24,0,2.55-.07,5.14-.06,7.66-.04,1.07,0,2.14.01,3.21.01h7.78c3.68,0,5.37,0,6.19-1.18.82-1.17.23-2.77-.94-5.96-3.24-8.82-6.5-17.62-9.77-26.42Z"/>
        <path class="cls-1" d="M816.08,366.85c-.84-.44-1.91-.26-3.02.52-.97.68-1.89,1.43-2.77,2.16-2.03,1.66-3.94,3.23-6.49,4.06-1.55.51-3.08,1.87-3.78,3.75,1.11-5.62-3.07-7.19-6.46-8.47-.46-.17-.92-.35-1.37-.53l-1.12-.45-.24,1.18c-.43,2.13-.27,4.1-.11,6.01.11,1.36.22,2.64.11,3.94-.4,5.11-.34,10.31-.27,15.35.03,2.63.07,5.36.04,8.03-.01.92.08,2.06.85,2.83.77.77,1.91.85,2.8.83,7.07-.12,13.38-.12,19.29,0,.07,0,.14,0,.21,0,.83,0,1.93-.12,2.69-.87.82-.81.92-2.02.91-3.09-.07-10.25-.12-21.25.02-32.24.02-1.54-.41-2.56-1.29-3.02Z"/>
        <path class="cls-1" d="M147.78,397.1c-2.1-5.81-4.28-11.83-6.63-17.66-.73-1.8-3.03-3.33-4.84-3.76-.69-.16-1.29-.08-1.79.24-.86.57-1.05,1.65-1.21,2.51-.06.35-.12.71-.21.9-.62,1.4-1.83,2.18-3.1,3.01-.79.52-1.61,1.05-2.33,1.75-.09-.06-.21-.15-.3-.27-.82-1.17-2.08-2.71-3.59-2.6-1.49.1-2.28,1.65-2.98,3.02-.4.77-.99,1.94-1.44,2.04-.13.03-.38-.07-.66-.28-.51-.38-1.17-.39-1.76-.03-.83.52-1.55,1.83-1.3,3.15.09.5.28.95.45,1.34.08.2.17.39.24.59.36,1.06.73,2.12,1.1,3.18.95,2.73,1.92,5.56,2.78,8.37.56,1.82,1.46,3.49,4.25,3.49.16,0,.33,0,.5-.02,2.49-.16,5.06-.13,7.54-.09,1.08.02,2.16.03,3.24.03h3.76c2.65,0,5.29,0,7.93,0h.31c.69.02,1.63.05,2.17-.71.56-.79.19-1.81.06-2.14-.74-2.02-1.47-4.04-2.2-6.06Z"/>
        <path class="cls-1" d="M271.37,237.75c-.12,0-.24,0-.35,0-.83-.02-2.54-.08-2.91,2.15-.2,1.21-.53,1.73-.75,1.81-.21.08-.79,0-2.38-1.3l-.16-.13c-1.44-1.19-2.17-1.79-3.1-1.59-.92.19-1.35,1.04-2.14,2.62l-.81,1.62,1.8-.17c2.68-.26,3.77,1.23,5.31,3.69.5.79,1.01,1.6,1.62,2.32.07.08.15.27.22.44.23.56.83,2.04,2.86,1.24.28-.11.47-.1.54-.08.03.01.06.07.09.15.05.15.22.61-.58,1.12-2.68,1.71-5.71,3.66-9.11,3.92-2.16.17-3.87.39-4.61,1.58-.76,1.22-.18,2.89.71,5.12.16.41.29.82.42,1.23.49,1.57,1.04,3.35,3.3,4.25.25.28.52,1.22.44,1.52-.71,2.33-.02,4.41.58,6.25.29.9.57,1.74.7,2.59.34,2.25.03,2.72-1.2,3.15-3.97,1.39-4.36,4.6-4.69,7.44-.28,2.33,1,3.48,2.03,4.41.65.59,1.26,1.14,1.61,1.98l1,2.44,20.74-59.8h-4.36c-2.4,0-4.6-.01-6.81.01ZM273,240.88c.11.22.19.47.27.71.35,1.03.94,2.75,3.41,2.75h.03c.12.18.04.87-.1,1.06-.72.62-1.18,1.39-1.63,2.12-.41.68-.79,1.3-1.32,1.75-.02-.05-.05-.1-.07-.15-.43-.92-.61-1.3.11-2.13.62-.72.88-1.39.79-2.06-.14-.98-.97-1.51-1.64-1.94-.38-.24-.91-.58-.91-.8,0-.62-.45-1-.81-1.25.11-.07.22-.14.33-.21.3-.2.85-.56,1.04-.51,0,0,.21.06.5.66Z"/>
        <path class="cls-1" d="M235.87,307.43c1.53.81,2.9.3,3.9-.08,1.13-.43,1.48-.48,1.99,0,.83.79,1.71,1.2,2.56,1.2.07,0,.14,0,.21,0,.55-.04,1.35-.29,2.06-1.22,1.4-1.84,1.81-4.04,1.11-6.05-.42-1.21-1.78-1.9-2.78-1.85-.78.04-1.37.49-1.54,1.19-.24.97-.47.95-1.56.83-.79-.08-1.77-.18-2.63.43-.08.06-.13.08-.14.09-.26-.18-.58-1.03-.76-1.56.88-.71,3.52-2.1,4.51-2.37.89.83,1.73,1.15,2.55.97,1.4-.3,2.01-1.96,2.3-2.76.09-.24.16-.5.23-.76.08-.28.22-.8.33-.89,0,0,.07-.03.27,0,.16.03.27.06.26.06.03.15-.03.56-.07.83-.03.23-.07.47-.09.71-.17,1.87,1.51,3.97,3.33,4.15.76.08,1.35-.09,1.74-.51.61-.63.48-1.5.4-2.14-.03-.21-.08-.55-.05-.65.36-1.01.64-2.04.91-3.04.28-1.01.54-1.96.87-2.9.56-1.58.48-3.01-.24-4.04-.64-.92-1.74-1.44-3.09-1.45-1.56-.02-1.56-.3-1.56-1.85,0-.23,0-.46,0-.7-.04-1.41.27-2.88.58-4.31.33-1.52.66-3.09.56-4.59-.12-1.77-.12-3.59-.11-5.35,0-1.63.01-3.32-.08-4.99l-.05-.25c-.05-.16-.09-.33-.13-.5-.12-.53-.26-1.12-.66-1.59-.05-.11,0-.49.03-.72.08-.61.17-1.37-.35-2-.33-.4-.82-.62-1.46-.66-2.22-.16-2.56,1.94-2.71,2.94-.04.29-.08.56-.14.73-2.32,7.09-4.62,14.32-6.85,21.31-2.01,6.32-4.03,12.64-6.08,18.94-.97,2.98-.02,4.07,2.47,5.39Z"/>
        <path class="cls-1" d="M132.94,362.16l2.5,1.63-1.02-2.81c-.54-1.49-1.02-2.94-1.49-4.35-1.22-3.69-2.37-7.17-4.25-10.38l-1.85.66c.16,1,.24,2.01.34,3.09.36,4.17.76,8.89,5.76,12.16Z"/>
        <path class="cls-1" d="M1200.29,242.59c1.03,2.64,3.09,4.34,5.09,5.99l.99.81.55-1.15c1.03-2.16.05-3.86-.73-5.24-.55-.95-1.02-1.78-.89-2.65.05-.31,0-.92-.85-1.49-.93-.63-2.42-.94-3.65-.21-2.07,1.22-1.12,2.86-.76,3.48.09.16.19.31.25.47Z"/>
        <path class="cls-1" d="M814.92,345.41l1.2,2.61.68-2.79c.91-3.71-.85-5.65-2.26-7.21-.63-.69-1.22-1.35-1.49-2.07-.13-.36-.47-.81-1.02-.98-.45-.14-.92-.05-1.34.24-.82.58-1.15,1.39-1.01,2.47.27,2.03,1.52,3.28,2.73,4.49.92.92,1.88,1.87,2.51,3.24Z"/>
        <path class="cls-1" d="M252.54,254.51c.49.16,1.12.36,1.76.36.96,0,1.96-.45,2.57-2.19.83-2.35-1.16-3.15-2.23-3.57-.56-.23-1.2-.48-1.34-.8l-.41-.94-.93.44c-1.35.64-1.69,1.76-1.98,2.75-.22.73-.45,1.49-1.1,2.24l1.18,1.56c.8-.38,1.62-.11,2.5.16Z"/>
        <path class="cls-1" d="M800.99,360.29c.08,0,.16.01.24.01,1.28,0,1.99-.91,2.52-1.59.1-.13.21-.27.32-.4l.55-.65-.55-.65c-.8-.94-1.93-1.57-3.36-1.86-.82-.17-1.65.06-2.2.6-.49.48-.69,1.15-.56,1.84.29,1.48,1.51,2.55,3.04,2.68Z"/>
      </g>
    </g>
  </g>
</svg>