<?xml version="1.0" encoding="UTF-8"?>
<svg id="Layer_2" data-name="Layer 2" xmlns="http://www.w3.org/2000/svg" viewBox="0 0 1284.64 647.24">
  <defs>
    <style>
      .cls-1 {
        fill: #e41f1b;
      }

      .cls-1, .cls-2 {
        stroke-width: 0px;
      }

      .cls-2 {
        fill: #bfbebf;
      }
    </style>
  </defs>
  <g id="Livello_1" data-name="Livello 1">
    <g>
      <g>
        <path class="cls-2" d="M507.31,301c-1.85-4.22-.38-6.98,3.17-9.13.84-.51,1.3-1.74,1.78-2.71.6-1.2,1.6-2.64-.03-3.65-1.65-1.02-3.51-.47-4.27,1.17-1.01,2.18-2.68,3.25-5.25,3.9,1.64,1.3,4.33,1.66,2.87,4.04-1.67,2.71-.41,4.53,1.73,6.38M375.12,388.72c3.71-8.36,14.56-9.5,20.87-2.18.72.83,1.19,2.02,2.07,2.52,1.23.7,2.36,2.39,4.02,1.51,1.65-.88.68-2.56.44-3.77-.48-2.43,1.61-5.56-.3-6.99-1.48-1.11-4.56.16-6.84-.22-3.69-.6-7.4-.66-11.26-1.13,4.6-1.09,7.08-4.89,10.37-7.6,1.71-1.41.28-2.29-.96-2.51-2.39-.43-4.54-.58-6.58-2.62-1.46-1.46-4,.28-4.03,2.41-.04,2.94-1.97,5.04-2.51,7.75-.6,2.99-3.34,4.12-6.28,4.55-15.62,2.29-30.88,6.19-46.09,10.29-6.94,1.87-13.88,3.66-21.13,4.03-2.88.14-5.69.96-8.32,2.36-15.44,8.21-32.14,12.47-49.2,15.59-1.1.2-2.35.43-3.1-.56-.94-1.24.4-1.48,1.11-2.07.88-.73-.05-1.16-.54-1.56-.75-.61-1.52-1.2-2.3-1.77q-4.02-2.93-4.79,1.81c-.69,4.21-4.19,6.8-8.93,5.8-3.83-.81-6.94-.16-10.2,1.83-4.29,2.62-9.22,2.84-14.09,2.52-6.62-.43-12.31.74-17.39,5.75-4.32,4.26-9.79,7.24-16.43,6.71-1.83-.15-3.66-.24-5.16-1.29-3.51-2.44-7.06-2.32-10.99-1.05-6.71,2.17-13.53,3.97-20.29,5.97-8.93,2.64-17.13,6.76-25.32,11.22-14.77,8.05-30.55,13.54-47.5,14.98-1.92.16-3.92.28-5.8-.06-4.9-.89-9.72-1.79-14.45.77-.77.41-1.93.31-2.86.16-2.4-.41-6.2-.51-6.18-2.9.02-2.29,3.66-1,5.68-1.2,3.54-.36,7.5.3,8.54-4.6.2-.95.49-1.99-.28-2.76-.87-.87-1.83-.11-2.68.21-3.49,1.33-6.97,2.7-10.42,4.11-1.54.63-2.61,1-2.4-1.46.16-1.85-1.64-1.9-2.89-2.39-.9-.36-1.94-.83-1.69-2.02.2-.93,1.22-1.15,2.03-1.09,3.55.3,5.45-1.35,7.63-4.22,1.85-2.44,6.02-3.01,9.28-2.17,3.29.85,6.22.39,9.35-.33,4.84-1.11,9.63-2.47,14.65-2.72,2.16-.11,4.36-.56,6.31-1.85.86-.57,2.31-1.2,3.07-.86,5.22,2.36,10.01.08,14.97-.92,2.27-.46,4.68-.25,7.02-.34,1.23-.05,3.01.21,3.21-1.22.51-3.78,2.7-2.89,5.11-2.37,4.09.88,7.64-.49,10.73-3.16,1.18-1.01,2.24-2.36,3.64-.28.55.81,1.35.99,2.18.49,3.13-1.9,6.58-3.3,9.14-6.33-7.82,1.4-15.62,2.91-23.45,4.17-15.54,2.51-31.15,4.46-46.86,5.56-9.39.66-18.59,2.59-27.8,4.4-4.82.95-9.66.41-14.49.57-1.51.05-3.16-.3-4.45.64-3.22,2.34-4.5-.48-5.13-2.39-.88-2.7,2.14-2.08,3.31-2.3,29.44-5.71,58.71-12.26,88.05-18.46,33.79-7.14,66.43-18.03,99.02-29.17,2.34-.8,4.36-2.12,5.67-4.66-16.38,5.39-32.75,10.78-49.13,16.16,1.1-3.47,4.43-3.26,6.55-5.45-2.75-1.53-5.51-.52-8.09-.84-1.2-.15-2.71.22-3.24-1.24-.49-1.35.91-1.84,1.7-2.53.98-.85,1.42-1.56.15-2.64-2.3-1.96-.32-2.54,1.18-2.79,2.75-.46,4.66,1.4,6.64,2.88,2.09,1.56,4.16,3.06,7.01,2.58.02-2.5-4.31-2.71-2.83-4.54,1.54-1.9,3.43,1.12,5.29,1.66,3.16.9,6.48,1.18,9.43.29,10.04-3.03,19.97-6.42,31.12-8.86-5.83-4.19-11.1-7.57-16.68-10.47-7.19-3.74-10.99-9.87-12.59-17.56-.8-3.85,1.59-6.33,4.86-6.32,15.91.05,27.96-10.44,42.17-14.94,1.58-.5,3.07-1.26,4.59-1.91,5.36-2.28,10.06-1.24,14.24,3.26,1.24,1.33,2.77,1.58,4.66,1.12-.66,2.07-2.67,1.53-3.4,2.96,1.27,1.11,2.58,2.27,3.9,3.41,1.48,1.28,3.04,2.82,5.12,1.79,2.11-1.05,3.4-3.22,3.02-5.45-.58-3.47,1.19-4.83,3.93-5.75,2.08-.69,4.2-1.12,5.76-3,1.62-1.94,4.24-.47,6.29-1.54-4.36,1.21-8.25-3.72-12.94-.69.91-2.92.36-6.83,5.35-6.37.95.09,1.74-.61.99-1.58-2.51-3.29-5.47-6.22-6.9-10.28-.49-1.39-1.94-.41-2.87.08-1.63.85-2.55,2.85-4.97,2.49-1.08-.16-1.04,1.16-.23,1.72,1.25.86,2.8,2.32,3.94,2.09,3.93-.79,3,3.04,4.62,4.35.51.41.11,1.11-.42,1.35-2.89,1.31-7.31,4.4-8.42,3.49-2.94-2.4-7.71-1.77-9.31-5.55-.97-2.28-2.36-3.86-5.5-5.22,5.26-2.29,9.49-4.22,13.78-5.98,5.04-2.08,9.88-4.13,12.27-9.74,1.24-2.91,4.54-3.14,6.84-1.77,3.01,1.8,6.47,1.91,9.51,3.47,2,1.03,4.13,1.36,4.38,4.2.11,1.27,1.52.87,2.43.99,1.85.25,3.01,1.27,3.48,3.08.5,1.9-1.11,2.47-2.21,3.04-2,1.02-2.53,2.3-2.28,4.55.2,1.75-.28,3.51-3.21,2.77-2.01-.51-4.32.13-6.49.3-1.36.11-2.41.82-2.82,2.11-.49,1.53.59,2.28,1.8,2.81,2.27.99,4.65,2.93,6.8,2.72,5.02-.49,5.66,2.84,6.67,6.12,2.16,7.02,3.31,7.87,9.65,3.98,7.22-4.43,14.69-3.89,22.46-3.48-.12,1.56-.98,1.32-1.57,1.45-4.83.99-6.29,2.64-6.26,7.6.01,2.28-.1,3.86-3.01,4.33-11.96,1.93-23.89,4.09-36.8,6.34,3.14-5.06,8.6-7.42,9.12-13.15-1.76,3.4-5.41,3.7-8.13,5.44-9.04,5.79-17.67,12.2-27.45,19.07,3.81,0,5.82-1.53,8.05-2.26,2.16-.71,3.68-.75,2.89,2.27-.21.79-.27,1.63-.35,2.46-.24,2.47.52,2.99,2.77,1.65,1.66-.99,4.81-4.57,3.89,1.57-.16,1.04,1.13.98,1.92,1.02,1.95.09,3.85-.02,5.67-.89,12.78-6.13,26.6-8.22,40.4-10.41,2-.32,3.98.32,4.77,1.82,1.6,2.99,3.71,2.79,6.27,1.95,2.59-.85,4.48.4,6.37,1.99,4.63,3.89,10.45,1.6,11.46-4.44.7-4.21,4.57-6.86,8.7-6,.58.12.94.36,1.29.86,2.22,3.12,2.24,3.11,6.17,5.13,1.34-1.66.21-4.99,3.58-5.3,4.36-.4,5.96,3.25,8.38,5.67.43.43.34,1.04-.14,1.46-1.31,1.17-1.21,2.42-.16,3.64,1.16,1.35,2.95,1.72,4.11.68,3.51-3.14,6.05-.97,8.75,1.11.85.66,1.75,1.26,2.69,1.92,2.18-7.52,1.68-9.35-5.62-8.83-2.34.17-5.28-.22-6.15-3.11-.51-1.7,3.93-3.68,7.14-3.24,1.66.23,3.49.65,4.85-.39,6.31-4.79,13.88-4.53,21.06-4.92,12.15-.66,24.17-2.15,36.81-3.87-3.37-2.26-6.65-3.95-7.98-7.75-.48-1.38-2.24-.28-3.38,0-4.37,1.1-8.2,4.11-13.8,3.18,2.09,2.65,4.93,1.74,6.57,3.32-5.41,2.59-11.35,2.22-14.99-.92-.85-.73-1.73-1.52-1.62-2.75.14-1.52,1.57-1.27,2.55-1.61,2-.7,4.08-.57,6.16-.65,1.9-.07,3.71,1.23,5.68.35.22-1.83-1.15-1.67-2.14-1.74-7.62-.58-15.15,1.19-22.77.86-1.21-.05-2.52.41-2.54,2.12,0,1.02.41,2.59-1.44,2-1.32-.43-1.57-1.7-1.14-3.12,1.1-3.69,3.2-6.6,6.94-7.67,6.05-1.72,11.8-3.81,16.57-8.14,1.61-1.46,3.74-1.77,5.79-.47,2.03,1.28,1.2,2.94.87,4.76-.65,3.56,3.78,7.5,7.5,7.33,17.58-.8,34.23-6.06,51.04-10.57,2.62-.7,5.24-2.31,5.83,2.51.32,2.57,7.91,4.58,10.17,3.07,1.58-1.05.52-2.2-.11-3.18-.22-.34-.97-.43-1.49-.48-2.45-.25-5.84-.1-5.83-3.15,0-2.67,3.58-2.48,5.7-3.13,3.88-1.19,7.91-1.95,11.19-4.84-1.63-1.82-3.09-.84-4.47-.53-9.24,2.08-18.48,4.18-27.71,6.27-.93.21-1.99.74-2.73-.14-.94-1.12.11-2.08.63-2.97,1.26-2.14,2.56-4.28,3.98-6.32.91-1.31,1.65-2.16,2.65.29.79,1.92,2.8,2.93,4.27.23.8-1.46,2.24-1.5,3.45-2.04,1.91-.85,3.81-1.65,5-3.52,2.53-3.97,1.74-5.74-2.82-5.81-1.43-.02-2.76-1.35-4.35-.16-.72.54-1.17-.41-1.2-1.12-.07-1.28.05-2.65,1.34-3.25,1.36-.63,2.85-1.03,4.33-1.36,8.64-1.93,17.15-4.32,25.6-6.95,2.89-.9,5.67-1.63,8.78-.05,1.69.86,4.33.9,3.91-2.61-.09-.76-.12-1.96,1.01-1.89,1.11.07,1.47,1.21,1.39,2.22-.22,2.83.59,5.46,1.68,7.98.68,1.57-.12,2.29-1.15,3.09-1.31,1.02-1.68,2.63-.55,3.59,1.84,1.55,1.59-.95,2.28-1.62,2.37-2.29,5.64-1.92,8.46-2.84.76-.25,1.76.18,2.46-.13,5.19-2.25,9.6-1.95,14.59,1.57,3.32,2.35,6.57-1.42,8.62-4.24,1.6-2.19,2.62-4.96.49-7.65-.94-1.19-2.03-2.29-2.8-3.58-.6-1.01-2.74-2.56.49-3.14.92-.17.75-.99.65-1.68-.28-2.04.64-2.76,2.63-2.56,3.61.36,6.67-1.67,7.81-4.41,1.42-3.42,1.13-7.51-.29-11.22-.13-.34-.57-.8-.86-.8-4.33.03-6.26-4.39-10.06-5.39-1.02-.27-1.83-.31-2.77.03-3.25,1.18-6.49,2.36-9.76,3.47-7.46,2.54-12.3,2.09-16.43-4.94-.82-1.39-1.68-2.78-3.38-3.51-2.68-1.15-3.41-3.41-2.68-6.13.36-1.35,1-2.69-.25-3.85-.71-.66-1.6-.37-2.32.08-1.4.88-3.11,1.74-2.86,3.69.54,4.17-.36,6.76-5.32,5.87-.34-.06-.77.23-1.13.41-1.01.5-1.55,3.1-3.11,1.02-1.22-1.63-4.53-2.52-2.55-5.67.18-.29.06-.76.09-1.15-.34-.08-.7-.28-.81-.18-.52.44-7.44,3.41-8.29,3.66-2.73.81-5.56,1.77-5.06,5.42.38,2.77-.55,4.36-3.06,5.53-1.55.72-3.69,2.08-2.33,4.07,1.16,1.69,3.49.76,4.78-.35,1.94-1.67,2.5-.88,3.06,1.01.82,2.77,1.29,5.42-1.3,7.61-1.11.94-1.07,2.13-.56,3.41.65,1.65,1.27,3.07-.1,4.98-1.13,1.59.88,2.9,2.04,3.86,1.8,1.49,4.02,2.29,7.21,2.83-6.61,5.2-12.9,2.66-20.14,1.98,2.92-2.12,3.45-5.06,7.22-6.37-3.24.08-4.23-1.91-5.86-2.98-.8-.53-1.59-1.32-2.59-.53-.91.72-.73,1.73-.37,2.67.39,1.03.95,2.01,1.27,3.05.83,2.73.09,4.58-2.99,5.12-2.17.38-4.33.86-6.45,1.43-2.08.56-3.92,1.29-3.28,4.2.34,1.55-.87,2.81-2.29,3.01-3.17.44-5.74,2.85-9.1,2.55-.62-.05-1.6.14-1.86.56-2.48,3.96-6.64,5.67-10.54,7.68.73,2.11,3.49-.16,3.63,1.93.13,1.98-1.15,3.57-2.42,5.1-4.46,5.36-11.39,5.97-17.07,9-.88.47-1.69.06-1.79-1.01-.29-3.2-1.58-6.62,2.65-8.6,2.7-1.26,3.02-3.19.2-4.89-4.49-2.71-8.41-7.24-14.63-4.51-1.24.54-1.99-.65-2.76-1.42-2.64-2.65-5.82-3.48-9.48-2.97-2.95.41-10.71-3.73-10.74-6.25-.03-2.69.32-5.04-3.2-6.58,2.1-.7,3.33-.07,4.58.22,4.56,1.04,10.86-1.45,13.67-5.18,1.65-2.18.05-2.62-1.44-3.08-8.09-2.48-18.59,3.11-20.97,11.13-.29.96-.67,2-1.77,2.04-1.6.05-2.88-1.22-2.96-2.45-.21-3.37-3.04-4.77-4.71-6.99-1.34-1.78-3.36-1.45-5.34-.84-2.04.62-1.28,2.07-1.28,3.37,0,1.02.4,2.57-1.21,2.57-1.44,0-1.26-1.4-1.43-2.52-.42-2.76.18-4.83,2.9-6.11,1.06-.5,1.9-1.44,2.94-2.26-1.79-1.56-3.98-.14-6.13-1.52,2.57-.29,4.57-.57,6.59-.71.86-.06,1.77.05,1.84-1.08.06-1.02-.74-1.38-1.61-1.57-.27-.06-.57-.19-.81-.14-5.92,1.37-9.37-1.6-12.08-6.45-1.79-3.21-4.97-3.1-8.29-2.77-5.42.54-7.66-1.6-8.33-6.6-.24-1.81.45-2.27,1.76-2.58,3.4-.79,5.2-3.23,5.88-6.33,1.23-5.59,5.2-9.02,9.29-12.31,2.73-2.2,5.12-4.58,7-7.87-1.89-.23-3.36.56-4.77,1.16-3.01,1.28-5.36-.15-7.77-1.54-.76-.44-1.27-.99-.91-2.01.64-1.83,5.66-4.71,7.22-3.65,3.44,2.35,5.32.36,7.18-2.01,1.24-1.58,2.06-3.17,4.48-1.11,1.51,1.29,3.75-.38,4.05-1.67,1.27-5.49,6.27-5.48,10.01-7.05,1.98-.83,4.14-1.37,6.15-2.3,19.31-8.99,37.45-20.17,56.26-30.08,35.71-18.8,73.55-32.61,111.43-46.25,4.28-1.54,8.75-2.56,13.17-3.7,1.13-.29,2.72-.78,3.38.55.58,1.17-.9,1.84-1.6,2.61-2.85,3.12-6.91,5.02-9.11,8.8.88,1.06,1.7.38,2.3.04,3.16-1.78,5.89-2.91,6.49,2.42.18,1.62,1.79,1.89,3.26,1.95,9.34.39,18.75,1.66,26.93,5.91,4.82,2.51,7.83.87,11.64-.62,3.94-1.54,7.79-2.06,11.03,1.61,1.26,1.43,2.63,1.1,4.07.16,3.12-2.05,6.29-4.03,9.45-6.02.69-.44,1.43-.98,2.24-.24.44.41.53.93.22,1.49-1.95,3.57,1.85,3.36,3,3.58,2.78.51.98-1.74,1.04-2.76.18-3.2,2.49-4.52,4.93-5.53,3.83-1.59,6.04-4.22,6.34-8.82-2.68.95-4.74,1.12-5.06-2.72-.17-2.1-2.67.3-3.99-.83.88-2.22,3.55-1.79,4.88-3.27-4.23-3.35-4.89-3.37-7.73-.25-3.93-7.7-1.49-12.7,7.74-14.46,4.31-.82,8.22-2.2,12.04-4.17,1.09-.56,2.33-.91,3.54-1.12,2.39-.42,4.02.28,3.01,3.07-.76,2.09-.24,3.78.96,5.41,1.05,1.43,1.2,4.01,4.04,3.19,1.8-.52,4.18-.34,4.74-2.67.56-2.32.6-4.75-2.12-6.08-.47-.23-.93-.61-.69-1.34,1.02-.55,1.84.13,2.58.63,5.44,3.69,11.7,5.63,17.62,8.28,1.46.65,4.41.63,3.49,3.08-1.01,2.7-2.96.17-4.49-.15-1.03-.21-1.85-1.32-3.07-.72-.59,1.07.19,1.88.59,2.68.99,1.96,1.7,4.85,3.29,5.51,1.79.74,2.68-2.47,4.23-3.7,2.19-1.75,4.34-2.68,7.23-1.83,6.76,2,13.59,3.78,20.38,5.69,1.44.41,3.11.68,3.51,2.49.31,1.42,1.67,3.05.37,4.27-1.21,1.13-2.56-.36-3.71-.94-6.59-3.33-13.3-6.22-20.89-6.04-1.73.04-3.99-.47-4.43,1.95-.43,2.36-1.16,5.09,1.29,6.91,3.53,2.62,5.82,5.85,5.98,10.38.03.87.33,1.76,1.21,2.01,2.49.71,3.51,2.02,2.76,4.73-.27.96,1.28,2.37-.57,3.11-2.29.92-1.53-1.75-1.68-1.83-14.3,3.76-27.6,8.44-43.1,5.65,3.65,3.46,2.62,4.56-.86,4.41-2.7-.12-4.53.11-3.77,3.85.71,3.47-.66,4.07-4.14,3.28-3.77-.85-6.03,2.01-7.08,4.82-2.02,5.4-6.3,7.45-11.18,8.7-2.48.64-4.37,1.08-2.76,5.11-3.47-2.61-5.38-1.81-7,.98-1.28,2.2-3.6,3.36-5.89,4.41-13.09,5.96-26.2,11.81-37.75,20.68-5.49,4.22-5.85,3.75-6.39,7.19,2.21.16,3.56-1.42,5.01-2.48,6.82-5.02,13.56-10.09,22.26-11.46,1.05-.17,2.15-.71,3-1.37,7.89-6.11,17.8-8.16,26.24-13.14,1.75-1.04,3.35-1.03,5.43-.44,2.58.73,5.5.6,8.24.36,3.88-.34,7.66-.72,11.45.67,1.47.54,3.01.07,4.16-1.21,2.51-2.8,3.45-.94,3.96,1.45.42,2,.04,4.17,1.68,6.67,1.34-4.11,2.51-7.79,3.75-11.44.66-1.93,1.99-3.02,4.13-2.51,1.51.36,2.99.9,2.82,2.94-.1,1.21-1,2.31-.37,3.89,2.88-1.34,4.46.51,6.75,2.1,5.19,3.62,11.54-1.31,14.36-6.53,1.15-2.13,1.48-4.7,2.31-7.51,1.37,2.24,2.76,3.67,5.24,1.36,1.34-1.25,1.64.68,2.1,1.56,4,7.69,4.17,7.86,11.14,10.94-.19.35-.31.77-.58,1.02-5.09,4.49-4.74,9.06.98,12.85,4.14,2.74,8.21,1.28,9.64-3.5.71-2.38,1.37-4.72,2.84-6.84,1.93-2.79,3.27-3.26,5.17.07,2.74,4.8,5.8,9.42,8.73,14.11,1.11,1.78,2.21,3.67,4.82,3.08,2.8-.64,5.76-.93,6.9-4.4,1.08-3.31,1.36-6.47-.34-9.62-.46-.85-1.12-1.69-1.26-2.6-.38-2.56-1.13-5.52,1.62-7.14,2.64-1.55,3.85,1.26,5.42,2.62,2.22,1.92,3.9,4.2,4.88,7.07.65,1.93,1.91,3.67,3.02,5.42.77,1.21,1.54,3.21,3.34,2.26,1.75-.93.57-2.76.13-4.11-.9-2.76-2.04-5.44-2.96-8.19-1.52-4.55-2.92-9.15-4.44-13.71-.28-.85-.72-1.78.35-2.06,3.35-.87,2.06-3.85,2.7-5.87.45-1.41.45-3.59-2.18-1.65-1.08.8-1.96.28-2.26-.76-.39-1.36-.67-2.49-2.36-2.93-1.18-.31-1.29-1.6-.29-2.27,3.77-2.54,2.29-5.34.64-8.24-.52-.92-1.15-1.88-.63-4.52,2.51,3.68,4.7,6.35,6.27,9.35,1.9,3.63,3.94,3.96,7.06,1.52,2.07-1.62,4.37-3.06,7.1-.86,1.42,1.14,2.25.07,2.79-1.21,2.05-4.84,4.24-9.62,6.09-14.54,1.42-3.79-1.45-6.25-3.65-8.55-2.18-2.28-4.9-4.03-7.36-6.05-.63-.51-1.45-1.14-.95-2.06.65-1.21,1.68-.63,2.51-.17,8.65,4.79,15.5,11.49,20.84,19.76.68,1.05,1.14,2.22.33,3.5-.44.69-.78,1.4-.22,2.29.39.62,2.64-.45,1.4,1.37-.63.93-1.72,1.3-3.27.83-3.92-1.2-7.06,1.37-8.2,5.46-.94,3.39-.84,7.49-5.03,9.32-1.37.6-.55,1.65.13,2.69,3.46,5.31,5.39,11.24,6.53,17.43.32,1.77-1.08,2.79-2.2,3.76-4.42,3.86-4.99,5.91-2.99,11.5.64,1.81-.63,6.1-2.19,8.1-1,1.29-.54,2.62.55,3.72,2.3,2.33,2.6,3.75-1.36,4.48-3.05.56-6.01,1.84-4.47,6.18.52,1.46-.48,2.64-1.62,3.55-2.05,1.64-4.14,3.22-6.17,4.88-.96.79-1.89,1.07-3.02.41-.61-.35-1.68-.74-1.9-.2-2.84,6.98-6.2.69-8.47-.17-4.2-1.6-7.92-4.08-12.8-3.32-2.66.41-5.66-1.11-7.57-2.17-4.24-2.35-6.35.71-9.06,1.99-5.86,2.78-8.49,8.84-12.71,13.3-.76.8-.96,1.71-.71,2.67.48,1.9,1.38.4,2.13.21.61-.15,1.01.21,1.37.68,1.97,2.63,1.38,8.35-.57,11.12-1.67,2.38-3.61,4.11-6.04,5.7-3,1.96-6.11,1.01-9.15,1.29-1.21.11-2.85-.81-2.37-2.67.29-1.13.11-1.96-.81-2.5-4.26-2.56-5.04-6.28-4.56-11,.28-2.78-.55-5.4,2.93-6.81,1.56-.63,1.43-2-.02-3.26-2.18-1.9-4.93-2.66-7.47-3.45-7.47-2.34-14.02-7.77-22.64-6.43-4.11.64-7.57,1.45-10.27,5.15-3.48,4.76-9.11,4.06-14.1,3.77-6.55-.38-12.39,3.41-13.75,9.84-.31,1.44-1.07,1.57-2.33,1.68-3.03.26-3.02,1.82-1.39,3.87.86,1.08,1.73,2.16,2.52,3.29,2.61,3.77,1.84,6.56-2.43,8.25-1.92.76-2.32,1.94-3.17,3.84-1.96,4.37-4.1,8.67-5.98,13.11-.53,1.25-3.34,1.71-5.19,2.18-4.49,1.16-7.23,4.37-9.79,7.87-.24.33-.62.82-.53,1.08,1.41,3.96-2.98,8.01-1.72,10.42,3.16,6.06,0,4.61-3.93,5.69-7.99,2.21-11.15,8.4-10.35,17.01.02.27-.03.72.12.8,6.52,3.62,1.37,10.34,3.9,15.18.67,1.28.63,3.07,2.04,4.31,1.14,1,1,2.96-.57,2.58-2.29-.55-3.81.45-5.72.88-1.92.44-4.26-.26-4.39-3.05-.06-1.3.14-2.61-1.52-2.93-1.67-.32-3.38-.35-4.54,1.21-.73.98-1.55,1.93-1.52,3.32.02.95.05,2.01-.33,2.84-2.38,5.3-2.28,10.17,1.98,14.57.62.65,1.31,1.67.57,2.61-.73.93-1.83.34-2.72.15-8.35-1.83-8.43-1.88-11.99,6.38-1.05,2.43-1.07,3.82-4.67,1.98-3.38-1.73-7.83-1.73-11.64-3.22-2.27-.89-4.44-2.91-7.15-.67-.42.34-1.8-.34-2.67-.71-2.16-.93-4.21-2.14-6.42-2.89-2.86-.97-5.83-.85-6.42,2.78-.64,3.9-3.03,3.6-5.64,3.08-3.98-.79-9.51,2.3-10.64,6-.55,1.78-.23,2.71,1.83,2.5,1.51-.16,3.03-.26,4.54-.45,2.94-.36,5.76-.68,3.95,3.86-.26.65-.03,1.5.82,1.63,1.55.24,2.12-.89,2.64-2.09,1.84-4.27,5.95-5.05,8.89-1.83.79.86,1.22,1.47.45,2.43-.89,1.1-.84,2.15-.29,3.45,1.09,2.58,1,2.62-2,4.42,3.23,1.34,5.49,3.36,6.72,6.54,1.07,2.78.6,4.08-2.44,4.99-13.51,4.06-26.99,8.2-40.39,12.59-17.22,5.65-34.36,11.51-51.49,17.4-6.41,2.2-11.98,6.33-18.5,8.39-6.46,2.03-6.42,2.14-7.84-4.32-.2-.93-.27-1.91-1.08-2.6-3.19,7.44-4.46,8.3-11.2,7.16,2.24-1.76,5.22-1.66,6.68-4.19,1.2-2.06.88-2.64-1.37-2.75-5.11-.26-9.65,1.39-14.35,3.3-14.65,5.97-28.2,14.03-42.21,21.23-2.8,1.44-5.91,2.28-9.74,3.72,1.12-3.32,2.78-5.1,4.93-6.55,1.81-1.22,3.47-2.75,2.54-5.11-1-2.52.57-2.96,2.23-3.28,2.85-.55,5.72-1.02,8.6-1.31,6.54-.65,11.9-4.22,17.67-6.84,8.97-4.07,18.21-7.31,27.97-8.95,2.63-.44,5.05-1.39,6.92-3.46,1.42-1.58,3.35-2.37,5.31-3.11,19.55-7.34,38.9-15.21,58.88-21.37,1.16-.36,2.25-.95,4.3-1.83-5.04-1.13-9.07.07-12.94.64-11.2,1.64-22.47,2.82-33.56,5.23-5.18,1.13-10.48.1-15.67-.72-2.29-.36-2.79-2.44-3.6-4.18-.4-.87-.77-2.13-1.79-2.05-1.35.11-1.32,1.59-1.52,2.61-.42,2.12-.34,4.17,1.59,5.65,1.32,1.01,1.32,1.9-.02,2.94-8.51,6.57-16.05,14.5-26.09,18.94-2.41,1.07-4.67,2.99-7.39-.5-1.93-2.48-9.84-.7-11.73,2.05-1.62,2.37-3.85,3.37-6.74,3.65.33-1.75,2.56-1.12,2.81-2.56-.27-.85-.89-1.09-1.56-1.32-1.48-.5-3.89-.2-4.01-2.06-.11-1.65,2.16-2.33,3.51-3.21,9.46-6.14,19.71-10.61,30.41-14.09,4.08-1.33,8.16-2.64,12.19-4.11,1.61-.59,4.34-.27,3.77-3.29-.67-3.52-2.31-6.17-6.42-6.34-2.55-.11-4.85.52-5.95,2.87-.97,2.07,1.27,1.49,2.19,1.95,1.41.7,4.04.42,3.92,2.29-.11,1.69-2.6,1.5-4.16,1.82-8.53,1.76-17.03,4.72-25.59,4.88-7.37.14-13.7,4.43-21.25,3.4-3.18-.43-6.77,2.05-10.15,3.25-4.94,1.76-9.79,4.05-15.14,1.19-1.28-.68-2.73.11-4.01.59-6.74,2.51-13.52,4.91-20.16,7.66-3.08,1.28-6.17,1.36-9.35,1.34-.63,0-1.56-.16-1.83-.58-.56-.88.35-1.52.93-2.04,3.05-2.76,6.14-5.46,9.41-8.35-3.5-1.58-6.41-1.9-9.04.86-.93.98-2.26,1.17-3.49.85-6.47-1.64-12.59-.22-18.71,1.84-2.66.9-5.38,2-8.61.79,6.62-3.3,13.23-6.61,19.87-9.88.92-.45,2.23-.59,2.44.62.74,4.31,3.02,1.88,4.71,1.1,5.58-2.57,11.21-3.93,17.22-1.49,1.46.59,2.97.26,4.49-.04,11.25-2.23,22.51-4.39,33.77-6.57.64-.12,1.3-.51,2.33.46-6.43,3.43-12.71,6.77-18.99,10.11.05.25.11.49.16.74,2.42-.47,4.88-.8,7.26-1.43,7.49-1.95,14.94-4.06,22.44-6,1.7-.44,3.52-1.46,5.26-.66,4.22,1.94,7.82-.25,11.56-1.47,2.83-.92,4.12-2.89,2.72-5.78-1.43-2.95-.56-4.01,2.6-3.95,5.07.1,5.08.03,4.37-5.21,1.77.26,4.11,2.89,5.02-.78.42-1.67,2.38-3.43,1.05-4.9-1.13-1.25-3.16.14-4.65.62-5.16,1.65-10,2.93-15.52.31-3.31-1.57-7.58-1.61-11.29.2-1.39.68-2.36.33-3.27-.73.08-.26.08-.65.24-.72,1.48-.69,4.49-.37,3.64-2.83-1-2.9-3.16-.45-4.8,0-.93.26-1.84.57-2.76.86l-.03-.03Z"/>
        <path class="cls-2" d="M988.08,604.14c-2.88-1.65-4.14-1.82-6.23-.46-3.93,2.55-7.53,5.03-10.63,8.78-3.24,3.93-8.89,2.68-13.53,3.85-.25-1.94.99-2.02,1.77-2.32,3.22-1.23,6.65-1.94,5.57-6.92-.47-2.14,2.14-3.36,3.3-5.03,1.24-1.79,1.26-3.02-1.45-3.16-3.58-.19-7.16-.55-10.73-.86-.79-.07-1.84.1-2.09-.91-.31-1.26.83-1.62,1.67-2.01,1.7-.79,3.56-.6,5.32-.44,3.26.29,5.98-.66,8.34-2.85,4.31-3.99,8.63-7.97,13.35-12.33-4.14-.96-5.98,2.46-8.88,3.03-.23-5.91,1.86-8.16,7.46-8.25.66-.01,1.7.02,1.92-.34,3.35-5.75,9.91-7.2,14.72-10.99,3.47-2.73,6.68-5.15,4.38-10.18-.05-.12-.02-.27-.05-.41-.58-2.82,3.36-4.14,2.8-5.97-.64-2.08-2.38-3.24-.91-6.09,1.39-2.7-1.57-4.73-3.74-5.89-2.15-1.15-1.56-1.85-.24-2.86,2.38-1.8,5.24-2.45,8.06-3.16.82-.21,1.7-.17,2.2.69.52.91-.05,1.58-.67,2.16-1.59,1.49-3.2,2.96-5.12,4.73,2.61.91,3.89-.41,5.01-1.97.95-1.32,1.68-2.32,3.66-1.28,4.09,2.14,8.41,1.77,12.38-.25,6.17-3.14,12.73-4.53,19.51-5.14,4.5-.41,8.71-2.12,13.32-2.43,2.23-.15,5.53-2.18,8.24-3.54,1.24-.62,1.93-1.34,3.07.04.81.98,1.77.34,2.52-.34,5.75-5.15,13.06-7.68,19.56-11.56.82-.49,2.03-1.61,2.86-.23.67,1.11-.29,2.26-1.21,2.79-3.97,2.29-5.19,7.02-8.94,9.66-2.93,2.07-2.66,9.84-.28,12.84,1.16-2.57,10.12-7.95,12.5-6.93,2.05.88,2.64-.23,3.8-1.16,2.37-1.9,3.69-5.99,8.07-3.98.41.19,1.3-.42,1.84-.82,6.78-5.07,14.96-7.29,22.41-11.01,3.82-1.91,7.89-3.35,11.88-4.91.82-.32,1.9-1.1,2.68-.15.79.95-.15,1.81-.68,2.56-1.68,2.32-1.13,3.31,1.73,3.55,2.56.22,5.09.85,7.76,1.32-.16-1.95-3.1-1.74-2.45-3.62.57-1.63,2.35-1.08,3.66-1.22,1.82-.2,2.18-.95,1.03-2.4-1.12-1.41-2.18-2.86-3.33-4.24-1.19-1.42-.86-2.96.57-3.42,2.98-.95,5.69-3.03,9.25-1.96,2.79.84,5.79,2.38,8.63-.19.72-.65,1.48-.42,2.06.46,1.9,2.87,5.05,2.24,7.8,2.72.7.12,1.78.02,1.75-.65-.14-3.69,2.92-3.76,5.05-5.28,2.18-1.55,2.2-5.23,4.39-7.28.13-.12.11-.68-.02-.76-5.45-3.59-3.97-10.23-6.59-15.1-1.3-2.41-2.12-4.17-5.1-2.13-.39-1.97.57-3.25,1.09-4.61,1.08-2.82,2.32-4.79,4.52-.69.5.93.99,1.97,2.54,1.43,5.27-1.83,9.75-.07,13.82,3.28,2.07,1.71,4.52.72,6.79,1.01,1.56.2,3.58-.6,4.37,1.44.88,2.3-.76,3.51-2.43,4.68-.84.6-2.61,1.51-1.95,2.27,1.37,1.57,1.59,4.82,3.8,4.76,6.94-.22,11.53,4.03,16.53,7.68,3.36,2.45,6.06,1.9,7.55-1.29.36-.77.57-1.42.18-2.32-1.51-3.51.55-7.55,3.98-6.96,4.29.73,7.06-1.32,10.13-3.4,4.63-3.14,6.33-2.88,9.94,1.15.71.79,1.12,2.9,2.67,1.62,1.47-1.21,2.04-3.45.34-4.76-5.03-3.87-.05-4,1.81-4.71,3.13-1.2,7.67.47,8.33,2.63,1.1,3.64-1.51,9-4.87,10.12-6.27,2.09-11.95,5.52-18.2,7.78-3.48,1.26-6.06,5.04-8.98,7.75-1.27,1.18-.53,1.98.76,2.36,2.05.6,2.01,1.89,1.4,3.55-1.39,3.76-2.63,7.57-4.07,11.31-3.02,7.83-8.78,13.35-15.66,17.73-10.15,6.45-20.61,12.39-30.55,19.2-11.78,8.07-22.27,17.7-33.33,26.66-8.16,6.61-16.2,13.36-24.3,20.04-3.19,2.63-5.47,2.13-8.67-2.11,4.12.16,7.62-.63,9.02-4.93.29-.88,1.17-1.74.38-2.67-.64-.76-1.54-.27-2.33-.11-1.35.26-3.1.85-3.87-.38-.81-1.3.73-2.48,1.5-3.56,1.32-1.86,2.78-3.63,4.28-5.56-1.72-.41-2.63.61-3.62,1.21-23.03,14.04-46.48,27.36-70.02,40.53-4.18,2.34-8.85,3.11-13.25,4.72-1.85.68-3.63,1.24-4.05,3.62-.36,2-2.16,2.83-3.8,3.52-11.59,4.91-23.11,10.38-35.29,13.26-9.8,2.31-20.24,2.91-30.44.87-4.58-.91-5.71-2.58-5.27-7.24.37-3.89,1.48-7.58,2.98-11.17.41-.97,1.24-2.15.42-3.09-.94-1.07-2.08,0-3.03.38-6.32,2.45-12.6,4.99-18.91,7.46-.95.37-2.11,1.47-2.96.26-.63-.9-.11-2.19.47-3.13.49-.8,1.1-1.81,1.89-2.11,4.94-1.84,9.37-4.64,13.96-7.16,3.01-1.65,6.07-.43,8.69,1.11,3.89,2.3,7.15.83,10.51-1,1.62-.88,1.86-2.25,1.57-3.89-.16-.9-.78-1.96.4-2.58.94-.49,1.55.25,2.08.9.98,1.2,2.02,1.06,2.63-.17,2.34-4.72,7.35-6.31,10.98-9.5,1.14-1.01,2.6-1.74,2.91-3.35.36-1.85.76-3.82-2.44-3.1-3.32.75-3.38-.72-1.85-3.04.68-1.03,1.67-2.08.52-3.32-1.1-1.18-2.62-1.15-3.84-.43-4.19,2.47-8.64,4.34-13.19,6.01-.79.29-1.62.68-1.37,1.75.39,1.66,1.69,2.4,3.15,3.01,1.15.48,3.23-.93,3.43,1.19.17,1.9-.52,3.94-2.11,5.22-3.01,2.43-6.16,4.67-9.26,6.99-1.09.82-2.2,1.25-3.27-.02-1.08-1.27-.43-2.41.49-3.29,2.91-2.75,5.91-5.41,9.38-8.56"/>
        <path class="cls-2" d="M1212.79,318.76c2.98-.46,4.34.98,6.74.92-2.29-4.39-.38-8.74-.32-13.08-1.44-.22-1.52.81-1.92,1.46-.37.6-.75,1.3-1.58.89-.75-.38-.62-1.12-.44-1.81.6-2.23,1.19-4.47,1.98-7.41-3.77,2.31-6.19,5.1-8.52,7.82-3.33,3.9-6.8,7.65-10.53,11.15-2.27,2.13-2.51,3.74.28,5.5,1.11.7,2.64,1.49,1.61,3.24-1,1.69-2.38.81-3.64.26-4.12-1.78-7.9.32-11.62,1.34-9.3,2.56-10.71,2.27-16.55-5.34-6.31-8.22-11.62-17.13-17.62-25.64.96,6.23,3.12,12.09,5.55,17.81,4.81,11.32,9.4,22.77,16.65,32.86,1.92,2.67.27,5.09-.96,7.3-.84,1.53-2.12.53-3.1-.35-2.74-2.46-4.66-5.46-5.8-8.95-3.23-9.85-6.43-19.71-9.62-29.57-.68-2.11-1.43-4.19-2.79-5.99-1.74-2.3-3.1-3.96-5.76-.44-2.35,3.11-3.95-.03-4.56-1.87-2.36-7.06-4.83-14.13-5.29-21.67-.23-3.74-.76-7.44-3.26-10.5-.44-.53-.85-1.1-1.37-1.54-1.54-1.29-3.34-.98-4.57.15-1.24,1.15.27,2.3.98,3.12,4.25,4.86,6.56,10.49,7.16,16.88.17,1.77.44,3.53-1.22,5.32-1.66-3.71-3.39-7.13-4.75-10.69-2.4-6.27-6.58-9.29-13.44-8.22-.97.15-2.11.62-3.59-.43,2.36-1.08,4.44-2.02,6.51-2.99,1.46-.69,2.7-1.44.36-2.67-6.12-3.21-12.23-6.46-18.37-9.63-2.15-1.11-3-.6-2.65,2.01.47,3.51,1.19,6.93.48,10.66-.81,4.22-3.05,5.29-6.81,5.62-12.15,1.07-24.32,1-36.48.55-4.5-.16-7.08,1.43-9.13,5.4-5.01,9.7-6.59,20.17-7.59,30.77-.58,6.18-1.08,12.37-2.17,18.49-.41,2.31-.21,4.03,1.38,6.31,2.31,3.29,3.22,7.77,2.99,11.86-.61,11.08,4.28,17.21,14.94,17.88-3.78,4.79-9.49,5.34-13.89,1.38-3.83-3.46-6.19-7.86-7.5-12.69-3.57-13.19-7.21-26.37-7.7-40.19-.2-5.67-2.97-10.77-4.83-16.69-1.24,2.58-.83,4.96-2.52,6.96-3.12-4.53-2.78-9.68-2.92-14.41-.19-6.3.54-12.69,2.8-18.73.48-1.29,1.1-2.55,1.8-3.73.61-1.04,1.31-2.54,2.67-2.19,1.3.34.6,1.89.73,2.92.07.53.01,1.07.24,1.65,2-14.27,5.2-28.18,12.39-41.88-3.79,1.23-5.02,4.09-7.49,5.16-1.11.48-2.02,3.01-3.18,1.34-1.03-1.49-1.39-4.63.81-5.46,3.12-1.17,4.16-2.59,3.41-5.81-.34-1.48,1.01-2.05,2.48-1.94,2.89.22,5.79.35,8.67.61,1.83.16,3.42.66,4.46,2.51,1.11,1.97,2.99,1.92,4.93,1.44-.16-2.18-2.59-.3-2.84-2.55,4.94-1.51,9.96,1.14,15.06-.09-2.53-1.92-5.6-.74-8.18-1.73-1.37-.53-3.66-.05-2.65-2.89.44-1.23-.86-1.55-1.72-1.93-1.35-.6-1.89.32-2.62,1.27-1.53,1.98-12.73,2.48-14.11.43-1.06-1.56-1.84-3.78-1.63-5.58.19-1.59,2.31-2.04,4.11-1.96,2.81.13,2.6-2.5,3.32-4.07,1.51-3.31,6.41-6.04,9.57-5.02,1.56.5-.04,2.41,1.52,3.08.73-1.31,1.42-2.65,2.2-3.92,1.08-1.78,2.83-1.61,4.44-1.17,1.77.49,1.49,2.02,1.35,3.44-.5,4.88,1.91,7.09,6.53,5.79,1.27-.36,2.33-.63,3.56-.09,1.86.82,3.21.27,4.01-1.63.29-.7.21-1.91,1.36-1.72,1.04.17,1.34,1.26,1.73,2.16,1.09,2.51.47,5.2.93,7.79.7,3.87,1.67,7.14,7,6.79-4.49,1.47-3.97,6.16-6.85,8.7,1.74,1.37,3.73.21,5.3,1.29,1.34.91,3.03,1.84,2.21,3.43-1.9,3.65.61,3.24,2.76,3.62,4.48.8,6.33,4.3,4.48,8.44-.45,1.02-.83,1.76.39,2.38,1.56.79,2.94,2.03,4.99,1.07,4.1-1.93,4.14-1.85,5.84,2.92.39-4.87,3.66-8.03,6.32-11.57.53-.7.74-1.32.1-2.2-1.72-2.39-1.17-5.45-.1-7.4,1.5-2.73.95-5.51,1.02-8.01.11-3.75-3.69-1.82-5.81-2.33,2.65-4.62,2.98-4.68,6.81-1.76,1.33,1.02,2.77,1.67,4.61,1.35,2.87-.49,5.51-.03,7.32,2.64.44.65.94,1.54,1.94.79.76-.57.82-1.41.49-2.25-1.18-3.07.48-3.84,3.13-4.23,1.87-.27,3.96-.77,4.75,1.17.75,1.83-1.89,1.46-2.66,2.49-.4.54-1.08.88-1.02,1.69.44.76,1.42.84,1.75.44,2.88-3.46,8.04-2.63,11.03-5.95.6-.67,2.33-1.11,3.07-.74,3.26,1.64,6.27,3.03,9.75.33.74-.58,1.94,3.78.8,5.22-1.86,2.36-4.54,3.61-7.34,4.44-2.12.63-.15-1.82-1.62-2.13-1.74,3.97-5.05,3.77-8.58,2.84-.13-.04-.27-.08-.41-.08-2.51.05-5.94-1.59-7.23,1.09-1.47,3.06-1.18,6.88,1.28,9.79,2.4,2.84,5.18,5.31,7.09,8.6,1.23,2.12,3.45,1.92,5.55.97,2.34-1.05,3.59-2.6,7.13.05,3.93,2.94,10.79,5.31,15.29-1.33,1.42,1.58-.51,2.72.38,3.87,1.5.04,2.05-1.26,2.97-2,.8-.65,1.27-2.08,2.65-1.5,1.26.54.91,1.88,1.07,2.93.99,6.62,1.82,5.96,8.17,5.84,4.22-.08,7.56-.49,11.25-2.35,1.91-.96,3.36,1.84,2.03,4.18,3.49.15,6.8,1.31,10.29.97,4.98-.49,3.7-4.78,4.53-7.63.82-2.83-1.17-4.16-3.64-4.3-5.08-.29-10-2.79-15.33.08-3,1.61-4.91-1.29-6.24-4.3,2.34-1.05,4.59.03,7.78.24-2.56-1.97-4.33-3.34-7.05-5.43,7.26-.12,12.32-3.48,17.72-6.07,2.75-1.31,6.04-2.67,8.66.69,2.44-2.49,4.3,2.01,7.36.31,3.61-2.01,3.08-5.13,4.08-7.9.56-1.55-.71-4.37,1.44-4.52,1.96-.14,3.7,2.08,3.54,4.37-.16,2.26,2.12,2.11,2.83,3.65,1.48,3.2,2.35-.32,3.49-.79,1.33-.54,1.85-.05,1.93,1.16.26,4.01,2.66,3.12,4.87,2,1.45-.74,2.71-2.35,4.42-1.02,1.57,1.22.96,3.02.51,4.62-1.13,4.08-2.29,8.15-2.98,12.54,3.18-1.85,6.04-3.87,6.58-7.94.16-1.18.02-3.02,1.58-2.87,1.56.15.97,2.03,1.07,3.17.26,2.92-.99,5.32-2.75,7.55-1.76,2.24-5.41,2.85-5.42,6.7,0,1.05-1.86.83-2.93.97-1.62.22-2.12,1.04-1.61,2.6.53,1.62,1.38,1.81,2.8.97,1.01-.59,2.16-1.61,3.35-.34,1.1,1.18.25,2.36-.25,3.45-2.62,5.64-5.77,11.04-7.35,17.13-.19.73-.78,1.55-1.42,1.93-4.59,2.71-6.75,6.72-6.9,11.99-.06,2-1.31,3.59-2.31,5.25-1.32,2.19-2.59,3.62-4.3-.21-2.08,4.76-1.27,9.44-2.37,13.79-.62,2.43-.99,5.03-2.77,6.82-1.34,1.35-2.2,4.55-5.09,2.72-2.42-1.53-2.35-5.22.02-7.56,1.48-1.46,3.25-2.64-.17-4.97"/>
        <path class="cls-2" d="M772.71,273.92c1.69,5.43,1.55,10.84,2.74,15.93.99,4.2-1.34,7.01-2.63,10.09-3.38,8.04-11.59,11.34-17.79,16.61-3.05,2.59-6.31,4.94-9.62,7.19-1.2.81-2.95,3.7-4.11-.39-.35-1.23-1.7-.08-2.41.36-2.72,1.64-5.35,3.44-8.07,5.08-2.97,1.79-6.06,3.37-9.63,3.52-2.45.1-4.45-.01-5.1-3.33-.64-3.22-3.76-4.23-7.38-2.51-3.35,1.59-6.55,3.58-9.65,5.64-8.74,5.82-17.39,11.79-26.98,16.22-3.2,1.48-6.41,2.67-9.96,2.28-4.11-.45-7.2,1.23-9.91,4.1-2.09,2.21-4.33,4.27-6.44,6.46-1.94,2.01-4.47,2.67-7.04,3.25-.95.21-2.5.2-1.81-1.18,2.65-5.34.1-9.68-2.13-14.23-1.55-3.16-.27-5.39,3.23-5.88,1.65-.23,3.2-.56,4.78-1.19,5.48-2.19,6.56-6.57,1.72-10.17-2.81-2.09-2.07-4.43-2.4-6.78-.29-2.04,1.38-1.52,2.58-1.47.78.03,1.37-.34,1.44-1.14.03-.34-.23-.8-.5-1.05-2.62-2.39-3.31-7.29-1.2-10.08,1.24-1.64,2.68-3.19,4.25-4.52,1.8-1.52,3.23-3.21,4.63-5.13,2.02-2.79,3.52-5.59,8.56-5.89,4.96-.3,9.82-4.33,14.8-6.6,1.91-.87,2.92-3.27,3.71-5.36q3.11-8.22,11.89-8.57c1.08-.04,2.19.43,3.22-.26,4.58-3.06,8.55-3.66,12.29,1.67,1.79,2.55,5.84.65,8.48,2.36.64.42,1.86.09,2.37.57,5.53,5.23,13,4.33,19.55,6.3,2.46.74,4.33,2.13,5.92,4.23,4,5.28,9.27,4.71,11.84-1.29.79-1.84,1.33-3.27,3.74-2.72,1.59.36,1.96-.83,2.48-2.1,1.31-3.18,2.38-6.88,7.32-5.25,1.32.43,1.72-.58,1.28-1.74-.7-1.86.5-2.43,1.97-3.05"/>
        <path class="cls-2" d="M998.47,231.84c-1.77,0-3.41-.03-5.05,0-6.04.13-12.01-.59-18.01-1.07-12-.96-24.43-.98-34.65,7.52-2.23,1.86-4.17,3.37-5.92-.6-.47-1.07-2.07-1.65-3.22-2.5,5.98-3.7,7.14-9.88,6.02-16.53-.8-4.75-1.34-9.46-3.06-13.98-.44-1.16-.74-2.38-1.77-3.23-1.39-1.15-3.12-2.33-2.22-4.4,1.05-2.43,3.21-1.1,5.12-.43-.21-.82-.28-1.07-.34-1.34-.34-1.48-3-2.77-1.21-4.22,1.54-1.25,3.87-.18,5.28,1.09,2.93,2.64,4.71,1.58,7.65-.57,6.72-4.92,10.53-12.01,15.38-18.33.62-.8,1.17-1.83,2.24-1.2,1.25.75.78,1.99.08,2.9-2.18,2.85-4.35,5.72-6.71,8.41-2.11,2.39-3.94,4.62-2.18,8.09.4.78-.15,2.05-.35,3.8,4.57-2.51,7.64-6.07,11.07-9.06,4.29-3.74,12.41-5.19,17.39-2.42,1.15.64,2.72,1.87,2.78,2.9.24,4.17,3.71,7.08,3.95,11.21.15,2.54,1.82,4.25,4.1,5.33,1.46.7,2.24,1.67,1.21,3.27-4.47,6.92-6.16,6.83,3.08,15.34,2.14-7.27,9.12-6.58,14.33-8.84,1.05-.45,2.28.21,2.61,1.46.38,1.44.99,3.12.57,4.4-.4,1.23-1.9.45-2.82-.17-.88-.58-1.6-.39-2.16.36-1.51,2.03-3.2,2.47-5.76,1.71-2.6-.77-3.35,2.23-4.3,3.7-1.06,1.65,1.52,1.16,2.27,1.9,2.15,2.13,2.23,5.24,3.53,7.79.45.89-.86,1.6-1.85,1.78-1.36.25-2.73.44-4.1.58-1.46.15-3.23,1.04-4.28-.38-1.06-1.44,1.43-2.12,1.3-4.29"/>
        <path class="cls-2" d="M1076.01,52.73c1.24-7.18,1.24-7.23-5.7-7.75-2.16-.16-5.07-2.68-6.28.22-.84,2,2.73,2.48,4.13,3.87,1.15,1.14,1.34,2.3.85,3.76-1.06,3.14-2.09,6.28-3.11,9.44-.62,1.93-1.78,3.82-.42,5.92.38.58.47,1.38-.28,1.81-.76.43-1.36-.16-1.78-.66-1.24-1.48-2.6-2.91-3.53-4.58-1.3-2.31,1.89-1.63,2.33-3.16-4-.43-4.64-2.53-3.83-6.28.96-4.42-1.38-6.57-6.52-6.85-4.68-.26-9.45-.41-13.44-3.14-5.29-3.61-5.88-5.98-4.05-12.65.89-.29,1.34.38,1.57.96,1.52,3.8,3.75,4.4,6.88,1.72,1.35-1.15,2.85-.56,4.36.14-.81-5.04-10.44-9.08-19.22-8.41,3.77,3.34,3.75,5.22.26,11.82-8.93-9-19.78-13.34-32.6-13.1-.96.02-2.19.36-2.84-.09-4.14-2.93-8.48-3.45-13.19-.96-.32-2.8.97-4.52,1.78-6.34.57-1.28.74-3.31,2.86-2.93,2.04.37,3.69,1.61,3.75,3.85.11,3.89,2.58,3.37,4.9,2.66,2.77-.84,2.71-2.67,1.25-4.82-.77-1.13-1.62-2.49-.48-3.79,1.11-1.26,2.51-.47,3.86-.19,9.42,1.96,18.78,4.5,28.55,2.51,2.79-.57,3.66,1.01,3.2,4.24,2.98-2.82,2.1-5.65,1.63-8.11-.58-3.04.79-3.12,2.87-2.44,3.6,1.19,5.68,4.29,8.12,6.88.88.93.08,1.73-.82,2.32-1.01.66-1.97,1.41-2.96,2.11.12.37.24.75.36,1.12,5.4-1.55,10.83-3.04,16.19-4.7.97-.3.54-1.36.18-2.15-.55-1.22-1.86-2.12-1.55-3.9,2.29-.52,4.25.73,6.29,1.32,10.61,3.11,21.19,6.31,31.79,9.45,2.89.85,5.31,1.76,1.13,4.73,3.97.44,7.07,5.64,6.33,9.87-.07.4-.19.82-.38,1.18-4.17,7.68-4.91,16.66-9.43,25.04-.54-2.85.35-4.81.76-6.8.36-1.73.07-3.08-1.75-3.63-3.99-1.22-8.03-4.13-12.07.47"/>
        <path class="cls-2" d="M894.3,28.36c1.75-3.13,3.73-5.73,7.95-3.94.82.35,1.35-.34,1.38-1.07.2-4.36,3.58-5.1,6.79-6.06,1.32-.4,2.62-.88,3.96-1.2,2.35-.56,3.36-1.62,2.13-4.12-1.65-3.36-.08-5.57,2.98-6.96,3.27-1.48,6.59-2.85,9.89-4.27.38-.16.98-.55,1.12-.43,3.37,2.95,6.6-1.28,10.1-.09,3.76,1.27,7.81,1.64,11.7,2.52,1.79.41,3.24,1.55,4.42,2.94,7.04,8.35,11.56,17.81,12.32,28.82.28,4.12,1.4,8.19.78,12.36-.15,1.04.11,2.52-1.36,2.63-1.4.1-1.53-1.39-1.89-2.37-.86-2.33-1.07-4.8-1.13-7.81-3.04,2.5-5.6,4.45-2.73,8.31.78,1.05.56,2.44-.36,3.47-.83.92-1.52,1.45-2.29-.33-2.35-5.48-7.03-8.54-12.38-10.26-2.67-.86-4.88-2.56-7.27-3.37-4.95-1.67-8.67-6.69-14.67-5.45-1.41.29-2.57.83-3.67,1.74-4.16,3.44-6.16,2.96-9.93-1.06-1.6-1.7-4.19-2.81-6.53-3.38-3.12-.75-1.44,2.55-2.76,3.9-1.79-2.47-4.13-3.18-7.19-2.09-2.66.95-1.48-1.19-1.48-2.29l.12-.15Z"/>
        <path class="cls-2" d="M252.89,452.06c3.97-4.14,7.98-4.97,12.43-3.68,3.27.95,5.97.34,8.08-2.47.56-.75,1.25-1.48,2.67-1.5-.42,3.88,1.41,4.04,4.62,3.3,5.51-1.27,11.17-1.87,16.73-2.9,2.97-.55,3.32.75,2.15,2.9-4.22,7.74-10.34,13.56-18.22,17.5-.8.4-1.83,1.02-2.69.14-.73-.75,0-1.55.25-2.29.38-1.08.89-2.38-.41-2.91-1.77-.71-1.83.96-2.25,2.09-.77,2.07-2.21,1.84-2.9.25-1.89-4.33-5.15-4.41-8.98-3.18-.14-1.25,2.06-1.55.85-2.87-.9-.98-1.78-.32-2.62.12-9.94,5.23-19.09,11.71-28.24,18.17-1.05.74-1.63,2.18-2.34,3.35-6.82,11.22-14.83,21.69-21.09,33.27-.54,1-1.24,1.68-2.27,1.15-2.35-1.21-5.89-1.32-6.2-4.73-.32-3.51-1.34-6.12-4.87-7.39-1.91-.69-1.83-2.12-1.11-3.73,4.33-9.62,10.61-17.75,18.62-24.59,3.05-2.6,7.13-1.94,10.51-3.48,1.24-.56,2.68-1,1.16-2.48-3.18-3.12-1.21-5.36,1.33-7.04,7.85-5.18,15.86-10.12,23.79-15.17,1.27-.81,2.48-1.37,3.62.13,1.05,1.37.57,2.56-.42,3.73-.79.93-1.84,1.7-2.22,4.29"/>
        <path class="cls-2" d="M844.49,59.75c.95,4.14,1.65,8.35,2.91,12.38,1.13,3.6,4.34,3.24,6.93,2.17,3.57-1.48,5.58-.5,7.45,2.67,1.83,3.1,4.46,5.69,7.61,7.49,3.22,1.84,2.32,3.36.01,5.02-1.12.81-2.24,1.61-3.42,2.32-1.75,1.05-2.36,1.92-.55,3.72,1.44,1.44.97,3.37-.51,4.82-1.88,1.84-2.97.09-4.06-1.05-1.59-1.67-4.49-2.47-3.67-5.82.23-.95-1.13-1.46-1.95-1.93-4.54-2.64-9.09-5.27-13.65-7.88-.95-.54-1.87-1-3.1-.48-4.73,2-8.82.92-12.23-2.87-.85-.95-1.93-2.16-3.13-1.44-3.61,2.18-5.93,1.48-6.75-2.92-1.51,1.05-.6,2.85-2.54,3.49-.46-2.56-.92-5.06-1.35-7.56-.32-1.87-.28-2.02,1.72-1.71,1.18.18,1.03-.6,1.23-1.13.48-1.22.71-2.43-.66-3.29-1.05-.66-2.13-1.69-3.36-1.39-1.66.4-1,2.04-1.05,3.18-.1,2.48,0,4.98-.06,7.47-.03,1.2.05,2.99-1.87,2.18-1.19-.5-4.11-.87-2.63-3.05,1.57-2.3-.41-1.61-1.08-1.76-2.29-.5-4.6-1.04-6.92-1.18-3.77-.23-4.58-2.4-4.2-5.6.05-.41.03-.83.08-1.24q.76-6.09-5.03-7.33c.78-2.44,2.9-3.59,4.59-5.1.8-.72,2.2-1.13,1.99-2.4-.23-1.36-1.83-.93-2.74-1.45-.79-.46-2.16-.2-2.3-1.43-.1-.91.86-1.33,1.57-1.72.32-.17,1.1-.17,1.11-.12.7,3.05,3.38,1.54,5.08,2.1,2.45.8,3.67,1.59,2.01,4.31-1.87,3.07-3.01,6.21.38,9.31,1.63,1.49.18,3.08-.8,4.39-1.23,1.64-1.71,3.1.2,4.63,1.98,1.6,2.96-.08,4.16-1.13.42-.36.79-.78,1.18-1.17q6.5-6.44-.39-12.33c-1.26-1.08-2.64-2.09,0-3.17,4.63-1.9,7.96-8.74,6.34-13.3-.5-1.41.31-1.76,1.15-2.17.94-.46,1.75-.47,2.39.71,2.05,3.82,5.72,6.12,8.68,9.11,2.09,2.11,4.54,4.1,3.22,7.79-.62,1.74-.76,3.67,2.12,3.78.6.02,1.24.55,1.76.96,5.56,4.48,12.39,2.1,13.94-4.87.11-.48.37-1.19.71-1.3.36-.11,1.07.27,1.33.65,2.7,4.01,5.35,8.06,7.97,12.12.54.84.91,1.84-.26,2.5-1.07.6-1.86-.08-2.49-.85-2.05-2.53-4.06-5.1-6.09-7.65-.32.17-.64.34-.96.51"/>
        <path class="cls-2" d="M1121.1,48.1c2.29,4.4,4.73,7.75,5.75,11.81.75,2.98,2.39,5.19,4.89,6.93,1.55,1.08,3.97,1.43,3.49,4.42-.19,1.17,1.66,1.22,2.63,1.56,2.35.8,4.78,1.37,7.14,2.17,1.27.43,2.48,1.2.91,2.64-1.92,1.75-.1,2.13.92,2.94,3.64,2.89,4.25,6.03,1.7,9.62-.9,1.27-1.61,2.43-.27,3.6,1.6,1.39,2.64-.19,3.35-1.19,3.15-4.41,7.17-6.79,12.73-6.05.53.07,1.12.08,1.24.81-.03.12-.02.28-.09.37-1.26,1.42-4.39-.52-4.5,1.68-.1,2.02,2.82,2.25,4.46,3.1,4.5,2.33,9.66,3.8,11.19,9.58,6.86,3.34,9.87,10.34,14.78,15.54.48.5.99,1.12,1.75.64.67-.43.59-1.18.41-1.87-.38-1.47-.71-2.96-1.17-4.4-.9-2.8.55-4.05,2.95-4.88,3.02-1.05,3.09,1.42,3.74,3.08,1.09,2.79,1.21,5.65.18,8.51-.89,2.48-1.03,5.77-5.3,3.2-1.35-.81-3.66.02-4.75,1.66-1.69,2.52-3.53,2.22-5.6.68-.33-.24-.76-.51-.88-.85-1.1-3.05-3.15,6.63-3.82-.27-.39-3.98-3.78-1.01-5.57-2.54-1.98-1.7-3.69-3.61-4.08-5.77-.66-3.67-2.14-2.75-4.11-1.47-1.89,1.23-3.75,1.91-5.55-.09-.77-.86-2.24-1.64-.49-2.94.88-.65,2.75-.88,1.39-2.62-1.2-1.54-2.86-3.52-4.77-2.55-4.23,2.14-5.17-.39-6.2-3.47-.3-.89-.92-1.72-1.54-2.44-2.24-2.57-5.16-4.57-3.56-9.01.49-1.37-.69-3.53-3.93-4.65-4.79-1.66-8.59-6.23-12.76-9.61-.89-.72-.36-1.52.38-2.04,1.36-.96,2.42-2.05,1.33-3.77-1.24-1.95-2.88-.92-4.43-.42-.48.16-1.02.14-1.68.21,1.24-5.59-.99-9.75-4.86-13.14-1.12-.98-1.21-1.59-.55-2.73.95-1.65,1.8-3.37,3.15-5.95"/>
        <path class="cls-2" d="M1183.57,470.2c-1.23,4.46-2.94,8.19-8.05,8.8-2.77.33-4.92,1.62-6.75,3.66-1.96,2.19-4.12,3.71-7.24,1.95-1.9-1.07-3.56.19-4.03,1.66-.59,1.84.96,3.06,2.81,3.11.99.03,1.92-.44,2.25.95.32,1.35-.6,1.96-1.49,2.68-2.45,1.97-5.34,2.08-8.27,2.08-10.48.01-20.43,1.98-29.6,7.43-4.33,2.57-8.96,4.68-14.43,4.91.69-1.92,2.38-1.86,3.35-2.73.99-.89,4.82-.74,1.36-3.57-1.01-.82.24-1.84,1.22-1.95,5.24-.59,9.42-4.56,14.84-4.55,1.11,0,1.57-.98,2.18-1.73q2.27-2.77,5.64-.96c.07-3.33.04-6.67,3.05-9.2-10.83,2.3-21.67,4.59-33.68,7.14,2.17-2.73,4.01-3.52,5.99-4.07,5.06-1.41,10.1-2.91,15.19-4.16,3.93-.97,7.5-2.14,10.52-5.25,3.46-3.56,8.22-2.62,12.6-1.94,5.93.93,6.71-.18,10.81-4.5,5.27-5.56,3.28-12.3,4.74-18.45.21-.9.2-1.85.33-3.14,2.35.8,3.44,2.65,4.92,3.97,1.54,1.37,2.72,3.45,4.85,3.74,4.64.63,4.31,3.22,3,6.47-.36.89-.5,1.87-.74,2.8q-1.67,6.36,4.62,4.85"/>
        <path class="cls-2" d="M775.44,70.87c-.07.35-.05.81-.24,1.13-3.02,4.89-3.01,4.84,2.88,6.13,4.65,1.02,9.59,1.13,13.71,4.54-4.76.71-9.53.87-14.32.32-.89-.1-1.34-1.01-1.56-1.8-.61-2.16-1.86-2.61-3.7-1.49-2.42,1.48-.13,2.45.45,3.6.18.36.37.72.78,1.52-4.47-.47-6.03,1.64-5.56,5.7.33,2.82-2.37,5.91,1.76,8.39,2.89,1.74-.27,4.41-.62,7,2.29.2,4.21-.92,6.22-1.47,2.07-.56,4.53-1.23,5.81.66,3.08,4.54,7.73,4.1,12.16,4.57,1.75.19,3.57.03,5.33,1.52-6.9,3.66-14.42,4.26-21.59,6.04-4.33,1.07-8.71,1.74-11.59,5.67-.48.66-1.36,1.47-2.09,1.01-3.78-2.38-8.84-2.47-11.51-6.88-4.34-7.16-5.39-15.15-6.99-23.66,4.47,1.5,7.64,4.21,11.61,4.94,1.83.33,3.88,1.48,4.76-1.4,1.02-3.36-.29-7.38-2.31-8.47-2.02-1.09-3.58-3.03-6.3-2.19-.66.2-1.04-.73-1.25-1.42-.96-3.21,2.17-9.58,5.44-9.65,6.04-.12,11.17-2.96,16.73-4.47.62-.17,1.32-.52,2.01.16"/>
        <path class="cls-2" d="M1165.42,441.69c-3.1-2.17-4.48-4.48-2.67-8.19,1.2-2.45.18-5.03-.8-7.58-9.73-25.28-19.04-50.7-24.02-77.45-.07-.37.05-.78.12-1.62,2.54.93,1.93,3.18,2.51,4.74.66,1.79.38,3.84,1.89,6.13-.35-3.77.54-6.4,3.15-8.46,1.42-1.12.9-3.07,1.04-4.71.17-1.98-.62-4.15,1.31-6.3,3.69,9.65,2.92,19.49,2.74,29.18,2.45.12,1.34-2.48,2.97-2.27,1.42.18,1.92,1.45,2.61,2.47,3.76,5.57,5.07,11.86,5.52,18.43.26,3.8.68,7.59,1.03,11.39,1.54-.12,1.75-1.26,2.36-1.92,1.4-1.51,2.36-1.15,3.03.59,1.58,4.13,3.14,8.27,4.65,12.43.81,2.25-.06,3.31-2.47,3.54-5.72.56-6.11.29-7.83-5.31-1.17-3.83-2.49-7.62-3.89-11.36-.38-1.02-.62-2.98-2.27-2.3-1.45.6-.49,2.26-.15,3.33.8,2.5,1.81,4.93,2.77,7.37.96,2.45,2.11,4.84.72,7.55-.67,1.3.32,2.35.84,3.46,3.55,7.61,5.09,15.73,5.9,24.02.09.94.04,1.95-1.04,2.84"/>
        <path class="cls-2" d="M1277.81,391.87c-.58-.84-1.11-1.82-1.83-2.63-1.54-1.71-2.37-2.77-.57-5.42,2-2.93,1.16-6.88-.56-10.29-2.26-4.5-1.19-9.67,2.8-12.79,2.47-1.93,1.96-3.68-.26-4.81-3.57-1.83-3.86-3.93-1.32-6.74,2.26-2.49.87-4.49-.77-6.52-1.08-1.34-3.31-2.54-2.25-4.43,1-1.79,2.98.49,4.56-.06.44-1.04-.35-1.56-1.01-1.94-4.74-2.68-5.86-6.63-4.3-11.65,1.28-4.12.36-8.21-.42-12.29-.26-1.35-.53-2.71-.6-4.08-.07-1.22-.11-2.6,1.45-3.08,1.53-.46,2.69,0,3.43,1.49.41.84.78,2.06,1.97,1.71,1.3-.38.54-1.64.64-2.53.29-2.74.57-5.48.88-8.21.1-.84.34-1.81,1.32-1.85,1.11-.05,1.33,1.05,1.18,1.8-1.6,7.65.3,14.91,1.4,22.46,1.54,10.58,1.07,21.49.93,32.26-.17,12-.93,23.99-1.45,35.98-.02.55.07,1.33-.24,1.61-5.76,5.12-3.04,11.11-1.82,16.95.2.98-.13,1.71-1.08,1.89-1.84.34-4.21,1.35-5.43.59-1.57-.97-.27-3.42.27-4.98,1.18-3.39,2.54-6.29.11-10.03-1.55-2.39,2.16-.7,2.99-2.41"/>
        <path class="cls-2" d="M1257.27,301.62c0,2.8-.71,4.75-1.97,6.43-1.87,2.49-1.61,4.86.11,7.23,2.03,2.79,4.1,5.54,6.15,8.32,4.35,5.91,4.5,12.05-.11,17.86-2.94,3.7-5.47,7.57-7.76,11.69-2.93,5.28-8.1,5.82-11.88,1.62-1.85-2.05-2.13-4.18-.59-6.39,1.2-1.73,1.44-3.45-.11-4.82-2.68-2.36-1.43-5.8-2.63-8.58-.59-1.36.88-2.55,2.06-3.27,7.01-4.28,6.62-11.23,6.24-17.95-.19-3.3-2-6.66,3.55-6.86,1.4-.05,1.68-1.65,1.77-2.94.05-.69.04-1.38.06-2.07.08-2.31-.22-6.05,2.07-6.02,2.91.03,2.44,3.94,3.04,5.72"/>
        <path class="cls-2" d="M794.16,375.87c-12.53-9.4-10.35-22.6-10.72-35.1-1.58,5-1.32,10.21-2.07,15.28-.15,1.03.36,2.6-1.02,2.83-1.7.28-1.72-1.54-2.04-2.6-2-6.68-1.01-13.48-.24-20.16.76-6.56,2.34-13.03,3.58-19.53.44-2.31.67-4.78,4.09-4.57,1.1.07,1.12-1.46,2.22-2.25,1.27,3.14,4.26,3.23,6.97,4,2.62.75,5.14,1.55,7.52,3.21,2.96,2.07,3.99-2.46,6.46-2.9.48-.08.71-1.16,1.22-1.6,1.12-.98,2.82-1.56,3.76-.52,1.31,1.46-.73,1.97-1.54,2.63-10.75,8.8-19.32,19.13-21.96,33.18-1.71,9.08-1.93,18.18,3.51,26.42.18.28.12.71.27,1.68"/>
        <path class="cls-2" d="M0,378.47c3.94-2.48,7.48-4.76,11.45-6.24,25.3-9.38,51.14-17.12,76.9-25.06,7.53-2.32,13.16-7.66,20.46-9.92,1.44-.44,2.74-1.3,4.16-1.81.85-.3,2.03-.75,2.54.46.51,1.21-.6,1.74-1.45,2.12-3.53,1.59-7.26,2.81-10.62,4.69-20.27,11.31-43.11,15.88-64.28,24.8-1.24.52-3.86.3-3.26,2.27.62,2.04,2.97,1.47,4.73.94,15.12-4.5,30.34-8.98,44.35-16.21,10.87-5.62,23.05-7.42,33.79-13.1,3.66-1.94,7.36-3.83,11.07-5.67,1.08-.54,2.44-1.31,3.15.43.61,1.49-.73,1.83-1.74,2.25-27.44,11.34-54.13,24.58-82.85,32.68-13.32,3.76-26.66,7.24-40.51,8.34-3.02.24-4.62.13-7.86-.98"/>
        <path class="cls-2" d="M880.41,183.68c-2.81.3-6.04.1-7.73-3.67-.3-.67-.88-1.02-1.67-.97-3.07.2-5.55-2.8-4.54-5.9.68-2.08.75-3.76-.06-5.89-1.89-4.98-.16-6.88,5.18-6.26,4.44.52,7.15-1.95,7.04-6.53-.04-1.54.4-2.73,1.77-3.44,1.55-.8,2.06.85,3.08,1.3,3.78,1.68,5.52,6.03,8.81,7.56,5.15,2.4,7.64,8.49,13.76,9.15.73.08,1.19.85.86,1.58-.35.79-1.35,1.5-2,1.19-4.28-2.01-6.56.36-8.9,3.46-1,1.33-2.53.14-3.71-.57-1.15-.7-2.33-1.96-3.71-.96-1.39,1.01-.6,2.39-.19,3.75,1.13,3.78-1.88,6.27-7.99,6.2"/>
        <path class="cls-2" d="M115.74,402.78c-3.88-1.17-10.71,2.51-13.13,7.37-.71,1.42-1.43,2.13-2.72,1.71-5.76-1.88-10.5,1.09-15.45,3.08-3.93,1.58-7.59,3.83-12.26,2.33-3.31-1.06-3.77-2.56-2.36-5.45,1.37-2.8,3.51-4.58,6.35-5.58,7.95-2.81,15.94-5.32,24.44-6.08,6.96-.63,13.26-3.67,19.55-6.54,5.77-2.64,11.37-5.72,17.66-7.04,2.13-.45,4.29-.94,6.86.82-7.44,4.79-16.42,6-22.93,12.69,3.08.81,5.68,1.5,9.07,2.39-6.04,4.15-12.27,5.37-18.6,6.28-.44.06-1.11-.27-1.39-.64-.55-.73.1-1.23.6-1.71,1.36-1.27,3.46-1.69,4.32-3.63"/>
        <path class="cls-2" d="M1252.86,188.41c-3.58-2.26-4.71-5.52-7.22-7.45-.92-.71-1.59-2.32-3.01-1.01-1.06.97-.2,2.01.35,2.97.74,1.28,2.82,2.61.2,3.96-1.89.97-3.62.95-4.92-1.25-1.75-2.98-3.44-5.95-4.55-9.27-.39-1.19.18-4.3-3.01-2.59-.1.05-.79-.56-.74-.73.87-3.23-2.2-4.7-3.16-7.11-.39-.98-.17-2.94-2.2-2.06-1.56.67-2.93,1.57-2.01,3.78,2.23,5.35,4.19,10.82,6.56,16.1,1.17,2.6.36,4.18-1.61,5.61-.83.61-1.59,1.73-2.89.92-1.04-.65-1.67-1.73-1.32-2.82.97-2.99-.54-5.09-2.29-7.08-3.09-3.51-2.23-8.21-3.72-12.24-1.01-2.74-2.49-4.42-4.85-5.47-.85-.38-2.05-.02-1.79-1.48.35-2.01,1.58-3.45,3.25-4.57.91-.61,1.77-.81,2.55.15.44.53.76,1.17,1.24,1.66,1.41,1.43,2.58,4.13,4.75,3.35,2.31-.82,2.46-3.74,2.91-6.04.18-.94-.57-3.15.62-2.58,2.04.99,4.34-2.3,5.97.89,2.14,4.17,4.65,8.15,7,12.21,2.34,4.05,4.56,8.12,8.3,11.22,3.04,2.51,4.46,6.16,5.57,10.91"/>
        <path class="cls-2" d="M900.66,236.55c1.49,2.54,3.27,1.35,4.77,1.47,1.16.09,2.24-.03,2.75,1.25.53,1.34-.92,1.43-1.35,2.14-1.29,2.11-2.67,3.21-5.36,2.27-1.59-.56-2.85-.79-2.47-2.93.37-2.07-1.02-4.02-2.53-4.33-4.07-.85-2.69-4.28-3.06-6.33-.7-3.92-2.2-6.51-6.48-7.03-1.98-.24-2.92-.65-2.49-2.63.4-1.88,1.64-2.13,3.47-1.82,3.66.62,7.4.21,10.96,2.12,1.99,1.07,4.17-2.12,4.14-2.92-.08-2.67-.57-5.31-.41-8.07.06-1.02-1.6-1.1-2.18-.05-1.19,2.18-2.51,4.22-5.34,3.54-2.06-.49-1.27-3.79,1.27-5.06.85-.42,2.27-.26,2.7-.87,2.31-3.3,4.71-1.95,7.45-.69,2.48,1.14,3.86,2.37,2.98,5.36-.59,2-.45,3.76,2.59,3.89,2,.08,3.73,1.27,1.26,3.35-1.22,1.02-.77,1.44.2,2.12.55.39,1.09.92,1.39,1.51.88,1.74,5.03,1.96,3.04,4.78-2.07,2.93-3.98,7.08-9.02,5.49-1.23-.39-2.3-.1-2.95.88-1.22,1.82-2.66,3.08-5.33,2.55"/>
        <path class="cls-2" d="M1200.87,106.03c-2.2-6.01-6.45-6.67-11.09-5.89-2.64.45-3.84-.66-3.93-2.86-.13-3.4-2.31-5.12-4.68-6.86-10.37-7.57-21.54-14.04-31.4-22.31-5.17-4.33-10.04-9-14.38-15.36,3.27.54,5.03,2.1,6.76,3.73,3.23,3.06,6.58,5.91,11.12,6.89.78.17,1.66.55,2.18,1.12,12.26,13.46,29.08,21.04,42.54,32.96,2.34,2.07,4.69,4.01,2.88,8.58"/>
        <path class="cls-2" d="M970.09,117.76c.64,1.97,1.23,3.24,1.43,4.58.18,1.2,2.31,1.77,1.2,3.14-1.02,1.26-2.53.41-3.89.31-3.59-.26-6.53-3.09-10.35-2.42-.71.12-1.58-.52-1.72-1.51-.15-1.09.76-1.18,1.42-1.67,3.43-2.5,4.43-6.45,5.66-10.19.5-1.51-.76-1.76-1.99-1.84-1.73-.11-3.56.53-6.15-1.27,4.06-.85,7.25.15,10.17.71,4.29.83,7.09.3,7.65-5.21,1.4,1.55,1.71,3.87,4.05,2.93,1.89-.75,2.82-1.99,3.04-4.01.19-1.78.58-3.55,1.07-5.28.28-1,.45-2.39,1.82-2.5,1.56-.13,1.9,1.33,2.53,2.37.58.97,1.25,1.79.14,2.91-4.34,4.35-6.13,10.01-7.81,15.68-1.69,5.72-2.5,6.14-8.28,3.26"/>
        <path class="cls-2" d="M375.15,388.75c-15.47,3.57-29.96,10.34-45.44,13.95-4.62,1.08-9.15,1.06-13.99-.09,7.09-2.9,14.17-5.8,21.26-8.7,6.04,3.27,9.53-1.79,13.83-4.22,1.48-.83,3.11-1.05,4.81-1.04,6.5.05,13,.05,19.51.06,0,0,.03.03.03.03"/>
        <path class="cls-2" d="M917.14,166.72c2.02.48,2.88-1.27,4.18-2.15.6-.41,1.3-.8,1.89-.36.92.69.36,1.63-.2,2.13-4.12,3.71-.74,8.07-.99,12.08-.11,1.75,1.9.86,3.03.9,1.12.04,1.86.62,1.92,1.73.04.76-.62,1.56-1.26,1.27-2.96-1.34-5.98.09-8.97-.42-2.72-.46-4.03-1.68-3.36-4.41,1.31-5.37-1.45-9.12-4.93-12.52-1.22-1.2-1.37-2.25-.57-3.63.84-1.44,1.54-2.93,3.72-2.55,4.32.74,6.46,3.71,5.54,7.92"/>
        <path class="cls-2" d="M894.18,28.51c-1.22.81-2.19,1.89-1.82,3.4.37,1.52,1.9,1.29,3.09,1.51.94.17,1.87.43,2.78.72.55.17.97.58.91,1.21-.08.88-.72,1.16-1.47,1-2.17-.48-4.02.71-6.03,1.07-2.11.38-3.67,1-3.22,3.71.28,1.69-.46,2.75-2.42,1.88-2.64-1.18-5.29-2.35-7.92-3.56-1.76-.81-2.35-2.28-1.96-4.1.36-1.69,1.78-1.86,3.21-2.02,1.91-.21,3.81-.66,5.72-.77,3.12-.18,6.56.3,4.36-4.85-.65-1.52.8-3.1,1.93-4.34.66-.72,1.41-1.36,2.52-.77,1.1.58.96,1.51.8,2.5-.18,1.08-.25,2.18-.37,3.27,0,0-.12.15-.12.15"/>
        <path class="cls-2" d="M141.55,460.05c-.47,1.83-1.73,2.02-2.66,2.43-11.54,5.05-21.6,12.84-33.11,17.97-2.6,1.16-4.73,3.34-7.18,4.88-2.52,1.59-5.23,2.38-9.29.66,18.04-8.48,32.74-21.55,52.24-25.94"/>
        <path class="cls-2" d="M982.78,76.45c-.78,2.97-1.78,6.69-2.72,10.43-.48,1.9-1.63,2.11-3.07,1.19-2.89-1.87-5.83-3.7-8.53-5.83-2.35-1.85-1.53-6.77,1.22-8,1.41-.63,2.58-.91,3.7,1.06,1.63,2.88,5.5,2.51,6.73-.43.39-.93-.09-2.52,1.7-1.97,1.27.39,1.34,1.6.97,3.55"/>
        <path class="cls-2" d="M251.83,416.78c6.27-2.24,11.99-3,17.57-4.3,11.69-2.73,23.4-5.36,35.1-8.03.81-.18,1.61-.37,2.43-.53.99-.19,2.07-.32,2.39.92.35,1.34-.88,1.66-1.73,1.87-3.75.93-7.52,1.77-11.29,2.58-12.95,2.78-25.9,5.55-38.86,8.27-1.51.32-3.15,1-5.6-.78"/>
        <path class="cls-2" d="M364.43,478.29c.34-1.77-1.92-2.79-.74-4.12,1.35-1.54,2.68.15,4.06.42,3.68.73,6.7-.47,8.98-3.6,1.12-1.55,2.41-4.56,4.41-3.16,2.65,1.85-.25,4.14-1.52,5.35-3.13,2.98-6.67,5.57-10.23,8.04-1.55,1.07-3.66,1.51-5.56,1.01-1.5-.4-4.23.41-4.03-2.34.23-3.06,2.71-1.78,4.65-1.6"/>
        <path class="cls-2" d="M761.55,265.15c-.12,3.24,1.9,7.41-2.07,9.36-2.02.99-8.38-4.78-8.39-6.82-.02-3.24,3.25-6,7.07-5.98,2.26.01,4.41.1,3.39,3.45"/>
        <path class="cls-2" d="M1108.29,45.36c1.55-.67.27-3.68,2.65-3.09,1.98.48,3.9,1.69,5,3.43.97,1.54-1,2.27-1.71,3.33-.08.11-.19.2-.28.3-4.21,4.8-7.37,4.65-11.35-.6-2.23-2.94.46-5.16,1.98-6.25,2.53-1.82,1.93,2.29,3.7,2.88"/>
        <path class="cls-2" d="M1208.85,335.21c3.46.54,6.77,2.75,10.55,1.83.96-.23,1.23.96,1.08,1.81-.75,4.36-4.03,9.33-8.89,8.49-1.43-.25-3.1-.61-3.45,1.71-.18,1.18-1.07,1.65-2.14.97-.98-.63-.82-1.56-.4-2.55.86-2.06,2.89-2.87,4.39-4.25,3.65-3.37,3.67-3.35-.43-5.92-.61-.39-1.11-.81-.72-2.08"/>
        <path class="cls-2" d="M620.02,367.79c3.95.06,6.08-1.7,8.47-2.64,1.62-.64.67-2.11.35-3.24-.25-.86-.29-1.79.55-2.2,1.34-.65,1.52.71,2.01,1.44,1.48,2.18,1.58,4.25-.24,6.4-2.21,2.62-3.75,5.77-6.45,8.02-2.1,1.75-3.45,1.74-3.74-1.33-.12-1.28-.4-2.41-1.44-3.29-.9-.77-1.44-1.87-.93-2.95.58-1.22,1.7-.23,1.41-.21"/>
        <path class="cls-2" d="M204.62,317.47c9.52-8.88,21.79-10.73,34.13-12.44-11.21,4.48-22.42,8.96-33.63,13.44-.17-.33-.33-.66-.5-.99"/>
        <path class="cls-2" d="M802.09,376.34c-2.84.02-4.67.04-6.03-1.46-1.34-1.48-2.58-3.36-1.74-5.19.81-1.76,2.73-.36,4.12-.18,2.73.34,5.45.82,8.16,1.3,1.13.2,2.13.25,3.16-.42.82-.53,1.59-2.27,2.64-1.13,1.13,1.22-.05,2.73-.98,3.62-2.88,2.73-6.7,2.95-9.34,3.47"/>
        <path class="cls-2" d="M1087.23,207.35c-2.79.89-3.24,2.23-1.22,4.42,1.08,1.18,2.22,2.95.36,4.3-2.08,1.5-2.81-.71-3.79-1.9-2.98-3.59-6.23-6.97-8.81-11.23,3.71-1.24,6.84-2.45,9,2.13.54,1.15,2.81,1.48,4.46,2.28"/>
        <path class="cls-2" d="M994.5,536.17c-1.68,2.68-3.37,3.29-4.99,3.96-3.36,1.38-6.3,2.88-7.75,6.78-1.18,3.19-9.35,3.62-11.48,1.01-.77-.94-.24-1.63.54-1.96,7.55-3.16,15.13-6.27,23.67-9.79"/>
        <path class="cls-2" d="M1241.38,364.5c0-.96-.08-1.93.03-2.88.08-.65.29-1.39.69-1.89.78-.97,1.83-.55,2.59,0,2.47,1.75,4.38,4.08,5.72,6.75.59,1.18-.55,1.95-1.81,2.13-.27.04-.52.17-.78.27-5.35,2.03-6.55,1.22-6.44-4.37"/>
        <path class="cls-2" d="M954.19,555.73c1.77.64,4.73-.04,5.23,2.31.59,2.77-1.51,5.14-3.04,7.43-.11.17-.69.27-.7.26-1.33-3.35-4.71-3.08-7.28-4.27-.61-.28-.17-1.56.26-2.29,1.21-2.06,3.05-3.13,5.52-3.44"/>
        <path class="cls-2" d="M934.04,104.47c.03.16.17,1.53.51,2.85.39,1.56.04,2.99-1.4,3.45-2.47.79-4.57,1.72-5.21,4.55-.12.51-.88.81-1.35.4-.35-.31-.69-1.02-.57-1.42.71-2.31.01-5.05,2.08-6.92,1.48-1.35,2.07-3.2,2.92-4.91.51-1.02.78-2.69,2.5-2.07,1.54.56.46,1.88.54,4.07"/>
        <path class="cls-2" d="M839,269.8c1.21.24,2.46.37,3.63.74,1.18.37,1.69,1.34,1.69,2.58,0,1.16-.14,2.33-1.54,2.55-2.14.33-3.22,1.28-2.83,3.62.12.71-.6,1.37-1.38,1.1-2.27-.79-3.61-2.81-2.84-4.81.75-1.94-2.27-6.47,3.28-5.78"/>
        <path class="cls-2" d="M956.32,171.97c-2.21,1.63-1.45,4.08-1.46,6.44,0,.79-.78,1.5-1.74,1.47-1.09-.04-1.77-.83-2.1-1.75-.73-2.06-1.31-4.18-1.96-6.28-.4-1.32-.96-2.7.21-3.89,1.31-1.32,2.57-.26,3.77.29,1.51.7,2.98,1.5,3.27,3.72"/>
        <path class="cls-2" d="M394.16,312.39c1.47-2.13-1.05-7.17,3.12-8.01,2.7-.54,4.25,3.31,4.24,6.11-.01,3.55-3.12,4.05-5.87,4.58-1.79.34-1.71-.8-1.49-2.68"/>
      </g>
      <g>
        <path class="cls-1" d="M461.16,395.28c-2.09-7.94-2.79-16.24-3.46-24.26-.26-3.04-.52-6.19-.86-9.28-1.46-13.38-4.82-26.68-19.4-33.37-.26-.12-.46-.22-.6-.31.25-.13.56-.28.8-.39l.13-.06c4.24-1.98,7.3-3.79,9.94-5.87.17-.13.34-.26.51-.38,1.16-.86,2.61-1.94,2.39-4.24-.18-1.96-1.67-2.19-2.47-2.27,2.6-1.56,2.91-2.38,4.27-6.99l.04-.15c.28-.95.58-1.5.9-1.65.17-.08.44-.04.78.11,1.44.64,2.67.72,3.65.22,1.56-.79,2-2.74,2.31-4.17,1.85-8.35,2.25-15.48,1.27-22.41-3.66-25.72-25.17-37.98-44.88-38.72-11.88-.45-23.98-.32-35.67-.2-5.18.05-10.54.11-15.8.11h-8.6l.89,1.51c1.35,2.29,1.21,4.08-.48,6.18-.18.23-.36.46-.54.68-.87,1.12-1.63,2.1-3.03,2.77-.74.35-1.03.87-1.16,1.24-.33,1,.2,2,.72,2.96.17.32.35.65.46.94-.07-.01-.14-.02-.2-.03-.8-.13-1.8-.3-2.5.4-.44.44-.6,1.09-.46,1.93.2,1.2.11,1.51.09,1.55,0,0-.18.09-.8-.04-.78-.16-1.38-.52-1.63-.98-.22-.39-.21-.9.02-1.5.76-2.05,1.16-3.97,1.27-6.23l.08-1.51-4.83,1.76c-.04-.37-.12-.74-.27-1.12-.22-.54-.58-1.02-.92-1.48-.32-.43-.76-1.01-.71-1.27.01-.06.13-.38,1.1-.87.75-.38.64-1.23.55-1.9-.02-.12-.03-.23-.04-.33-.39-4.77-4.03-4.76-6.71-4.76-1.41,0-2.4.34-3.02,1.02-.87.94-.76,2.24-.67,3.28.02.3.05.6.05.88-.03,44.52-.03,89.03-.02,133.55v21.66c0,.15,0,.31.01.46,0,.27.02.52,0,.73-.16,1.26.06,2.2.65,2.86.83.93,2.19,1.01,3.13.99,3.06-.06,6.17-.05,9.18-.04,2.51,0,5.01.02,7.52-.01.9,0,1.66,0,2.3,0,2.05.03,3.08.04,3.82-.7.74-.74.72-1.79.68-3.87-.01-.62-.03-1.36-.02-2.22.03-10.6.03-21.19.03-31.79,0-8.46,0-16.91.01-25.37,0-.3-.02-.62-.04-.94-.05-.67-.1-1.42.15-1.68.18-.19.67-.29,1.34-.26,5.91.22,11.92.12,17.72.03,9.28-.15,18.88-.3,28.26.82,15.25,1.83,19.47,10.26,21.11,22.36.72,5.34,1.05,10.81,1.36,16.11.16,2.71.33,5.51.54,8.26l.04.45c.38,4.79.77,9.74,2.74,14.36.77,1.79,1.92,4.49,5.44,4.49.04,0,.08,0,.12,0,6.25-.11,13.08-.11,21.52-.02,1.76.03,2.88-.47,3.39-1.46.52-1,.26-2.31-.73-3.69-1.31-1.83-2.18-3.7-2.76-5.9ZM360.97,297.03c-.02-2.15-.03-4.3-.03-6.44,0-2.18,0-4.35.01-6.53.02-5.64.04-11.47-.06-17.21-.02-.95.1-1.54.37-1.81.27-.27.9-.39,1.88-.39,5.15.04,10.38.01,15.44-.01,9.05-.04,18.4-.09,27.58.23,8.24.29,15.52.97,21.32,6.43,3.52,3.32,5.61,7.8,6.21,13.33,1.12,10.34-.65,18.29-5.27,23.64-4.41,5.1-11.5,7.87-21.07,8.23-7.89.3-15.93.23-23.71.18-3.21-.02-6.48-.05-9.76-.05-3.04,0-6.1.02-9.13.08-1.73.03-2.77-.19-3.28-.71-.51-.52-.7-1.54-.63-3.4.2-5.19.16-10.46.12-15.56Z"/>
        <path class="cls-1" d="M703.11,299.8c-.91-4.47-1.69-8.33.14-12.43.56-1.26-.73-3.11-1.41-3.76-1.97-1.9-2.66-4.37-3.39-7-.62-2.23-1.27-4.54-2.76-6.52l-.65-.86-1.02.9c-.4.35-.81.71-1.08.91-.15-.23-.34-.59-.54-.94-.2-.37-.44-.8-.73-1.3l-.41-.71c-1.43-2.5-3.04-5.32-6.16-6.75-.16-.07-.33-.17-.52-.27-.78-.43-2.24-1.24-3.09-.01-1.42,2.06-3.03,1.86-5.54,1.36-.97-.19-1.97-.39-2.96-.36-2.86.09-6.13-.04-8.85-2.75l-1.11-1.11-.54,1.47c-3.91,10.68-8.01,21.47-11.98,31.89-9.99,26.27-20.31,53.42-28.41,81.03-.21-.5-.35-1-.5-1.51-7.51-26.18-17.48-51.94-27.13-76.85-2.64-6.82-5.37-13.87-8-20.82-.45-1.17-.91-2.39-2.02-2.74-1.06-.34-2.18.28-3.24,1-4.41,2.98-7.11,2.84-11.14-.55-1.41-1.19-3.59-2.52-6.14-.28-.78.69-1.56.98-2.32.87-.86-.12-1.74-.79-2.36-1.79-.23-.36-.45-.72-.66-1.08-2.2-3.62-4.48-7.35-11.24-5.21-.74.24-1.39.42-1.96.59-3.9,1.12-4.59,1.73-4.6,6.8v74.69c0,4.77,0,9.55.01,14.32.02,13.45.04,27.35-.1,41.02-.02,2.14.35,3.42,1.23,4.27,1.09,1.05,2.77,1.12,4.26,1.04,5.31-.27,10.7-.16,15.75-.03,1.24.04,2.52-.05,3.38-.9.69-.67.99-1.65.98-3.18-.07-21.08-.1-42.51-.12-63.24-.02-14.95-.04-29.89-.07-44.84,0-1.59-.17-3.14-.34-4.77-.16-1.45-.31-2.92-.36-4.46.19.62.37,1.22.55,1.83,1.37,4.55,2.67,8.85,4.25,13.01,9.15,24.12,18.54,48.62,27.63,72.3l8.36,21.79c.42,1.09.77,2.33,1.1,3.53.85,3.02,1.73,6.15,3.9,7.89,1.43,1.15,3.21,1.47,5.09,1.47,1.2,0,2.44-.13,3.67-.26,1.43-.15,2.91-.3,4.21-.23.6.03,1.19.01,1.76,0,.75-.02,1.45-.05,2.12.04,3.52.46,4.81-1.75,5.52-3.71,1.36-3.74,2.84-7.51,4.26-11.16,1.27-3.24,2.58-6.59,3.81-9.91,4.33-11.74,8.97-23.59,13.45-35.06,7.07-18.09,14.38-36.79,20.71-55.52.4-1.18.72-2.37,1.02-3.53.08-.32.17-.64.25-.95v4.24c0,16.18,0,32.64.04,49.1,0,.19-.03.39-.07.6-.13.87-.4,2.69,1.68,3.33.96.29,2.37.27,3.21-.34.48-.34.74-.84.75-1.4.04-2.07,1.07-2.45,3.04-3.01.85-.24,1.73-.48,2.49-.97.23-.15.48-.28.7-.4.76-.41,1.63-.88,1.69-1.85.06-1-.83-1.77-1.79-2.45-.37-.26-.58-.65-.54-.84.03-.16.34-.48,1.32-.72,2.4-.57,4.46-2.78,5.51-5.91,1.19-3.53.81-7.22-.97-9.39-.15-.18-.32-.35-.49-.54-.81-.83-.83-.94-.35-1.5,1.37-1.58,2.37-1.44,3.09-1.13.91.38,1.87,1.07,2.79,1.99.07.07.16.24.25.39.28.49,1,1.8,2.64,1.14,1.51-.61,1.45-2.12,1.42-2.93v-.32c-.02-1.29.02-2.63.07-3.93.1-3.1.21-6.31-.42-9.38l-.09-.44Z"/>
        <path class="cls-1" d="M994.83,404.43c-.04-.31-.07-.56-.17-.82l-13.69-37.23c-14.95-40.67-29.91-81.35-44.84-122.03-.92-2.51-2.38-3.5-5.04-3.42-7.95.23-14.02.22-19.69-.02-3.67-.15-5.52,1.13-6.83,4.75-10.99,30.29-22.25,61.06-33.15,90.82-3.74,10.21-7.48,20.43-11.21,30.64-3.19,8.74-6.37,17.48-9.64,26.48l-4.96,13.64,1.97-.67c1.34-.45,2.75-.37,4.1-.29,2.32.14,4.96.3,7.01-2.44.03-.04.06-.07.08-.09,0,.02,0,.04.01.06.36,2.62,2.38,2.48,3.35,2.42.21-.01.42-.03.61-.02.96.04,1.92.02,2.84,0,1.28-.02,2.49-.05,3.69.06,3.57.31,5.33-.89,6.5-4.45,2.46-7.51,5.17-15.09,7.78-22.43,1.97-5.52,4-11.23,5.92-16.87.79-2.31,1.61-2.91,3.9-2.89,19.31.13,36.71.13,53.17-.01,2.79-.03,3.83.7,4.65,3.24,2.57,7.92,5.28,15.94,7.91,23.69,1.78,5.26,3.57,10.52,5.32,15.79.97,2.9,2.58,4.05,5.51,3.97,5.64-.16,11.19-.13,17.06-.1,2.29.01,4.59.02,6.91.02h1.18l-.19-1.16c-.04-.27-.07-.47-.09-.64ZM939.36,336.96c-5.79-.11-11.76-.17-18.33-.17-6.03,0-12.57.05-19.92.14-1.85.04-2.18-.26-2.24-.35-.08-.11-.2-.55.41-2.28,1.62-4.6,3.28-9.19,4.93-13.78,5.89-16.34,11.98-33.24,16.33-50.41,4.33,16.65,10.04,32.91,15.57,48.65,1.74,4.96,3.54,10.08,5.27,15.13.19.55.76,2.23.46,2.65-.08.11-.51.46-2.48.42Z"/>
        <path class="cls-1" d="M1114.2,244.94c.03-.97-.05-2.19-.87-3.03-.82-.85-2.06-.97-3.16-.96-42.64.06-84.64.05-124.83,0h-.02c-1.1,0-2.47.12-3.37,1.04-.89.91-.97,2.27-.94,3.21.15,6.12.15,11.13-.01,15.76-.06,1.67.26,2.8,1.01,3.56.98,1.01,2.48,1.13,3.86,1.12,6.19-.05,12.48-.04,18.57-.04,8.18,0,16.63.02,24.95-.11,1.85-.03,2.84.18,3.36.69.52.51.75,1.54.74,3.32-.12,32.82-.11,66.19-.1,98.46v27.69c0,5.42,0,8.15,1.61,9.62.92.85,2.22,1.13,4.18,1.13,1.47,0,3.31-.16,5.65-.36l1.21-.1-.33-1.17c-1.93-6.77-2.04-7.18,4.21-12.59,4.36-3.77,3.57-6.83,2.15-8.73-1.73-2.31-.94-4.1.05-6.36.22-.49.43-.98.62-1.48.39-1.03,1.02-2.06,1.41-2.44.55.49,1.2.94,1.84,1.38,1.64,1.12,2.7,1.92,2.45,2.79-.66,2.33-.12,4.18.4,5.98.2.69.38,1.34.51,2.01l1.98-.18v-24.97c.01-29.85.02-60.71-.08-91.07,0-1.65.19-2.58.64-3.02.44-.44,1.36-.64,2.92-.61,8.26.12,16.66.11,24.78.1,6.43,0,13.08-.01,19.62.04,1.41.01,3.01-.12,4.02-1.16.78-.81,1.09-1.98,1.01-3.8-.25-5.58-.15-11.09-.02-15.75Z"/>
        <path class="cls-1" d="M305.23,354.58c0-5.36.01-10.72.01-16.08,0-3.09-.31-5.41-1.83-6.7-1.52-1.29-3.91-1.23-7.11-.72-1.06-2.66-2.81-4.81-4.51-6.89-1.32-1.62-2.57-3.15-3.53-4.92-.22-.41-.58-1.08-.76-1.54.28.05.72.17,1.38.43.96.37,1.9.23,2.5-.37.62-.62.78-1.57.42-2.56-.06-.16-.09-.27-.11-.36.11,0,.27-.01.51,0,.28,0,.46.03.57.06-.03.07-.07.18-.15.32-.48.87-.56,1.66-.27,2.34.43.98,1.5,1.34,2.28,1.53,1.27.31,2.32-.02,3.23-1.02,1.86-2.04,1.91-4.69,1.96-7.04.06-2.85.11-5.31,2.9-6.79l.58-.38-.05-.65c-.04-.58-.32-1.01-.75-1.17-1.03-.38-1.25-1.15-1.58-2.6-.34-1.49-.76-3.35-2.84-4.45-.58-.31-1.09-.97-1.63-1.67-1.05-1.36-2.46-3.19-5.2-2.96-.87-2.96-3.53-2.73-4.97-2.61-.32.03-.63.05-.9.05-3.32-.05-6.43,2.32-7.07,5.38-.76,3.7-.75,7.93.03,12.56.16.99,1.45,1.09,1.71,1.1,1.52.07,2.1.45,2.19.65.09.18-.03.68-.62,1.47-.59.77-.82,1.49-.72,2.19.14,1.02.94,1.61,1.57,2.09.24.18.64.48.69.6-.06.03-.12.05-.18.08-.2.09-.41.18-.58.29-1.03.67-1.95.89-2.67.63-.81-.28-1.24-1.14-1.46-1.8-1.52-4.61-4.88-4.98-7.99-4.97-8.62.04-17.39.03-25.87.03-12.99,0-26.41-.02-39.62.14-1.96.02-3.13-.22-3.71-.8-.58-.58-.82-1.72-.79-3.79.19-14.98.16-30.21.12-44.94-.01-4.22-.02-8.43-.03-12.65,0-.27.02-.54.03-.82.06-1.14.13-2.44-.77-3.37-.65-.67-1.64-.97-3.03-.93-5.92.16-12.19.16-19.73,0-1.37-.03-2.33.28-2.98.93-.87.87-.96,2.15-.94,3.29.05,2.52.04,5.09.03,7.57,0,1.13-.01,2.26-.01,3.4v10c0,14.87,0,30.26.06,45.38,0,.15-.06.42-.12.68-.17.75-.4,1.78.21,2.64.4.57,1.08.91,2.01,1.03,8.27,1.01,13.83,3.9,18.05,9.36l1.58,2.05.21-2.58c.1-1.27.89-2.2,1.72-3.18,1.02-1.2,2.26-2.66,1.81-4.78.31-.02.61-.05.88-.11.86-.22,1.86.21,2.83.61,1.21.51,2.46,1.03,3.61.36,2.14-1.24,3.13-.43,4.88,1.3.15.14.28.29.42.43.76.8,1.62,1.7,3.35,1.71,3.19.02,4,3.29,4.18,4.3.19,1.12-.54,1.58-3.38,2.12l-1.42.28.18.97c.61,3.23,3.08,3.01,4.41,2.89.28-.02.58-.06.82-.05l8.22.02c15.32.04,31.16.09,46.74-.09,1.77-.02,2.72.17,3.2.64.47.47.67,1.44.66,3.14-.12,12.12-.12,24.44-.11,36.35,0,9.7,0,19.72-.06,29.58-.01,1.59.12,3.19,1.18,4.2.82.79,2.05,1.09,3.96.99,5.58-.3,11.16-.3,16.59,0,.3.02.61.03.91.03,1.3,0,2.63-.2,3.54-1.07.91-.87,1.29-2.2,1.27-4.44-.15-15.44-.13-31.13-.11-46.32ZM291.31,290.53s0,0,0,.01c0,0,0,0,0-.02,0,0,0,0,0,0Z"/>
        <path class="cls-1" d="M124.3,248.69c-12.04-8.28-25.61-10.28-38.47-11.22-2.75-.19-3.84,1.32-4.33,2.7-2.35-1.48-4.64-2.09-7.26-1.95-10.57.57-20.56,3.58-29.71,8.95-9.7,5.69-16.49,15.01-19.13,26.24-2.71,11.53-.71,23.93,5.35,33.19,5.49,8.38,13.68,14.09,26.57,18.51,7.44,2.55,15.23,4.28,22.75,5.95,10.07,2.23,20.48,4.55,30.09,8.85.25.11.67.3,1.12.3.25,0,.51-.06.75-.23.6-.42.55-1.12.53-1.46,0-.06-.01-.12-.01-.19,1.31-2.25,3.47-4.03,5.52-4.55.69-.17,1.69-.28,2.49.22.5.31,1,.69,1.49,1.06,2.07,1.56,4.88,3.69,8.18-.02.26.04.69.16,1.11.33,3.95,1.62,5.12-1.19,5.82-2.88.32-.77.65-1.57,1.11-1.91.92-.68,1.12-1.48,1.14-2.04.03-1.18-.77-2.46-2.38-3.79-3.43-2.85-7.05-5.23-10.76-7.07-10.11-5.02-21.12-7.43-31.76-9.76-2.87-.63-5.84-1.28-8.74-1.97-1.22-.29-2.45-.57-3.68-.86-7.59-1.74-15.43-3.54-22.31-7.65-6.85-4.09-9.81-9.87-9.06-17.69.67-7.02,4.03-11.91,10.25-14.94,10.38-5.06,21.85-6.06,35.05-3.04,13.25,3.03,21.09,11.29,23.28,24.57.46,2.77,1.94,3.96,4.82,3.88,3.71-.1,7.49-.08,11.15-.06,1.52,0,3.04.02,4.56.02,3.25,0,4.81,0,5.71-1.07.9-1.07.6-2.7.12-5.4-2.81-15.62-9.8-27.08-21.39-35.04Z"/>
        <path class="cls-1" d="M1265.25,240.99c-2.49,0-4.91,0-7.28.02-6.11.02-11.88.05-17.65-.1-2.82-.08-3.89,1.64-4.81,3.17-1.35,2.24-2.7,4.47-4.05,6.7-3.12,5.14-6.35,10.46-9.44,15.75-.18.3-.41.62-.66.95-.96,1.3-2.4,3.24-.59,5.86-.18.06-.45.13-.82.12-1.4-.02-2.45.36-3,1.16-.59.85-.59,2.02.02,3.57.72,1.84.36,3.95-.91,5.25-2.86,2.94-3.36,5.76-1.63,9.16.56,1.09.18,1.54-1.14,2.64-.45.38-.91.76-1.29,1.23-.5.62-.71.76-.8.77,0,0-.08-.02-.25-.18-1.12-1.12-1.64-2.42-1.6-3.92.02-.06.12-.2.19-.3.3-.42,1.01-1.42.09-2.58l-.83-1.04-.77,1.09c-6.78,9.59-8.87,16.47-11.3,25.87-.49,1.9-.39,3.45-.3,4.96.06,1.02.12,1.99,0,3.02l-.17,1.35,1.33-.24c1.31-.23,1.78-1.34,2.1-2.08.06-.14.14-.33.21-.46.04.02.09.04.15.08.31.18.38.39-.17,1.74-.13.32-.25.63-.33.9-.55,1.96-1.7,3.32-3.31,3.95-2.16.84-5.04.3-7.91-1.48-.3-.19-.59-.39-.88-.58-1.66-1.13-3.73-2.55-6.63-.22-.33.26-1.23.54-2.01.36-.47-.11-.79-.37-.99-.8-.19-.41-.58-1.25,1.78-2.4.61-.3,1.22-.58,1.84-.87,3.45-1.6,7.02-3.25,9.51-7.02.15-.23.33-.42.52-.61.57-.59,1.43-1.47.48-3.29l-.23-.45c-.49-.97-.99-1.98-2.09-2.28-.8-.21-1.68.01-2.76.72l-.13.09c-.3.2-.76.51-1.08.44-.25-.05-.49-.35-.64-.58-.96-1.48-.98-1.85-.94-1.94.07-.17.59-.55,3.29-1.2l.82-.2-.05-.84c0-.06,0-.12,0-.18,0-.28.01-.66-.19-1.05-7.41-14.3-15.88-28.27-24.07-41.78-3.97-6.54-8.07-13.31-12-20.02-.06-.1-.12-.21-.18-.32-.39-.73-1.05-1.95-2.83-1.95h-.03c-6.6.05-13.1.05-19.97.04h-8.46s.66,1.42.66,1.42c.21.45.37.83.51,1.15.26.59.46,1.06.74,1.51l6.02,9.72c16.04,25.88,32.63,52.63,49.01,78.92,1.53,2.46,2.21,4.82,2.19,7.64-.06,9.76-.06,19.69-.06,29.29,0,9.99,0,20.33-.07,30.49,0,1.61.07,3.26,1.16,4.29.71.67,1.71.99,3.19.99.22,0,.45,0,.69-.02,5.18-.29,10.72-.3,17.46-.02,1.33.06,2.83-.02,3.83-.98,1.01-.97,1.13-2.52,1.12-3.9-.1-10.97-.09-22.12-.09-32.9,0-6.32,0-12.64-.01-18.96,0-.43.02-.85.04-1.28.08-2.04.18-4.34-1.72-6.43-.23-.25-.37-.72-.35-1.17.01-.31.12-.9.64-1.37,2.46-2.23,4.04-5.03,5.58-7.73.94-1.66,1.91-3.38,3.06-4.9,1.69-2.22,1.39-3.88-1.01-5.71-4.52-3.44-4.35-4.45-1.35-8.56.33-.45.47-.96.6-1.41.03-.11.06-.22.1-.33,1.01-3.13,1.49-6.21,1.46-9.42,0-.62.14-.88.16-.91,0,0,.14-.04.5.1.13.08.4.47.56.7.44.64.99,1.42,1.91,1.37.59-.04,1.07-.42,1.45-1.14.13-.25.3-.54.48-.84.94-1.58,2.53-4.23.59-6.1-.67-.65-1.04-1.21-1.04-1.6,0-.44.53-.95,1.08-1.48.36-.35.73-.71,1.06-1.13.92-1.19,1.72-.97,3.31-.39.72.26,1.47.53,2.26.56.41.02.82.09,1.25.17,1.44.26,3.22.59,4.72-1.67,1.58-2.37.41-3.94-.45-5.08-.29-.38-.56-.75-.75-1.13-.43-.88-1.24-1.65-2.01-2.39-.96-.92-1.96-1.87-1.88-2.7.06-.66.78-1.47,2.09-2.33.2-.14.82-.55.5-2.26-.35-1.86.55-2.94,2.05-4.54.77-.82,1.56-1.67,2.09-2.73.1-.2.22-.25.32-.27.27-.06.76.05,1.24.42.53.42,1.06.85,1.58,1.28.92.76,1.87,1.54,2.87,2.24.38.26.57.44.66.55-.27.24-.94.61-1.45.88-.46.25-.95.52-1.46.83l.66,1.84c3.02-.42,3.88.76,5.06,2.41l1.19,1.62,22.62-36.61h-1.79Z"/>
        <path class="cls-1" d="M826.64,277.7c.23-.15.58-.28.95-.41,1.01-.37,2.7-.98,2.66-3.01-.05-2.49-2.2-2.51-3.12-2.52-.28,0-.55,0-.76-.04-.49-.08-.85-.31-1.22-.77.2.04.42.13.68.25,1.72.79,3,.54,3.77.2,1.12-.5,1.95-1.53,2.4-2.99.47-1.51.09-2.53-.31-3.11-.64-.94-1.8-1.49-3.35-1.61-.2-.02-.59-.27-.88-.46l-.56-.36c-1.02-.64-1.63-1.08-1.58-1.72.03-.4.08-.51,1.23-.75.35-.07.71-.15,1.07-.28,1.68-.59,3.35-1.59,4.72-2.83,1.52-1.37,2.26-3.07,2.1-4.78-.17-1.75-1.26-3.32-3.06-4.41-7.64-4.6-15.57-6.98-23.57-7.07-12.95-.14-26.12-.12-38.86-.1-10.59.02-21.53.03-32.3-.04-2.01.02-3.32.36-4.16,1.2-1.05,1.06-1.18,2.69-1.16,4.3.11,8.9.09,17.96.07,26.72,0,3.38-.01,6.76-.01,10.14,0,7.62,2.83,11.15,10.45,13,1.12.27,1.29.53,1.31.62.24,1.15.26,2.33.29,3.58.04,1.6.08,3.26.57,4.96.11.37-1.26,1.38-1.84,1.81-.4.29-.79.58-1.11.86-.8.69-2.15,1.84-1.99,3.28.09.83.64,1.53,1.64,2.07,2.35,1.28,2.37,2.31,1.2,4.94-.63,1.41-1.48,3.34-.58,4.96.67,1.22,2.13,1.94,4.57,2.28,3.94.55,9.7,1.72,14.12,5.5,1.65,1.41,6.02,5.15,10.5.5.73-.76,1.06-.8,1.14-.79.09,0,.22.17.26.22.19.25.13.49-.57,1.41-.1.14-.21.27-.3.4l-.25.34c-.61.83-1.38,1.86-.99,2.92.23.63.8,1.05,1.68,1.26,1.39.32,2.78.79,4.13,1.24,2.68.9,5.45,1.82,8.55,1.82.45,0,.91-.02,1.38-.06,4.25-.38,8.64-.3,12.88-.21,2.22.04,4.52.09,6.79.07.31,0,.58.02.88.04,1.29.09,3.06.21,4.58-1.46l1-1.1-1.39-.51c-3.84-1.42-5.55-4.51-7.37-7.78-.95-1.7-1.92-3.45-3.21-4.96.25-.18.55-.34.86-.5,1.12-.6,3-1.6,2.02-4.41-1.01-2.91-3.32-2.44-4.55-2.2-.38.08-.75.14-.99.14-11.79-.14-23.83-.11-35.16-.05-1.08,0-2.02,0-2.39-.36-.26-.27-.4-.87-.39-1.75.16-17.1.1-33.79.02-47.86,0-.98.13-1.6.41-1.88.28-.28.89-.4,1.83-.39,4.98.07,10.05.07,14.94.08,9.35.01,19.01.03,28.49.45,7.73.35,14.01,3.72,18.15,9.77.05.08.14.37.19.56.21.72.5,1.71,1.44,2.04.61.22,1.29.08,2.04-.42Z"/>
        <path class="cls-1" d="M512.32,342.75c0-6.27,0-12.53,0-18.8s0-12.35,0-18.53c-.01-19.29-.02-39.23.09-58.84.01-2.08-.2-3.68-1.27-4.68-.88-.83-2.18-1.14-4.22-1-5.04.34-10.42.34-16.45.01-2-.11-3.27.2-4.12,1.01-1.1,1.04-1.24,2.7-1.24,4.34.1,26.02.09,52.47.08,78.05v22.18s-.01,1.34-.01,1.34c0,1.15-.02,2.35.03,3.53,0,.12,0,.26-.02.39-.04.6-.16,2.41,1.94,2.61.89.09,2.11.21,3.16-.79.36-.34.52-.82.67-1.29.04.05.08.1.12.15.44.56.34,1.07.25,1.32-.13.35-.42.63-.72.69-5.25,1-5.19,5.52-5.15,8.21,0,.45.01.87,0,1.24-.42,8.85-.38,17.86-.34,26.57.02,3.98.04,8.1.01,12.15,0,.92.09,2.07.89,2.86.8.79,1.96.88,2.91.85l1.71-.03c5.29-.1,10.76-.2,16.1.08.28.01.57.02.85.02,1.3,0,2.62-.2,3.54-1.07.9-.86,1.28-2.2,1.27-4.46-.13-19.37-.12-39.07-.1-58.12Z"/>
        <path class="cls-1" d="M129.88,389.38c-.74.46-1.59.3-2.92-.15-3.21-1.08-4.07-3.6-5.06-6.5-.65-1.91-1.33-3.88-2.76-5.46l-.74-.81-.74.81c-3.48,3.82-8.17,6.31-15.19,8.08-7.24,1.83-15.04,2.09-23.84.79-16.14-2.38-26.03-9.42-31.13-22.17-1.12-2.8-1.71-5.81-2.29-8.73-.19-.95-.38-1.91-.6-2.92-.31-1.44-.66-3.07-3.2-3.07-.02,0-.04,0-.07,0-5.6.06-11.3.05-16.81.04h-3.79s-.01,0-.02,0c-.74,0-1.8.09-2.5.85-.49.53-.7,1.28-.62,2.23,1.4,16.14,6.5,28.29,15.58,37.17,13.96,13.64,31.25,20.23,53.59,20.23,5.6,0,11.52-.41,17.78-1.24,7.1-.93,13.78-3.7,19.48-6.22,4.88-2.16,8.7-5.34,12.75-8.7,1.35-1.12,2.75-2.28,4.22-3.44l1.75-1.37-2.19-.4c-4.45-.8-7.62-.9-10.68.99ZM110.06,390.27c-.08.24-.09.3-1,.18-.48-.06-1.05-.14-1.56.08h-.93c-.46,0-.85,0-1.23,0,.89-.25,1.54-.94,2.06-1.48.96-1.01,1.15-1.08,1.8-.62.5.35.95,1.51.86,1.84Z"/>
        <path class="cls-1" d="M200.2,376.93c0-2.95,0-5.9,0-8.85v-5.09c0-6.78,0-13.56,0-20.34,0-3.36-.01-6.73-.04-10.09-.02-1.92-1.11-3.26-3.25-3.99-1.82-.62-2.61.76-2.94,1.34-.08.14-.2.35-.24.39-.98.58-1.78,1.5-2.54,2.4-1.78,2.07-2.95,3.44-5.79,1.2-1.27-1-2.4.28-2.88.83-.14.16-.28.33-.42.44-.78.64-.95,1.3-.96,1.74,0,.41.12,1.02.78,1.6.63.55,1.06,1.31,1.52,2.12.42.73.85,1.49,1.47,2.19.31.35.69.7,1.08,1.06.97.89,2.06,1.9,2,2.83-.05.78-.93,1.57-1.66,2.09-1.02.73-1.17,2.17-.36,3.36.58.85.4,1.63.03,2.95-.29,1.04-.63,2.22-.29,3.52.02.07.01.1.02.1-.1.22-.97.52-1.35.66-.31.11-.61.21-.86.33-.25.11-.49.11-.53.09,0-.01-.03-.07-.04-.17-.03-.36-.12-.67-.21-.96-.21-.7-.23-.76.52-1.15.98-.51,1.78-1.64,2.05-2.88.29-1.34-.04-2.72-.94-3.87-2.02-2.59-4.48-1.53-5.95-.89-.38.16-.74.32-1.03.4-.71.2-1.22.58-1.53,1.13-.57,1.02-.22,2.23.11,3.4.1.34.2.68.26,1.01.36,1.72.25,3.5.14,5.38-.17,2.7-.34,5.49.87,8.38.19.45.07,1.81-.03,2.9-.12,1.31-.24,2.66-.06,3.79.19,1.27-.07,2.35-.35,3.5-.18.76-.38,1.55-.42,2.39-.06,1.13-.75,1.87-1.54,2.73-.97,1.05-2.17,2.35-1.97,4.49.4,4.31.2,8.89.04,12.57-.07,1.56.23,2.63.95,3.36.95.97,2.4,1.06,3.7,1.03,6.96-.17,12.76-.16,18.25.01.12,0,.24,0,.36,0,1.43,0,2.37-.3,3.04-.95.93-.91,1.04-2.32,1.03-3.58-.09-8.3-.08-16.73-.06-24.9Z"/>
        <path class="cls-1" d="M750.8,330.77c-3.13-.36-5.84.54-7.62,2.53-2.12,2.37-3.27,2.28-5.63.81-2.05-1.27-3.44-1.02-4.24-.57-.85.47-1.87,1.59-1.89,4.29-.05,6.88-.09,15.95.01,25.03.02,2.22.59,3.62,1.73,4.27,1.16.66,2.71.42,4.74-.74,1.63-.94,3.28-1.86,4.92-2.78,2.01-1.13,4.03-2.25,6.02-3.41.88-.51,1.28-.45,1.76-.13.12.08.16.13.17.13,0,.09-.1.36-.16.52-.13.34-.27.72-.29,1.17-.03.76-.34,1.45-.7,2.24-.43.94-.91,2-.96,3.36-.07,2.02.65,3.93,1.34,5.77,1.14,3.03,2.13,5.65-.24,8.49-.56.68-.11,1.69.18,2.05.79.98,1.16,1.83,1.09,2.52-.12,1.1-1.34,2.09-2.63,3.13-.23.18-.45.37-.68.55-2.89,2.4-4.13,5.4-3.39,8.22.6,2.31.04,3.93-2.24,6.4l-1.54,1.68h2.28c1.31,0,2.53-.01,3.68-.03,2.42-.03,4.51-.05,6.59.06.27.01.55.02.83.02,1.29,0,2.72-.21,3.72-1.17.97-.93,1.41-2.39,1.38-4.61-.12-11.28-.12-22.75-.11-33.84,0-7.88,0-15.75-.03-23.63,0-.87.04-2.07.52-2.45.36-.29,1.15-.32,2.3-.08l2.14.45-1.06-1.91c-2.5-4.52-7.21-7.79-11.99-8.33Z"/>
        <path class="cls-1" d="M305.29,280.63c-.05-.26-.1-.52-.1-.68.09-4.22.08-8.52.07-12.67,0-1.47,0-2.95,0-4.42,0-1.69,0-3.39-.01-5.08-.02-4.21-.04-8.56.06-12.84.02-1.01-.06-2.27-.9-3.11-.84-.84-2.09-.91-3.07-.9-7.02.15-13.27.15-19.13,0-1.47-.04-2.46.25-3.13.92-.88.87-.97,2.18-.94,3.46.09,4.03.07,8.14.05,12.11,0,1.64-.01,3.29-.01,4.93,0,1.93.02,3.86.04,5.79.05,4.55.1,9.25-.14,13.84-.19,3.67,2.52,3.95,3.83,4.08.33.03.64.07.85.13.67.19,1.64.38,2.34-.23.75-.64.62-1.64.51-2.51-.04-.29-.08-.6-.08-.89,0-1.42,1.62-2.34,2.59-2.76.26-.11.41-.14.49-.15.06.12.14.36.19.51.16.48.35,1.07.86,1.48.18.14.37.36.58.6.47.54,1.01,1.15,1.82,1.29,3.05.52,4.03,1.64,3.74,4.28-.09.82.17,1.59.73,2.16.66.67,1.65,1,2.73.9.42-.04.9.02,1.42.07.42.05.88.1,1.35.1.99,0,2.01-.23,2.8-1.24,1.5-1.92-.32-3.54-1.35-4.44-.13-.19-.3-.76-.37-1.19.85-.1,1.46-.38,1.87-.87.69-.84.49-1.9.34-2.68Z"/>
        <path class="cls-1" d="M851.71,275.27l-.39-1-.97.45c-2.56,1.2-3.57,3.64-4.46,5.79-1.06,2.55-1.97,4.76-5.07,5.24-1.02.16-1.33,1.56-1.42,2.38-.03.27-.05.54-.08.82-.06.67-.16,1.75-.35,2.12-.2-.07-.72-.33-1.76-1.36-.52-.52-1.02-.61-1.36-.6-.44.02-.85.22-1.16.57-.72.83-1.38,1.23-2.03,1.24-1.2,0-2.52-1.29-3.68-2.57l-1.71-1.88-.03,2.54c-.05,4.87-.81,9.31-2.46,14.41-.68,2.1.21,5.43,1.76,6.6.72.54,1.56.58,2.25.11,1.04-.7,1.41-.62,1.44-.61.2.06.44.66.6,1.06.24.6.6,1.49,1.34,1.87.24.89,1.01,1.48,1.57,1.91,1.02.78,1.26.97.54,2.02-.68.98-.76,2.09-.22,3.05.61,1.09,1.92,1.73,3.34,1.66,1.27-.08,2.13.1,2.41.5.19.27.38,1.03-.5,3.15l1.56,1.15c11.61-9.64,16.98-34.71,10.83-50.63Z"/>
        <path class="cls-1" d="M703.41,397.66c-.22-4.53-.42-8.81-.22-13.02.38-7.94.32-15.99.27-23.77-.04-5.8-.09-11.8.05-17.7,0-.12.01-.23.02-.35.06-.8.15-2.14-1.48-3.08-3.2-1.84-5.64-2.25-7.44-1.24-1.71.95-2.64,3.13-2.76,6.48-.02.56.09,1.09.18,1.56.07.34.13.67.14.96.02.46,0,.62.01.62,0,0-.14.09-.66.1-4.85.07-6.8,4.53-7.75,6.68-.35.8-.25,1.84.3,3.07.82,1.85,2.69,4.13,4.56,5.29-.36.18-.86.33-1.49.5-1.27.34-2.71.73-3.36,2.05-.49.99-.39,2.28.29,3.94l.52,1.26,1.04-.88c1.87-1.57,3.52-1.45,6.31.45l.11.08c1.68,1.15,3.77,2.59,6.48,2.29.34-.04.67-.17.99-.29.13-.05.32-.13.48-.17.01.11.02.27.01.5-.01.33,0,.69,0,1.06.05,1.93-.14,2.16-.92,2.23-2.5.23-4.06,1.73-5.44,3.05-.76.73-1.49,1.43-2.33,1.9-3.44,1.93-2.31,4.78-1.48,6.86.36.9.7,1.75.72,2.47.28,7.55,5.81,9.87,11.74,11.24l1.28.3-.06-1.31c-.04-1.05-.09-2.09-.14-3.12Z"/>
        <path class="cls-1" d="M686.16,247.66c.03.9.07,2.03.96,2.77.66.54,1.61.71,2.9.51,1.13-.17,2.07.05,2.65.63.58.58.79,1.51.62,2.7-.42,2.86.46,4.24,3.25,5.1l.63.19c1.81.56,3.05.94,3.98.94.53,0,.96-.12,1.34-.4,1.07-.79,1.07-2.3,1.07-5.59v-3.24c0-4.9,0-7.35-1.43-8.8-1.41-1.43-3.77-1.45-8.43-1.45-.5,0-1.02.01-1.54.03-.88.03-1.71.05-2.51-.04-2.95-.36-3.46,1.8-3.73,2.96-.11.44-.2.85-.37,1.12l-.56.92.96.49c.17.08.19.75.21,1.19Z"/>
        <path class="cls-1" d="M693.08,403.34c-.46-.57-.77-.94-1.13-1.29-1.53-1.46-4.21-6.38-4.2-8.09.01-1.69-.09-3.55-1.37-4.34-1.25-.77-2.88-.11-4.16.54-.31.16-1.26.64-2.56-1.89l-.24-.46-.43-.06c-.18-.05-.54-.14-.93.03-.26.11-.7.43-.7,1.28v2.95c-.02,3.45-.04,7.01,0,10.52,0,.16-.01.34-.02.52-.05.73-.12,1.73.54,2.46.4.44.99.68,1.73.7,1.85.05,3.71.06,5.63.06,1.24,0,2.5,0,3.78-.01,1.39,0,2.84-.01,4.35-.01h2.16l-1.39-1.65c-.44-.52-.77-.93-1.04-1.26Z"/>
        <path class="cls-1" d="M544.99,252.11c2.22.11,2.46.6,2.46.61.03.06.2.6-1.48,2.68l-.79.98,2.99,1.45,2.33-2.9c1.48-1.84,2.96-3.68,4.42-5.53.3-.38.8-.73,1.34-1.09,1.34-.92,3.37-2.31,2.1-5.25-1.3-3-3.88-2.49-5.59-2.16-.59.12-1.16.22-1.59.21-.56-.02-1.16-.09-1.79-.16-2.71-.33-6.42-.77-7.94,4.25-.68,2.25-.58,4.09.29,5.33.48.68,1.43,1.5,3.25,1.59Z"/>
        <path class="cls-1" d="M572.02,267.66c.22,0,.44-.07.64-.24.23-.19.5-.4.78-.62,1.38-1.07,2.68-2.07,2.45-3.3-.31-1.67-.04-2.25.15-2.45.5-.52,2.09-.28,3.49-.06l1.99.3-.55-1.57c-.21-.6-.37-1.19-.53-1.75-.38-1.34-.73-2.61-1.54-3.57-.06-.11-.09-.49-.11-.73-.06-.71-.13-1.69-.95-2.26-.6-.42-1.42-.46-2.5-.14-1.86.55-3.45,1.92-4.06,3.5-.39,1.01-.34,2.01.15,2.81.84,1.38.5,1.98-.11,3.08-.21.37-.42.75-.6,1.19-.05.12-.31.36-.5.53-.61.55-2.02,1.83-.45,3.68.37.44,1.36,1.59,2.25,1.59Z"/>
        <path class="cls-1" d="M678.81,364.72c.47.16.89.23,1.26.23.99,0,1.66-.48,2.07-.95,1.51-1.73.48-3.36-.07-4.23l-.46-.75c-1.41-2.32-2.06-3.61-.22-5.29.5-.46.75-1.03.7-1.6-.05-.54-.36-1.03-.88-1.36-.47-.3-.95-.49-1.42-.68-.18-.07-.36-.14-.53-.22l-.99-.44-.36,1.02c-.05.13-.11.26-.17.4-.18.4-.38.85-.4,1.38-.05,1.12-.04,2.26-.03,3.35,0,.47,0,.94,0,1.41,0,.37-.01.74-.02,1.12-.03.93-.05,1.89.06,2.86.02.16-.02.43-.05.69-.11.8-.33,2.45,1.51,3.08Z"/>
        <path class="cls-1" d="M809.48,318.26c-2.01-.94-3.58.28-4.84,1.26-.5.39-.96.75-1.44.99l.56,1.88c.24-.02.66.31,1.02.61.47.39,1.25,1.03,2.19,1.03.65,0,1.39-.31,2.17-1.22.69-.81,1.73-2.03,1.47-3.25-.09-.4-.35-.96-1.12-1.32Z"/>
      </g>
    </g>
  </g>
</svg>