<?xml version="1.0" encoding="UTF-8"?>
<svg id="Layer_2" data-name="Layer 2" xmlns="http://www.w3.org/2000/svg" viewBox="0 0 1446.15 647.24">
  <defs>
    <style>
      .cls-1 {
        fill: #e41f1b;
      }

      .cls-1, .cls-2 {
        stroke-width: 0px;
      }

      .cls-2 {
        fill: #bfbebf;
      }
    </style>
  </defs>
  <g id="Livello_1" data-name="Livello 1">
    <g>
      <g>
        <path class="cls-2" d="M588.07,301c-1.85-4.22-.38-6.98,3.17-9.13.84-.51,1.3-1.74,1.78-2.71.6-1.2,1.6-2.64-.03-3.65-1.65-1.02-3.51-.47-4.27,1.17-1.01,2.18-2.68,3.25-5.25,3.9,1.64,1.3,4.33,1.66,2.87,4.04-1.67,2.71-.41,4.53,1.73,6.38M455.87,388.72c3.71-8.36,14.56-9.5,20.87-2.18.72.83,1.19,2.02,2.07,2.52,1.23.7,2.36,2.39,4.02,1.51,1.65-.88.68-2.56.44-3.77-.48-2.43,1.61-5.56-.3-6.99-1.48-1.11-4.56.16-6.84-.22-3.69-.6-7.4-.66-11.26-1.13,4.6-1.09,7.08-4.89,10.37-7.6,1.71-1.41.28-2.29-.96-2.51-2.39-.43-4.54-.58-6.58-2.62-1.46-1.46-4,.28-4.03,2.41-.04,2.94-1.97,5.04-2.51,7.75-.6,2.99-3.34,4.12-6.28,4.55-15.62,2.29-30.88,6.19-46.09,10.29-6.94,1.87-13.88,3.66-21.13,4.03-2.88.14-5.69.96-8.32,2.36-15.44,8.21-32.14,12.47-49.2,15.59-1.1.2-2.35.43-3.1-.56-.94-1.24.4-1.48,1.11-2.07.88-.73-.05-1.16-.54-1.56-.75-.61-1.52-1.2-2.3-1.77q-4.02-2.93-4.79,1.81c-.69,4.21-4.19,6.8-8.93,5.8-3.83-.81-6.94-.16-10.2,1.83-4.29,2.62-9.22,2.84-14.09,2.52-6.62-.43-12.31.74-17.39,5.75-4.32,4.26-9.79,7.24-16.43,6.71-1.83-.15-3.66-.24-5.16-1.29-3.51-2.44-7.06-2.32-10.99-1.05-6.71,2.17-13.53,3.97-20.29,5.97-8.93,2.64-17.13,6.76-25.32,11.22-14.77,8.05-30.55,13.54-47.5,14.98-1.92.16-3.92.28-5.8-.06-4.9-.89-9.72-1.79-14.45.77-.77.41-1.93.31-2.86.16-2.4-.41-6.2-.51-6.18-2.9.02-2.29,3.66-1,5.68-1.2,3.54-.36,7.5.3,8.54-4.6.2-.95.49-1.99-.28-2.76-.87-.87-1.83-.11-2.68.21-3.49,1.33-6.97,2.7-10.42,4.11-1.54.63-2.61,1-2.4-1.46.16-1.85-1.64-1.9-2.89-2.39-.9-.36-1.94-.83-1.69-2.02.2-.93,1.22-1.15,2.03-1.09,3.55.3,5.45-1.35,7.63-4.22,1.85-2.44,6.02-3.01,9.28-2.17,3.29.85,6.22.39,9.35-.33,4.84-1.11,9.63-2.47,14.65-2.72,2.16-.11,4.36-.56,6.31-1.85.86-.57,2.31-1.2,3.07-.86,5.22,2.36,10.01.08,14.97-.92,2.27-.46,4.68-.25,7.02-.34,1.23-.05,3.01.21,3.21-1.22.51-3.78,2.7-2.89,5.11-2.37,4.09.88,7.64-.49,10.73-3.16,1.18-1.01,2.24-2.36,3.64-.28.55.81,1.35.99,2.18.49,3.13-1.9,6.58-3.3,9.14-6.33-7.82,1.4-15.62,2.91-23.45,4.17-15.54,2.51-31.15,4.46-46.86,5.56-9.39.66-18.59,2.59-27.8,4.4-4.82.95-9.66.41-14.49.57-1.51.05-3.16-.3-4.45.64-3.22,2.34-4.5-.48-5.13-2.39-.88-2.7,2.14-2.08,3.31-2.3,29.44-5.71,58.71-12.26,88.05-18.46,33.79-7.14,66.43-18.03,99.02-29.17,2.34-.8,4.36-2.12,5.67-4.66-16.38,5.39-32.75,10.78-49.13,16.16,1.1-3.47,4.43-3.26,6.55-5.45-2.75-1.53-5.51-.52-8.09-.84-1.2-.15-2.71.22-3.24-1.24-.49-1.35.91-1.84,1.7-2.53.98-.85,1.42-1.56.15-2.64-2.3-1.96-.32-2.54,1.18-2.79,2.75-.46,4.66,1.4,6.64,2.88,2.09,1.56,4.16,3.06,7.01,2.58.02-2.5-4.31-2.71-2.83-4.54,1.54-1.9,3.43,1.12,5.29,1.66,3.16.9,6.48,1.18,9.43.29,10.04-3.03,19.97-6.42,31.12-8.86-5.83-4.19-11.1-7.57-16.68-10.47-7.19-3.74-10.99-9.87-12.59-17.56-.8-3.85,1.59-6.33,4.86-6.32,15.91.05,27.96-10.44,42.17-14.94,1.58-.5,3.07-1.26,4.59-1.91,5.36-2.28,10.06-1.24,14.24,3.26,1.24,1.33,2.77,1.58,4.66,1.12-.66,2.07-2.67,1.53-3.4,2.96,1.27,1.11,2.58,2.27,3.9,3.41,1.48,1.28,3.04,2.82,5.12,1.79,2.11-1.05,3.4-3.22,3.02-5.45-.58-3.47,1.19-4.83,3.93-5.75,2.08-.69,4.2-1.12,5.76-3,1.62-1.94,4.24-.47,6.29-1.54-4.36,1.21-8.25-3.72-12.94-.69.91-2.92.36-6.83,5.35-6.37.95.09,1.74-.61.99-1.58-2.51-3.29-5.47-6.22-6.9-10.28-.49-1.39-1.94-.41-2.87.08-1.63.85-2.55,2.85-4.97,2.49-1.08-.16-1.04,1.16-.23,1.72,1.25.86,2.8,2.32,3.94,2.09,3.93-.79,3,3.04,4.62,4.35.51.41.11,1.11-.42,1.35-2.89,1.31-7.31,4.4-8.42,3.49-2.94-2.4-7.71-1.77-9.31-5.55-.97-2.28-2.36-3.86-5.5-5.22,5.26-2.29,9.49-4.22,13.78-5.98,5.04-2.08,9.88-4.13,12.27-9.74,1.24-2.91,4.54-3.14,6.84-1.77,3.01,1.8,6.47,1.91,9.51,3.47,2,1.03,4.13,1.36,4.38,4.2.11,1.27,1.52.87,2.43.99,1.85.25,3.01,1.27,3.48,3.08.5,1.9-1.11,2.47-2.21,3.04-2,1.02-2.53,2.3-2.28,4.55.2,1.75-.28,3.51-3.21,2.77-2.01-.51-4.32.13-6.49.3-1.36.11-2.41.82-2.82,2.11-.49,1.53.59,2.28,1.8,2.81,2.27.99,4.65,2.93,6.8,2.72,5.02-.49,5.66,2.84,6.67,6.12,2.16,7.02,3.31,7.87,9.65,3.98,7.22-4.43,14.69-3.89,22.46-3.48-.12,1.56-.98,1.32-1.57,1.45-4.83.99-6.29,2.64-6.26,7.6.01,2.28-.1,3.86-3.01,4.33-11.96,1.93-23.89,4.09-36.8,6.34,3.14-5.06,8.6-7.42,9.12-13.15-1.76,3.4-5.41,3.7-8.13,5.44-9.04,5.79-17.67,12.2-27.45,19.07,3.81,0,5.82-1.53,8.05-2.26,2.16-.71,3.68-.75,2.89,2.27-.21.79-.27,1.63-.35,2.46-.24,2.47.52,2.99,2.77,1.65,1.66-.99,4.81-4.57,3.89,1.57-.16,1.04,1.13.98,1.92,1.02,1.95.09,3.85-.02,5.67-.89,12.78-6.13,26.6-8.22,40.4-10.41,2-.32,3.98.32,4.77,1.82,1.6,2.99,3.71,2.79,6.27,1.95,2.59-.85,4.48.4,6.37,1.99,4.63,3.89,10.45,1.6,11.46-4.44.7-4.21,4.57-6.86,8.7-6,.58.12.94.36,1.29.86,2.22,3.12,2.24,3.11,6.17,5.13,1.34-1.66.21-4.99,3.58-5.3,4.36-.4,5.96,3.25,8.38,5.67.43.43.34,1.04-.14,1.46-1.31,1.17-1.21,2.42-.16,3.64,1.16,1.35,2.95,1.72,4.11.68,3.51-3.14,6.05-.97,8.75,1.11.85.66,1.75,1.26,2.69,1.92,2.18-7.52,1.68-9.35-5.62-8.83-2.34.17-5.28-.22-6.15-3.11-.51-1.7,3.93-3.68,7.14-3.24,1.66.23,3.49.65,4.85-.39,6.31-4.79,13.88-4.53,21.06-4.92,12.15-.66,24.17-2.15,36.81-3.87-3.37-2.26-6.65-3.95-7.98-7.75-.48-1.38-2.24-.28-3.38,0-4.37,1.1-8.2,4.11-13.8,3.18,2.09,2.65,4.93,1.74,6.57,3.32-5.41,2.59-11.35,2.22-14.99-.92-.85-.73-1.73-1.52-1.62-2.75.14-1.52,1.57-1.27,2.55-1.61,2-.7,4.08-.57,6.16-.65,1.9-.07,3.71,1.23,5.68.35.22-1.83-1.15-1.67-2.14-1.74-7.62-.58-15.15,1.19-22.77.86-1.21-.05-2.52.41-2.54,2.12,0,1.02.41,2.59-1.44,2-1.32-.43-1.57-1.7-1.14-3.12,1.1-3.69,3.2-6.6,6.94-7.67,6.05-1.72,11.8-3.81,16.57-8.14,1.61-1.46,3.74-1.77,5.79-.47,2.03,1.28,1.2,2.94.87,4.76-.65,3.56,3.78,7.5,7.5,7.33,17.58-.8,34.23-6.06,51.04-10.57,2.62-.7,5.24-2.31,5.83,2.51.32,2.57,7.91,4.58,10.17,3.07,1.58-1.05.52-2.2-.11-3.18-.22-.34-.97-.43-1.49-.48-2.45-.25-5.84-.1-5.83-3.15,0-2.67,3.58-2.48,5.7-3.13,3.88-1.19,7.91-1.95,11.19-4.84-1.63-1.82-3.09-.84-4.47-.53-9.24,2.08-18.48,4.18-27.71,6.27-.93.21-1.99.74-2.73-.14-.94-1.12.11-2.08.63-2.97,1.26-2.14,2.56-4.28,3.98-6.32.91-1.31,1.65-2.16,2.65.29.79,1.92,2.8,2.93,4.27.23.8-1.46,2.24-1.5,3.45-2.04,1.91-.85,3.81-1.65,5-3.52,2.53-3.97,1.74-5.74-2.82-5.81-1.43-.02-2.76-1.35-4.35-.16-.72.54-1.17-.41-1.2-1.12-.07-1.28.05-2.65,1.34-3.25,1.36-.63,2.85-1.03,4.33-1.36,8.64-1.93,17.15-4.32,25.6-6.95,2.89-.9,5.67-1.63,8.78-.05,1.69.86,4.33.9,3.91-2.61-.09-.76-.12-1.96,1.01-1.89,1.11.07,1.47,1.21,1.39,2.22-.22,2.83.59,5.46,1.68,7.98.68,1.57-.12,2.29-1.15,3.09-1.31,1.02-1.68,2.63-.55,3.59,1.84,1.55,1.59-.95,2.28-1.62,2.37-2.29,5.64-1.92,8.46-2.84.76-.25,1.76.18,2.46-.13,5.19-2.25,9.6-1.95,14.59,1.57,3.32,2.35,6.57-1.42,8.62-4.24,1.6-2.19,2.62-4.96.49-7.65-.94-1.19-2.03-2.29-2.8-3.58-.6-1.01-2.74-2.56.49-3.14.92-.17.75-.99.65-1.68-.28-2.04.64-2.76,2.63-2.56,3.61.36,6.67-1.67,7.81-4.41,1.42-3.42,1.13-7.51-.29-11.22-.13-.34-.57-.8-.86-.8-4.33.03-6.26-4.39-10.06-5.39-1.02-.27-1.83-.31-2.77.03-3.25,1.18-6.49,2.36-9.76,3.47-7.46,2.54-12.3,2.09-16.43-4.94-.82-1.39-1.68-2.78-3.38-3.51-2.68-1.15-3.41-3.41-2.68-6.13.36-1.35,1-2.69-.25-3.85-.71-.66-1.6-.37-2.32.08-1.4.88-3.11,1.74-2.86,3.69.54,4.17-.36,6.76-5.32,5.87-.34-.06-.77.23-1.13.41-1.01.5-1.55,3.1-3.11,1.02-1.22-1.63-4.53-2.52-2.55-5.67.18-.29.06-.76.09-1.15-.34-.08-.7-.28-.81-.18-.52.44-7.44,3.41-8.29,3.66-2.73.81-5.56,1.77-5.06,5.42.38,2.77-.55,4.36-3.06,5.53-1.55.72-3.69,2.08-2.33,4.07,1.16,1.69,3.49.76,4.78-.35,1.94-1.67,2.5-.88,3.06,1.01.82,2.77,1.29,5.42-1.3,7.61-1.11.94-1.07,2.13-.56,3.41.65,1.65,1.27,3.07-.1,4.98-1.13,1.59.88,2.9,2.04,3.86,1.8,1.49,4.02,2.29,7.21,2.83-6.61,5.2-12.9,2.66-20.14,1.98,2.92-2.12,3.45-5.06,7.22-6.37-3.24.08-4.23-1.91-5.86-2.98-.8-.53-1.59-1.32-2.59-.53-.91.72-.73,1.73-.37,2.67.39,1.03.95,2.01,1.27,3.05.83,2.73.09,4.58-2.99,5.12-2.17.38-4.33.86-6.45,1.43-2.08.56-3.92,1.29-3.28,4.2.34,1.55-.87,2.81-2.29,3.01-3.17.44-5.74,2.85-9.1,2.55-.62-.05-1.6.14-1.86.56-2.48,3.96-6.64,5.67-10.54,7.68.73,2.11,3.49-.16,3.63,1.93.13,1.98-1.15,3.57-2.42,5.1-4.46,5.36-11.39,5.97-17.07,9-.88.47-1.69.06-1.79-1.01-.29-3.2-1.58-6.62,2.65-8.6,2.7-1.26,3.02-3.19.2-4.89-4.49-2.71-8.41-7.24-14.63-4.51-1.24.54-1.99-.65-2.76-1.42-2.64-2.65-5.82-3.48-9.48-2.97-2.95.41-10.71-3.73-10.74-6.25-.03-2.69.32-5.04-3.2-6.58,2.1-.7,3.33-.07,4.58.22,4.56,1.04,10.86-1.45,13.67-5.18,1.65-2.18.05-2.62-1.44-3.08-8.09-2.48-18.59,3.11-20.97,11.13-.29.96-.67,2-1.77,2.04-1.6.05-2.88-1.22-2.96-2.45-.21-3.37-3.04-4.77-4.71-6.99-1.34-1.78-3.36-1.45-5.34-.84-2.04.62-1.28,2.07-1.28,3.37,0,1.02.4,2.57-1.21,2.57-1.44,0-1.26-1.4-1.43-2.52-.42-2.76.18-4.83,2.9-6.11,1.06-.5,1.9-1.44,2.94-2.26-1.79-1.56-3.98-.14-6.13-1.52,2.57-.29,4.57-.57,6.59-.71.86-.06,1.77.05,1.84-1.08.06-1.02-.74-1.38-1.61-1.57-.27-.06-.57-.19-.81-.14-5.92,1.37-9.37-1.6-12.08-6.45-1.79-3.21-4.97-3.1-8.29-2.77-5.42.54-7.66-1.6-8.33-6.6-.24-1.81.45-2.27,1.76-2.58,3.4-.79,5.2-3.23,5.88-6.33,1.23-5.59,5.2-9.02,9.29-12.31,2.73-2.2,5.12-4.58,7-7.87-1.89-.23-3.36.56-4.77,1.16-3.01,1.28-5.36-.15-7.77-1.54-.76-.44-1.27-.99-.91-2.01.64-1.83,5.66-4.71,7.22-3.65,3.44,2.35,5.32.36,7.18-2.01,1.24-1.58,2.06-3.17,4.48-1.11,1.51,1.29,3.75-.38,4.05-1.67,1.27-5.49,6.27-5.48,10.01-7.05,1.98-.83,4.14-1.37,6.15-2.3,19.31-8.99,37.45-20.17,56.26-30.08,35.71-18.8,73.55-32.61,111.43-46.25,4.28-1.54,8.75-2.56,13.17-3.7,1.13-.29,2.72-.78,3.38.55.58,1.17-.9,1.84-1.6,2.61-2.85,3.12-6.91,5.02-9.11,8.8.88,1.06,1.7.38,2.3.04,3.16-1.78,5.89-2.91,6.49,2.42.18,1.62,1.79,1.89,3.26,1.95,9.34.39,18.75,1.66,26.93,5.91,4.82,2.51,7.83.87,11.64-.62,3.94-1.54,7.79-2.06,11.03,1.61,1.26,1.43,2.63,1.1,4.07.16,3.12-2.05,6.29-4.03,9.45-6.02.69-.44,1.43-.98,2.24-.24.44.41.53.93.22,1.49-1.95,3.57,1.85,3.36,3,3.58,2.78.51.98-1.74,1.04-2.76.18-3.2,2.49-4.52,4.93-5.53,3.83-1.59,6.04-4.22,6.34-8.82-2.68.95-4.74,1.12-5.06-2.72-.17-2.1-2.67.3-3.99-.83.88-2.22,3.55-1.79,4.88-3.27-4.23-3.35-4.89-3.37-7.73-.25-3.93-7.7-1.49-12.7,7.74-14.46,4.31-.82,8.22-2.2,12.04-4.17,1.09-.56,2.33-.91,3.54-1.12,2.39-.42,4.02.28,3.01,3.07-.76,2.09-.24,3.78.96,5.41,1.05,1.43,1.2,4.01,4.04,3.19,1.8-.52,4.18-.34,4.74-2.67.56-2.32.6-4.75-2.12-6.08-.47-.23-.93-.61-.69-1.34,1.02-.55,1.84.13,2.58.63,5.44,3.69,11.7,5.63,17.62,8.28,1.46.65,4.41.63,3.49,3.08-1.01,2.7-2.96.17-4.49-.15-1.03-.21-1.85-1.32-3.07-.72-.59,1.07.19,1.88.59,2.68.99,1.96,1.7,4.85,3.29,5.51,1.79.74,2.68-2.47,4.23-3.7,2.19-1.75,4.34-2.68,7.23-1.83,6.76,2,13.59,3.78,20.38,5.69,1.44.41,3.11.68,3.51,2.49.31,1.42,1.67,3.05.37,4.27-1.21,1.13-2.56-.36-3.71-.94-6.59-3.33-13.3-6.22-20.89-6.04-1.73.04-3.99-.47-4.43,1.95-.43,2.36-1.16,5.09,1.29,6.91,3.53,2.62,5.82,5.85,5.98,10.38.03.87.33,1.76,1.21,2.01,2.49.71,3.51,2.02,2.76,4.73-.27.96,1.28,2.37-.57,3.11-2.29.92-1.53-1.75-1.68-1.83-14.3,3.76-27.6,8.44-43.1,5.65,3.65,3.46,2.62,4.56-.86,4.41-2.7-.12-4.53.11-3.77,3.85.71,3.47-.66,4.07-4.14,3.28-3.77-.85-6.03,2.01-7.08,4.82-2.02,5.4-6.3,7.45-11.18,8.7-2.48.64-4.37,1.08-2.76,5.11-3.47-2.61-5.38-1.81-7,.98-1.28,2.2-3.6,3.36-5.89,4.41-13.09,5.96-26.2,11.81-37.75,20.68-5.49,4.22-5.85,3.75-6.39,7.19,2.21.16,3.56-1.42,5.01-2.48,6.82-5.02,13.56-10.09,22.26-11.46,1.05-.17,2.15-.71,3-1.37,7.89-6.11,17.8-8.16,26.24-13.14,1.75-1.04,3.35-1.03,5.43-.44,2.58.73,5.5.6,8.24.36,3.88-.34,7.66-.72,11.45.67,1.47.54,3.01.07,4.16-1.21,2.51-2.8,3.45-.94,3.96,1.45.42,2,.04,4.17,1.68,6.67,1.34-4.11,2.51-7.79,3.75-11.44.66-1.93,1.99-3.02,4.13-2.51,1.51.36,2.99.9,2.82,2.94-.1,1.21-1,2.31-.37,3.89,2.88-1.34,4.46.51,6.75,2.1,5.19,3.62,11.54-1.31,14.36-6.53,1.15-2.13,1.48-4.7,2.31-7.51,1.37,2.24,2.76,3.67,5.24,1.36,1.34-1.25,1.64.68,2.1,1.56,4,7.69,4.17,7.86,11.14,10.94-.19.35-.31.77-.58,1.02-5.09,4.49-4.74,9.06.98,12.85,4.14,2.74,8.21,1.28,9.64-3.5.71-2.38,1.37-4.72,2.84-6.84,1.93-2.79,3.27-3.26,5.17.07,2.74,4.8,5.8,9.42,8.73,14.11,1.11,1.78,2.21,3.67,4.82,3.08,2.8-.64,5.76-.93,6.9-4.4,1.08-3.31,1.36-6.47-.34-9.62-.46-.85-1.12-1.69-1.26-2.6-.38-2.56-1.13-5.52,1.62-7.14,2.64-1.55,3.85,1.26,5.42,2.62,2.22,1.92,3.9,4.2,4.88,7.07.65,1.93,1.91,3.67,3.02,5.42.77,1.21,1.54,3.21,3.34,2.26,1.75-.93.57-2.76.13-4.11-.9-2.76-2.04-5.44-2.96-8.19-1.52-4.55-2.92-9.15-4.44-13.71-.28-.85-.72-1.78.35-2.06,3.35-.87,2.06-3.85,2.7-5.87.45-1.41.45-3.59-2.18-1.65-1.08.8-1.96.28-2.26-.76-.39-1.36-.67-2.49-2.36-2.93-1.18-.31-1.29-1.6-.29-2.27,3.77-2.54,2.29-5.34.64-8.24-.52-.92-1.15-1.88-.63-4.52,2.51,3.68,4.7,6.35,6.27,9.35,1.9,3.63,3.94,3.96,7.06,1.52,2.07-1.62,4.37-3.06,7.1-.86,1.42,1.14,2.25.07,2.79-1.21,2.05-4.84,4.24-9.62,6.09-14.54,1.42-3.79-1.45-6.25-3.65-8.55-2.18-2.28-4.9-4.03-7.36-6.05-.63-.51-1.45-1.14-.95-2.06.65-1.21,1.68-.63,2.51-.17,8.65,4.79,15.5,11.49,20.84,19.76.68,1.05,1.14,2.22.33,3.5-.44.69-.78,1.4-.22,2.29.39.62,2.64-.45,1.4,1.37-.63.93-1.72,1.3-3.27.83-3.92-1.2-7.06,1.37-8.2,5.46-.94,3.39-.84,7.49-5.03,9.32-1.37.6-.55,1.65.13,2.69,3.46,5.31,5.39,11.24,6.53,17.43.32,1.77-1.08,2.79-2.2,3.76-4.42,3.86-4.99,5.91-2.99,11.5.64,1.81-.63,6.1-2.19,8.1-1,1.29-.54,2.62.55,3.72,2.3,2.33,2.6,3.75-1.36,4.48-3.05.56-6.01,1.84-4.47,6.18.52,1.46-.48,2.64-1.62,3.55-2.05,1.64-4.14,3.22-6.17,4.88-.96.79-1.89,1.07-3.02.41-.61-.35-1.68-.74-1.9-.2-2.84,6.98-6.2.69-8.47-.17-4.2-1.6-7.92-4.08-12.8-3.32-2.66.41-5.66-1.11-7.57-2.17-4.24-2.35-6.35.71-9.06,1.99-5.86,2.78-8.49,8.84-12.71,13.3-.76.8-.96,1.71-.71,2.67.48,1.9,1.38.4,2.13.21.61-.15,1.01.21,1.37.68,1.97,2.63,1.38,8.35-.57,11.12-1.67,2.38-3.61,4.11-6.04,5.7-3,1.96-6.11,1.01-9.15,1.29-1.21.11-2.85-.81-2.37-2.67.29-1.13.11-1.96-.81-2.5-4.26-2.56-5.04-6.28-4.56-11,.28-2.78-.55-5.4,2.93-6.81,1.56-.63,1.43-2-.02-3.26-2.18-1.9-4.93-2.66-7.47-3.45-7.47-2.34-14.02-7.77-22.64-6.43-4.11.64-7.57,1.45-10.27,5.15-3.48,4.76-9.11,4.06-14.1,3.77-6.55-.38-12.39,3.41-13.75,9.84-.31,1.44-1.07,1.57-2.33,1.68-3.03.26-3.02,1.82-1.39,3.87.86,1.08,1.73,2.16,2.52,3.29,2.61,3.77,1.84,6.56-2.43,8.25-1.92.76-2.32,1.94-3.17,3.84-1.96,4.37-4.1,8.67-5.98,13.11-.53,1.25-3.34,1.71-5.19,2.18-4.49,1.16-7.23,4.37-9.79,7.87-.24.33-.62.82-.53,1.08,1.41,3.96-2.98,8.01-1.72,10.42,3.16,6.06,0,4.61-3.93,5.69-7.99,2.21-11.15,8.4-10.35,17.01.02.27-.03.72.12.8,6.52,3.62,1.37,10.34,3.9,15.18.67,1.28.63,3.07,2.04,4.31,1.14,1,1,2.96-.57,2.58-2.29-.55-3.81.45-5.72.88-1.92.44-4.26-.26-4.39-3.05-.06-1.3.14-2.61-1.52-2.93-1.67-.32-3.38-.35-4.54,1.21-.73.98-1.55,1.93-1.52,3.32.02.95.05,2.01-.33,2.84-2.38,5.3-2.28,10.17,1.98,14.57.62.65,1.31,1.67.57,2.61-.73.93-1.83.34-2.72.15-8.35-1.83-8.43-1.88-11.99,6.38-1.05,2.43-1.07,3.82-4.67,1.98-3.38-1.73-7.83-1.73-11.64-3.22-2.27-.89-4.44-2.91-7.15-.67-.42.34-1.8-.34-2.67-.71-2.16-.93-4.21-2.14-6.42-2.89-2.86-.97-5.83-.85-6.42,2.78-.64,3.9-3.03,3.6-5.64,3.08-3.98-.79-9.51,2.3-10.64,6-.55,1.78-.23,2.71,1.83,2.5,1.51-.16,3.03-.26,4.54-.45,2.94-.36,5.76-.68,3.95,3.86-.26.65-.03,1.5.82,1.63,1.55.24,2.12-.89,2.64-2.09,1.84-4.27,5.95-5.05,8.89-1.83.79.86,1.22,1.47.45,2.43-.89,1.1-.84,2.15-.29,3.45,1.09,2.58,1,2.62-2,4.42,3.23,1.34,5.49,3.36,6.72,6.54,1.07,2.78.6,4.08-2.44,4.99-13.51,4.06-26.99,8.2-40.39,12.59-17.22,5.65-34.36,11.51-51.49,17.4-6.41,2.2-11.98,6.33-18.5,8.39-6.46,2.03-6.42,2.14-7.84-4.32-.2-.93-.27-1.91-1.08-2.6-3.19,7.44-4.46,8.3-11.2,7.16,2.24-1.76,5.22-1.66,6.68-4.19,1.2-2.06.88-2.64-1.37-2.75-5.11-.26-9.65,1.39-14.35,3.3-14.65,5.97-28.2,14.03-42.21,21.23-2.8,1.44-5.91,2.28-9.74,3.72,1.12-3.32,2.78-5.1,4.93-6.55,1.81-1.22,3.47-2.75,2.54-5.11-1-2.52.57-2.96,2.23-3.28,2.85-.55,5.72-1.02,8.6-1.31,6.54-.65,11.9-4.22,17.67-6.84,8.97-4.07,18.21-7.31,27.97-8.95,2.63-.44,5.05-1.39,6.92-3.46,1.42-1.58,3.35-2.37,5.31-3.11,19.55-7.34,38.9-15.21,58.88-21.37,1.16-.36,2.25-.95,4.3-1.83-5.04-1.13-9.07.07-12.94.64-11.2,1.64-22.47,2.82-33.56,5.23-5.18,1.13-10.48.1-15.67-.72-2.29-.36-2.79-2.44-3.6-4.18-.4-.87-.77-2.13-1.79-2.05-1.35.11-1.32,1.59-1.52,2.61-.42,2.12-.34,4.17,1.59,5.65,1.32,1.01,1.32,1.9-.02,2.94-8.51,6.57-16.05,14.5-26.09,18.94-2.41,1.07-4.67,2.99-7.39-.5-1.93-2.48-9.84-.7-11.73,2.05-1.62,2.37-3.85,3.37-6.74,3.65.33-1.75,2.56-1.12,2.81-2.56-.27-.85-.89-1.09-1.56-1.32-1.48-.5-3.89-.2-4.01-2.06-.11-1.65,2.16-2.33,3.51-3.21,9.46-6.14,19.71-10.61,30.41-14.09,4.08-1.33,8.16-2.64,12.19-4.11,1.61-.59,4.34-.27,3.77-3.29-.67-3.52-2.31-6.17-6.42-6.34-2.55-.11-4.85.52-5.95,2.87-.97,2.07,1.27,1.49,2.19,1.95,1.41.7,4.04.42,3.92,2.29-.11,1.69-2.6,1.5-4.16,1.82-8.53,1.76-17.03,4.72-25.59,4.88-7.37.14-13.7,4.43-21.25,3.4-3.18-.43-6.77,2.05-10.15,3.25-4.94,1.76-9.79,4.05-15.14,1.19-1.28-.68-2.73.11-4.01.59-6.74,2.51-13.52,4.91-20.16,7.66-3.08,1.28-6.17,1.36-9.35,1.34-.63,0-1.56-.16-1.83-.58-.56-.88.35-1.52.93-2.04,3.05-2.76,6.14-5.46,9.41-8.35-3.5-1.58-6.41-1.9-9.04.86-.93.98-2.26,1.17-3.49.85-6.47-1.64-12.59-.22-18.71,1.84-2.66.9-5.38,2-8.61.79,6.62-3.3,13.23-6.61,19.87-9.88.92-.45,2.23-.59,2.44.62.74,4.31,3.02,1.88,4.71,1.1,5.58-2.57,11.21-3.93,17.22-1.49,1.46.59,2.97.26,4.49-.04,11.25-2.23,22.51-4.39,33.77-6.57.64-.12,1.3-.51,2.33.46-6.43,3.43-12.71,6.77-18.99,10.11.05.25.11.49.16.74,2.42-.47,4.88-.8,7.26-1.43,7.49-1.95,14.94-4.06,22.44-6,1.7-.44,3.52-1.46,5.26-.66,4.22,1.94,7.82-.25,11.56-1.47,2.83-.92,4.12-2.89,2.72-5.78-1.43-2.95-.56-4.01,2.6-3.95,5.07.1,5.08.03,4.37-5.21,1.77.26,4.11,2.89,5.02-.78.42-1.67,2.38-3.43,1.05-4.9-1.13-1.25-3.16.14-4.65.62-5.16,1.65-10,2.93-15.52.31-3.31-1.57-7.58-1.61-11.29.2-1.39.68-2.36.33-3.27-.73.08-.26.08-.65.24-.72,1.48-.69,4.49-.37,3.64-2.83-1-2.9-3.16-.45-4.8,0-.93.26-1.84.57-2.76.86l-.03-.03Z"/>
        <path class="cls-2" d="M1068.84,604.14c-2.88-1.65-4.14-1.82-6.23-.46-3.93,2.55-7.53,5.03-10.63,8.78-3.24,3.93-8.89,2.68-13.53,3.85-.25-1.94.99-2.02,1.77-2.32,3.22-1.23,6.65-1.94,5.57-6.92-.47-2.14,2.14-3.36,3.3-5.03,1.24-1.79,1.26-3.02-1.45-3.16-3.58-.19-7.16-.55-10.73-.86-.79-.07-1.84.1-2.09-.91-.31-1.26.83-1.62,1.67-2.01,1.7-.79,3.56-.6,5.32-.44,3.26.29,5.98-.66,8.34-2.85,4.31-3.99,8.63-7.97,13.35-12.33-4.14-.96-5.98,2.46-8.88,3.03-.23-5.91,1.86-8.16,7.46-8.25.66-.01,1.7.02,1.92-.34,3.35-5.75,9.91-7.2,14.72-10.99,3.47-2.73,6.68-5.15,4.38-10.18-.05-.12-.02-.27-.05-.41-.58-2.82,3.36-4.14,2.8-5.97-.64-2.08-2.38-3.24-.91-6.09,1.39-2.7-1.57-4.73-3.74-5.89-2.15-1.15-1.56-1.85-.24-2.86,2.38-1.8,5.24-2.45,8.06-3.16.82-.21,1.7-.17,2.2.69.52.91-.05,1.58-.67,2.16-1.59,1.49-3.2,2.96-5.12,4.73,2.61.91,3.89-.41,5.01-1.97.95-1.32,1.68-2.32,3.66-1.28,4.09,2.14,8.41,1.77,12.38-.25,6.17-3.14,12.73-4.53,19.51-5.14,4.5-.41,8.71-2.12,13.32-2.43,2.23-.15,5.53-2.18,8.24-3.54,1.24-.62,1.93-1.34,3.07.04.81.98,1.77.34,2.52-.34,5.75-5.15,13.06-7.68,19.56-11.56.82-.49,2.03-1.61,2.86-.23.67,1.11-.29,2.26-1.21,2.79-3.97,2.29-5.19,7.02-8.94,9.66-2.93,2.07-2.66,9.84-.28,12.84,1.16-2.57,10.12-7.95,12.5-6.93,2.05.88,2.64-.23,3.8-1.16,2.37-1.9,3.69-5.99,8.07-3.98.41.19,1.3-.42,1.84-.82,6.78-5.07,14.96-7.29,22.41-11.01,3.82-1.91,7.89-3.35,11.88-4.91.82-.32,1.9-1.1,2.68-.15.79.95-.15,1.81-.68,2.56-1.68,2.32-1.13,3.31,1.73,3.55,2.56.22,5.09.85,7.76,1.32-.16-1.95-3.1-1.74-2.45-3.62.57-1.63,2.35-1.08,3.66-1.22,1.82-.2,2.18-.95,1.03-2.4-1.12-1.41-2.18-2.86-3.33-4.24-1.19-1.42-.86-2.96.57-3.42,2.98-.95,5.69-3.03,9.25-1.96,2.79.84,5.79,2.38,8.63-.19.72-.65,1.48-.42,2.06.46,1.9,2.87,5.05,2.24,7.8,2.72.7.12,1.78.02,1.75-.65-.14-3.69,2.92-3.76,5.05-5.28,2.18-1.55,2.2-5.23,4.39-7.28.13-.12.11-.68-.02-.76-5.45-3.59-3.97-10.23-6.59-15.1-1.3-2.41-2.12-4.17-5.1-2.13-.39-1.97.57-3.25,1.09-4.61,1.08-2.82,2.32-4.79,4.52-.69.5.93.99,1.97,2.54,1.43,5.27-1.83,9.75-.07,13.82,3.28,2.07,1.71,4.52.72,6.79,1.01,1.56.2,3.58-.6,4.37,1.44.88,2.3-.76,3.51-2.43,4.68-.84.6-2.61,1.51-1.95,2.27,1.37,1.57,1.59,4.82,3.8,4.76,6.94-.22,11.53,4.03,16.53,7.68,3.36,2.45,6.06,1.9,7.55-1.29.36-.77.57-1.42.18-2.32-1.51-3.51.55-7.55,3.98-6.96,4.29.73,7.06-1.32,10.13-3.4,4.63-3.14,6.33-2.88,9.94,1.15.71.79,1.12,2.9,2.67,1.62,1.47-1.21,2.04-3.45.34-4.76-5.03-3.87-.05-4,1.81-4.71,3.13-1.2,7.67.47,8.33,2.63,1.1,3.64-1.51,9-4.87,10.12-6.27,2.09-11.95,5.52-18.2,7.78-3.48,1.26-6.06,5.04-8.98,7.75-1.27,1.18-.53,1.98.76,2.36,2.05.6,2.01,1.89,1.4,3.55-1.39,3.76-2.63,7.57-4.07,11.31-3.02,7.83-8.78,13.35-15.66,17.73-10.15,6.45-20.61,12.39-30.55,19.2-11.78,8.07-22.27,17.7-33.33,26.66-8.16,6.61-16.2,13.36-24.3,20.04-3.19,2.63-5.47,2.13-8.67-2.11,4.12.16,7.62-.63,9.02-4.93.29-.88,1.17-1.74.38-2.67-.64-.76-1.54-.27-2.33-.11-1.35.26-3.1.85-3.87-.38-.81-1.3.73-2.48,1.5-3.56,1.32-1.86,2.78-3.63,4.28-5.56-1.72-.41-2.63.61-3.62,1.21-23.03,14.04-46.48,27.36-70.02,40.53-4.18,2.34-8.85,3.11-13.25,4.72-1.85.68-3.63,1.24-4.05,3.62-.36,2-2.16,2.83-3.8,3.52-11.59,4.91-23.11,10.38-35.29,13.26-9.8,2.31-20.24,2.91-30.44.87-4.58-.91-5.71-2.58-5.27-7.24.37-3.89,1.48-7.58,2.98-11.17.41-.97,1.24-2.15.42-3.09-.94-1.07-2.08,0-3.03.38-6.32,2.45-12.6,4.99-18.91,7.46-.95.37-2.11,1.47-2.96.26-.63-.9-.11-2.19.47-3.13.49-.8,1.1-1.81,1.89-2.11,4.94-1.84,9.37-4.64,13.96-7.16,3.01-1.65,6.07-.43,8.69,1.11,3.89,2.3,7.15.83,10.51-1,1.62-.88,1.86-2.25,1.57-3.89-.16-.9-.78-1.96.4-2.58.94-.49,1.55.25,2.08.9.98,1.2,2.02,1.06,2.63-.17,2.34-4.72,7.35-6.31,10.98-9.5,1.14-1.01,2.6-1.74,2.91-3.35.36-1.85.76-3.82-2.44-3.1-3.32.75-3.38-.72-1.85-3.04.68-1.03,1.67-2.08.52-3.32-1.1-1.18-2.62-1.15-3.84-.43-4.19,2.47-8.64,4.34-13.19,6.01-.79.29-1.62.68-1.37,1.75.39,1.66,1.69,2.4,3.15,3.01,1.15.48,3.23-.93,3.43,1.19.17,1.9-.52,3.94-2.11,5.22-3.01,2.43-6.16,4.67-9.26,6.99-1.09.82-2.2,1.25-3.27-.02-1.08-1.27-.43-2.41.49-3.29,2.91-2.75,5.91-5.41,9.38-8.56"/>
        <path class="cls-2" d="M1293.54,318.76c2.98-.46,4.34.98,6.74.92-2.29-4.39-.38-8.74-.32-13.08-1.44-.22-1.52.81-1.92,1.46-.37.6-.75,1.3-1.58.89-.75-.38-.62-1.12-.44-1.81.6-2.23,1.19-4.47,1.98-7.41-3.77,2.31-6.19,5.1-8.52,7.82-3.33,3.9-6.8,7.65-10.53,11.15-2.27,2.13-2.51,3.74.28,5.5,1.11.7,2.64,1.49,1.61,3.24-1,1.69-2.38.81-3.64.26-4.12-1.78-7.9.32-11.62,1.34-9.3,2.56-10.71,2.27-16.55-5.34-6.31-8.22-11.62-17.13-17.62-25.64.96,6.23,3.12,12.09,5.55,17.81,4.81,11.32,9.4,22.77,16.65,32.86,1.92,2.67.27,5.09-.96,7.3-.84,1.53-2.12.53-3.1-.35-2.74-2.46-4.66-5.46-5.8-8.95-3.23-9.85-6.43-19.71-9.62-29.57-.68-2.11-1.43-4.19-2.79-5.99-1.74-2.3-3.1-3.96-5.76-.44-2.35,3.11-3.95-.03-4.56-1.87-2.36-7.06-4.83-14.13-5.29-21.67-.23-3.74-.76-7.44-3.26-10.5-.44-.53-.85-1.1-1.37-1.54-1.54-1.29-3.34-.98-4.57.15-1.24,1.15.27,2.3.98,3.12,4.25,4.86,6.56,10.49,7.16,16.88.17,1.77.44,3.53-1.22,5.32-1.66-3.71-3.39-7.13-4.75-10.69-2.4-6.27-6.58-9.29-13.44-8.22-.97.15-2.11.62-3.59-.43,2.36-1.08,4.44-2.02,6.51-2.99,1.46-.69,2.7-1.44.36-2.67-6.12-3.21-12.23-6.46-18.37-9.63-2.15-1.11-3-.6-2.65,2.01.47,3.51,1.19,6.93.48,10.66-.81,4.22-3.05,5.29-6.81,5.62-12.15,1.07-24.32,1-36.48.55-4.5-.16-7.08,1.43-9.13,5.4-5.01,9.7-6.59,20.17-7.59,30.77-.58,6.18-1.08,12.37-2.17,18.49-.41,2.31-.21,4.03,1.38,6.31,2.31,3.29,3.22,7.77,2.99,11.86-.61,11.08,4.28,17.21,14.94,17.88-3.78,4.79-9.49,5.34-13.89,1.38-3.83-3.46-6.19-7.86-7.5-12.69-3.57-13.19-7.21-26.37-7.7-40.19-.2-5.67-2.97-10.77-4.83-16.69-1.24,2.58-.83,4.96-2.52,6.96-3.12-4.53-2.78-9.68-2.92-14.41-.19-6.3.54-12.69,2.8-18.73.48-1.29,1.1-2.55,1.8-3.73.61-1.04,1.31-2.54,2.67-2.19,1.3.34.6,1.89.73,2.92.07.53.01,1.07.24,1.65,2-14.27,5.2-28.18,12.39-41.88-3.79,1.23-5.02,4.09-7.49,5.16-1.11.48-2.02,3.01-3.18,1.34-1.03-1.49-1.39-4.63.81-5.46,3.12-1.17,4.16-2.59,3.41-5.81-.34-1.48,1.01-2.05,2.48-1.94,2.89.22,5.79.35,8.67.61,1.83.16,3.42.66,4.46,2.51,1.11,1.97,2.99,1.92,4.93,1.44-.16-2.18-2.59-.3-2.84-2.55,4.94-1.51,9.96,1.14,15.06-.09-2.53-1.92-5.6-.74-8.18-1.73-1.37-.53-3.66-.05-2.65-2.89.44-1.23-.86-1.55-1.72-1.93-1.35-.6-1.89.32-2.62,1.27-1.53,1.98-12.73,2.48-14.11.43-1.06-1.56-1.84-3.78-1.63-5.58.19-1.59,2.31-2.04,4.11-1.96,2.81.13,2.6-2.5,3.32-4.07,1.51-3.31,6.41-6.04,9.57-5.02,1.56.5-.04,2.41,1.52,3.08.73-1.31,1.42-2.65,2.2-3.92,1.08-1.78,2.83-1.61,4.44-1.17,1.77.49,1.49,2.02,1.35,3.44-.5,4.88,1.91,7.09,6.53,5.79,1.27-.36,2.33-.63,3.56-.09,1.86.82,3.21.27,4.01-1.63.29-.7.21-1.91,1.36-1.72,1.04.17,1.34,1.26,1.73,2.16,1.09,2.51.47,5.2.93,7.79.7,3.87,1.67,7.14,7,6.79-4.49,1.47-3.97,6.16-6.85,8.7,1.74,1.37,3.73.21,5.3,1.29,1.34.91,3.03,1.84,2.21,3.43-1.9,3.65.61,3.24,2.76,3.62,4.48.8,6.33,4.3,4.48,8.44-.45,1.02-.83,1.76.39,2.38,1.56.79,2.94,2.03,4.99,1.07,4.1-1.93,4.14-1.85,5.84,2.92.39-4.87,3.66-8.03,6.32-11.57.53-.7.74-1.32.1-2.2-1.72-2.39-1.17-5.45-.1-7.4,1.5-2.73.95-5.51,1.02-8.01.11-3.75-3.69-1.82-5.81-2.33,2.65-4.62,2.98-4.68,6.81-1.76,1.33,1.02,2.77,1.67,4.61,1.35,2.87-.49,5.51-.03,7.32,2.64.44.65.94,1.54,1.94.79.76-.57.82-1.41.49-2.25-1.18-3.07.48-3.84,3.13-4.23,1.87-.27,3.96-.77,4.75,1.17.75,1.83-1.89,1.46-2.66,2.49-.4.54-1.08.88-1.02,1.69.44.76,1.42.84,1.75.44,2.88-3.46,8.04-2.63,11.03-5.95.6-.67,2.33-1.11,3.07-.74,3.26,1.64,6.27,3.03,9.75.33.74-.58,1.94,3.78.8,5.22-1.86,2.36-4.54,3.61-7.34,4.44-2.12.63-.15-1.82-1.62-2.13-1.74,3.97-5.05,3.77-8.58,2.84-.13-.04-.27-.08-.41-.08-2.51.05-5.94-1.59-7.23,1.09-1.47,3.06-1.18,6.88,1.28,9.79,2.4,2.84,5.18,5.31,7.09,8.6,1.23,2.12,3.45,1.92,5.55.97,2.34-1.05,3.59-2.6,7.13.05,3.93,2.94,10.79,5.31,15.29-1.33,1.42,1.58-.51,2.72.38,3.87,1.5.04,2.05-1.26,2.97-2,.8-.65,1.27-2.08,2.65-1.5,1.26.54.91,1.88,1.07,2.93.99,6.62,1.82,5.96,8.17,5.84,4.22-.08,7.56-.49,11.25-2.35,1.91-.96,3.36,1.84,2.03,4.18,3.49.15,6.8,1.31,10.29.97,4.98-.49,3.7-4.78,4.53-7.63.82-2.83-1.17-4.16-3.64-4.3-5.08-.29-10-2.79-15.33.08-3,1.61-4.91-1.29-6.24-4.3,2.34-1.05,4.59.03,7.78.24-2.56-1.97-4.33-3.34-7.05-5.43,7.26-.12,12.32-3.48,17.72-6.07,2.75-1.31,6.04-2.67,8.66.69,2.44-2.49,4.3,2.01,7.36.31,3.61-2.01,3.08-5.13,4.08-7.9.56-1.55-.71-4.37,1.44-4.52,1.96-.14,3.7,2.08,3.54,4.37-.16,2.26,2.12,2.11,2.83,3.65,1.48,3.2,2.35-.32,3.49-.79,1.33-.54,1.85-.05,1.93,1.16.26,4.01,2.66,3.12,4.87,2,1.45-.74,2.71-2.35,4.42-1.02,1.57,1.22.96,3.02.51,4.62-1.13,4.08-2.29,8.15-2.98,12.54,3.18-1.85,6.04-3.87,6.58-7.94.16-1.18.02-3.02,1.58-2.87,1.56.15.97,2.03,1.07,3.17.26,2.92-.99,5.32-2.75,7.55-1.76,2.24-5.41,2.85-5.42,6.7,0,1.05-1.86.83-2.93.97-1.62.22-2.12,1.04-1.61,2.6.53,1.62,1.38,1.81,2.8.97,1.01-.59,2.16-1.61,3.35-.34,1.1,1.18.25,2.36-.25,3.45-2.62,5.64-5.77,11.04-7.35,17.13-.19.73-.78,1.55-1.42,1.93-4.59,2.71-6.75,6.72-6.9,11.99-.06,2-1.31,3.59-2.31,5.25-1.32,2.19-2.59,3.62-4.3-.21-2.08,4.76-1.27,9.44-2.37,13.79-.62,2.43-.99,5.03-2.77,6.82-1.34,1.35-2.2,4.55-5.09,2.72-2.42-1.53-2.35-5.22.02-7.56,1.48-1.46,3.25-2.64-.17-4.97"/>
        <path class="cls-2" d="M853.46,273.92c1.69,5.43,1.55,10.84,2.74,15.93.99,4.2-1.34,7.01-2.63,10.09-3.38,8.04-11.59,11.34-17.79,16.61-3.05,2.59-6.31,4.94-9.62,7.19-1.2.81-2.95,3.7-4.11-.39-.35-1.23-1.7-.08-2.41.36-2.72,1.64-5.35,3.44-8.07,5.08-2.97,1.79-6.06,3.37-9.63,3.52-2.45.1-4.45-.01-5.1-3.33-.64-3.22-3.76-4.23-7.38-2.51-3.35,1.59-6.55,3.58-9.65,5.64-8.74,5.82-17.39,11.79-26.98,16.22-3.2,1.48-6.41,2.67-9.96,2.28-4.11-.45-7.2,1.23-9.91,4.1-2.09,2.21-4.33,4.27-6.44,6.46-1.94,2.01-4.47,2.67-7.04,3.25-.95.21-2.5.2-1.81-1.18,2.65-5.34.1-9.68-2.13-14.23-1.55-3.16-.27-5.39,3.23-5.88,1.65-.23,3.2-.56,4.78-1.19,5.48-2.19,6.56-6.57,1.72-10.17-2.81-2.09-2.07-4.43-2.4-6.78-.29-2.04,1.38-1.52,2.58-1.47.78.03,1.37-.34,1.44-1.14.03-.34-.23-.8-.5-1.05-2.62-2.39-3.31-7.29-1.2-10.08,1.24-1.64,2.68-3.19,4.25-4.52,1.8-1.52,3.23-3.21,4.63-5.13,2.02-2.79,3.52-5.59,8.56-5.89,4.96-.3,9.82-4.33,14.8-6.6,1.91-.87,2.92-3.27,3.71-5.36q3.11-8.22,11.89-8.57c1.08-.04,2.19.43,3.22-.26,4.58-3.06,8.55-3.66,12.29,1.67,1.79,2.55,5.84.65,8.48,2.36.64.42,1.86.09,2.37.57,5.53,5.23,13,4.33,19.55,6.3,2.46.74,4.33,2.13,5.92,4.23,4,5.28,9.27,4.71,11.84-1.29.79-1.84,1.33-3.27,3.74-2.72,1.59.36,1.96-.83,2.48-2.1,1.31-3.18,2.38-6.88,7.32-5.25,1.32.43,1.72-.58,1.28-1.74-.7-1.86.5-2.43,1.97-3.05"/>
        <path class="cls-2" d="M1079.22,231.84c-1.77,0-3.41-.03-5.05,0-6.04.13-12.01-.59-18.01-1.07-12-.96-24.43-.98-34.65,7.52-2.23,1.86-4.17,3.37-5.92-.6-.47-1.07-2.07-1.65-3.22-2.5,5.98-3.7,7.14-9.88,6.02-16.53-.8-4.75-1.34-9.46-3.06-13.98-.44-1.16-.74-2.38-1.77-3.23-1.39-1.15-3.12-2.33-2.22-4.4,1.05-2.43,3.21-1.1,5.12-.43-.21-.82-.28-1.07-.34-1.34-.34-1.48-3-2.77-1.21-4.22,1.54-1.25,3.87-.18,5.28,1.09,2.93,2.64,4.71,1.58,7.65-.57,6.72-4.92,10.53-12.01,15.38-18.33.62-.8,1.17-1.83,2.24-1.2,1.25.75.78,1.99.08,2.9-2.18,2.85-4.35,5.72-6.71,8.41-2.11,2.39-3.94,4.62-2.18,8.09.4.78-.15,2.05-.35,3.8,4.57-2.51,7.64-6.07,11.07-9.06,4.29-3.74,12.41-5.19,17.39-2.42,1.15.64,2.72,1.87,2.78,2.9.24,4.17,3.71,7.08,3.95,11.21.15,2.54,1.82,4.25,4.1,5.33,1.46.7,2.24,1.67,1.21,3.27-4.47,6.92-6.16,6.83,3.08,15.34,2.14-7.27,9.12-6.58,14.33-8.84,1.05-.45,2.28.21,2.61,1.46.38,1.44.99,3.12.57,4.4-.4,1.23-1.9.45-2.82-.17-.88-.58-1.6-.39-2.16.36-1.51,2.03-3.2,2.47-5.76,1.71-2.6-.77-3.35,2.23-4.3,3.7-1.06,1.65,1.52,1.16,2.27,1.9,2.15,2.13,2.23,5.24,3.53,7.79.45.89-.86,1.6-1.85,1.78-1.36.25-2.73.44-4.1.58-1.46.15-3.23,1.04-4.28-.38-1.06-1.44,1.43-2.12,1.3-4.29"/>
        <path class="cls-2" d="M1156.76,52.73c1.24-7.18,1.24-7.23-5.7-7.75-2.16-.16-5.07-2.68-6.28.22-.84,2,2.73,2.48,4.13,3.87,1.15,1.14,1.34,2.3.85,3.76-1.06,3.14-2.09,6.28-3.11,9.44-.62,1.93-1.78,3.82-.42,5.92.38.58.47,1.38-.28,1.81-.76.43-1.36-.16-1.78-.66-1.24-1.48-2.6-2.91-3.53-4.58-1.3-2.31,1.89-1.63,2.33-3.16-4-.43-4.64-2.53-3.83-6.28.96-4.42-1.38-6.57-6.52-6.85-4.68-.26-9.45-.41-13.44-3.14-5.29-3.61-5.88-5.98-4.05-12.65.89-.29,1.34.38,1.57.96,1.52,3.8,3.75,4.4,6.88,1.72,1.35-1.15,2.85-.56,4.36.14-.81-5.04-10.44-9.08-19.22-8.41,3.77,3.34,3.75,5.22.26,11.82-8.93-9-19.78-13.34-32.6-13.1-.96.02-2.19.36-2.84-.09-4.14-2.93-8.48-3.45-13.19-.96-.32-2.8.97-4.52,1.78-6.34.57-1.28.74-3.31,2.86-2.93,2.04.37,3.69,1.61,3.75,3.85.11,3.89,2.58,3.37,4.9,2.66,2.77-.84,2.71-2.67,1.25-4.82-.77-1.13-1.62-2.49-.48-3.79,1.11-1.26,2.51-.47,3.86-.19,9.42,1.96,18.78,4.5,28.55,2.51,2.79-.57,3.66,1.01,3.2,4.24,2.98-2.82,2.1-5.65,1.63-8.11-.58-3.04.79-3.12,2.87-2.44,3.6,1.19,5.68,4.29,8.12,6.88.88.93.08,1.73-.82,2.32-1.01.66-1.97,1.41-2.96,2.11.12.37.24.75.36,1.12,5.4-1.55,10.83-3.04,16.19-4.7.97-.3.54-1.36.18-2.15-.55-1.22-1.86-2.12-1.55-3.9,2.29-.52,4.25.73,6.29,1.32,10.61,3.11,21.19,6.31,31.79,9.45,2.89.85,5.31,1.76,1.13,4.73,3.97.44,7.07,5.64,6.33,9.87-.07.4-.19.82-.38,1.18-4.17,7.68-4.91,16.66-9.43,25.04-.54-2.85.35-4.81.76-6.8.36-1.73.07-3.08-1.75-3.63-3.99-1.22-8.03-4.13-12.07.47"/>
        <path class="cls-2" d="M975.05,28.36c1.75-3.13,3.73-5.73,7.95-3.94.82.35,1.35-.34,1.38-1.07.2-4.36,3.58-5.1,6.79-6.06,1.32-.4,2.62-.88,3.96-1.2,2.35-.56,3.36-1.62,2.13-4.12-1.65-3.36-.08-5.57,2.98-6.96,3.27-1.48,6.59-2.85,9.89-4.27.38-.16.98-.55,1.12-.43,3.37,2.95,6.6-1.28,10.1-.09,3.76,1.27,7.81,1.64,11.7,2.52,1.79.41,3.24,1.55,4.42,2.94,7.04,8.35,11.56,17.81,12.32,28.82.28,4.12,1.4,8.19.78,12.36-.15,1.04.11,2.52-1.36,2.63-1.4.1-1.53-1.39-1.89-2.37-.86-2.33-1.07-4.8-1.13-7.81-3.04,2.5-5.6,4.45-2.73,8.31.78,1.05.56,2.44-.36,3.47-.83.92-1.52,1.45-2.29-.33-2.35-5.48-7.03-8.54-12.38-10.26-2.67-.86-4.88-2.56-7.27-3.37-4.95-1.67-8.67-6.69-14.67-5.45-1.41.29-2.57.83-3.67,1.74-4.16,3.44-6.16,2.96-9.93-1.06-1.6-1.7-4.19-2.81-6.53-3.38-3.12-.75-1.44,2.55-2.76,3.9-1.79-2.47-4.13-3.18-7.19-2.09-2.66.95-1.48-1.19-1.48-2.29l.12-.15Z"/>
        <path class="cls-2" d="M333.64,452.06c3.97-4.14,7.98-4.97,12.43-3.68,3.27.95,5.97.34,8.08-2.47.56-.75,1.25-1.48,2.67-1.5-.42,3.88,1.41,4.04,4.62,3.3,5.51-1.27,11.17-1.87,16.73-2.9,2.97-.55,3.32.75,2.15,2.9-4.22,7.74-10.34,13.56-18.22,17.5-.8.4-1.83,1.02-2.69.14-.73-.75,0-1.55.25-2.29.38-1.08.89-2.38-.41-2.91-1.77-.71-1.83.96-2.25,2.09-.77,2.07-2.21,1.84-2.9.25-1.89-4.33-5.15-4.41-8.98-3.18-.14-1.25,2.06-1.55.85-2.87-.9-.98-1.78-.32-2.62.12-9.94,5.23-19.09,11.71-28.24,18.17-1.05.74-1.63,2.18-2.34,3.35-6.82,11.22-14.83,21.69-21.09,33.27-.54,1-1.24,1.68-2.27,1.15-2.35-1.21-5.89-1.32-6.2-4.73-.32-3.51-1.34-6.12-4.87-7.39-1.91-.69-1.83-2.12-1.11-3.73,4.33-9.62,10.61-17.75,18.62-24.59,3.05-2.6,7.13-1.94,10.51-3.48,1.24-.56,2.68-1,1.16-2.48-3.18-3.12-1.21-5.36,1.33-7.04,7.85-5.18,15.86-10.12,23.79-15.17,1.27-.81,2.48-1.37,3.62.13,1.05,1.37.57,2.56-.42,3.73-.79.93-1.84,1.7-2.22,4.29"/>
        <path class="cls-2" d="M925.24,59.75c.95,4.14,1.65,8.35,2.91,12.38,1.13,3.6,4.34,3.24,6.93,2.17,3.57-1.48,5.58-.5,7.45,2.67,1.83,3.1,4.46,5.69,7.61,7.49,3.22,1.84,2.32,3.36.01,5.02-1.12.81-2.24,1.61-3.42,2.32-1.75,1.05-2.36,1.92-.55,3.72,1.44,1.44.97,3.37-.51,4.82-1.88,1.84-2.97.09-4.06-1.05-1.59-1.67-4.49-2.47-3.67-5.82.23-.95-1.13-1.46-1.95-1.93-4.54-2.64-9.09-5.27-13.65-7.88-.95-.54-1.87-1-3.1-.48-4.73,2-8.82.92-12.23-2.87-.85-.95-1.93-2.16-3.13-1.44-3.61,2.18-5.93,1.48-6.75-2.92-1.51,1.05-.6,2.85-2.54,3.49-.46-2.56-.92-5.06-1.35-7.56-.32-1.87-.28-2.02,1.72-1.71,1.18.18,1.03-.6,1.23-1.13.48-1.22.71-2.43-.66-3.29-1.05-.66-2.13-1.69-3.36-1.39-1.66.4-1,2.04-1.05,3.18-.1,2.48,0,4.98-.06,7.47-.03,1.2.05,2.99-1.87,2.18-1.19-.5-4.11-.87-2.63-3.05,1.57-2.3-.41-1.61-1.08-1.76-2.29-.5-4.6-1.04-6.92-1.18-3.77-.23-4.58-2.4-4.2-5.6.05-.41.03-.83.08-1.24q.76-6.09-5.03-7.33c.78-2.44,2.9-3.59,4.59-5.1.8-.72,2.2-1.13,1.99-2.4-.23-1.36-1.83-.93-2.74-1.45-.79-.46-2.16-.2-2.3-1.43-.1-.91.86-1.33,1.57-1.72.32-.17,1.1-.17,1.11-.12.7,3.05,3.38,1.54,5.08,2.1,2.45.8,3.67,1.59,2.01,4.31-1.87,3.07-3.01,6.21.38,9.31,1.63,1.49.18,3.08-.8,4.39-1.23,1.64-1.71,3.1.2,4.63,1.98,1.6,2.96-.08,4.16-1.13.42-.36.79-.78,1.18-1.17q6.5-6.44-.39-12.33c-1.26-1.08-2.64-2.09,0-3.17,4.63-1.9,7.96-8.74,6.34-13.3-.5-1.41.31-1.76,1.15-2.17.94-.46,1.75-.47,2.39.71,2.05,3.82,5.72,6.12,8.68,9.11,2.09,2.11,4.54,4.1,3.22,7.79-.62,1.74-.76,3.67,2.12,3.78.6.02,1.24.55,1.76.96,5.56,4.48,12.39,2.1,13.94-4.87.11-.48.37-1.19.71-1.3.36-.11,1.07.27,1.33.65,2.7,4.01,5.35,8.06,7.97,12.12.54.84.91,1.84-.26,2.5-1.07.6-1.86-.08-2.49-.85-2.05-2.53-4.06-5.1-6.09-7.65-.32.17-.64.34-.96.51"/>
        <path class="cls-2" d="M1201.85,48.1c2.29,4.4,4.73,7.75,5.75,11.81.75,2.98,2.39,5.19,4.89,6.93,1.55,1.08,3.97,1.43,3.49,4.42-.19,1.17,1.66,1.22,2.63,1.56,2.35.8,4.78,1.37,7.14,2.17,1.27.43,2.48,1.2.91,2.64-1.92,1.75-.1,2.13.92,2.94,3.64,2.89,4.25,6.03,1.7,9.62-.9,1.27-1.61,2.43-.27,3.6,1.6,1.39,2.64-.19,3.35-1.19,3.15-4.41,7.17-6.79,12.73-6.05.53.07,1.12.08,1.24.81-.03.12-.02.28-.09.37-1.26,1.42-4.39-.52-4.5,1.68-.1,2.02,2.82,2.25,4.46,3.1,4.5,2.33,9.66,3.8,11.19,9.58,6.86,3.34,9.87,10.34,14.78,15.54.48.5.99,1.12,1.75.64.67-.43.59-1.18.41-1.87-.38-1.47-.71-2.96-1.17-4.4-.9-2.8.55-4.05,2.95-4.88,3.02-1.05,3.09,1.42,3.74,3.08,1.09,2.79,1.21,5.65.18,8.51-.89,2.48-1.03,5.77-5.3,3.2-1.35-.81-3.66.02-4.75,1.66-1.69,2.52-3.53,2.22-5.6.68-.33-.24-.76-.51-.88-.85-1.1-3.05-3.15,6.63-3.82-.27-.39-3.98-3.78-1.01-5.57-2.54-1.98-1.7-3.69-3.61-4.08-5.77-.66-3.67-2.14-2.75-4.11-1.47-1.89,1.23-3.75,1.91-5.55-.09-.77-.86-2.24-1.64-.49-2.94.88-.65,2.75-.88,1.39-2.62-1.2-1.54-2.86-3.52-4.77-2.55-4.23,2.14-5.17-.39-6.2-3.47-.3-.89-.92-1.72-1.54-2.44-2.24-2.57-5.16-4.57-3.56-9.01.49-1.37-.69-3.53-3.93-4.65-4.79-1.66-8.59-6.23-12.76-9.61-.89-.72-.36-1.52.38-2.04,1.36-.96,2.42-2.05,1.33-3.77-1.24-1.95-2.88-.92-4.43-.42-.48.16-1.02.14-1.68.21,1.24-5.59-.99-9.75-4.86-13.14-1.12-.98-1.21-1.59-.55-2.73.95-1.65,1.8-3.37,3.15-5.95"/>
        <path class="cls-2" d="M1264.33,470.2c-1.23,4.46-2.94,8.19-8.05,8.8-2.77.33-4.92,1.62-6.75,3.66-1.96,2.19-4.12,3.71-7.24,1.95-1.9-1.07-3.56.19-4.03,1.66-.59,1.84.96,3.06,2.81,3.11.99.03,1.92-.44,2.25.95.32,1.35-.6,1.96-1.49,2.68-2.45,1.97-5.34,2.08-8.27,2.08-10.48.01-20.43,1.98-29.6,7.43-4.33,2.57-8.96,4.68-14.43,4.91.69-1.92,2.38-1.86,3.35-2.73.99-.89,4.82-.74,1.36-3.57-1.01-.82.24-1.84,1.22-1.95,5.24-.59,9.42-4.56,14.84-4.55,1.11,0,1.57-.98,2.18-1.73q2.27-2.77,5.64-.96c.07-3.33.04-6.67,3.05-9.2-10.83,2.3-21.67,4.59-33.68,7.14,2.17-2.73,4.01-3.52,5.99-4.07,5.06-1.41,10.1-2.91,15.19-4.16,3.93-.97,7.5-2.14,10.52-5.25,3.46-3.56,8.22-2.62,12.6-1.94,5.93.93,6.71-.18,10.81-4.5,5.27-5.56,3.28-12.3,4.74-18.45.21-.9.2-1.85.33-3.14,2.35.8,3.44,2.65,4.92,3.97,1.54,1.37,2.72,3.45,4.85,3.74,4.64.63,4.31,3.22,3,6.47-.36.89-.5,1.87-.74,2.8q-1.67,6.36,4.62,4.85"/>
        <path class="cls-2" d="M856.19,70.87c-.07.35-.05.81-.24,1.13-3.02,4.89-3.01,4.84,2.88,6.13,4.65,1.02,9.59,1.13,13.71,4.54-4.76.71-9.53.87-14.32.32-.89-.1-1.34-1.01-1.56-1.8-.61-2.16-1.86-2.61-3.7-1.49-2.42,1.48-.13,2.45.45,3.6.18.36.37.72.78,1.52-4.47-.47-6.03,1.64-5.56,5.7.33,2.82-2.37,5.91,1.76,8.39,2.89,1.74-.27,4.41-.62,7,2.29.2,4.21-.92,6.22-1.47,2.07-.56,4.53-1.23,5.81.66,3.08,4.54,7.73,4.1,12.16,4.57,1.75.19,3.57.03,5.33,1.52-6.9,3.66-14.42,4.26-21.59,6.04-4.33,1.07-8.71,1.74-11.59,5.67-.48.66-1.36,1.47-2.09,1.01-3.78-2.38-8.84-2.47-11.51-6.88-4.34-7.16-5.39-15.15-6.99-23.66,4.47,1.5,7.64,4.21,11.61,4.94,1.83.33,3.88,1.48,4.76-1.4,1.02-3.36-.29-7.38-2.31-8.47-2.02-1.09-3.58-3.03-6.3-2.19-.66.2-1.04-.73-1.25-1.42-.96-3.21,2.17-9.58,5.44-9.65,6.04-.12,11.17-2.96,16.73-4.47.62-.17,1.32-.52,2.01.16"/>
        <path class="cls-2" d="M1246.18,441.69c-3.1-2.17-4.48-4.48-2.67-8.19,1.2-2.45.18-5.03-.8-7.58-9.73-25.28-19.04-50.7-24.02-77.45-.07-.37.05-.78.12-1.62,2.54.93,1.93,3.18,2.51,4.74.66,1.79.38,3.84,1.89,6.13-.35-3.77.54-6.4,3.15-8.46,1.42-1.12.9-3.07,1.04-4.71.17-1.98-.62-4.15,1.31-6.3,3.69,9.65,2.92,19.49,2.74,29.18,2.45.12,1.34-2.48,2.97-2.27,1.42.18,1.92,1.45,2.61,2.47,3.76,5.57,5.07,11.86,5.52,18.43.26,3.8.68,7.59,1.03,11.39,1.54-.12,1.75-1.26,2.36-1.92,1.4-1.51,2.36-1.15,3.03.59,1.58,4.13,3.14,8.27,4.65,12.43.81,2.25-.06,3.31-2.47,3.54-5.72.56-6.11.29-7.83-5.31-1.17-3.83-2.49-7.62-3.89-11.36-.38-1.02-.62-2.98-2.27-2.3-1.45.6-.49,2.26-.15,3.33.8,2.5,1.81,4.93,2.77,7.37.96,2.45,2.11,4.84.72,7.55-.67,1.3.32,2.35.84,3.46,3.55,7.61,5.09,15.73,5.9,24.02.09.94.04,1.95-1.04,2.84"/>
        <path class="cls-2" d="M1358.56,391.87c-.58-.84-1.11-1.82-1.83-2.63-1.54-1.71-2.37-2.77-.57-5.42,2-2.93,1.16-6.88-.56-10.29-2.26-4.5-1.19-9.67,2.8-12.79,2.47-1.93,1.96-3.68-.26-4.81-3.57-1.83-3.86-3.93-1.32-6.74,2.26-2.49.87-4.49-.77-6.52-1.08-1.34-3.31-2.54-2.25-4.43,1-1.79,2.98.49,4.56-.06.44-1.04-.35-1.56-1.01-1.94-4.74-2.68-5.86-6.63-4.3-11.65,1.28-4.12.36-8.21-.42-12.29-.26-1.35-.53-2.71-.6-4.08-.07-1.22-.11-2.6,1.45-3.08,1.53-.46,2.69,0,3.43,1.49.41.84.78,2.06,1.97,1.71,1.3-.38.54-1.64.64-2.53.29-2.74.57-5.48.88-8.21.1-.84.34-1.81,1.32-1.85,1.11-.05,1.33,1.05,1.18,1.8-1.6,7.65.3,14.91,1.4,22.46,1.54,10.58,1.07,21.49.93,32.26-.17,12-.93,23.99-1.45,35.98-.02.55.07,1.33-.24,1.61-5.76,5.12-3.04,11.11-1.82,16.95.2.98-.13,1.71-1.08,1.89-1.84.34-4.21,1.35-5.43.59-1.57-.97-.27-3.42.27-4.98,1.18-3.39,2.54-6.29.11-10.03-1.55-2.39,2.16-.7,2.99-2.41"/>
        <path class="cls-2" d="M1338.02,301.62c0,2.8-.71,4.75-1.97,6.43-1.87,2.49-1.61,4.86.11,7.23,2.03,2.79,4.1,5.54,6.15,8.32,4.35,5.91,4.5,12.05-.11,17.86-2.94,3.7-5.47,7.57-7.76,11.69-2.93,5.28-8.1,5.82-11.88,1.62-1.85-2.05-2.13-4.18-.59-6.39,1.2-1.73,1.44-3.45-.11-4.82-2.68-2.36-1.43-5.8-2.63-8.58-.59-1.36.88-2.55,2.06-3.27,7.01-4.28,6.62-11.23,6.24-17.95-.19-3.3-2-6.66,3.55-6.86,1.4-.05,1.68-1.65,1.77-2.94.05-.69.04-1.38.06-2.07.08-2.31-.22-6.05,2.07-6.02,2.91.03,2.44,3.94,3.04,5.72"/>
        <path class="cls-2" d="M874.92,375.87c-12.53-9.4-10.35-22.6-10.72-35.1-1.58,5-1.32,10.21-2.07,15.28-.15,1.03.36,2.6-1.02,2.83-1.7.28-1.72-1.54-2.04-2.6-2-6.68-1.01-13.48-.24-20.16.76-6.56,2.34-13.03,3.58-19.53.44-2.31.67-4.78,4.09-4.57,1.1.07,1.12-1.46,2.22-2.25,1.27,3.14,4.26,3.23,6.97,4,2.62.75,5.14,1.55,7.52,3.21,2.96,2.07,3.99-2.46,6.46-2.9.48-.08.71-1.16,1.22-1.6,1.12-.98,2.82-1.56,3.76-.52,1.31,1.46-.73,1.97-1.54,2.63-10.75,8.8-19.32,19.13-21.96,33.18-1.71,9.08-1.93,18.18,3.51,26.42.18.28.12.71.27,1.68"/>
        <path class="cls-2" d="M80.75,378.47c3.94-2.48,7.48-4.76,11.45-6.24,25.3-9.38,51.14-17.12,76.9-25.06,7.53-2.32,13.16-7.66,20.46-9.92,1.44-.44,2.74-1.3,4.16-1.81.85-.3,2.03-.75,2.54.46.51,1.21-.6,1.74-1.45,2.12-3.53,1.59-7.26,2.81-10.62,4.69-20.27,11.31-43.11,15.88-64.28,24.8-1.24.52-3.86.3-3.26,2.27.62,2.04,2.97,1.47,4.73.94,15.12-4.5,30.34-8.98,44.35-16.21,10.87-5.62,23.05-7.42,33.79-13.1,3.66-1.94,7.36-3.83,11.07-5.67,1.08-.54,2.44-1.31,3.15.43.61,1.49-.73,1.83-1.74,2.25-27.44,11.34-54.13,24.58-82.85,32.68-13.32,3.76-26.66,7.24-40.51,8.34-3.02.24-4.62.13-7.86-.98"/>
        <path class="cls-2" d="M961.16,183.68c-2.81.3-6.04.1-7.73-3.67-.3-.67-.88-1.02-1.67-.97-3.07.2-5.55-2.8-4.54-5.9.68-2.08.75-3.76-.06-5.89-1.89-4.98-.16-6.88,5.18-6.26,4.44.52,7.15-1.95,7.04-6.53-.04-1.54.4-2.73,1.77-3.44,1.55-.8,2.06.85,3.08,1.3,3.78,1.68,5.52,6.03,8.81,7.56,5.15,2.4,7.64,8.49,13.76,9.15.73.08,1.19.85.86,1.58-.35.79-1.35,1.5-2,1.19-4.28-2.01-6.56.36-8.9,3.46-1,1.33-2.53.14-3.71-.57-1.15-.7-2.33-1.96-3.71-.96-1.39,1.01-.6,2.39-.19,3.75,1.13,3.78-1.88,6.27-7.99,6.2"/>
        <path class="cls-2" d="M196.49,402.78c-3.88-1.17-10.71,2.51-13.13,7.37-.71,1.42-1.43,2.13-2.72,1.71-5.76-1.88-10.5,1.09-15.45,3.08-3.93,1.58-7.59,3.83-12.26,2.33-3.31-1.06-3.77-2.56-2.36-5.45,1.37-2.8,3.51-4.58,6.35-5.58,7.95-2.81,15.94-5.32,24.44-6.08,6.96-.63,13.26-3.67,19.55-6.54,5.77-2.64,11.37-5.72,17.66-7.04,2.13-.45,4.29-.94,6.86.82-7.44,4.79-16.42,6-22.93,12.69,3.08.81,5.68,1.5,9.07,2.39-6.04,4.15-12.27,5.37-18.6,6.28-.44.06-1.11-.27-1.39-.64-.55-.73.1-1.23.6-1.71,1.36-1.27,3.46-1.69,4.32-3.63"/>
        <path class="cls-2" d="M1333.61,188.41c-3.58-2.26-4.71-5.52-7.22-7.45-.92-.71-1.59-2.32-3.01-1.01-1.06.97-.2,2.01.35,2.97.74,1.28,2.82,2.61.2,3.96-1.89.97-3.62.95-4.92-1.25-1.75-2.98-3.44-5.95-4.55-9.27-.39-1.19.18-4.3-3.01-2.59-.1.05-.79-.56-.74-.73.87-3.23-2.2-4.7-3.16-7.11-.39-.98-.17-2.94-2.2-2.06-1.56.67-2.93,1.57-2.01,3.78,2.23,5.35,4.19,10.82,6.56,16.1,1.17,2.6.36,4.18-1.61,5.61-.83.61-1.59,1.73-2.89.92-1.04-.65-1.67-1.73-1.32-2.82.97-2.99-.54-5.09-2.29-7.08-3.09-3.51-2.23-8.21-3.72-12.24-1.01-2.74-2.49-4.42-4.85-5.47-.85-.38-2.05-.02-1.79-1.48.35-2.01,1.58-3.45,3.25-4.57.91-.61,1.77-.81,2.55.15.44.53.76,1.17,1.24,1.66,1.41,1.43,2.58,4.13,4.75,3.35,2.31-.82,2.46-3.74,2.91-6.04.18-.94-.57-3.15.62-2.58,2.04.99,4.34-2.3,5.97.89,2.14,4.17,4.65,8.15,7,12.21,2.34,4.05,4.56,8.12,8.3,11.22,3.04,2.51,4.46,6.16,5.57,10.91"/>
        <path class="cls-2" d="M981.41,236.55c1.49,2.54,3.27,1.35,4.77,1.47,1.16.09,2.24-.03,2.75,1.25.53,1.34-.92,1.43-1.35,2.14-1.29,2.11-2.67,3.21-5.36,2.27-1.59-.56-2.85-.79-2.47-2.93.37-2.07-1.02-4.02-2.53-4.33-4.07-.85-2.69-4.28-3.06-6.33-.7-3.92-2.2-6.51-6.48-7.03-1.98-.24-2.92-.65-2.49-2.63.4-1.88,1.64-2.13,3.47-1.82,3.66.62,7.4.21,10.96,2.12,1.99,1.07,4.17-2.12,4.14-2.92-.08-2.67-.57-5.31-.41-8.07.06-1.02-1.6-1.1-2.18-.05-1.19,2.18-2.51,4.22-5.34,3.54-2.06-.49-1.27-3.79,1.27-5.06.85-.42,2.27-.26,2.7-.87,2.31-3.3,4.71-1.95,7.45-.69,2.48,1.14,3.86,2.37,2.98,5.36-.59,2-.45,3.76,2.59,3.89,2,.08,3.73,1.27,1.26,3.35-1.22,1.02-.77,1.44.2,2.12.55.39,1.09.92,1.39,1.51.88,1.74,5.03,1.96,3.04,4.78-2.07,2.93-3.98,7.08-9.02,5.49-1.23-.39-2.3-.1-2.95.88-1.22,1.82-2.66,3.08-5.33,2.55"/>
        <path class="cls-2" d="M1281.62,106.03c-2.2-6.01-6.45-6.67-11.09-5.89-2.64.45-3.84-.66-3.93-2.86-.13-3.4-2.31-5.12-4.68-6.86-10.37-7.57-21.54-14.04-31.4-22.31-5.17-4.33-10.04-9-14.38-15.36,3.27.54,5.03,2.1,6.76,3.73,3.23,3.06,6.58,5.91,11.12,6.89.78.17,1.66.55,2.18,1.12,12.26,13.46,29.08,21.04,42.54,32.96,2.34,2.07,4.69,4.01,2.88,8.58"/>
        <path class="cls-2" d="M1050.85,117.76c.64,1.97,1.23,3.24,1.43,4.58.18,1.2,2.31,1.77,1.2,3.14-1.02,1.26-2.53.41-3.89.31-3.59-.26-6.53-3.09-10.35-2.42-.71.12-1.58-.52-1.72-1.51-.15-1.09.76-1.18,1.42-1.67,3.43-2.5,4.43-6.45,5.66-10.19.5-1.51-.76-1.76-1.99-1.84-1.73-.11-3.56.53-6.15-1.27,4.06-.85,7.25.15,10.17.71,4.29.83,7.09.3,7.65-5.21,1.4,1.55,1.71,3.87,4.05,2.93,1.89-.75,2.82-1.99,3.04-4.01.19-1.78.58-3.55,1.07-5.28.28-1,.45-2.39,1.82-2.5,1.56-.13,1.9,1.33,2.53,2.37.58.97,1.25,1.79.14,2.91-4.34,4.35-6.13,10.01-7.81,15.68-1.69,5.72-2.5,6.14-8.28,3.26"/>
        <path class="cls-2" d="M455.9,388.75c-15.47,3.57-29.96,10.34-45.44,13.95-4.62,1.08-9.15,1.06-13.99-.09,7.09-2.9,14.17-5.8,21.26-8.7,6.04,3.27,9.53-1.79,13.83-4.22,1.48-.83,3.11-1.05,4.81-1.04,6.5.05,13,.05,19.51.06,0,0,.03.03.03.03"/>
        <path class="cls-2" d="M997.89,166.72c2.02.48,2.88-1.27,4.18-2.15.6-.41,1.3-.8,1.89-.36.92.69.36,1.63-.2,2.13-4.12,3.71-.74,8.07-.99,12.08-.11,1.75,1.9.86,3.03.9,1.12.04,1.86.62,1.92,1.73.04.76-.62,1.56-1.26,1.27-2.96-1.34-5.98.09-8.97-.42-2.72-.46-4.03-1.68-3.36-4.41,1.31-5.37-1.45-9.12-4.93-12.52-1.22-1.2-1.37-2.25-.57-3.63.84-1.44,1.54-2.93,3.72-2.55,4.32.74,6.46,3.71,5.54,7.92"/>
        <path class="cls-2" d="M974.93,28.51c-1.22.81-2.19,1.89-1.82,3.4.37,1.52,1.9,1.29,3.09,1.51.94.17,1.87.43,2.78.72.55.17.97.58.91,1.21-.08.88-.72,1.16-1.47,1-2.17-.48-4.02.71-6.03,1.07-2.11.38-3.67,1-3.22,3.71.28,1.69-.46,2.75-2.42,1.88-2.64-1.18-5.29-2.35-7.92-3.56-1.76-.81-2.35-2.28-1.96-4.1.36-1.69,1.78-1.86,3.21-2.02,1.91-.21,3.81-.66,5.72-.77,3.12-.18,6.56.3,4.36-4.85-.65-1.52.8-3.1,1.93-4.34.66-.72,1.41-1.36,2.52-.77,1.1.58.96,1.51.8,2.5-.18,1.08-.25,2.18-.37,3.27,0,0-.12.15-.12.15"/>
        <path class="cls-2" d="M222.3,460.05c-.47,1.83-1.73,2.02-2.66,2.43-11.54,5.05-21.6,12.84-33.11,17.97-2.6,1.16-4.73,3.34-7.18,4.88-2.52,1.59-5.23,2.38-9.29.66,18.04-8.48,32.74-21.55,52.24-25.94"/>
        <path class="cls-2" d="M1063.53,76.45c-.78,2.97-1.78,6.69-2.72,10.43-.48,1.9-1.63,2.11-3.07,1.19-2.89-1.87-5.83-3.7-8.53-5.83-2.35-1.85-1.53-6.77,1.22-8,1.41-.63,2.58-.91,3.7,1.06,1.63,2.88,5.5,2.51,6.73-.43.39-.93-.09-2.52,1.7-1.97,1.27.39,1.34,1.6.97,3.55"/>
        <path class="cls-2" d="M332.58,416.78c6.27-2.24,11.99-3,17.57-4.3,11.69-2.73,23.4-5.36,35.1-8.03.81-.18,1.61-.37,2.43-.53.99-.19,2.07-.32,2.39.92.35,1.34-.88,1.66-1.73,1.87-3.75.93-7.52,1.77-11.29,2.58-12.95,2.78-25.9,5.55-38.86,8.27-1.51.32-3.15,1-5.6-.78"/>
        <path class="cls-2" d="M445.18,478.29c.34-1.77-1.92-2.79-.74-4.12,1.35-1.54,2.68.15,4.06.42,3.68.73,6.7-.47,8.98-3.6,1.12-1.55,2.41-4.56,4.41-3.16,2.65,1.85-.25,4.14-1.52,5.35-3.13,2.98-6.67,5.57-10.23,8.04-1.55,1.07-3.66,1.51-5.56,1.01-1.5-.4-4.23.41-4.03-2.34.23-3.06,2.71-1.78,4.65-1.6"/>
        <path class="cls-2" d="M842.3,265.15c-.12,3.24,1.9,7.41-2.07,9.36-2.02.99-8.38-4.78-8.39-6.82-.02-3.24,3.25-6,7.07-5.98,2.26.01,4.41.1,3.39,3.45"/>
        <path class="cls-2" d="M1189.04,45.36c1.55-.67.27-3.68,2.65-3.09,1.98.48,3.9,1.69,5,3.43.97,1.54-1,2.27-1.71,3.33-.08.11-.19.2-.28.3-4.21,4.8-7.37,4.65-11.35-.6-2.23-2.94.46-5.16,1.98-6.25,2.53-1.82,1.93,2.29,3.7,2.88"/>
        <path class="cls-2" d="M1289.6,335.21c3.46.54,6.77,2.75,10.55,1.83.96-.23,1.23.96,1.08,1.81-.75,4.36-4.03,9.33-8.89,8.49-1.43-.25-3.1-.61-3.45,1.71-.18,1.18-1.07,1.65-2.14.97-.98-.63-.82-1.56-.4-2.55.86-2.06,2.89-2.87,4.39-4.25,3.65-3.37,3.67-3.35-.43-5.92-.61-.39-1.11-.81-.72-2.08"/>
        <path class="cls-2" d="M700.77,367.79c3.95.06,6.08-1.7,8.47-2.64,1.62-.64.67-2.11.35-3.24-.25-.86-.29-1.79.55-2.2,1.34-.65,1.52.71,2.01,1.44,1.48,2.18,1.58,4.25-.24,6.4-2.21,2.62-3.75,5.77-6.45,8.02-2.1,1.75-3.45,1.74-3.74-1.33-.12-1.28-.4-2.41-1.44-3.29-.9-.77-1.44-1.87-.93-2.95.58-1.22,1.7-.23,1.41-.21"/>
        <path class="cls-2" d="M285.37,317.47c9.52-8.88,21.79-10.73,34.13-12.44-11.21,4.48-22.42,8.96-33.63,13.44-.17-.33-.33-.66-.5-.99"/>
        <path class="cls-2" d="M882.85,376.34c-2.84.02-4.67.04-6.03-1.46-1.34-1.48-2.58-3.36-1.74-5.19.81-1.76,2.73-.36,4.12-.18,2.73.34,5.45.82,8.16,1.3,1.13.2,2.13.25,3.16-.42.82-.53,1.59-2.27,2.64-1.13,1.13,1.22-.05,2.73-.98,3.62-2.88,2.73-6.7,2.95-9.34,3.47"/>
        <path class="cls-2" d="M1167.98,207.35c-2.79.89-3.24,2.23-1.22,4.42,1.08,1.18,2.22,2.95.36,4.3-2.08,1.5-2.81-.71-3.79-1.9-2.98-3.59-6.23-6.97-8.81-11.23,3.71-1.24,6.84-2.45,9,2.13.54,1.15,2.81,1.48,4.46,2.28"/>
        <path class="cls-2" d="M1075.26,536.17c-1.68,2.68-3.37,3.29-4.99,3.96-3.36,1.38-6.3,2.88-7.75,6.78-1.18,3.19-9.35,3.62-11.48,1.01-.77-.94-.24-1.63.54-1.96,7.55-3.16,15.13-6.27,23.67-9.79"/>
        <path class="cls-2" d="M1322.13,364.5c0-.96-.08-1.93.03-2.88.08-.65.29-1.39.69-1.89.78-.97,1.83-.55,2.59,0,2.47,1.75,4.38,4.08,5.72,6.75.59,1.18-.55,1.95-1.81,2.13-.27.04-.52.17-.78.27-5.35,2.03-6.55,1.22-6.44-4.37"/>
        <path class="cls-2" d="M1034.94,555.73c1.77.64,4.73-.04,5.23,2.31.59,2.77-1.51,5.14-3.04,7.43-.11.17-.69.27-.7.26-1.33-3.35-4.71-3.08-7.28-4.27-.61-.28-.17-1.56.26-2.29,1.21-2.06,3.05-3.13,5.52-3.44"/>
        <path class="cls-2" d="M1014.79,104.47c.03.16.17,1.53.51,2.85.39,1.56.04,2.99-1.4,3.45-2.47.79-4.57,1.72-5.21,4.55-.12.51-.88.81-1.35.4-.35-.31-.69-1.02-.57-1.42.71-2.31.01-5.05,2.08-6.92,1.48-1.35,2.07-3.2,2.92-4.91.51-1.02.78-2.69,2.5-2.07,1.54.56.46,1.88.54,4.07"/>
        <path class="cls-2" d="M919.75,269.8c1.21.24,2.46.37,3.63.74,1.18.37,1.69,1.34,1.69,2.58,0,1.16-.14,2.33-1.54,2.55-2.14.33-3.22,1.28-2.83,3.62.12.71-.6,1.37-1.38,1.1-2.27-.79-3.61-2.81-2.84-4.81.75-1.94-2.27-6.47,3.28-5.78"/>
        <path class="cls-2" d="M1037.07,171.97c-2.21,1.63-1.45,4.08-1.46,6.44,0,.79-.78,1.5-1.74,1.47-1.09-.04-1.77-.83-2.1-1.75-.73-2.06-1.31-4.18-1.96-6.28-.4-1.32-.96-2.7.21-3.89,1.31-1.32,2.57-.26,3.77.29,1.51.7,2.98,1.5,3.27,3.72"/>
        <path class="cls-2" d="M474.91,312.39c1.47-2.13-1.05-7.17,3.12-8.01,2.7-.54,4.25,3.31,4.24,6.11-.01,3.55-3.12,4.05-5.87,4.58-1.79.34-1.71-.8-1.49-2.68"/>
      </g>
      <g>
        <path class="cls-1" d="M990.03,408q-14.22,0-18.76-13.36c-3.41-10.01-7.03-19.95-10.18-30.03-1.18-3.78-3.17-4.79-6.89-4.76-17.38.16-34.76.17-52.14-.01-3.64-.04-5.44,1.17-6.6,4.59-4.4,13.02-9.13,25.92-13.52,38.94-1.14,3.39-2.8,4.87-6.49,4.7-6.03-.27-12.09-.19-18.13-.04-3.82.1-4.29-1.32-3.07-4.64,11.47-31.18,22.84-62.39,34.25-93.59,8.09-22.12,16.28-44.21,24.25-66.38,1.23-3.43,3-4.72,6.61-4.57,6.19.25,12.4.26,18.58,0,3.66-.16,5.35,1.3,6.57,4.65,11.18,30.64,22.53,61.22,33.81,91.83,8.2,22.24,16.36,44.5,24.56,66.75,2.13,5.79,2.08,5.9-4.26,5.92-2.87,0-5.74,0-8.61,0ZM928.67,267.77c-6.55,22.6-14.83,44.46-22.57,66.5-1.08,3.09.32,3.67,2.99,3.65,10.43-.05,20.85-.02,31.28-.02,11.51,0,11.41.03,7.93-10.66-6.44-19.8-14.16-39.17-19.63-59.47Z"/>
        <path class="cls-1" d="M350.54,275.8c1.87,2.09,1.36,3.99,1.37,5.73.05,10.27.14,20.54-.03,30.81-.06,3.59,1.29,4.71,4.78,4.68,14.5-.14,29.01.12,43.52-.13,24.03-.41,36.61-23.08,24.62-44.05-.99-1.72-2.2-3.22-3.73-4.51-3.54-2.99-3.74-5.32-.28-8.27,1.99-1.7,3.33-3.42,3.14-6.08-.06-.85.14-1.63,1.1-1.51.87.1,1.19.97,1,1.75-.4,1.71.1,3.17.97,4.86,1.92-3.51,2.64-6.6-1.06-9.17-2.68-1.86-7.86-1.21-10.24,1.4-1.32,1.44-2.38,3.28-5.09,1.95,1.98-4.62,6.87-7,8.82-11.67.64-1.54,3.04-.45,4.61.02,18.54,5.56,31.36,22.16,32.16,41.66.39,9.36-1.08,18.33-5.45,26.75-4.55,8.76-12.03,14.04-21.53,18.02,4.16,2.01,7.72,3.87,10.65,6.68,7.72,7.41,9.74,17.1,10.95,27.12,1.25,10.33,1.47,20.77,3.57,31,.76,3.69,1.45,7.34,3.64,10.61,1.94,2.91.7,4.53-2.71,4.53-6.95.01-13.9.02-20.85-.01-4.57-.02-5.66-3.55-6.48-6.94-2.15-9-2.33-18.23-2.88-27.41-.33-5.43-.73-10.86-2.15-16.12-2.85-10.56-9.72-16.24-20.59-17.57-5.11-.63-10.22-.86-15.36-.83-9.97.06-19.95.17-29.92-.06-3.96-.09-5.25,1.18-5.22,5.17.17,19.03.08,38.06.07,57.09q0,6.69-6.82,6.7c-5.14,0-10.28-.08-15.41.02-2.94.06-4.46-.83-4.45-4.09.06-32.47.05-64.95.01-97.42,0-2.44.6-3.86,3.39-4.29,2.78-.43,5.17-2.11,7.59-3.64-1.49-2.46-2.64.96-3.9-.15-.1-.27-.35-.6-.28-.81,2.53-7.33-.86-13.32-4.42-19.22-1.28-2.12-2.04-4.47-2.2-6.75-.36-4.96-.15-9.96-.13-14.94,0-.84-.12-2.05,1.13-2.06.97-.01,1.49.9,1.78,1.8,2,6.11,5.51,10.98,10.96,14.61,1.91,1.27,2.04,3.85,1.09,6.11-.65,1.56-1.43,3.15-.14,4.67,1.07,1.27,1.5,3.75,3.95,2.91,1.86-.64,2.84-2.03,2.36-4.25-.84-3.85,4.35-1.25,4.09-4.69Z"/>
        <path class="cls-1" d="M776.44,238.97c11.18,0,22.35-.04,33.53,0,32.48.15,53.33,26.9,49.36,57.71-3.49,27.11-21.39,42.71-48.82,43.23-14.34.28-28.69.21-43.04.01-4.2-.06-6.05,1.01-5.84,5.53.11,2.4,1.75,5.87-1.61,7.23-3.49,1.41-6.99,1.6-10.61-1.05-1.88-1.38-5.15-.21-7.74.35-6.32,1.38-7.17.75-7.24-5.65,0-.6,0-1.21,0-1.81,0-32.6,0-65.2,0-97.81q0-7.8,7.58-7.81c11.48,0,22.95,0,34.43,0v.04ZM787.27,262.9v-.12c-7.1,0-14.2.04-21.3-.02-2.72-.03-4.25.82-4.23,3.86.06,15.85.04,31.71.01,47.56,0,2.4.88,3.69,3.44,3.62,14.78-.38,29.59.91,44.35-.8,15.44-1.78,24.01-12.18,23.49-28.4-.49-15.3-10.06-25.09-25.38-25.66-6.79-.25-13.59-.04-20.39-.04Z"/>
        <path class="cls-1" d="M679.46,280.72c-4.92,15.89-11.16,31.24-17.12,46.69-2.55,6.62-5.19,13.21-7.6,19.88-.8,2.2-1.88,2.65-3.94,1.2,1.95,7.37,1.04,9.55-5.54,13.88,3.6.83,3.38,3.89-.59,8.29-.91-.48-.69-1.2-.38-1.91.29-.67.64-1.31.43-2.16-1.5,2.03-4.44,3.52-1.88,7,1.94,2.64-.02,4.96-1.35,6.97-.98,1.48-2.06-.12-2.92-.82-1.47-1.2-1.78-3.5-4.05-4.04,3.35,2.08,1.68,6.8,5,9,.82.55.03,2.02-.33,2.98-2.14,5.65-4.4,11.25-6.49,16.91-.92,2.49-2.48,3.59-5.13,3.44-2.11-.12-4.23.02-6.34-.02-12.62-.25-9.54,1.93-14.35-9.73-1.73-4.19-3.33-8.42-4.85-12.69-.45-1.27-1.74-3.45.33-3.81,1.65-.29,3.36-3.46,5.61-.16,1.35,1.99,4.04,3.04,6.63,3.6,1.92.42,4.11-.37,4.02-1.84-.35-5.72,3.97-9.49,5.42-14.52,10.13-35.14,24.02-68.97,36.91-103.15,2.88-7.62,5.77-15.24,8.47-22.93,1.02-2.9,2.71-3.94,5.72-3.89,8.31.14,16.62.17,24.93,0,3.64-.08,4.68,1.48,4.67,4.88-.08,22.05-.02,44.1-.09,66.15,0,1.21.98,3.72-1.42,3.36-1.67-.25-4.14-2.37-2.79-4.29,3.33-4.73-1.62-6.75-2.65-9.99-.3-.94-1.67-1.65-2.09-.86-1.76,3.3-7.64-.61-8,4.74-.02.29,0,.7.19.86,4.16,3.85,3.74,10.17,7.74,14.17,1.41,1.41,2.5,2,4.27,1.04,3.28-1.78,4.48.08,4.73,2.95.22,2.55.09,5.13.09,7.7,0,24.16-.09,48.33.08,72.49.03,4.43-1.13,6.35-5.85,6.02-5.11-.36-10.27-.19-15.4-.05-3.2.09-4.64-.95-4.64-4.38.11-39.42.11-78.83.17-118.25,0-1.56.27-3.13.41-4.69Z"/>
        <path class="cls-1" d="M1372.88,316.57c5.25-9.5,10-18.57,15.19-27.38,9.19-15.61,18.69-31.04,27.95-46.61,1.57-2.65,3.49-3.78,6.58-3.7,6.49.17,12.99.03,19.48.07,1.31,0,3.03-.56,3.81.7.83,1.34-.63,2.49-1.31,3.59-15.9,25.67-31.35,51.64-47.95,76.85-7.96,12.09-12.29,24.12-11.23,38.77,1.06,14.57.14,29.28.29,43.92.04,3.88-1.17,5.48-5.2,5.28-5.27-.26-10.59-.35-15.85.02-4.82.35-5.8-1.72-5.76-6.07.18-19.78.03-39.56.13-59.34.02-3.46-.82-6.39-2.66-9.34-18.62-29.84-37.14-59.76-55.66-89.67-.76-1.22-2.33-2.48-1.38-4.01.77-1.23,2.5-.71,3.82-.72,6.65-.04,13.3.15,19.94-.09,3.47-.12,5.55,1.15,7.28,4.11,13.85,23.72,28.7,46.87,41.1,71.43.27.53.65,1,1.43,2.17Z"/>
        <path class="cls-1" d="M1066.05,360.86c-1.25,3.69-1.56,7.21-1.58,11-.03,5.36-1.45,10.68-.97,16.13.09,1.01-.69,2.55-2.16,2.51-2.07-.07-3.26.75-4.35,2.49-1.2,1.91-2.16-.7-3.5-.76,2.38,7.18-4.98,6.95-7.21,11.08-1.31-2.39-.84-4.23-.85-5.97-.03-42.6-.02-85.2-.03-127.79q0-6.66-6.82-6.67c-13.9,0-27.81-.12-41.71.07-4.29.06-6.08-1.37-5.86-5.73.24-4.67.12-9.36.05-14.05-.05-3.04,1.22-4.36,4.35-4.29,5.89.13,11.79.03,17.68.03,35.97,0,71.93,0,107.9,0,6.05,0,6.16.12,6.2,5.99.02,4.08-.21,8.17.06,12.23.28,4.27-1.24,5.87-5.66,5.81-14.5-.21-29.02.06-43.52-.16-4.24-.06-5.43,1.44-5.4,5.51.14,24.02.06,48.04.08,72.05,0,2.74-.08,5.35-1.73,7.79-1.34,1.99-1.17,4.31-.22,6.52.53,1.25,1.25,2.46,1.5,3.77.39,1.98,1.51,4.51-.7,5.77-2.09,1.19-2.91-1.43-4.2-2.54-.32-.28-.73-.45-1.36-.82Z"/>
        <path class="cls-1" d="M118.29,288.32c-.15,0-.3,0-.45,0-3.61-.11-7.57.67-10.75-.56-3.55-1.36-2.4-6.09-3.66-9.22-3.48-8.61-9.16-14.93-18.01-17.94-13.81-4.7-27.61-4.7-41.03,1.42-7.16,3.26-11.06,9.04-11.61,17.03-.57,8.32,3.05,14.2,10.11,18.27,8.39,4.84,17.79,6.57,27.03,8.74,11.6,2.72,23.37,4.83,34.57,9.06,5.53,2.09,10.71,4.89,15.45,8.46,1.32,1,2.84,2,2.3,4.01-.51,1.87-1.7,2.9-3.72,3.47-3.52.99-6.81.37-10.2-.47-4.29-1.06-10.7,3.48-10.74,7.83-.02,2.13-.85,2.04-2.1,1.47-17.32-7.98-36.54-9.22-54.39-15.34-9.87-3.39-19.07-7.87-25.6-16.3-17.2-22.19-8.18-54.76,18.18-66.34,8.55-3.76,17.55-5.4,26.77-6.24,2.67-.24,4.69,1.03,6.42,2.75,1.93,1.93,3.4,1.83,4.44-.69.53-1.29,1.19-2.04,2.65-1.87,1.59.18,1.51,1.35,1.87,2.55,1.07,3.58,3.45,4.24,5.87,1.26,2.07-2.55,4.07-2.42,6.74-1.76,24.04,5.98,38.58,21.68,42.57,45.67.64,3.87-.57,4.93-4.1,4.76-2.86-.14-5.74-.03-8.61-.03Z"/>
        <path class="cls-1" d="M184.64,311.85c2.42-4.02,5.35-3.78,8.16-3.78,22.96-.01,45.92,0,68.87-.01q6.44,0,6.46-6.54c0-4.89,0-9.78,0-15.14,1.93,1.22,1,3.6,3.01,3.82.97.1,1.38-.63,1.4-1.4.05-1.91.83-5.04-1.04-5.36-5.14-.86-2.9-4.46-3.35-7.07-.13-.73-.01-1.51.05-2.26.06-.74.13-1.64,1.04-1.76.95-.13,1.16.8,1.43,1.47.1.24-.05.58-.07.88-.13,2.12,2.14,2.15,2.99,3.42.45-.34,1.11-.59,1.3-1.03.69-1.63.74-3.21-.83-4.49-3.38-2.76-7.16-5.32-5.91-10.63.25-1.05-.9-2.99,1.69-2.78.89.07.78-.73.33-1.27-4.32-5.19-1.3-11.2-1.8-16.8-.17-1.96,1.81-2.13,3.35-2.13,6.49-.03,12.99,0,19.48-.02,2.1,0,3.55.69,3.56,3.06.01,4.23.16,8.46-.04,12.68-.14,2.95-1.68,3.5-3.66,1.23-.9-1.03-1.7-1.67-3.05-1.22-.78.26-2.04-.22-2.16,1.1-.09,1.01.67,1.87,1.57,1.93,3.41.23,3.15,2.49,2.96,4.85-.1,1.23-.03,2.75,1.12,3.26,4.06,1.78,3.27,5.24,3.28,8.48,0,4.53.17,9.06-.03,13.58-.06,1.42,1.66,5.04-2.73,3.39-.73-.28-.75.75-.74,1.32.01.9,0,2.08,1.2,2.05,2.53-.08,1.96,1.66,2.06,3.09.4,5.42.99,10.85-1.53,15.99-.61,1.25-.5,2.29.62,3.21,1.5,1.23.61,2.49-.15,3.57-.95,1.35-2.15.63-3.21.05-1.15-.62-2.34-2.08-3.55-.76-.96,1.04-.13,2.66.29,3.86.7,1.99,1.54,3.9,1.69,6.06.08,1.09.72,2.3,1.84,2.31,5.02.03,4.28,3.59,4.28,6.7.01,21.14-.1,42.27.09,63.41.04,4.51-1.25,6.27-5.9,5.96-5.11-.35-10.28-.33-15.4,0-4.49.28-5.61-1.56-5.58-5.78.16-21.89-.05-43.78.18-65.67.05-4.67-1.44-5.9-5.95-5.84-16.91.23-33.83.1-50.75.08-1.5,0-3.05.04-4.5-.3-1.4-.33-2.5-1.52-2.22-2.98.31-1.65,1.69-.68,2.59-.48,1.69.38,1.95-.67,1.66-1.78-.49-1.84-1.68-3.27-3.76-3.26-1.75,0-3.06,1.14-4.28,2.3-.96.91-2.08,1.34-3.25.47-1.05-.77-.78-1.77-.32-2.84,1.04-2.46-.53-5.17-1.81-5.99-3.07-1.96-5.53-5.72-10.99-4.17Z"/>
        <path class="cls-1" d="M562.4,280.89c.23,3.22.64,6.43.66,9.65.11,15.1.15,30.21.12,45.31,0,1.71.88,3.86-2.4,4.36-2.68.4-3.69-.27-4.32-2.7-.89-3.5-4.18-.72-6.14-1.95-.4-.25-.48,2.57-.43,4.01,0,.14.08.29.15.43.76,1.46,2.01,3.09-.06,4.31-2.73,1.62-2.24-2.14-4.2-2.58-1.18,1.6-1.23,4.12-3.18,5.46-1.3.9-.89,2.19-.21,3.23,2.97,4.54,2.05,7.76-3.8,9.68,0-6.06-.56-12.2.22-18.17.42-3.25-.4-6.17-.38-9.25.11-29.15.06-58.3.07-87.46,0-6.2.1-6.28,6.37-6.29,7.56-.01,15.11.05,22.67-.03,2.52-.03,4.26.58,5.24,3.21,15.23,41.2,32.76,81.56,45.52,123.67.39,1.3.78,2.61.99,3.94.21,1.3-.4,3.03-1.68,2.58-4.63-1.63-7.98,2.07-12.1,2.46-3.97.37-7.12-.55-8.87-4.25-5.06-10.65-8.79-21.84-12.99-32.83-7.19-18.84-15.25-37.37-21.24-56.8Z"/>
        <path class="cls-1" d="M1184.94,330.53c-1.13.19-1.57.31-2.01.33q-9.35.34-9.35,9.51c0,20.69-.11,41.38.08,62.07.04,4.4-1.42,5.88-5.73,5.64-5.42-.3-10.88-.22-16.31-.02-3.59.13-4.77-1.36-4.74-4.81.11-13.14.04-26.28.04-39.42,0-39.42,0-78.84,0-118.26,0-6.61.02-6.62,6.47-6.63,4.68-.01,9.37-.02,14.05,0,6.09.02,6.13.03,6.13,5.98.02,19.03,0,38.06.01,57.09,0,6.01.03,5.87,6.04,6.12,2.49.1,5.98-1.49,7.22,1.9,1.5,4.11.83,8.11-2.61,11.39-4.4,4.19-4.29,6.41.71,9.11Z"/>
        <path class="cls-1" d="M481.28,323.28c0-26.1,0-52.21,0-78.31,0-5.96.07-6.01,6.1-6.03,5.43-.02,10.87.1,16.3-.03,3.11-.07,4.29,1.19,4.28,4.28-.06,32.74-.01,65.49-.14,98.23,0,1.33,1.39,4.1-2.36,3.99-1.55-.04-.43,1.98.11,2.22,2.52,1.13,2.36,3.24,2.36,5.36,0,16.6-.09,33.2.07,49.79.04,3.86-1.11,5.49-5.16,5.29-5.42-.27-10.88-.3-16.3,0-4.34.25-5.35-1.62-5.34-5.58.12-26.41.06-52.81.06-79.22Z"/>
        <path class="cls-1" d="M1277.13,320.65c-2.45.17-4.32-.44-6.2.51-1.52.77-2.68-.49-3.49-1.45-1.16-1.37.69-1.47,1.21-2.19,1.82-2.52.56-4.7-.99-6.81-2.34-3.21-6.01-5.55-6.79-9.76-.52-2.85-.9-5.39-4.53-5.96-1.17-.18-1.36-1.9-1.37-3.12-.03-5.28-.03-10.57.04-15.85.01-.86.22-2.08.8-2.51,4.1-3.06,2.78-6.03.14-9.14-.92-1.08-1.02-2.5-1.02-3.87-.02-5.74.04-11.47-.04-17.21-.04-2.97,1.05-4.45,4.24-4.38,6.34.13,12.69.11,19.03.01,2.92-.04,4.16,1.25,4.04,4.08-.04.9.01,1.81.01,2.72,0,51.78,0,103.56,0,155.35q0,6.94-7.04,6.95c-5.29,0-10.57-.1-15.86.03-3.03.08-4.45-1.04-4.43-4.18.06-11.62-.05-23.25.05-34.87.04-4.23,3.84-6.97,7.89-5.86,1.26.35,2.05.05,2.69-.93.97-1.48,1.64-3.54.41-4.63-2.48-2.19,1-4.09-.32-6.49-1.64-2.97,2.7-3.27,3.42-4.67,2.06-3.99,5.05-7.55,6.29-11.94.93-3.29,2.02-6.34-1.38-9.45-1.75-1.6,1.23-3.06,3.17-4.37Z"/>
        <path class="cls-1" d="M14.1,350.51c3.28.27,7.68-1.27,10.97.64,3.44,2.01,2.22,6.86,3.25,10.4,4.41,15.17,16.52,24.77,33.94,26.97,10.02,1.27,19.84,1.05,29.51-2.12,1.09-.36,2.75-1.19,3.21.17.62,1.83-1.28,1.38-2.34,1.6-2.93.61-2.96,2.71-2.12,4.84.67,1.69,1.98,3.23,3.67,3.86,3.58,1.33,5.67,3,2.89,6.88-.17.24-.4.69-.31.81,5.09,6.46-2.46,4.53-3.8,4.79-21.43,4.18-42.32,2.92-62.1-7.29-8.62-4.45-15.69-10.7-20.99-18.83-1.25-1.92-3.98-3.88-1.01-6.61.53-.49.16-1.27-.45-1.43-5.99-1.55-5.49-7.08-6.57-11.28-3.41-13.37-3.23-13.41,10.27-13.41h1.99Z"/>
        <path class="cls-1" d="M184.58,301.38c-1.05-.37-1.72.11-2.19,1.01-.59,1.13-1.58,1.47-2.67,1.03-1.59-.64-.59-1.68-.23-2.59.62-1.56-.06-2.62-1.4-3.33-1.26-.67-2.55-.98-3.72.24-1.14,1.18-2.56,2.15-2.88,3.93-.17.92-.51,2.03-1.66,1.57-3.3-1.31-4.78.28-5.61,3.17-.18.61-.56,1.17-1.26.86-1.04-.46-1.42-1.35-1.63-2.5-3.61-20.09-.9-40.35-1.79-60.51-.19-4.17,1.45-5.6,5.56-5.4,5.72.28,11.47.22,17.19.02,3.78-.13,4.56,1.78,4.55,5.01-.06,19.3-.02,38.6-.06,57.9,0,1.25.6,3.16-1.11,3.5-1.78.36-2.62-.67-1.27-2.42.36-.47.82-.91.19-1.5Z"/>
        <path class="cls-1" d="M180.86,341.43c-4.5,2.41-6.09-.16-7.07-3.76-.35-1.27.21-2.58,1.34-2.15,3.44,1.31,5.29-1.37,7.72-2.59,2.58-1.3,4.03-1.39,4.01,2.34-.12,22.65-.1,45.3-.03,67.95.01,3.42-1.13,4.94-4.74,4.82-6.19-.2-12.39-.12-18.58-.04-2.66.03-3.56-1.15-3.99-3.72-1.1-6.49,1.98-10.87,6.72-14.48,1.15-.87,2.05-1.7,2.36-3.12.23-1.08.69-1.76,1.99-2.07,4.21-1.01,5.99-3.75,4.13-7.7-2.77-5.88-1.82-10.26,3.14-14.34,2.18-1.79,3.82-4.28,1.85-7.54-.69-1.13-.31-2.67.42-3.91.81-1.38,1.22-2.44-.44-3.8-2.53-2.08,1.18-3.46,1.16-5.9Z"/>
        <path class="cls-1" d="M359.8,260.49c3.46-1.31,6.5-4.49,10.87-1.69,1.62,1.04,1.76-.51,2.07-1.37.7-1.92,1.61-3.51,4.67-3.09-1.41-1.2-2.36-1.64-2.64-2.34-.43-1.07,4.94-10.04,6.12-10.31,1.42-.33,2.33-1.34,3.46-2.07,1.08-.71,3.32-.73,3.29-.34-.32,4.44,2.92,2.61,4.9,3.05.5.11,1.23.79,1.24,1.21.02,2.66,1.28,4.3,3.41,5.89,1.51,1.13.99,2.66-1.11,3.74-2.73,1.41-3.58,3.64-.48,5.79.81.56,1.54,1,1.13,2.08-.31.84-1.14.97-1.88.97-11.59.02-23.18.02-34.77.02-.1-.51-.19-1.02-.29-1.53Z"/>
        <path class="cls-1" d="M541.7,392.27c2.42-1.06,4.92-2.28,6.94-4.36,1.05-1.08,2.05-2.19,3.86-.94,1.35.93,3.13,1.33,2.71,3.55-.06.29-.03.61,0,.9.49,3.96,2.93,8.9-5.24,8.93,5.33-.04,3.85,3.99,4.92,6.29.26.57-.34,1.09-1.02,1.18-.6.08-1.21.2-1.8.14-4.27-.43-10.3,2.11-12.46-1.24-2.99-4.65-1.03-11.11-.86-16.79.02-.71.43-1.68,1.34-1.52,2.38.44-.15,2.81,1.61,3.84Z"/>
        <path class="cls-1" d="M1234.43,330.85c-3.62,0-7.24.04-10.86-.02-1.16-.02-2.59.07-2.87-1.54-.22-1.26.71-1.89,1.74-2.31,2.61-1.06,3.88-2.25,1.19-4.82-1.24-1.19-.35-2.82.63-4.09,1.75-2.25,2.27-4.22-.94-5.78-1.14-.55-2.53-1.56-1.99-3.16.49-1.42,2.03-.98,3.18-1.05,1.2-.07,2.42-.05,3.62,0,1.78.07,3.79-.2,4.51,2.09.77,2.42-1.62,1.98-2.62,2.78-3.11,2.47-2.5,5.45.68,7.96,3.6,2.83,6.76,3.33,11.16,1.78,4.81-1.7,7.03.28,6.94,4.55-.05,2.44-1.03,3.67-3.5,3.62-.3,0-.6.02-.91.02-3.32,0-6.64,0-9.96,0v-.03Z"/>
        <path class="cls-1" d="M129.56,368.19c.02-1.2,1.22-.51,1.6-.96.83-.99-2.02-13.41-3.18-14.11-.97-.58-2.58-.52-2.47-2.19.16-2.56-3.46-5.64-.33-7.34,2.22-1.21,2.94,3,4.88,4.24,1.36.87,2.08,2.81,3.79,3.08,2.02.32,2.21,1.59,2.5,3.16.66,3.6.83,7.2.34,10.82-.79,5.82-1.66,6.21-7.12,3.31Z"/>
        <path class="cls-1" d="M101.56,397.51c.89-3.65-.22-7.83,3.01-10.87.6-.57.67-1.77,1.85-1.61,1.12.15,1.92.94,2.38,1.89,2.31,4.85,1.21,9.37-3,12.54-.83.62-1.68,1.57-2.77,1.12-1.24-.52-1.37-1.84-1.46-3.06Z"/>
        <path class="cls-1" d="M1262.62,314.46c-1.03,1.95-.44,2.83,1.57,3.7,1.94.85,1.04,2.19-.5,2.79-3.29,1.26-11.93-5.4-11.54-8.83.11-.96.71-2.23,1.37-2.07,3.08.72,6.09,1.76,9.08,2.79.18.06.02,1.09.02,1.62Z"/>
        <path class="cls-1" d="M748.7,407.99c-.9,0-1.8-.03-2.7,0-2.18.08-4.04-.55-4.18-3-.16-2.85,2.14-2.71,4.09-2.88,1.33-.11,2.7-.18,3.98-.53,3.07-.82,5.54.57,5.9,3.22.39,2.88-2.52,3.14-4.86,3.19-.75.01-1.5,0-2.25,0Z"/>
      </g>
    </g>
  </g>
</svg>