<?xml version="1.0" encoding="UTF-8"?>
<svg id="Layer_2" data-name="Layer 2" xmlns="http://www.w3.org/2000/svg" viewBox="0 0 855.09 694.49">
  <defs>
    <style>
      .cls-1 {
        fill: #e41f1b;
      }

      .cls-1, .cls-2 {
        stroke-width: 0px;
      }

      .cls-2 {
        fill: #bfbebf;
      }
    </style>
  </defs>
  <g id="Livello_1" data-name="Livello 1">
    <g>
      <g>
        <path class="cls-2" d="M316.14,678.88c-1.85,1.79-3.83,2.83-6.6,2.23-12.69-2.73-25.48-5.41-36.89-11.78-4.79-2.67-8.6-5.95-14.69-6.92-5.26-.84-11.75-2.81-15.35-8.34-.07-.11-.21-.27-.3-.25-6.78.89-10.21-6.01-16.51-6.87-8.11-1.11-14.88-6.09-21.6-10.4-6.93-4.44-14.54-7.5-21.47-11.85-.11-.07-.29-.08-.37-.17-5.39-6.32-13.74-7.88-20.28-12.47-4.87-3.42-9.88-6.57-14.22-10.67-4.1-3.87-8.22-7.71-12.16-11.73-1.04-1.06-2.2-1.58-3.46-2-4.79-1.62-8.37-5.05-12.24-8.06-.51-.4-1.21-1.1-1.17-1.6.63-7.61-6.63-9.18-10.35-13.36-3.95-4.45-8.89-7.95-13.55-11.69-2.37-1.9-4.69-4.44-2.78-7.69,1.78-3.03,5.05-3.73,8.51-3.57,1.35.06,3.28,2.1,4.02-.71.59-2.21-1.04-3.06-2.75-3.88-1.91-.91-4.32-1.65-3.02-4.74.16-.38-.09-1.2-.43-1.47-4.76-3.82-.24-5.34,2-6.66,1.9-1.12,3.07-2.47,4.14-4.23.61-1,1-1.55-.35-2.15-3.24-1.45-1.83-3.38-.01-4.51,2.74-1.72,1.64-4.04,1.48-6.18-.14-1.82-1.52-1.06-2.51-.79-2.89.8-5.76,1.7-8.66,2.46-1.58.41-3.21.77-4.84.2-.89-.31-2.11-.46-2.24-1.51-.16-1.25,1.27-1.18,2.01-1.67,3.59-2.35,6.88-5.08,11.21-6.32,3.2-.92,6.46-1.97,9.64-2.72,3.61-.85,6.38-2.39,8.49-5.11,2.48-3.2,6.66-5.06,7.35-9.79.2-1.34,2.33-.95,3.67-.71,4.63.82,8.93,2.57,12.92,4.97,4.41,2.65,9.12,2.63,13.89,1.94,1.71-.25,3.96-.31,4.08-3.1.07-1.77,1.59-1.59,2.8-1.47,3.45.33,5.7,2.81,5.79,6.69.06,2.68.48,4.87,3.48,5.69,1.68.45,1.89,1.41,1.27,3.11-1.3,3.51-3.17,6.61-5.54,9.46-1.31,1.58-1.67,3.33.17,4.62,1.86,1.3,2.62.01,3.04-1.73.09-.36.8-.61,1.27-.83,4.8-2.32,10.22-4.07,9.95-10.97,4.15-1.61,3.34-7.99,8.46-8.74,1.32-.19,1.15-2.59,2.96-2.42.51,5.34,2.74,9.38,7.76,11.95,4.58,2.35,9.57,3.81,13.89,6.74,2.14,1.45,4.83,1.27,7.15.47,3.86-1.33,7.96-2.16,11.43-4.39,2.58-1.66,4.39-.84,6,1.19,1.52,1.92,2.99,3.91,4.27,5.99,2.77,4.49,6.89,6.41,11.98,6.64,6.56.3,9.4,2.31,11.64,8.31.14.38.13,1.03.37,1.13,3.04,1.35,4.09,3.36,3.16,6.75-.38,1.39,1.52,1.09,2.53,1.09,1.82,0,2.85.72,2.75,2.67-.09,1.84-1.37,2.2-2.82,2.27-1.49.07-3.18.35-4.36-.65-2.14-1.79-2.91-1.15-3.44,1.3-.31,1.43-.8,3.21-1.85,4.01-4.86,3.73-5.35,9.16-6.38,14.51-.71,3.71.84,5.56,4.23,5.99,2.24.28,3.52.88,3.51,3.44,0,2.7,2.01,4.36,3.83,6.03,2.32,2.13,2.49,3.61-.91,4.93-3.73,1.45-4.19,4.69-1.38,7.33,3.88,3.64,3.99,6.82.06,10.5-1.4,1.32-2.7,2.04-.03,3.31,1.62.77,1.65,2.15.3,3.27-2.49,2.08-3.18,4.14-.92,6.96.87,1.08.98,2.8,1.32,4.26.4,1.78,1.48,2.54,3.24,2.36,4.09-.41,6.85,1.42,8.33,5.13,1.32,3.3,2.92,3.11,6,1.74,3.97-1.77,7.22-4.44,10.39-7.08,2.13-1.78,3.33-4.93,4.39-7.68.99-2.55,2.27-2.82,4.31-1.56,3.21,1.99,6.52,1.68,9.83.43,1.29-.49,2.59-1.33,2.39-2.93-.16-1.31-1.54-1.41-2.58-1.58-4.55-.79-8.76-2.79-13.21-3.94-3.45-.9-7.46-2.69-10.61-5.22-1.29-1.04-1.67-2.44-1.34-4.04.2-.95.45-1.99,1.41-2.36,1.42-.55,1.31,1.01,1.87,1.63.54.6.86,1.4,1.36,2.04.7.91,1.53,1.78,2.64.54,1.01-1.12.46-1.98-.65-2.64-4.32-2.55-4.31-6.53-3.59-10.76.51-3.03,2.58-4,5.08-3.03,5.65,2.19,11.34,3.87,17.45,3.92.94,0,2.01.38,2.23,1.46.22,1.04-.96,1.16-1.52,1.67-2.67,2.43-6.06,4.34-4.3,9.07.79,2.13,2.47,3.16,3.83,4.61.77.82,1.89,1.39,2.96.91,1.58-.71.29-1.86.16-2.82-.48-3.53,1-4.86,4.52-3.67,4.26,1.44,8.42,3.17,12.63,4.78,2.42.93,3.55,2.86,4.07,5.25.29,1.36.62,3.08,1.93,3.42,2.98.76,6.08.59,7.78,4.19.56,1.19,2.77-.04,3.75-1.29,1.23-1.56,2.72-2.03,4.68-1.76,3.59.49,6.49-.36,7.6-4.37.52-1.87,1.97-2.89,3.79-3.37.66-.18,1.48-.09,1.97-.46,1.42-1.08,4.24-1.12,3.93-3.51-.3-2.3-2.79-2.22-4.62-2.54-.93-.16-1.94-.23-2.86-.06-6.23,1.16-9.47-3.93-13.62-6.78-2.37-1.63-1.74-5.12-.84-7.67.79-2.24,3-2.92,5.4-2.92,2.94,0,6.04.63,8.47-1.91.36-.38,1.78-.48,1.88-.28,1.71,3.33,7.48,2.56,7.53,7.48,0,.81-.11,1.76.97,1.96,1.07.19,1.67-.42,2.2-1.39,2.04-3.8,6.14-4.69,9.59-6.45.93-.48,2.19-.31,3.17.3,4.18,2.59,5.46,2.72,10.23,1.03.9-.32,1.84-.48,2.75-.77,2.69-.84,4.11-2.07,2.92-5.37-2.06-5.74,1.42-11.34,7.61-12.57,1.55-.31,2.87-2.79,4.29-1.24,1.43,1.56-1.64,2.78-1.34,4.75.24,1.58-2.09,2.02-2.49,4.13,3.42-.94,6.22,1.4,9.46,1,1.64-.2,2.23.65,2.32,2.1.04.68.04,1.36.07,2.05.21,5.55.21,5.31-5.46,5.39-4.34.06-8.67.58-11.01,5.38-1.53,3.13-3.61,1.35-5.23-.14-1.03-.94-1.25-3.91-3.27-1.86-.94.95-5.43.56-2.45,4.54,1.1,1.47-1.69,4.19-2.98,6.13-2.5,3.8-2.45,4.5,1.65,6.57,1.13.57,1.6,1.44,1.68,2.59.16,2.46,1.73,3.67,3.87,4.14,2.12.46,3.23-1.04,4.1-2.67,1.74-3.27,4.56-3.04,7.46-2.23,3.9,1.09,6.87.11,8.46-3.67.99-2.36,2.14-3.5,4.72-3.55,1.14-.02,2.25-.86,3.39-1.29,1.28-.49,2.64-2.7,3.75-1.23,1.25,1.65,3.73,2.9,2.92,5.89-.64,2.39-.63,4.95-.91,7.43,2.75.07,5.03-1.77,7.2-2.78,3.05-1.42,6.12-2.6,9.22-3.86,1.89-.77,3.43-1.3,5.36-.76,2.92.81,5.04.86,7.06-2.54,1.6-2.69,5.53-2.26,8.44-.96,1.29.58,2.83,1.15,3.13-.03,1.07-4.14,4.83-3.19,7.42-4.38,3.39-1.55,6.73-2.88,10.44-.25,2.46,1.74,4.17.35,4.51-2.43.23-1.81-.04-3.54-2.66-2.39-.96.42-1.94.7-2.34-.58-.28-.91.48-1.47,1.21-1.9,3.94-2.27,7.73-4.86,12.36-5.59.26-.04.67-.08.76-.24,2.43-4.92,6.79-4.21,11.05-3.81.13.01.3.03.4-.04,1.94-1.21,3.52-4.24,6.15-2.51,1.89,1.24,1.47,4.45,3.67,6.11,1.29.97-.22,5.82-1.7,6.55-1.78.88-3.75-.65-3.67-2.91.05-1.32.86-2.62.14-3.97-.05-.1-.21-.15-.57-.39-3.25,3.05-4.73,6.62-3.64,11.16.76,3.19.31,6.24-1.38,9.07-.94,1.57-2.19,2.5-3.11.14-.89-2.29-2.93-2.42-4.73-3.88-.79,3.66,1.75,4.88,3.33,6.09,2.22,1.7,2.78,3.43,2.14,5.97-.26,1.01-.88,2.29-.09,3.16,3.03,3.33-.06,4.17-2.13,5.17-1.65.8-2.8,1.68-2.64,3.63.07.81.48,2.13,1.3,1.51,3.75-2.86,7.68-.57,11.5-.69,5.09-.16,10.14-1.22,15.24,1.12,2.2,1.01,5.36.29,8.01-.15,2.64-.44,4.43.23,6.01,2.33,2.19,2.92,4.67,3.17,7.3.77,1.41-1.28,2.51-1.42,3.74.11.93,1.17,2.4,2.13,2.83,3.44,1.54,4.7,4.94,5.67,9.29,5.34,1.87-.14,3.78-.51,5.64.38,1.23.59,2.35.09,3.39-.75,1.8-1.46,3.62-2.89,5.51-4.22,3.49-2.45,5-2.08,7.18,1.55.53.88.72,2.11,2.05,2.32.74-4.78,2.35-5.31,6.57-2.52,2.81,1.86,4.22,4.96,6.77,7.02.72.58,1.43,2.07,2.18,1.52,3.99-2.9,6.79,1.51,10.22,1.39,1.54-.06,6.3,3.56,3.67-2.73-.61-1.46,1.06-3.02,2.65-3.71,3.07-1.32,4.82-4.12,7.18-6.07,3.75-3.12,6.71-5.32,4.87-10.83-.55-1.66,1.73-3.23,4.05-2.9,1.77.25,3.05.19,3.65-2.09.53-2.03,2.13-1.42,2.95-.06.76,1.25,1.5,2.8,1.46,4.19-.1,3.85,1.09,5.29,5.29,4.9,3.1-.28.44,2.39.89,3.62.99,1.62,3.75-1.97,4.1,1.36.23,2.23-1.58,2.59-3.12,3.12-.77.26-1.59.4-2.35.69-.61.23-1.18.59-2.15,1.1,2.06,1.87,4.79,1.75,6.55,3.52.99.99,1.99-.41,2.68-1.13,1.81-1.87,3.56-2.17,6.21-1.33,6.72,2.14,9.68-.72,8.41-7.76-.26-1.42-.2-2.4,1.23-2.98,4.33-1.76,4.31-6.32,6.2-9.66-3.68-3.39.5-5.92,1.21-8.65,1.21-4.65.94-9.91,4.59-13.73,1.75-1.83-.86-3.09-.65-4.65,1.68-.72,1.9.88,2.72,1.39,1.44.9,2.7,1.7,3.15-.92.28-1.66,1.45-2.98,3.08-2.69,2.84.5,4.39-.53,5.36-3.08.4-1.05,1.53-2.11,2.51-1.78,3.61,1.2,8.49.02,10.67,3.65,1.8,2.99,3.14,6.89.5,10.57-.67.93-1.62,2.07-.71,3.36,1,1.41,2.25.16,3.38.17.49,0,.97.08,1.73.46-4.02,1.66-5.56,4.86-6.78,8.63-1.11,3.41-4.63,4.89-7.46,6.73-4.45,2.89-9.27,5.25-11.5,10.6-.63,1.52-2.29,2.36-3.83,2.93-3.31,1.23-6.27,2.27-7.67,6.38-.99,2.94-5.12,1.69-7.73,2.67-8.98,3.35-18.55,4.55-27.63,7.51-.62.2-1.49.54-1.69,1.04-1.95,4.84-7.39,5.88-10.37,9.59-.64.8-1.77,1.47-2.78,1.65-8.09,1.39-14.39,6.46-21.13,10.46-4.44,2.64-8.57,5.98-12.02,9.97-1.55,1.79-3.48,2.52-5.78,2.51-3.82,0-7.64.17-11.4-.75-2.15-.52-3.47-.02-4.25,2.41-1.15,3.57-4.05,4.05-7.29,3.04-.85-.26-1.55-1.33-2.51-.3-3.8,4.05-8.18,2.3-12.04.63-4.58-1.98-8.96-2.29-13.47-.53-5.09,1.99-11.05.06-15.74,3.67-.96.74-2.41,1.13-2.97,2.07-4.98,8.26-13.41,8.71-21.54,9.39-11.03.91-22.03.27-32.88-2.1-3.2-.7-6.21.53-9.3.88-4.19.47-8.33,1.38-12.51,1.97-1.18.17-2.82.31-3.57-.33-3.35-2.86-7.25-1.74-10.96-1.94-1.53-.09-2.94.13-4.1,1.39-1.15,1.26-2.75,1.94-4.43,1.78-4.68-.45-8.51,1.26-12.02,4.15-.81.67-1.94,1.38-2.92,1.36-4.89-.06-9.84.86-14.56.71-9.04-.29-18.2-.31-27.18-2.64-3.77-.98-8.04.82-12.17.62-9.07-.45-17.95-1.62-25.93-6.36-2.16-1.28-4.16-.7-6.29-.13-6.86,1.82-15.21-1.38-18.48-7.08"/>
        <path class="cls-2" d="M544.27,134.85c-1.14-3.59-4.05-4.37-6.95-5.03-6.51-1.5-13.02-3-19.58-4.28-6.95-1.35-13.87-2.98-20.98-3.28-2.03-.08-1.11-1.8-2.12-3.04-.52,3.26-2.78,2.99-5.01,3.02-3.63.04-7.41-.46-10.54,2.17,2.98-.59,5.99-.25,8.96-.47,2.95-.22,3.82,1.2,3.88,3.81.05,2.11-1.16,4.76,2.76,5.26.82.1,1.56,3.28,1.74,5.1.16,1.6-4.19,4.1-5.08,3.09-2.72-3.09-4.06-1.73-5.03,1.33-.32,1.01-.85,1.92-2,1.46-1.59-.64-.75-1.71-.2-2.66,1.55-2.68-.16-3.77-2.31-3.57-6.98.64-11.2-3.96-15.53-8.06-2.07-1.96-3.06-3-3.6.62-.35,2.35-1.56,2.34-3.48,2.01-1.29-.22-2.25-1.56-3.87-1.03.22.45.32.84.56,1.11,2.21,2.44,3.2,4.46-1.19,5.64-2.23.6-1.96,2.7-1.04,4.03,2.14,3.08.39,7.08,2.86,10.31.26-2.54,1.2-4.58,2.43-6.57.81-1.29.42-3.65,2.62-3.6,2.35.05,4.5,1.15,5.9,3.12.85,1.2,1.34,2.66,1.98,3.97,2.24-2.91,2.59-2.98,4.73-.16.96,1.26,1.92,1.93,3.44,1.34,4.45-1.73,5.67-1.05,6.32,3.83.26,1.97,1.11,3.28,2.96,4.01,3.72,1.48,7.7,1.96,10.75-.72,3.1-2.72,6.86-5.26,5.46-10.96-.92-3.73-2.27-7.6-1.4-11.91.38-1.9-.59-5.49-3.71-6.67-1-.38-2.39-.55-1.94-2.05.37-1.23,1.69-1.19,2.78-1.28,6.06-.49,12.03.19,17.77,2.07,9.11,2.98,19.03,3.13,27.64,8.03M658.95,120.53c1.09,0,2.18,0,3.27,0,6.12,0,12.32.67,17.93-2.74,2.56-1.55,4.56-3.16,2.51-6.5-.76-1.24-.51-2.66.13-3.94,1.97-3.93,2.95-8.19,4.24-12.36,2.67-8.64,6.99-16.22,13.97-22.17,7.33-6.26,15.67-9.13,25.33-8,1.33.16,3.34.18,3.69-1.07.51-1.8-1.7-2.17-2.89-2.79-5.45-2.83-11.51-4.18-17.01-6.99-6.07-3.1-11.41-7.71-19-7.58-3.9.07-6.78-4.18-10.63-4.95-14.17-2.84-28.12-7.73-42.96-5.16-1.33.23-2.72.08-4.09.1-2.48.03-4.49-.4-5.31-3.33-.56-2-4.12-2.43-5.22-.61-2.94,4.88-7.91,2.87-11.86,3.21-1.89.16-3.78-.85-5.67.77-.73.62-2.04.63-3.1.79-12.54,1.89-24.48,5.49-35.07,12.71-14.13,9.64-24.41,22.8-33.53,36.99-4,6.22-7.04,12.94-9.16,20.03-1.3,4.36-.31,5.68,4,6.31,4.95.72,9.83,2.43,14.95.99.56-.16,1.35.18,1.93.49,8.45,4.44,17.79,5.3,26.97,5.75,15.62.77,31.28.58,46.92.92,13.23.28,26.44-.48,39.66-.84M603.62,14.75c2.33-5.89,5.7-1.54,8.22-.97,2.44.56,3.96.74,6.14-.9,3.54-2.66,8.22-3.17,11.56-6.9,1.73-1.94,6.14-1.55,9.37-2.06.72-.11,1.74.18,2.28.66,5.14,4.63,10.25,4.22,15.61.34,2.15-1.56,4.81-.9,7.17-.43,7.57,1.52,14.66,4.26,20.94,8.88,2.61,1.92,4.11,4.25,4.92,7.61,1.08,4.47,4.21,7.98,8.13,10.58.67.45,1.93.59,2.1,1.14,1.37,4.38,5.38,6.39,7.99,9.53,3.79,4.56,8.08,7.19,13.46,8.49,3.78.92,6.62,2.36,8.39,6.26,1.31,2.88,4.07,4.87,7.79,3.08,2.22-1.07,3.39-.26,3.54,2.12.14,2.18,1.52,3.31,3.27,4.33,18.62,10.92,35.29,24.48,49.61,40.44,18.55,20.67,33.3,44.11,41.2,70.94,4.23,14.36,8.69,28.94,8.44,44.29-.05,2.98.5,5.97.73,8.95.03.37-.2.76-.51,1.81-1.8-3.59-1.71-7-1.98-10.21-.62-7.2-1.51-14.35-2.88-21.44-.7-3.61-1.84-7.11-3.45-10.46-1.3-2.72-2.32-5.53-1.5-8.68.19-.73.06-1.64-.18-2.38-8.21-24.3-20.95-46.1-36.71-66.2-2.59-3.31-5.9-6.06-8.83-9.1-.94-.97-1.96-1.16-3.3-1.12-3.61.12-5.79-1.64-5.47-5.41.19-2.27-.69-2.61-2.57-2.31-2.62.42-4.47-.82-5.87-2.9-1.16-1.72-2.46-3.28-4.33-4.27-9.99-5.33-18.28-13.19-28.01-18.94-1.97-1.16-3.51-1.61-5.65-.99-6.28,1.85-12.66,3.25-19.19,3.95-6.55.71-11.59,3.9-14.57,9.89-1.46,2.93-3.04,5.87-3.93,8.98-3.01,10.53-7.98,20.29-11.69,30.54-2.99,8.26-10.24,12.13-18.87,10.59-3.12-.56-6.3-.73-9.38-.15-7.29,1.37-14.62,1.73-22,1.48-17.82-.62-35.38,1.33-52.76,5.2-3.98.89-8.02,1.46-12.16,1.34-5.72-.17-11.42.24-17.13.75-8.38.76-16.55-.97-24.69-2.77-1.68-.37-3.4-.6-5.63-.99,1.93,5.34,1.28,10.1-.11,14.85-1.63,5.59,3.45,7.7,6.12,11.44-6.2,1.44-12.57-.66-18.55,2.01,4.77,0,9.53-.05,14.3.03,1.54.02,3.79-.44,3.97,1.8.22,2.64-2.22,2.04-3.85,2.41-7.53,1.73-15.58.2-22.86,3.71-1.24.6-2.99.46-4.44.23-2.07-.32-3.7-.29-4.74,1.94-.57,1.22-1.94,1.35-3.2,1.46-2.05.17-4,.65-5.71,2.15,3.96-1.53,8.01-.49,12.01-.73.66-.04,1.69-.12,1.89-.52,1.62-3.23,3.68-2.17,5.92-.85.51.3,1.58.42,1.91.11,2.1-1.98,5.13-1.56,7.21-2.6,8.18-4.12,17.03-1.58,25.3-3.54,9.05-2.15,18.32-.82,27.48-1.76,8.09-.83,15.85-3.11,23.78-3.77,12.69-1.06,25.4-3.3,38.23-1.8,4.46.52,8.61-1.15,12.93-1.53,5.7-.51,11.46.57,17.16-.42.9-.16,1.71-.18,1.69,1.04-.03,1.37-.41,2.38-1.58,3.48-4.34,4.09-9.96,3.81-15.15,4.91-19.23,4.08-38.84,5.23-58.3,7.53-5.27.62-10.51,1.53-15.76,2.39-8.46,1.39-16.8.14-25.23-.61-11.08-.98-21.54,1.81-31.57,6.78-9.39,4.65-19.13,8.58-28.75,12.76-2.46,1.07-5.08.8-7.66.37-5.25-.87-7.41.49-8.28,5.64-.41,2.4-2.13,2.95-3.91,3.6-1.66.6-3.44.94-5,1.72-1.81.91-2.81,2.18,0,3.26.94.36,1.82.84,1.59,2.03-.21,1.12-1.25,1.38-2.17,1.6-4.96,1.21-8.87-1.17-12.2-4.24-6.61-6.09-14.3-10.42-22.15-14.56-8.65-4.57-18.38-4.82-27.65-6.9-21.38-4.79-43.08-4.41-64.75-3.99-6.49.12-13.04.92-19.45,2.36-1.56.35-3.04.68-2.89,2.71.17,2.38-1.44,3.39-3.19,4.27-6.81,3.43-13.21,2.65-19.09-2.12-1.62-1.32-3-2.32-5.43-1.95-2.92.44-4.63-1.83-4.85-4.46-.55-6.49.63-13.11-1.38-19.52-.28-.89.28-1.64,1.13-1.93,4.76-1.63,9.59-2.62,15.36-1.58-3.09,3.34-7.36,1.64-10.88,4.74,3.12-.65,5.18-1.15,7.26-1.49,1.08-.17,2.42-.13,2.89,1.01.65,1.57-1.06,1.62-1.87,2.09-2.12,1.23-4.27,2.45-6.51,3.43-2.14.94-2.14,2.5-1.83,4.38.33,2.05,1.52,2.44,3.46,2.53,4.32.19,7.64-.81,9.58-5.14,1.78-3.98,9.43-6.05,13.23-3.59,3.28,2.13,6.62,3.16,10.45,2.15,1.49-.39,3.11-.29,3.45,1.22.67,2.97,2.73,2.58,4.72,2.42,11.67-.99,22.64-4.74,33.59-8.57,2.99-1.05,5.93-3.88,9.36-.47.62.61,3.04.6,3.5-.97.45-1.53-1.28-1.69-2.4-2.12-1.43-.55-3.28-.42-4.22-2.63,3.89-.55,7.59-.2,10.63,1.72,3.88,2.45,8.3,1.67,12.37,2.84,1.7.49,2.99.93,3.88,2.22,1.22,1.79,2.83,2.96,4.83,3.58,1.01.31,2.29.63,2.5-1.07.35-2.9,2.01-2.29,3.35-1.03,5.02,4.71,11.56,5.2,17.76,6.51,2.08.44,4.08.93,5.5,2.42,2.2,2.29,3.99,5.25,7.73,2.39.17-.13.54-.08.79-.01,1.77.44,5,7.22,3.87,8.76-3.29,4.49-3.05,8.29,1.94,11.64.89-1.13.22-2.24-.32-3.44-2.18-4.93-.17-10.61,4.51-13.12,1.71-.92,2.16-2.3,1.34-4.13-1.32-2.95-3.22-5.12-6.73-5.06-1.89.03-3.61-.5-4.86-1.8-3.93-4.11-9.18-5.72-14.17-7.9-3.45-1.51-6.94-1.57-9.64.85-2.85,2.56-5.31,1.96-8.15.59-.86-.42-2.05-.67-1.5-1.91.41-.94,1.4-.49,2.17-.22.59.21,1.11.87,2.09.2-2.24-2.86-5.27-4.08-8.65-4.56-5.55-.79-11.08-1.83-16.29-3.86-6.33-2.46-12.62-3.32-19.47-2.75-19.81,1.65-39.62,3.31-59.37,5.57-5.14.59-10.38-.37-15.5.9-.86.21-2.08.15-2.43-.98-.27-.85.56-1.45,1.08-2.07,2.44-2.94,5.69-4.66,9.19-5.92,5.64-2.03,11.49-3.44,17.11-5.6,2.72-1.04,5.93-.51,8.78-.48,3.53.04,6.73-.48,9.93-1.57,4.24-1.45,8.36.52,12.57.23,3.33-.23,4.13-1.63,2.29-3.96-4.24-5.35-6.91-11.76-11.6-16.78-2.7-2.88-2.45-3.78,1.25-4.85,5.5-1.6,6-2.27,6.02-7.97.03-10.41-4.82-19.19-9.63-27.9-4.11-7.46-9.32-13.5-17.45-17.66-6.68-3.42-12.71-8.71-19.86-11.14-11.59-3.95-22.01-9.24-30.45-18.32-6.73-7.24-16.08-8.06-25.16-9.24-13.36-1.74-26.63,1.4-39.97.78-.79-.04-1.69.11-2.39.47-8.67,4.5-18.51,4.18-27.68,6.69-5.42,1.48-10.74,3.06-15.77,5.55-2.3,1.14-4.11,2.35-5.36,5.08-1.56,3.38-5.53,4.23-9.17,4.22-3.91-.01-6.79-2.99-10.36-4.18-2.15-.72-1.92-3.43-.66-5.35,1.24-1.9,1.73-3.92,1.83-6.16.23-5.1,3.4-8.54,7.12-11.43,3.15-2.44,5.47.23,7.4,2.12,2.25,2.21.03,3.53-1.66,4.76-.65.47-1.38,1-1.75,1.68-.89,1.6-2.75,3.28-1.32,5.16,1.47,1.94,3.24.13,4.78-.46,13.5-5.16,26.44-11.78,40.42-15.7.26-.07.52-.15.79-.21,1.63-.37,3.36-3.28,4.47-1.56,1.46,2.25-2.49,2.57-3.24,5.02,3.65-.7,7.11-1.42,10.59-2.03,13.14-2.27,26.16-5.39,39.55-6.06,17.02-.85,33.6,2.39,50.31,5.02,18.53,2.91,33.66,12.04,47.84,23.5,8.37,6.76,17.89,12.02,25.49,19.81,6.88,7.05,12.54,15.09,18.91,22.54,1.86,2.17,3.86,4.22,5.83,6.3,1.12,1.19,2.6,2.23,2.87,3.9.8,4.99,5.41,7.28,7.7,11.19.37.64.81.61,1.35.29.94-.55,1.26-1.49,1.2-2.45-.19-3.2.48-6.22,1.59-9.2.67-1.8,1.63-2.83,3.68-3.31,3.85-.89,7.65-1.99,11.61-2.3,1.45-.11,2.52-.64,3.55-1.69,3.31-3.37,8.24-3.27,12.18-5.39,1.59-.85,2.81.7,3.8,2.24,2.84,4.47,4.92,9.37,8.59,13.38,3.31,3.6,4.99-.3,7.28-1.09,2.72-.94.38-2.38.02-3.52-.41-1.3-1.48-2.83.86-3.01,2.59-.21,3.62-1.77,4.02-3.89.58-3.05,2.97-2.72,5.06-3,1.02-.13,1.7.45,1.41,1.41-.39,1.32-1.27,2.6.66,3.38,2.99,1.2,5.66,3.78,9.15,2.92,2.58-.63,1.17-2.39.56-3.89-.77-1.92-3-3.91.55-5.69,5.73-2.87,8.26-1.62,8.29,4.81.03,6.86,1.01,13.57,2.26,20.27.35,1.85.22,3.69.25,5.66.74-7.71,7.56-11.17,11.49-16.55,8.85-12.11,20.07-22.24,29.89-33.55,5.72-6.59,13.34-10.78,19.79-16.43.75-.66,1.52-1.02,2.6-.76,3.53.84,5.68-1,6.51-4.12.75-2.82,2.4-3.98,5-3.53,2.03.35,2.95-.58,4.48-1.69,5.17-3.76,10.87-6.69,17.35-7.61,1.25-.18,2.71.05,3.19,1.34,1.68,4.61,4.6,1.67,7.07,1.23.74-.13,1.67-.58,1.46-1.63-.17-.84-1.04-.71-1.68-.82-1.58-.27-3.69-.17-3.89-2.19-.19-1.88,1.83-2.5,3.23-3.29,2.71-1.52,5.45-1.76,8.1.09,2.05,1.42,4.14,1.42,6.13.09,4.69-3.13,9.49-1.21,14.28-.48,1.95.3,1.47,2.31,2.28,3.56,1.59-1.37.2-3.96,2.28-4.99,1.71-.85,3.52-.14,5.24-.44,3.88-.68,7.47-2.64,11.53-2.54.68.02,1.3-.53,1.27-1.34-.05-1.3-1.08-1.5-2.04-1.5-4.37-.02-8.85-.6-13.07.19-7.28,1.36-14.35.79-21.48-.53-5.76-1.06-11.49-2.32-17.4-2.25-.91.01-2.57.61-2.51-1.09.05-1.35,1.52-1.48,2.6-1.29,2.65.47,5-1.83,7.92-.43,1.55.75,1.72-1.14,1.19-2.4-.81-1.92-.67-3.65,1.45-4.36,1.99-.66,3.95-.62,5.33,1.65,1.09,1.8,2.63,3.33,4.13,5.17"/>
        <path class="cls-2" d="M778.16,359.7c-2.62,1.05-4.66.89-6.5-1.01-.91-.94-2-.73-2.8.32-1.74,2.31-4.28,3.68-6.4,5.53-.93.81-1.87,1.61-2.15,2.88-.18.79-.33,1.7.52,2.18.77.44,1.21-.28,1.64-.79.67-.81,1.56-2.39,2.44-1.58,2.87,2.61,7.53.15,9.94,3.79.65.97,1.93.96,2.18-.24.29-1.37,3.43-1.87,1.86-2.86-4.08-2.57-1.94-5.11-.73-8.21M746.55,377.89c-3.43,4.03-1.64,7.29.6,10.51,1.28,1.84,3.54,3.06,5.19,2.52,3.27-1.08,6.39-.82,9.63-.68,1.75.08,3.4-.44,4.95-1.59,4.27-3.16,4.35-3.37-.31-5.89-1.78-.96-2.52-2.02-1.31-3.86.9-1.36,1-2.88.38-4.27-.48-1.08-1.81-1.19-2.88-1.21-1.13-.03-1.65.87-1.78,1.89-.18,1.37-.67,2.59-1.25,3.85-1.16,2.51-2.04,3.1-3.67.3-1.16-2-3.6-1.84-5.55-2.47-1.68-.54-3.43-.86-3.74-3.16-.31-2.27.74-3.65,2.54-4.66,1.79-1,3.19-1.58,2.56-4.56-.53-2.51,1.74-5.03,4.41-6.23,1.46-.65,2.77-1.25,2.75-3.1-.04-4.07,1.53-6.34,6.03-4.94,0-.74.11-1.14-.02-1.24-3.9-3.2-3.51-6.06-.19-9.74,2.71-3.01,2.65-7.34,2.47-11.33-.19-4.18.38-7.73,5.44-8.51,1.51-.23,1.74-1.38,2.05-2.65,1.57-6.4,5.55-9.22,11.82-8.34,1.3.18,2.38.09,3.49-.6.66-.41,1.9-1.02,2.17-.77,4.12,3.79,6.68-.62,9.97-1.59,4.26-1.26,5.31-4.9,7.68-7.77,3.44-4.15,4.04-7.86,2.44-12.75-.68-2.08-.21-4.64,3.56-4.28,2.17.21,3.68-1.87,4.3-3.82.7-2.18,1.25-4.6,1.02-6.82-.34-3.33.29-5.86,3.18-7.77,1.17-.77,1.63-2.11,1.8-3.54.67-5.68,2.04-11.27,1.86-17.04-.04-1.37.09-2.77.93-3.92.85-1.17,2.01-1.9,3.53-1.5,1.35.36,1.97,1.37,2,2.75.03,1.5.1,3,.09,4.5-.06,18.82.45,37.65-.85,56.44-.42,6.11-1.18,12.19-1.88,18.28-.17,1.46-.73,2.87-1.12,4.31-2.74-1.37-4.38,2.07-7.09,1.52-5.19-1.05-7.16.9-6.43,6.31.39,2.91.24,5.4-2.35,7.28-1.51,1.1-1.93,2.28.07,3.43,1.62.93,1.15,2.27.49,3.55-.65,1.27-1.5,1.75-2.98,1.03-1.85-.91-2.18.2-1.83,1.74.58,2.52.96,5.13,1.89,7.51,1.06,2.71.14,4.52-1.87,6.04-1.95,1.47-4.03,2.37-6.22.29-.79-.75-1.69-1.66-2.85-.89-1.11.74-1.48,1.99-1.06,3.27.71,2.17,0,4.7,2.94,6.28,1.6.86-.69,2.98-1.65,3.79-2.21,1.86-3.27,2.83.46,3.98,2.56.79,3.49,2.28.35,3.94-1.95,1.03-2.9,3.86-5.79,3.2-.13-.03-.39.03-.39.03.45,5.42-8.92,3.39-7.41,9.72.1.42-.96,1.27-1.63,1.69-11.13,7.11-18.1,24.28-14.93,37,1.02,4.08.81,8.11-.31,12.11-.64,2.28-.99,4.55-.18,6.83.9,2.5,2.26,4.4,5.4,3.8.65-.13,1.42-.2,2.03.01,3.61,1.25,5.06.3,5.54-3.77.31-2.65,3.52-4.48,5.98-5.07,8.66-2.06,14.08-8.54,20.28-13.97,1.56-1.37,3.11-2.69,5.07-3.36,5.53-1.9,11.09-3.73,16.64-5.6,2.14-.72,2.85,0,4.25,2.03,3.37,4.89.71,8.73-.81,12.97-7.92,22.01-20.23,41.65-32.98,61.06-1.27,1.93-2.77,3.42-5.29,3.08-1.21-.16-2.38.09-2.87,1.11-1.13,2.33-2.94,2.16-4.72,1.36-3.83-1.71-8.8-.45-11.62-5-1.11-1.79-2.42-3.24-2.02-5.44.45-2.45-.6-3.54-2.98-3.81-1.34-.15-2.97-.49-2.85-2.27.11-1.79,1.64-1.37,2.86-1.3,1.73.1,2.46-1.19,2.78-2.51.45-1.81.97-3.76.72-5.53-.24-1.66-.96-4.08-3.71-2.15-1.45,1.02-3.2,1.46-4.6.5-1.58-1.09.16-2.42.4-3.64.45-2.38.42-4.84-2.58-4.88-2.51-.03-5.27.94-5.64,4.1-.17,1.43.5,2.7-1.25,3.82-3.73,2.38-7.09,5.84-11.92,4.95-2.08-.38-1.38-2.65-.4-4.01,1.1-1.52,3.24-2.83,2.62-4.78-.89-2.79-2.51-5.35-3.93-7.95-.48-.87-1.45-1.13-2.51-1.01-2.15.24-4.31.42-6.46.61.15.16.27.42.46.49,1.66.59,4.58-.87,4.82,1.65.2,2.09-2.5,2.33-4.34,2.82-1.01.27-1.86,1.07-2.82,1.56-.71.36-2.01,1.03-2.14.86-2.14-2.78-5.57-1.68-7.91-2.77-2.65-1.23-2.51-.41-3.46,1.26-1.96,3.45-4.93,6.44-4.24,10.92.12.8-.38,1.29-1.08,1.5-.77.24-1.13-.27-1.63-.83-1.8-2.03-1.88-1.99-2.82.3-.24.59-.56.93-1.17.83-1.19-.19-2.12-1-2.32-2.05-.21-1.15.18-2.4.25-3.61.09-1.46-.35-2.75-1.69-3.47-1.57-.84-2.1.58-2.9,1.45-2.22,2.4-4.77,3.56-8.01,2-3.46-1.66-4.91,1.85-6.83,3.2-2.83,1.98-3.85,1.81-5.48-1.15-1.17-2.12-1.69-4.24-2.04-6.51-.24-1.52-.07-2.66,1.94-2.77.86-.05,1.78-.7,2.49-1.3,2.89-2.43,2.49-5.56-1.1-6.5-4.7-1.24-9.19-3.3-14.1-3.75-1.85-.17-3.83-.63-4.09-2.69-.23-1.79,1.1-3.42,2.77-4.01,4.15-1.45,2.99-3.69.81-5.66-2.28-2.06-3.92-4.12-3.29-7.38.09-.47-.08-1.41-.26-1.44-6.53-1.24-2.07-6.88-3.91-10.08-.85-1.47,1-2.55,2.85-1.61,1.38.7,2.87.98,3.23-.9.25-1.32-.46-2.69-2.2-2.84-1.14-.1-2.04-.62-2.94-1.29-1.71-1.28-1.95-2.37-.04-3.73,4.08-2.9,8.11-5.89,12.13-8.88.91-.67,2.19-1.61,2.93-1.01,2.79,2.26,6.43.34,9.3,2.25,2.16,1.44,3.36.53,3.01-2.1-.43-3.15,1.61-5.88,1.33-9.16-.19-2.23,3.45-2.23,4.67-4.14,1.89-2.98,3.63-.96,5.37.33.76.57,2.11,1.44,2.53.75,1.95-3.22,4.62-1.36,6.99-1.26,2.21.09,3.63-.69,4.33-2.86.53-1.62.79-3.41,3.32-3.46,1.58-.03,1.09-1.55.74-2.57-.52-1.54-1.16-2.96-.72-4.73,1.05-4.27,1.3-4.45,4.99-2.29,3.55,2.08,7.23,1.61,9.63-1.42,1.17-1.47,2.41-1.62,3.93-.87,1.56.76,1.76,1.96.95,3.39-.56,1-1.17,2.11.25,2.76,1.24.56,1.9-.69,2.71-1.37,1.17-.98.62-3.38,3.84-3.59"/>
        <path class="cls-2" d="M334.65,467.91c1.07-1.15-.27-3.31,1.52-3.53,1.92-.24,1.69,1.73,2.23,2.86,1,2.08,1.95,4.18,3,6.23.69,1.35,1.64,1.69,2.91.52,2.14-1.98,4.04-4.34,7.49-4.08.96.07,1.89-1.2,1.72-1.98-.51-2.32.24-4.58-.02-6.85-.05-.46-.4-1.12-.77-1.25-.82-.28-1.05.5-1.39,1.09-2.22,3.83-4.49,4.57-7.49,1.6-3.07-3.04-6.41-.19-9.53-1.18-.92-.29-1.91,1.83-1.48,3.27.33,1.1,1.1,2.07,1.8,3.32M367.46,454.12c-.89.83-1.74.68-2.54.64-1.44-.07-3.14-.97-4.08.75-.88,1.6.7,2.39,1.6,3.34,1.24,1.29.9,2.19-.43,3.33-3.34,2.87-2.97,5.06,1.27,6.03,3.66.83,7.5.86,10.23,3.97,7.23-1.78,6.4,1.08,3.78,5.92-.87,1.6-.29,4.2-.57,6.36-.23,1.73,4.72,3.58,6.4,1.98,2.21-2.09,2.67-.27,3.52.86,3.12,4.12,6.67,7.11,12.52,5.1-.78-1.14-2.11-.5-2.91-1.13-.83-.65-1.39-2.19-.44-2.19,2.64,0,3.36-3.42,6.21-2.89,1.24.23,2.78-.64,3.55-1.76,1.39-2.01,2.84-3.43,5.56-2.82.8.18,1.68-.45,1.93-1.26.58-1.88,1.3-3.09,3.69-2.76,3.68.51,7.79-.77,10.55,2.99.68.94.92,1.97.85,3.09-.1,1.65.84,2.29,2.29,2.05,2.24-.36,3.49.42,3.48,2.73-.01,2.03.14,4.26-2.7,4.73-.74.12-2.05-.08-1.66,1.1.35,1.09,1.35,2,2.16,2.89.55.6,1.33.49,1.74-.17.85-1.37,1.75-2.62,3.54-1.63.94.52.49,1.5.07,2.17-.95,1.52-2.36,3.61-4.03,2.74-2.23-1.16-5.45.08-6.91-3.32-.78-1.82-3.94-1.2-5.09-.4-3.28,2.27-6.95,3.31-10.43,4.9-4.14,1.89-7.37,5.84-10.9,9-1.09.98-1.45,3.38-3.48.77-.91-1.17-1.53.41-2.02,1.09-3.81,5.21-6.04,5.82-11.63,3.12-4.32-2.08-8.57-.29-10,4.03-.82,2.46.2,3.98,2.17,5,.97.5,2.98,0,2.11,1.96-.77,1.73-2.03.41-3.07-.11-.32-.16-.73-.13-1.09-.19-.64,1.34.32,2.13.81,3.04.69,1.29-.52,2.83-.91,2.61-2.62-1.52-5.44,1.81-8.05-.65-1.32-1.25-3.38-1.7-5.07-2.58-1.99-1.04-3.27-2.39-2.34-4.92.93-2.54-.66-3.29-2.75-3.09-2.38.23-4.51,1.22-5.69,3.48-1.18,2.25-.41,4.05,1.16,5.93,3.09,3.71,3.03,8.44-.26,12.8-2.45,3.25-5.28,6.21-8.24,9.64,1.87.05,3.4.37,2.76,2.68-.5,1.81-1.36,2.96-3.38,2.8-2.61-.21-5.2-.45-6.77-3.05-2.22-3.68-5.63-5.74-9.83-5.69-4.95.05-7.19-3.7-10.27-6.35-.58-.5-.65-1.33-.26-1.89,2.24-3.12-.16-4.29-2.27-5.62-1.27-.81-2.52-1.64-3.77-2.47-7.07-4.71-7.89-6.68-6.31-14.94.43-2.23,1.76-3.32,3.97-3.33,1.79-.01,3.39-.34,5.07-1.18,2.2-1.09,4.82-.99,4.04-4.93-.32-1.62,2.73-2.32,4.55-2.73,2.14-.47,4.17.04,5.31,2.1.71,1.29,1.52,2.79,1.48,4.18-.09,3.94,2.19,4.45,5.28,4.25,2.69-.17,4.19-1.19,3.3-4.16-.86-2.87.09-5.4,1.6-7.75,2.59-4.03,4.2-4.32,8.17-1.62,3.67,2.49,6.64-.22,10.37-1.17-2.49-1.69-4.64-1.78-6.93-1.12-2.69.77-4.78-.43-6.68-2.14-.63-.57-1.16-1.26-.62-2.13.53-.86,1.3-.72,2.14-.34.73.33,1.54.6,2.33.66,1.51.1,3.17.16,3.73-1.69.49-1.63-.21-2.88-1.65-3.79-1.26-.8-2.42-1.76-3.69-2.55-1.79-1.1-2.13-2.91-1.91-4.64.24-1.91,2.26-3.72-1.32-4.96-1.9-.66-3.17-2.83-5.77-2.02-2.31.72-4.88-2.15-7.22.43-.4.44-1.28-.23-1.67-.82-.72-1.11.05-1.89.81-2.42,2.51-1.77,1.6-3.1-.71-3.41-5.54-.73-5.73-5.65-7.68-9.2-.3-.55-.07-1.36-.23-2.01-.5-2.04-1.96-2.9-3.95-2.82-2.31.09-3.23,1.81-2.88,3.65.58,3.09-.76,5.57-1.81,8.19-.42,1.05-2.16,2.15-2.27,1.33-.51-3.67-5.57-3.29-5.75-7.09-.1-2.09-1.61-2.97-3.75-2.77-1.66.15-3.68,1.1-4.62-1.24-1.05-2.59-1.9-5.43.21-7.75,2.58-2.84,4.51-6.16,8.71-7.63,5.69-1.99,5.71-3.24,2.24-8.15-1.48-2.09-.56-5.8,1.85-7.11,1.33-.72,2.84-.85,4.32-1.13,3.31-.62,7.12-.55,7.44-5.57.12-1.94,2.16-2.62,4.11-2.6,1.64.01,2.85.03,3.82,2.07,1.22,2.57,3.03,4.8,2.54,7.89-.16,1.04.15,2.35-1.2,2.77-1.05.33-1.86-.39-2.4-1.2-.72-1.1-1.38-2.09-2.91-1.24-1.42.8-3.13,1.43-2.95,3.48.12,1.36-.05,2.41-1.32,3.12-1.63.92-3.28,1.39-5.04.37-2.39-1.38.44-3.21-.52-5-1.89-.02-2.92,1.21-2.96,2.88-.03,1.41-.69,3.46,1.79,3.92,1,.19,1.66.94,2.03,1.87.97,2.44,2.92,2.83,5.29,2.94,3.19.15,6.83-.13,7.37,4.55.09.79.89,1.4,1.79,1.46.96.06,1.58-.57,1.79-1.39.33-1.34.44-2.77,2.77-2.32-1.85,4.19.16,6.09,4.03,7.24,1.83.54,3.26.96,3.97-1.14.84-2.48,1.95-2.07,3.45-.66,3,2.8,5.84,3.28,8.35-.67.98-1.54,2.61-1.15,4.08-1.18,4.91-.11,6-1.39,4.69-5.98-.77-2.69.81-5.62-1.09-8.17-.38-.51.29-1.35,1.05-1.45,1.3-.17,3.19-1.36,3.81-.04,1.81,3.83,6.41,5.25,7.58,9.75.52,2,.23,2.95-1.15,3.54-4.21,1.79-4.49,4.61-2.38,8.03"/>
        <path class="cls-2" d="M88.19,414.88c-.07-.34-.33-.79-.2-1.06,1.88-3.98-.45-5.05-3.73-5.43-2.43-.28-4.96-.23-6.47-2.75-.61-1.02-1.55-.77-2.54-.45-1.33.43-3.05,1.68-3.94-.15-.72-1.48-.86-3.25.35-5,2.64-3.83,5.71-7.6,7.28-11.88,1.87-5.1,2.47-10.69,3.36-16.11.35-2.16-.9-2.92-3.07-2.09-1.66.64-3.49.98-5.22.53-2.9-.75-4.17-2.78-3.48-6.38-3.92,1.91-5.57,6-9.5,6.88-1.29.29-2.56,1.56-3.83.64-1.51-1.1-.09-2.45.17-3.69.36-1.73.8-3.46.97-5.21.11-1.19-.68-2.23-1.87-2.31-1.51-.11-1.8,1.1-1.47,2.26.72,2.6-.53,3.48-2.86,3.72-2.94.31-2.42-1.76-2.58-3.48-.12-1.35-.48-2.69-.61-4.04-.21-2.22-.62-4.6,2.94-4.42,1.02.05,1.98-.61,2.01-1.66.04-1.2-1.21-.73-1.89-.99-4.77-1.84-6.82-4.18-6.4-9.2.45-5.41-1.46-10.31-2.33-15.42-.28-1.64-.8-3.06.9-3.8,1.64-.72,3.43-2.05,5.33-.48,3.75,3.1,6.99,6.65,8.94,11.18.58,1.35,1.36,2.04,2.79,1.69,1.41-.35,1.54-1.52,1.19-2.61-1.55-4.74,1.63-6.8,4.97-8.56,2.12-1.12,4.54-1.51,6.08-3.77,1.05-1.54,2.22-.18,2.93.77,1.36,1.82,2.91,1.77,4.65.75,1.54-.9,3.44-1.81,3.22-3.81-.19-1.7-1.85-2.57-3.55-2.98-.52-.13-1.09-.26-1.53-.56-2.07-1.44-5.14-2.43-4.63-5.59.54-3.37,3.45-3.81,6.36-3.71,1.62.06,3.1-.4,3.8-1.91,1.32-2.84,3.1-1.54,4.51-.42,1.85,1.47,2.83,3.67,2.64,6.02-.08,1.05-1.25.43-2.03.25-2.92-.68-3.28.53-2.46,3.09.91,2.84,1.81,5.4,5.36,5.75.94.09,1.88.85,1.66,1.99-.24,1.23-1.27,1.21-2.28.94-.62-.17-1.28-.61-2.08.53,2.82,1.19,2.06,5.46,5.73,6.2,1.47.29-.79,2.85,2.05,3.29,2.27.36,4.22,2.28,6.61.26.53-.45,1.42-.43,1.89.13,3.75,4.46,10.19,4.42,14.16,8.52,1.58,1.63,2.79,1.56,4.73-.25,3.02-2.82,7.61-3.38,10.65-6.83,2.3,6.63,6.23,12.52,2.6,19.42-.17.33-.24,1.06-.11,1.13,5.27,2.74.32,6.86,1.32,10.27.72,2.43-3.13,2.96-3.7,5.25-2.6-.89-5.73,3.02-8.07-1.01-.84-1.45-2.39-1.76-3.88-.55-1.02.82-2.22.95-3.46,1.03-1.59.1-3.63-.28-4.11,1.79-.46,1.96-.6,4.12,1.82,5.26.29.13.4.63.58.94-.24.28-.38.61-.58.65-1.71.33-4.27.47-3.81,2.59.36,1.67,2.83.78,4.27.33,2.23-.7,3.04.06,3.13,2.22.09,2.06,1.1,2.68,2.97,1.66,1.07-.58,2.17-.7,2.92.4.76,1.12.66,2.31-.29,3.38-1.72,1.94-3.69,3.74-1.77,6.77.51.8-.88,1.54-1.34,2.34-1.79,3.1-.86,5.26,2.64,5.79,2.91.43,3.95,1.32,2.88,4.6-.71,2.21-3.4,5.79,1.81,7.1,1.25.31.72,2.12,0,3.21-1.73,2.6-1.28,4.85,1.04,6.83.1.09.2.19.3.28.99.95,1.55,2.79.79,3.29-3.27,2.13.22,7.71-4.68,8.74-.77.16-1.92.49-2.33.12-4.06-3.7-10.88-3.26-13.5-9.26-.8-1.84-3.28-1.66-5.21-1.64-2.28.02-4.32-.82-4.75-3.08-.93-4.94-4.1-5.57-8.2-4.9-2.26.37-3.75.11-2.35-2.7.44-.88,1.92-1.71.61-2.76-1.23-.98-2.24-.05-3.1.96-.51.59-.97,1.38-2.1,1.14"/>
        <path class="cls-2" d="M198.34,403.26c2.04-4.99,1.96-4.87,7-1.79,2.47,1.51,5.52,1.25,8.33,1.57,1.98.22,1.91-1.77,2.06-2.96.45-3.46,2.71-2.92,5.1-2.8,3.02.15,1.65,2.35,1.73,3.6.16,2.5.01,4.83,2.9,6.13,1.34.6,1.17,2.25.97,3.68-.87,6.43,1.72,8.5,7.76,6.65,2.39-.73,4.67-1.33,6.42-3.26,1.37-1.5,3.15-2.7,4.94-.94,1.46,1.43,1.71,3.36.1,5.12-.46.49-.8,1.09-.41,2.08,2.09-.44,4.42-2.19,6.08.91.49.92,1.54.18,2.25-.71,2.79-3.49,3.39-3.67,8.93-3.26-3.07,3.1-3.7,5.86.81,7.86.91.4,1.02,1.58.72,2.57-.37,1.2-1.34,1.12-2.34,1.04-.96-.07-2.26-.07-2.28,1.12-.02,1.35,1.38,1.15,2.23.96,2.27-.49,1.8.4,1.63,2.1-.41,4.07,3.27,6.56,4.59,10.04.51,1.33.93,2.24-.38,3.12-1.1.73-2.29,1.16-3.12-.35-.51-.93-1.53-1.93-2.18-1.38-3.21,2.69-8.16.23-11.05,4.13-1.58,2.12-5.01,2.43-6.78,1.26-3.28-2.18-4.17.36-6.16,2.26-.24-2.55-1.48-3.63-3.76-4.02-2.4-.42-4.57-1.65-6.39-3.45-1.55-1.53-2.87-1.17-3.72.94-.56,1.38-1.2,2.76-2.04,3.98-1.77,2.55-4.38,2.64-6.26.7-2.34-2.4-3.71-1.94-6.47-.46-2.39,1.28-6.22,2.55-8.61-1.21-.67-1.06-1.72-1.22-2.95-.92.13,1.18,2.67,1.09,1.65,2.53-.8,1.12-2.25.58-3.33-.12-1.02-.67-2.31-1.05-2.88.1-1.39,2.83-3.76,3.16-6.46,3.31-2.52.14-3.72,2.04-4.59,4.14-.88,2.11-1.79,3.95-4.28,1.46-.42-.42-1.21-.61-1.85-.64-1.6-.09-4.06,3.26-4.42-1.6-.14-1.9-2.05-3.71-.85-5.99,1.65-3.13-5.63-14.6-8.67-15.11-1.32-.22-1.77.24-1.56,1.54.19,1.16,2.6,2.23.6,3.34-1.42.79-3.27,1.31-5.12.56-5.26-2.13-10.83-4.29-13.52-9.47-1.91-3.69-4.58-6.4-7.22-9.32-.55-.6-1.38-1.52-.88-2.14,3.45-4.19-.04-7.99-.6-11.91-.21-1.5-.47-2.53,1.11-3.41,1.53-.85,2.91-1.99,4.31-3.06,1.58-1.21,4.42-2.25.63-4.35-1.19-.66-.59-1.86.22-2.36,2.85-1.77,2.35-3.97.95-6.25-1.58-2.57-.74-3.33,2.03-3.36,2.58-.03,5.01-.4,7.34,1.47,1.56,1.26,3.58.84,5.3-.49,2.47-1.92,5.07-1.89,7.47.07,1.24,1.01,2.73,1.19,4.08,1.81,1.62.75,2.7.26,2.85-1.57.27-3.54,2.62-4.31,5.45-3.78,2.49.47,4.48-.22,6.6-1.32,4.23-2.18,6.24-1.11,5.49,3.49-.81,4.99.14,7.49,5.44,8.84,1.73.44,6.21,2.3,4.38,6.73-.22.54-.46,1.93.67,2.54"/>
        <path class="cls-2" d="M73.93,469.46c.26,5.98-.52,11.7-4.03,16.8-.71,1.03-1.69,1.3-2.7,1.65-8.61,2.91-8.78,3.01-13.74-4.84-5.58-8.84-8.86-18.96-15.04-27.49-.57-.79-1.04-2.16.15-2.42,2.7-.59,4.44-4.69,7.96-2.22.21.15.53.25.77.21,2.85-.47,2.8-.47,3.26,2.41.19,1.19.77,2.33.92,3.52.27,2.07.91,4.26-1.56,5.69-.83.48-2.29.95-1.73,2.35.47,1.18,1.66,1.59,2.94,1.92,3.4.87,6.78.73,10.08-.18,2.36-.65,4.72-1.2,7.11-1.74,4.86-1.08,5.3-.87,5.62,4.35"/>
        <path class="cls-2" d="M473.88,60.96c1.98-.14,3.76-.1,5.48-.42,1.73-.33,2.07.8,2.62,1.9.63,1.26-.18,1.66-.95,2.57-2.58,3.05-4.81,6.41-7.09,9.71-.72,1.04-.46,2.35-.46,3.58,0,1.25,2.34,2.83-.18,3.72-2.78.99-5.79,3.24-8.51,1.76-1.32-.72-1.14-.37-1.58.29-.81,1.22-1.94,1.58-3.16.9-1.14-.63-1-1.88-.74-2.94.31-1.3.64-2.99,2.48-2.57,3.63.85,2.6-1.98,2.05-3.03-1.86-3.57.18-4.65,2.95-5.5,1.3-.4,2.71-.53,3.3-2.06.99-2.56.38-3.98-2.52-4.73-6.32-1.64-9.69,2.62-12.87,6.51-2.41,2.95-5.02,4.33-8.65,4.34-.53,0-1.06.27-1.47-.24-.41-.51-.24-1.03.14-1.46,7.38-8.33,14.28-17.21,24.75-22.08,1.87-.87,3.93-2,5.35.49,1.43,2.49-.02,4.44-1.86,5.99-.77.65-2.42.69-2.04,2.07.4,1.46,2.07.94,2.97,1.19"/>
        <path class="cls-2" d="M24.47,420.23c1.84,1.44,5.32,2.05,3.01,5.6-.31.47-.34,1.12.29,1.4.76.34,1.46-.12,1.67-.74,1.66-4.75,4.19-3.54,7-1.14,1.28,1.1,2.9,1.43,4.51,1.78,1.48.32,3.39.77,3.44,2.42.14,4,2.85,6.08,5.83,7.1,6.68,2.29,10.18,8.21,15.31,12.23,6.35,4.98,6.44,4.85.8,10.55-.91.92-1.85,1.26-2.84.36-1.58-1.44-3.57-2.49-4.18-4.84-.58-2.24-1.38-4.43,2.45-3.25,1.23.38,2.45.13,2.5-1.2.06-1.55-1.31-.85-2.15-.78-.99.09-1.89.06-2.48-.95-2.96-5.04-7.38-5.95-12.75-4.76-2.64.59-4.01-.71-4.06-3.61-.07-3.89-1.62-4.68-5.09-2.88-4.65,2.41-4.59,2.4-5.44-2.5-.47-2.69-1.17-4.83-4.57-5.9-3.93-1.23-2.8-5.6-3.24-8.9"/>
        <path class="cls-2" d="M213.26,383.68c1.13-2.19.62-3.63-1.91-4.14-.53-.11-1.08-.17-1.6-.32-1.77-.53-4.68.13-5-1.88-.34-2.14,2.18-3.63,4.01-4.66,2.61-1.46,4.09-2.71,3.44-6.33-.49-2.71,3.27-2.94,5.3-3.94,1.58-.78,3.5-1.27,4.59.94,1.14,2.32,2.12,4.65,2.27,7.35.16,2.89-.81,4.43-3.73,4.62-1.71.11-3.37.38-3.64,2.51-.3,2.39-.26,5.23,2.17,6.1,4.68,1.67,2.63,4.99,2.34,7.74-.21,1.96-1.84,1.91-2.99.66-2.04-2.23-3.87-1.76-6.07-.2-2.19,1.55-3.8.53-3.71-2.34.06-2.01.7-3.97-1.28-5.56-.59-.47-.31-1.55.26-2.25.61-.76,1.44-.83,2.21-.43,1.07.56,2.05,1.29,3.35,2.12"/>
        <path class="cls-2" d="M91.11,290.22c-.23-.76-.38-1.39-.62-1.98-1.28-3.12-2.75-3.53-4.88-.98-1.9,2.27-3.32,1.87-4.9-.13-.51-.64-.95-1.36-1.54-1.9-4.12-3.75-3.57-7.48.52-11.3,3.71-3.46,6.99-7.42,10.83-10.79.57-.5.79-1.73,1.75-1.37,1.22.45.76,1.58.4,2.45-.94,2.29-1.2,4,1.94,4.96,2.36.72,1.73,2.76.66,4.38-1.12,1.71-2.49,3.26-3.53,5-1.24,2.08-1.49,3.98,1.81,4.24.14.01.28.01.41.04,1.73.39,4.35.77,4.55,2.14.3,2.01-2.38,2.55-3.94,3.51-1.02.63-2.15,1.08-3.46,1.73"/>
        <path class="cls-2" d="M619.01,499.71c-2.82,2.11-3.84,6.68-8.52,5.67-.22-.05-.77.42-.82.7-.23,1.43.12,3.13-1.99,3.49-2.14.37-4.23-.34-5.88-1.3-4.21-2.45-9.97-1.21-11.76,3.12-.45,1.09-.51,2-1.94,2.04-1.64.05-2.08-1.08-2.41-2.28-.8-2.89-.38-5.95-2.21-8.8-1.05-1.64.91-3.5,3.07-3.9.77-.14,1.62.07,2.42.2,9.3,1.53,11.18.67,15.97-7.43,1.98,1.89.12,3.52-.21,5.2-.23,1.2-.79,2.56-.02,3.57,1.02,1.32,2.29.09,3.34-.27,3.59-1.21,7.17-.67,10.96-.02"/>
        <path class="cls-2" d="M57.51,505.55c-1.76-.23-3.08-1.38-4.42-2.58-6.54-5.89-10.16-13.82-14.46-21.19-3.07-5.27-5.44-10.94-8.84-16.08-1.85-2.79-2.85-6.15-4.24-9.25-.78-1.72-1.41-3.37,1.01-4.38,2.59-1.08,3.02,1.01,3.72,2.55,6.62,14.56,14.28,28.54,23.44,41.68,1.64,2.35,3.27,4.7,4.97,7.01,1.1,1.5.79,2.2-1.18,2.24"/>
        <path class="cls-2" d="M537.72,13.04c-4.47,2.01-1.69,7.34-4,10.52-2.44,3.37-5.73,6.12-7.83,9.83-.54.96-1.42,1.11-2.46.71-3.38-1.31-5.09-6.09-3.28-9.21.34-.58.92-1.25.85-1.81-.89-7.67,5.8-9.84,10.01-13.77,1.52-1.42,3.31-.84,4.91.14,1.1.67,1.87,1.57,1.81,3.6"/>
        <path class="cls-2" d="M490.23,47.42c-.25-3.62,5.69-7.73,9.17-6.23,2.47,1.07,5.03,1.95,7.52,2.97,2.3.94,4.22.22,6.05-1.19.79-.61,1.78-1.06,2.47,0,.56.87.37,1.91-.51,2.55-1.42,1.04-2.85,2.11-4.41,2.91-6.77,3.47-13.59,6.86-20.39,10.26-.91.46-1.85,1.45-2.87.22-.84-1.02-.17-1.96.14-3.02.84-2.8,3.5-4.99,2.81-8.48"/>
        <path class="cls-2" d="M281.25.36c9.29-.26,17.78-.43,26.41,1.75,22.67,5.72,45.31,11.71,68.61,14.49,2.23.27,4.54.59,6.52,2.36-1.53,1.6-3.24,1.33-4.7.91-10.35-2.94-21.09-3.75-31.55-6.06-13.43-2.96-26.51-7.45-40.14-9.51-7.25-1.09-14.6-1.57-21.9-2.33-.92-.09-1.94.14-3.26-1.62"/>
        <path class="cls-2" d="M277.96,1.6c-4.21.38-8.47,1.22-12.68,1.06-18.68-.71-35.97,5.3-53.31,10.89-6.7,2.16-13.61,4.01-19.83,7.56-.97.55-2.58,1.47-3.23.03-.69-1.53,1.19-1.88,2.18-2.34,9.78-4.58,20.01-7.94,30.36-10.94,9.38-2.71,18.73-5.6,28.41-7.09,8.94-1.37,17.96-.44,26.94-.47.51,0,1.09.19,1.16,1.32"/>
        <path class="cls-2" d="M712.22,170.61c-2.95.53-5.65-.28-7.88-2.74-1.67-1.85-4.06-1.16-6.18-1.39-.92-.1-2.55.53-2.45-1.19.07-1.05,1.4-1.34,2.33-1.09,4.27,1.13,8.71.11,12.99,1.21,4.39,1.12,8.36-.31,11.99-2.75,3.09-2.07,3.73-5.16,3.42-8.63-.22-2.41-.83-5.89,2.38-5.94,3.45-.05,2.98,3.81,2.93,6.16-.24,9.6-10.16,17.67-19.53,16.37"/>
        <path class="cls-2" d="M17.98,436.66c-2.06-4.83-4.5-9.55-3.52-15.13.08-.48.1-1.15-.16-1.49-4.16-5.59-5.17-11.88-4.55-18.68.15-1.64-.09-3.56-1.2-5.07-2.15-2.91-1.59-5.5,1.43-8.6,1.09,5.88,2.18,11.18,3.05,16.52,1.49,9.04,4.19,17.73,7.74,26.13,1.43,3.39.96,5.31-2.81,6.32"/>
        <path class="cls-2" d="M358.35,166.39c.04,1.55-1.22,1.97-2.25,2.57-3.68,2.13-8.87,3.14-11.66,2.01-4.15-1.69-7.7-1.97-11.76-1.36-.35.05-.99-.13-1.08-.36-.75-1.98,1.53-2.97,1.62-4.77.07-1.24,1.14-2.12,2.32-1.46,5.74,3.19,11.72.72,17.58.95,1.35.05,2.71.2,4.01.51.85.2,1.23,1,1.21,1.91"/>
        <path class="cls-2" d="M71.24,497.56c4.39,1.81,8.15,2.7,12.19,1.84,1.06-.23,2.6-.4,2.81.86.28,1.67-1.5,1.01-2.39,1.34-1.4.52-2.85.92-4.26,1.42-2.66.95-5.07,2.94-7.38-1.21-1.28-2.3-4.58-3.35-7.55-3.54-2.54-.16-4.03-1.67-3.72-3.89.32-2.28,2.56-1.43,4.07-1.17,2.63.44,5.13.01,7.67-.62,1-.25,2.47-.63,2.97.5.6,1.37-1.09,1.58-1.84,2.25-.69.61-1.39,1.21-2.56,2.22"/>
        <path class="cls-2" d="M463.6,221.43c-.18,0-.74.07-1.27-.01-1.29-.2-3.09,0-3.16-1.81-.05-1.52,1.64-1.72,2.76-1.92,3.42-.6,6.02-1.89,7.48-5.42.95-2.31,6.84-3.3,8.89-1.85,1.39.98,2.11,2.51.66,3.78-4.32,3.76-8.63,7.67-15.35,7.24"/>
        <path class="cls-2" d="M854.59,287.29c1.33,16.6-.19,33.14-2.64,49.65.19-16.57,3.17-33.06.52-49.7.71.02,1.41.04,2.12.05"/>
        <path class="cls-2" d="M112.86,320.93c-.66.04-1.8-.02-1.91-.84-.36-2.77,1.29-5.22,1.85-7.86.3-1.41,3.73-1.25,5.61-.87,2.05.41,2.5,6.27.74,7.53-1.82,1.29-3.94,1.75-6.29,2.05"/>
        <path class="cls-2" d="M627.55,472.86c-3.01.11-4.69-.9-4.25-3.53.34-2-.65-5.25,2.73-5.38,4.45-.17,7.16,1.87,6.91,4.6-.33,3.6-3.27,3.84-5.4,4.31"/>
        <path class="cls-2" d="M.58,303.71c2.18,1.55,1.67,3.04,1.63,4.27-.2,6.94.69,13.91-.73,20.81-.4,1.92.2,3.77.96,5.56.92,2.15.56,4.1-1.36,5.78-1.41-11.96-1.3-23.88-.5-36.43"/>
        <path class="cls-2" d="M118.65,321.17c1.7,2.06,2.21,4.4,3.94,6.05,1.49,1.43.54,2.95-.67,4.24-1.21,1.29-2.91,1.38-4.44,1.81-1.3.37-2.97.75-3.74-.57-.93-1.6.71-2.33,1.82-3.01,1.44-.88,2.13-1.97,1.7-3.7-.41-1.66.04-3.16,1.4-4.83"/>
        <path class="cls-2" d="M61.87,399.63c-1.05.04-1.8-.31-2.22-1.06-1.38-2.47-2.75-4.95-4.01-7.48-.26-.52-.29-1.44,0-1.89.58-.91,1.46-.24,2.17.03,2.6.98,4.34,3.17,6.49,4.77,1.04.77.79,1.94.17,2.93-.7,1.12-1.2,2.47-2.6,2.71"/>
      </g>
      <g>
        <path class="cls-1" d="M334.19,246.92c-7.69-6.69-17.4-10.38-30.57-11.62h-.12c-1.48-.15-3.51-.35-4.88,1.59-.06.08-.16.15-.25.2-1.31-2.32-3.3-2-4.63-1.78-.55.09-1.06.17-1.48.11l-1.02-.16-.04.35-.26-1.74-1.43,1.85c-.18.24-.37.51-.57.78-.27.39-.75,1.07-1.05,1.31-.06-.08-.14-.21-.25-.43-.83-1.76-1.87-2.36-3.48-2.02-1.92.41-3.82.25-5.84.09-1.08-.09-2.24-.19-3.32-.17-5.52.01-11.03.01-16.55,0h-7.02c-4.45,0-4.99.42-5.08,4.92-.4-.22-.82-.43-1.27-.55-.76-.21-1.51-.05-2.11.08-.11.02-.23.05-.34.07.21-.32.38-.7.33-1.15-.03-.27-.16-.67-.58-1-.17-.14-.34-.3-.51-.46-.47-.45-1-.95-1.73-1.14-1.58-.41-3.22-.66-4.89-.73-1.85-.1-3.63.76-4.76,2.27-1.02,1.36-1.31,3.02-.79,4.55.19.57.16,1.06-.1,1.46-.21.33-.5.48-.62.51-1.05-.28-2.51-.55-3.41.27-.9.82-.67,2.08-.48,3.09.07.37.14.79.12.98-.19,1.53-.15,3.08-.11,4.58.02.62.03,1.24.03,1.86v17.35c.02,41.64.03,83.28.02,124.92,0,.94,0,2.69,1.64,3.5.28.14.55.2.81.2.88,0,1.63-.66,2.08-1.06,1.62-1.42.45-2.94,0-3.51l-.14-.18c-.57-.77-.82-1.35-.75-1.75.05-.3.3-.61.75-.93.59-.41,2.1-.56,3.38-.33.85.15,1.28.42,1.35.52.88,1.3,2.53,3.71,4.75,3.1,1.74-.48,2.38-.1,2.97,1.76l.33,1.04,1.01-.42c.22-.09.4-.2.55-.33.33.51.71.88,1.15,1.11.53.27,1.11.31,1.69.12.77-.25,1.09-.71,1.23-1.05.33-.81-.09-1.61-.4-2.2-.09-.17-.22-.41-.24-.51-.82-3.58-.51-4.31,3-7.12,1.43-1.15,2.15-2.5,2.12-4-.03-1.5.08-3.05.18-4.55.09-1.31.19-2.67.19-4.03.03-6.62.02-13.24.02-19.86,0-5.33,0-10.65,0-15.98,0-.58,0-1.08-.02-1.5-.01-.62-.03-1.26.03-1.52.3-.08,1.16-.07,1.99-.07h.96c4.53,0,9.06,0,13.6.01,8.32.02,16.93.03,25.4-.05,6.24-.06,13.58-.37,20.79-2.17,1.2-.3,2.44-.61,2.86-1.71.39-1.03-.24-2.13-.74-2.87-.74-1.08-.55-2.14.54-3.06.17-.14.33-.29.5-.43,1.34-1.18,2.03-1.65,3-1.15.41.21.82.47,1.25.75,1.62,1.04,3.8,2.45,6.26.2,1.09.49,2,.58,2.77.26.79-.32,1.36-1.03,1.69-2.11.07-.21.33-.49.59-.76.63-.66,1.78-1.85.79-3.64.07-.05.16-.12.29-.18.86-.47,1.7-1.04,2.5-1.58,1.11-.75,2.16-1.46,3.19-1.88,3.31-1.33,4.43-3.84,5.52-6.26.43-.97.88-1.97,1.48-2.93l1.41-2.25-2.54.76c-2.95.89-4.42,2.52-4.63,5.13l-.02.27c-.01.21-.04.57-.1.78,0-.01,0-.03,0-.04-.09-.4-.21-.9-.59-1.3-.31-.31-.49-.78-.69-1.33-.33-.85-.73-1.9-1.8-2.62-.06-.13-.21-.58.38-1.06,1.54-1.26,3.34-3.09,3.56-6.12.06-.86.78-1.23,2.28-1.83.41-.16.83-.33,1.24-.54.03.07.06.14.08.2.14.36.3.77.59,1.09.05.05.08.12.12.18.53.87,1.22,1.15,2.03.85,1.17-.43,1.3-1.56,1.38-2.16l.02-.16c1.2-9.02,1.18-15.94-.07-22.43-2.18-11.28-7.74-20.88-16.54-28.54ZM229.6,255.18h-.2s-.05-.02-.07-.02c0-.07.01-.14.02-.2.18.03.4.06.62.05-.15.16-.24.18-.37.17ZM293.46,243.93c.44-.47,1.3-.67,2.64-.62,1.22.07,2.26-.46,3.19-.92.83-.4,1.59-.75,2.35-.75-.02,1.28-.86,2.08-2.23,3.25-.76.65-1.58,1.36-2.19,2.26-.46-.61-1-1.05-1.63-1.32-.48-.21-1-.32-1.56-.32-.34,0-.7.04-1.08.12.02-.79.18-1.37.5-1.71ZM323.29,296.49c-2.95,10.41-10.38,16.23-22.74,17.78-5.61.71-11.17.65-16.53.59-2.77-.03-5.39-.06-7.88.02-2.31,0-4.52,0-6.64,0-5.33-.01-10.37-.02-15.3.05-.84.02-1.11-.11-1.19-.19-.06-.06-.21-.3-.2-1.16.07-18.83.07-36.08,0-52.73,0-.89.16-1.15.23-1.22.15-.15.59-.22,1.31-.22h.07c11.63.07,23.39.05,34.43.02.23,0,.45,0,.67,0,1.37.02,2.94.06,4.5-1.03.41-.28.74-.18,1.75.35.68.35,1.44.75,2.35.79,4.96.22,9.48,1.34,13.43,3.31,7.51,3.75,11.66,10.04,12.69,19.2.6,5.32.29,10.04-.96,14.44Z"/>
        <path class="cls-1" d="M630,282.58l-.11-1.61-1.39.81c-.58.34-1.43.7-2.16.51-.49-.13-.92-.52-1.28-1.15-1.62-2.85-3.28-4.42-5.22-4.94-1.87-.5-3.96,0-6.56,1.54-.5.3-1.02.68-1.51,1.05-.55.41-1.39,1.03-1.69,1.07-1.59.23-2.34,1.52-2.94,2.56-.81,1.4-1.05,1.71-2.25,1.13l-1.2-.58-.27,1.57c-.04.23-.09.46-.11.7l-.15,1.57c-.14,1.38-.28,2.77-.37,4.16-.77,10.99-7.45,19.14-17.85,21.8-4.49,1.15-9.3,2.24-14.26,1.86-1.35-.1-1.84.79-2.1,1.27-.06.1-.11.21-.19.32-.23.33-.55.34-.73.31-.26-.04-.58-.22-.7-.6-.45-1.42-1.72-1.33-2.18-1.29-.9.06-1.83.02-2.81-.02-2.88-.13-6.15-.27-8.8,2.64-.2.22-.5.48-.79.44-.35-.05-.8-.49-1.12-1.1-1.03-2.01-2.69-1.99-3.79-2-1.71.01-3.42,0-5.12,0-2.98-.02-6.06-.04-9.1.07-.84.03-1.36-.05-1.56-.24-.14-.13-.3-.52-.29-1.58.11-18.77.1-35.8,0-52.04,0-1.05.17-1.45.31-1.6.27-.27,1.1-.3,1.79-.3,13.11.1,24.04.17,35.37,0,10.02-.14,18.19.8,25.54,5.9,1.96,1.36,3.58-.07,4.55-.92.36-.32.7-.62,1-.78.72-.39.95-.93,1.02-1.31.19-1.04-.59-1.97-1.22-2.71-1.03-1.22-.84-2.69-.61-4.39l.06-.48c.03-.24.08-.46.12-.67.15-.73.31-1.55-.26-2.25-.59-.73-1.66-.84-2.63-.85-.3,0-.6-.03-.88-.06-.98-.09-2.08-.19-3.31.52,0,0-.02,0-.02.01-.07-.11-.16-.28-.22-.4-.09-.16-.18-.33-.27-.49-.58-.95-.86-2.04-1.17-3.2-.29-1.12-.59-2.28-1.19-3.34-.86-1.53-1.02-3.13-1.18-4.83-.07-.73-.15-1.49-.28-2.23l-.1-.56-.53-.2c-3.36-1.28-6.86-1.13-10.24-.99-1.15.05-2.34.1-3.48.09-15.92-.13-32.1-.11-47.74-.09-5.64,0-11.28.01-16.92.01-4.54,0-5.01.47-5.01,5.06v128.56c0,3.01,0,6.03.01,9.04.02,8.04.03,16.35-.08,24.52-.01,1.06.08,2.39.94,3.25.85.84,2.1.93,3.32.9,7.1-.17,13.41-.16,19.28.01.13,0,.25,0,.38,0,1.01,0,2.09-.14,2.83-.87.84-.82.95-2.08.95-3.31-.05-10.57-.06-21.33-.06-31.72,0-10.2,0-20.39-.05-30.59,0-1.04.11-1.64.35-1.89.24-.24.85-.35,1.77-.34,8.32.1,16.77.09,24.94.07,2.87,0,5.74-.01,8.6-.01,7.63,0,15.76-.12,23.86-1.56,13.5-2.4,24.23-9.05,31.01-19.24,6.16-9.25,8.95-21.01,8.07-34.01ZM566.64,323.37c-1.02-.5-2.17-1.07-2.45-1.98-.08-.25.59-.67,1.05-.95,0,0,0,.01,0,.02.04.16.05.34.06.52.06.62.13,1.47.91,1.87.26.13.52.17.78.16-.13.16-.26.29-.36.37Z"/>
        <path class="cls-1" d="M474.93,235.59c-.78-.88-2.08-.95-3.11-.94-6.26.15-11.97.15-17.46,0-.98-.02-2.2.05-3.01.84-.81.79-.91,1.99-.9,3.05.14,17.6.18,33.34.12,48.1,0,2.02-.02,5.73,4.39,6.19-.93.41-1.48,1.25-1.82,1.94-.29-.13-.62-.19-.97-.12-.77.15-1.11.78-1.32,1.24l-1.13-1.26c-11.94-13.32-26.34-18.39-44.01-15.48-18.86,3.1-32.48,14.56-40.48,34.05l-.61,1.47,1.59-.1c1.81-.12,2.82.94,4,2.16.85.87,1.73,1.78,2.95,2.29l1.36.58.03-1.48c0-.35.44-.75.9-1.16.74-.68,1.9-1.73,1.54-3.38.57.08,1.31.28,1.96.46,1.2.33,1.8.5,2.33.25,1.81-.83,2.61-.36,3.96,1.37.58.75,1.57,1.13,2.71,1.07,1.47-.09,2.89-.88,3.54-1.97,1.61-2.7,3.88-6.15,7.16-8.94,9.75-8.27,25.46-7.28,35.02-1.54,3.69,2.21,6.77,5.14,9.42,8.94l1.19,1.7.59-1.99c.15-.51.34-.99.51-1.45.55-1.42,1.12-2.9.46-4.7-.08-.22.16-.79.77-1.04.06-.02.13-.04.2-.07.45-.15,1.14-.36,1.27-1.07.08-.4-.07-.8-.41-1.08-.48-.4-.67-1.1-.87-1.84-.28-1.02-.59-2.18-1.75-2.8-.63-.34-1.09-.85-1.63-1.44-.86-.94-1.83-2.01-3.67-2.56-.6-.18-1.12-.35-1.58-.51-2.73-.93-4.06-1.22-6.78,1.56-.26.26-.68.48-1.12.7-.22.11-.44.23-.66.35-.35.2-.52.21-.52.22-.05-.05-.2-.32-.25-.92-.1-1.2.27-2.22,1.04-2.87.79-.66,1.89-.84,3.09-.5l.11.03c.97.27,1.81.5,2.48-.1.62-.55.58-1.44.46-2.24-.11-.69.1-1.07,1.44-1.78.04-.02.08-.04.12-.06.02.05.03.09.04.13.12.38.27.85.73,1.24.72.61,1.46,1.25,2.75,1.5.25.05.92.18,1.04.35-.11,1.65.17,2.76.9,3.5,1.01,1.02,2.53.93,4,.85.25-.01.5-.03.75-.04-.17.15-.32.34-.43.6-.11.26-.43,1.05,0,1.75.42.69,1.2.75,1.77.8.12,0,.3.02.43.05.13.52.47.96.76,1.21.47.4.9.89,1.35,1.42,1.13,1.31,2.42,2.79,4.63,2.97,1.36.11,2.7-.12,4-.35.27-.05.55-.1.81-.14.15-.02.3-.06.44-.1,0,0,0,0,0,0-.01.08-.06.16-.19.25l-.34.26c-.59.45-1.14.87-1.73,1.23-.17.1-.46.18-.74.26-.79.21-2.25.61-2.35,2.38-.02.44-.23.93-.45,1.45-.5,1.18-1.18,2.79.12,4.73.2.29.81,2.35-.52,3.39-.58.46-.93,1.14-.94,1.83,0,.39.11.77.31,1.11-.66-.48-1.39-.93-2.14-.68-.42.14-.74.49-.87.95-.16.56-.54,1.11-.95,1.7-.75,1.08-1.68,2.42-1.22,4.22,2.16,8.32,2.5,17.32,1.07,28.31-1.27,9.82-4.62,17.38-10.23,23.1-5.5,5.62-12.5,8.59-21.41,9.1-11.03.62-19.19-3.06-24.95-11.26-9.45-13.46-9.29-29.2-8.1-41.4.28-2.88-.81-4.86-1.86-6.77-.39-.71-.77-1.39-1.07-2.11-.22-.54-.6-.78-.87-.89-.39-.16-.79-.14-1.15-.06-.17-1.95-1.85-2.49-2.83-2.79-.47-.15-.96-.3-1.18-.52-.53-.52-1.13-.79-1.77-.75-.81.03-1.61.5-2.43,1.44-.25.29-.51.64-.78,1.02-.64.9-1.38,1.92-2.22,2.04-.5.07-1.11-.17-1.82-.72-1.2-.93-2.22.15-2.56.51-.07.07-.14.15-.2.21-.29.26-.89.79-.9,1.59,0,.5.23.97.68,1.38.28.25.47.62.69,1.04.34.65.76,1.45,1.64,2.04.85.56,1.61,1.91,1.68,2.42-1.12.97-1.43,2.06-1.47,3.07-.08-.15-.17-.3-.28-.45-1.35-1.87-2.99-1.31-3.97-.97-.36.12-.69.24-.95.24-.81,0-1.49.49-1.84,1.29-.29.66-.35,1.64.19,2.22.82.88.62,1.91.24,3.51-.41,1.72-.91,3.84,1,5.58-.03.23-.11.54-.14.69-.79,3.29-.61,6.61-.43,9.82l.06,1.06c.44,8.71,4.08,16.56,7.21,22.43,9,16.87,26.99,26.84,45.82,26.84,5.86,0,11.8-.97,17.58-2.99,8.04-2.81,13.93-8.1,18.65-13.27,0,.26,0,.52,0,.78.02,2.72.04,5.52-.05,8.27-.03.92.04,1.95.74,2.66.71.72,1.78.78,2.62.77,6.26-.14,11.53-.19,16.85.02,1.36.06,2.75-.02,3.67-.9.94-.9,1.06-2.35,1.06-3.64-.09-33.62-.09-67.81-.08-100.88v-29.56c0-.72-.03-1.44-.06-2.16-.03-.73-.06-1.47-.06-2.2v-1.79c.02-2.97.03-6.05.15-9.06.08-2.16-.9-3.81-1.84-5.4-.78-1.31-1.51-2.54-1.59-3.98l-.03-.52c-.03-.48-.09-1.27.05-1.42,0,0,.13-.13.74-.13.93,0,1.6-.23,2.05-.71.67-.7.64-1.66.61-2.44l-.02-.54c-.04-.81-.07-1.58.03-2.31.11-.82.18-2.01-.58-2.86ZM367.68,341.04c-.39,1.31-.57,1.67-1.26,1.92-.12.04-.21.07-.28.08-.18-.56-.15-.81.53-1.3.46-.34.87-.93,1.09-1.63.02.33,0,.65-.08.92Z"/>
        <path class="cls-1" d="M600.61,246.78c.03.24.08.57.33.87,3.5,4.21,4.26,8.98,2.27,14.18-.19.5-.51,1-.84,1.52-.86,1.36-2.02,3.18-.53,5.41-.52.24-.87.59-1.05,1.04-.34.85.11,1.66.4,2.2l.05.1c.15.28.27.61.4.96.31.85.69,1.9,1.73,2.77l1,.83.54-1.18c.47-1.01,1.14-1.89,1.85-2.83,1.01-1.33,2.06-2.7,2.52-4.52.06-.25.2-.47.22-.5,1.02-.51,1.72-.96,2.06-1.56.05.14.11.29.2.45.53.94,1.53,2.73,3.47,2.63,1.27-.03,1.49.22,1.49.22.08.1.12.51-.42,2.04l1.7.98,1.72-2.03c1.32-1.56,2.65-3.12,3.99-4.66,1.37-1.56.79-4.87-.07-6.73-.72-1.56-1.69-2.39-2.83-2.4-2.25,0-2.69-.83-2.75-3.42-.05-2.17-1.1-3.65-3.13-4.41-.13-.05-.26-.09-.39-.12-.1-.03-.24-.06-.25-.06-1.44-2.92-3.94-4.38-6.35-5.79-.91-.53-1.86-1.08-2.71-1.7l-1.14-.82-.41,1.34c-.17.54-.26,1.08-.34,1.6-.29,1.7-.42,2.2-1.79,2.16l-1.27-.03.27,1.24c.02.08.03.16.04.22ZM611.72,260.79c-.02.46-.02.99.28,1.44.26.4.65.62.94.78.1.05.25.14.28.17.04.05.07.09.1.13-.62.25-1.26.59-1.61,1.17-.09-.38-.25-.8-.47-1.29-.48-1.02-.13-2.01.48-2.41Z"/>
      </g>
    </g>
  </g>
</svg>