<?xml version="1.0" encoding="UTF-8"?>
<svg id="Layer_2" data-name="Layer 2" xmlns="http://www.w3.org/2000/svg" viewBox="0 0 818.28 83.59">
  <defs>
    <style>
      .cls-1 {
        fill: #e4221f;
        stroke-width: 0px;
      }
    </style>
  </defs>
  <g id="Livello_1" data-name="Livello 1">
    <g>
      <path class="cls-1" d="M270.74,34.25c-12.65-2.56-19.07-5.24-19.07-12.8s6.02-11.58,16.11-11.58c10.85,0,17.27,5.48,18.56,15.86l.11.88h11.06l-.15-1.13c-2.22-16.76-12.24-25.26-29.78-25.26-16.29,0-26.82,8.51-26.82,21.67,0,15.58,12.13,19.65,25.64,22.74,13.61,3.06,21.96,5.44,21.96,15.32,0,8.55-6.38,13.66-17.06,13.66-13.69,0-21.26-6.47-22.48-19.22l-.09-.9h-11.31l.06,1.05c.98,18.12,13.47,28.94,33.4,28.94,17.58,0,28.94-9.36,28.94-23.86,0-17.89-13.16-22.07-29.06-25.37Z"/>
      <path class="cls-1" d="M196.58,53.37c-.64,2.64-1.48,6.38-2.1,9.22-.62-2.83-1.47-6.6-2.23-9.46L178.78,1.75h-11.84l-13.91,51.38c-.75,2.81-1.64,6.59-2.29,9.44-.58-2.75-1.36-6.38-2.04-9.19L136.51,1.75h-12.06l20.16,80.2h11.11l15.07-55.86c.67-2.42,1.43-5.6,2.01-8.08.56,2.48,1.29,5.65,1.9,8.06l14.11,55.88h10.68L221.17,1.75h-11.76l-12.83,51.62Z"/>
      <path class="cls-1" d="M90.6,1.75l-28.66,80.2h11.91l8.18-23.84h28.85l8.08,23.84h12.55L102.74,1.75h-12.14ZM94.06,23.19c.86-2.6,1.91-5.93,2.64-8.25.7,2.35,1.72,5.7,2.58,8.25l8.28,24.93h-22.07l8.57-24.92h0Z"/>
      <path class="cls-1" d="M57.67,63.71c-.65-10.13-2.45-16.5-9.66-19.97,7.89-3.37,11.89-9.94,11.89-19.56,0-13.42-9.41-22.44-23.42-22.44H0v80.2h11.56v-33.03h20.14c9.94,0,13.71,3.82,14.41,14.59.9,13.89,1.21,16.5,3.09,18.18l.28.25h11.69v-1.95l-.42-.3c-1.42-1.01-2.43-6.24-3.09-15.98ZM48.02,25.61c0,8.59-5.3,13.33-14.94,13.33H11.56V12.28h22.06c10.1,0,14.41,3.99,14.41,13.33Z"/>
      <path class="cls-1" d="M644.99,63.71c-.65-10.13-2.45-16.5-9.66-19.97,7.89-3.37,11.89-9.94,11.89-19.56,0-13.42-9.41-22.44-23.42-22.44h-36.49v80.2h11.56v-33.03h20.14c9.94,0,13.71,3.82,14.41,14.59.9,13.89,1.21,16.5,3.09,18.18l.28.25h11.69v-1.95l-.42-.3c-1.42-1.01-2.43-6.24-3.09-15.98ZM635.34,25.61c0,8.59-5.3,13.33-14.94,13.33h-21.52V12.28h22.05c10.1,0,14.41,3.99,14.41,13.33Z"/>
      <path class="cls-1" d="M789.22,34.25c-12.65-2.56-19.07-5.24-19.07-12.8s6.02-11.58,16.11-11.58c10.86,0,17.27,5.48,18.56,15.86l.11.88h11.06l-.15-1.13c-2.22-16.76-12.24-25.26-29.78-25.26-16.29,0-26.82,8.51-26.82,21.67,0,15.58,12.13,19.65,25.64,22.74,13.61,3.06,21.96,5.44,21.96,15.32,0,8.55-6.38,13.66-17.06,13.66-13.69,0-21.26-6.47-22.48-19.22l-.09-.9h-11.31l.06,1.05c.98,18.12,13.47,28.94,33.4,28.94,17.58,0,28.94-9.36,28.94-23.86,0-17.89-13.16-22.07-29.06-25.37Z"/>
      <path class="cls-1" d="M541.72,1.75l-28.66,80.2h11.91l8.18-23.84h28.85l8.07,23.84h12.55L553.86,1.75h-12.14ZM545.18,23.19c.86-2.6,1.91-5.93,2.64-8.25.7,2.35,1.72,5.7,2.58,8.25l8.28,24.93h-22.07l8.58-24.92h0Z"/>
      <rect class="cls-1" x="655.96" y="1.75" width="11.56" height="80.2"/>
      <path class="cls-1" d="M714.22,0c-22.84,0-38.19,16.8-38.19,41.8s15.35,41.8,38.19,41.8,38.19-16.8,38.19-41.8S737.06,0,714.22,0ZM740.63,41.8c0,19.22-10.12,31.15-26.41,31.15s-26.41-11.94-26.41-31.15,10.12-31.26,26.41-31.26,26.41,11.98,26.41,31.26Z"/>
      <polygon class="cls-1" points="393.51 45.42 433.57 45.42 433.57 35.11 393.51 35.11 393.51 12.39 437.6 12.39 437.6 1.75 381.95 1.75 381.95 81.95 438.88 81.95 438.88 70.87 393.51 70.87 393.51 45.42"/>
      <path class="cls-1" d="M362.83,52.21c-1.08,12.92-8.96,20.63-21.1,20.63-15.27,0-25.14-12.19-25.14-31.05s9.83-31.26,25.03-31.26c10.95,0,18.56,5.83,20.37,15.59l.15.82h11.33l-.16-1.14c-2.23-15.91-14.29-25.8-31.48-25.8-22.14,0-37.02,16.8-37.02,41.8s14.71,41.69,36.59,41.69c9.83,0,17.94-2.94,23.45-8.5,5.61-5.67,9.31-14.57,9.43-22.67v-1.01s-11.38,0-11.38,0l-.08.92Z"/>
      <path class="cls-1" d="M497.44,63.44c-1.08-2.06-2.54-4.72-3.89-6.87L458.61,1.75h-11.64v80.2h10.92V20.24c1.14,2.04,2.68,4.72,4,6.78l35.14,54.93h11.32V1.75h-10.93v61.69Z"/>
    </g>
  </g>
</svg>