<?xml version="1.0" encoding="UTF-8"?>
<svg id="Layer_2" data-name="Layer 2" xmlns="http://www.w3.org/2000/svg" viewBox="0 0 918.9 694.49">
  <defs>
    <style>
      .cls-1 {
        fill: silver;
        stroke-width: 0px;
      }
    </style>
  </defs>
  <g id="Livello_1" data-name="Livello 1">
    <g>
      <path class="cls-1" d="M538.91,370.06c-1.9-1.39.61-5.64-3.15-5.61-3.39.03.15,3.58-2.09,5.33-1.48,1.16,1.47,2.59,3.11,2.86,1.67.27,2.46-.79,2.14-2.58M542.17,370.43c3.03,3.08,7.52-.23,10.43,2.52.03.02,1.06-.73,1.28-1.26.4-.95-.3-2.26-.99-2.03-3.46,1.17-7.22-3.11-10.72.77M68.63,559.19c3.04,2.4,5.14,1.68,6.74-1.22.68-1.22.81-2.01-.41-2.8-1.83-1.19-3.69-1.52-5.74-.49-.58.29-.8.41-.22,1.1.6,1.81,3.57-.13,4.19,2.51-1.57.31-3.06.61-4.55.9M611.89,492.21c-1.77-3.07-4.4-3.13-7.12-2.6-1.87.36-3.67,1.43-3.11,3.57.67,2.59,2.51.69,3.83.45,2.09-.39,4.16-.91,6.4-1.42M213.11,543.16c-.45.68-.9,1.37-1.36,2.04-.51.74-1.01,1.47-1.54,2.19-1.84,2.49.18,6.12,2.91,5.04,5.57-2.23-2.23-6.16,0-9.27M782.58,509.72c1.35-3.18,1.57-5.58,4.05-6.43,1.15-.4,4.01-.67,2.45-2.96-1.06-1.56-3.45-.97-4.95-.05-2.97,1.82-3.45,4.6-1.55,9.44M156.2,515.07q13.03.05,14.21-5.01c-2.69,8.74-9.91,1.53-14.21,5.01M186.69,464.37c-1.17-1.68-3.25-3.32-3.32-5.05-.2-4.62.15-4.64-4.65-3.45,1.46,3.9,4.79,6.11,7.97,8.5M419.45,437.39c-5.82.94-11.62.27-17.44-.24,5.7,2.69,11.48,3.56,17.44.24M272.16,453.82c-5.6,5.06-10.98,4.99-17.24,5.9,8.29,2.73,14.61.96,17.24-5.9M191.19,538.98c3.62-3.81,6.87-7.23,9.75-10.26-6.91-5.79-4.79,10.68-12.78,4.44,1.77,1.81,1.71,3.75,3.03,5.83M646.92,489.17c-1.21-1.58,1.09-5.42-2.61-6.51-1.81-.53-4.26,1.35-4.2,2.47.22,3.75,1.16,7.11,5.62,7.54,2.17.21,1.75-1.47,1.18-3.5M642.89,461.73c2.96,4.65,5.33,8.45,7.79,12.2.65.98,1.63,1.6,2.88.88,1.51-.87,1.67-2.92.92-3.51-3.66-2.88-5.58-7.93-11.59-9.58M190.65,558.25c-7.36-.11-4.33-4.38-4.08-7.33.13-1.5.9-4.29-.95-3.52-2.83,1.18-7.16.55-8.75,4.6,3.06,1.89,4.56-2.62,7.61-.59-.03,3.33-4.1,10.25,6.17,6.84M487.56,369.09c-2.83,6.88,2.24,7.16,5.87,8.2,1.41.4,3.6-.15,4.09-1.76.7-2.29-1.76-2.18-3.04-2.65-2.45-.9-4.97-1.58-6.92-3.79M209.85,583.45c2.07,4.97,7.04-4.08,8.41,2.59,1.45-1.46,1-3.73,2.61-5.38,1.16-1.19-1.11-2.22-2.25-2.34-2.43-.26-4.9-.08-8.4-.08,5.41,3.08.42,4.02-.36,5.2M137.6,449.06c.13,3.56-.56,7.02,3.24,7.84,2.55.55,4.68-1.42,6.11-3.47,1.82-2.59,1.45-5.14-.7-7.62q-.62,7.16-8.65,3.25M414.74,410.09c-.41-2.09-2.49-3.29-2.86-2.91-3.05,3.12-5.46,1.44-7.96-.61-2.08,4.04,4.58,4.9,3.21,8.79-.19.55.99,1.47,1.02,2.24.04,1.31.22,2.26,1.74,2.24,1.36-.02,2.05-1.12,2.39-2.11.92-2.66-5.38-7.35,2.45-7.64M429.12,417.29c-2.58.92-5.17,2.77-5.44-1.64-.08-1.38-1.94-2.55-3.81-1.74-2.11.91-4.2,1.96-4.61,4.56-.12.78.18,1.63.29,2.44,5.66-3.48,3.03,2.94,5.09,4.5.53-5.38,7.84-1.83,8.48-8.12M482,386.98c-2.97-1.73-4.93-.59-5.43-.98-5.69-4.51-6.32,5.9-11.2,3.76-.24-.1-.91,2.11.59,2.55,2.45.71,4.38,3.74,7.72.14,1.84-1.99,3.38-5.36,8.31-5.47M304.41,627.6c.49-1.05.85-1.89,1.26-2.71,2.84-5.76.52-9.57-5.9-9.64-1.85-.02-3.95,1.79-2.61,2.62,3.87,2.36,1.53,8.69,7.25,9.73M216.17,609.59c.89-1.6,3.94,4.03,5.22-.54,1-3.57,3.27-5.33,7.51-5.38-7.61-3.29-5.1-7.13-1.09-11.06-3.9-1.61-7.36.65-7.7,2.72-.41,2.47-5.47,5.82.08,8.43.45.21.58,2.96-.41,2.36-6.14-3.77-2.13,3.74-3.62,3.47M454.84,381.28c.19-4.02,4.85.28,4.19-3.38-.39-2.15-2.72-2.82-5.35-3.14-7.27-.89-5.8,6.29-8.86,9.2-2.52,2.4,2.71,2.6,3.26,4.31,2.33,7.21,6.37,2.21,9.63,1.4,1.6-.4,4.36,1.36,4.76-2.28.34-3.08-2.23-3.05-3.73-4.11-1.25-.89-2.76-1.43-3.91-2M312.75,590.38c-.24-.77-.45-1.41-.63-2.06-.85-2.96,1.02-7.53-2.09-8.71-3.1-1.18-2.67,3.91-4.82,5.78-2.78,2.42-5.88,4.65-8.51,7.37-2.98,3.09-1.16,6.4-.03,8.42,1.75,3.15,3.99-.58,5.96-1.32,2.73-1.03,3.59-5.4,6.59-5.24,4.05.22,2.71-2.66,3.54-4.24M517.04,394.28c-2.45,1.1-4.84,1.83-6.83,3.17-1.32.89-4.03,1.79-2.86,3.98,1.06,1.99,3.08.8,4.82.02,5.94-2.66,12.01-5.04,17.93-7.75,3.51-1.61,5.22-8.04,3.21-7.85-5.02.46-8.16-4.69-12.62-3.82-4.53.89-5.01-.65-4.91-4.49.06-2.25.75-6-2.28-6.48-3.6-.57-3.77,3.47-4.47,5.84-.97,3.26.27,7.51-5.84,6.75-2.07-.26-1.54,3.44-2.27,5.26-.78,1.95,1.35,2.65,2.81,3.16,1.25.44,3.12.89,3.67-.65,2.2-6.2,3.87-5.35,5.97.07.47,1.2,2.37,1.84,3.68,2.79M355.45,551.6c1.57.45,3.14.65,4.71-.02,9.74-4.11,20.28-2.66,30.39-4.26,1.46-.23,3.08.91,3.83-1.28.73-2.14-.98-2.89-2.29-3.66-1.36-.8-2.9-1.37-4.43-1.81-17.25-4.97-33.26,1.36-49.44,5.66-2,.53-3.44,3.12-2.92,5.64.54,2.67,2.95,2.14,4.93,2.62,5.58,1.35,9.81-3.79,15.21-2.9M565.28,459.74c-6.08,5.97-2.6,6.9,3.06,9.06,6.07,2.32,12.35,2.57,18.4,3.49,7.26,1.1,15.44,3,22.34-.96,5.15-2.96,10.68-3.87,16.07-5.55,2.21-.69,3.86-1.08,3.68-3.89-.17-2.61-.06-5.07-3.39-5.92-4.43-1.14-8.53-3.38-13.23-3.67-2.49-.15-4.83-.87-6.71-2.9-4.82-5.19-20.05-2.52-22.76,3.89-2.52-5.26-13.39-1.71-24.09,7.89,2.27.68,3.21-2.67,6.63-1.44M169.52,452.98c-2.78,6.7-4.38,7.16-9.43,2.08-.92-.92-1.23-.97-1.95-.46-.49.35-1.14,1.06-1.08,1.52.5,3.61,6.78,5.94,9.72,3.66,1.45-1.12,3.05-2.12,4.29-3.45,2.25-2.42-1.07-2.14-1.71-3.18,2.61-3.94,6.09-5.74,11.1-4.06-.51-1.83-.92-3.35-1.43-5.17-3.85,2.22-7.66,4.51-11.56,6.62-1.62.87-2.88,2.21-1.76,3.63,1.62,2.05,2.33-1.34,3.82-1.2M436.34,532.94c-.75,4.12-6.56,5.19-6.08,10.16.13,1.29-1.26,3.2-.73,3.91,4.83,6.48,6.27,15.76,13.16,19.99,4.2,2.58,7.75,6.24,8.41,9.38,1.07,5.07,4.26,7.51,7.81,11.05-7.25-.51-12.2-7.16-19.36-4.95l.24.2c-4.96-2.99-10.26-4.35-11.74-12.22-1.2-6.42-1.55-11.92.2-17.97.59-2.05,1.14-4.7-.74-6.52-2.32-2.23-4.27-.06-6.06,1.13-3.95,2.63-6.83,1.98-9.99-1.7-5.4-6.27-13.03-8.93-20.74-11.17-1.17-.34-2.93-1.11-3.53.71-.63,1.92.94,3.12,2.42,3.63,3.07,1.07,5.7,2.72,8.41,4.5,3.99,2.62,3.04,6.81,4.23,10.28.46,1.33-.65,2.31-2.38,2.63-14.92,2.7-28.34,9.4-42.11,15.38-6.79,2.95-12.57,5.91-15.2,13.14-.15.4-.5,1-.8,1.03-10.41,1.04-12.29,11.6-18.85,16.94-2.29,1.87-4.52,4.86-3.28,7.79,3.09,7.3.94,14.24-.42,21.29-.58,3.01-4.14,6.27,1.08,8.72.74.35.69,2.35,1.17,4.22-5.87-2.77-11.8-4.04-15.71-9.47-1.56-2.17-5.15-1.86-7.65-3.91-4.58-3.76-3.5-8.99-4.77-13.45-4.06-14.15-6.12-29.22,3.02-41.62,8.04-10.91,15.34-23.32,28.96-29.19,3.47-1.49,7.92-.67,10.45-4.33,6.59.45,11.6-3.63,17.21-5.96-5.87,1.57-12.69.56-17.08,6.18-10.53-.95-18.1,5.6-25.47,11.21-7.79,5.93-13.6,13.96-18.2,22.93-3.52,6.85-11.12,10.14-16.85,15.03-10.56,9.01-21.85,17.18-34.03,24-23.59,13.2-48.69,22-75.47,25.76-8.54,1.2-17.16,1.85-25.75,2.65-1.42.13-3.24.61-4.34-2.12,6.18.13,8.48-5.92,13.59-7.82,1.23-.46,1.83-3.94,4.22-2.06,1.96,1.54,1.88,3.95.09,5.98-.38.44-.76.88-1.51,1.75,5.83.29,2.78-12.12,11.98-5.84-2.05-3.21-4.9-3.1-5.9-5.83,3.08-1.62,7.55.85,10.11-2.95.6-.9,2.13-.17,1.06,1.51-.49.76-1.9,1.59.48,2.05,2.77.54,2.75.83,1.07,3.55-.7,1.13.29,1.67.72,2.37.79,1.29,1.84,1.45,2.59.06,3.7-6.87,12.39-7.54,16.92-14.08,2.31-3.33,8.88-3.5,10.08-9.5.29-1.44,2.6-.58,3.43,1.02.95,1.83-.47,4.12,1.3,6.13,1.75-3.44,4.2-6.41,5.83-9.58,2.08-4.03,8.52-8.41,1.48-13.93-.24-.19-2.77-5.88,1.63-7.3-.79-1.61-1.48-1.01-2.11-.97-6.48.34-7.09-.24-4.32-5.99.86-1.79,1.47-2.83-.15-3.92-2.37-1.6-4.93-2.92-7.4-4.36-.31.57-.75,1.11-.92,1.72-.33,1.21-.23,2.13,1.39,2.43,1.46.28,3.39-.22,4.24,2.11-2.37,2.74-5.76,3.9-9.03,3.14-1.92-.44-1.96-3.52-2.48-5.75-.46-1.96-.52-2.86,1.15-3.52,3.96-1.55,3.67-6.98,7.97-8.49.88-.31,1.08-5.01-.26-5.36-5.94-1.56-3.7-4.71-2.3-8.05.35-.83-.28-1.76-1.51-2.16-2.2,2.46-.12,9.13-6.84,7.53-.03,0-.65,1.54-.6,2.34.09,1.63,1.23,1.79,2.33,1,1.41-1.01,2.72-1.74,4.53-.42-1.49,4.57-6.16.78-8.71,3.49,2.65,1.38,2.79,4.23,3.87,6.91-4.83,1.7-8.66-3.13-13.34-2.29-1.4.25-3.17-1.73-4.21.39-.8,1.62.33,3.09,1.2,4.45.62.96,1.25,1.93,1.97,2.81,1.03,1.24,1.5,2.57-.29,3.27-1.17.45-2.55,3.04-4.06-.32-.86-1.91-3.48-3.06-5.35-4.48-.9-.68-1.92-1.21-2.88-1.81-2.23,3.82-9.09.76-9.9,6.67l.21-.19c-3.75-.2-4.9-1.91-3.1-5.33.32-.55.63-1.1.95-1.65,4.07-3.51-1.87-6.64-.44-10.21.37-.93-.78-2.53-1.35-3.77-1.94-4.2-1.96-4.19,1.62-6.99-2.12,1.47-6.51-.85-6,5.22.25,3,5.2,5.93-.11,9.8-3.35,2.44-7.37-.63-9.8,2.8-4.58-3.96-5.66,1.57-7.42,2.79-3.44,1.08,1.89-5.92-3.5-2.47-.44.28-1.52.14-1.92-.22-2.05-1.83-4.52-4.44-6.98-2.43-2.79,2.28.32,4.59,1.48,6.9.71,1.41.77,2.5-2.46,2.53-3.94.04-7.78-1.4-11.72-.63-.39,1.75,4.28.56,1.91,2.62-1.29,1.13-.74,6-4.73,3.23l.11.13c-.53-1.37.74-3.3-1.24-4.22-4.4-2.05-2.68-5.72-2.44-9.02,1.8-1.85,3.6-3.7,5.4-5.54.63.73,1.85,1.45,2.28.7,3.39-6.03,9.5-9.93,13.77-16.33-3.89.1-5.36,2.21-6.38,3.93-2.17,3.67-4.17-1.81-6.05.22-1.46-2.01.66-2.52,1.39-3.76,2.5-4.23,4.96-8.54,6.81-13.08.54-1.33-.98-3.5-1.33-4.6-6.56.49-11.87,7.43-19.06,2.4-.89-.62-1.23.11-1.59.38-3.06,2.31-5.79,2.45-9.08,0-1.31-.97-3.92-.17-5.93-.18,2.04-1.81,4.17-3.53,5.16-6.21,1.94.56,3.85,1.26,5.83,1.63,2.16.4,4.22-.52,5.64-1.94.7-.7-.58-2.15-1.58-2.64-2.23-1.08-4.85-2.1-6.3.81-.88,1.76-1.85,2.27-3.55,2.11-6.35,2.32-11.74,5.59-13.16,13.74,2.62-1.81,5.53-2.22,6.72-5.19,3.38,2.33,8.05-2.54,11,2.21-.61,3.36-4.81,3.46-6.37,6.41-1.39,2.62-2.63-.04-3.03-1.05-.87-2.19-2.59-1.73-4.03-1.54-1.32.17-1.58,1.74-1.52,2.77.11,2.16,2.47,1.45,3.66,2.38,1.69,1.31,3.93-.61,5.98.55,1.7.96,2.32,1.9,1.16,3.91-1.1,1.91.85,1.47,1.41,2.06,1.03,1.08,3.13,1.43,2.65,3.53-.51,2.24-2.44,1.77-3.96,1.64-7.04-.62-1.81,2.09-1,3.6-4.16.98-4.62,7.03-9.54,6.98-.9,0-1.8.08-2.71.13-.35-1.97,3.05-1.43,1.82-4.01-4.44,2.67-9.78.71-14.47,2.78-2.13.94-2.79-1.32-3.39-2.11-.9-1.18.95-1.75,1.96-1.95,2.23-.44,4.51-.64,7.24-.99-.98-4.19-2.26-8.52,1.69-12.25.8-.75.83-3.14-1.54-4.27-2.99-1.43-2.88-.37-3.02,2.14-.07,1.22-1.77,2.98-3.69,2.14-2.86-1.26.2-2.37.2-3.48-.03-4.61,4.18-7.62,4.4-11.71.13-2.33,2.94-5.6-.11-7.17-2.32-1.2-5.67-2.61-8.31.29,1.18.85,5.14-.36,3.29,2.41-1.86,2.79.74,7.43-3.63,8.5-2.29.56-.45-1.38-.71-2.05-1.23-3.13-4.76-1.65-5.71-1.09-5.92,3.49-6.48.47-5.73-5.5-3.73,4.16-7.63,3.25-13.36,1.84,5.77,4.81,3.44,6.79-.07,9.77-2.05,1.74-1.47,1.59-2.68-.24-1.16-1.77-3.64-1.93-5.41-1.08-.84.41-1.58,2.78-1.15,3.68.84,1.74,2.8,4.22,4.55,3.36,7.52-3.67,4.37,6.94,9.18,6.53.18,2.48-1.95,2.37-3.31,2.57-3.09.46-6.23.53-9.8.8,1.07,2.54,2.93,1.31,4.13,1.79,1.55.62,2.2,1.87,1.87,3.28-.3,1.26-.95,2.84-1.95,3.45-1.58.97-2.03-.74-2.89-1.83-1.08-1.37-2.73-2.39-4.29-3.26-1.24-.69-2.62-1.51-3.38,1.04-.76,2.52-.78,3.36,2.16,2.55,1.52-.42,3.04.87,2.85,2.12-.27,1.79-2.05.83-3.35.92-11.7.8-14.87-1.89-15.75-13.81-.74-9.96,1.31-19.95-.24-29.92-.32-2.03.95-3.66,2.43-4.72,4.2-2.98,6.05-8.17,9.64-11.19,7.45-6.26,10.42-15.95,18.18-21.76,8.04-6.02,15.49-12.98,24.02-18.15,11.71-7.1,24.48-12.28,37.59-16.4,5.67-1.78,11.3-3.79,17.09-5.01,4.15-.88,8.49-6.06,12.82-.22,1.51-3.31,7.29.63,7.81-4.58.04-.41,1.53-.89,2.38-.97,17.32-1.73,34.48-6.4,52.04-3.55,3.77.61,10.15-1.39,10.09,6.46-.01,1.62,3.26,1.96,4.85,1.62,4.66-1,8.88,1.03,13.21,1.7,3.95.62,7.22,2.14,9.69-2.43,1.08-2,2.83.23,3.1.59,1.26,1.72,5.27,1.42,4.37,4.05-1.38,4.07,2.36,2.03,3.14,3.3.99-1.15,5.24,1.27,3.37-3.18-.5-1.2-.02-1.45,1.95-1.18,8.33,1.15,16.66,3.35,24.8-1.2,1.39-.78,3.67-.73,5.25-.2,2.07.69,4.13,2.77,2.88-1.73-.07-.23,1.18-1.24,1.49-1.11,6.33,2.57,10.58-2.9,14.06-5.5,6.24-4.64,12.13-9.42,19.21-12.94,3.11-1.55,14.41-11.7,17.02-13.36,3.56-2.27,10.08-1.58,8.28-9.56-.82-3.63,11.14-7.56,13.77-4.65,1.61,1.78.48,3.56-1.28,4.58-2.72,1.58-5.58,2.92-8.83,4.6,6.67,2.09,11.38-2.12,16.69-3.57-1.26-6.64,11.45-9.01,5.24-17.29-1-1.33-.27-3.78,1.27-4.18,4.64-1.2,8.7-6.16,14.84-2.15-2.84-2.95-2.93-4.5.58-6.58,7.61-4.52,14.86-7.4,23.07-1.52,1.88,1.35,4.07.98,6.5.08,2.59-.96,5.55-2.3,9.55-.74-3.88,2.15-6.4,4.79-10.47,5.85-1.79.47-5.43-.24-6.39,4.43-.77,3.77-.95,4.22,2.6,4.07,1.33-.06,3.01-.22,3.57,1.36.72,2.06-1.23,2.58-2.43,3.59-3.83,3.22-8.59,2.26-13.23,2.61,1.16,3.31,4.79,2.13,6.1,4.54.04.77-.67,1.16-1.27.91-9.93-4.11-16.11,2.49-22.3,8.16-3.24,2.97-6.35,3.19-10.06,2-3.62-1.17-6.96-2.86-6.15,3.93.45,3.71-3.28,4.85-6.59,4.2-.61,2.47,1.52,2.51,2.03,3.75,1.47,3.59,3.46,7.35-3.38,6.47-2.8-.36-4.99,2.67-7.91,1.23-1.26-2.13,2.64-2.5,1.48-4.7-5.55-1.91-8.17,3.87-12.21,5.62-6.4,2.77-13.61,6.62-16.46,14.03-1,2.6-1.67,1.25-3.13,1.36-4.31.33-8.4,1.71-11.68,4.8-.73.68-1.16,1.48-.7,2.4.51,1.01,1.53.98,2.39.58,8.16-3.79,16.8-2.28,25.81-2.63-2.49,8.52-7.93,15.6-8.56,24.93,4.09-7.67,10.2-12.31,16.8-16.57-.21,5.02-3.3,8.39-6.02,11.9,1.22,1.05,2.83-.83,3.92.97-2.11,1.56-4.12,3.74-6.9,3.35-1.9-.27-2.54.26-2.89,1.74-.13.54-.04,1.53.29,1.73,1.16.67,2-.16,3-.81,1.66-1.08,3.52-1.95,5.4-2.59,2.89-.99,4.63-1.69,3.44-5.8-1.5-5.16,1.61-6.98,6.94-4.72-.44,2.07-4.67-.76-3.84,2.98,3.46-1.21-2.84,8.91,4.16,3.58.97,1.47,2.61,2.86,2.79,4.43.43,3.67-3.52,1.83-4.97,3.3.04,2.2,1.78,1.7,2.99,1.86,3.73.48,4.74-4.14,8.84-4.28,3.95-.13,1.17-5.43,2.69-7.51,2.65-3.61.98-8.03,3.31-12.11,1.73,3.53,3.28,6.69,4.87,9.93q5.32-4.55,18.92,1.02-11.45-11.39-5.9-15.66c-2.11-.92-4.08-.48-5.91.47-2.98,1.56-5.05.26-6.1-2.32-1.38-3.38-.39-6.27,3.11-7.96,2.03-.98,3.92-5.18,6.23-.33.44.92.97,1.59,2.04,1.3,1.09-.29,1.29-1.31,1.11-2.19-.49-2.49-1.19-4.86,1.74-6.55.78-.45.23-1.59-.79-2.08-2.64-1.25-4.35.32-6.01,1.95-1.91-1.79.2-5.65-3.07-6.38-2.51-.57-5-.73-6.47-3.11.71-2.14,3.22-1.62,4.27-2.97.19-2.57-3.54-2.27-3.25-4.85,3.79-2.3,4.69,4.44,8.76,2.28-4.95-7.95,2.75-9.92,7.11-11.67,4.47-1.8,8.05-4.04,11.4-7.76-1.72,7.88,5.35,10.73,8.36,15.67,1.34,2.2,4.54-2.11,7.19-.64.63-1.48,1.2-2.92.11-4.48-.87-1.24-2.75-2.59-1.3-4.11,1.27-1.33,3.69-1.3,5.21-.49,2.66,1.43,4.39,2.48,4.94-1.84.15-1.16,2.14-1.42,3.46-.28,2.57,2.23,5.67,4.06,7.58,6.76,1.55,2.18,3.19,2.46,5.19,2.24,5.58-.61,10.48-3.8,16.3-3.89-6.95-2.84-15.47,3.16-20.84-5.03,1.44-3.59,5.08-1.01,7.29-2.59.45-2.9-2.52-1.99-3.65-3.21-3.44-3.72-8.1-7.14.96-9.54,1.5-.4,2.18-1.87,1.6-3.33-.92-2.31-2.04-.25-3.14,0-3.55.8-6.83.25-10.47-2.82,6.27.99,7.76-3.89,10.93-6.48-1.14-2.47-3.81-.52-4.56-2,1.65-6.77,9.65-4.68,13.83-10.34-12.49,2.69-23.69,5.24-35.68,6.27,14.97-10.24,31.86-10.83,48.45-14.05-.51,3.77-2.8,6.52-5.92,9.09-4.89,4.02.46,7.37,1.61,10.5,1.46,4,2.67.04,4.41-.88,2.57-1.37,6.39-1.9,9.18-1.09,6.86,2,9.68-2.19,10.77-7.09,1.2-5.43,3.16-4.72,6.44-2.32,2.63,1.92,6.53,2.63,6.37,7.18-.03.91,1.28,1.97,2.62,1.76,1.71-.27,2.15-1.49,1.86-3.05-.57-3.04-.62-6.01.21-9.81,3.56,3.03-4.07,6.85,2.34,8.6,6.06,1.66,5.79-3.9,7.38-5.9,3.27-1.13-.97,7.16,4.65,2.22,2.57-2.27,4.09,1.02,5.22,2.66,1.08,1.57,1.31,3.73,2.01,5.96,5.36-3.94-1.57-7.29.12-11.33.94-2.26-.78-5.11,3.71-4.53,1.05.13,3.47-.8,3.54-2.57.06-1.66-1.52-2.61-3.23-3.03-4.67-1.15-9.28-2.61-14-3.53-3.74-.73-3.74-3.13-1.37-4.35,8.28-4.27,11.35-15.14,22.28-16.02.32,7.21,4.63,6.72,10.39,2.77-.31,2.66-3.92,4.11-1.3,6.2,2.77,2.21,6.16.47,7.29-1.4,1.83-3.05,2.19-1.8,3.94-.2,2.88,2.62,6.19,4.62,10.43,4.52,4.56-.11,7.45-3.54,5.23-7.4-1.87-3.25-2.09-6.39-2.05-9.82.02-1.58.47-3.98-1.19-4.37-6.11-1.43-3.51-6.75-2.02-7.77,2.78-1.9,7-2.25,9.31,2.19.81,1.55,5.61,10.84,5.85,12.6.19,1.36.99,2.32,2.1,2.39,3.31.19,7.29-.73,5.38,5.07-.26.79,1.1,1.27,2.08,1.18,1.27-.12,2.18-.8,2.49-2.02.5-1.98.72-4.87,3.48-3.9,2.24.79,1.66,2.86.34,5.06-1.61,2.67.72,4.97,3.11,4.56,7.54-1.29,10,3.03,10.81,9.34-6.5,2.06-14.8,1.1-20.19,8.43,2.58,1.47,3.22,6.17,7.14,6.3,4.19.14.08-5.11,3.46-6.41,1.03,2.35-.15,4.38-.79,6.41-.41,1.31-1.32,2.81.34,3.59,1.17.55,2.49.15,3.62-1.11,2.99-3.35,5.22-3.33,6.3,1.68.34,1.57,13.3,5.1,14.11,3.94,1.35-1.95-1.98-5.05,1.71-6.93,2.56,1.43.16,7.26,4.89,6.62,5.49-.74,11.61-.41,15.33-5.75,1.17-1.67,2.82-3.41,4.21-2.25,5.21,4.34,6.49-.59,8.66-3.6.72.68,1.42,1.05,1.63,1.6.68,1.76-2.17,4.63.78,5.33,2.62.62,2.21-2.87,3.11-4.46,1.09-1.93,2.77-3.43,4.22-1.93,6.18,6.35,10.92,2.33,16.31-1.48-1.97,5.1-7.09,7.3-10.23,11.21-6.34,7.89-13.67,14.99-20.53,22.47-1.99,2.17-2.81,5.45.97,5.36,5.59-.14,9.22,3.46,13.79,4.91,10.38,3.29,21.18,5.37,31.9,7.45,6.35,1.23,12.1,4.02,18.15,5.97,2.72.88,2.78,3.24.28,5.76-5.74,5.77-5.1,7.87,2.69,11.02,2.02.82,3.96,1.85,4.23,4.11.28,2.37,2.4,3.23,3.21,4.73,1.54,2.85,7.76,2.76,5.72,6.37-1.73,3.07-6.51,1.86-10.32.43-.02-2.07,4.9-2.59,2.04-5.73-2.24-2.46-5.07-1.97-7.73-1.99-3.74-.03-1.96,2.66-1.84,4.47.12,1.82-1.08,2.8-2.18,4.03-1.35,1.51-2.19,3.24-.55,5.47,3.31,4.51.89,7.18-3.56,8.2-2.54.58-4.07,1.96-3.67,4.03.46,2.35-.1,5.18,1.95,7.03.5.45,2.2.47,2.51.06,3.92-5.22,3.46,1.91,5.68,1.83-5.39,2.17-9.73,6.82-16.22,5.13-1.72-.45-4.74-2-5.16.92-.35,2.48.91,5.76,3.96,6.52,4.39,1.09,9.43-.61,12.67,4.81.78,1.3,6.13-.25,4.72-4.66-.94-2.96,0-4.7,1.97-6.64,2.41-2.37,4.01-2.84,5.44.88,1.85,4.81,4.89,5.39,10.37,5.56,5.57.18,9.95-.72,14.62-2.9,1.61-.75,6.15,4.51,5,6.05-1.81,2.44-.54,4.13.27,6.69,3.03-3.08,7-4.77,7.7-9.2-1.35-2.71-4.09,1.23-5.72-2.1,5.1-.87,8.8-5.06,14.27-5.15q-1.48,8.86,14.98,13.49c-9.38,4.52-.19,10.34-1.62,15.63-.44,1.63,2.14,1.05,3.33,1.26,2.39.42,1.86-1.46,1.65-2.69-1.22-7.34,3.01-12.25,7.74-16.7,1.76-1.65,4.04-2.38,6.37.57,2.84,3.59,3.24,9.1,8.75,10.8,1.34.42,0,2.1-1.54,2.64-5.86,2.06-4.69,6.82-4.04,11.25.16,1.08,1.59,2.28,1.32,3.06-3.02,8.94,2.98,1.46,4.73,2.71-3.67,5.39,4.5,3.18,4.42,6.69,2.36-.45,2.08-2.65,2.59-4.19.37-1.12-3.88-1.3-1.07-3.25,1.41-.98,2.34.78,3.33,1.64,1.3,1.14,3.1-1.33,4.4.64-.69,2.27-4.21.27-4.66,3.02-.16,1.02-1.7,1.9-.65,3,.49.52,1.85.82,2.45.51,2.83-1.45,7.98,3.47,8.87-3.19.6.19,1.42.19,1.76.6.81.99-.14,1.75-.79,2.23-3.96,2.9-3.29,7.98-5.21,11.85-1.66,3.33,9.22,10.04,14.18,8.53-1.69,2.3-3.53,3.36-5.76,3.85-2.13.47-2.32,2.04-1.97,3.73.47,2.3,2.22,1.93,3.82,1.56,1.12-.26,2.24-.6,3.27-1.08,3.03-1.41,3.48.9,4.13,2.83.86,2.56-.44,3.32-2.78,3.25-1.31-.03-2.78-.61-3.83.75,6.23,5.9,13.33,6.21,19.19.58,1.91,3.37,1.53,7.39,2.42,10.78,1.13,4.3,4.3,4.43,5.59,3.78,7.01-3.49,9.94,3.02,14.33,5.42,5.75,3.14,9.01,10.31,17.74,8.9,2.13-.35,5.38,5.03,8.66.1l-.09-.24c2.17,2.65-1.19,6.35,2.11,9.15,2.03,1.72,3.34,3.07,6.1,1.96,3.69-1.49,6.96.82,10.15,1.94,2.71.95.4-2,2.56-2.13,6.58-.4,8.38,1.54,7.55,11.03-1.53-2.74-3.83-4.8-5.87-2.67-2.4,2.5-.92,5.89.36,8.8,4.96-3.87,4.1,2.04,4.59,3.36.65,1.75.2,4.86-1.05,6.18-2.74,2.9-4.95-.52-6.95-1.86-10.87-7.26-21.58-14.77-30.43-24.52-7.68-8.46-18.92-8.56-28.55-12.41-11.63-4.66-23.34-9.26-35.32-12.87-9.72-2.92-20.04-3.72-30.02-1.22-4.86,1.22-9.32.65-13.99.27-1.98-.16-4.19-.61-5.52,1.46-1.36,2.11,1.58,2.71,1.85,4.61.46,3.17,2.83.03,3.97.45,3.36,1.23,7.05-1.96,10.53,1.95,2.33,2.62,4.11,3.67,1.85,7.21-.95,1.48-.53,4.05-.26,6.05.55,4.01.85,7.73-4.63,8.95,9.39,6.91,11.8,22.83,5.63,34.78-7.04,13.62-18.19,22.75-32.46,27.98-7.06,2.59-14,5.8-21.61,6.55-1.61.16-4.03,1.07-4.83-1.28-.99-2.89,1.87-3.42,3.53-4.18,3.44-1.57,7.11-2.63,10.62-4.04,1.88-.76,7.44,2.02,4.04-4.27-.85-1.58,1.84-1.32,2.85-1.21,4.38.46,6.77-1.89,9.21-5.15,4.37-5.84,11.27-8.36,17.71-10.62,3.11-1.09,2.99-1.26,1.93-3.58-1.74-3.84-2.46-7.57,1.03-11.1,1.39-1.41,1.02-3.61-.16-5.06-5.45-6.68-4.72-16.94-10.76-22.33-6.45-5.76-3.62-14.72-9.76-19.94-3.01-2.55-6.24-5.07-7.97-8.97-1.15-2.58-3.66-2.11-6.06-1.79-6.85.92-13.32.12-18.77-4.74-2.12-1.9-4.5-1.98-7.06-.74-1.79.87-3.16,2.08-3.27,4.09-.14,2.47,1.81,2.75,3.68,3.2,2.37.57,5.27.72,6.04,3.65.37,1.4-1.5,1.42-2.39,2.02-3.29,2.2-5.11.04-6.75-2.36-1.24-1.81-2.9-3-4.93-3.58-4.01-1.15-6.95-4.65-5.82-7.73,1.14-3.1,3.67-7.27,9.17-6.37,7.57,1.23,15.26,1.71,22.22,2.45-4.58-16.19-20.45-21.12-31.62-30.84-7.27-6.32-16.89-9.19-26.69-8.94-4.48.12-5.03-2.18-5.23-5.06-.32-4.79-.15-9.61-.14-14.42,0-3.21-1.05-5.82-4.03-7.38-1.27-.66-3.56-1-3.72,0-1.56,9.54-6.39,1.31-9.53,1.75-1.36.19-2.54-2.09-4.38-1.28-8.37,3.71-17.69,1.97-24.99-.4-7.33-2.38-12.27-.68-18.4,1.15,1.41,2.31,3.64,1.6,5.16,2.42,2.13,1.14,4.35,3.1,4.19,5.47-.18,2.64-2.96,1.01-4.56,1.31-2.68.51-4.72.86-4.04,4.7.76,4.27-2.47,4.12-4.57,2.31-1.94-1.68-3.81-2.03-6.08-2.27-3.51-.37-7.25-.31-9.06-4.43-.71-1.61-2.41-1.99-4.14-1.88-3.26.21-5.95-1.69-7.97-3.53-4.67-4.25-8.04-10.4-12.62.62-1.58,3.79-8.09.5-9.77-2.14-4.57-7.19-5.99-15.81-8.62-24.02-4.32,3.26-5.33,8.29-6.2,13.16-2.38,13.17-1.56,25.92,5.55,37.79,2.16,3.62,5.15,5.54,9.1,6,6.24.73,12.08,2.58,17.95,4.84,5.22,2,10.91,0,16.73,1.43,19.68,4.84,39.99,5.52,60.01,2.66,6.83-.98,14.97-2.13,19.09-10.78,2.74-5.76,5.75-4.54,9.64.63,2.97,3.94,4.96,9.33,10.84,10.59,1.24.27,3.05,1.33,3.27,2.32.92,4.14,3.53,4.97,7.3,5.21,1.82.12,4.11,1.58,5.1,3.13.81,1.28,3.58,3.75-1.13,5.33-5.99,2-11.47,5.5-17.15,8.4-1.29.66-3.04,1.4-.43,2.83,1.18.65.98,1.47.35,2.77-2.4,4.97-1.03,8.78,4.12,11.09.59.27,1.49.89,1.48,1.33-.19,7.78,4.99,15.42,3.12,22.52-1.91,7.22.57,12.74,2.38,18.74.69,2.28.52,4.81.97,6.26,2.43,7.87-6.22,6.39-7.84,10.45-.09.23-1.49.33-1.8.02-3.94-4.02-8.07-1.85-11.99-.25-5.81,2.36-8.57-1.18-10.28-5.49-2.94-7.44-7.57-14.06-10.21-21.64-.27-.76-2.49-1.37-3.66-1.18-2.55.41-1.17,2.52-.9,3.74.62,2.78,3.93,4.84,1.53,8.43-3.55,5.31-6.2,11.29-11.65,15.11-.86.61-1.59,1.08-2.9.09-9.7-7.32-20.72-5.48-31.74-4.61-7.76.61-15.04,3.81-22.91,3.65-3.08-.06-6.77-.5-5.95,4.8.4,2.55-2.45,3.29-3.74,3.11-7.39-1.05-14.33,2-21.65,1.88-12.75-.22-21.99-5.51-27.55-16.87-1.69-3.46-2.9-6.85-8.43-6.09,6.32-5.37,12.41-9.74,17.04-15.66.14-.18.35-.52.45-.5,8.52,2.06,12.87-5.4,19.18-8.36,4.22-1.98,8.58-3.26,12.93-.51,1.31.83,1.92.09,2.97-.29,6.1-2.21,12.41-2.36,19-1.81-3.82,7.05-2.87,9.42,4.99,9.81,5.89.29,11.2,2.48,16.02,4.77,7.17,3.4,9.57-3.51,14.32-4.98,2.1-.65,4.41-3.17,6.24-5.07,2.32-2.4,4.66-6.03-1.51-7.29-.85-.17-2.35-.82-2.32-1.11.64-6.35-5.5-9.32-7.09-14.46-1.16-3.72-1.66-6.6-7.12-7.01-6.5-.49-13.48-.09-19.45-5.12-2.05-1.73-.82-2.88-1.6-4.08-2.56-3.96-7-2.63-10.42-4.02-15.17-6.18-29.94-2.85-44.78,1.1-1.94.52-4.99.47-4.5,2.99.52,2.66,3.69,2.61,5.89,1.98,5.36-1.53,10.5-3.06,16-.19,6.74,3.52,7.85,6.95,1.43,9.66-8.34,3.52-12.31,10.16-16.39,16.76-3.43,5.56-8.59,4.69-12.72,4.33-5.53-.48-11.3-2.56-16.14-5.37-5.44-3.16-7.68.34-8.77,3.64-2.42,7.29-1.58,14.99-.69,22.55.1.87.26,1.74.53,3.54-3.53-1.84-6.07-5.64-9.97-2.65-1.18.91-1.33-.34-1.67-1.12-4.32-9.99-12.06-17.56-20.46-27.64,12,6.28,10.46-5,14.87-8.1,2.65-1.85,2.98-6.28,4.95-9.35,3.28-5.14,8.94-6.48,13.7-8.69,3.74-1.74,2.9-2.67.71-3.83-4.35-2.3-2.57-4.02.01-6.05,2.96-2.32,3.95-4.68,2.66-8.87-1.38-4.47,2.24-8.68,4.64-12.19,2.3-3.36,1.84-5.85-.46-7.75-2.34-1.93-4.56-1.15-6.65,1.94-3,4.42-7.25,3.21-11.99-2.76-1.07-1.35-.83-3.7-3.29-4.02-1.61-.21-3.33-.72-3.43-2.74-.14-2.74,3.2-1.79,3.75-2.94,1.74-3.64,3.77-7.54,4-11.44.54-9.46-1.67-10.82-10.99-7.74-4.31,1.43-8.83,2.64-11.64,6.72-.66.16-1.32.31-1.97.46-4.98,2-9.6,4.47-12.2,9.53-7.02,4.72-11.2,11.82-15.65,18.69"/>
      <path class="cls-1" d="M771.84,81.81c-10.25-4.17-10.25-4.65-1.46-12.6,6.72-6.08,9.83-14.8,15.37-21.82,4.08-5.17,7.87-10.4,13.43-14.12.16.51.15,1.36.55,1.67,10.65,8.01,7.19,19.01,5.36,29-1.76,9.64-2.86,19.59-7.72,28.54-2.56,4.71-7.45,4.23-10.59,3.93-6.59-.62-9.37,5.08-14.4,6.73-1.54.51-1.49,3.27-1.22,5.57.89,7.61-6.76,16.95-14,18.93-5.96,1.62-12.57,2.29-16.87,7.67-.99,1.24-1.96,1.9-3.46,1.05-3.47-1.97-6.46-1.58-9.22,1.48-1.18,1.31-2.81.8-4.48.3-10.86-3.2-15.8-1.35-18.93,9.99-1.84,6.66-7.11,8.98-10.35,13.57-2.62-.71-1.86-3.15-2.91-4.45-2.37-2.93-4.86-6.02-7.13.15-.29.8-.84,1.88-1.51,2.1-10.16,3.39-17.13,12.42-27.54,15.44-2.06.6-3.94,2.11-5.4-.19-2.24-3.53,2.02-2.84,3.11-3.69,15.34-11.99,30.42-24.4,46.52-35.3,13.9-9.41,27.56-19.66,43.23-25.97,13.63-5.49,25.01-12.58,29.61-27.99"/>
      <path class="cls-1" d="M757.12,173.24c-4.08,2.21-5.66,4.69-4.33,8.53.58,1.67,2.41,2.02,3.27,1.21,2.87-2.68.89-5.95,1.06-9.75M711.45,280.08c1.16-5.26-3.36-8.89-3.91-13.64-.16-1.4-.91-2.67-2.71-2.38-1.55.26-1.72,1.73-1.44,2.67,2.26,7.73-3.67,15.44.02,23.29.5,1.07.18,4.37-1.83,5.55-1.97,1.17-4.24-.07-5.69-1.13-1.89-1.39-4.11-3.28-3.05-6.32.29-.85.76-1.71,1.36-2.36,6.79-7.27,6.29-16.57,7.25-25.49.36-3.33.58-6.95,4.47-8.46,1.19-.46,2.16-.86,1.56-2.37-.48-1.21-1.4-1.88-2.69-1.58-7.52,1.72-6.68-5.21-8.96-8.78-.84-1.31.78-2.19,1.86-2.12,7.38.5,13.6-1.39,17.82-7.96.19-.3,1.3.12,1.91-.06,5.54-1.68,6.59-4.79,3.06-9.6-.93-1.26-.84-2.39.25-2.77,7.26-2.53,6.07-10.38,9.71-15.18,2.28-3-4.48-6.84.52-10.03.7-.44.95-2.07,1.53-2.14,11.13-1.27,8.59-10.99,11.02-17.62,1.04-2.84,1.82-5.44-1.79-7.29-1.02-.52-1.94-2.12-1.04-3.61.74-1.22,1.94-.59,3.06-.61,3.31-.08,9.15-9.08,8.08-12.37-.43-1.32-2.64-2.61.09-3.67,1.24-.48,2.84-.93,3.98-.54,2.61.89-.06,2.67.33,4.05.71,2.48-3.89,4.91-.22,7.34,2.36,1.57,4.91,2.25,7.74.59,3.47-2.04,1.2-4.48.52-6.56-2.11-6.49-.08-10.87,6.83-12.02,2.87-.48,3.33-3.8,6.73-3.7-.78,3.98,3.72,10.32-5.53,9.43-.05,3.79-3.85,6.73-2.74,10.67,1.75,6.22-.46,11.23-3.44,16.58-3.63,6.51-4.01,14.4-8.2,20.86-1.47,2.27-2.42,4.94-4.32,6.95-5.9,6.25-6.17,14.39-7.44,22.14-.52,3.15.48,6.12-4.83,3.3-4.93-2.63-8.7,2.25-10.04,5.83-3.08,8.24-9.59,14.65-11.66,23.28-.89,3.73-4.6,5.3-6.24,8.72-3.02,6.31-.93,12.66-1.94,19.13"/>
      <path class="cls-1" d="M371.58,652.56c7.18,6.31,9.82,16.49,18.96,20.91,3.19,1.54,1.75,5.58,4.54,7.85,6.86,5.58,15.09,7.1,23.1,9.73,9.93,3.26,18.4-2.97,27.72-3.02.98,0,2.5-.71,2.82-1.48.57-1.35-.53-2.35-1.68-3.36-5.66-4.95-5.09-7.82,1.17-11.62,6-3.64,11.76-7.54,18.29-10.37,4.49-1.95,5.47-7.03,5.62-11.51.13-3.74,2-3.8,4.41-2.98,2.14.73,5.25-1.25,6.04,3.51,1.68,10.1-3.77,15.16-10.28,21.77-6.38,6.48-12.77,12.33-20.7,16.34-23.21,11.75-44.46,5.34-64.79-7.73-8.39-5.39-14.19-13.56-21.37-20.26-3.52-3.28-4.92-15.4-2.84-19.87.98-2.11.38-4.16-.91-5.73-3.02-3.69-1.39-7.21.76-10.03,2.28-2.98,6.28-3.71,9.81-2.92,3.74.85,7.64,2.17,10.75,4.33,4.44,3.08,9.03,4.06,14.25,4.13,8.11.11,11.32,2.82,11.93,10.79.31,4.08,2.13,4.62,5.21,4.25,4.1-.49,6.8,2,6.63,5.27-.18,3.58-4.43,4.15-7.16,3.51-2.9-.69-5.1-.63-6.6,1.77-3.44,5.52-8.25,4.22-13.18,3.16-7.57-1.63-14.9-4.05-22.49-6.41"/>
      <path class="cls-1" d="M506.13,294.52c2.35,1.68,3.73,2.46,4.85,3.52,1.73,1.64,3.01,3.28-.79,4.1-6.67,1.45-9.06,5.09-6.01,11.74,1.11,2.42.24,4.25-2.83,4.99-4.15,1-7.52,3.12-8.97,7.66-.91,2.86-3.53,4.33-6.4,4.53-4.58.33-7.68,3.91-11.9,5.02-1.27.33-2.36,1.65-1.51,3.26.71,1.35,2.05,2,3.48,1.47,1.25-.46,2.42-1.25,3.45-2.11,1.43-1.18,3.24-1.84,4.13-.17,1.11,2.08-1,2.55-2.58,2.95-6.28,1.58-11.44,5.53-17.25,8.09-1.26.55-3.24,1.85-4.38.3-.85-1.16.1-2.86.52-4.41,2.04-7.48,10.64-8.78,13.79-15.15.78-1.56,12.37-21.76,12.94-23.57,1.42-4.57,5.29-7.02,9.03-9.23,2.05-1.21,4.08-2.02,4.41-4.61,1.98-15.75,13.92-25.36,22.86-36.75,4.42-5.63,9.05-11.41,14.66-15.73,9.28-7.15,17.53-16.24,29.61-18.98,2.21-.5,5.19-1.12,6.65,1.98.86,1.84.95,3.85-.85,4.95-2.31,1.41-4.11,3.73-6.31,4.78-4.53,2.16-8.86,3.71-10.08,9.53-.62,2.99-5.25,1.59-6.71,3.98-2.27,3.71-3.73,7.8-4.49,12.13-.6,3.42-9.97,13.3-13.13,13.61-.95.09-1.97-1.03-3.02-1.46-2.57-1.05-4,.3-2.86,2.49,3.53,6.83-2.67,8.06-6.02,10.49-1.59,1.16-4.47,1.52-4.12,3.76,1.23,7.85-4.35,6.42-10.18,6.83"/>
      <path class="cls-1" d="M433.71,587.95c-8.59-2.77-17.32-3.82-26.27-2.24-.97.17-2.69-.05-2.11,1.67.46,1.36,1.07,3.01,3.37,2.44,8.22-2.03,16.65-.4,25.01-1.87M439.56,582.48c2.19,3.08,4.5,6.1,6.55,9.27,3.73,5.78,2.99,6.18-3.43,7.43-9.54,1.85-18.52-1.95-27.83-1.46-8.65.46-16.78-3.62-25.46-2.85-.45.04-1.26.19-1.32.06-3.87-9.65-9.03-1.66-14.84-.14,3.18-5.69,7.4-8.37,11.67-10.24,11.74-5.12,23.51-8.65,36.89-4.48,5.45,1.7,11.74,3.56,17.99,2.61,0,.01-.23-.19-.23-.19"/>
      <path class="cls-1" d="M464.18,504.72c.66-.16,1.32-.31,1.97-.46,8.2-6.52,11.89,4.23,18.65,3.26-.05.71-.09,1.41-.14,2.12-2.24.75-4.48,1.5-6.73,2.26-.35-7.38-5.16-3.66-7.52-2.38-5.57,3.02-10.53,7.11-15.96,10.42-6.03,3.67-8.7,9.08-7.1,15.71.25,1.04.15,2.48,1.55,2.79,1.36.3,1.92-.9,2.55-1.84,5.24-7.83,12.06-14.07,19.7-19.48.86,7.75.06,9.43-6.77,11.9,3.8.33,6.4.55,9,.78-7.06,1.14-10.75,9.17-18.31,8.62-2.3-.17-1.66,1.57-1.93,2.76-.49,2.21-.69,4.56-1.57,6.6-1.48,3.41-3.67,6.97-7.46,7.46-3.84.5-4.42-4.2-6.73-6.18-6.11-5.21-5.64-10.36-1.08-16.08,4.49-6.9,8.66-14,15.69-18.72,5.88-.86,9.16-5.04,12.2-9.53"/>
      <path class="cls-1" d="M573.63,301.25c4.01-1.03,8.46-1.05,11.11-5.14.78-1.21,1.51-2.01.35-3.52-3.6-4.68-1.03-7.96,2.97-10.37,5.25-3.16,11.19-5.13,10.05-13.54-.41-3,3.21-6.02,6.16-7.84,2.22-1.37,3.88-.85,5.08,2.24,1.89,4.88-.47,9.49-.87,13.95-.2,2.23-2.47,4.57-.87,7.7.54,1.06.77,3.85-2,3.03-4.19-1.25-8.19,1.34-12.29.15-2.97-.86-5.53,1.49-4.56,3.19,2.21,3.85-1.74,6.07-1.25,9.13.24,1.53-.77,2.05-1.75,2.53-4.35,2.14-8.16-.04-12.03-1.62l-.11.12Z"/>
      <path class="cls-1" d="M867.25,521.54c-4.71,1.49-6.5,3.95-7.31,7.7-.24,1.09-1.67,3.36-4.12,2.72-.78-.2-1.96.44-2.02-.98-.08-1.91-.61-3.49,2.75-3.89,2.33-.28.05-7.19,4.82-6.25,2.59.51,5.43-2.45,6.01-.88,1.92,5.17,6.26,8.19,9.28,12.31,1.13,1.54-.77,1.44-1.49,2.09-2.58,2.31-2.47,2.51,1.5,3.84-1.44,1.9-4.86.04-5.58,2.86-.25.99.79,1.78,1.76,1.55,2.31-.55,4.42-2.86,7.08-.47.37,3.08-3.06,1.73-4.01,3.24,3.85,3.76,7.39,6.95-.14,11.21-3.94,2.23-2.29,8.3-4.23,12.35-.37.78.41,2.03-1.38,2.29-1.52.22-2.93-.02-3.5-1.41-.38-.92-.4-2.77.17-3.18,8.53-6.21,3.41-13.95,2.17-21.01-.47-2.7-1.5-5.28-.72-7.97.52-1.8.44-3.39-1.2-4.14-5.5-2.52-5.06-5.29-.75-8.62.53-.41.46-1.59.91-3.39"/>
      <path class="cls-1" d="M573.73,301.13c-.93.5-4.32-1.84-2.37,1.98.92,1.8,1.51,4.29-.88,4-1.68-.2-6.32,1.21-5.61-3.2.49-3.05-1.62-4.57-3.03-4.37-5.21.72-6.47-4.3-9.88-6.11-4.13-2.19-3.65-5.73-.79-9.08,7.75-9.06,9.38-9.25,19.1-2.5,1.07.74,2.56.88,5.85,1.95-4.65.14-2.9,5.16-6.71,4.31-3.17-.7-2.32-3.98-3.29-6.15-2.52-.21-1.29,2.33-2.46,3.37-3.99,3.54-2.25,6.99,2.1,7.51,5.61.67,4.63,6.25,7.85,8.4,0,0,.11-.12.11-.12"/>
      <path class="cls-1" d="M280.91,419.96c2.35-12.11,10.68-13.44,19.39-13.59,4.27-.07,7.49-1.18,8.11-5.51.72-5.06,5.52-5.9,8.19-6.27,4.27-.59,6.32-2.06,6.99-5.84.73-4.14,3.58-4.54,6.9-4.44,2.2.06,4.63.57,4.73,2.97.11,2.72-3.58,1.24-4.05,2.07-3.27,5.81-9.81,7.29-14.54,11.09-6.77,5.44-12.68,13.96-23.53,11.72-1.42-.29-3.41.08-3.47,1.46-.26,5.74-4.88,4.59-8.73,6.35"/>
      <path class="cls-1" d="M722.5,412.71c5.45-1.76,8.49,3.01,12.77,4.18,6.7,1.84,14.04.16,20.31,4.34,2.96,1.98,4.14,3.59,1.46,6.05-1.73,1.59-3.19,7.94-5.82,3.62-5.24-8.63-12.02-1.64-17.69-3.41-.9-.28-2.1.93-3.56-.14,3.45-3.94,6.03-7.68-2.45-8.45-3-.27-2.02-4.92-5.02-6.19"/>
      <path class="cls-1" d="M626.34,189.72c-12.9,10.17-23.6,19.84-36.93,25.81-2.62,1.17-4.46,3.17-6.16,5.35-.93,1.2-2.14,2.06-3.5,1.28-.86-.49-1.52-1.7-1.82-2.73-.61-2.04,1.38-1.7,2.37-2.42,6.48-4.7,13.84-7.66,19.41-14.36,5.04-6.07,13.54-9.31,20.65-13.59.89-.54,2.57.23,5.98.66"/>
      <path class="cls-1" d="M803.18,31.52c-.11-.08-.96-.42-.97-.77-.02-.84.1-1.93.63-2.48,6.58-6.93,11.52-15.52,20.31-20.24,2.48-1.33,3.95-3.66,5.77-5.7,2.07-2.33,5.58-3.33,7.87-.97,3.35,3.46-1.63,3.54-2.88,5.13-6.53,8.32-16.47,12.27-24.37,18.86-2.25,1.88-2.07,5.93-6.37,6.18"/>
      <path class="cls-1" d="M845.56,500.34c1.26,1.69-1.27,8.06,4.39,3.31.15-.12,3.77,1.86,3.5,4.76-.16,1.68.54,3.33,2.64,3.29,2.02-.04,1.58-1.85,1.81-3.11.17-.94.35-1.86,1.61-1.57.4.09.73.52,1.09.79-3.34,2.86,1.13,8.05-3.16,10.61-.56.34-1.29.4-1.87.72-1.54.85.59,5.04-3.11,3.74-2.37-.84-3.14-3.12-2.89-5.67.11-1.11.17-2.29-1.11-2.97-6.12-3.25-6.78-6.01-2.89-13.9"/>
      <path class="cls-1" d="M334.67,375.07c1.61-3.53,4.65-5.37,8.16-4.47,3.3.84,5.42,1.79,6.78-2.57.76-2.45,2.83-.78,3.57.55,2.03,3.62,5.36,5.24,9.29,6.26-3.92,5.07-9.45-6.09-12.69,1.81,1.22,2.12,5.28-.78,5.3,2.4.03,5.79-5.3,6.35-9.49,8.7,3.88-7.77,2.08-14.7-11.09-12.83l.16.15Z"/>
      <path class="cls-1" d="M334.51,374.92c-12.85,6.36-25.88,11.83-40.71,8.1,6.11-6.29,6.04-6.09,14.33-3.32,2.93.98,7.48,1.68,9.17-.56,4.93-6.56,11.35-3.81,17.36-4.1.02.02-.15-.13-.15-.13"/>
      <path class="cls-1" d="M772.45,444.15c4.84-1.84,8.2-5.92,13.06-2.74.91.6,2.69.55,3.01,1.27,3.91,8.82,8.39,2.95,12.78.49-2.4,6.59-7.53,9.75-13.21,6.77-4.78-2.5-9.51-4.76-15.63-5.79"/>
      <path class="cls-1" d="M248.38,403.06c-.81,8.89-5.98,14.17-9.4,20.22-1.18,2.08-2.06,5.75-6.51,4.16-.93-.33-3.14,1.23-4.02-.46-.53-1.01-.58-1.8.35-2.25,8.97-4.33,13.04-13.26,19.58-21.67"/>
      <path class="cls-1" d="M291.25,383.55c-1.85,6.59-9.7,4.87-11.67,10.42-.39,1.11-2.59-.14-2.85-.67-2.15-4.36-.93-9.22-1.49-13.84-.17-1.35,3.68-1.29,3.74-.06.39,7.98,5.94,3.18,9.17,3.96.83.2,1.74.12,3.11.19"/>
      <path class="cls-1" d="M123.44,638.01c.78,1.29-.05,2.15-.86,2.94-1.59,1.53-18-.51-19.04-2.43-.79-1.46-.77-3.16.33-4.41,1.14-1.27,11.93.65,12.93,2.13q1.72,2.54,6.64,1.77"/>
      <path class="cls-1" d="M890.32,592.51c-.17-3.76,5-3.1,5.66-6.67.11-.62,5.19-.09,5.82,3.53.14.8.01,1.57-.25,2.47-2.56,8.7-3.38,8.91-3.62,7.79-.94-4.36-6.33-3.67-7.68-7.33,0-.03.08.21.08.21"/>
      <path class="cls-1" d="M156.93,578.09c2,.02,4.11-3.78,6.17.89.69,1.57,5.4,1.39,8.39,2.03-3.72,6.67-10.19,4.67-15.67,4.78-2.4.05-.36-3.76-2.4-5.62-1.21-1.11,3.31,0,3.73-2.27,0,0-.21.19-.21.19"/>
      <path class="cls-1" d="M139.16,629.38c-5.16,2.85-4.34,7.38-5.98,10.8-.56,1.17-.1,3.16-1.8,3.75-2.31.8-4.29-1.16-5.32-2.36-1.85-2.16,1.71-1.65,2.08-2.56,1.28-3.17-.97-3.18-3.21-3.05-2.01.12-3.21-.78-2.4-2.85.76-1.94,1.77-.7,3.09-.19,4.59,1.78,7.3-3.45,13.54-3.54"/>
      <path class="cls-1" d="M833.31,492.99c-.03,5.78,6.3,5.83,6,11.16-.29,5.12-8.44,1.95-6.91,8.26.42-6.27-3.75-12.07.91-19.42"/>
      <path class="cls-1" d="M595.68,232.06c.11-4.2-.64-6.02-4.23-4.02-.83.46-2.85.84-3.31-1.13-.38-1.59,1.31-1.56,2.04-2.29,2.42-2.44,6.19-1.22,8.83-3.45.97-.82,3.88-1.39,4.6,1.06.58,1.95.28,5.05-1.86,5.26-2.8.27-3.65,2.23-6.07,4.58"/>
      <path class="cls-1" d="M310.88,442.32c2.36-1.52,4.28-2.44,5.8-3.8,3.64-3.25,8.52-2.65,10.95,1.61,1.59,2.79-1.43,4.88-2.35,4.2-4.14-3.07-8.52.52-14.4-2.01"/>
      <path class="cls-1" d="M265.24,430.35q-2.25,6.44,11.39,8.36c-4.52,3.81-9.5,1.4-14.03.95-3.47-.34-.63-4.36-1.87-6.38-1.41-1.05-4.27,5.72-4.71-.89-.05-.71-2.66.84-1.93-1.36.19-.58,1.48-1.13,2.26-1.12,2.96.02,5.93.27,8.9.44"/>
      <path class="cls-1" d="M816.59,490.9c-2.07.28-4.55.71-7.04.89-.93.07-2.46,2.49-2.85-.45-.14-1.07.27-1.81,1.29-2.74,3.95-3.58,9.35-.22,13.38-3.07.12-.09,1.83,1.39,2.09,2.33.38,1.4-.52,2.56-1.81,3.37-1.62,1.02-3.1.26-5.06-.33"/>
      <path class="cls-1" d="M658.26,184.64c.61,1.51-.82,1.38-1.42,1.7-2.4,1.3-4.79,2.65-7.33,3.62-1.55.59-3.8,2.14-4.95.13-1.29-2.26.53-3.76,2.65-4.69,2.51-1.11,4.98-2.3,7.45-3.49,3.13-1.52,2.24,2.09,3.6,2.74"/>
      <path class="cls-1" d="M105.38,561.45c-1.8,1.85-3.6,3.69-5.4,5.54-1.25.29-2.64,1.35-3.69-.11-.8-1.1-.16-2.11.9-2.78,1.14-.72,2.19-1.17,1.68-3.07-.81-3.01-.54-6.53,3.34-6.57,5.03-.05,3.26,4.1,3.17,7"/>
      <path class="cls-1" d="M644,222.32c.4.2.84.35,1.2.61,2.53,1.82,8.46,1.81,6.88,5.62-1.44,3.45-6.91.56-10.58.94-1.71.18-2.32-1.15-1.09-2.69,1.24-1.55,2.51-3.07,3.77-4.61l-.17.12Z"/>
      <path class="cls-1" d="M798.19,483.08c.1,2.4-1.21,3.65-2.39,2.72-2.87-2.27-5.83-4.71-6.93-8.46-.2-.68.17-1.96.71-2.32.62-.42,2.2-.52,2.54-.1,2.25,2.76,4.27,5.71,6.06,8.17"/>
      <path class="cls-1" d="M154.98,570.92c-.32.55-.63,1.1-.95,1.65-1.42-1.95-4.32,6.89-5.19-.71-.07-.59-2.95-.8-2.61,1.3.49,2.96-.78,4.33-3.2,3.4-4.58-1.77.17-2.61.74-3.73.76-1.49-1.87-5.99.89-4.16,3.65,2.43,8.54-4.46,10.3,2.25"/>
      <path class="cls-1" d="M683.18,173.38c-2.58,1.04-5.24,1.94-7.73,3.18-2.15,1.07-3.48.29-4.39-1.48-1.19-2.31,1.41-2.61,2.35-3.24,3.41-2.3,6.51.05,9.77,1.55"/>
      <path class="cls-1" d="M281.54,425.61c5.66-1.5,10.15-2.67,15.21-1.63-1.31,2.96-3.32,1.4-4.89,1.6-1.96.25-4.98-.49-2.02,3.17,1.33,1.64-1.12,1.94-1.98,2.64-.45.36-1.07,1.79-2.03.51-.67-.9-1.1-1.61-.42-3,.87-1.79-.22-2.82-3.87-3.29"/>
      <path class="cls-1" d="M644.17,222.2c-3.15-1.29-5.96-4.12-9.88-1.54-1.17.77-2.83-.5-3.1-1.85-.36-1.77,1.43-2.12,2.66-2.31,6.21-.96,10.11,1.34,10.15,5.82,0,0,.17-.12.17-.12"/>
      <path class="cls-1" d="M102.26,542.99c.66-3.88,2-7.06,5.88-9.15,1.87-1.01,2.53-1.31,3.66.49,1.07,1.71,0,2.82-1.16,3.24-3.83,1.37-7.25,2.57-4.31,7.8.48.85-1.46,2.8-2.6,2.35-1.9-.76-.45-3.23-1.47-4.72"/>
      <path class="cls-1" d="M632.82,202.34c-4.12,5.01-8.19,3.03-12.06,2.05-.45-.11-1.05-1.01-.99-1.47.18-1.28,1.25-1.94,2.43-1.84,3.12.27,6.23.72,10.62,1.26"/>
      <path class="cls-1" d="M564.5,250.5c-1.04,2.22-4.14.99-5.12,3.04-.79,1.65-.76,5.09-3.59,2.21-1.77-1.81-.2-4.72,1.52-5.84,2.12-1.38,5.05-2.6,7.19.59"/>
      <path class="cls-1" d="M251.35,446.14c-1.51-.33-2.6-.66-3.72-.81-1.44-.19-4,.73-3.63-1.6.41-2.58,2.62-1.45,4.2-.57,1.56.86,3.22,1.16,4.09-.67,1.46-3.09,4.07-1.81,6.29-1.88.32,0,1.03,1.09.96,1.59-.47,3.07-3.76,1.64-5.35,3.16-.71.68-2.12.61-2.84.79"/>
      <path class="cls-1" d="M266.11,412.24c-.47,1.74-1.06,3.72-2.88,3.54-3.1-.3-3.34-3.84-5.17-5.68-.7-.7.29-2.39,1.69-2.15,2.72.47,5.32,1.36,6.36,4.29"/>
      <path class="cls-1" d="M339.51,442.49c.3,2.27-1.19,2.64-3.5,3.06-2.19.4-3.72-.82-3.28-1.93.74-1.86,2.51-3.79,4.32-4.58,1.43-.62,2.63,1.18,2.46,3.45"/>
      <path class="cls-1" d="M695.9,299.77c.11,4.33,1.53,7.5-1.04,10.22-.58.61-2.1.59-2.36-.32-.95-3.41.13-6.39,3.4-9.91"/>
      <path class="cls-1" d="M96.5,537.92c1.07.88,3.94-3.75,4.23,1.09.24,4.09-4.16,3.25-5.89,5.35-.38.46-1.67-2.4-1.87-4.32-.34-3.33.85-3.48,3.54-2.12"/>
      <path class="cls-1" d="M103.56,580.1c-2.55,1.24-5.1,2.48-7.78,3.78-.29-1-.63-2.03-.9-3.08-.53-2.09.65-3.63,2.06-4.71,2.66-2.03,1.72,1.72,3.06,2.13,1.28.4,2.41,1.28,3.63,1.98.03.03-.08-.1-.08-.1"/>
      <path class="cls-1" d="M737.48,436.74c.97.14,2.04.31,3.11.43,2.12.24,4.87-.6,5.52,2.44.32,1.49-1.57,1.06-2.41,1.58-2.82,1.75-4.32.69-5.27-2.13-.23-.68-1.59-.82-.96-2.33"/>
      <path class="cls-1" d="M355.29,434.79c-1.17.69-.37,4-3.52,3.6-3.41-.44-2.15-3.92-3.41-5.81-.63-.93.14-2.21,1.64-2.27.98-.04,2.35.62,2.01,1.3-3.83,7.77,3.3.39,3.28,3.18"/>
      <path class="cls-1" d="M776.83,157.9c-1.41-3.94-.48-6.49,2.61-8.11.9-.47,1.8.02,2.01,1.15.67,3.54-1.07,5.55-4.62,6.95"/>
      <path class="cls-1" d="M355.42,391.21c-2.73.5-2.72,3.47-5.27,3.48-2.07,0-2.71-1.65-2.72-3.3,0-3.05,2.65-3.66,4.77-4.06,2.53-.47.83,2.65,3.21,3.88"/>
    </g>
  </g>
</svg>