<?xml version="1.0" encoding="UTF-8"?>
<svg id="Layer_2" data-name="Layer 2" xmlns="http://www.w3.org/2000/svg" viewBox="0 0 481.66 694.73">
  <defs>
    <style>
      .cls-1 {
        fill: #e41f1b;
      }

      .cls-1, .cls-2 {
        stroke-width: 0px;
      }

      .cls-2 {
        fill: #bfbebf;
      }
    </style>
  </defs>
  <g id="Livello_1" data-name="Livello 1">
    <g>
      <path class="cls-2" d="M187.49,143.11c-1.76-.76-3.34-.92-3.7-1.67-1.75-3.66-4.83-2.48-6.94-1.46-3.75,1.82,2.07,4.88-.36,7.38-.46.48.05,1.72,1.21,1.68.53-.02,1.08-.32,1.55-.61,2.6-1.65,5.18-3.34,8.24-5.32M27.63,325.9c-1.9-.32-2.45,3.68-4.95,1.51-2.89-2.5-4.93-.8-6.65,1.63-1.56,2.2-3.15,4.39-4.51,6.72-2.77,4.78-2.44,8.71.76,11.36,2.14,1.77,6.21,1.35,8.07-.81,2.5-2.91-.39-3.83-1.89-5.32-.9-.89-1.99-1.8-2.41-2.93-.62-1.63-1.62-3.74,2.07-3.14,4.03.65,8.86-4.18,9.51-9.04M134.15,448.93c-7.03,2.75-11.84.12-13.05-6.43-.1-.56-.17-1.13-.31-1.69-.78-3.01-.26-7.4-5.04-7.01-5.11.42-8.74,6.2-7.67,11.01,1,4.48,3.24,7.99,7.36,10.49.61-2.07-2.86-4.73.78-5.54,2.66-.59,4.79,1.29,4.96,4.11.36,6.12,4.89,8.94,9.1,12.01,1.27.93,2.98,1.36,2.81,3.33-.16,1.83-1.02,3.24-2.94,3.74-.27.07-.78-.04-.82.07-2.24,5.69-4.94.67-7.42.31-.55-.08-1.06-.43-1.61-.57-8.63-2.19-9.03-2.71-8.64-11.86.03-.78.18-1.53-.75-1.66-1.11-.16-1.6.68-1.47,1.6.56,3.86-1.2,2.89-3.29,1.73-.69-.38-1.68-.56-2.46-.41-4.01.75-7.8,1.35-10.83-2.56-.98-1.26-2.56-.7-3.36,1.03-2.32,5.01-7.5,4.51-11.68,5.91-.3.1-.87-.2-1.13-.49-4.33-4.75-9.97-2.8-15.21-3.15-4.9-.33-9.57,1.01-14.37,1.33-2.1.14-2.63-.09-2.29-2.54.57-4.08-.23-8.19-2.6-11.69-.92-1.36-1.7-2.62-1.65-4.26.05-1.59.09-2.97,2.44-1.7,1.16.63,3.21.74,3.98-.47.96-1.51-1.02-2.44-1.81-3.47-1.11-1.46-2.39-3.12-3.98-3.81-4.06-1.78-4.54-4.81-3.64-8.46.92-3.73,1.16-6.22-3.85-7.66-4.93-1.41-8.34-5.35-8.24-11.28.05-2.98-1.22-4.97-4.76-4.31-1.45.27-2.89.15-3.78-1.33-2.15-3.59-5.72-5.6-9.36-6.76-3.3-1.06-4.27-3.05-4.56-5.85-.74-7.23-1.55-14.47-1.94-21.73-.66-12.12-1.33-24.25-.94-36.4.49-15.11,2.23-30.14,3.25-45.21.95-14.11,2.43-28.14,5.56-41.94,2.49-11,5.86-21.79,7.77-32.92.34-1.96.65-3.95.74-5.94.38-8.47,3.45-15.76,9.17-22.04,1.97-2.16,2.85-4.83,2.81-7.88-.04-2.89,1.13-4.54,4.56-3.72,5.2,1.23,9.47-2.68,14.5-3.01,1.72-.11,1.47-2.51.73-4.01-1.07-2.19-3.02-3.43-5.26-4.12-2.43-.75-4.42-.79-3.56,2.85.27,1.13.71,2.92-.95,3.3-1.71.4-1.92-1.49-2.24-2.58-1.6-5.52-1.82-10.99,1.29-16.13,1.06-1.75,1.95-2.92,4.13-.65,4.38,4.57,7.98,4.39,12.5.07,1.66-1.59,3.31-3.2,4.34-5.27,3.32-6.67,6.64-13.3,13.6-17.11,1.07-.59,1.9-1.74,1.99-3.55-2.64.73-5.08,2.07-7.82,1.61-.96-.16-2.22.13-2.62-1.01-.53-1.49.91-1.92,1.82-2.47,5.26-3.18,10.51-6.36,15.43-10.06,5.39-4.04,10.3-8.58,15.09-13.31,2.25-2.23,3.16-4.25,1.27-7.08-1.56-2.34-.76-3.66,1.95-4.09,3.65-.57,7.32-1.72,10.78.69,1.07.75,2.23.9,2.96-.36.9-1.55-.91-1.24-1.38-1.85-1.56-2.03-.67-3.9,1.55-4,4.83-.22,7.73-4.22,11.98-5.43,1.55-.44,1.31-1.55,1.19-2.74-.23-2.13-.25-4.25.3-6.38.86-3.28,1.8-6.07,6.28-4.83,1.83.5,3.47-1.06,5.2-1.7,1.19-.44,2.46-.85,3.71-.9,6.02-.24,6.08-.22,4.54-5.8-1.19-4.28.01-8.26,1.54-12.1,1.51-3.79.11-5.21-3.55-5.56-2.76-.27-5.72.39-8.53-1.73,4.98-3.42,10.62-3.68,16-4.43,2.91-.41,4.76-1.42,6.01-3.97,1.66-3.39,4.66-5.1,8.2-5.48,2.93-.32,4.62-1.77,5.98-4.18,2.01-3.58,4.38-6.5,9.21-4.14,1.54.76,2.96,0,3.2-1.75.32-2.26,1.8-3.07,3.66-3.66,3.32-1.06,6.07-3.15,9.02-4.89,3.2-1.88,4.58-1.24,4.62,2.38.03,2.78.98,4.83,3.46,6.59-3.27-.27-5.64.14-7.94,2.23-1.45,1.31-1.82,2.24-1.41,3.89.41,1.64,1.07,2.92,3.04,3.02,2.92.16,5.78,3.18,8.88-.49.6-.71,4.61.51,6.57,1.98,4.68,3.52,10.37,5.35,15.72,5.53,3.11.1,5.77-.1,8.79,1.22,2.8,1.23,3.81,2.86,2.39,5.16-2.83,4.61,1.34,8.09,1.49,12.18.02.67.88,1.12,1.67,1.04,1.21-.12,1.84-.99,1.75-2.06-.28-3.15.12-5.15,4.15-3.86,1.89.61,2.24-1.51,2.58-2.74.52-1.85.91-3.86,2.84-4.49,3.55-1.17,3.48-4.6,4.88-7.09.21-.38.1-1.1-.11-1.55-2.2-4.67-1.41-7.64,2.96-10.7,1.36-.95,2.26-2.12,2.28-3.86.04-3.34,2.23-3.17,4.02-1.9,4.81,3.39,10.35,3.49,15.81,4.55,17.1,3.3,33.35,9.06,48.02,18.72,1.15.76,3.77,1.96,2.21,3.29-1.82,1.54.91,6.88-4.36,5.17-.29-.09-.79.24-1.09.49-4.34,3.57-4.94,3.38-5.88-2.05-3.39,1.63-6.88,4.2-9.75-.73-.31-.53-1.05-.64-1.47-.17-.33.38-.48,1.02-.48,1.55-.03,1.39,1.4,1.67,2.06,2.54,1.01,1.32,2.54,2.67,1.24,4.54-1.32,1.9-2.87,3.66-5.59,3.2-2.28-.38-2.46-2.29-2.51-3.95-.11-3.6-2.52-5.26-5.28-6.54-1.47-.68-3.28-.71-3.99,1.21-.56,1.54-.45,3.39,1.56,3.72,2.35.39,1.35,1.75,1.12,2.84-.43,2.03-1.65.75-2.65.56-3.18-.62-4.59-3.35-4.04-5.68.79-3.33-.82-5.01-2.74-7.14-1.31,1.02-.76,2.62-1.17,3.85-1.26,3.8-4.28,5-7.04,2.25-2.23-2.22-3.54-1.71-5.09.44-2.04,2.83-4.45,2.94-7.48,1.38-6.3-3.24-6.47-3.09-10.91,2.5-.61.77-1.1,1.95-2.17,1.93-5-.08-5.1,3.48-4.72,6.77.39,3.38,2.17,6.05,5.85,7.1,5.71,1.64,6.56,2.82,6.05,7.42-.11,1.04-.28,2.21-1.25,2.58-3.19,1.23-4.35,4.23-6.34,6.56-1.56,1.83-2.73,3.44-2.71,5.96.03,2.96-1.4,3.04-3.45,1.35-6.72-5.52-14.45-6.23-22.65-4.75-1.18.21-2.4.4-2.54,1.81-.15,1.51.92,2.36,2.2,2.79.94.31,2,.24,2.94.53,3.14.97,4.76,2.87,2.87,6.08-2.12,3.6-.65,3.83,2.53,3.21,3.4-.67,5.86-.06,4.79,4.38-.14.59.19,1.82.53,1.91,4.37,1.17,5.54,6.55,10.13,7.51,2.25.47,2.2,2.42.53,3.43-2.59,1.57-5.07,3.83-8.61,2.92-2.33-.59-4.1.44-4.43,2.81-.74,5.3-4.63,7.27-8.94,8.69-5.46,1.8-11.24,1.84-16.87,2.7-1.91.29-3.31-.39-3.7-2.59-.29-1.63-1.12-3.1-3.04-3-1.64.08-1.67,1.68-2.08,2.88-1.89,5.57-5.49,9.74-10.87,12.04-3.3,1.41-4.01,3.76-2.69,6.44,1.33,2.71,3.92,1.21,6.03.65.54-.14,1.02-.52,1.53-.77.86-.43,1.74-1.29,2.72-.49.81.66.34,1.68.07,2.4-1.44,3.8.34,5.12,3.86,5.64,2.92.43,5.78,1.32,9.08,2.11-1.24,2.22-2.82,2.28-4.49,1.82-2.53-.7-4.49,0-5.97,2.14-2.31,3.35-5.31,2.99-8.28,1.26-2.46-1.43-4.65-3.32-7.03-4.89-2.63-1.73-5.38-2.35-8.64-.41,1.83,1.74,3.94,2.23,5.85,3.08,1.58.7,3.1,1.46,4.22,2.84,1.43,1.76.93,3.5-.08,5.17-1.11,1.83-2.69,1.27-4.14.53-3.92-2-9.2-2.77-8.38-9.15.17-1.33-.77-1.24-1.68-1.11-2.32.33-3.4,2.02-4.1,3.94-2.75,7.52-6.93,14.06-12.9,19.44-2.25,2.02-3.35,4.06.1,6.04,1.78,1.02,2.22,2.21,1.04,4.21-1.16,1.96-2.3,2.28-4.12,1.15-.48-.3-1.02-.51-1.56-.71-2.56-.97-4.6-.33-5.58,2.27-.96,2.54.51,4.04,2.71,5.02,1.71.76,4.35.48,4.36,3.29.01,3.22-.95,6.29-3.11,8.66-1.58,1.74-2.9.47-3.47-1.24-.55-1.69-1.19-3.22-2.77-4.17-1.16-.7-2.49-1.13-3.66-.42-1.51.91.68,1.67.38,2.46-1.26,3.36-.15,5.67,2.83,7.43.68.4,1.2,1.31.77,2.25-.45.99-1.33.8-2.22.71-9.91-1.01-10.69.1-6.74,9.28.61,1.42.84,3.01,1.37,4.48,1.38,3.81,5.52,4.73,8,1.74.63-.76,1.18-1.18,2.13-.96,1.25.29,1.57,1.37,1.4,2.33-.72,4.18-.28,7.96,1.95,11.81,1.26,2.17-1.06,2.44-2.7,1.91-2.59-.83-4.86-2.28-6.49,1.8-.9,2.25-2.66.14-2.74-1.07-.19-2.9-3.19-5.23-1.54-8.51.52-1.04-.58-1.89-1.55-2.2-1.66-.54-1.69.91-2.19,1.91-2.22,4.43-3.04,9.37-4.91,14.62-2.77-3.37-3.03-6.44-1.29-9.44,1.28-2.19,1.75-3.78.18-6.18-2.73-4.16,1.42-5.23,4.13-7.16-2.77-2.31-5.73-1.42-8.42-.92-1.49.28-1.89,2.09-1.55,3.59.21.94.87,1.77,1.25,2.68.85,2.06,2.82,4.99,1.14,6.18-1.85,1.31-3.42-1.58-4.54-3.38-.9-1.44-2.08-1.35-3.31-.61-2.86,1.72-4.63,4.2-4.97,7.57-.16,1.57.05,2.81,2.14,2.86,2.78.07,3.36,1.53,2.43,4.04-.32.85-.12,1.99.1,2.93.98,4.16-.74,6.59-4.71,7.7-.82.23-1.62.56-2.41.9-1.16.49-1.86,1.31-1.66,2.66.12.8.67,1.25,1.36,1.52,1.27.49,1.7-.61,2.42-1.26.95-.87,1.27-3.08,3.15-2.1,1.64.85,2.96,2.3,3.29,4.28.29,1.71-.34,3.02-1.81,4.03-5.17,3.55-6.18,6.89-3.72,12.54.84,1.94-.85,2.12-1.77,2.79-1.63,1.19-3.19,2.77-1.59,4.5.85.91,3.31,1.87,4.63-.53.35-.64,1.03-1.08,1.8-.86,1.26.36.4,1.4.61,2.06.67,2.12,1.52,4.2,2.51,6.19,1.97,3.96-.01,8.84,3.14,12.61,1,1.19-.33,2.38-1.75,2.71-1.1.26-2.3.15-3.23.98-1,.9-2.01,1.92-.82,3.24,1.13,1.24,1.91.46,2.62-.7,1.14-1.85,2.79-1.51,2.96.3.42,4.45,3.83,7.28,5.3,11.12,1.51,3.95,1.14,4.82-2.97,5.16-3.3.27-3.6,1.36-1.69,3.98,1.87,2.56,3.7,4.62,7.26,4.31,2.17-.19,4.32.66,4.16,3.18-.14,2.33-2.36,2.05-4.07,1.87-1.97-.21-3.42.29-3.86,2.39-.14.68-.16,1.44.75,1.77,2.45.88,2.6.96,1.55,3.01-1.09,2.12-.27,2.91,1.72,3.17.85.11,1.71.09,2.57.11,1.68.03,3.35.42,3.74,2.21.38,1.73-1.14,2.38-2.51,2.95-2.97,1.22-4.01,4.71-7.05,5.94-.91.37-.49,1.54.14,2.21,1.11,1.18,2.47,2.18,4.15,1.71,1.49-.42,2.86-1.28,4.29-1.92,1.85-.83,3.74-1.6,5.79-.9,1.62.55,3.51,1.1,3.84,3.03.39,2.27-1.85,2.25-3.16,2.73-4.33,1.59-6.11,4.84-6.56,9.16-.12,1.2.63,3.11-.84,3.41-1.82.37-2.4-1.61-3.05-3.01-2.07-4.44-3.79-5.12-8.27-3.51-3.17,1.14-3.93,3.12-2.34,5.98,1,1.8,2.27,3.54.07,5.27-1.9,1.5-3.74,3.14-6.5,1.4-1.1-.69-2.63-.72-4.75-1.25,2.1,3.52,1.22,6-.57,8.46-2.55,3.49-2.61,7.63-1.82,11.55.89,4.46,2.53,8.77,3.87,13.13.29.95.63,2.07,1.83,2.13,1.47.07,1.14-1.31,1.49-2.17,1.11-2.69,1.42-5.23-.92-7.51-.39-.38-.6-.97-.83-1.49-.76-1.75-1.19-3.54-.14-5.32.15-.25.83-.44,1.11-.31,1.88.88,2.8,2.49,2.69,4.48-.18,3.16,2.21,3.18,4.22,3.75,2.31.65,3.87-.18,4.84-2.34.93-2.08,2.09-3.9,4.85-2.88,1.09.4,2.13,1.02,2.43,2.23.36,1.42-1.31,1.3-1.7,1.95-1.53,2.55-4.65,4.3-4.24,7.88.16,1.36-.3,2.43-1.14,3.53-.87,1.15-1.16,2.66-.49,4.04.46.94,1.3.75,2.22.39,1.6-.62,2.91-1.76,2.92-3.31.02-1.93-1.09-4.72,1.88-4.42,2.51.25,1.25,3.32,1.45,5.15.29,2.77.02,5.32-2.74,7.12-1.17.76-1.92,1.65-3.25.52-1.4-1.2-2.32-.35-3.16.79-.32.44-.76,1.25-1,1.2-.83-.16-1.65-2.23-2.38.02-.51,1.55.92,2.21,1.81,3.1,2.32,2.31,5.46,2.94,8.99,4.22"/>
      <path class="cls-2" d="M271.52,603.2c2.01-1.99,1.64-4.01,1.21-5.93-.38-1.69-.11-2.96,1.75-3.16,1.7-.18,2.6.94,2.83,2.56.22,1.55.33,3.12.6,4.66.12.67.39,1.45,1.22,1.59.9.16,1.26-.52,1.46-1.23,1.04-3.68,2.95-3.38,5.19-1.08.75.77,1.54,1.41,2.59,1.16,2.49-.58,4.06.65,5.42,3.38,1.22-2.97,1.01-5.21.13-7.25-.95-2.2-1.03-3.06,1.87-2.85,5.99.43,5.98.3,4.23-5.65-.28-.94-.44-2-.33-2.96.24-1.96-1.06-4.68,1.78-5.55,2.71-.83,3.22,1.59,3.95,3.44.48,1.22,1.06,1.49,2.15.39,1.92-1.93,2.53-4.01,3.21-6.77,1.59-6.41-1.08-9.76-5.65-12.97-.94-.66-1.37-2.12-1.93-3.27-2.5-5.1-7.75-6.69-12.52-3.75-.49.3-.96.62-1.43.95-1.12.8-3.39.99-3.13,2.48.34,1.99,2.62,1.33,4,1.24,3.55-.24,1.98,2.51,2.3,3.82,1.61.97,2-2.25,3.39-.65.89,1.04.82,2.56.26,3.68-.9,1.79-2.23.43-3.3.03-5.47-2.01-11.21-3.47-13.88-9.73-1.04-2.45-.33-5.54,2.54-5.83,3.14-.32,5.8-1.25,8.06-3.45.46-.45,1.28-.72,1.95-.75,4.05-.15,8.83.18,2.27-4.91-.88-.68-.41-1.81-.12-2.81,2.18-7.48,1.7-8.6-5.16-12.46-.59-.33-1.42-.37-1.52-1.45,1.93-1.25,4.21-3.91,5.85-3.56,4.02.85,9.04-.45,11.77,1.51,3.74,2.69,4.22.68,5.95-1.39,2.8-3.34,6.8-4.5,10.89-5.39,1.42-.31,2.04.76,2.69,1.69.98,1.4,1.93,2.82,2.92,4.26,1.89-.1,1.71-3.48,3.9-2.53,1.98.86,1.21,2.96,1.49,4.58.14.82.2,2.11.7,2.35,4.81,2.35,1.99,4.14-.33,6.01-.71.57-1.05,1.33-1.02,2.25.15,4.26,5.95,7.68,9.7,5.56,2.39-1.35,4.74-1.96,7.36-1.11,1.25.4,2.46.98,2.32,2.64-.16,1.96-1.34,1.85-2.74,1.33-.54-.2-1.22-.28-1.47.37-.31.79.18,1.41.86,1.73.75.35,1.58.55,2.42.83-.19,1.86-1.95,2.06-2.94,2.86-2.16,1.73-4.13,2.79-2.28,6.37,1.05,2.04-2.67,2.67-3.89,4.28-.66.86-3.03.37-1.68,2.8.68,1.21-1.06,1.32-1.99,1.38-2.97.17-5.64-.93-8.1-2.41-2.16-1.3-2.56-.15-4.11,1.35-5.11,4.91-2.14,9.45-.37,14.2.3.8.59,1.61.91,2.4,1.73,4.32,5.17,5.15,8.57,2.07.94-.85.53-1.88.2-2.78-.84-2.28-1.85-4.49-2.7-6.76-.41-1.09-.55-2.33.44-3.19.96-.84,2.18-.72,3.22-.12,6.18,3.53,11.4,1.64,16.29-2.68.91-.8,2.18-2,3.3-.73.94,1.06.22,2.44-.71,3.45-2.11,2.27-7.36,2.29-6.67,6,.5,2.71,2.12,5.65,3.51,8.71-8.36-.94-5.92,8.4-11.03,10.53,4.16-.74,6.96-4.38,11.3-4.38.91,0,1.95-1,2.67.12.78,1.19.12,2.15-.98,2.84-1.18.74-1.22,1.85-.86,3.02.25.82.58,1.74,1.55,1.85,1.13.12,1.31-.88,1.53-1.7.32-1.2.18-2.85,1.89-2.96,1.63-.1,2.4,1.39,3.18,2.55.98,1.48,1.2,4.03,4,1.6,1-.86,2.99.18,3.7,1.38,1.66,2.83,4.19,4.64,6.75,6.44,1.63,1.15,2.03,2.16-.07,2.97-2.69,1.04-1.97,4.6-4.62,5.85-.87.41.67,1.5,1.4,2.1,3.14,2.57,7.2,2.19,10.79,2.97,3.62.79,7.21-1.15,10.09-3.77,3.08-2.79,6.46-5.03,10.4-6.54,4.42-1.69,7.87-4.59,9.48-9.29.37-1.07.94-2.08,1.51-3.07,3.24-5.53,3.19-5.45-1.88-9.67-2.12-1.76-3.95-3.88-.95-6.57.78-.7,1.1-1.75.86-2.76-1.64-6.74,2.34-12.09,4.42-17.89.64-1.79,2.14-2.94,3.77-3.96,6.3-3.91,6.57-5.08,3.24-11.61,3.65,2.31,4.67,6.58,6.9,9.93.84,1.26-.46,2.73-1.48,3.74-1.91,1.89-2.95,4.21-3.49,6.76-.54,2.54-1.85,4.75,1.25,7.34,1.84,1.54,3.11,5.79-.41,8.46-.8.6-1.11,1.59-.67,2.28,2.42,3.82,1.19,7.83.91,11.83-.08,1.19-.3,2.23-.79,3.26-9.47,19.84-23.27,35.58-43.51,44.9-9.01,4.15-16.43,10.81-25.42,14.98-29.69,13.76-60.49,24.2-92.65,30.17-11.73,2.18-23.9,1.95-35.68,3.96-10.6,1.81-19.96-.66-29.49-4.64-10.68-4.47-22.36-6.03-33.03-10.6-7.84-3.36-16.18-5.89-22.17-12.56-.64-.71-1.62-1.22-2.54-1.57-19.73-7.44-32.41-23.42-45.86-38.3-11.28-12.48-22.14-25.37-32.76-38.43-15.1-18.58-24.59-40.15-31.56-62.82-5.33-17.33-9.67-34.96-14.92-52.31-1.41-4.66-.32-7.43,3.27-9.94,1.67-1.17,3.11-2.51,3.31-4.75.11-1.19.49-2.43,2-2.22,1.21.17,2.09,1.12,2.11,2.39.05,4.79,2.56,8.08,5.96,11.18,1.86,1.69,2.45,4.48,3.12,6.97,1,3.71,3.17,5.39,6.99,4,4.54-1.65,7.84.41,10.37,3.74,1.58,2.08,3.17,2.34,5.12,1.24,2.39-1.35,4.45-.29,6.46.67,1.76.84,2.54,3.46,5.37,2.52.99-.33,1.22,1.27,1.27,2.29.04.91-.72,2.14.7,2.57,1.48.45,2.34-.58,3.22-1.58,2.52-2.9,3.41-2.8,4.64.85.58,1.72,1.28,3.07,3.15,2.74,3.59-.63,3.69,2.46,4.75,4.32.97,1.7-.91,1.7-1.86,2.01-3.01.98-3.38,2.51-1.5,5.05,2.35,3.18,5.4,5.47,8.71,7.46,1.24.75,2.96,1.32,3.1,2.72.48,4.97,4.62,7.56,7.05,11.22,1.48,2.23,3.85,3.65,7.04,2.65,3.67-1.15,7.5-1.79,11.2-2.89,2.03-.6,4.96-.21,3.97-4.42-.49-2.07,2.56-1.55,3.96-.93,1.94.85,3.65,2.22,5.47,3.33,1.74,1.07,3.46,1.89,5.6.82,2.14-1.07,3.72.56,5.82,2.08-.23-2.16-.66-3.86.7-5.21.84-.83,1.62-1.75,2.89-1.49,1.23.25,1.24,1.43,1.37,2.41.43,3.12,1.77,4.81,5.24,5.67,3.12.77,2.94,5.27,5.06,7.41,2.8,2.83,5.15,6.17,9.21,7.72,7.54,2.88,15.9,2.76,23.18,6.55,3.48,1.81,7.58,2.76,8.29,7.64.17,1.21,1.54,1.93,2.71,1.43,5.02-2.14,11.05.23,15.29-3.84,1.84,1.14-.5,4.23,2.44,4.05,2.42-.14,2.08-2.29,2.23-3.96.1-1.12-.11-2.35.76-3.26.83-.88,2.93-1.27,2.81-.56-.77,4.81,7.05,6.38,4.25,11.74-.34.65-.48,1.44.29,1.87.88.49,1.63-.2,2.4-.51.88-.35,1.69-1.55,2.67-.77,1.08.86.42,2.1.09,3.19-1.13,3.66-3.79,5.06-8.52,4.57-2.28-.24-5.74-1.76-6.2,1.32-.38,2.51,3.45,2.24,5.51,2.81,2.6.72,5.34.94,7.98,1.54,7.54,1.72,10.94,6.3,10.4,13.84-.24,3.44,3.47,8.59,6.75,9.26.49.1,1.48-.07,1.54-.29.89-3.46,5.73-4.39,5.38-8.7-.19-2.33,1.4-3.94,3.37-5.1,1.85-1.08,3.73-2.11,5.51-3.29,1.38-.92,2.62-1.23,3.72.26,1.04,1.42.85,2.65-.79,3.52-.13.07-.24.16-.36.24-2.12,1.47-3.87,3.58-5.29,5.47-2.26,3.03,2.9,3.16,3.38,5.51.19.93.52,1.83.9,3.14"/>
      <path class="cls-2" d="M309.21,341.38c-.2,2.26.82,4.16,1.81,6.05,2.55,4.87,4.21,4.97,7.88.65,1.19-1.4,1.23-2.7.54-4.3-.84-1.95-1.37-4.04-2.23-5.98-1-2.26-.95-6.69-2.98-6.39-2.94.44-3.76,4.51-4.78,7.44-.27.78-.17,1.69-.24,2.53M335.77,331.25c.63-6.39-1.69-12.15-6.28-17.07-.74-.79-1.36-2.21-2.64-1.82-1.31.4-1.65,1.89-1.91,3.13-.64,2.92.44,6.03-.76,8.85-.72,1.69-1.07,3.22-.19,4.86,2.21,4.13,4.42,8.26,6.67,12.37.65,1.19,1.52,2.29,3.01,1.18,1.23-.92,3.79-1.23,2.7-3.56-1.19-2.54-.56-5.02-.6-7.95M323.57,309.34c.39-.13.77-.26,1.16-.4-1.95-3.11-.61-5.61,1-8.04,1.8-2.73,3.08-5.78,1.8-8.87-1.19-2.89-1.5-5.7-1.36-8.71.08-1.75-.17-4.06-2.21-4.04-4.23.05-6.93-2.05-9.34-5.07-.45-.57-1.25-.81-1.95-.48-.84.39-.52,1.17-.39,1.85.52,2.69.89,5.52-.15,8.02-3.89,9.37-1.24,18.19,1.94,26.97.77,2.12,1.32,4.59,3.6,5.95,2.48-3.85,0-8,1.54-12.65,1.75,2.2,3.05,3.83,4.35,5.46M298.02,342.15c.82-2.54,2.82-4.58,2.86-7.49.02-1.44,1.71-1.69,2.79-2.35,5.66-3.44,7.87-8.92,1.63-13.11-3.16-2.12-3.96-5.28-1.46-8.51,3.7-4.76,2.63-10.22,2.36-15.48-.12-2.36-.03-4.22,2.05-5.55,1.42-.91,1.82-2.16,1.3-3.69-.27-.81-.74-1.81-1.71-1.62-1.55.3-2.35,1.64-2.56,3.07-.19,1.33-.42,2.36-2.03,1.83-1.73-.57-1.43-1.89-.9-3.16.5-1.18.87-2.48,1.62-3.48,1.77-2.37.82-4.83.97-7.35.35-5.97-1.51-11.43-2.35-17.11-.18-1.25.47-2.16,1.1-3.14,2.14-3.32.92-6.45-2.82-7.59-1.49-.45-2.93-1.09-4.34-1.75-1.85-.86-2.45-2.68-.78-3.67,5.49-3.25,4.58-8.85,4.71-13.52.12-4.53,3.55-7.03,4.55-10.83.21-.8,1.47-.96,2.29-.67,1.18.42,1,1.61,1.06,2.58.29,4.67-.65,9.44,1.39,14.41,2.64-3.42,5.81-4.93,10-3.61,1.55.49,2.64-.42,3.23-2.05.69-1.92,1.97-3.06,4.26-2.72,1.22.18,3.06,2.18,3.55.14.45-1.86-.51-4.22-2.84-5.19-.39-.16-.84-.17-1.24-.32-1.57-.56-2.82-1.44-2.94-3.29-.12-1.77.7-2.98,2.29-3.75,1.68-.81,3.29-.73,4.92.16,1.58.87,1.16,2.18.68,3.35-1.07,2.57-.04,4.32,1.87,5.96,3.97,3.42,7.16,7.39,8.26,12.7.47,2.27,2.28,2.62,4.15,3.08,1.79.44,3.35,1.65,3.12,3.56-.26,2.15-2.11,1.12-3.45,1.07-2.05-.08-1.88,1.21-1.47,2.61,1.02,3.56,2.72,6.63,6.1,8.45,1.59.85,2.99,1.69,2.85,3.81-.15,2.28-1.89,2.58-4.35,3.08,4.59,1.64,4.88,4.42,3.18,7.85-.59,1.18-.85,2.5.17,3.61,1.12,1.22,2.37.54,3.55.05,2.93-1.22,5.22-.2,4.02,2.84-2.96,7.51.02,14.61.27,21.91.28,8.11,3.69,15.43,4.39,23.34.17,1.97,1.19,3.33,3.29,3.14,2.24-.2,2.85.8,2.58,2.76-.26,1.82-1.14,2.94-3.17,2.51-.98-.21-2.11-.72-2.75.32-.72,1.17.24,2.15.88,3.08,5.08,7.46,9.83,15.1,12.69,23.74,2,6.05.91,7.64-5.42,8.26-.84.08-1.89-.19-1.91,1.05-.02,1.09.97,1.19,1.83,1.4,5.26,1.26,6.85,2.89,6.68,7.96-.05,1.53.63,2.23,1.13,3.33,1.67,3.73,1.85,7.46-.71,10.95-.68.93-1.42,1.89-2.82,1.13-1.24-.67-1.59-1.89-1.03-2.92,2.15-4.01-1.55-6.95-1.8-10.52-.07-1-1.17-2.07-2.46-2.05-1.14.02-1.52,1.09-2.03,1.97-2.47,4.23-6.97,7.26-7.37,12.76-.08,1.12-1.46,1.44-2.39.66-.85-.71-2.74-1.06-1.73-2.84,2.04-3.6.2-4.45-3.05-4.8-6.32-.68-13.84-7.43-15.26-13.43-.29-1.22.33-2.22.66-3.3,1.97-6.36-.5-13.75-5.85-17.59-.56-.4-1.17-1.16-1.82-.46-.41.44-.6,1.29-.54,1.93.24,2.7.52,5.4.95,8.07.28,1.72.92,3.85-.05,5.02-2.9,3.45-1.17,5.78,1.1,8.44,2.24,2.63,2.43,5.63.88,8.8-2.29,4.69-1.27,7.42,3.61,9.88-1.03,1.67-2.46,1-3.77.7-1.56-.35-3.12-.45-4.65.08-2.24.77-3.46,1.7-.8,3.63,1.61,1.17,3.06,2.56,4.52,3.91.62.58,1.24,1.38.52,2.22-.62.72-1.25.02-1.87-.29-4.76-2.3-7.62-1.78-11.34,1.6-1.43,1.31-3.21,2.35-5,3.11-1.72.73-3-.61-3.92-1.88-1.14-1.57-.58-3.3.88-4.1,6.64-3.65,4.42-9.93,4.58-15.35.18-5.76-1.33-10.63-6.9-14.16-6.58-4.16-6.23-11.33-5.7-18.17.01-.14.06-.28.08-.42q1.59-8.73-7.08-8.62l.04.03Z"/>
      <path class="cls-2" d="M387.32,117.35c2.83.59,4.16,2.08,5.5,3.56.59.65,1.27,1.39,2.14.65,1.03-.87,1.19-2.25,1.38-3.5.11-.74-.28-1.43-1.13-1.56-1.86-.3-4.72.88-5.18-1.67-.53-2.96-.29-6.22.38-9.17.4-1.77.57-3.27.03-4.92-.51-1.52.12-3.11,1.58-2.66,4.3,1.3,9.28.58,12.54,5.05,13.22,18.08,27.63,35.37,36.04,56.52,5.9,14.82,8.85,30.37,11.92,45.92,2.01,10.16,5.46,19.8,11.33,28.47,1.71,2.52,2.37,5.41,2.41,8.53.1,7.81-.86,15.72,2.28,23.27.57,1.36.3,3.1.27,4.67-.06,2.92.31,5.93,1.9,8.24,2.37,3.44,4.96,6.51,1.55,10.65,4.33,8.47-.76,17.63,1.92,26.22,2.25,7.25,3.26,14.75,4.65,22.18.32,1.7.27,3.15-1.56,3.94-.51.22-1.08.47-1.62.46-1.27-.02-.3-3.28-2.35-1.93-2.83,1.88-5.49,4.07-8.03,6.34-1.1.98-.72,2.4.44,3.37,2.52,2.12,3.52,4.17.04,6.39-.61.39-1.21,1.52-1.1,2.18.8,4.79-3.3,7.63-4.41,11.73-1.45-2.53-1.17-5.12-.62-7.67,1.02-4.73.46-9.06-2.65-12.93-1.29-1.61-2.18-3.37.77-4.18,2.2-.61,2.41-2.28,2.29-4.03-.34-5.18.6-9.95,4-14.05.94-1.14.75-2.07-.41-2.87-4.32-2.99-5.55-7.63-5.86-12.34-.26-3.94-1.87-6.73-4.7-9.17-3.09-2.65-4.69-5.77-2.62-9.83.4-.79.69-1.67.2-2.46-2.44-3.94-1.54-8.3-1.71-12.54-.13-3.26.26-6.27,3.3-8.37-7.7-4.66-10.28-11.9-10.96-19.97-.29-3.52-1.37-5.19-4.98-4.16-2.77.79-3.69-.7-4.73-2.92-1.57-3.36-1.85-8.06-7.7-7.55-1.78.15-2.27-2.46-1.8-4.18.71-2.57,1.34-5.6,4.75-5.83,2.21-.15,4.17,1.31,4.03,3.57-.35,5.57,3.84,8.69,6.23,12.78.36.61.78,1.33,1.64.97.78-.33.76-1.19.68-1.86-.42-3.85-.88-7.78-3.75-10.69-3.21-3.26-3.68-6.9-2.26-11.02.31-.92.96-1.87.1-2.81-.91-1-1.68-.46-2.58.19-1.99,1.44-2.96.26-3.14-1.63-.16-1.68-.09-3.44.22-5.11.36-1.93.37-3.85-.7-5.38-1.81-2.57-3.43-4.42.1-7.34,1.81-1.5-1.02-4.02-2.12-5.88-1.01-1.7-2.53-1.62-4.05-.54-1.16.82-2.42,2.09-3.73.6-1.42-1.62.82-2.03,1.38-2.96,1.44-2.42,1.01-5.06.78-7.54-.48-5.1-1.4-10.16-2.89-15.1-.84-2.78-2.32-4.24-5.5-4.3-4.55-.08-5.9-1.83-4.82-6.31.97-4.03.11-6.12-4.39-5.84-1.35.09-2.83-.37-3.25-1.66-1.28-3.95-5.69-7.16-2.92-12.11.53-.95-.4-1.58-1.1-2.03-1.23-.79-1.66-1.93-1.61-3.29.1-2.65-.69-4.54-3.33-5.84-2.63-1.31-1.27-4.29-2.54-6.71"/>
      <path class="cls-2" d="M297.97,342.12c4.64,6.03,2.69,12.35.77,18.65-.49,1.61-1.91,1.85-3.4,2.09-5.66.9-7.32,2.59-8.3,8.12-.3,1.68-.41,3.42-.9,5.05-1.87,6.19-.4,10.69,5.65,13.87,4.26,2.23,4.26,3.93,1.09,7.6-1.34,1.55-2.02,3.13-1.19,5.07.82,1.9,2.56,2.07,4.33,2.07.86,0,1.82.27,2.56-.03,6.04-2.46,8.23,1.31,10.18,5.94.9,2.13.34,3.93-1.14,4.95-2.35,1.62-4.38,3.6-7.88,3.69-3.16.08-6.7,1.5-9.11,4-2.48,2.58-5.42,1.84-7.9,1.11-2.36-.69-1.01-3.48-.99-5.27.04-2.79,1.58-5.14,3.44-7.19,1.02-1.13,1.52-2.22.99-3.86-2.99-9.34-5.67-18.79-10.59-27.39-.21-.37-.67-.96-.57-1.1,3.47-4.48-1.11-10.2,2.25-14.63,1.65-2.17.56-4.45-.32-6.05-2.12-3.86-.2-6.96.71-10.45,2.58,1.32.56,4.36,2.79,5.83,2.59-2.8,1.57-5.78.63-8.71-1.75-5.42-1.4-5.16,4.25-6.15,4.93-.86,8.57,1.47,12.69,2.83,0,0-.04-.03-.04-.03"/>
      <path class="cls-2" d="M467.52,511.63c-3.11-5.64-8.6-6.49-13.16-8.76-3.25-1.61-3.32-5.31-5.74-7.57-3.68-3.44.46-5.71,2.28-7.99,2.97-3.74,2.97-4.98-.97-8.27-1.04-.87-1.98-1.76-1.57-3.22.39-1.39.9-2.79,2.8-2.66,1.25.08,2.05-.58,2.96-1.38,4.36-3.84,11.05-1.84,12.32,3.77.58,2.56,2.45,4.56,4.25,4.8,3.77.49,3.73,2.98,3.35,5.2-1.49,8.66-3.81,17.12-6.52,26.09"/>
      <path class="cls-2" d="M355.12,531.78c2.17.15,4.92.09,6.4-2.88.93-1.87,1.28-4.27.07-5.71-1.92-2.27-4.78-1.76-7.57-1.19-2.31.47-4.65,1.65-7.11.72-2.72-1.02-2.51.84-2.35,2.44.45,4.39,3.57,6.43,10.56,6.62M355.6,509.51c-.34-4.56,1.9-3.54,4.36-2.22,3.69,1.96,5.65,5.28,6.6,9.08,1.03,4.13-.08,8.45.64,12.71.27,1.6-1.07,4.12-3.25,3.8-4.53-.66-6.27,2.37-8.39,5.24-3.31,4.49-3.29,4.41-5.8-.43-1.46-2.81-2.08-6.41-5.97-7.24.08-5.32-4.47-8.65-5.7-13.24-.58-2.14,2.41-2.24,3.74-1.03,1.91,1.75,3.4,3.82,6.35,2.07.18-.11.54.13.82.15,1.45.06,1.76,3.53,3.64,1.55,1.5-1.6.73-4.12.65-6.11-.12-2.92-3.87-4.48-6.36-2.9-1.83,1.16-3.59.44-5.4.27-.69-.07-1.52-.14-1.68-1.01-.2-1.12.64-1.5,1.51-1.65,1.78-.31,2.96-1.13,2.74-3.12-.22-1.99-1.87-2.02-3.25-1.97-5.99.22-8.52-4.84-12.24-8.01-1.05-.89-1.09-2.81-.04-3.95.97-1.05,1.62.52,2.45.8,2.95,1.01,4.71,2.84,5.4,5.97.37,1.68,1.69,3.45,3.58,3.14,4.28-.7,8.8-.8,12.52-3.56.56-.41,1.02-1.17,1.61-1.26.57-.08,1.5.31,1.83.79,2.7,4.01,11.21-.13,11.03,7.88-.02.81.77,1.75-.01,2.4-1.05.88-1.74-.27-2.56-.73-2.32-1.32-4.52-3.07-7.26-3.33-1.61-.15-3.9-1.59-4.65,1.27-.61,2.32.56,3.77,3.13,4.65"/>
      <path class="cls-2" d="M276.33,165.58c3.16.97,4.01,2.61,2.75,5.32-1.09,2.33.57,3.05,2.47,3.32,2.01.29,3.43,1.44,1.42,2.88-2.87,2.06-3.81,5.17-5.62,7.81-.58.85-1.03,1.71-2.28,1.51-1.48-.24-6.22-7.02-5.76-8.48.61-1.91.5-3.29-1.94-2.82-2.47.48-5.6,1.13-6.57-1.28-1.27-3.15-2.49-6.89-.98-10.37,1.38-3.19,3.88-5.43,7.57-5.91.41-.05,1.09-.2,1.19-.03,1.82,3.04,4.55,2.73,7.49,2.4,1.4-.16,3.18,0,3.45,2.24.24,2.06-1.62,2.04-3.2,3.41"/>
      <path class="cls-2" d="M422.29,105.98c-1.03-.07-.99-1.04-.57-1.8,2.77-5.07-1.67-8.95-2.27-13.46-.25-1.93-1.72-.46-2.54.15-1.24.93-2.53,2.42-4.07.94-1.43-1.37-.09-2.92.45-4.33,1.08-2.83,3.85-3.44,6.22-3.98,2.06-.47,3.71-3.58,5.57-1.99,1.68,1.44-1.83,2.66-1.68,4.69.35,4.89,1.84,9.47,3.24,14.09.8,2.63-1.37,5.84-4.35,5.7"/>
      <path class="cls-2" d="M361.54,493.77c-6.36-.4-10.59-4.8-10.35-10.49.06-1.49.26-2.9,1.94-3.45,1.66-.55,2.77.25,3.52,1.64,1.49,2.79,3.91,4.39,6.7,5.69,1.99.93,3.08,2.91,2.4,4.98-.63,1.92-2.81,1.49-4.2,1.64"/>
      <path class="cls-2" d="M277.86,303.51c2.76,1.85,5.9,1.73,8.97,2.07.71.08,1.38.69,1.25,1.49-.24,1.48-1.42,2.42-2.43,3.4-.65.62-1.3.06-1.86-.39-4.04-3.18-4.24-3.21-5.14,2.16-.51,3.03-1.13,4.73-4.49,2.81-1.12-.64-3.35.02-3.2-2.04.18-2.46-.5-5.37,1.77-7.16,1.39-1.1,3.32-1.54,5.14-2.33"/>
      <path class="cls-2" d="M481.66,442.12c-.32,1.61-.43,3.51-1.11,5.18-.78,1.93-2.68,2.97-4.63,3.35-2.33.45-1.7-2.18-2.74-3.09-1.46-1.3.37-4.27-2.52-4.8-.12-.02-.29-.74-.17-1.02.57-1.35,8.34-3.79,9.62-3.07,1.3.72,1.51,1.95,1.55,3.46"/>
      <path class="cls-2" d="M275.29,234.1c-.68.44-.85.49-.91.6-.73,1.17-.97,2.9-2.72,2.98-1.32.06-.75-1.25-.98-1.95-.57-1.73-.64-3.27,1.21-4.47,2.4-1.56,4.82-1.77,7.25-.38,1.82,1.04,3.05,2.64,2.67,4.91-.23,1.4.35,3.5-2.05,3.56-1.93.05-3.76-.39-4.04-2.86-.08-.68-.25-1.34-.45-2.38"/>
      <path class="cls-2" d="M15.85,454.68c-2.96-.4-3.78-2.14-4.14-4.16-.98-5.45-1.9-10.91-2.79-16.37-.17-1.06-.47-2.68,1.16-2.62,1.5.06.62,1.52.65,2.41.09,3.1-.91,6.69,3.82,7.54.85.15.7,1.4.55,2.27-.42,2.35-.57,4.61,3.08,5.72-5.39.14-4.21,2.58-2.33,5.21"/>
      <g>
        <path class="cls-1" d="M314.67,353.73c-2.62.02-5.24.02-7.86.01-3.04,0-6.18-.01-9.27.03-.67,0-1.36-.06-2.1-.14-1.89-.19-3.84-.39-5.35.77-1.46,1.12-1.46,3.11-1.47,4.86,0,.64,0,1.25-.07,1.8-.05.41-.16.83-.29,1.28-.08.29-.16.58-.22.87-3.04,13.98-9.35,23.97-19.29,30.51-13.83,9.11-29.77,10.86-47.38,5.2-17.87-5.74-29.76-18.64-36.35-39.45-.33-1.05-.59-2.15-.85-3.22-.34-1.43-.69-2.91-1.22-4.32-.17-.44-.17-1.06-.17-1.71,0-1.1,0-2.34-.87-3.17-.45-.43-1.06-.69-1.86-.77.12-.65.06-1.2-.17-1.66-.47-.92-1.49-1.2-2.39-1.46-.55-.16-1.12-.32-1.4-.59-.4-.39-1.02-.9-1.87-.86-.77.04-1.51.51-2.34,1.49-.23.27-.48.62-.74.99-.72,1.03-1.62,2.32-2.76,2.47-.68.09-1.46-.22-2.33-.94-.66-.55-1.43-.33-2.29.65-.07.08-.15.15-.24.23-.33.3-.78.71-.77,1.3,0,.36.18.68.52.96.51.43.83,1.02,1.16,1.65.29.55.59,1.11,1.05,1.63.23.27.54.55.85.85.77.72,1.65,1.53,1.6,2.32-.03.53-.49,1.11-1.34,1.72-.24.17-.39.47-.45.89-.03.19-.09.85.24,1.25.55.69.41,1.32.11,2.36-.21.73-.45,1.56-.25,2.45.08.35,0,.52-1.19.9-.23.07-.45.15-.65.23-.16.07-.34.05-.4-.05-.03-.21-.09-.43-.15-.64-.19-.69-.24-.87.52-1.21.55-.24,1.09-.97,1.34-1.81.28-.95.16-1.88-.34-2.62-1.06-1.6-2.4-1.48-4.04-1.16-.95.19-1.98.49-2.47,1.28-.45.73-.32,1.66,0,2.81.42,1.46.37,2.99.32,4.61-.06,2.02-.13,4.12.75,6.18.05.13.06.54.06.84,0,.6.01,1.28.26,1.87,4.49,10.73,10.2,19.57,17.43,27.03,16.26,16.77,36.91,25.05,63.13,25.32h.05c5.15-.3,9.94-.73,14.24-1.28,11.94-1.53,21.7-4.94,29.84-10.43,20-13.49,31.07-33.38,32.93-59.12.08-1.04-.12-1.79-.59-2.3-.63-.68-1.63-.75-2.62-.75Z"/>
        <path class="cls-1" d="M158.27,332.47c.46-.08.91-.15,1.28-.1,5,.69,8.99,2.89,12.19,6.72l.89,1.07.26-1.37c.28-1.48.52-2.01,1.39-2.27.6-.18,1.04-.54,1.25-1.01.15-.34.25-.91-.12-1.69-.32-.68-.29-.92-.31-.92.19-.14,1.11-.1,1.51-.09h.36c1.11.05,2.07.08,3.1.78l1.06.72-.04-1.29c-.34-12.65,1.36-24,5.2-34.7,6.44-17.93,17.26-29.51,33.1-35.41,8.98-3.35,18.8-4.23,30.01-2.71,12.02,1.64,21.18,6.3,28.01,14.27,1.33,1.56,2.58,3.25,3.79,4.88.56.77,1.13,1.53,1.7,2.29l1.17-.52c-.67-3.64.34-6.1,3.27-7.96.42-.27,1.26-1.08,1.16-1.86-.05-.4-.32-.7-.74-.83-.74-.23-1.11-.88-1.54-1.63-.54-.94-1.2-2.1-2.78-2.29-.66-.08-1.12-.56-1.72-1.41-1.02-1.44-1.7-2.81-1.72-4.82,0-.48-.18-.93-.34-1.37-.32-.84-.41-1.22,0-1.63.5-.51,1.08-.43,2.07-.25.36.07.73.13,1.1.16.56.04,1.13.13,1.74.23,2.14.35,4.55.73,6.49-1.55,1.01.12,4.72,1.29,5.49,1.74.11.33.16.71-.09.91-2.76,2.15-1.64,4.44-.66,6.46l.38.78c.63,1.27,1.28,2.59.91,3.66-.23.67-.85,1.24-1.9,1.75-.91.44-1.52,1.14-1.74,2.01-.34,1.32.25,2.8.91,3.74,1.58,2.24.64,3.73-.54,5.63-.2.33-.41.66-.6.99-.14.25-.39.33-.82.45-.42.12-.95.27-1.31.74-.96,1.25-.29,2.34.14,3.07.14.24.28.47.37.68-.1-.02-.21-.04-.3-.06-.63-.13-1.41-.28-1.9.27-.47.54-.26,1.34-.07,1.9.09.27.06.6.02.63-.73-.11-1.76-.18-2.33.48-.6.7-.28,1.76-.18,2.11l.05.16c.35,1.16.83,2.73,3.1,2.71,5.03-.06,10.15-.06,15.1-.06,2.87,0,5.74,0,8.61,0h.12c.61,0,1.3,0,1.76-.54.46-.53.39-1.31.31-1.85-2.58-16.08-8.5-28.64-18.1-38.4-12.94-13.15-30.02-20.33-52.23-21.95-2.84-.21-5.62.21-8.31.62-3.23.49-6.27.95-9.31.36l-.37,1.26c.23.09.38.2.42.3.09.23-.2.79-.43,1.24-.39.75-.82,1.6-.52,2.44.12.32.33.6.64.83-.12.13-.24.24-.3.26-2.4-.3-4.39.62-6.31,1.51-.27.12-.53.25-.8.37-.45.2-.95.18-1.18.04-.08-.05-.09-.09-.09-.12-.04-.72-.47-1.28-.81-1.73-.56-.73-.53-.81-.31-1.06.13-.15.29-.29.44-.44.61-.58,1.62-1.56.74-2.68-.78-1-2.12-.56-3.09-.24-.17.06-.34.11-.5.16-26.07,7.52-44.65,24.13-55.23,49.36-3.94,9.39-6.42,19.06-7.37,28.75-.11,1.1-.22,2.2-.34,3.3-.7,6.66-1.43,13.55-.3,20.42l.05.33c.1.77.24,1.73,1.47,2.26.42.18,1.34.57,2.22.57.61,0,1.21-.19,1.6-.78,1.24-1.85.49-4.34-.99-5.34-.82-.55-1.07-1.26-1.35-2.09-.13-.39-.27-.79-.48-1.18-.09-.17.05-.54.2-.78,1.13.99,2.34.78,3.33.61ZM214.95,252.08c.46-.57.76-1.23,1.03-1.82.35-.77.65-1.43,1.11-1.73.09,0,.42.16.69.53.21.28.29.57.23.78-.09.3-.16.64-.22.99-.28,1.48-.49,1.78-1.16,1.72h-.05c-.75-.01-1.34-.28-1.62-.48Z"/>
        <path class="cls-1" d="M83.53,283.6v-38.65s-1.41,2.26-1.41,2.26c-.65,1.05-1.75,2.82-2.27,2.82-.07,0-.21-.11-.37-.36-.98-1.55-1.82-3.94-1.22-6,.04-.13.14-.31.23-.48.23-.43.52-.97.31-1.55-.15-.38-.47-.66-1-.85-.68-.25-1.2-.11-1.52.05-.62.31-1.07.97-1.38,2.02-.13.45-.24.91-.34,1.36-.27,1.18-.53,2.31-1.29,3.19-1.87-1.52-2.62-3.21-2.48-5.54.08-1.35-.31-2.48-1.09-3.19-.81-.74-1.97-1-3.44-.77-2.18.34-4.66.35-7.38.02-1.53-.19-2.56,0-3.24.62-.85.75-1.02,1.98-1.02,3.71.06,35.67.06,71.94.06,107.02v40.19c0,.42-.02.86-.04,1.3-.13,2.29-.31,5.42,3.96,5.94.04.04.13.15.25.36,1.39,2.36,3.35,3.52,6.18,3.62.47.02,1.09.11,1.3.44.2.3.14.9-.15,1.67-.7,1.83-.63,3.91-.57,5.92.02.72.05,1.44.03,2.14-.03,1.59.44,3.06.9,4.48.52,1.59,1,3.1.82,4.75-.11.97.19,1.91.81,2.58.44.48,1.26,1.03,2.67.98l.7-.03c2.46-.1,5-.21,7.43.06.41.05.78.07,1.12.07,1.1,0,1.87-.24,2.44-.75.97-.87,1.1-2.39,1.1-3.91-.09-45.16-.08-91.08-.08-135.49Z"/>
        <path class="cls-1" d="M419.75,301.27c0-3.5-1.69-5.9-5.05-7.12-.86-.31-1.56-.79-2.45-1.44.86-.15,1.56-.41,1.94-1.04.34-.56.32-1.29-.04-2.21.1-.1.3-.23.49-.24,2.62-.24,2.52-2.24,2.46-3.44-.01-.23-.02-.46-.02-.68,0-.09,0-.19.01-.3.03-.55.08-1.23-.35-1.69-.15-.16-.42-.36-.86-.36h-.02c-1.19,0-1.84.85-2.36,1.53-.26.34-.5.65-.78.85-.23.17-.4.38-.54.57-.08.1-.2.26-.26.29-.39.19-.73.13-1.07-.19-.24-.23-.39-.57-.42-.76,1.48-.85,2.32-2.23,3.15-3.56.9-1.46,1.75-2.84,3.38-3.41,1.15-.4,1.83-.98,2.03-1.74.18-.7-.08-1.45-.77-2.22-1.44-1.6-1.52-3.4-1.18-5.79.04-.26.11-.56.19-.86.24-.98.52-2.09-.2-2.74-.5-.45-1.27-.49-2.46-.12-.34-.54-.73-.87-1.21-1-.89-.25-1.72.29-2.38.73-.17.12-.35.23-.51.32-.51.29-.69.25-.73.24-.16-.05-.36-.46-.54-.82l-.15-.31c-.5-.97-.8-2.1-1.09-3.18-.34-1.29-.7-2.62-1.4-3.72-.92-1.44-1.1-2.92-1.29-4.49-.11-.87-.22-1.76-.46-2.65-.1-.36-.15-.72-.21-1.07-.14-.91-.29-1.84-1.08-2.33-.63-.39-1.5-.38-2.76.03-.65.22-2.14.02-2.6-.94-.3-.63-.2-1.12,1.18-1.97.88-.54,1.13-1.2,1.18-1.67.13-1.12-.71-2.14-1.22-2.65-1.74-1.72-4.1-1.38-6-1.12-.27.04-.54.08-.8.11-.64.08-1.13.33-1.43.74-.52.7-.37,1.65-.24,2.4.05.3.1.57.1.78-.05,33.58-.05,67.72-.05,100.74v14.89c-.01.33-.02.67.01,1,.01.12,0,.24,0,.37-.03.49-.09,1.5,1.04,1.87.99.32,1.93-.1,2.42-1.08.07-.14.11-.28.13-.42.15.17.29.42.3.57.06.92-.48,1.55-1.7,1.89-.77.22-1.73.49-2.05,1.23-.11.26-.18.67.1,1.18.53.97.3,1.84.03,2.84-.16.61-.33,1.25-.33,1.94.08,17.4.08,34.68,0,51.36,0,.89.08,1.89.73,2.53.65.64,1.64.71,2.53.7,7.96-.13,14.64-.17,21.38.02.16,0,.32,0,.48,0,1.11,0,2.19-.14,2.9-.84.66-.64.94-1.66.94-3.39-.12-40.14-.09-80.4-.05-118.2Z"/>
        <path class="cls-1" d="M362.38,395.84c0-1.05-.21-1.76-.7-2.25-.64-.64-1.61-.7-2.28-.71-9.73.06-17.23.05-24.31-.01-1.08,0-1.75.2-2.22.67-.61.61-.68,1.53-.68,2.27.07,8.96.07,17.13,0,24.96,0,1.07.2,1.76.68,2.24.56.55,1.37.65,2.07.65.07,0,.14,0,.21,0,2.79-.07,5.64-.05,8.4-.04,2.33.01,4.66.01,7,0,2.92-.01,5.94-.03,8.9.04.79.02,1.69-.05,2.29-.64.47-.47.68-1.15.67-2.21-.08-7.5-.08-15.43-.01-24.96Z"/>
        <path class="cls-1" d="M478.33,395.84c0-1.05-.22-1.76-.7-2.25-.64-.64-1.62-.7-2.28-.71-9.73.06-17.23.05-24.31-.01-1.06,0-1.75.2-2.22.67-.61.61-.68,1.53-.67,2.27.07,8.99.07,17.15,0,24.96,0,1.07.2,1.76.68,2.24.56.55,1.37.65,2.07.65.07,0,.14,0,.21,0,2.79-.07,5.64-.05,8.4-.04,2.33.01,4.66.01,7,0,2.92-.01,5.94-.03,8.9.04.79.02,1.69-.05,2.29-.64.47-.47.68-1.15.67-2.21-.08-7.53-.08-15.46-.01-24.96Z"/>
        <path class="cls-1" d="M142.72,413.22l.02-2.36c0-1.32,0-2.58-2.11-3.43-1.9-.77-2.49.39-2.81,1.01-.06.12-.11.22-.16.31-.61-.88-.85-1.71-.76-2.61.18-1.81-.34-3.28-1.4-3.92-2.72-1.65-1.92-3.19-.82-5.32.22-.42.43-.84.62-1.26.02-.04.08-.12.13-.19.26-.35.74-.99.22-2.14l-.17-.39h-3.16c-3.76,0-7.6,0-11.45.02-.35,0-1.5.06-1.79.78-.21.53-.36.67-.35.69-.12-.03-.39-.26-.57-.41-.19-.16-.39-.32-.61-.47-1.29-.87-2.63-1.05-3.67-.5-.98.52-1.55,1.62-1.56,3.03-.03,4.45-.03,8.9-.03,13.34,0,3.77,0,7.54-.01,11.31,0,.73.07,1.64.69,2.26.47.47,1.16.69,2.17.69h.07c7.92-.08,16.22-.08,24.65,0,1.11,0,1.79-.2,2.27-.69.61-.62.66-1.54.64-2.27-.08-2.49-.06-5.02-.04-7.48ZM121.57,401.61c-.14.14-.37.29-.66.21-1.3-.35-2.51-1.13-3.78-1.95-.1-.06-.19-.12-.29-.19.65-.37,1.14-.94,1.57-1.43.51-.59.95-1.11,1.54-1.24.29-.07.58.1.77.25.68.53,1.18,1.68,1.2,2.72l.02.16c.16.6-.08,1.18-.36,1.46Z"/>
        <path class="cls-1" d="M138.33,396.55c.05,2.01.12,4.52,3.47,5.83l.9.35v-2.94c0-1.58,0-3.08,0-4.59,0-.89-.41-2-2.28-2.24-.15-.02-1.49-.17-2.08.51-.23.27-.31.62-.21.98.17.63.19,1.34.21,2.1Z"/>
        <path class="cls-1" d="M417.87,251.39c.23.09.44.12.61.12.29,0,.51-.1.66-.2.38-.26.57-.72.57-1.38v-11.09s-2.47-.13-2.47-.13l.22.87c.55,2.19-.26,4.09-1.15,6.17-.38.88-.57,1.97-.58,3.32-.01,1.5,1.39,2.03,2.14,2.32Z"/>
        <path class="cls-1" d="M78.26,245.43l1.36-.39c3.8-1.08,3.98-1.35,3.81-5.84l-1.25-.27c-.45.9-1.04,1.46-1.66,2.06l-.26.25c-.54.52-.79,1.22-1.06,1.96-.11.3-.22.62-.37.93l-.58,1.29Z"/>
      </g>
    </g>
  </g>
</svg>