<?xml version="1.0" encoding="UTF-8"?>
<svg id="Layer_2" data-name="Layer 2" xmlns="http://www.w3.org/2000/svg" viewBox="0 0 500.51 135.92">
  <defs>
    <style>
      .cls-1 {
        fill: #231f20;
        stroke-width: 0px;
      }
    </style>
  </defs>
  <g id="Layer_1-2" data-name="Layer 1">
    <g>
      <path class="cls-1" d="M474.89,114.38c-1.29,0-2.51-1.46-2.51-3.19,0-1.54,1.98-2.23,4.38-2.56.44-.06,2.73-.25,3.3-.25v3.69c-.96.83-3.94,2.31-5.18,2.31M472.39,105.49c.66-1.93,1.65-2.62,4.21-2.62s3.47.85,3.47,3.39v1.02c-.39,0-3.22.22-3.77.3-2.62.33-5.23,1.27-5.23,3.69s1.73,4.32,3.55,4.32,4.05-1.21,5.54-2.29h.05c.14.5.58,1.82.8,2.23l1.1-.27s-.72-2.7-.77-3.36v-5.78c0-3.11-1.18-4.46-4.74-4.46-3.22,0-4.63.94-5.48,3.53l1.27.3ZM463.41,113.45h-.17l-4.38-11.51h-1.35l5.09,13.38h1.32l5.09-13.38h-1.35l-4.27,11.51ZM454.65,99.32h-1.35v-2.18h1.35v2.18ZM454.62,101.93h-1.29v13.38h1.29v-13.38ZM449.42,105.68c-.69-3-2.53-4.02-5.51-4.02-3.64,0-5.56,1.68-5.56,3.86s1.68,2.92,5.29,3.55c3.03.52,4.43.96,4.43,2.53,0,1.79-1.4,2.81-4.38,2.81-2.62,0-3.94-.74-4.63-3.28l-1.24.17c.66,3.08,2.48,4.3,5.89,4.3,3.63,0,5.65-1.54,5.65-4.1,0-2.34-1.9-3.11-5.48-3.69-3.03-.49-4.24-.88-4.24-2.37,0-1.57,1.43-2.62,4.3-2.62,2.37,0,3.72.8,4.27,3.17l1.21-.3ZM434,99.32h-1.35v-2.18h1.35v2.18ZM433.97,101.93h-1.29v13.38h1.29v-13.38ZM424.17,113.45h-.16l-4.38-11.51h-1.35l5.09,13.38h1.32l5.09-13.38h-1.35l-4.27,11.51ZM404.53,102.82c3,0,4.35,1.71,4.35,4.71,0,.06-.03.19-.05.28h-8.9c.19-3.03,1.57-4.98,4.6-4.98M408.91,111.68c-.63,1.98-2.07,2.75-4.32,2.75-3.39,0-4.43-2.07-4.63-5.48h10.11c.05-.33.11-1.1.11-1.43,0-3.69-1.93-5.87-5.65-5.87s-5.89,2.45-5.89,6.97c0,4.27,1.82,6.97,5.92,6.97,2.86,0,4.76-1.13,5.53-3.74l-1.18-.17ZM386.05,101.93h-1.24v13.38h1.27v-10.55c.94-.58,3.19-1.9,4.74-1.9,1.9,0,3.08,2.04,3.08,3.94v8.51h1.27v-8.62c0-2.62-1.68-5.04-4.3-5.04-1.6,0-3.83,1.27-4.79,1.85l-.03-1.57ZM375.5,114.36c-3.08,0-4.46-2.2-4.46-5.67s1.13-5.81,4.46-5.81,4.43,2.34,4.43,5.81-1.13,5.67-4.43,5.67M375.5,115.59c3.94,0,5.76-2.45,5.76-6.91s-1.82-7.02-5.76-7.02-5.78,2.56-5.78,7.02,1.82,6.91,5.78,6.91M365.84,99.32h-1.35v-2.18h1.35v2.18ZM365.81,101.93h-1.29v13.38h1.29v-13.38ZM351.13,101.93h9.47v1.07l-8.01,11.15h8.1v1.16h-9.61v-1.07l7.93-11.15h-7.88v-1.16ZM340.64,114.38c-1.29,0-2.51-1.46-2.51-3.19,0-1.54,1.98-2.23,4.38-2.56.44-.06,2.73-.25,3.3-.25v3.69c-.96.83-3.94,2.31-5.18,2.31M338.13,105.49c.66-1.93,1.65-2.62,4.21-2.62s3.47.85,3.47,3.39v1.02c-.39,0-3.22.22-3.77.3-2.62.33-5.23,1.27-5.23,3.69s1.74,4.32,3.55,4.32,4.05-1.21,5.53-2.29h.06c.14.5.58,1.82.8,2.23l1.1-.27s-.72-2.7-.77-3.36v-5.78c0-3.11-1.18-4.46-4.74-4.46-3.22,0-4.63.94-5.48,3.53l1.27.3ZM333.7,106.12c-.63-2.97-2.26-4.46-5.45-4.46-3.47,0-5.92,2.07-5.92,6.8s1.82,7.13,5.95,7.13c3.25,0,4.82-1.51,5.42-4.3l-1.24-.17c-.55,2.2-1.68,3.28-4.16,3.28-3.25,0-4.65-2.2-4.65-5.95,0-3.94,1.68-5.64,4.65-5.64,2.53,0,3.61,1.29,4.16,3.61l1.24-.3ZM318.33,99.32h-1.35v-2.18h1.35v2.18ZM318.3,101.93h-1.29v13.38h1.29v-13.38ZM303.43,101.93h-1.24v13.38h1.27v-10.55c.94-.58,3.2-1.9,4.74-1.9,1.9,0,3.08,2.04,3.08,3.94v8.51h1.27v-8.62c0-2.62-1.68-5.04-4.3-5.04-1.6,0-3.83,1.27-4.79,1.85l-.03-1.57ZM296.82,115.32h1.18v-13.38h-1.27v10.52c-.94.58-3.11,1.9-4.71,1.9-1.95,0-3.06-1.96-3.06-3.91v-8.51h-1.27v8.57c0,2.7,1.57,5.09,4.27,5.09,1.85,0,3.83-1.24,4.79-1.85l.05,1.57ZM266.17,101.93h-1.21v13.38h1.27v-10.63c.88-.63,3.06-1.82,4.32-1.82,1.93,0,3.14,1.98,3.14,3.91v8.54h1.27v-9.45l-.33-1.13c.96-.63,3.36-1.87,4.57-1.87,2.07,0,3.22,1.85,3.22,3.91v8.54h1.27v-8.57c0-2.78-1.6-5.1-4.38-5.1-1.57,0-4.08,1.32-5.15,2.04-.58-.94-1.68-2.04-3.44-2.04-1.46,0-3.52,1.07-4.49,1.74l-.06-1.46ZM255.71,114.36c-3.08,0-4.46-2.2-4.46-5.67s1.13-5.81,4.46-5.81,4.43,2.34,4.43,5.81-1.13,5.67-4.43,5.67M255.71,115.59c3.94,0,5.76-2.45,5.76-6.91s-1.82-7.02-5.76-7.02-5.78,2.56-5.78,7.02,1.82,6.91,5.78,6.91M246.95,106.12c-.63-2.97-2.26-4.46-5.45-4.46-3.47,0-5.92,2.07-5.92,6.8s1.82,7.13,5.95,7.13c3.25,0,4.82-1.51,5.42-4.3l-1.24-.17c-.55,2.2-1.68,3.28-4.16,3.28-3.25,0-4.65-2.2-4.65-5.95,0-3.94,1.68-5.64,4.65-5.64,2.53,0,3.61,1.29,4.16,3.61l1.24-.3ZM218.77,114.38c-1.29,0-2.51-1.46-2.51-3.19,0-1.54,1.98-2.23,4.38-2.56.44-.06,2.73-.25,3.3-.25v3.69c-.96.83-3.94,2.31-5.18,2.31M216.27,105.49c.66-1.93,1.65-2.62,4.21-2.62s3.47.85,3.47,3.39v1.02c-.39,0-3.22.22-3.77.3-2.62.33-5.23,1.27-5.23,3.69s1.74,4.32,3.55,4.32,4.05-1.21,5.54-2.29h.05c.14.5.58,1.82.8,2.23l1.1-.27s-.72-2.7-.77-3.36v-5.78c0-3.11-1.18-4.46-4.74-4.46-3.22,0-4.63.94-5.48,3.53l1.27.3ZM208.23,113.34c0,1.29.96,2.26,2.01,2.26.55,0,1.49-.22,1.98-.36l-.22-1.13c-.41.11-1.32.25-1.68.25-.33,0-.83-.44-.83-1.1v-17.05l-1.27.06v17.07ZM199.97,113.34c0,1.29.96,2.26,2.01,2.26.55,0,1.49-.22,1.98-.36l-.22-1.13c-.41.11-1.32.25-1.68.25-.33,0-.83-.44-.83-1.1v-17.05l-1.27.06v17.07ZM189.72,102.82c3,0,4.35,1.71,4.35,4.71,0,.06-.03.19-.05.28h-8.9c.19-3.03,1.57-4.98,4.6-4.98M194.1,111.68c-.63,1.98-2.07,2.75-4.32,2.75-3.39,0-4.43-2.07-4.63-5.48h10.11c.06-.33.11-1.1.11-1.43,0-3.69-1.93-5.87-5.64-5.87s-5.89,2.45-5.89,6.97c0,4.27,1.82,6.97,5.92,6.97,2.86,0,4.77-1.13,5.54-3.74l-1.18-.17ZM174.66,114.36c-2.73,0-3.96-2.4-3.96-5.87s1.65-5.62,4.13-5.62c1.6,0,4.16.8,4.16.8v8.81c-.91.63-3.28,1.87-4.32,1.87M180.25,96.21l-1.27.06v6.17s-2.42-.77-4.21-.77c-3.2,0-5.4,2.62-5.4,6.83,0,4.54,1.87,7.1,5.21,7.1,1.29,0,3.5-1.24,4.38-1.79l.05,1.51h1.24v-19.11Z"/>
      <path class="cls-1" d="M491.39,67.91h-1.24v13.38h1.27v-10.55c.94-.58,3.2-1.9,4.74-1.9,1.9,0,3.08,2.04,3.08,3.94v8.51h1.27v-8.62c0-2.62-1.68-5.04-4.3-5.04-1.6,0-3.83,1.27-4.79,1.85l-.03-1.57ZM476.24,83.47c0,2.18,1.76,2.89,4.52,2.89s5.01-.91,5.01-3.39c0-1.82-.83-2.31-3.86-2.31-1.21,0-2.97-.14-3.64-.25-1.16.88-2.04,1.82-2.04,3.06M480.37,75.49c2.42,0,3.77-.94,3.77-3.33s-1.35-3.36-3.77-3.36c-2.18,0-3.75.94-3.75,3.36s1.35,3.33,3.75,3.33M474.95,83.7c0-1.6.91-2.67,2.26-3.64-.55-.27-.96-.83-.96-1.35,0-.94.74-2.31,1.05-2.78-1.4-.88-1.96-1.96-1.96-3.77,0-3.09,2.23-4.52,5.04-4.52,1.35,0,2.59.27,3.52.88.63-.36,2.17-.96,3-1.21l.33,1.35c-.72.17-2.01.55-2.59.8.58.77.8,1.57.8,2.7,0,3.17-1.9,4.49-5.07,4.49-.69,0-1.62-.14-2.09-.3-.17.22-.74,1.51-.74,2.01,0,.72.66,1.07,4.49,1.1,3.8.03,5.04.85,5.04,3.47,0,3.17-2.86,4.65-6.31,4.65s-5.81-1.16-5.81-3.88M471.18,65.3h-1.35v-2.18h1.35v2.18ZM471.15,67.91h-1.29v13.38h1.29v-13.38ZM465.94,71.66c-.69-3-2.53-4.02-5.51-4.02-3.64,0-5.56,1.68-5.56,3.86s1.68,2.92,5.29,3.55c3.03.52,4.43.96,4.43,2.53,0,1.79-1.41,2.81-4.38,2.81-2.62,0-3.94-.74-4.63-3.28l-1.24.16c.66,3.08,2.48,4.3,5.89,4.3,3.64,0,5.65-1.54,5.65-4.1,0-2.34-1.9-3.11-5.48-3.69-3.03-.49-4.24-.88-4.24-2.37,0-1.57,1.43-2.62,4.3-2.62,2.37,0,3.72.8,4.27,3.17l1.21-.3ZM445.84,68.8c3,0,4.35,1.71,4.35,4.71,0,.05-.03.19-.05.27h-8.9c.19-3.03,1.57-4.98,4.6-4.98M450.22,77.66c-.63,1.98-2.07,2.75-4.32,2.75-3.39,0-4.43-2.07-4.63-5.48h10.11c.05-.33.11-1.1.11-1.43,0-3.69-1.93-5.87-5.65-5.87s-5.89,2.45-5.89,6.97c0,4.27,1.82,6.97,5.92,6.97,2.86,0,4.76-1.13,5.53-3.74l-1.18-.17ZM430.78,80.34c-2.73,0-3.97-2.4-3.97-5.87s1.65-5.62,4.13-5.62c1.6,0,4.16.8,4.16.8v8.81c-.91.63-3.28,1.87-4.32,1.87M436.37,62.19l-1.27.05v6.17s-2.42-.77-4.21-.77c-3.2,0-5.4,2.62-5.4,6.83,0,4.54,1.87,7.11,5.21,7.11,1.29,0,3.5-1.24,4.38-1.79l.05,1.51h1.24v-19.11ZM408.8,80.36c-1.29,0-2.51-1.46-2.51-3.19,0-1.54,1.98-2.23,4.38-2.56.44-.06,2.73-.25,3.31-.25v3.69c-.96.83-3.94,2.31-5.18,2.31M406.29,71.47c.66-1.93,1.65-2.62,4.21-2.62s3.47.85,3.47,3.39v1.02c-.39,0-3.22.22-3.77.3-2.62.33-5.23,1.27-5.23,3.69s1.74,4.32,3.55,4.32,4.05-1.21,5.54-2.29h.06c.14.5.58,1.82.8,2.23l1.1-.27s-.72-2.7-.77-3.36v-5.78c0-3.11-1.18-4.46-4.74-4.46-3.22,0-4.63.94-5.48,3.52l1.27.3ZM392.25,67.91h-1.24v13.38h1.27v-10.55c.94-.58,3.19-1.9,4.74-1.9,1.9,0,3.09,2.04,3.09,3.94v8.51h1.27v-8.62c0-2.62-1.68-5.04-4.3-5.04-1.6,0-3.83,1.27-4.79,1.85l-.03-1.57ZM379.88,80.36c-1.29,0-2.51-1.46-2.51-3.19,0-1.54,1.98-2.23,4.38-2.56.44-.06,2.73-.25,3.3-.25v3.69c-.96.83-3.94,2.31-5.18,2.31M377.38,71.47c.66-1.93,1.65-2.62,4.21-2.62s3.47.85,3.47,3.39v1.02c-.38,0-3.22.22-3.77.3-2.62.33-5.23,1.27-5.23,3.69s1.73,4.32,3.55,4.32,4.05-1.21,5.54-2.29h.05c.14.5.58,1.82.8,2.23l1.1-.27s-.72-2.7-.77-3.36v-5.78c0-3.11-1.18-4.46-4.74-4.46-3.22,0-4.63.94-5.48,3.52l1.27.3ZM372.03,65.3h-1.35v-2.18h1.35v2.18ZM372.01,67.91h-1.29v13.38h1.29v-13.38ZM363.14,79.32c0,1.29.96,2.26,2.01,2.26.55,0,1.49-.22,1.98-.36l-.22-1.13c-.41.11-1.32.25-1.68.25-.33,0-.83-.44-.83-1.1v-17.05l-1.27.05v17.08ZM350.97,80.36c-1.3,0-2.51-1.46-2.51-3.19,0-1.54,1.98-2.23,4.38-2.56.44-.06,2.73-.25,3.3-.25v3.69c-.96.83-3.94,2.31-5.18,2.31M348.46,71.47c.66-1.93,1.65-2.62,4.21-2.62s3.47.85,3.47,3.39v1.02c-.39,0-3.22.22-3.77.3-2.62.33-5.23,1.27-5.23,3.69s1.74,4.32,3.55,4.32,4.05-1.21,5.54-2.29h.05c.14.5.58,1.82.8,2.23l1.1-.27s-.72-2.7-.77-3.36v-5.78c0-3.11-1.18-4.46-4.74-4.46-3.22,0-4.63.94-5.48,3.52l1.27.3ZM338.41,78.63c0,1.52,1.24,2.92,2.59,2.92.8,0,2.42-.25,3.25-.47l-.19-1.13c-.74.14-2.18.39-2.95.39-.66,0-1.43-1.05-1.43-1.73v-9.53h4.57v-1.16h-4.57v-3.36h-1.16l-.08,3.36-2.18.11v1.05h2.15v9.56ZM332.79,65.3h-1.35v-2.18h1.35v2.18ZM332.76,67.91h-1.29v13.38h1.29v-13.38ZM315.72,68.8c3,0,4.35,1.71,4.35,4.71,0,.05-.03.19-.05.27h-8.9c.19-3.03,1.57-4.98,4.6-4.98M320.09,77.66c-.63,1.98-2.07,2.75-4.32,2.75-3.39,0-4.43-2.07-4.63-5.48h10.11c.05-.33.11-1.1.11-1.43,0-3.69-1.93-5.87-5.65-5.87s-5.89,2.45-5.89,6.97c0,4.27,1.82,6.97,5.92,6.97,2.86,0,4.76-1.13,5.54-3.74l-1.18-.17ZM297.24,67.91h-1.24v13.38h1.27v-10.55c.94-.58,3.2-1.9,4.74-1.9,1.9,0,3.08,2.04,3.08,3.94v8.51h1.27v-8.62c0-2.62-1.68-5.04-4.3-5.04-1.6,0-3.83,1.27-4.79,1.85l-.03-1.57ZM286.69,80.34c-3.08,0-4.46-2.2-4.46-5.67s1.13-5.81,4.46-5.81,4.43,2.34,4.43,5.81-1.13,5.67-4.43,5.67M286.69,81.57c3.94,0,5.76-2.45,5.76-6.91s-1.82-7.02-5.76-7.02-5.78,2.56-5.78,7.02,1.82,6.91,5.78,6.91M277.02,65.3h-1.35v-2.18h1.35v2.18ZM276.99,67.91h-1.29v13.38h1.29v-13.38ZM262.32,67.91h9.47v1.07l-8.01,11.15h8.1v1.16h-9.61v-1.07l7.93-11.15h-7.88v-1.16ZM251.82,80.36c-1.29,0-2.51-1.46-2.51-3.19,0-1.54,1.98-2.23,4.38-2.56.44-.06,2.73-.25,3.31-.25v3.69c-.96.83-3.94,2.31-5.18,2.31M249.32,71.47c.66-1.93,1.65-2.62,4.21-2.62s3.47.85,3.47,3.39v1.02c-.39,0-3.22.22-3.77.3-2.62.33-5.23,1.27-5.23,3.69s1.74,4.32,3.55,4.32,4.05-1.21,5.54-2.29h.05c.14.5.58,1.82.8,2.23l1.1-.27s-.72-2.7-.77-3.36v-5.78c0-3.11-1.18-4.46-4.74-4.46-3.22,0-4.63.94-5.48,3.52l1.27.3ZM243.97,65.3h-1.35v-2.18h1.35v2.18ZM243.95,67.91h-1.29v13.38h1.29v-13.38ZM238.69,72.1c-.63-2.97-2.26-4.46-5.45-4.46-3.47,0-5.92,2.07-5.92,6.8s1.82,7.13,5.95,7.13c3.25,0,4.82-1.52,5.43-4.3l-1.24-.16c-.55,2.2-1.68,3.28-4.16,3.28-3.25,0-4.65-2.2-4.65-5.95,0-3.94,1.68-5.65,4.65-5.65,2.53,0,3.61,1.29,4.16,3.61l1.24-.3ZM218.53,80.34c-3.08,0-4.46-2.2-4.46-5.67s1.13-5.81,4.46-5.81,4.43,2.34,4.43,5.81-1.13,5.67-4.43,5.67M218.53,81.57c3.94,0,5.76-2.45,5.76-6.91s-1.82-7.02-5.76-7.02-5.78,2.56-5.78,7.02,1.82,6.91,5.78,6.91M209.83,71.66c-.69-3-2.53-4.02-5.51-4.02-3.63,0-5.56,1.68-5.56,3.86s1.68,2.92,5.29,3.55c3.03.52,4.43.96,4.43,2.53,0,1.79-1.4,2.81-4.38,2.81-2.62,0-3.94-.74-4.63-3.28l-1.24.16c.66,3.08,2.48,4.3,5.89,4.3,3.64,0,5.64-1.54,5.64-4.1,0-2.34-1.9-3.11-5.48-3.69-3.03-.49-4.24-.88-4.24-2.37,0-1.57,1.43-2.62,4.3-2.62,2.37,0,3.72.8,4.27,3.17l1.21-.3ZM195.37,71.66c-.69-3-2.53-4.02-5.51-4.02-3.64,0-5.56,1.68-5.56,3.86s1.68,2.92,5.29,3.55c3.03.52,4.43.96,4.43,2.53,0,1.79-1.4,2.81-4.38,2.81-2.62,0-3.94-.74-4.63-3.28l-1.24.16c.66,3.08,2.48,4.3,5.89,4.3,3.64,0,5.65-1.54,5.65-4.1,0-2.34-1.9-3.11-5.48-3.69-3.03-.49-4.24-.88-4.24-2.37,0-1.57,1.43-2.62,4.3-2.62,2.37,0,3.72.8,4.27,3.17l1.21-.3ZM173.34,80.36c-1.29,0-2.51-1.46-2.51-3.19,0-1.54,1.98-2.23,4.38-2.56.44-.06,2.73-.25,3.3-.25v3.69c-.96.83-3.94,2.31-5.18,2.31M170.83,71.47c.66-1.93,1.65-2.62,4.21-2.62s3.47.85,3.47,3.39v1.02c-.39,0-3.22.22-3.77.3-2.62.33-5.23,1.27-5.23,3.69s1.74,4.32,3.55,4.32,4.05-1.21,5.54-2.29h.05c.14.5.58,1.82.8,2.23l1.1-.27s-.72-2.7-.77-3.36v-5.78c0-3.11-1.18-4.46-4.74-4.46-3.22,0-4.63.94-5.48,3.52l1.27.3Z"/>
      <path class="cls-1" d="M247.45,24.87h3.97c3.43,0,5.4,1.14,5.4,4.54s-1.72,5.11-5.15,5.11h-4.21v-9.65ZM252.11,39.06c6.42,0,10.27-2.95,10.27-9.65s-4.13-9.08-10.59-9.08h-9.77v26.95h5.44v-8.22h4.66ZM227.58,37.96h-7.65l3.56-12.39h.29l3.8,12.39ZM236.21,47.28l-8.83-26.95h-7.28l-8.42,26.95h5.56l1.51-4.74h9.86l1.64,4.74h5.97ZM204.96,20.33h-5.44v26.95h5.44v-26.95ZM184.23,37.96h-7.65l3.56-12.39h.29l3.8,12.39ZM192.86,47.28l-8.83-26.95h-7.28l-8.43,26.95h5.56l1.51-4.74h9.86l1.64,4.74h5.97Z"/>
      <path class="cls-1" d="M50.48,67.4l-18.52,58.26c10.45,6.57,22.95,10.26,36.22,10.26s25.69-3.6,36.19-10.26l-18.73-58.26h-35.16Z"/>
      <path class="cls-1" d="M0,67.99v1.02c.14,9.19,2.14,18.05,5.59,26.11,4.77,11.14,12.35,20.76,21.74,27.77L67.93,0C30.49,0,0,30.54,0,67.99"/>
      <path class="cls-1" d="M136.13,67.99v1.02c-.15,9.19-2.14,18.05-5.59,26.11-4.77,11.14-12.35,20.76-21.74,27.77L68.19,0c37.44,0,67.93,30.54,67.93,67.99"/>
    </g>
  </g>
</svg>