<?xml version="1.0" encoding="UTF-8"?>
<svg id="Layer_2" data-name="Layer 2" xmlns="http://www.w3.org/2000/svg" viewBox="0 0 392.53 165.74">
  <defs>
    <style>
      .cls-1 {
        fill: #1d1d1d;
      }

      .cls-1, .cls-2 {
        stroke-width: 0px;
      }

      .cls-2 {
        fill: #b8b8b8;
      }
    </style>
  </defs>
  <g id="Livello_1" data-name="Livello 1">
    <g>
      <g>
        <path class="cls-2" d="M41.64,109.35c26.09,0,45.2-19.26,45.2-45.51-.16-26.1-19.1-45.21-45.2-45.21h-23.46v90.56l23.46.15ZM0,5.13C0,3.26,1.4,1.87,3.26,1.71h40.86c34.33,0,62.29,27.8,62.29,62.14s-27.65,62.29-61.98,62.29H3.26c-1.86-.16-3.26-1.56-3.26-3.42V5.13Z"/>
        <path class="cls-2" d="M177.86,109.35c26.09,0,45.21-19.26,45.21-45.51s-18.95-45.21-45.21-45.21h-23.45v90.56l23.45.15ZM136.39,5.13c0-1.87,1.4-3.26,3.26-3.42h40.86c34.33-.16,62.29,27.64,62.44,61.98.15,34.33-27.65,62.29-61.98,62.44h-41.47c-1.87,0-3.27-1.56-3.27-3.42l.16-117.58Z"/>
        <path class="cls-2" d="M328.85,0c18.02,0,30.91,6.06,43.02,16.46,1.4,1.09,1.72,3.27.47,4.67-.15.15-.15.31-.31.31l-7.77,7.92c-1.24,1.55-2.8,1.55-4.51,0-8.54-7.46-19.41-11.65-30.75-11.96-25.48,0-44.58,21.28-44.58,46.29s19.41,45.98,44.73,45.98c13.06,0,22.06-5.12,30.6-11.65,1.24-1.09,2.96-1.25,4.35-.16l8.23,7.92c1.25,1.39,1.25,3.57-.15,4.82-11.5,11.18-27.03,17.4-43.18,17.24-35.42.16-64.15-28.43-64.31-63.69-.16-35.26,28.43-64,63.84-64.15h.31Z"/>
        <path class="cls-2" d="M390.05,165.74h-127.69c-1.39,0-2.48-1.09-2.48-2.64v-11.96c0-1.39,1.09-2.48,2.48-2.64h127.69c1.4,0,2.48,1.09,2.48,2.64v11.96c0,1.55-1.08,2.64-2.48,2.64"/>
        <path class="cls-1" d="M15.54,79.38c-.16-1.09-.62-2.02-1.4-2.64-.77-.62-1.86-1.09-2.95-1.09-1.71-.15-3.42.78-4.19,2.17-.93,1.56-1.4,3.27-1.24,4.97,0,1.71.46,3.42,1.24,4.82.77,1.55,2.48,2.48,4.19,2.33,1.24,0,2.33-.47,3.26-1.25.78-.93,1.25-2.17,1.4-3.41h4.35c-.77,5.59-3.72,8.38-9.01,8.54-2.8.15-5.59-1.09-7.46-3.27-1.87-2.17-2.79-4.82-2.64-7.77-.15-2.79.77-5.59,2.64-7.92,1.87-2.17,4.66-3.26,7.46-3.11,2.17,0,4.19.62,5.9,1.87,1.71,1.4,2.8,3.42,2.96,5.59l-4.51.16Z"/>
        <path class="cls-1" d="M26.72,85.74c0,1.08.15,2.33.77,3.26.47,1.09,1.71,1.56,2.8,1.56,1.08.16,2.32-.47,2.79-1.56.47-1.08.77-2.17.77-3.26,0-1.24-.15-2.33-.77-3.42-.62-.93-1.71-1.56-2.79-1.56-1.09-.15-2.18.47-2.8,1.56-.62,1.08-.93,2.33-.77,3.42M22.68,85.74c-.16-2.17.62-4.19,2.17-5.75,1.4-1.4,3.42-2.17,5.44-2.17,2.02-.15,4.03.62,5.59,2.17,1.4,1.56,2.17,3.73,2.02,5.75.16,2.17-.62,4.19-2.02,5.75-1.4,1.55-3.42,2.33-5.59,2.17-2.02.16-4.04-.77-5.44-2.17-1.55-1.56-2.33-3.57-2.17-5.75"/>
        <path class="cls-1" d="M41.01,78.13h3.88v2.8c.31-.93,1.09-1.87,1.87-2.33.77-.47,1.87-.77,2.8-.77.31,0,.62,0,.93.15v3.88c-.47-.15-.93-.15-1.39-.15-1.24-.16-2.33.47-3.11,1.4-.62,1.08-.93,2.17-.93,3.42v6.83h-4.04v-15.22Z"/>
        <path class="cls-1" d="M55.92,88.39c0,.77.31,1.56.93,1.87.62.47,1.4.62,2.17.62.62,0,1.24-.16,1.71-.47.62-.31.93-.93.93-1.55s-.47-1.09-1.24-1.4c-1.09-.47-2.33-.62-3.42-.93-.31-.15-.62-.15-.77-.31-.31,0-.62-.16-.77-.32-.47-.15-1.09-.46-1.55-.77-.47-.32-.78-.78-1.09-1.25-.31-.47-.47-1.08-.47-1.55,0-.78.16-1.71.62-2.33.31-.62.77-1.08,1.39-1.55.62-.31,1.4-.62,2.02-.77.77-.16,1.55-.16,2.33-.16,1.55,0,2.95.31,4.35.93,1.24.77,2.17,2.32,2.17,3.88h-3.87c0-.62-.32-1.24-.78-1.71-.62-.31-1.24-.47-1.86-.31-.47,0-.93.15-1.4.31-.47.15-.77.62-.77,1.08,0,.32.15.62.46.93.32.32.62.47,1.09.62.47.15.93.31,1.55.31.47.16,1.09.31,1.72.47.62.16,1.24.31,1.71.47.47.16,1.08.47,1.55.77.47.31.77.77,1.08,1.24.32.62.32,1.24.32,1.72.15,1.71-.62,3.26-2.02,4.19-1.4.77-2.96,1.24-4.67,1.08-1.71,0-3.26-.31-4.66-1.24s-2.33-2.48-2.33-4.19l3.57.31Z"/>
        <path class="cls-1" d="M72.08,85.74c0,1.08.15,2.33.77,3.26.47,1.09,1.71,1.56,2.8,1.56,1.08.16,2.32-.47,2.79-1.56.47-1.08.77-2.17.77-3.26,0-1.24-.15-2.33-.77-3.42-.62-.93-1.71-1.56-2.79-1.56-1.09-.15-2.18.47-2.8,1.56-.47,1.08-.77,2.33-.77,3.42M68.04,85.74c-.16-2.17.62-4.19,2.17-5.75,1.4-1.4,3.42-2.17,5.44-2.17,2.02-.15,4.03.62,5.59,2.17,1.4,1.56,2.17,3.73,2.02,5.75.16,2.17-.62,4.19-2.02,5.75-1.4,1.55-3.42,2.33-5.59,2.17-2.02.16-4.04-.77-5.44-2.17-1.4-1.56-2.17-3.57-2.17-5.75"/>
        <path class="cls-1" d="M106.1,85.75c0-1.09-.31-2.33-.77-3.42-.62-.93-1.71-1.56-2.8-1.4-1.08,0-2.17.47-2.79,1.4-.62,1.08-.93,2.17-.78,3.42,0,1.08.32,2.32.93,3.26.62,1.09,1.56,1.71,2.8,1.56,1.24.15,2.33-.47,2.79-1.56.32-.93.62-2.17.62-3.26M106.1,91.34h0c-.47.77-1.24,1.4-2.02,1.87-.78.31-1.71.62-2.64.62-2.02.16-3.88-.93-5.12-2.48-1.09-1.71-1.72-3.57-1.72-5.59s.47-3.88,1.72-5.44c1.24-1.55,3.1-2.48,4.97-2.33.93,0,1.71.16,2.64.47.77.32,1.4.93,1.87,1.71v-7.61h4.19v20.97h-4.04l.16-2.17Z"/>
      </g>
      <path class="cls-1" d="M113.71,93.36h4.04v-15.22h-4.04v15.22ZM113.71,75.81h4.03v-3.42h-4.03v3.42Z"/>
      <g>
        <path class="cls-1" d="M133.28,86.37c-.16,1.08.47,2.33,1.4,2.95.93.62,2.02.93,3.11.93.47,0,.93,0,1.24-.16.47,0,.93-.15,1.24-.47.47-.15.77-.46.93-.77.31-.31.47-.77.31-1.24,0-.47-.15-1.09-.47-1.4-.47-.31-.93-.62-1.39-.77-1.4-.47-2.8-.93-4.2-1.24-.77-.16-1.4-.47-2.17-.77-.62-.31-1.4-.62-2.02-1.09-1.24-.93-2.02-2.48-1.87-4.04,0-1.86.77-3.72,2.48-4.82,1.56-1.08,3.27-1.55,5.12-1.55,2.02,0,4.04.47,5.75,1.55,1.71,1.25,2.64,3.11,2.49,5.28h-4.35c0-.93-.47-2.02-1.24-2.48-.78-.47-1.87-.62-2.8-.62-.77,0-1.4.16-2.02.47-.62.31-1.08,1.08-1.08,1.86,0,.31,0,.62.31.93.16.31.47.62.93.77,1.55.62,3.27,1.09,4.97,1.56.47.15.93.15,1.55.47.77.15,1.4.62,2.02.93.78.47,1.25,1.08,1.72,1.86.47.93.77,1.87.77,2.95,0,1.87-.77,3.57-2.17,4.82-1.87,1.39-4.04,2.02-6.37,1.86-2.17,0-4.19-.62-6.06-1.86-1.71-1.25-2.79-3.42-2.64-5.6l4.51-.31Z"/>
        <path class="cls-1" d="M154.1,78.13h2.95v2.8h-2.95v7.45c0,.47,0,.93.31,1.4.32.32.93.47,1.4.32.47,0,.77,0,1.24-.16v3.26c-.77.16-1.55.16-2.32.16-.62,0-1.09,0-1.71-.16-.47,0-1.09-.31-1.56-.47-.47-.31-.77-.62-.93-1.08-.31-.62-.47-1.24-.47-1.87v-9.01h-2.48v-2.8h2.48v-4.5h4.04v4.66Z"/>
        <path class="cls-1" d="M173.36,93.36h-3.88v-2.17h-.16c-.47.77-1.08,1.4-2.02,1.87-.77.47-1.71.62-2.48.62-1.56.16-3.27-.46-4.36-1.71-.77-1.4-1.24-2.95-1.08-4.51v-9.31h4.04v8.54c0,2.49.77,3.73,2.64,3.73,2.17,0,3.11-1.4,3.11-4.35v-7.92h4.03l.16,15.22Z"/>
        <path class="cls-1" d="M187.8,85.75c0-1.09-.31-2.33-.77-3.42-.62-.93-1.71-1.56-2.79-1.4-1.09,0-2.18.47-2.8,1.4-.62,1.08-.93,2.17-.77,3.42,0,1.08.31,2.32.93,3.26.62,1.09,1.56,1.71,2.8,1.56,1.24.15,2.33-.47,2.8-1.56.47-.93.62-2.17.62-3.26M187.96,91.34h0c-.47.77-1.24,1.4-2.02,1.87-.77.31-1.7.62-2.63.62-2.02.16-3.88-.93-5.13-2.48-1.08-1.71-1.71-3.57-1.71-5.59s.47-3.88,1.71-5.44c1.25-1.55,3.11-2.48,4.97-2.33.93,0,1.71.16,2.64.47.77.32,1.4.93,1.87,1.71v-7.61h4.19v20.97h-3.88v-2.17Z"/>
      </g>
      <path class="cls-1" d="M195.42,93.36h4.03v-15.22h-4.03v15.22ZM195.41,75.81h4.04v-3.42h-4.04v3.42Z"/>
      <rect class="cls-1" y="95.54" width="202.09" height="1.39"/>
      <path class="cls-1" d="M1.71,127.53h4.04v-15.22H1.71v15.22ZM1.72,109.98h4.03v-3.42H1.72v3.42Z"/>
      <g>
        <path class="cls-1" d="M9.32,112.31h3.88v2.17h.16c.47-.77,1.24-1.4,2.02-1.87.78-.31,1.56-.62,2.49-.62,1.55-.16,3.26.46,4.35,1.71.77,1.4,1.08,2.95,1.08,4.5v9.32h-4.04v-8.54c0-2.49-.77-3.73-2.64-3.73-2.17,0-3.11,1.4-3.11,4.35v7.92h-4.19v-15.22Z"/>
        <path class="cls-1" d="M40.39,123.65h3.88c.62,0,1.24-.16,1.86-.31.62-.16,1.09-.62,1.56-1.09.47-.62.93-1.24,1.08-2.02.32-.93.47-1.87.47-2.95.16-1.72-.31-3.57-1.24-4.97-1.08-1.4-2.79-2.02-4.5-1.87h-3.11v13.21ZM35.89,106.56h8.86c2.48-.15,4.82.78,6.67,2.48,1.87,2.17,2.8,4.97,2.65,7.77.15,2.65-.62,5.44-2.33,7.61-1.71,2.02-4.35,3.27-6.99,3.11h-8.86v-20.97Z"/>
        <path class="cls-1" d="M67.11,118.36c0-.93-.47-1.71-.93-2.32-.62-.62-1.39-.78-2.17-.78-.47,0-1.08.16-1.55.31-.47.16-.77.47-1.09.78-.47.62-.77,1.24-.77,2.02h6.52ZM60.58,121.01c.16,2.64,1.4,3.88,3.57,3.88.77,0,1.55-.16,2.17-.62.47-.32.93-.78,1.09-1.4h3.57c-.77,3.11-3.72,5.28-6.83,5.12-2.02.16-4.04-.77-5.44-2.17-2.79-3.26-2.79-8.07,0-11.5,1.4-1.55,3.42-2.32,5.44-2.32,2.17-.16,4.35.93,5.59,2.64.31.47.62.77.77,1.24.16.47.32.93.47,1.55.32,1.09.32,2.33.32,3.42l-10.72.16Z"/>
        <path class="cls-1" d="M77.2,122.71c0,.77.31,1.56.93,1.87.62.47,1.4.62,2.17.62.62,0,1.24-.15,1.71-.47.62-.31.93-.93.93-1.55s-.47-1.09-1.24-1.4c-1.09-.47-2.33-.62-3.42-.93-.31-.15-.62-.15-.77-.31-.31,0-.62-.16-.77-.31-.47-.16-1.09-.47-1.55-.77-.47-.32-.78-.78-1.09-1.25s-.47-1.08-.47-1.55c0-.78.16-1.71.62-2.33.31-.62.77-1.08,1.39-1.55.62-.31,1.4-.62,2.02-.77.77-.16,1.55-.16,2.33-.16,1.55,0,2.95.31,4.35.93,1.24.77,2.17,2.32,2.17,3.88h-3.87c0-.62-.32-1.24-.78-1.71-.62-.31-1.24-.47-1.86-.31-.47,0-.93.15-1.4.31-.47.15-.77.62-.77,1.08,0,.32.15.62.46.93.32.32.62.47,1.09.62.47.15.93.31,1.55.31.47.16,1.09.31,1.72.47.62.16,1.24.31,1.71.47.47.16,1.08.47,1.55.77.47.31.77.77,1.08,1.24v1.87c.16,1.71-.62,3.26-2.02,4.19-1.39.78-2.95,1.25-4.66,1.09-1.71,0-3.27-.31-4.67-1.24-1.39-.93-2.32-2.48-2.32-4.19l3.88.15Z"/>
      </g>
      <path class="cls-1" d="M90.1,127.53h4.04v-15.22h-4.04v15.22ZM90.1,109.98h4.04v-3.42h-4.04v3.42Z"/>
      <g>
        <path class="cls-1" d="M104.55,123.96c1.08,0,2.02-.47,2.64-1.24.62-.77.93-1.87.93-2.8,0-1.08-.16-2.32-.78-3.26-.62-.93-1.71-1.4-2.79-1.4-.93,0-1.87.47-2.48,1.24-.62.93-.78,2.02-.78,2.95,0,1.09.16,2.18.78,3.12.46.93,1.39,1.54,2.48,1.39M111.84,126.6c0,.62,0,1.4-.16,2.02-.15.77-.62,1.55-1.08,2.17-.62.77-1.4,1.39-2.33,1.71-1.24.46-2.64.77-4.04.77-1.55,0-2.95-.32-4.19-1.09-.62-.47-1.09-.93-1.56-1.55-.47-.62-.62-1.4-.77-2.17h4.04c.16.62.62,1.24,1.09,1.55.62.31,1.24.47,1.86.47.93,0,1.87-.31,2.49-1.08.47-.77.77-1.71.77-2.64v-2.02c-.47.78-1.09,1.4-1.87,1.71-.77.32-1.71.62-2.64.62-1.86.16-3.72-.77-4.82-2.17-1.08-1.55-1.55-3.42-1.55-5.28s.47-3.72,1.71-5.28c1.08-1.4,2.8-2.32,4.66-2.17,1.87-.15,3.57.77,4.35,2.33v-2.02h4.04v14.14Z"/>
        <path class="cls-1" d="M115.73,112.31h3.88v2.17c.47-.77,1.24-1.4,2.02-1.87.78-.31,1.56-.62,2.49-.62,1.55-.16,3.26.46,4.35,1.71.77,1.4,1.08,2.95,1.08,4.5v9.32h-4.04v-8.54c0-2.49-.77-3.73-2.63-3.73-2.17,0-3.11,1.4-3.11,4.35v7.92h-4.04v-15.22Z"/>
      </g>
      <rect class="cls-1" y="129.86" width="131.88" height="1.4"/>
      <g>
        <path class="cls-1" d="M12.27,154.09c0-1.08-.31-2.33-.77-3.42-.62-.93-1.71-1.56-2.79-1.4-1.09,0-2.18.47-2.8,1.4-.62,1.08-.93,2.17-.77,3.42,0,1.09.31,2.33.93,3.27.62,1.08,1.56,1.71,2.8,1.55,1.24.16,2.33-.47,2.8-1.55.47-.93.77-2.02.62-3.27M12.43,159.84h0c-.47.77-1.24,1.4-2.02,1.87-.78.31-1.71.62-2.64.62-2.02.16-3.88-.93-5.12-2.48-1.09-1.71-1.72-3.57-1.72-5.59s.47-3.88,1.72-5.44c1.24-1.55,3.1-2.48,4.97-2.33.93,0,1.71.16,2.64.47.77.32,1.4.93,1.87,1.72v-7.61h4.19v20.97h-3.88v-2.17Z"/>
        <path class="cls-1" d="M29.83,152.54c0-.93-.47-1.71-.93-2.32-.62-.62-1.4-.78-2.17-.78-.47,0-1.08.16-1.55.31-.47.16-.78.47-1.09.78-.47.62-.77,1.24-.77,2.02h6.52ZM23.15,155.18c.16,2.64,1.4,3.88,3.57,3.88.77,0,1.55-.16,2.17-.62.47-.31.93-.77,1.08-1.39h3.57c-.77,3.11-3.72,5.28-6.83,5.12-2.02.16-4.04-.77-5.44-2.17-2.79-3.27-2.79-8.07,0-11.5,1.4-1.55,3.42-2.32,5.44-2.32,2.17-.16,4.35.93,5.59,2.63.31.47.62.78.77,1.25.16.47.32.93.47,1.55.32,1.08.32,2.33.32,3.42l-10.72.16Z"/>
      </g>
      <rect class="cls-1" x="36.82" y="140.89" width="4.04" height="20.97"/>
      <rect class="cls-1" x="44.58" y="140.89" width="4.04" height="20.97"/>
      <g>
        <path class="cls-1" d="M61.52,154.4c-.47.31-.93.47-1.4.62-.62.16-1.24.16-1.87.32-.62.15-1.08.31-1.71.62-.47.32-.77.93-.77,1.56s.31,1.24.77,1.55c.47.32,1.09.47,1.71.47s1.24-.15,1.87-.47c.47-.15.77-.62.93-.93.15-.32.31-.78.31-1.25v-.93l.16-1.55ZM52.2,151.3c0-1.71.93-3.11,2.33-4.04,1.39-.77,2.95-1.08,4.51-1.08.77,0,1.55,0,2.32.16.77.15,1.4.31,2.02.62.62.31,1.09.77,1.56,1.24.47.62.62,1.4.62,2.17v7.92c0,.62,0,1.24.15,1.87,0,.47.16.93.32,1.39h-4.04c-.16-.47-.32-.93-.32-1.39-.62.62-1.39,1.08-2.32,1.39-.93.32-1.71.47-2.64.47-1.25,0-2.48-.31-3.57-1.08s-1.56-2.17-1.4-3.42c0-.78.16-1.4.47-2.17.31-.47.62-.93,1.09-1.24.47-.32,1.08-.62,1.55-.77.62-.16,1.24-.32,1.87-.32.62-.15,1.24-.15,1.87-.31.47,0,1.08-.16,1.55-.16.93-.15,1.4-.62,1.4-1.4.15-.62-.16-1.24-.78-1.71-.62-.31-1.24-.31-1.86-.31-1.24-.16-2.49.77-2.64,2.02v.32l-4.04-.16Z"/>
        <path class="cls-1" d="M91.96,147.88c-.16-1.08-.62-2.02-1.4-2.64-.77-.62-1.86-1.08-2.95-1.08-1.71-.16-3.42.77-4.19,2.17-.93,1.55-1.4,3.26-1.24,4.97,0,1.71.47,3.42,1.24,4.82.93,1.4,2.48,2.33,4.19,2.17,1.24,0,2.33-.47,3.27-1.24.77-.93,1.24-2.17,1.39-3.42h4.35c-.77,5.59-3.72,8.39-9.01,8.54-2.8.16-5.59-1.08-7.46-3.26s-2.79-4.82-2.64-7.77c-.15-2.79.77-5.59,2.64-7.92,3.42-3.73,9.16-4.19,13.36-1.24,1.7,1.4,2.79,3.42,2.95,5.59l-4.51.31Z"/>
        <path class="cls-1" d="M102.99,154.25c0,1.08.15,2.33.77,3.26.47,1.09,1.71,1.56,2.8,1.56,1.08.16,2.32-.47,2.79-1.56.47-1.08.77-2.17.77-3.26,0-1.24-.15-2.33-.77-3.42-.62-.93-1.71-1.56-2.79-1.56-1.09-.15-2.17.47-2.8,1.56-.47,1.08-.77,2.17-.77,3.42M98.95,154.25c-.16-2.17.62-4.19,2.17-5.75,1.4-1.4,3.42-2.17,5.44-2.17,2.02-.16,4.03.62,5.59,2.17,1.39,1.56,2.17,3.73,2.02,5.75.16,2.17-.62,4.19-2.02,5.75-1.4,1.55-3.42,2.32-5.59,2.17-2.02.15-4.04-.77-5.44-2.17-1.4-1.56-2.17-3.57-2.17-5.75"/>
        <path class="cls-1" d="M117.28,146.64h3.88v2.02c1.09-1.55,2.8-2.48,4.67-2.32.93,0,1.86.15,2.63.46.78.47,1.4,1.09,1.72,2.02.47-.77,1.08-1.4,1.86-1.87.77-.47,1.71-.77,2.8-.77,1.4,0,2.79.31,4.03,1.24,1.09,1.09,1.72,2.64,1.56,4.2v10.09h-4.04v-9.94c0-.47-.15-.77-.31-1.24-.16-.31-.47-.62-.77-.77-.47-.16-.93-.31-1.4-.31s-.93.15-1.4.31c-.31.15-.62.47-.93.93-.15.31-.31.77-.46,1.24-.16.47-.16.93-.16,1.4v8.38h-4.04v-9.78c0-.47-.16-.78-.31-1.24-.16-.32-.47-.62-.77-.93-.47-.31-1.09-.31-1.56-.31-.31,0-.47,0-.77.15-.31.16-.62.31-.93.47-.31.31-.62.62-.77,1.08-.32.62-.32,1.25-.32,1.87v8.7h-4.03l-.16-15.06Z"/>
        <path class="cls-1" d="M157.82,161.86h-3.88v-2.17h-.16c-.47.77-1.08,1.4-2.02,1.87-.78.46-1.71.62-2.49.62-1.55.16-3.26-.47-4.35-1.71-.77-1.4-1.24-2.95-1.08-4.51v-9.31h4.04v8.54c0,2.49.77,3.73,2.64,3.73,2.17,0,3.11-1.4,3.11-4.35v-7.92h4.03l.16,15.22Z"/>
        <path class="cls-1" d="M161.55,146.64h3.88v2.17h.16c.47-.77,1.24-1.4,2.02-1.87.78-.31,1.56-.62,2.48-.62,1.56-.16,3.27.46,4.36,1.71.77,1.4,1.08,2.95,1.08,4.51v9.31h-4.04v-8.54c0-2.49-.77-3.73-2.64-3.73-2.17,0-3.11,1.4-3.11,4.35v7.92h-4.19v-15.22Z"/>
      </g>
      <path class="cls-1" d="M179.26,161.86h4.03v-15.22h-4.03v15.22ZM179.25,144.3h4.04v-3.42h-4.04v3.42Z"/>
      <g>
        <path class="cls-1" d="M196.81,151.92c-.16-1.56-1.4-2.64-2.95-2.64-1.09,0-2.17.62-2.64,1.55-.47,1.09-.77,2.17-.77,3.27s.31,2.17.77,3.11c.31.47.62.77,1.08,1.08.47.32.93.47,1.56.47,1.71,0,3.11-1.24,3.26-2.95v-.16h3.88c-.62,4.04-3.1,6.22-7.14,6.22-2.02.16-4.04-.77-5.28-2.17-1.4-1.55-2.17-3.57-2.02-5.59-.16-2.17.62-4.19,2.02-5.91,1.4-1.55,3.42-2.48,5.59-2.32,1.71,0,3.27.47,4.67,1.4,1.39,1.08,2.17,2.64,2.17,4.35l-4.19.31Z"/>
        <path class="cls-1" d="M212.81,154.4c-.46.31-.93.47-1.39.62-.62.16-1.24.16-1.87.32-.62.15-1.09.31-1.71.62-.47.32-.77.93-.77,1.56s.31,1.24.77,1.55c.47.32,1.08.47,1.71.47s1.24-.15,1.87-.47c.47-.15.77-.62.93-.93.15-.32.31-.78.31-1.25v-.93l.15-1.55ZM203.49,151.3c0-1.71.93-3.11,2.33-4.04,1.39-.77,2.95-1.08,4.5-1.08.78,0,1.56,0,2.33.16.77.15,1.4.31,2.02.62.62.31,1.09.77,1.56,1.24.47.62.62,1.4.62,2.17v7.92c0,.62,0,1.24.16,1.87,0,.47.16.93.31,1.39h-4.04c-.15-.47-.31-.93-.31-1.39-.62.62-1.39,1.08-2.32,1.39-.93.32-1.72.47-2.65.47-1.24,0-2.48-.31-3.57-1.08-1.09-.77-1.56-2.17-1.4-3.42,0-.78.16-1.4.47-2.17.31-.47.62-.93,1.08-1.24.47-.32,1.09-.62,1.56-.77.62-.16,1.24-.32,1.86-.32.62-.15,1.25-.15,1.87-.31.47,0,1.09-.16,1.56-.16.93-.15,1.39-.62,1.39-1.4.16-.62-.15-1.24-.77-1.71-.62-.31-1.24-.31-1.86-.31-1.25-.16-2.49.77-2.65,2.02v.32l-4.03-.16Z"/>
      </g>
      <polygon class="cls-1" points="219.8 158.6 227.42 149.74 220.27 149.74 220.27 146.63 232.7 146.63 232.7 149.74 224.78 158.6 233.17 158.6 233.17 161.7 219.64 161.7 219.8 158.6"/>
      <path class="cls-1" d="M235.96,161.86h4.04v-15.22h-4.04v15.22ZM235.96,144.3h4.04v-3.42h-4.04v3.42Z"/>
      <g>
        <path class="cls-1" d="M247.14,154.25c0,1.08.15,2.33.77,3.26.47,1.09,1.71,1.56,2.8,1.56,1.08.16,2.32-.47,2.79-1.56.47-1.08.77-2.17.77-3.26,0-1.24-.15-2.33-.77-3.42-.62-.93-1.71-1.56-2.79-1.56-1.09-.15-2.18.47-2.8,1.56-.47,1.08-.77,2.17-.77,3.42M243.1,154.25c-.16-2.17.62-4.19,2.17-5.75,1.4-1.4,3.42-2.17,5.44-2.17,2.02-.16,4.03.62,5.59,2.17,1.4,1.56,2.17,3.73,2.02,5.75.16,2.17-.62,4.19-2.02,5.75-1.4,1.55-3.42,2.32-5.59,2.17-2.02.15-4.04-.77-5.44-2.17-1.4-1.56-2.17-3.57-2.17-5.75"/>
        <path class="cls-1" d="M261.59,146.64h3.88v2.17h.16c.47-.77,1.24-1.4,2.02-1.87.78-.31,1.56-.62,2.48-.62,1.56-.16,3.27.46,4.36,1.71.77,1.4,1.08,2.95,1.08,4.51v9.31h-4.04v-8.54c0-2.49-.77-3.73-2.64-3.73-2.17,0-3.11,1.4-3.11,4.35v7.92h-4.03l-.16-15.22Z"/>
        <path class="cls-1" d="M288.92,152.54c0-.93-.47-1.71-.93-2.32-.62-.62-1.39-.78-2.17-.78-.47,0-1.08.16-1.55.31-.47.16-.77.47-1.09.78-.47.62-.77,1.24-.77,2.02h6.52ZM282.4,155.18c.16,2.64,1.4,3.88,3.57,3.88.77,0,1.56-.16,2.17-.62.47-.31.93-.77,1.09-1.39h3.57c-.77,3.11-3.72,5.28-6.83,5.12-2.02.16-4.04-.77-5.44-2.17-2.79-3.27-2.79-8.07,0-11.5,1.4-1.55,3.42-2.32,5.44-2.32,2.17-.16,4.35.93,5.59,2.63.31.47.62.78.77,1.25.16.47.32.93.47,1.55.32,1.08.32,2.33.32,3.42l-10.72.16Z"/>
      </g>
      <rect class="cls-1" y="164.03" width="294.67" height="1.4"/>
    </g>
  </g>
</svg>