<?xml version="1.0" encoding="UTF-8"?>
<svg id="Layer_2" data-name="Layer 2" xmlns="http://www.w3.org/2000/svg" viewBox="0 0 283.47 121.03">
  <defs>
    <style>
      .cls-1 {
        stroke-width: .39px;
      }

      .cls-1, .cls-2 {
        stroke-linecap: round;
        stroke-linejoin: round;
      }

      .cls-1, .cls-2, .cls-3 {
        fill: none;
        stroke: #E4221F;
      }

      .cls-2 {
        stroke-width: .35px;
      }

      .cls-4 {
        fill: #E4221F;
        stroke-width: 0px;
      }

      .cls-3 {
        stroke-miterlimit: 10;
        stroke-width: .69px;
      }
    </style>
  </defs>
  <g id="Livello_1" data-name="Livello 1">
    <g>
      <path class="cls-3" d="M83.19,44.49l-3.68-.24M83.02,46.43l-3.66-.43M82.75,48.33l-3.64-.57M82.4,50.25l-3.61-.75M81.95,52.15l-3.57-.93M81.42,54.02l-3.52-1.11M80.81,55.84l-3.47-1.24M80.1,57.66l-3.41-1.41M79.31,59.44l-3.33-1.58M78.44,61.17l-3.25-1.74M77.48,62.87l-3.16-1.9M76.45,64.52l-3.07-2.04M75.36,66.1l-2.99-2.15M74.18,67.64l-2.89-2.3M72.93,69.13l-2.77-2.43M71.61,70.56l-2.65-2.56M70.23,71.93l-2.53-2.68M68.78,73.23l-2.4-2.8M67.28,74.46l-2.26-2.91M65.72,75.62l-2.12-3.02M64.13,76.69l-2.01-3.09M62.47,77.71l-1.86-3.19M60.76,78.64l-1.7-3.27M59.02,79.49l-1.54-3.35M57.23,80.26l-1.38-3.42M55.41,80.95l-1.21-3.48M53.56,81.55l-1.04-3.54M51.71,82.06l-.91-3.58M49.8,82.48l-.73-3.62M47.89,82.82l-.55-3.65M45.95,83.06l-.36-3.67M44.04,83.21l-.22-3.68M42.09,83.28l-.04-3.69M40.14,83.25l.15-3.69M38.22,83.14l.29-3.68M36.28,82.93l.48-3.66M34.35,82.64l.66-3.63M32.47,82.26l.8-3.6M30.58,81.79l.98-3.56M28.71,81.23l1.15-3.5M26.87,80.58l1.33-3.44M25.09,79.86l1.45-3.39M23.33,79.04l1.62-3.31M21.6,78.15l1.78-3.23M19.92,77.17l1.93-3.14M18.28,76.12l2.08-3.05M16.7,74.99l2.23-2.94M15.19,73.8l2.33-2.86M13.72,72.53l2.46-2.74M12.31,71.19l2.59-2.62M10.96,69.79l2.71-2.5M9.68,68.33l2.83-2.36M8.47,66.81l2.94-2.23M7.33,65.24l3.04-2.08M6.27,63.61l3.14-1.94M5.29,61.96l3.21-1.82M4.38,60.24l3.29-1.66M3.55,58.48l3.37-1.5M2.8,56.68l3.44-1.34M2.14,54.85l3.5-1.17M1.57,52.99l3.55-.99M1.08,51.11l3.6-.81M.69,49.22l3.62-.68M.38,47.3l3.65-.5M.16,45.37l3.67-.31M.04,43.45l3.68-.18M0,41.5h3.69M.05,39.55l3.68.2M.19,37.63l3.67.34M.43,35.69l3.65.52M.75,33.77l3.62.71M1.15,31.89l3.59.84M1.65,30.01l3.54,1.02M2.24,28.15l3.49,1.2M2.91,26.32l3.43,1.37M3.67,24.53l3.35,1.53M4.5,22.8l3.29,1.66M5.42,21.08l3.21,1.82M6.42,19.42l3.12,1.97M7.5,17.8l3.02,2.12M8.65,16.23l2.91,2.26M9.87,14.72l2.8,2.4M11.16,13.27l2.68,2.53M12.5,11.89l2.59,2.62M13.92,10.57l2.46,2.74M15.4,9.31l2.33,2.86M16.94,8.12l2.19,2.97M18.53,7l2.05,3.07M20.17,5.96l1.9,3.16M21.86,4.99l1.74,3.25M23.59,4.11l1.58,3.33M25.34,3.31l1.46,3.39M27.15,2.59l1.29,3.45M28.99,1.96l1.12,3.51M30.86,1.41l.95,3.56M32.75.95l.77,3.61M34.64.58l.63,3.63M36.56.3l.45,3.66M38.5.11l.27,3.68M40.45.01l.08,3.69M42.37,0l-.06,3.69M44.32.09l-.24,3.68M46.26.25l-.43,3.66M48.17.51l-.56,3.64M50.08.86l-.74,3.61M51.98,1.29l-.92,3.57M53.83,1.81l-1.05,3.53M55.68,2.42l-1.23,3.48M57.5,3.12l-1.4,3.41M59.28,3.9l-1.56,3.34M61.02,4.77l-1.72,3.26M62.72,5.71l-1.88,3.17M64.37,6.74l-2.02,3.08M65.97,7.83l-2.17,2.98M67.52,9.01l-2.31,2.88M69,10.24l-2.41,2.79M70.43,11.55l-2.54,2.67M71.8,12.92l-2.66,2.55M73.11,14.36l-2.78,2.42M74.35,15.86l-2.89,2.29M75.52,17.41l-3,2.15M76.61,19.01l-3.09,2.01M77.63,20.67l-3.19,1.86M78.57,22.37l-3.27,1.7M79.43,24.11l-3.35,1.54M80.21,25.89l-3.42,1.38M80.9,27.71l-3.48,1.22M81.5,29.53l-3.52,1.09M82.03,31.41l-3.57.92M82.46,33.3l-3.61.74M82.8,35.22l-3.64.56M83.06,37.15l-3.67.38M83.22,39.07l-3.68.24M83.29,41.01l-3.69.06M83.27,42.96l-3.69-.13"/>
      <g>
        <path class="cls-1" d="M12.61,31.66s-1.81,1.25-1.78,4.26c.03,2.8.44,6.66-.72,8.74-.08.15-.18.3-.28.45,0,0-.89,1.05-.14,1.1.75.04,1.19-.01,1.56.4.15.18.33.35.5.44,0,0,.76.17,1.59.05M15.07,31.94s-1.23,1.27-1.23,3.29c0,2.01.57,5,.56,5.69,0,.43-.18,1.47-.4,2.5-.14.64-.48,2.05.13,3.58M10.38,28.58s0,0-.01,0c-.1.08-.82.77.3,2.47M20.69,28.3s-.09.06-.25.18c-.4.29-1.24.88-2.14,1.48-1.25.83-2.33-.32-2.96-.78-.64-.46-1.98,0-3.2.17-.71.1-1.32-.33-1.77-.76-.32-.3-.55-.6-.67-.71-.29-.26-.52-1.42-.2-1.7.32-.28,1.23-1.37,1.23-1.37,1.42-2.56,2.88-2.9,2.88-2.9M26.84,39.09c-.03.07-.18.47-.21.61-.04.15-.13.65-.14.86-.01.21,0,.49-.15.56,0,0-.38.28-.59.3-.21.01-.58.05-.78-.11-.2-.16-.42-.45-.63-.61-.04-.04-.09-.08-.13-.14-.17-.22-.32-.6-.24-1.12.1-.66.49-1.17.5-1.32,0-.15-.72-2.06-.72-2.06,0,0-1.11-1.51-1.3-1.88-.14-.28-.77-.97-1.2-2.58-.14-.55-.27-1.21-.33-1.99,0,0-.16-.46-.12-1.3,0-.18.03-.38.05-.6.16-1.23.11-2.82.13-3.12,0-.07.02-.22.04-.41.07-.6.24-1.64.51-2.35.36-.94,1.73-3.24,1.73-3.24M26.85,39.08s0,0,0,.01M20.38,28.4l-1.77-.59c-.29-.08-2-.78-2.36-.8-.36-.02-1.24-.37-1.64-.63-.41-.27-1.23-1.52-1.22-1.82.01-.25.14-1.61.31-2.62.04-.22.08-.44.13-.61.24-.95,1.04-1.26,1.6-1.59.56-.33,1.18-1.55,1.8-1.94.63-.38,2.27-.7,3.55-.99,1.28-.28,3.73-.02,3.73-.02,0,0,.07,0,.2,0,.36.01,1.17.08,1.98.49.22.11.44.24.65.4.45.35.78.77.99,1.21.38.79.41,1.66.17,2.42-.15.48-.39.92-.65,1.3-.38.55-.8.94-1.06,1.07-.43.21-.86.31-1.08.96-.22.65-.55,2.13-1.25,2.75,0,0-.11.03-.04.33.02.09.06.2.12.34.26.62,1.12,2.29,1.11,3.56-.02,1.26.21,2.48.51,3.46.3.98.89,2.16,1.13,2.18.24.01.71.16.88.36.17.19.81.47.99.54.11.04.36.16.41.29.03.09-.02.18-.26.26-.62.2-1.15.05-1.15.05,0,0-.32-.18-.43-.18-.1,0-.25.15-.34.2-.09.05-.45.15-.58.33h0s-.02.03-.03.05M20.88,24.15c-.98.36-2.01-.66-2.96-1.86-.95-1.2-.23-2.24,1.12-3.73,1.2-1.32,4.86-1.69,5.67-1.75M24.55,27.71l1.53-.77,1.2-.6s1.79-.62,2.77-1.06c.35-.16.6-.29.62-.36.07-.27.06-1.02.06-1.02M31.12,22.06s.14,1.08-.46,1.8c-.1.12-.21.23-.35.32l-1,.66M34.99,21.66s.45.51.58-.14c.13-.65.72-2.04.83-2.33.11-.29.22-.41.22-.41M28.06,22.68l2.91-.76.16.09,1.15.62s.76.41,1.03.36c.27-.04.28-.2.29-.31,0-.12.2-.32.29-.34.09-.02.29-.28.29-.28,0,0,.36-.01.49-.09.12-.08.3-.29.32-.31h0M26.74,17.2c-.17-.46.3-.88.51-1,.03-.02.34-.09.34-.09,0-.03,0-.05-.01-.08-.04-.65,1.96-.97,1.96-.97.06-1.28,3.11-.74,3.11-.74,1.44-.24,2.9.86,2.9.86,1.14-.22,1.74,1.15,1.74,1.15,1.08.32.61,1.88.58,2.02-.03.14-.02.4-.59.48-.18.03-.4-.03-.61-.13-.45-.2-.51-.11-1.17-.52l-.82-.61s.06.65-.21.91c-.28.26-.38.26-.56.25-.18-.01-.58.38-.83.53-.25.14-.66.58-1.28.6,0,0-1.18.25-1.51.07-.33-.18-1.08.16-1.18-.13-.07-.18-.27-.46-.62-.68M33.8,21.64l.39.42M26.16,26.96s-.21.79.02,1.17c0,0,.61,1.71,2.46,1.85.18.01,1.87.08,1.87.08M30.34,25.36s1.19.84,1.3,1.26M24.19,40.58l-1.9.81s-1.95.49-2.44.54c-.48.05-2.35.46-2.3,1.55.06,1.08-.13,1.47.26,1.77.38.31.73.49.73.49M19.99,44.98s-.75.36-1.42.8c-.34.22-.65.45-.83.67-.49.57-.89,1.2-1.01,1.75-.02.08-.03.16-.03.23-.04.6.49,1.11.73,1.29M16.63,48.2s-1.31-.88-1.51-.89c-.1,0-.44-.06-.83-.11-.41-.06-.86-.11-1.09-.08-.45.05-1.86.85-1.95,1.69-.09.84-.75,3.09,1.34,3.05,0,0,.8-.44,1.17-.78.05-.05.1-.09.13-.14.26-.35,1.8-1.22,2.08-1.2.17.01.85,0,1.44.05.41.04.76.11.87.25.26.34.44,1.47.59,1.6.15.13,1.38,1.12,1.38,1.12M27.6,57.29h0s.91,1.22.91,1.22l.48.81s.24.27.39.2c.15-.06.34-.14.21-.47-.13-.32-.41-.97-.41-.97,0,0-.4-.79-.78-1.09l.84.32,1.14.73s.18-.02.25-.11c.06-.09-.02-.24-.1-.34-.08-.09-.94-1.15-.94-1.15,0,0-.37-.28-.57-.36,0,0-.18-.15-.22-.26-.04-.1-.51-.54-.59-.62-.08-.08-.83-.55-1.08-.6-.25-.06-.92-.14-.87-.53.06-.39.86-2.29.86-2.29l.58-1.19s.1-.19.24-.46c.27-.56.7-1.48.72-1.86,0,0,1.42-.19,1.46-.87.04-.68.54-1.69-3.54-3.19,0,0-1.21.81-1.81,2.06-.3.63-.61,1.37-.83,2.23-.22.85-.35,1.8-.32,2.88.03.85.05,1.76.12,2.59M27.01,58.17h0s.92,1.92.92,1.92c0,0,.28.14.36.06.08-.07.19-.15.14-.29-.05-.14-.21-.71-.21-.71l-.24-.81-.2-.49-.18-.56M23.74,53.97c.11,1.31.32,2.43.84,2.85,0,0,.62.52.69.58.07.07.62.41.67.54.05.12.21.54.13.62-.08.09-.41.26-.44.32-.03.06-.14.38.08.5,0,0,.1.08.21-.07.11-.14.28-.2.39-.22.11-.02.66-.26.68-.5.01-.23.03-.42.03-.43M19.58,44.48s.17.18.44.48c.88.93,2.85,2.96,3.77,3.51M14.01,51.09s.13,1.21.58,1.76c.04.05.09.1.15.16.59.59,2.06,1.53,3.83,1.64,1.95.12,4.02.4,5.17-.68h0s0,0,0,0M14.69,53.05s-.52,2.2.93,3.55c.03.03.06.06.1.09,1.57,1.34,2.92,2.86,4.75,3.74,1.83.88,5.87,2.48,6.3,2.63.09.03.26.09.47.18.81.32,2.25.96,2.49,1.2M15.56,56.68s-.34.3-.36.7c-.02.4-.03,1.16-.35,1.87-.32.7-.98,2.31-.92,2.67.06.37.93,1.87.94,1.94.01.08.25.32.29.34.05.02.42.07.49.06.07,0,.34.04.44.01.09-.02.34-.09.34-.21,0-.12-.01-.29.08-.32.09-.04.55-.59.39-.64-.16-.05-.44-.15-.59-.2-.15-.06-.35-.05-.42-.24-.08-.19-.16-.3-.09-.49.07-.2.29-.37.44-.47.14-.1,1.84-1.29,2.11-1.25.27.05.92.19,1.19.45.27.26,2.59,2.2,3.09,2.43.5.22,2.51,1.45,3.52,1.55,1,.11,2.77.48,3.52.69.75.21,2.39.52,3.1-.3.71-.81,1.03-.87,1.07-1.38.04-.51.3-1.97-.12-2.69-.42-.72-.83-1.22-.83-1.22M29.61,38.42s2.16.56,3.09,1.21c.02.01.03.02.04.03.11.08.2.16.27.25M30.04,50.97s.85,1.73.93,2.34c.05.37.52,1.89.91,3.09.25.77.46,1.42.5,1.53.08.24.6.85.41,1.83-.01.06-.03.13-.05.2-.05.16-.11.33-.2.51-.68,1.41-.86,2.96-4.42,2.83l-.87-.08M33.24,49.05c2.04-.27,2.43-2.79,2.48-3.59,0-.11-.18-.79-.18-.79,0,0-.17-.77-.34-1.45-.1-.4-2.18-3.31-2.18-3.31M32.74,39.58s-.31-1.31.23-1.56c0,0,.03-.03.07-.07.1-.09.28-.25.39-.38.17-.19.56-.66.8-.67.24-.03.5-.25.67-.44.17-.19.7-.88,1.49-.75.8.13,2.56.19,2.79.37.23.17,1.31.92,1.47.93.06,0,.21,0,.39.03.31.05.7.2.85.64,0,0,.46.35.07.93,0,0,.86.49.99.9.14.41.25,1.22-.49,1.45,0,0-.89.11-1.05.1,0,0-.06-.36-.26-.42-.2-.05-.4-.06-.61.09-.21.15-.92.59-1.12.66-.21.06-.57.12-.62.24-.05.12-.19.39-.93.78,0,0-2.74.62-2.75.63M35.91,43.38s.27.57.57.92c.3.35,1.34.79,2,.59.28-.08.36-.3.52-.33.16-.03.38-.26.58-.28.2-.03.43-.5.43-.5,0,0,.67.16.7-.24.02-.4.04-1.4.04-1.4,0,0,.54-.33.67-1.08M39.18,44.21l-.27-.21M40,43.78s-.51-.15-.5-.31M28.17,50.17s.6.77,1.86.7c1.54-.24,2.68-1.12,3.15-1.86h0c.63-1.19,1.1-2.82-.75-5.15M42.24,30.07c-.04,1.02.45,1.24.53,1.38.08.14.19.34.19.34,0,0,.33.05.67-.08.34-.14.68-.48.68-.48.53-.4.11-.79.24-1.2.13-.41-.25-.8-.25-.8,0,0,.15,0,.16-.14,0-.15-.41-.48-.47-.51-.06-.03.05-.24-.06-.44-.11-.2-.21-.73-.21-.73,0-.07-.1-.46-.11-.51-.13-.5-.49-.62-.49-.62-.01-.29-.36-.51-.36-.51.08-.63-.54-.55-.61-.83-.07-.27-.63-.54-.63-.54-.23-.37-.9-.47-.9-.47-.22-.06-1.22.35-1.22.35,0,0-.38-.11-.84.08,0,0-.97-.22-1.45.77,0,0-.5.34-.72.77,0,0-.74,2.17-.84,2.93-.11.81-.05.64-.13.85-.13.37-1.68,1.73-.91,2.29.78.56,1,.65,1.14,1.01.14.37,2.37.65,2.85.43.48-.22.75-1.79.75-1.79.03-.36.05-.69-.07-1.17-.05-.19-.11-.38-.18-.54-.25-.57-.35-1.19-.33-1.51.02-.32-.18-.81-.39-1.08-.21-.27-.52-.57-.44-1.12.08-.56.53-1.34.78-1.43.25-.09.86-.5,2.04-.22,0,0,.46.4.54.47.09.06.44.29.69.5.24.21.33.5.34.57M42.79,26.89c0,.13.2,1.33.2,1.42,0,.08.35.98.11,1.18-.27.22-.67.4-.95.54-2.1,0-3.25-.44-3.25-.44M34.48,31.97s-3.27,1.87-2.62,7.12M40.98,33.27l.08,3.71M34.72,55.61s-.32-4.51-.19-5.15M38.82,19.69s0-1.16.33-1.45c.23-.2.67-.54,1.11-.63.17-.03.34-.03.5.04.59.24,2.25,1,2.67,1.97.26.6.19.99.02,1.24-.1.15-.24.24-.35.3-.31.16-1,.29-1,.29M46.33,13.42s0,0,.01,0M40.24,17.43s-.62-1.1.4-2.3c1.02-1.2,1.35-1.36,1.77-1.42.42-.06,1.17-.15,1.17-.15,0,0,1.4-1.01,2.75-.14M43.67,27.09s.71-1.63.77-1.73c0,0,1.24-1.85,0-4.96-.2-.48-.93.42-.97.46h0M51.05,23.06s-.21.94-.34.89c-.14-.05-.53-.7-.53-.7l.42-1.45.18-1.79v-.08s1.41-2.28,1.41-2.28c.03-.16-.14-.99-.31-1.14-.17-.15-.66-.7-.69-.9-.03-.2-.19-.87-.19-.87,0,0-1.03.84-1.26.97-.23.13-.98-.02-1.18-.03-.2-.01-.67.12-.78.35-.11.23-.52.95-.63,1.11-.11.15-.23.91-.24,1.27,0,.18-.09.34-.18.48-.09.13-.19.25-.23.38-.1.25.03.5.08.91.06.4-.03,1.08-.08,1.28-.05.2-.39.2-.47.19-.08,0-.52.25-.52.25,0,0,.09-.56.13-.7.03-.14-.35-.94-.43-1.21s-.35-2.23-.35-2.65c0-.42.46-1.63.49-1.85.03-.22.35-1.14.57-1.53.08-.13.23-.32.4-.52.33-.38.75-.8.89-.91.21-.17,1.55-.49,1.55-.49,0,0,1.6-.17,2.47.73,0,0,.98.04,1.26.66.28.63.83,1.64.77,1.93-.06.3-.24.61-.21.77.03.17-.07,1.1-.16,1.36-.01.03-.02.06-.04.1-.08.21-.13.39-.1.58.03.22.24.96.11,1.11-.13.15-.36.3-.37.44,0,.14-.01.8-.22.97-.21.17-.31.42-.31.54,0,.12.18.98-.1,1.34-.1.13-.19.22-.27.29h0c-.08,0-.21-.02-.33.08l-.22.16ZM46.81,18.89s.48,1.69,1.37,1.93c0,0,1.38.04,2.52-.81M57.96,23.23s0-.18,0-.18M53.01,17.62s2.65.94,4.33,3.73c0,0,.62,1.08.62,1.63,0,.18,0,.25,0,.26h0M59.24,24.64s-.34-.64-1.32-1.34c-.48-.34-1.04-.68-1.66-.93M51.61,22.84s-.45,1.82,2.05,3.6M47.18,31.78l-2.57-1.23M46.14,57.04c.33-.44.69-1.18.46-2.15-.38-1.63-.32-1.98-.17-2.46.1-.3,2.13-2.72,3.51-5.25.15-.27.29-.54.42-.81.56-1.17.93-2.32.84-3.25l1.23-2.63v-.03M43.45,62.79l-.38,2,.78-2.09,1.45-3.67,1.78,4.84-1.03-6.81-.07-.72s-.69.05-1.04.61c-.36.55-.69,1.74-.79,2.22-.09.42-.32.8-.33.82h0c-.43.01-.39-.59-.39-.59l-.16-2.59c-.14-.11-.25-.23-.32-.36-.27-.47-.17-1.07-.16-1.54,0-.6.53-1.28.92-2.13.18-.39.51-1.43.81-2.45.37-1.22.7-2.4.7-2.4.18-1.48.43-2.56.7-3.36.58-1.7,1.22-2.1,1.36-2.23.21-.19.52-1.16.52-1.16M43.84,59.98l-.39,2.81M48.19,35.72s-.2.59-.41.74c-.21.15-1.21,1.45-1.02,2.3.19.86.62,2.33.62,2.33l.41-.05,3.83-.46s.26-.06.58-.19c.37-.14.82-.35,1.07-.64.47-.53,1.81-2.74,1.81-2.74M37.14,64.27l5.98,1.97,11.17-3.18-6.37-1.31-4.07.95-.4.09h0l-6.31,1.48h0M37.13,64.27v1.57l6.06,2.04,11.09-3.26v-1.57M43.11,66.23v1.55M47.47,32.98s-.33-.24-.24-.58c.09-.34-.26-.97.02-1.12.19-.1.21-.6.43-.96.11-.18.27-.33.51-.38.74-.15.44-.85.99-1.02.55-.16,1.04-.57,1.24-.56.2.01.9-.28,1.1-.33.09-.01.33-.05.58-.08.3-.03.61-.05.7,0,.1.07.46.23.8.37.25.1.48.18.59.18.24.01,1.18.39,1.35.4.17.01.73.04.67.26-.06.21-.2.4-.08.46.12.06.48.25.45.37-.03.12-.22.38-.18.53.04.15.4.66.46.84.06.17.1.44-.03.56-.13.12-.26.21-.17.31.09.11.03.35-.07.44-.1.09-.24.35-.35.47-.11.11-.4.61-.56.72-.15.11-.59.06-.65.25-.06.2-.66.38-.81.37-.14,0-.91.48-1.04.18-.13-.3-.12-.82-.06-1.01.06-.19.29-.35.35-.49.06-.14.05-.36-.02-.44-.07-.07-.44-.39-.13-.71.31-.33.92-1.46,1.04-1.78.12-.31.01-.63-.06-.71-.07-.08-.85-.51-.97-.57-.12-.06-1.11-.27-1.33-.25-.22.01-.85-.05-1.11.11-.25.15-.88.39-1.01.48-.13.09-.62.55-.62.55l-.7.6s-.84.8-.92,2.56c-.02.39,0,.82.07,1.3,0,0,.1.78.59,1.37.14.17,1.16.96,1.16.96,0,0,.41.08.51.08.1,0,.38.12.52.4.13.28.43,1.38,1.05,1.19l.44-.41s.65.26.77.31c.11.05,1.13.56,2.34-1.18.13-.18.25-.38.38-.61,0,0,.42-1.07.87-1.93.1-.05.49-.29.62-.34,1.33-.49,1.82-2.31,1.82-2.31,0,0,.01-.25,0-.62M57.59,35.68c-.05.36-.59,2.37-.65,2.79-.06.42-.11.84.1,1.36.21.53.49,1.84.46,2.41-.03.57-.3,2.09-.51,2.95-.04.16-.07.29-.09.4l-.11.46-.76,1.62s-1.25,2.43-1.47,2.99c-.21.56-1.23,2.46-.19,5.13l.41,1.53c.71,2.21.96,2.4,1.76,2.54M58.58,51.84s-.37,3.68-.83,4.77c-.46,1.09-.78,1.94-.77,2.37,0,.42-.3,1.54-.44,1.84-.09.19-.26.51-.36.87-.05.2-.08.41-.06.61.06.58.09,1.06.51,1.11.42.06,1.06-.09,1.06-.09,0,0,.59.22.89.23.3.02.66.07.88-.07.22-.14.65-.29.84-.43.19-.14.73-.62.72-.98,0-.36-.9-1.62-.9-1.62,0,0-.04-.15-.1-.39-.13-.57-.31-1.63-.02-2.21.41-.82,4.91-7.08,4.6-11.52M67.22,45.71s-1.53-.2-2.66.57h0c-.23.16-.45.36-.63.62-.69.97-3.54,3.33-5.42,4.85-.63.51-1.15.92-1.45,1.15-.16.13-.71.96-.71.96,0,0,.65-10.54,7.57-18.79M52.08,27.77s.64-.83,1.62-1.26c.24-.1,4.9-2.55,9.1-1.79M58.63,29.98c0-.15,1.26-4.04,3.67-5.04.89-.51,1.92-.08,1.92-.08.51.22,1.98-.34,3.64.94l1.34-.42c2.29-.36,3.42,1.61,3.42,2.84s-1.67,2.78-1.67,2.78l-1.71,1.39c-.47.84-2.24,1.75-2.78,2.12-.81.56-1.68.66-2.53.48-2.67-.55-5.14-3.8-5.14-3.8M61.69,58.14s1.69,1.91,3.06,2.23M52.61,37.98l.39-.24M43.82,42.15s-.16-2.03-.11-2.83c.03-.44.5-2.64.91-4.53M45.36,41.11s-3.29,1.33-1.95,4.38M43.7,45.4c-.57.77-.53.7-.61.9-.06.17-.33,1.3-.32,1.46,0,.16-.04.51-.12.57-.08.06-.56.39-.62.32-.05-.07-.46-.67-.65-.71-.19-.04-.48-.07-.36.2.12.27-.74.13-.15.64l.59.51s.54.46.87.53c.33.08.89.03,1.16-.4M43.7,45.4s0,0,0,0M45.89,44.54s-.64-.55-1.47.22c-.58.53-.7.63-.72.65h0s0,0,0,0t0,0h0s0,0,0,0h0M43.52,47.54c-.03.22-.22,1.03.27,1.1,0,0,.46,0,.49-.45.03-.46.24-.67.3-.86M43.69,48.72s-.04.36-.1.72c-.05.32-.12.65-.18.75-.13.21-.37.95-.28,1.07,0,0,.23.72.6.2l.37-.52.4-.64M48.2,19.9s.26.21.62.24M48.59,19.37s-.03.11.37.13M41.75,28.23s.63-.14.98-.38M39.29,26.58s.68-.93,1.02-.66M39.98,26.22l.08.11M39.76,42.38l-.21.18M34.75,19.86l-.15.23M48.26,17.78l-.03.18M50.55,18.62l-.06.28M51.83,36.3l.19.21M51.12,36.39l1.63-.34M65.2,35.16l-1.47,5.77M66.44,34.49c-9.28-2.49-3.22-8.6-2.27-9.49M34.32,19.46l1,.66M47.73,17.41s.58.35,1.19.36M50.16,18.43s.58.35,1.19.36M40.17,42.47s-.67-.18-.83-.45M32.25,26.9l.39-.05s.97.15,1.09.15c.12,0,1.01.17,1.01.17.08.24-.44.42-.44.42l-.94.15.29.48c.29.48-.35.86-.35.86.19.91-.39,1.18-.39,1.18-.89.6-1.74.08-2.37-.28-.16-.09-.3-.17-.42-.22-.63-.25-.46-.83-.47-1.42-.01-.58.22-1.09.39-1.31.16-.22.93-.49.93-.49l.65.17.64.17h.02s.29.46.16.55c-.14.1-.64.32-.86.2l-.21-.11M43.97,18.44l.59,2.26M69.49,60.43s-3.54-.68-3.68-6.35M32.8,53.83s3.3,3.5,4.37,3.62M38.96,48.83c-.12,1.74-.25,3-.25,3-.27,2.45-1.54,5.63-1.54,5.63,0,0,1.32-.04,2.55-.45,1.23-.41,2.01-1.36,3.17-.69M50.44,46.41c1.7-.38,3.19-.57,4.3-.67h0c1.32-.12,2.11-.11,2.11-.11M50.32,46.51s-.05,3.77-.03,4.06c.01.3.1,1.54-.25,2.03-.35.5-.73,1.39-.69,1.75.04.36.04,1-.02,1.18-.07.19-.44,1.34-.44,1.34,0,0-.15.96.74,1.07.89.11,2.11.13,2.58-.11.47-.24.84-.71.71-1.02-.14-.31-.48-.52-.71-.82-.23-.3-.52-.87-.42-1.23,0,0,.14-.49.14-.7,0-.21-.05-1.05.16-1.35.21-.29,1.72-2.6,1.72-2.6,0,0,.73-1.08.98-4.21M41.17,20.85s-.16-.27-.29-.5c-.08-.14-.14-.25-.15-.28-.03-.08-.09-.22.03-.39.12-.17.42-.04.45,0,.03.03.2.24.44.43.24.19.2.01.41.9.04.19.05.34.04.46-.07.46-.61.37-1.19.76-.76.5-1.59-.04-1.59-.04,0,0-1.21-1.14-1.29-1.26-.08-.11-.21-.1-.31.02-.11.12-.05.13-.52.14-.47,0-.68-.27-.75-.41-.07-.13.59-.41.59-.41,0,0,.73-.43,1.46-.48.12-.01.23-.02.34-.03.52-.05.86-.08,1.35.22l.68.4M9.4,46.1c-.05.03-1.99-.43-2.06-.69,0,0-.07-.15.04-.25.11-.09.43-.45.54-.65.05-.08.07-.12.26-.54.28-.6.74-1.63.74-1.63.4-1.05.34-1.23.34-1.23l.45-5.71c.06-2.59,1.59-4.05,1.59-4.05M21.22,31.61s-2.97.46-6.15.28c-.82-.05-1.65-.14-2.45-.29-.45-.08-.88-.19-1.3-.32h0c-.22-.07-.44-.14-.64-.22,0,0-1.33.48-1.75,3.87,0,0-.17,3.34-.6,4.68-.82,1.75-2.61,3.58-2.61,3.58,0,0-.49.54.11,1.08l1.3.9M71.89,30.12c.77,1.94,1.27,4.62,1.7,8.3.82,7.07-1.03,13.41-1.6,15.76-.58,2.34.36,5.68,1.41,5.94,0,0-4.03.44-5.75.37-.73-.03-.81-.02-1.62-.05-2.81-.12-5.7-.28-5.87-.41"/>
        <path class="cls-2" d="M56.92,53.04s-1.84,1.47.9,2.29"/>
        <path class="cls-1" d="M71.65,36.13s.49,2.53,0,5.31c-.49,2.78.55,11.05.33,12.7"/>
      </g>
      <line class="cls-1" x1="65.77" y1="28.89" x2="67.34" y2="27.32"/>
      <path class="cls-1" d="M43.7,39.85s1.41-4.36,2.3-4.71M31.64,41.4s3.31,1.3,3.81,2.87M21.94,33.5s-.17,1.47.26,3.55c.43,2.08,1.04,3.98,1.04,3.98M38.89,33.11s3.22.73,3.92-1.57M35.25,47.46c-.2.75-.2,1.63-.8,3.19,0,0-.3.82-.66,1.54-.25.88-2.34,2.69-2.34,2.69M26.58,44.21s.81-.99,2.69-.99c0,0,.8-.04,1.45-.04M56.08,28.95s2.57-.52,2.69,2.25M42.15,27.34c.58-.29.67-.67.67-.67,0,0-.85-.61-1.35-.82-.5-.21,0-.61,0-.61M56.06,34.17s-.21,1.31-.52,2.11M56.59,35.67l3.57-.18s.78-.09,1.28-.41M63.67,51.51c2.12,2.39,4.45,4.8,4.45,4.8M59.09,39.65s-.07,1.23.13,3"/>
      <line class="cls-1" x1="35.87" y1="43.81" x2="35.49" y2="44.13"/>
      <g>
        <path class="cls-4" d="M211.58,62.8c.45.53,1.65,1.82,4.18,1.82,2.82,0,4.61-1.67,4.61-3.9,0-1.76-1.51-2.98-2.47-3.39v-.06c.92-.43,2.1-1.63,2.1-3.2,0-2.29-1.9-3.74-4.27-3.74-2.22,0-3.78,1.8-3.78,1.8-.14.14-.16.39,0,.53l.76.67c.18.16.41.12.53-.04.41-.45,1.14-1.14,2.37-1.14s2.33.86,2.33,2.22c0,1.21-.96,2.18-2.88,2.18h-1.14c-.29,0-.41.12-.41.43v.88c0,.29.16.43.39.43h1.14c2.18,0,3.23,1.16,3.23,2.39,0,1.37-1.23,2.2-2.55,2.2-1.51,0-2.65-1.1-2.78-1.26-.16-.18-.35-.2-.55-.04l-.8.74c-.14.12-.14.35-.02.49M205.45,62.78c-2.22,0-2.98-2.33-2.82-4.04.12-.37,1.18-1.55,2.8-1.55,1.51,0,2.71,1.25,2.71,2.78s-1.18,2.82-2.7,2.82M200.65,58.9c0,3.15,1.55,5.72,4.82,5.72,2.47,0,4.55-2.1,4.55-4.68,0-2.82-2.1-4.43-4.27-4.43-1.37,0-2.55.65-2.72.76.67-2.51,3.92-4.21,4.86-4.51.39-.12.47-.35.37-.59l-.35-.84c-.08-.22-.27-.33-.51-.24-1.88.71-6.76,3.12-6.76,8.82M191.24,60.74c0-1.08.94-2.2,2.59-2.45,1.65.25,2.59,1.37,2.59,2.45,0,1.37-1.16,2.22-2.61,2.22-1.35,0-2.57-.88-2.57-2.22M193.84,56.33c-1.59-.25-2.29-1.08-2.29-2.18,0-1.25,1-2.14,2.22-2.14,1.35,0,2.35.9,2.35,2.14,0,1.08-.71,1.96-2.29,2.18M189.12,60.7c0,2.23,1.82,3.92,4.68,3.92s4.76-1.69,4.76-3.92c0-1.76-1.53-2.98-2.47-3.41v-.08c.88-.45,2.1-1.57,2.1-3.14,0-2.25-1.86-3.74-4.37-3.74s-4.33,1.49-4.33,3.74c0,1.59,1.22,2.71,2.1,3.16v.06c-.76.35-2.47,1.63-2.47,3.41M179.32,64.41h7.1c.22,0,.39-.16.39-.37v-.88c0-.22-.16-.39-.39-.39h-2.25v-11.86c0-.2-.16-.39-.37-.39h-1l-3.04,2.76c-.08.08-.12.24-.06.41l.24.72c.06.18.27.22.45.14l1.78-.9v9.13h-2.86c-.22,0-.39.16-.39.39v.88c0,.2.16.37.39.37M160.72,57.29c0-2.9,2.39-5.33,5.29-5.33s5.31,2.43,5.31,5.33-2.39,5.29-5.31,5.29-5.29-2.37-5.29-5.29M158.68,57.29c0,4.08,3.25,7.33,7.33,7.33s7.35-3.25,7.35-7.33-3.27-7.37-7.35-7.37-7.33,3.29-7.33,7.37M143.9,64.02c0,.2.18.39.39.39h1.29c.22,0,.39-.18.39-.39v-9.94h.02l8.86,10.53h.53c.2,0,.39-.16.39-.37v-13.74c0-.2-.18-.39-.39-.39h-1.31c-.22,0-.39.18-.39.39v9.66h-.02l-8.86-10.25h-.51c-.21,0-.39.16-.39.37v13.74ZM132.61,59.55l2.49-5.59h.1l2.51,5.59h-5.1ZM128.81,64.41h1.29c.24,0,.41-.16.47-.31.41-.94.84-1.86,1.25-2.8h6.68l1.27,2.8c.08.18.22.31.47.31h1.29c.31,0,.47-.27.35-.53l-6.23-13.74c-.06-.12-.25-.22-.35-.22h-.2c-.1,0-.29.1-.35.22l-6.27,13.74c-.12.27.04.53.35.53M119.18,64.02c0,.2.16.39.39.39h7.27c.22,0,.39-.18.39-.39v-1.12c0-.2-.16-.39-.39-.39h-5.53v-12c0-.2-.18-.39-.39-.39h-1.35c-.22,0-.39.18-.39.39v13.52ZM113.09,64.02c0,.2.18.39.39.39h1.35c.2,0,.39-.18.39-.39v-13.52c0-.2-.18-.39-.39-.39h-1.35c-.2,0-.39.18-.39.39v13.52ZM94.37,63.94c-.04.29.1.47.39.47h1.33c.16,0,.35-.14.37-.29l1.47-9.13h.08l3.69,9.39c.04.12.18.22.35.22h.37c.18,0,.31-.1.35-.22l3.68-9.39h.06l1.51,9.13c.04.14.2.29.39.29h1.33c.29,0,.43-.18.37-.47l-2.51-13.72c-.04-.16-.2-.31-.37-.31h-.33c-.14,0-.31.1-.35.22l-4.25,10.43h-.08l-4.27-10.43c-.04-.12-.22-.22-.35-.22h-.33c-.16,0-.33.14-.37.31l-2.53,13.72Z"/>
        <path class="cls-4" d="M266.29,30.25c0-3.68,3-6.74,6.68-6.74s6.71,3.06,6.71,6.74-3.03,6.68-6.71,6.68-6.68-3-6.68-6.68M262.5,30.25c0,5.83,4.64,10.47,10.47,10.47s10.5-4.64,10.5-10.47-4.67-10.53-10.5-10.53-10.47,4.7-10.47,10.53M242.17,30.25c0,5.83,4.7,10.47,10.53,10.47,2.6,0,5.1-.9,7.09-2.83.2-.2.26-.58.03-.79l-1.81-1.87c-.18-.17-.5-.2-.73,0-1.22.99-2.71,1.66-4.46,1.66-3.73,0-6.53-3.09-6.53-6.74s2.77-6.8,6.5-6.8c1.63,0,3.27.64,4.49,1.72.23.23.53.23.73,0l1.78-1.84c.23-.23.23-.58-.03-.82-1.98-1.78-4.11-2.71-7.06-2.71-5.83,0-10.53,4.7-10.53,10.53M234.53,39.88c0,.29.26.55.55.55h2.71c.29,0,.55-.26.55-.55v-19.31c0-.29-.26-.55-.55-.55h-2.71c-.29,0-.55.26-.55.55v19.31ZM212.28,39.88c0,.29.26.55.55.55h2.65c.32,0,.55-.26.55-.55v-12.54h.03l12.19,13.39h.7c.29,0,.55-.23.55-.53v-19.63c0-.29-.26-.55-.55-.55h-2.68c-.32,0-.55.26-.55.55v12.05h-.03l-12.13-12.89h-.73c-.29,0-.55.23-.55.52v19.63ZM190.78,30.25c0,5.83,4.7,10.47,10.53,10.47,2.6,0,5.1-.9,7.09-2.83.2-.2.26-.58.03-.79l-1.81-1.87c-.18-.17-.5-.2-.73,0-1.22.99-2.71,1.66-4.46,1.66-3.73,0-6.53-3.09-6.53-6.74s2.77-6.8,6.5-6.8c1.63,0,3.27.64,4.49,1.72.23.23.53.23.73,0l1.78-1.84c.23-.23.23-.58-.03-.82-1.98-1.78-4.11-2.71-7.06-2.71-5.83,0-10.53,4.7-10.53,10.53M174.83,39.88c0,.29.23.55.55.55h11.87c.32,0,.55-.26.55-.55v-2.39c0-.29-.23-.55-.55-.55h-8.63v-5.1h7.2c.29,0,.55-.23.55-.55v-2.42c0-.29-.26-.55-.55-.55h-7.2v-4.78h8.63c.32,0,.55-.26.55-.55v-2.39c0-.29-.23-.55-.55-.55h-11.87c-.32,0-.55.26-.55.55v19.31ZM162.67,39.88c0,.29.26.55.55.55h2.71c.29,0,.55-.26.55-.55v-16.36h4.46c.32,0,.55-.26.55-.55v-2.39c0-.29-.23-.55-.55-.55h-12.74c-.32,0-.55.26-.55.55v2.39c0,.29.23.55.55.55h4.46v16.36ZM150.16,39.88c0,.29.26.55.55.55h2.71c.29,0,.55-.26.55-.55v-19.31c0-.29-.26-.55-.55-.55h-2.71c-.29,0-.55.26-.55.55v19.31ZM134.55,39.88c0,.29.23.55.55.55h10.67c.32,0,.55-.26.55-.55v-2.39c0-.29-.23-.55-.55-.55h-7.44v-16.36c0-.29-.26-.55-.55-.55h-2.68c-.32,0-.55.26-.55.55v19.31ZM114.31,30.25c0-3.68,3-6.74,6.68-6.74s6.71,3.06,6.71,6.74-3.03,6.68-6.71,6.68-6.68-3-6.68-6.68M110.52,30.25c0,5.83,4.64,10.47,10.47,10.47s10.5-4.64,10.5-10.47-4.67-10.53-10.5-10.53-10.47,4.7-10.47,10.53M98.16,29.46v-5.86h3.38c1.63,0,3,1.22,3,2.83,0,1.72-1.37,3.03-3,3.03h-3.38ZM94.37,39.88c0,.29.23.55.55.55h2.68c.29,0,.55-.26.55-.55v-6.85h3.65c3.56,0,6.5-2.95,6.5-6.56s-2.95-6.44-6.53-6.44h-6.85c-.32,0-.55.26-.55.55v19.31Z"/>
      </g>
      <g>
        <path class="cls-4" d="M99.14,103.55c-.72,0-1.42-.12-2.08-.37s-1.27-.62-1.84-1.13l.99-1.18c.46.39.92.7,1.38.9.46.21.99.32,1.58.32.51,0,.91-.11,1.21-.32.3-.21.45-.5.45-.86v-.03c0-.17-.03-.32-.09-.45-.06-.13-.17-.25-.32-.37s-.37-.22-.64-.32c-.27-.1-.63-.2-1.07-.3-.5-.12-.95-.25-1.34-.4-.39-.15-.72-.33-.98-.54-.26-.21-.47-.47-.61-.77-.14-.3-.21-.67-.21-1.1v-.03c0-.4.08-.77.24-1.11.16-.33.38-.62.66-.86.28-.24.62-.42,1.01-.56s.82-.2,1.29-.2c.69,0,1.31.1,1.86.3s1.07.49,1.55.88l-.89,1.25c-.43-.31-.85-.55-1.27-.72-.42-.17-.85-.25-1.27-.25-.48,0-.86.11-1.13.32-.27.22-.4.48-.4.79v.03c0,.18.03.34.09.48s.18.26.34.38.39.22.69.31c.29.1.66.2,1.11.31.49.13.93.26,1.31.42.38.15.7.34.95.56.25.22.44.47.57.77.13.29.19.63.19,1.01v.03c0,.44-.08.83-.25,1.18s-.39.64-.69.88-.64.42-1.05.55c-.41.13-.86.19-1.35.19Z"/>
        <path class="cls-4" d="M109.21,103.57c-.69,0-1.32-.13-1.9-.38-.58-.25-1.09-.59-1.51-1.03-.43-.43-.76-.95-1.01-1.54-.24-.59-.36-1.22-.36-1.89v-.03c0-.67.12-1.3.36-1.88.24-.59.57-1.1,1.01-1.54s.94-.79,1.53-1.05c.59-.25,1.24-.38,1.96-.38.43,0,.82.04,1.17.11.35.07.68.17.97.3.3.13.57.28.82.46s.49.38.71.59l-1.06,1.22c-.38-.35-.77-.63-1.19-.84-.42-.22-.9-.32-1.43-.32-.45,0-.86.09-1.24.26-.38.17-.71.41-.98.71-.28.3-.49.65-.64,1.05-.15.4-.23.83-.23,1.29v.03c0,.46.08.89.23,1.29.15.41.37.76.64,1.06.28.3.61.54.98.72.38.17.79.26,1.24.26.57,0,1.06-.11,1.47-.33.41-.22.82-.52,1.22-.89l1.06,1.07c-.24.26-.49.49-.76.69-.26.2-.55.38-.85.52-.3.15-.64.26-1,.33s-.76.11-1.2.11Z"/>
        <path class="cls-4" d="M119.03,103.56c-.61,0-1.16-.09-1.65-.26-.49-.17-.91-.44-1.26-.78s-.62-.78-.8-1.29c-.19-.51-.28-1.11-.28-1.79v-5.4h1.64v5.34c0,.88.21,1.54.63,2s1.01.68,1.75.68,1.32-.22,1.74-.66c.42-.44.63-1.09.63-1.96v-5.4h1.64v5.32c0,.7-.1,1.31-.29,1.84-.19.53-.46.97-.81,1.32-.35.35-.77.62-1.27.79-.5.17-1.05.26-1.67.26Z"/>
        <path class="cls-4" d="M130.35,103.57c-.72,0-1.39-.13-1.98-.38-.6-.25-1.11-.6-1.54-1.04s-.77-.95-1.01-1.54c-.24-.58-.36-1.21-.36-1.87v-.03c0-.66.12-1.28.36-1.87.24-.59.58-1.1,1.02-1.54s.96-.79,1.56-1.05c.6-.26,1.26-.39,1.98-.39s1.39.13,1.98.38,1.11.6,1.54,1.04.76.95,1.01,1.53c.24.59.36,1.21.36,1.87v.03c0,.66-.12,1.29-.36,1.87-.24.59-.58,1.1-1.02,1.54s-.96.79-1.56,1.05c-.6.26-1.26.39-1.98.39ZM130.38,102.06c.46,0,.89-.09,1.27-.26.39-.17.72-.41,1-.71s.49-.65.65-1.05c.16-.4.23-.83.23-1.29v-.03c0-.46-.08-.89-.23-1.29-.16-.41-.37-.76-.65-1.06-.28-.3-.62-.54-1.01-.72-.39-.18-.82-.27-1.28-.27s-.89.09-1.28.26c-.39.17-.72.41-1,.71-.27.3-.49.65-.65,1.05-.16.4-.23.83-.23,1.29v.03c0,.46.08.89.23,1.29.16.41.37.76.65,1.06s.62.54,1.01.72.82.27,1.28.27Z"/>
        <path class="cls-4" d="M137.81,94.03h1.64v7.9h4.93v1.49h-6.57v-9.39Z"/>
        <path class="cls-4" d="M150.22,93.96h1.53l4.13,9.45h-1.74l-.95-2.27h-4.44l-.96,2.27h-1.69l4.13-9.45ZM152.58,99.68l-1.62-3.76-1.61,3.76h3.23Z"/>
        <path class="cls-4" d="M162.04,94.03h3.5c.73,0,1.41.12,2.02.35s1.14.57,1.58.98c.44.42.78.92,1.03,1.48s.36,1.18.36,1.84v.03c0,.66-.12,1.28-.36,1.85s-.58,1.07-1.03,1.49-.97.75-1.58.99-1.28.36-2.02.36h-3.5v-9.39ZM165.53,101.92c.49,0,.94-.08,1.34-.24.4-.16.74-.38,1.03-.66.28-.28.5-.62.66-1.01.16-.39.23-.81.23-1.27v-.03c0-.46-.08-.88-.23-1.28-.16-.39-.38-.73-.66-1.02-.28-.28-.62-.5-1.03-.67-.4-.16-.85-.24-1.34-.24h-1.85v6.41h1.85Z"/>
        <path class="cls-4" d="M173.06,94.03h6.95v1.49h-5.31v2.41h4.71v1.49h-4.71v2.51h5.38v1.49h-7.01v-9.39Z"/>
        <path class="cls-4" d="M182.66,94.03h1.64v7.9h4.93v1.49h-6.57v-9.39Z"/>
        <path class="cls-4" d="M195.51,94.03h3.5c.73,0,1.41.12,2.02.35s1.14.57,1.58.98c.44.42.78.92,1.03,1.48s.36,1.18.36,1.84v.03c0,.66-.12,1.28-.36,1.85s-.58,1.07-1.03,1.49-.97.75-1.58.99-1.28.36-2.02.36h-3.5v-9.39ZM199,101.92c.49,0,.94-.08,1.34-.24.4-.16.74-.38,1.03-.66.28-.28.5-.62.66-1.01.16-.39.23-.81.23-1.27v-.03c0-.46-.08-.88-.23-1.28-.16-.39-.38-.73-.66-1.02-.28-.28-.62-.5-1.03-.67-.4-.16-.85-.24-1.34-.24h-1.85v6.41h1.85Z"/>
        <path class="cls-4" d="M206.53,94.03h6.95v1.49h-5.31v2.41h4.71v1.49h-4.71v2.51h5.38v1.49h-7.01v-9.39Z"/>
        <path class="cls-4" d="M219.39,103.55c-.72,0-1.42-.12-2.08-.37s-1.27-.62-1.84-1.13l.99-1.18c.46.39.92.7,1.38.9.46.21.99.32,1.58.32.51,0,.91-.11,1.21-.32.3-.21.45-.5.45-.86v-.03c0-.17-.03-.32-.09-.45-.06-.13-.17-.25-.32-.37s-.37-.22-.64-.32c-.27-.1-.63-.2-1.07-.3-.5-.12-.95-.25-1.34-.4-.39-.15-.72-.33-.98-.54-.26-.21-.47-.47-.61-.77-.14-.3-.21-.67-.21-1.1v-.03c0-.4.08-.77.24-1.11.16-.33.38-.62.66-.86.28-.24.62-.42,1.01-.56s.82-.2,1.29-.2c.69,0,1.31.1,1.86.3s1.07.49,1.55.88l-.89,1.25c-.43-.31-.85-.55-1.27-.72-.42-.17-.85-.25-1.27-.25-.48,0-.86.11-1.13.32-.27.22-.4.48-.4.79v.03c0,.18.03.34.09.48s.18.26.34.38.39.22.69.31c.29.1.66.2,1.11.31.49.13.93.26,1.31.42.38.15.7.34.95.56.25.22.44.47.57.77.13.29.19.63.19,1.01v.03c0,.44-.08.83-.25,1.18s-.39.64-.69.88-.64.42-1.05.55c-.41.13-.86.19-1.35.19Z"/>
        <path class="cls-4" d="M225.29,94.03h1.64v9.39h-1.64v-9.39Z"/>
        <path class="cls-4" d="M234.43,103.57c-.73,0-1.4-.12-2-.37s-1.11-.58-1.53-1.02c-.42-.43-.75-.94-.99-1.53-.23-.58-.35-1.22-.35-1.91v-.03c0-.65.12-1.27.36-1.86.24-.59.57-1.11,1.01-1.55s.94-.79,1.54-1.05c.6-.26,1.25-.39,1.95-.39.41,0,.78.03,1.12.09.34.06.65.14.93.25.29.11.56.24.81.39.25.16.5.34.74.54l-1.05,1.25c-.18-.15-.36-.29-.55-.42s-.38-.23-.59-.31c-.21-.09-.43-.15-.68-.2-.25-.05-.52-.07-.81-.07-.43,0-.83.09-1.2.27s-.69.42-.97.72c-.27.3-.49.65-.64,1.05-.16.4-.23.83-.23,1.28v.03c0,.48.08.93.23,1.34.15.41.37.77.65,1.06s.62.53,1,.7c.39.17.82.26,1.3.26.45,0,.86-.07,1.25-.2.39-.13.72-.3,1.01-.52v-1.77h-2.4v-1.43h4v3.94c-.23.2-.49.38-.77.56-.28.18-.58.34-.91.47-.33.13-.68.24-1.05.31s-.77.11-1.18.11Z"/>
        <path class="cls-4" d="M241.12,94.03h1.53l5.02,6.49v-6.49h1.64v9.39h-1.38l-5.16-6.68v6.68h-1.64v-9.39Z"/>
      </g>
    </g>
    <g>
      <path class="cls-4" d="M95.03,111.35c0-.14.11-.27.25-.27h3.32c2.7,0,4.92,2.2,4.92,4.89s-2.21,4.92-4.92,4.92h-3.32c-.14,0-.25-.13-.25-.27v-9.27ZM98.44,119.18c1.82,0,3.15-1.29,3.15-3.21s-1.33-3.19-3.15-3.19h-1.6v6.4h1.6Z"/>
      <path class="cls-4" d="M105.86,111.35c0-.14.13-.27.27-.27h1.3c.14,0,.27.13.27.27v9.27c0,.14-.13.27-.27.27h-1.3c-.14,0-.27-.13-.27-.27v-9.27Z"/>
      <path class="cls-4" d="M110.6,111.35c0-.14.11-.27.27-.27h3.29c1.72,0,3.14,1.4,3.14,3.1s-1.41,3.15-3.12,3.15h-1.75v3.29c0,.14-.13.27-.27.27h-1.29c-.15,0-.27-.13-.27-.27v-9.27ZM114.11,115.62c.78,0,1.39-.63,1.39-1.46,0-.77-.6-1.36-1.39-1.36h-1.68v2.82h1.68Z"/>
      <path class="cls-4" d="M117.46,120.53l4.36-9.43c.04-.08.11-.15.24-.15h.14c.14,0,.2.07.24.15l4.31,9.43c.08.18-.03.36-.24.36h-1.22c-.21,0-.31-.08-.41-.28l-.69-1.51h-4.19l-.69,1.51c-.06.14-.18.28-.41.28h-1.22c-.21,0-.32-.18-.24-.36ZM123.51,117.54l-1.4-3.08h-.04l-1.37,3.08h2.82Z"/>
      <path class="cls-4" d="M128.53,111.35c0-.14.11-.27.27-.27h4.01c1.68,0,3.05,1.34,3.05,3.01,0,1.29-.85,2.34-2.07,2.83l1.92,3.56c.1.18,0,.41-.24.41h-1.47c-.13,0-.2-.07-.22-.13l-1.86-3.71h-1.55v3.57c0,.14-.13.27-.27.27h-1.29c-.15,0-.27-.13-.27-.27v-9.27ZM132.65,115.55c.74,0,1.39-.64,1.39-1.43,0-.74-.64-1.36-1.39-1.36h-2.28v2.79h2.28Z"/>
      <path class="cls-4" d="M139.82,112.77h-2.14c-.15,0-.27-.13-.27-.27v-1.15c0-.14.11-.27.27-.27h6.12c.15,0,.27.13.27.27v1.15c0,.14-.11.27-.27.27h-2.14v7.86c0,.14-.13.27-.27.27h-1.3c-.14,0-.27-.13-.27-.27v-7.86Z"/>
      <path class="cls-4" d="M145.99,111.35c0-.14.13-.27.27-.27h1.3c.14,0,.27.13.27.27v9.27c0,.14-.13.27-.27.27h-1.3c-.14,0-.27-.13-.27-.27v-9.27Z"/>
      <path class="cls-4" d="M151.81,111.16c.01-.11.1-.21.25-.21h.22c.11,0,.2.06.24.14l3.08,6.61h.04l3.08-6.61c.04-.08.11-.14.24-.14h.22c.15,0,.24.1.25.21l1.65,9.41c.04.2-.07.32-.25.32h-1.27c-.13,0-.24-.11-.27-.21l-.83-5.31h-.04l-2.45,5.5c-.03.08-.11.15-.24.15h-.25c-.13,0-.2-.07-.24-.15l-2.48-5.5h-.04l-.81,5.31c-.01.1-.13.21-.25.21h-1.26c-.18,0-.29-.13-.27-.32l1.67-9.41Z"/>
      <path class="cls-4" d="M163.45,111.35c0-.14.11-.27.27-.27h5.7c.15,0,.27.13.27.27v1.15c0,.14-.11.27-.27.27h-4.15v2.3h3.46c.14,0,.27.13.27.27v1.16c0,.15-.13.27-.27.27h-3.46v2.45h4.15c.15,0,.27.13.27.27v1.15c0,.14-.11.27-.27.27h-5.7c-.15,0-.27-.13-.27-.27v-9.27Z"/>
      <path class="cls-4" d="M172.14,111.2c0-.14.13-.25.27-.25h.21c.1,0,.17.03.24.1l5.71,6.09h.03v-5.79c0-.14.11-.27.27-.27h1.29c.14,0,.27.13.27.27v9.43c0,.14-.13.25-.27.25h-.2c-.1,0-.17-.03-.24-.1l-5.74-6.33h-.03v6.02c0,.14-.11.27-.27.27h-1.27c-.14,0-.27-.13-.27-.27v-9.43Z"/>
      <path class="cls-4" d="M184.75,112.77h-2.14c-.15,0-.27-.13-.27-.27v-1.15c0-.14.11-.27.27-.27h6.12c.15,0,.27.13.27.27v1.15c0,.14-.11.27-.27.27h-2.14v7.86c0,.14-.13.27-.27.27h-1.3c-.14,0-.27-.13-.27-.27v-7.86Z"/>
      <path class="cls-4" d="M195.12,110.95c2.8,0,5.04,2.25,5.04,5.06s-2.24,5.03-5.04,5.03-5.03-2.23-5.03-5.03,2.23-5.06,5.03-5.06ZM195.12,119.21c1.76,0,3.22-1.44,3.22-3.21s-1.46-3.24-3.22-3.24-3.21,1.47-3.21,3.24,1.44,3.21,3.21,3.21Z"/>
      <path class="cls-4" d="M206.45,111.35c0-.14.11-.27.25-.27h3.32c2.7,0,4.92,2.2,4.92,4.89s-2.21,4.92-4.92,4.92h-3.32c-.14,0-.25-.13-.25-.27v-9.27ZM209.85,119.18c1.82,0,3.15-1.29,3.15-3.21s-1.33-3.19-3.15-3.19h-1.6v6.4h1.6Z"/>
      <path class="cls-4" d="M217.27,111.35c0-.14.13-.27.27-.27h1.3c.14,0,.27.13.27.27v9.27c0,.14-.13.27-.27.27h-1.3c-.14,0-.27-.13-.27-.27v-9.27Z"/>
      <path class="cls-4" d="M225.96,111.35c0-.14.11-.27.25-.27h3.32c2.7,0,4.92,2.2,4.92,4.89s-2.21,4.92-4.92,4.92h-3.32c-.14,0-.25-.13-.25-.27v-9.27ZM229.37,119.18c1.82,0,3.15-1.29,3.15-3.21s-1.33-3.19-3.15-3.19h-1.6v6.4h1.6Z"/>
      <path class="cls-4" d="M236.79,111.35c0-.14.11-.27.27-.27h5.7c.15,0,.27.13.27.27v1.15c0,.14-.11.27-.27.27h-4.15v2.3h3.46c.14,0,.27.13.27.27v1.16c0,.15-.13.27-.27.27h-3.46v2.45h4.15c.15,0,.27.13.27.27v1.15c0,.14-.11.27-.27.27h-5.7c-.15,0-.27-.13-.27-.27v-9.27Z"/>
      <path class="cls-4" d="M244.98,119.94c-.14-.11-.2-.2-.07-.42l.5-.87c.11-.2.35-.2.48-.1.57.43,1.2.87,2.11.87.73,0,1.28-.48,1.28-1.08,0-.71-.6-1.2-1.78-1.68-1.32-.53-2.63-1.37-2.63-3.03,0-1.25.92-2.69,3.15-2.69,1.43,0,2.52.73,2.8.94.14.08.18.32.08.46l-.53.8c-.11.17-.32.28-.49.17-.6-.38-1.18-.77-1.95-.77s-1.23.45-1.23.98c0,.66.52,1.11,1.65,1.57,1.36.55,2.93,1.36,2.93,3.17,0,1.44-1.25,2.77-3.22,2.77-1.76,0-2.68-.74-3.08-1.09Z"/>
      <path class="cls-4" d="M253.58,111.35c0-.14.13-.27.27-.27h1.3c.14,0,.27.13.27.27v9.27c0,.14-.13.27-.27.27h-1.3c-.14,0-.27-.13-.27-.27v-9.27Z"/>
      <path class="cls-4" d="M262.76,110.95c1.26,0,2.46.49,3.42,1.3.11.11.13.28.01.39l-.87.91c-.11.11-.24.11-.36,0-.6-.53-1.34-.81-2.11-.81-1.75,0-3.14,1.5-3.14,3.25s1.39,3.21,3.15,3.21c.78,0,1.39-.24,1.67-.35v-1.19h-1.12c-.15,0-.27-.11-.27-.25v-1.11c0-.15.11-.27.27-.27h2.69c.14,0,.25.13.25.27v3.59c0,.11-.06.18-.11.22,0,0-1.44.91-3.47.91-2.79,0-5.03-2.21-5.03-5.01s2.24-5.06,5.03-5.06Z"/>
      <path class="cls-4" d="M269,111.2c0-.14.13-.25.27-.25h.21c.1,0,.17.03.24.1l5.71,6.09h.03v-5.79c0-.14.11-.27.27-.27h1.29c.14,0,.27.13.27.27v9.43c0,.14-.13.25-.27.25h-.2c-.1,0-.17-.03-.24-.1l-5.74-6.33h-.03v6.02c0,.14-.11.27-.27.27h-1.27c-.14,0-.27-.13-.27-.27v-9.43Z"/>
    </g>
  </g>
</svg>