<?xml version="1.0" encoding="UTF-8"?>
<svg id="Layer_2" data-name="Layer 2" xmlns="http://www.w3.org/2000/svg" viewBox="0 0 1360.63 166.18">
  <defs>
    <style>
      .cls-1 {
        fill: #e41f1b;
        stroke-width: 0px;
      }
    </style>
  </defs>
  <g id="Livello_1" data-name="Livello 1">
    <g>
      <path class="cls-1" d="M470.62,35.88V7.3c0-3.28,0-4.93-1.05-5.97-1.06-1.05-2.8-1.02-5.95-.98-.33,0-.74-.03-1.18-.07-1.34-.12-2.6-.23-3.37.46-.33.3-.52.72-.52,1.18,0,.17,0,.3-.02.42-.01,0-.02-.02-.03-.02-.22-.16-.43-.31-.61-.4-4.42-2.25-8.89-1.85-13.21-1.46-2.16.19-4.39.4-6.53.24l-2.88-.21,2.14,1.95c1.8,1.64,4.77,3.1,7.02,2.43.8-.24,1.41-.25,1.7-.04.45.33.47,1.42.47,2.08.05,3.2,1.41,5.36,3.44,7.62,1.71,1.91,1.93,3.8.66,5.62-.78,1.11-1.06.92-2.27.1-.53-.36-1.13-.77-1.81-.93-.17-.04-.34-.06-.58-.09l-1.66-.23.21,1.77c.04.36.08.7.14,1.03.42,2.22.21,3.94-.6,4.96-.56.71-1.43,1.09-2.59,1.14-.15,0-.31-.02-.44-.07.01-.02.03-.05.05-.08,1.44-2.12,1.89-4.43,1.25-6.49-.63-2.04-2.26-3.68-4.6-4.61-1.15-.46-2.06-1.97-2.08-2.97,0-.18.02-.41.16-.48.83-.38,1.47-.97,2.08-1.54,1.09-1.02,1.77-1.58,3.01-1.31.69.15,1.38,0,1.95-.41.77-.57,1.26-1.6,1.38-2.9l.13-1.52-1.45.49c-.68.23-1.28.52-1.85.8-1.23.6-2.2,1.07-3.49.75-2.49-.62-4.99,5.23-5.1,5.48-1.04,2.48-1.05,4-.03,4.64,1.42.88,1.45,1.34,1.45,1.35-.01.33-1.22.97-1.61,1.19-.34.18-.66.35-.88.51l-.28.19c-.98.68-2,1.38-2.5,2.74-3.88,10.73-8.01,21.59-12,32.08-8.76,23.05-17.83,46.89-24.9,71.01-.14.48-.25.99-.37,1.51-.21.98-.42,1.92-.86,2.72-.96-2.99-1.9-5.98-2.85-8.96-2.52-7.96-5.12-16.19-7.91-24.18-3.23-9.25-6.82-18.54-10.3-27.53-.86-2.21-1.71-4.43-2.56-6.64-.12-.32-.21-.75-.3-1.19-.22-1.1-.49-2.47-1.63-3.19-.78-.5-1.78-.58-3.06-.26-.92.23-1.89-.08-2.91-.41-1.22-.39-2.59-.83-4.07-.37-1.11.34-2.65.75-3.25.36-.57-.37-.83-1.83-.99-3.21-.07-.58-.11-1.2-.14-1.82-.18-3.04-.4-6.81-4.9-8.33,0-.08.01-.2.03-.33.96.28,2,.44,2.62-.26.7-.78.24-1.84-.2-2.86l-.08-.19c-.15-.35-.14-.56-.15-.57,0,0,.11-.07.45-.06.25,0,.51,0,.78-.03.24-.02.64-.05.73,0,0,0,.08.1.13.46.02.15-.01.4-.04.63-.09.76-.27,2.34,1.47,3.04l.86.34.41-.84c.26-.54.54-1.07.81-1.6.6-1.16,1.22-2.35,1.68-3.61,1.75-4.85-.35-8.96-2.2-12.59-.62-1.22-1.21-2.37-1.67-3.54-.07-.19-.15-.4-.23-.62-.8-2.16-2.29-6.17-6.93-5.6-.02-.1-.03-.26-.02-.52.03-.58-.07-1.4-.64-2.04.08,0,.16.03.25.03,1.32.05,2.77-.56,3.06-2.03.2-1.04-.21-2.25-1.39-2.55-1.85-.47-3.61.24-4.77.82-.64.31-1.02.74-1.15,1.26-.19.78.28,1.41.6,1.82.09.13.24.32.26.39,0,0,0-.02-.01-.06h.16s.73.11.73.11v.27s-.89.17-.89.17c.24,1.24-.46,3.42-1.67,5.17-.87,1.26-1.87,2.13-2.63,2.26-1.54.27-1.92-.46-2.11-1.28-.53-2.32-.25-3.81,1-5.32,2.12-2.55.11-5.46-.56-6.42-.57-.82-1.24-1.06-1.7-1.11-1.2-.14-2.18.74-2.7,1.22-1.39,1.26-2.69,1.34-4.79.31-1.41-.69-2.07-1.67-1-4.39l1.04-2.68-2.48,1.45c-.48.28-.95.5-1.37.7-.96.45-1.8.84-2.12,1.67-.42,1.06-.89,1.71-1.32,1.83-.65.17-1.8-.64-2.61-1.26-1.29-1-2.32-.93-2.96-.69-1,.37-1.7,1.39-2,2.87-.16.8-.13,1.59-.09,2.36.01.29.02.59.02.88v101.68c0,3.83,0,7.67,0,11.5.01,11.08.02,22.54-.07,33.81-.01,1.24.1,2.63,1.02,3.51.91.88,2.3.93,3.4.88,5.82-.27,10.24-.26,14.35.01.37.03.75.04,1.13.04,1.33,0,2.67-.22,3.6-1.1.98-.92,1.39-2.35,1.37-4.78-.14-21.01-.13-42.38-.12-63.05,0-8.94,0-17.88,0-26.82v-2.6c.01-5.78.02-11.76-.65-17.67-.2-1.8-.19-3.67-.15-5.51.38.99.71,2.03,1.04,3.14,4.65,15.64,10.72,31.04,16.59,45.92,2.82,7.15,5.73,14.55,8.45,21.87,4.95,13.32,10.2,26.78,15.28,39.79l2.71,6.94c.08.2.14.47.2.75.25,1.07.71,3.05,3.32,3,4.18-.09,8.43-.12,12.54-.15,1.65-.01,3.3-.02,4.95-.03h.58s.28-.51.28-.51c1.69-3.02,2.85-6.28,3.98-9.42.43-1.2.85-2.4,1.31-3.58l.19-.49c11.46-29.77,23.3-60.56,34.79-90.91,1.8-4.77,3.31-9.72,4.77-14.5.03-.09.06-.18.08-.27,0,.04,0,.08,0,.12-.06,1.51-.12,3.07-.11,4.61.07,12.99.07,26.19.07,38.96v21.93c.02,16.24.04,33.03-.07,49.54,0,1.35.12,2.86,1.11,3.81.98.94,2.44,1.01,3.74.95,6.02-.28,10.95-.27,15.5.02,1.95.12,3.18-.17,4-.94,1-.94,1.2-2.38,1.19-4.25-.09-40.87-.08-82.42-.08-122.61ZM338.94,36.64c-1.12,1.88-.74,3.19-.06,4.04h-.02c-.28.02-.82.06-1.05-.01-.21-1.1-.38-2.72-.05-4.31.05-.26.25-.51.5-.65.18-.1.48-.19.85-.05.14.05.21.1.23.1,0,.08-.06.31-.4.88Z"/>
      <path class="cls-1" d="M1354.92,45.13c-9.8-27.5-31.03-43.35-59.79-44.63-13.9-.62-28.06-.48-41.75-.35-7.42.07-15.09.15-22.63.1-1.83,0-2.92.3-3.67,1.05-.94.93-1.06,2.38-1.06,3.8.09,55.5.08,105.83-.02,153.85,0,1.83.32,2.93,1.07,3.68.93.93,2.35,1.04,3.78,1.04,19.45-.11,39.17-.11,58.62,0,.08,0,.16,0,.23,0,4.05,0,8.03-.59,11.88-1.17,1.39-.21,2.77-.41,4.16-.59,3.35-.43,4.66-2.11,4.39-5.61-.17-2.14,1.27-3.99,2.77-4.88,1.49-.89,3.11-.95,4.32-.17.42.27.83.55,1.23.82,3.13,2.13,6.66,4.54,10.44-.73.09,0,.2-.02.29-.02.72-.05,1.81-.13,2.51-1.03.16-.21.65-.52,1.01-.75.83-.53,1.61-1.03,1.61-1.9,0-.27-.09-.78-.69-1.17-.46-.3-.76-.97-1.07-1.68-.56-1.27-1.41-3.19-3.9-2.59-1.19.29-2.44.39-3.76.5-2.59.21-5.27.43-7.51,2.12-1.13.85-2.07,1.21-2.87,1.09-1.06-.16-1.96-1.15-3.08-2.71-.11-.15-.22-.31-.32-.47-.72-1.06-1.93-2.84-3.98-2.02-1.06.43-2.2.47-3.41.51-1.44.05-2.92.11-4.39.8l-.15.07c-.56.26-1.72.81-2.01.69,0,0-.26-.28-.17-1.59.05-.75-.23-1.2-.48-1.44-.54-.53-1.32-.53-1.86-.49-7.54.64-15.24.56-22.69.49-5.25-.05-10.68-.11-16.03.09-1.37.06-2.2-.1-2.58-.46-.39-.38-.56-1.22-.55-2.73.1-27.55.09-55.57.08-82.66v-22.83c0-.59,0-1.18,0-1.77.01-1.3.02-2.64-.02-3.97-.03-.83.11-1.09.19-1.17.12-.12.43-.18.85-.17,5.19.14,10.46.04,15.56-.06,9.58-.19,19.48-.39,29.11,1.08,9.71,1.48,17.79,6.32,23.35,13.99,11.21,15.46,11.62,33.91,11.12,49.99-.12,3.82-.03,4.18,1.14,7.7l.47,1.43c1.13,3.45,2.66,5.87,6.22,6.77-2.12,1.35-3.78,2.08-5.98,1.36-.15-.05-.37-.18-.59-.31-.72-.42-2.42-1.39-3.59.35-.85,1.25-.17,2.47.28,3.28.2.36.39.69.44.96.1.47.39.81.77,1.11-3.48,1.19-4.95,4.04-6.28,6.61l-.28.54c-1.62,3.11-1.92,5.83-.9,8.08,1.02,2.24,3.25,3.8,6.64,4.63.89.22,1.06.45,1.15,1.11.12.85.23,1.58.88,1.94.62.34,1.19.08,1.92-.25l.23-.1c1.49-.67,2.53-1.06,3.43-.48.71.46.73,1.13.62,2.55-.03.42-.07.84-.06,1.27-.04.08-.12.21-.19.3-.27.42-.69,1.06-.47,1.83.14.51.53.91,1.15,1.2,1.64.77,2.63-.71,3.05-1.34.11-.16.21-.32.32-.44,4.11-4.7,7.39-10.39,10.65-18.45,4.28-10.58,6.41-22.67,6.5-36.95.09-15.18-1.72-27.45-5.71-38.64ZM1346.64,112.57c-.5.28-.83.77-.94,1.38-.03.19-.12.53-.31.64-.17.1-.52.08-.89-.06-.58-.22-1.01-.96-.87-1.54.15-.61.05-1.24-.04-1.85-.07-.47-.17-1.12,0-1.31.04-.05.29-.27,1.31-.27.03,0,.07,0,.1,0,.81,0,1.52-.4,1.96-1.09.34-.54.5-1.23.48-1.96,1.94.95,2.83,1.83,2.54,4.18-.05.43-.08.83-.1,1.2-.02.34-.05.78-.1,1-.17-.01-.53-.09-1.24-.38-.65-.27-1.37-.25-1.92.05ZM1347.21,126.82c-.84,0-1.98-.61-2.9-1.54-.89-.91-1.42-1.97-1.4-2.83.02-.93.26-1.09,1.97-1.32l.39-.05c.26-.04.49-.05.69-.05.39,0,.68.07.83.2.31.25.35,1.01.38,1.74.05.94.11,2.26,1.01,3.03-.32.73-.43.83-.99.83h0Z"/>
      <path class="cls-1" d="M1198.44,138.87c-16.42.09-33.12.1-49.27.1-12.12,0-24.25,0-36.38.04-1.41,0-2.11-.13-2.44-.46-.32-.32-.47-1.04-.46-2.19.18-13.81.18-28.43,0-43.45-.01-1.09.13-1.77.42-2.07.3-.3.99-.43,2.26-.42,12.77.09,25.76.08,38.32.07,4.23,0,8.46,0,12.7,0h6.62c6.04,0,12.08,0,18.12,0h.31c1,.01,2.13.02,2.92-.78.54-.55.8-1.35.78-2.44-.09-5.26-.07-10.49,0-16.73,0-.71-.07-1.73-.78-2.44-.71-.71-1.74-.8-2.45-.78-7.9.06-16.23.06-25.49,0-.67,0-1.55.07-2.19.71-.64.64-.72,1.58-.71,2.32.03,3.1,2.19,4.22,3.93,5.12.34.18.69.35,1.01.55,1.36.8,2.47,2.26,1.51,3.94-.34.59-.8.94-1.35,1.01-.7.09-1.49-.26-2.18-.96-1.35-1.38-3.27-2.78-6.2-1.33-.13.06-.35.11-.57.12.52-2.36-.89-3.74-1.95-4.78-.36-.35-.7-.68-.96-1.03-2.23-2.94-4.92-5.67-9.4-5.67h-.04c-3.7.01-7.4,0-11.1,0-6.72-.02-13.67-.03-20.5.09-1.4.03-2.2-.12-2.55-.48-.35-.35-.51-1.14-.48-2.41.14-6.06.12-12.22.1-18.18-.01-3.88-.02-7.77,0-11.65,0-1.16-.14-2.41-.28-3.63-.29-2.53-.59-5.14.59-6.34,1.33-1.35,4.05-1.04,6.68-.73,1.19.14,2.41.31,3.58.28,22.88-.07,49.49-.12,75.74.05,1.5.02,3.16-.12,4.18-1.2,1-1.05,1.05-2.67.96-4.1-.25-4.33-.26-9.03,0-14.36.05-1.09,0-2.46-.88-3.37-.88-.91-2.22-1.01-3.54-1.02-13.62.08-27.47.07-40.87.06h-28.07c-12.8-.02-25.6-.02-38.4,0-.69,0-1.27-.01-1.78-.02-1.78-.03-2.76-.05-3.46.64-.73.72-.72,1.77-.7,3.87,0,.39,0,.82,0,1.3-.02,52.87-.01,95.72.02,134.84,0,.3-.04.65-.09,1.03-.13,1.15-.3,2.58.66,3.55.62.62,1.55.88,2.85.8-.19,2.05.75,3.69,1.58,5.16.67,1.17,1.29,2.27,1.38,3.51.13,1.81-.34,1.96-.84,2.11-.19.06-.39.11-.58.16-1.1.29-3.14.82-2.46,3.52.63,2.53,2.64,2.86,4.33,2.86h.02c34.67-.05,71.91-.08,109.24,0h.02c1.43,0,2.35-.29,2.98-.93.83-.85.87-2.1.84-3.21-.12-4.94-.24-10.05.03-15.15.08-1.49.02-3.16-1.02-4.25-.84-.88-2.12-1.24-4.29-1.24Z"/>
      <path class="cls-1" d="M128.86,101.62c2.23-1.1,2.16-3.14,2.1-4.64,0-.26-.02-.52-.02-.78.02-2.36.01-4.71.01-7.07,0-1.58,0-3.16,0-4.75,0-.25,0-.51.01-.77.04-1.47.09-3.31-1.22-4.62.73-.44,1.27-1.25,1.27-2.82-.12-26.03-.08-52.14-.03-71.98,0-.9-.09-2.2-.96-3.05-.86-.84-2.1-.93-3.2-.9-5.38.13-11.64.25-17.82-.03-1.76-.08-2.89.21-3.66.95-.98.94-1.11,2.44-1.1,3.91.06,9.28.06,18.71.06,27.83,0,10.1,0,20.55.08,30.82,0,1.37-.15,2.14-.52,2.51-.36.36-1.15.53-2.47.52-24.36-.13-48.45-.13-71.6,0-1.32,0-2.08-.15-2.44-.51-.36-.36-.51-1.14-.5-2.52.08-10.77.08-21.71.08-32.29,0-8.92,0-17.83.05-26.75,0-1.55-.16-2.75-1.01-3.57-.7-.68-1.72-.96-3.31-.9-5.82.21-11.77.21-18.21,0-1.1-.04-2.48.04-3.4.93C.14,2.08.03,3.46.04,4.69c.09,11.16.08,22.52.06,33.49,0,3.81,0,7.63,0,11.44,0,8.22,0,16.44,0,24.66.01,27.49.02,55.92-.1,83.89-.01,2.32.39,3.67,1.33,4.54.86.79,2.03,1,3.21,1,.41,0,.82-.02,1.21-.06,3.91-.33,7.88-.18,10.89-.01,2.29.13,5-.19,5.61-3.92.02-.12.05-.3.08-.46,1.29.92,2.74,1.72,3.85,1.06,1.15-.69.94-2.3.77-3.6-.05-.37-.1-.73-.09-.95.08-19.55.07-39.43.05-58.66v-5.45c-.02-.77-.03-1.5.24-1.77.13-.13.45-.35,1.53-.33,25.03.13,50.3.09,73.88.03h.02c.76,0,1.25.11,1.46.32.21.21.31.73.3,1.55l-.02,1.29c-.09,6.46-.19,13.14.1,19.7.02.39-.1.95-.23,1.54-.28,1.29-.63,2.9.3,4.14.56.75,1.47,1.22,2.77,1.41,0,0,0,0,0,.01.07.27.14.56.23.77.14.36.28.72.43,1.09.13.33.26.66.4,1-.33-.15-.72-.24-1.2-.3,0-.01,0-.02,0-.03-.04-.2-.08-.4-.12-.56l-.25-.93-2.07.47v3.53c-.01,2.58-.02,5.24.03,7.86,0,.11-.03.22-.05.34-.1.56-.37,2.07,1.39,2.66.34.12.65.17.93.17,1.25,0,1.92-1,2.35-1.64,1.5-2.24,1.02-4.49.59-6.48-.14-.67-.26-1.3-.33-1.92.13.42.35.89.87,1.16.45.23.96.22,1.54-.02,1.14-.48,1.99-1.8,1.43-3.19-.97-2.4-.38-4.73.24-7.19.27-1.07.55-2.18.71-3.32l.03-.22c.09-.56.36-2.28-1.15-2.57-.59-.11-1.36-.34-1.63-.76-.3-.47-.09-1.35.14-2.28.1-.43.21-.87.27-1.29.02-.12.05-.26.07-.41.19-.98.42-2.21-.26-3.02-.23-.28-.66-.61-1.39-.61-.01,0-.03,0-.04,0-1.71,0-2.97-.8-3.45-2.19-.75-2.17.38-4.44,1.11-5.6,1.17-1.83,7.53-3.98,8.81-3.6.81,1.93,2.21,2.81,3.58,3.65-.42.09-.83.19-1.21.29-1.25.31-2.33.58-3.46.43-2.06-.26-2.8,1.55-3.19,2.52l-.12.29c-.23.53-.25,1.02-.06,1.46.29.69.95.93,1.43,1.11.14.05.35.13.4.17l.35.31c3.08,2.74,6.26,5.57,6.93,9.12.77,4.02,3.24,4.5,5.23,4.88.56.11,1.1.21,1.61.38.95.31,1.54.07,1.86-.2.46-.37.67-.96.59-1.67-.11-1.04,0-2.14.1-3.3.24-2.62.51-5.59-1.91-8.16l-.15-.16Z"/>
      <path class="cls-1" d="M1058.45,4.74c.05-1.2-.02-2.56-.9-3.46-.89-.92-2.28-1.05-3.43-1.03-39.37.1-74.97.09-108.84-.02-1.72-.04-2.78.31-3.49,1.03-.84.85-.99,2.04-.96,3.69.11,7.02.09,14.16.07,21.06,0,2.65-.01,5.3-.01,7.95v23.26c0,33.45,0,68.03-.06,102.04,0,1.28.12,2.58.99,3.44.83.82,2.07.96,3.2.96.06,0,.12,0,.17,0,9.53-.11,19.22-.09,28.59-.08,3.41,0,6.81.01,10.22.01h52.75l-.83-1.49c-.21-.37-.34-.76-.48-1.18-.4-1.17-.9-2.63-3.17-2.98-1.52-.24-2.3-2.27-2.51-3.43-.15-.8-.24-1.41-.3-1.88-.21-1.44-.35-2.49-2.25-2.32-.47.04-1.02-.3-1.6-.66-1-.62-2.5-1.56-4.16-.3-.77.58-1.11.57-1.2.55-.27-.05-.61-.59-.9-1.06-.43-.69-.92-1.47-1.77-1.82-.1-.04-.19-.14-.21-.2-.01-.05.04-.12.07-.17.44-.61.6-.58,1.62-.07.57.29,1.22.63,1.98.59.18,0,.43.07.69.15.29.08.62.18.98.22.78.08,1.49-.18,2.01-.72.52-.55.79-1.38.69-2.11-.16-1.09-.97-1.77-1.63-2.32-.99-.83-1.19-1.1-.84-1.9l.57-1.32-1.44-.07c-.32-.02-.64-.04-.96-.06-.69-.04-1.4-.09-2.12-.09-3.85,0-7.71,0-11.56-.02-12.18-.02-24.77-.04-37.16.08-1.31.02-2.09-.15-2.46-.53-.38-.38-.54-1.16-.52-2.54.14-13.26.14-27.22.01-42.68-.01-1.32.14-2.06.5-2.41.35-.34,1.09-.5,2.28-.47,6.88.15,13.86.12,20.62.1,2.65-.01,5.3-.02,7.95-.02,2.83,0,4.26,0,5.03-1.01.77-1.01.4-2.4-.28-4.92l-.07-.26c-.65-2.4-.92-3.39,1.51-4.22.89-.3,1.79-1.31,2.19-2.45.42-1.2.26-2.44-.43-3.52-.25-.38-.29-.52-.29-.54,0,0,.07-.14.45-.36,1.45-.84,2.34-2.6,2.43-4.83l.04-1.04h-1.04c-3.44,0-6.88-.01-10.31-.02-8.76-.03-17.82-.06-26.71.11-1.83.04-2.8-.16-3.28-.63-.47-.47-.67-1.45-.63-3.06.28-11.51.29-23.57,0-35.84-.04-1.63.16-2.61.62-3.08.47-.48,1.44-.68,3.24-.67,15.34.09,30.93.1,46.02.1,11.99,0,24.38,0,36.57.05,1.44-.02,2.93-.13,3.87-1.11.94-.99.98-2.48.92-3.68-.23-4.3-.24-8.99-.02-14.76Z"/>
      <path class="cls-1" d="M625.25,141.12c-5.04-13.6-10.25-27.66-15.32-41.51-.15-.41-.29-.82-.43-1.23-.73-2.15-1.53-4.51-3.7-6,.16-.13.3-.28.42-.48.55-.89.24-2.02-.09-2.91-10.69-28.7-21.02-56.95-31.54-85.78-.91-2.49-2.51-2.98-4.57-2.94-6.54.11-13.31.22-20.11-.04-3.63-.13-4.93,1.45-5.95,4.25-12.26,33.73-24.81,68-36.94,101.14-4.3,11.74-8.6,23.49-12.89,35.23-1.74,4.77-3.45,9.55-5.18,14.42-.82,2.3-1.65,4.63-2.49,6.98l-.48,1.34h1.42c2.22,0,4.4,0,6.55-.02,5.51-.02,10.71-.04,15.96.08.07,0,.14,0,.21,0,2.79,0,3.8-1.34,4.58-3.65,1.98-5.81,4.04-11.69,6.04-17.38,2.5-7.1,5.08-14.45,7.51-21.71,1.06-3.17,2.2-4.01,5.07-3.77,2.63.23,5.3.17,7.89.11,1.68-.04,3.41-.07,5.1-.03,2.79.08,4.61-1.28,4.91-3.61.32-2.49.81-2.97,2.75-2.74.8.09,1.67-.3,2.24-.99.56-.69.72-1.56.44-2.38-.41-1.2-.07-2.37.32-3.72.44-1.51.94-3.22.31-5.15l-.14-.46c-.46-1.47-.84-2.73-3.36-2.69-4.15.07-8.27.06-12.63.05-1.27,0-2.54,0-3.84,0,2.48-7.31,5.07-14.62,7.59-21.72,5.08-14.33,10.32-29.11,14.65-43.97,3.03,10.84,6.68,22.14,11.11,34.42.06.17.11.37.17.58.21.78.44,1.67,1.2,2.06.28.14.72.27,1.29.05.27-.1,1.1-.41,1.32-1.24.22-.81-.3-1.45-.68-1.92-.12-.14-.29-.35-.32-.44-.55-1.46-.98-2.98-.33-4.16.15-.27.5-.38.76-.39.3,0,.51.1.56.17,1.27,2,3.28,2.9,5.05,3.69,1.61.72,3.13,1.39,4.03,2.79.42.66.67,1.38.61,1.8-.54,3.72,1.19,6.34,5.16,7.8l.34.12q.69.24.7.64c.07,2.94.14,5.71-1.17,8.31-.33.66-.57.8-1.46.79-1.18-.01-1.49-.31-1.71-.92,0-.05,0-.2.01-.3.03-.42.08-1.13-.42-1.7-.37-.42-.92-.64-1.68-.69l-1.27-.07.23,1.25c.17.91-.23,1.63-.9,2.72-.6.97-1.28,2.08-1.4,3.56l-.12,1.37,1.34-.32c1.05-.25,2.13-.18,3.27-.12,1.97.12,4.19.25,6.3-1.42.3-.24.5-.17.57-.14.22.08.51.38.61.93.05.28.18.55.3.81,0,0,0,.02.01.02-4.28.62-7.32,3.09-9.74,5.45-2.12,2.07-5.07,5.37-6.12,10.07-.25,1.13.12,2.01.41,2.72.28.67.5,1.2.32,1.96-.68,2.87-1.02,4.69-.08,5.88,1,1.27,3,1.27,6.31,1.27.11,0,.21,0,.32,0,.29.01.63.03.99-.03,2.41-.41,3.44.36,4.41,3.32,2.36,7.23,4.87,14.53,7.29,21.6,2.05,5.98,4.18,12.17,6.2,18.27.77,2.34,2,3.25,4.4,3.21,4.6-.06,9.28-.05,13.81-.04,2.12,0,4.23,0,6.35,0,2.43,0,3.64,0,4.29-.94.65-.94.22-2.12-.65-4.47-2.1-5.69-4.21-11.38-6.32-17.07Z"/>
      <path class="cls-1" d="M920.88,4.91c.06-1.26,0-2.67-.91-3.61-.92-.95-2.36-1.08-3.65-1.06-12.92.11-26.05.09-38.75.08-8.82,0-17.65,0-26.47,0-12.41.02-25.25.04-37.86-.1-1.67-.02-3.35.11-4.44,1.19-1.09,1.09-1.23,2.83-1.23,4.39.12,25.34.1,51.11.09,76.04,0,7.53,0,15.06,0,22.59,0,4.59,0,9.18,0,13.77.01,13.33.02,27.12-.07,40.68,0,1.34.12,2.84,1.12,3.81,1,.97,2.54,1.04,3.78.98,5.6-.23,11.33-.23,17.03,0,.18,0,.37.01.55.01,1.09,0,2.23-.16,3.02-.93.94-.91,1.06-2.35,1.05-3.65-.06-10.39-.06-20.95-.06-31.17,0-11.25,0-22.89-.08-34.33-.01-1.51.15-2.31.52-2.69.37-.37,1.2-.54,2.6-.53,11.97.1,24.13.1,35.9.1,9.44,0,19.19,0,28.78.05,1.41,0,2.85-.12,3.75-1.07.71-.74.98-1.83.88-3.52-.28-4.94-.28-9.38,0-13.57.11-1.56.07-3.32-1.01-4.46-.87-.93-2.22-1.31-4.49-1.29-12.32.12-24.84.11-36.96.11-8.96,0-18.22,0-27.33.04-1.23-.01-1.92-.13-2.22-.43-.3-.3-.44-.99-.42-2.11.16-11.87.16-24.21,0-37.72-.01-1.06.12-1.71.4-1.99.28-.27.93-.39,1.99-.36,4.91.13,9.9.1,14.72.08,6.78-.03,13.57-.02,20.35-.03,14.7-.01,29.9-.02,44.84.08,1.3,0,2.75-.11,3.66-1.06.9-.94.96-2.33.9-3.58-.23-4.8-.23-9.76,0-14.75ZM826.08,7.9c-.02,1.91-.3,3.48-1.24,4.99-.22.36-.32.37-.95.34-.03,0-.06,0-.09,0,1.17-.89,1.22-2.38,1.25-3.39.03-.94.08-1.53.44-1.81.07-.05.34-.1.59-.14Z"/>
      <path class="cls-1" d="M284.06,96.93c0-.42,0-1.7-1.4-1.98-.84-.17-1.48-.07-1.96.29-.28.21-.63.62-.68,1.33-.12,1.63-.96,1.92-2.71,2.39-.87.23-1.77.47-2.54,1.02-.02-.15-.03-.35,0-.58.06-.45.24-.93.42-1.44.38-1.05.88-2.4.3-3.86,1.45.43,2.69-.29,3.64-.84.92-.53,1.51-.84,2.14-.63.66.22,1.34.14,1.87-.24.57-.41.9-1.12.9-1.95,0-6.78,0-13.55,0-20.46v-5.62l-1.35.51c-.75.28-1.36.76-1.91,1.18-.33.26-.83.65-.98.67,0,0-.08-.04-.22-.25-.42-.61-.94-1.12-1.45-1.61-1.11-1.08-1.79-1.8-1.76-3.08.02-1.22-.49-1.87-.92-2.2-.5-.39-1.44-.75-3.05-.27-1.2.35-2.09.36-2.64.03-.5-.3-.85-.96-1.04-1.95-.21-1.1-1-2-1.97-2.23-.85-.21-1.69.12-2.29.89-.73.93-1.52,1.16-2.71,1.5l-.23.07c-.99.29-2.65,1.23-2.74,4.29l-.03,1.04,1.04-.02c1.08-.03,1.29.4,1.7,1.62.13.4.27.82.48,1.21-.06,0-.13.01-.21.02-.7.06-1.76.15-2.42,1.33l-.19.34.09.38c.22.89,1,1.15,1.47,1.31.1.03.25.08.33.12,0,.03,0,.09-.02.16-.14.71-.55,2.88.73,4.03.1.09.2.17.31.24-.22.18-.44.43-.64.77-1.02,1.78-.54,3.85,1.15,5.03.26.18.54.3.79.4.07.03.17.07.24.11-.26.56-.69.91-.81.87-1.74-.55-2.95-.51-3.8.13-1.16.87-1.12,2.44-1.08,3.83,0,.33.02.65,0,.96-.1,3.42-.07,6.88-.04,10.23.05,6.34.1,12.9-.69,19.32-1.43,11.54-6.19,18.84-14.98,22.98-10.99,5.18-23.06,5.94-36.89,2.32-11.38-2.98-18.13-9.92-20.64-21.21-.12-.56-.19-1.15-.26-1.78-.23-2.02-.52-4.52-3.11-5.98-.02-.12-.02-.26-.02-.37,2.56-1.97,2.4-4.75,2.26-6.99-.03-.5-.06-.99-.06-1.47.09-21.09.1-42.54.11-63.28,0-11.91,0-23.83.03-35.74,0-.9-.09-2.02-.86-2.77-.76-.75-1.88-.83-2.76-.81-6.1.1-12.41.21-18.59-.04-1.78-.07-2.91.23-3.68.97-.98.94-1.11,2.42-1.1,3.88.07,17.98.07,36.25.07,53.93,0,8.93,0,17.87,0,26.8,0,.85.11,1.69.21,2.5.12.92.23,1.8.18,2.64-.55,10.18-.92,21.03,1.04,31.94,3.29,18.3,13.56,30.98,30.52,37.7,9.43,3.73,19.55,5.59,30.59,5.59,6.84,0,14.04-.71,21.65-2.14,12.16-2.28,22.27-7.67,30.05-16.02,14.28-15.33,13.61-35.07,13.07-50.93v-.16ZM265.71,73.79c.39-.12,1.02.68,1.33,1.62,0,.04,0,.1-.01.17-.1-.06-.25-.2-.52-.52-.19-.22-.4-.47-.66-.68-.19-.15-.39-.31-.6-.45.15-.04.31-.08.46-.13ZM270.87,64.85c-.08.31-.25.41-1.15.57-.44.08-.94.17-1.4.39-.03-.03-.07-.09-.06-.18.06-.79.47-1.37,2.26-1.64.08.04.29.34.35.86Z"/>
      <path class="cls-1" d="M754.29,73.56c.43,1.19.77,2.13.35,3.32-.65,1.86-1.37,4.55-.1,6.51.82,1.28,2.35,2.03,4.52,2.24.12.1.31.35.43.5.12.16.25.31.37.44.62.69,1.39,1.56,2.49,1.49,1.04-.07,1.8-.98,2.35-1.76.6-.86,1.34-1.33,2.05-1.31.71.02,1.42.56,1.99,1.51,1.67,2.78,4.16,4.01,6.12,4.71-.56.68-.75,1.51-.91,2.21-.08.34-.15.66-.25.96-.48-.48-1.1-.74-1.55-.93-.69-.3-.87-.42-.9-.61-.18-1.24-.67-2.14-1.45-2.68-.83-.57-1.93-.7-3.36-.38-.92.2-1.54.59-1.88,1.19-.51.89-.2,1.88.05,2.67.1.31.19.6.23.85.06.42.26.78.44,1.09.06.11.15.26.2.38-.03.01-.06.03-.09.05l-.3.15c-.24.12-.74.37-.86.33,0,0-.16-.07-.38-.55-.32-.71-.94-1.19-1.7-1.33-.87-.16-1.8.16-2.49.85-1.54,1.53-.18,2.9.33,3.41l.6.63c.72.77,1.47,1.56,2.27,2.29.94.86,1.93,1.31,2.86,1.31.29,0,.58-.05.86-.14.65-.21,1.8-.89,2.21-3.01.06-.32.1-.66.13-1,.12-1.32.23-1.32.68-1.33,1.29-.03,1.85,1.61,2,2.11.78,2.58,2.78,2.19,3.74,1.99.31-.06.63-.12.82-.1.8.08,1.43-.09,1.88-.52.72-.69.65-1.71.6-2.46-.01-.16-.02-.32-.02-.46,0-10.69,0-21.38.01-32.06,0-20.73,0-41.47.05-62.2,0-1.31-.28-2.2-.89-2.8-.81-.8-2-.85-3.05-.83l-1.19.02c-4.75.09-9.67.18-14.47-.06-1.48-.08-3.14,0-4.21,1.03-.88.85-1.25,2.12-1.23,4.27.2,23.39.18,44.64-.06,64.97-.01,1.15.35,2.16.67,3.04Z"/>
      <path class="cls-1" d="M777.97,114.65l.44-1.65c.77-2.87.04-4.81-2.26-5.96-.59-.29-1.07-.21-1.37-.09-.61.25-.88.8-.99,1.1-.86,2.41.72,3.59,1.77,4.37.42.31.82.61,1.1.95l.83,1.02c-.13-.05-.26-.11-.42-.15-1.34-.3-2.12.59-2.58,1.11-.12.13-.23.27-.36.39-.98.91-1.24,2.2-1.45,3.24-.19.96-.34,1.55-.7,1.68-1.01.36-1.77.82-2.34,1.35.1-.39.17-.79.18-1.22.11-4.15-4.02-4.35-5.78-4.44-.44-.02-.45-.05-.55-.27-.23-.51-.92-2.06-2.3-2.02-.65.03-1.57.46-2.22,2.36-.47,1.36-.93,1.88-1.79,2.02-.92.14-2.19.45-2.68,1.5-.49,1.05.08,2.21.56,2.99,1.72,2.84,3.52,3.72,5.1,3.72.76,0,1.46-.2,2.08-.49,2.57.08,4.65-.53,5.99-1.77-.32,1.21-.26,2.48-.21,3.57.04.83.07,1.61-.04,2.24-.09.53-.16.99-.22,1.39-.08.53-.16,1.12-.25,1.35-.38.02-1.5-.25-1.94-.36-.9-.22-1.81-.35-2.69-.48-.39-.06-.79-.11-1.18-.18l-1.09-.18-.07,1.1c-.02.34-.09.7-.16,1.08-.23,1.28-.56,3.03,1.13,4.58.56.52.34,1.37-.09,2.71l-.03.1c-.16.51-.31.59-.31.59-.14.08-.82-.17-1.22-.31-.69-.24-1.54.03-2.6.83-1.26.95-2.45.55-3.14-.15-1.25-1.25-2.09-2.25-1.5-3.78.57-1.48.55-2.67-.05-3.54-.6-.88-1.73-1.33-3.35-1.33h-.02c-.59,0-1.24-.2-1.93-.42-.2-.06-.4-.12-.6-.18-.05-.1-.1-.19-.15-.29-.3-.57-.62-1.16-1.09-1.72-1.15-1.34-2.14-2.5-2.09-2.93.06-.46,1.47-1.45,2.84-2.41.47-.33,1.73-1.22,1.47-2.39-.25-1.15-1.7-1.41-2.17-1.5-1.2-.22-1.45-.48-1.46-.48,0-.03,0-.38.81-1.35.61-.73.86-1.75.64-2.6-.18-.7-.66-1.24-1.34-1.5-.08-.05-.27-.26-.4-.41-.38-.44-.9-1.03-1.7-1.03h-.03c-.51,0-.98.27-1.38.76-.83,1.02-1.52.94-3,.66-.22-.04-.44-.08-.67-.12-1.45-.24-2.45-.02-3.07.67-.55.62-.67,1.5-.35,2.61.14.47.45.82.71,1.1.03.04.07.08.11.12-.36.18-.94.07-1.34-.27-2.08-1.77-4.26-1.44-6.35-1.13-.42.06-.85.13-1.29.18l-1.2.14.37-1.03c.91-2.53.25-3.96-.7-5.56-.72-1.2-.9-2.27-.51-3.02.37-.72,1.27-1.17,2.53-1.26l1.05-.08-.13-1.04c-.7-5.56-2.14-11.18-7.88-14.54l-.86-.51-.51.86c-.58.98-1.5,1.06-3.09,1.11-1.07.03-2.25.07-3.29.61-.45-.76-1.04-1.41-1.62-2.04-1.04-1.15-1.94-2.15-1.79-3.52.04-.33.05-.69.07-1.05.08-1.93.23-2.96,2.36-3.36,1.22-.23,3.4-.88,4.4-2.68.64-1.16.66-2.54.05-4.1-.11-.28.19-1.32.83-2.19.08-.11.17-.24.26-.37.18-.27.6-.89.75-.96,0,0,.11.04.31.28,1.83,2.2,3.91,1.93,5.92,1.68l2.14-.26-5.43-8.37c-4.07-6.28-8.07-12.45-12.08-18.6-2.03-3.12-5.38-5.9-8.66-4.36-1.47.69-2.81.93-3.59.63-.32-.12-.52-.33-.66-.65-.44-1.06-1.24-1.89-1.95-2.62-.96-1-1.55-1.64-1.38-2.39.76-3.3-.84-5-2.39-6.64l-.32-.34c-.68-.73-.59-1.62-.32-2.16.34-.66.98-1,1.74-.91,1.66.21,2.88.16,3.38-.72.52-.92-.17-1.82-.78-2.61-.17-.22-.35-.45-.49-.67-4.93-7.62-9.86-15.23-14.82-22.83l-.19-.3c-.52-.82-1.17-1.85-2.18-2.05-3.17-.62-6.34-.34-9.41-.07-2.09.18-4.25.37-6.34.26-.48-.03-.92.11-1.35.24-.7.21-1.31.4-2.02,0-1.98-1.1-3.59-1.3-4.79-.59-1.25.73-1.88,2.36-1.88,4.83v7.22c0,22.35-.01,44.69,0,67.04,0,.8-.02,1.59-.05,2.39-.1,3.55-.21,7.21,1.72,10.67-.5-.04-.99.03-1.38.39-.75.68-.47,1.71-.31,2.33.03.11.06.2.07.23-.03,10.6-.04,21.21-.05,31.81,0,10.85-.02,21.69-.05,32.54,0,.96.1,2.17.91,2.96.72.71,1.75.83,2.64.83.1,0,.19,0,.28,0,2.96-.08,5.99-.06,8.91-.05,2.09.01,4.17.02,6.25,0,.81,0,1.49,0,2.07,0,1.93.02,2.89.03,3.59-.67.7-.71.68-1.73.64-3.58-.01-.54-.02-1.16-.02-1.89.01-12.3.01-24.6,0-36.9,0-17.11,0-34.8.03-52.21.01-4.32-.2-8.71-.41-12.95-.24-4.95-.49-10.04-.4-15.21,2.42,3.41,4.56,6.94,6.38,10.5,1.52,2.99,3.24,5.88,4.91,8.68.9,1.51,1.8,3.03,2.68,4.56,1.91,3.34,4.09,6.58,6.2,9.71.9,1.33,1.79,2.66,2.67,4,1.19,1.82,2.39,3.64,3.59,5.46,1.78,2.71,3.57,5.42,5.34,8.14,1.55,2.39,3.1,4.78,4.64,7.17,1.32,2.05,2.65,4.11,3.98,6.16,2.03,3.12,4.06,6.24,6.18,9.48l3.93,6.01.15-.42,6.18,9.51c7.31,11.24,14.22,21.86,21.22,32.72,1.05,1.63,2.38,1.76,3.65,1.75h2.15c5.84-.03,11.88-.06,17.82.02.06,0,.11,0,.17,0,.91,0,1.91-.12,2.62-.82.76-.75.85-1.85.85-2.72-.04-8.57-.05-17.14-.05-25.71,0-5.66,0-11.31-.02-16.97,0-.13.02-.26.04-.41.06-.51.19-1.69-.71-2.36ZM745.58,138.78c-.47.16-.87.44-1.15.63-.2.14-.56.4-.68.4h0s-.06-.02-.18-.13c-.41-.4-.36-.46-.23-.63.41-.54.72-1.13,1.02-1.69.24-.46.48-.9.74-1.27-.06.82-.07,1.83.48,2.71Z"/>
      <path class="cls-1" d="M260.26,28.48c1.11.77,2.54.94,3.95.46,1.57-.53,2.92-.49,4.67.15.38.14.76.15,1.06.16.1,0,.24,0,.33.02,0,.02.01.05.02.09.02.14.02.22.03.24-.1.05-.33.11-.49.15-.26.06-.55.14-.84.27-1.25.57-2.93,1.5-3.08,3.05-.15,1.49,1.18,2.63,2.2,3.35.96.69,1.7,1.64,2.48,2.65,1.22,1.57,2.48,3.19,4.72,4.02.34.13.96.44,1.21,1.13.25.68.09,1.58-.48,2.59l-1.32,2.38,2.55-.95c.6-.22,1.06-.43,1.42-.6.29-.13.61-.28.67-.29,1.64.26,2.82.03,3.63-.67,1.16-1.02,1.21-2.77,1.17-4.47-.1-3.76-.08-7.59-.06-11.3.01-2.82.03-5.73-.01-8.6-.02-1.59,0-3.18.02-4.76.06-4.62.12-9.4-.86-14.13-.02-.1.05-.38.1-.56.13-.49.32-1.23-.18-1.87-.53-.66-1.48-.73-2.25-.71-4.98.12-10.05.1-14.95.07-1.49,0-2.98-.02-4.47-.02-.86,0-1.78.05-2.46.74-.48.48-.71,1.15-.7,2.06.02,2.54,0,5.07,0,7.61-.02,4.66-.03,9.47.12,14.21.05,1.49.71,2.79,1.82,3.56Z"/>
      <path class="cls-1" d="M1050.04,71.7c.04-1.08-.03-2.43-.92-3.31-.69-.69-1.69-.97-3.25-.91-3.48.13-7.04.1-10.48.08-1.45-.01-2.9-.02-4.35-.02-2.64-.02-4.8.88-6.05,2.58-1.22,1.66-1.47,3.92-.7,6.37.09.29.24.54.37.75.01.02.02.04.04.06-.24.03-.52-.14-.73-.3-.49-.39-1.98-1.58-3.36-.97-1.42.64-1.53,2.7-1.57,3.38-.03.58-.14,1.18-.25,1.81-.27,1.52-.57,3.25.24,5.04.92,2.03,2.17,4.15,5.27,4.15.27,0,.56-.02.86-.05,2.17-.24,4.45-.19,6.65-.13,2.06.05,4.12.05,6.18.02,2.4-.03,4.87-.06,7.28.07,1.32.07,2.8.02,3.78-.96.75-.75,1.07-1.88.98-3.56-.2-4.07-.21-8.42-.02-14.1Z"/>
      <path class="cls-1" d="M576.05,109.91c.18-.87-.12-1.65-.36-2.27-.09-.24-.23-.6-.23-.68.31-.89.58-2.01-.05-2.8-.63-.78-1.65-.66-2.4-.57-.18.02-.46.05-.63.05l-.7-.99-.82,1.13c-.5.69-1.31,1.1-2.26,1.57-1.27.63-2.7,1.34-3.67,2.94l-.52.87c.07-.87-.07-1.81-.79-2.65.2-.3.41-.73.23-1.25-.25-.72-1.02-.9-1.28-.95-1.86-.42-2.41,1.4-2.59,2-.49,1.65-1.33,2.67-2.73,3.31-1.22.56-1.5,1.68-1.7,2.49-.12.48-.22.89-.46,1.15-.41.46-.54,1.07-.33,1.64.23.64.85,1.16,1.52,1.25.52.08,1.01-.12,1.31-.52.71-.96,1.35-1.48,1.85-1.5.79-.05,1.73,1.15,2.59,2.19.62.76,1.76.75,2.77.75.15,0,.3,0,.44,0,.92.02,1.84.03,2.82.03.6,0,1.22,0,1.89,0h5.1s-2.04-1.76-2.04-1.76c-1.08-.93-1.27-1.68-1.1-2.04.14-.3.55-.46.99-.37.91.16,2.03.26,2.73-.41.65-.62.54-1.48.47-2.06-.02-.19-.06-.46-.04-.57ZM564.04,110.92c.06-.22.13-.47.2-.73l1.77-.4c.55-.12,1.53-.24,1.99.36.29.39.27.91.14,1.15l-.21.39c-.68,1.29-1.37,2.43-2.29,2.26-.49-.09-1.14-.32-1.5-.89-.32-.51-.36-1.23-.1-2.13Z"/>
      <path class="cls-1" d="M343.27,6.79l1.09.02-.08-1.09c-.15-2.09-.79-3.54-1.94-4.44-1.85-1.44-4.66-1.09-7.38-.61l-.08,1.95c1.33.35,2.29,1.12,3.31,1.92,1.38,1.09,2.81,2.22,5.09,2.25Z"/>
    </g>
  </g>
</svg>