<?xml version="1.0" encoding="UTF-8"?>
<svg id="Layer_2" data-name="Layer 2" xmlns="http://www.w3.org/2000/svg" viewBox="0 0 1100.65 452.39">
  <defs>
    <style>
      .cls-1 {
        fill: #e41f1b;
      }

      .cls-1, .cls-2 {
        stroke-width: 0px;
      }

      .cls-2 {
        fill: #bfbebf;
      }
    </style>
  </defs>
  <g id="Livello_1" data-name="Livello 1">
    <g>
      <path class="cls-2" d="M390.51,141.71c-.54-.1-1.08-.2-1.63-.3-.48,2.26-.96,4.52-1.45,6.78.66.12,1.32.24,1.98.37.37-2.28.73-4.57,1.1-6.85M552.85,128.82c.67-.43,1.33-.85,2-1.28-.84-1.38-1.69-2.76-2.53-4.14-.55.64-1.67,1.48-1.54,1.89.43,1.27,1.34,2.37,2.07,3.54M426.05,118.98c-.72.23-1.43.45-2.15.68.52,1.81,1.03,3.62,1.55,5.44.67-.2,1.34-.39,2.01-.59-.47-1.84-.94-3.69-1.41-5.53M470.1,126.39c.74,0,1.47,0,2.21,0-.12-1.71-.19-3.43-.44-5.13-.02-.15-1.15-.14-1.77-.21v5.33ZM581.73,119.95c-.64-.17-1.28-.33-1.92-.5-.58,2.07-1.16,4.14-1.75,6.21.67.17,1.34.35,2.01.52.55-2.08,1.1-4.16,1.66-6.23M559.07,127.29c.42.07.83.14,1.25.22v-7.31c-.42,0-.83-.02-1.25-.03v7.12ZM422.03,134.59c2.44-3.3,2.24-5.47.17-7.32-.35-.31-1.57.34-2.39.54.65,1.99,1.3,3.99,2.22,6.77M386.55,144.54c-.2-3.86-.34-6.62-.48-9.38l-1.14.07q-1.14,7.36,1.62,9.31M628.1,137.46c.34.05.67.1,1.01.15.37-1.62,1.04-3.26.99-4.87-.04-1.05-1.13-2.06-1.75-3.09-.48,1.06-1.37,2.13-1.35,3.18.03,1.55.7,3.09,1.1,4.63M779.01,149.71c-.62-2.89-.92-4.84-1.54-6.69-.1-.29-1.6-.12-2.45-.16.51,1.9.99,3.81,1.57,5.7.07.24.64.33,2.42,1.16M395.78,132.42c-.84-.21-1.67-.43-2.51-.65-.51,1.96-1.05,3.91-1.41,5.89-.02.09,1.69.49,2.6.75l1.32-5.99ZM403.76,129.15c-.49,0-.98,0-1.47,0v7.89c2.76-2.56,3.56-5.16,1.47-7.89M409.38,142.8c.55-.02,1.1-.04,1.65-.06,0-2.14.15-4.29-.09-6.4-.07-.59-1.28-1.04-1.96-1.56-.34.77-1.05,1.6-.95,2.31.27,1.93.88,3.81,1.35,5.71M613.75,38.2c-.25-.27-.49-.53-.74-.8-4.6,3.28-9.2,6.56-13.81,9.84.3.41.6.82.9,1.22,4.55-3.43,9.09-6.85,13.64-10.27M553.43,135.42c-.75-.28-1.5-.56-2.25-.84-.74,1.45-2,2.9-2.02,4.36,0,.79,2.1,1.61,3.25,2.42.34-1.98.68-3.96,1.01-5.95M398.41,147.19c.62-.07,1.24-.13,1.87-.2.22-2.1.57-4.2.56-6.29,0-.63-1.05-1.25-1.62-1.88-.54.5-1.55,1.02-1.53,1.51.09,2.29.46,4.58.73,6.87M463.75,134.29c4.83-.43,4.83-2.51,3.71-4.67-.48-.93-1.94-1.36-2.95-2.02-.24,2.1-.48,4.21-.76,6.69M513.2,146.37c4.14-2.03,3.85-4.53,3.52-6.9-.09-.61-1.09-1.62-1.5-1.54-.74.14-1.85.91-1.93,1.52-.24,1.99-.09,4.03-.09,6.93M651.18,22.76c-.17-.26-.33-.52-.5-.78-6.57,4.11-13.15,8.22-19.72,12.32.22.34.43.68.65,1.02,6.52-4.19,13.05-8.38,19.57-12.56M548.11,135.5c.58-1.7,1.29-2.68,1.08-3.39-.45-1.54-1.28-3-2.17-4.35-.17-.26-2,.17-2,.27.02,1.62,0,3.31.44,4.84.25.83,1.37,1.41,2.64,2.62M448.4,135.75c0-2.47.16-4.47-.08-6.43-.09-.69-1.07-1.42-1.81-1.79-.32-.16-1.24.4-1.59.85-1.88,2.43-.47,6.05,3.49,7.37M455.68,140.68c-1.32-1.63-2.3-2.84-3.28-4.05-.82,1.05-2.47,2.29-2.28,3.09.38,1.59,1.78,2.93,2.75,4.38.81-.98,1.61-1.97,2.8-3.43M418.04,142.59c.47,0,.94.02,1.41.02.24-1.9.85-3.86.57-5.68-.15-.97-1.85-1.7-2.84-2.55-.41,1.16-1.29,2.4-1.11,3.46.28,1.65,1.28,3.17,1.98,4.74M669.53,130.24c-3.45,5.24-3.44,6.06-.09,10.87,3.2-3.46.64-6.89.09-10.87M527.14,135.49c.66,0,1.33.02,1.99.02.49-2.09,1.18-4.17,1.36-6.29.06-.66-1.18-1.86-1.98-2.01-.57-.11-1.98,1.12-1.99,1.77-.04,2.16.38,4.34.62,6.5M445.73,147.48c1.54,1.55,2.65,2.66,3.76,3.78.71-1.43,1.98-2.88,1.95-4.3-.02-1.14-1.61-2.25-2.5-3.38-.93,1.12-1.85,2.24-3.21,3.9M473.69,137.7c-1.37-1.82-2.32-3.09-3.28-4.36-.9,1.27-2.46,2.51-2.53,3.82-.07,1.37,1.31,2.81,2.06,4.22,1.11-1.09,2.23-2.19,3.74-3.68M444.16,145.54c3.51-5.26,2.79-8.25-2.27-8.95.3,3.11-1.45,6.58,2.27,8.95M405.16,154.45c3.33-4.76,3.09-7.31-.86-10.68-2.25,3.63-2.21,7.03.86,10.68M373.92,154.17c1.4,2.13,2.53,3.86,3.67,5.59.81-1.24,2.44-2.62,2.25-3.69-.3-1.69-1.8-3.17-2.8-4.73-.85.77-1.7,1.55-3.12,2.83M529.77,153.69c3.16-3.74,2.17-6.36.56-8.78-.44-.66-1.98-1.26-2.6-.98-.74.34-1.65,1.86-1.42,2.5.81,2.29,2.06,4.42,3.46,7.25M479.7,140.84c.61-.09,1.23-.19,1.84-.28,0-2.46.31-4.97-.15-7.34-.18-.9-2.11-1.47-3.23-2.19-.47,1.14-1.56,2.44-1.3,3.38.61,2.23,1.86,4.29,2.85,6.42M673.5,149.8c4.17-2.09,5.3-7.88,2.66-10.14-.61-.52-1.77-.75-2.56-.56-.5.12-1.14,1.25-1.09,1.88.19,2.78.6,5.55.99,8.82M679.53,159.02c4.44-5.96,4.31-10.81-.21-13.55-2.74,4.63.54,9.08.21,13.55M520.82,155.04c1.03,1.12,1.62,1.67,2.1,2.31.57.75.93,1.67,1.56,2.36,2.11,2.33,5,.3,4.03-3.08-.61-2.12-2.33-3.93-3.55-5.88-1.41,1.46-2.82,2.92-4.15,4.29M502.26,143.17c.41-.02.82-.03,1.23-.05-1.32-4.42-2.58-8.85-4.06-13.22-.16-.46-1.76-.91-2.39-.65-2.57,1.09-3.31,6.16-1.24,8.13,2.09,1.99,4.3,3.86,6.46,5.78M426.52,148.79c.95-3.84,1.94-7.68,2.81-11.54.13-.59-.07-1.45-.45-1.91-.63-.78-1.52-1.34-2.3-2-.53.71-1.19,1.36-1.56,2.15-.78,1.69-1.15,3.62-2.15,5.15-2.45,3.73-1.21,6.85,3.65,8.16M418.21,151.03c.68,2.9,1.24,5.28,1.86,7.94,4.09-3.57,1.06-13.17-4.7-16.94-2.52,2.52-2.77,8.49-.19,9.96.8-.25,1.76-.55,3.03-.96M442.13,155.95c0-3.41.71-6.33-.19-8.61-.96-2.43-3.46-4.25-5.24-6.37-.34-.4-.48-.97-.71-1.46-.4-.84-.79-1.67-1.17-2.47-4.58,4.28-4.76,10.37-.86,11.21,3.98.86,5.1,3.4,6.54,6.3.78,1.56,1.82,3.04,2.97,4.35.51.59,1.74,1.11,2.37.88.67-.24,1.42-1.39,1.42-2.15,0-1.42-.54-2.83-.91-4.53-1.61,1.09-2.53,1.7-4.22,2.84M457.88,152.66c.87-1.24,2.02-2.37,2.56-3.75.99-2.49,1.33-5.27,2.49-7.66,1.45-2.99.59-4.79-2.42-6.57-2.28,6-6.04,11.44-2.54,18.07-.8-.61-1.59-1.21-2.39-1.82.35,3-5.8,5.58-.34,8.52,2.41-1.74,3.74-3.78,2.64-6.8M520.12,136.91c.72,2.24,1.44,4.48,2.17,6.72.65.03,1.3.06,1.95.08.69-1.62,2.09-3.31,1.94-4.84-.49-4.99-3.79-2.2-6.17-1.83.51-1.53,1.59-3.13,1.39-4.56-.21-1.49-1.54-2.89-2.64-4.11-.18-.2-2.03.51-2.43,1.2-1.39,2.37.8,6.39,3.79,7.34M477.96,154.63c-1.13-1.32-2.43-2.53-3.34-3.98-1.33-2.14-2.71-3.09-4.57-1.19-1.06-2.97-2.11-5.94-3.16-8.9-.48.1-.96.2-1.45.3-1.43,8.87-8.43,16.29-6.85,26.18-.9.22-2.27.55-3.74.91-.16-.61-.15-1.4-.53-1.88-1.21-1.54-2.56-2.96-3.86-4.43-.39,1.96-.98,3.9-1.11,5.88-.07,1.14.62,2.32.19,4.09-1.63-2.24-3.18-4.56-4.94-6.7-.95-1.15-2.29-1.99-4.32-3.71q-.17-2.91-10.05-13.23c-2.45,6.65,4.06,10.55,4.33,16.75-2.75-2.48-5.2-4.7-7.73-6.98-4.61,1.91-4.76,2.56-2.28,9.47-2.4-3.16-4.81-6.31-7.21-9.47-.39.17-.77.34-1.16.52.31,1.58.64,3.16.91,4.74.4,2.32.51,4.28-2.78,4.68-1.28.16-2.41,1.61-3.5,2.41,0-1.67-.11-3.63.05-5.57.08-.9.62-1.8,1.09-2.63.25-.44.87-.67,1.19-1.09,1.67-2.2,2.7-4.61.63-6.99-.66-.76-2.63-1.39-3.29-.97-2.44,1.56-3.2,3.92-1.75,6.7.11.2.01.52.01,1.6-4.64-4.28-8.88-8.19-13.11-12.1-4.01,4.42-3.78,5.6,1.73,8.53.51.27.82,1.05,1.07,1.65.59,1.45,1.08,2.93,1.6,4.36-1.05.21-2.45.48-3.35.66-2.3-9.79-11.65-14.46-16.25-22.54-.35.1-.69.2-1.03.3.48,3.79-.36,9.41,1.76,10.95,3.26,2.38,3.71,8.85,9.72,7.72.39,2.31-1.3,4.13-3.05,2.93-.61-.41-.84-1.34-1.41-1.84-.58-.51-1.37-.77-3.39-1.84.37,3.43.65,6.02,1.04,9.67-1.8.11-4.42.27-6.53.4-5.41-7.06-4.62-14.6-3.67-22.16.07-.52.02-1.29.33-1.49,4.23-2.77,2.67-8.68,7.09-11.3-.26-.26-.52-.51-.78-.77-1.4.45-2.79.9-4.19,1.36.15-.31.31-.63.46-.94-2.94-1.97-5.89-3.91-8.8-5.92-1.03-.71-2.01-1.53-2.89-2.41-.1-.1.69-1.42.85-1.38,1.11.31,2.26.67,3.2,1.31,1.76,1.19,3.38,2.58,4.74,3.64,3.5-2.48,6.77-4.6,9.79-7.04,1.13-.91,2.63-3.36,2.31-3.74-1.54-1.86-3.46-3.62-5.61-4.68-1.42-.69-3.45-.13-5.6-.13.17-1.4.3-2.5.48-4.02,1.95.82,3.44,1.45,5.93,2.49-1.19-2.07-1.93-3.35-2.96-5.14,6.19-.79,12.26-1.7,18.35-2.31,27.97-2.81,55.93-5.6,83.92-8.26,15.67-1.49,31.4-2.48,47.05-4.19,4.16-.45,8.74-1.87,12.04-4.31,9.91-7.35,19.58-15.09,28.81-23.28,30.42-26.97,65.05-47.01,102.13-63.14.25-.11.49-.23.74-.33,7.34-2.88,7.45-2.85,12.23,3.47-.54.75-1.13,1.57-1.62,2.24,1.46,1.89,2.81,3.64,4.25,5.51-1.3.59-2.89,1.28-4.46,2.01-1.57.73-3.13,1.51-4.45,2.93,3.61-1.1,7.23-2.2,10.84-3.29.14.34.28.67.43,1.01-5.09,2.59-10.18,5.19-15.27,7.79.07.18.14.35.21.53,5.22-1.9,10.43-3.8,15.65-5.7.38.43.76.86,1.14,1.29-1.35,2.42-2.7,4.84-4.12,7.38.73-.07,1.84-.34,2.92-.25.91.08,1.79.56,2.69.86-.43.89-.63,2.1-1.33,2.61-1.5,1.09-3.26,1.82-5.28,2.89,2.6-.18,4.74-.32,6.88-.47.23.54.46,1.09.69,1.63-1.41.59-2.83,1.19-4.24,1.78.25.41.49.83.74,1.24,1.45.77,2.9,1.54,4.92,2.62-1.82,1.46-3.33,2.67-4.63,3.7,1.25.28,2.61.57,3.97.87-1.23,1.21-2.47,2.42-3.76,3.69h3.87c-.76,2.16-1.42,4.04-2.08,5.91,4.51,1.5,5.03,4.33,1.34,8.46,1.07.22,2.01.41,3.23.66-.56.94-1.06,1.79-1.61,2.71,2.02,1.05,3.92,2.04,6.02,3.13-.79.75-1.61,1.54-2.56,2.44,1.41.53,2.59.98,3.84,1.45-1.5,4.49,3.49,8.94-.21,13.4,3.35,1.18,7.01,2.46,10.94,3.84-2.4,4.72-7.33,3.22-11.9,5.69,2.4.73,3.7,1.3,5.06,1.52,26.4,4.25,52.79,8.55,79.22,12.58,3.32.51,4.26,2.93,6.04,4.82.86.91,1.85,1.7,3.2,2.91.29-2.43.01-4.16.75-5,.59-.66,2.45-.44,3.7-.25,14.63,2.23,29.25,4.52,43.87,6.8.93.15,1.84.4,3.37.73-2.84,8.28-8.78,13.46-14.25,17.11-3.11-.93-5.15-1.43-7.1-2.15-1.3-.48-2.45-1.61-3.76-1.8-1.69-.25-3.49.28-5.23.21-1.94-.08-3.86-.46-5.9-.97-1.9-.47-3.8-.99-5.72-1.39-.73-.15-1.62-.26-2.26.02-3.36,1.45-6.68,3-9.98,4.58-.34.17-.53.78-.67,1.22-.2.63-.08,1.71-.44,1.89-4.1,1.99-4.68,6.82-7.84,9.6-1.25,1.1-2.46,3.21-2.29,4.7.17,1.47,2.11,2.74,3.28,4.1.46-.07.92-.14,1.38-.22-1.65,3.59-3.31,7.18-4.96,10.77-.27-.1-.53-.2-.8-.3.58-1.55,1.37-3.06,1.68-4.66.29-1.47.46-3.18-.04-4.51-.39-1.05-1.88-1.69-2.88-2.52-.7.92-1.53,1.76-2.08,2.76-1.52,2.73-2.83,5.57-4.44,8.24-.39.65-1.62.78-2.47,1.16.07-.92-.15-2.02.27-2.73,2.03-3.45,4.52-6.66,6.3-10.24,1.7-3.41-.6-5.69-3.42-8.09v7.92c-2.56-.41-4.32-.7-6-.97,0-1.39,0-3.39,0-5.38,1.44-1.45,3.57-2.7,4.08-4.43.36-1.2-1.51-3.05-2.38-4.62-.52.17-1.04.33-1.56.5v8.67c-.61-1.08-1.87-2.28-1.7-3.22.45-2.53-.75-3.36-2.77-4.03-2.95-.98-6.68-.42-7.34-5.37-.23-1.69-3.76-3.21-6.03-4.3-3.76-1.8-7.78-3.02-11.56-4.77-3.04-1.4-5.37-1.66-7.72,1.4-1.02,1.33-3.3,2.17-5.09,2.34-4.43.41-7.26,2.29-8.35,5.81h-8.62c-.02-.2-.07-.93-.23-2.92-2.66,1.68-4.79,3.02-7.54,4.75-.13-1.69-.31-4.08-.51-6.79-4.86,2.65-5.31,2.49-7.66-2.07-.22-.43-.83-1.01-1.19-.96-1.18.15-2.32.55-3.48.86.6,2.13-4.97,2.49-1.49,5.72,1.15,1.06.96,3.5,1.54,5.26.39,1.17,1.04,2.26,1.68,3.62-2.76,1.22-2.1,3.27-1.66,6.31.42,2.92,1.11,6.91-1.89,9.69-1.13,1.05-1.98,2.41-3.41,4.18-2.25-3.09-4.65-6.38-7.18-9.85-1.33.89-2.52,1.68-4.36,2.9.57-1.95,1.53-3.42,1.22-4.54-.47-1.72-1.82-3.2-2.79-4.78-.84,1.34-2.03,2.59-2.42,4.05-.36,1.35.12,2.93.24,4.56-.97.34-1.92.67-3.96,1.39.4-2.99.23-5.61,1.15-7.75,2.38-5.54,2.02-7.12-3.39-9.88-.12-.79,0-1.74-.4-2.34-.91-1.36-2.08-2.54-3.14-3.79-.73,1.72-2.21,3.52-2.03,5.14.37,3.41,2.25,3.59,5.66.87.49,3.14.98,6.28,1.59,10.19-2.68-1.74-4.77-4.57-7.43-.63.66-3.97-.49-6.76-3.35-9.09-2.38-1.94-2.07-7.08-7-5.71-1.03-1.9-1.96-3.63-2.9-5.35-.35.12-.71.24-1.06.37.14,1.87.29,3.74.45,5.78-3.73-1.69-6.29-.43-7.92,3.35-.51,1.18-1.57,2.12-2.37,3.16-.65-.82-1.26-1.68-1.95-2.47-2.39-2.71-4.71-5.48-7.31-7.96-.36-.34-2.63.51-3.22,1.36-1.77,2.55-2.99,5.47-4.75,8.02-.64.93-2.2,1.22-3.34,1.8-.38-.76-.75-1.52-1.13-2.28,1.02-.13,2.89-.17,2.92-.42.26-2.19.39-4.45.1-6.63-.1-.71-1.49-1.44-2.42-1.74-.36-.12-1.56.92-1.58,1.46-.06,2.17.19,4.34.33,6.52-1.49.05-2.97.1-4.46.15-.06-2.02.24-4.16-.32-6.03-.35-1.15-2.25-2.8-3.05-2.6-1.17.29-2.62,1.93-2.83,3.18-.56,3.45,2.78,6.05,6.33,5.3.19,2.15.38,4.3.59,6.68-3.46-2.33-4.27.46-5.5,3.71-2.36-4.41-4.47-8.13-6.28-11.98-.28-.59.72-1.87,1.29-2.73,1.03-1.58,2.7-2.97,3.1-4.67.28-1.21-1.09-2.8-1.72-4.22-.97.84-2.02,1.61-2.88,2.55-.7.77-1.16,1.75-1.73,2.64-.64-.76-1.26-1.54-1.93-2.26-1.01-1.07-2.06-2.1-3.1-3.14-.71,1.49-1.74,2.91-2.05,4.48-.24,1.21.41,2.6.83,4.77-2.32-2.95-4.33-4.74-7.12-1.74-.42.45-1.64.25-2.48.19-2.67-.2-5.34-.47-8.96-.8.67,2.63,1.05,4.12,1.48,5.82-3.05,1.2-2.96-2.03-4.17-3.52-.97-1.19-2.08-2.26-3.13-3.39-.34,1.41-1.02,2.84-.95,4.23.11,2.07.75,4.12,1.05,5.65-2.47.24-5.25.5-8.03.76.03.26.06.51.08.77-1.53-.82-3.06-1.64-4.93-2.64-.48,2.42-.83,4.18-1.18,5.95-.38-.03-.76-.06-1.14-.1.06-1.24.05-2.5.2-3.73.21-1.73,1.03-3.57.66-5.13-.3-1.27-1.98-2.22-3.05-3.31-.73.93-1.54,1.8-2.17,2.79-.95,1.48-1.77,3.03-3.13,5.4-.47-3.19-.6-5.18-1.12-7.06-.2-.71-1.29-1.64-1.96-1.62-.68.02-1.71.95-1.95,1.69-1.11,3.47-1.39,6.89,1.84,9.9.82-.96,1.55-1.81,2.28-2.66.35.14.71.28,1.06.41-.91,2.47-1.91,4.92-2.71,7.42-.66,2.06-1.93,4.43-1.43,6.24.56,2,2.82,3.53,4.35,5.27.42-.12.83-.23,1.25-.35-.8,1.77-1.61,3.53-2.48,5.44-1.74-3.45-3.05-6.04-4.37-8.64-.56.06-1.12.11-1.67.17-.53,1.94-1.46,3.89-1.46,5.83,0,1.8,1.03,3.59,1.6,5.39-.29.18-.58.36-.87.54-2.34-2.85-4.55-5.81-7.08-8.48-.86-.9-2.5-1.06-3.79-1.56l.1.1c-.42-2.74-.84-5.47-1.26-8.21,1.09.41,2.18.82,3.36,1.27,1.61-3.84,2.64-7.58-1.4-10.99-2.44,2.8-4.03,5.55-2.31,9.16-1.82.53-3.64,1.06-5.71,1.66-.84-1.68-2.11-4.21-3.46-6.91-3.9,1.82-1.17,3.69.15,5.6-5.89.13-2.41,5.55-5.28,8.29,0-2.04-.29-3.56.05-4.91,1.3-5.11.06-9.36-3.75-12.97-1.28-1.21-2.33-2.66-3.59-3.89-2.55-2.48-3.72-5.06-2.01-8.68.67-1.43.11-3.43.11-5.18-.46-.11-.93-.23-1.39-.34-.68,1.14-1.25,2.36-2.06,3.39-.64.82-1.57,1.4-2.37,2.09-.62-.73-1.38-1.38-1.82-2.21-.61-1.15-.97-2.43-2.5-3.78-.37,1.03-1.14,2.09-1.05,3.08.53,6.28,1.24,12.55,1.91,18.98-2.3-.13-3.73-.21-5.1-.29-.85-2.39-1.78-4.99-2.8-7.86-3.19,3.56-3.73,6.64-1.6,9.29.72.89,2.2,1.16,4,2.03-.11,1.07-.33,3.19-.56,5.31l.02-.04Z"/>
      <path class="cls-2" d="M258.6,158.12c.6,0,1.2-.01,1.8-.02v-5.33c-.6,0-1.2.01-1.8.02v5.32ZM286.24,147.66c-.66-.2-1.31-.39-1.97-.59-.41,1.42-1.09,2.83-1.13,4.26-.02.77,1.07,1.57,1.66,2.35.36-.13.72-.27,1.08-.4.12-1.87.23-3.75.35-5.62M89.71,270.91c2.2.2,4.39-.26,4.48-3.43.06-2.13-4.47-5.66-7.35-5.36-.92.09-2.29,1.93-2.37,3.04-.29,4.14,1.27,5.77,5.24,5.76M301.54,147.84c1.37.96,4.14-.1,3.19,3.94-.51,2.17,3.33,5.36,5.11,7.94-3.7,1.43-4.46,5.07-.91,9.21,1.59,1.85,3.69,3.5,1.03,6.36-1.91-1.45-3.8-2.89-6.56-4.99v7.06c-4.88-1.3-7.73-6.49-6.97-13.29.15-1.34.54-2.66.93-3.95,1.31-4.32.79-5-3.77-4.76-.13-.36-.26-.73-.39-1.1-.55-1.56-1.07-3.14-1.74-4.65-.05-.1-1.87.21-1.97.58-.56,1.97-1.12,4.03-1.07,6.04.02.94,1.33,1.96,2.23,2.75,2.18,1.9,1.53,3.12-.26,3.88-4.5-4.72-8.82-9.25-13.19-13.84-3.02,1.67-3.1,3.22-.13,5.09.48.3,1.11.69,1.25,1.17.83,2.75,1.53,5.53,2.31,8.45-2.08-1.86-4.21-3.99-6.59-5.8-.9-.69-3.17-1.24-3.43-.87-2.28,3.2-4.81,2.23-7.48.43-4.7,5.48,4.96,8.6,1.85,13.65-3.75-5.75-7.34-11.3-11-16.81-.31-.46-1.16-1.02-1.5-.89-.66.26-1.47.9-1.63,1.53-.33,1.28-.27,2.67-.45,5.12-1.79-1.28-3-2.25-4.31-3.06-.87-.54-1.87-.85-2.82-1.26-.34,1.14-1.15,2.38-.92,3.38.41,1.74,1.47,3.33,2.26,4.98-.28.19-.56.38-.84.56-1.78-2.21-3.56-4.42-5.85-7.26-.39,4.41-2.75,5.79-6.46,5.81-1.09,0-2.43,1.32-3.22,2.37-1.57,2.11-2.84,4.46-4.85,7.7-1.22-2.16-2.07-3.65-3.15-5.57-2.49,3.49-2.78,5.46-.11,7.64,1.32,1.08,1.93,3.02,2.49,5.01-6.88-3.08-9.82,3.43-15.34,4.97,3.32,1.81,5.99,3.21,8.59,4.72,1.03.6,2.32,1.27,2.77,2.24,1.04,2.24,2.56,3.96,4.92,3.08,1.5-.56,2.45-2.58,3.9-4.23,2.78,2.83,5.87,5.61,6.68,10.77.73,4.62,3.51,8.91,5.29,13.38.87,2.19,2,4.41,2.2,6.69.35,3.89.26,7.84,0,11.74-.41,6.06-1.12,12.1-1.75,18.52-1.2-.26-1.96-.43-2.16-.47-1.4,8.18-2.78,16.24-4.15,24.31-.24-.06-.48-.11-.72-.17.83-12.79,2.13-25.57,2.27-38.36.06-5.48-1.46-11.35-3.73-16.39-3.21-7.14-7.74-13.69-11.76-20.46-5.04-8.49-12.6-12.39-22.4-12.23-4.85.08-9.71.02-15.29.02,1.98-3.71-3.41-8.21,2.78-10.78-.87-.95-1.49-1.83-2.29-2.48-2.46-2.01-2.22-3.65.33-5.42,1.22-.85,2.11-2.18,3.75-3.93-.21,2.07-.36,3.52-.51,4.97.26.02.53.04.79.07.32-2.28.63-4.57.95-6.85-.46-.18-.92-.37-1.38-.55-1.31,1.39-2.62,2.78-3.96,4.21-3.74-1.52-6.46.44-8.33,6.37.96.25,1.9.5,2.85.75.11.28.21.55.32.83-1.02.34-2.33,1.26-3.02.92-7.31-3.62-7.28-3.67-12.8,1.14-.27.24-.75.24-.3.11.55.5,1.41,1.27,2.27,2.05-.45.55-.89,1.1-1.34,1.65-2.57-1.32-5.13-2.63-7.55-3.87-.81,2.68-1.51,4.77-2.08,6.9-.9,3.33-3.07,4.42-6.35,3.96-.65-.09-1.45.34-2.08.71-1.94,1.14-3.83,2.36-6.47,4.02.66.68,1.71,2.62,3.24,3.13,2.76.92,4.05,3.07,4.18,5.22.21,3.33,2.31,4.4,4.64,5.39,5.33,2.26,9.23,5.89,11.92,11.03,6.37,12.15,13.19,24.11,14.52,38.16.27,2.84.37,5.7.55,8.55-.42.17-.83.33-1.25.5-.63-1.16-1.79-2.32-1.8-3.49-.07-17-7.73-31.17-16.84-44.67-2.33-3.46-6.1-5.96-9.22-8.88-1.13-1.06-2.31-2.07-3.52-4.34-8.45,1.71-16.92,3.34-25.34,5.18-1.95.43-3.98,1.27-5.53,2.49-1.28,1.01-1.91,2.86-2.82,4.34,1.6.93,3.17,1.92,4.82,2.76.4.21,1.09,0,1.59-.16,3.6-1.2,5.95-.93,4.33,3.76,2.84,1.11,5.32,2.41,7.96,2.95,1.11.23,2.64-1,3.82-1.8,2.7-1.82,6.25-.45,9.25,3.78,1.88,2.65,1.24,4.58-1.48,6.42-5.99,4.06-10.31,9.45-12.55,16.47-.68,2.13-.08,3.41,1.86,3.53,3.62.21,4.73,2.07,4.35,5.35-.4,3.51-2.68,4.4-5.78,4.22-.67-.04-1.34.06-2.3.11.58,1.54,1.1,2.92,1.55,4.12-2.63,1.51-4.9,2.81-7.28,4.17-.26-4.49,5.02-8.68,2.03-13.28-2.97,1.03-5.65,1.96-8.74,3.03.04.2.61,1.4.46,2.49-.15,1.06-.91,2.15-1.67,2.97-.69.74-2.01.93-2.59,1.71-1.59,2.14-2.97,1.8-5.17.71-1.53-.76-4.17-.78-5.54.1-1.12.72-1.43,3.22-1.48,4.96-.05,1.53.75,3.08,1.24,4.84,1.59-.28,2.99-.52,4.69-.82v5.58c-6.71-1.56-4.58,4.97-7.5,6.69-1.52.8-3.27,1.34-4.53,2.45-3.37,2.94-6.44,2.92-12.04-1.09,1.7.44,3.4.86,5.1,1.31,4.08,1.08,7.79-1.94,6.71-5.94-2.13-7.87-6.5-14.38-13.75-18.73,1.46,1.68,3.08,3.25,4.34,5.06,1.85,2.66,3.84,5.34,4.98,8.32.57,1.48-.41,3.72-1.14,5.43-.29.67-2.46,1.35-2.64,1.13-1.2-1.52-2.27-3.21-2.98-5-.24-.62.67-1.69,1.05-2.56.54.74,1.24,1.42,1.58,2.25.28.68.13,1.54.19,2.79,2.6-1.97,2.11-4.06.88-5.85-2.39-3.45-5.19-6.62-7.54-10.09-1.26-1.87-4.68-3.21-2.25-6.48.13-.17-.43-.94-.77-1.35-7.22-8.99-16.62-13.59-29.4-14.24,2.11,1.79,3.33,2.82,4.55,3.84-.13.27-.27.53-.4.8-1.58-.72-3.37-1.17-4.71-2.21-6.47-5-13.86-6.7-21.82-6.36-5.68.24-11.35.92-17.03,1-1.38.02-3.71-1.28-3.97-2.37-.54-2.27-.96-5.69.3-7.06,3.33-3.65,7.2-7.2,11.53-9.49,17.25-9.14,34.58-18.18,52.22-26.53,25.14-11.9,50.35-23.71,75.94-34.58,36.53-15.52,74.39-27.2,112.89-36.83,10.37-2.59,20.71-5.3,31.56-8.08-.22,1.14-.39,1.83-.47,2.53-.84,6.76.7,8.95,7.83,10.41,3.47.71,6.22,1.49,6.41,5.88.12,2.69,1.17,5.35,1.8,8.02-2.17.78-5.1,1.5-3.93,4.47,1.26,3.21,3.55,6.01,5.4,8.99.65-.28,1.3-.56,1.95-.84-.7-2.61-1.46-5.21-2.06-7.84-.29-1.26-.25-2.59-.36-3.9"/>
      <path class="cls-2" d="M336.93,309.04c-.08-.33-.15-.67-.23-1-7.82.69-15.63,1.37-23.45,2.06.03.37.07.73.1,1.1,7.86-.72,15.71-1.44,23.57-2.16M295.87,300.76c.12.43.25.85.37,1.28,12.43-2.82,24.85-5.65,37.28-8.47-.09-.42-.19-.84-.28-1.26-12.46,2.82-24.91,5.63-37.37,8.45M295.55,305.47c12.2-2.62,24.4-5.24,36.6-7.86-.11-.52-.21-1.03-.32-1.55-6.37,1.27-12.76,2.49-19.12,3.81-4.38.91-8.7,2.2-13.12,2.83-2.39.34-4.92-.33-8.3-.63,1.37-1.52,1.78-1.98,3.01-3.35-10.23,1.43-19.52,2.73-28.8,4.03-.06-.2-.12-.4-.19-.6,1.95-.74,3.86-1.64,5.86-2.19,14.64-4.06,29.54-7.36,43.83-12.39,6.26-2.2,12.63-2.9,18.72-4.71,20.58-6.11,41.27-7.05,62.37-4.53,5.87.7,10.32,3.1,13.01,8.44,1.43,2.85,1.76,5.24-1.87,7.02-3.8,1.86-4.7,5.28-3.84,9.35.32,1.54.09,3.2.11,4.8-1.44-.95-2.88-1.89-4.32-2.85-.22-.15-.4-.36-.92-.83-.79.71-1.61,1.45-2.44,2.2,1.37,2.17,2.68,4.03,3.72,6.02.47.9.4,2.09.58,3.14-.93-.55-2.19-.89-2.74-1.71-1.38-2.05-2.71-2.44-4.54-.71,1.02,1.91,1.98,3.71,3.6,6.77-4.86-2.32-7.66-2.31-8.03,2.74-.05.63-2.08,1.21-3.26,1.62-1.8.63-3.94.69-5.44,1.72-2.43,1.66-4.37,2.1-5.88-.08-15.82,8.21-31.97,13.89-49.8,13.36-22.49-.67-29.72-2.03-36.46-6.95h20.26c.01-.25.02-.5.03-.75-5.05-.71-10.1-1.42-15.15-2.12.38-6.42,3.9-8,9.85-7.79,7.29.25,14.63-.62,21.96-1.81h-24.82c-.19-.32-.37-.64-.56-.97.76-.76,1.52-2.16,2.29-2.17,5.06-.08,10.13.22,15.2.24,3.51.02,7.03-.11,10.54-.34,9.2-.59,18.4-1.28,27.58-2.35-6.75,0-13.88,1.39-20.16-.32-10.14-2.75-19.58.8-29.33.82-4.16,0-8.33-.68-12.49-1.05,0-.6-.01-1.2-.02-1.8,13.4-2.07,26.8-4.14,40.21-6.22-.03-.28-.06-.55-.09-.83-10.49,1.21-20.97,2.43-31.46,3.64-.03-.24-.07-.49-.1-.74l46.12-8.84c-.07-.4-.13-.81-.2-1.21-8.54,1.36-17.08,2.68-25.6,4.1-8.65,1.44-17.29,3-25.93,4.5-.06-.31-.12-.62-.18-.93"/>
      <path class="cls-2" d="M1036.36,179.38c.75.07,1.5.13,2.25.2.09-1.5.24-3,.19-4.5,0-.12-1.33-.2-2.04-.29-.13,1.53-.26,3.07-.4,4.6M1001.36,151.96c.29,4.85.55,4.94,6.66,2.72-2.52-1.03-4.26-1.74-6.66-2.72M986.94,171.81c.87.17,1.75.34,2.62.52l.75-5.03c-.7-.09-1.95-.38-2-.23-.57,1.54-.94,3.16-1.37,4.75M1023.65,186.14c.51-.05,1.02-.1,1.54-.15,2.93-3.5,2.71-4.53-2.55-6.77.41,2.78.71,4.85,1.02,6.92M1001.21,180.67c2.68-2.11,3.58-4.33,1.69-6.85-.41-.54-2.64-.6-3.1-.07-2.19,2.52-.65,4.62,1.41,6.93M1072.75,181.35l-1.28-.78c-1.79,1.75-3.89,3.3-5.21,5.35-.52.8.71,2.73,1.15,4.15,1.09-.63,2.7-1.01,3.16-1.95,1.03-2.11,1.49-4.5,2.18-6.77M1062.61,172.99c.45.49,1.22,2.07,2.38,2.44,2.09.68,6.59-3.58,6.3-6.09-.14-1.25-1.46-3.01-2.62-3.37-2.33-.73-5.7,2.96-6.07,7.02M1009.58,180.43c-4.94-1.87-6.66-.72-6.51,4.56-1.03-.12-2.03-.23-2.42-.28-1.16-2.54-2.19-4.79-3.22-7.03-.54.06-1.07.11-1.61.17-.85,2.26-1.69,4.53-2.6,6.96-1.8-1.24-2.37-2.71-.49-4.74.73-.79,1.6-1.69,1.8-2.66.25-1.2.12-2.63-.34-3.76-.24-.58-2.01-1.22-2.31-.96-.91.82-1.46,2.06-2.13,3.14-.71,1.14-1.41,2.29-2.73,3.21-.09-3.42.61-6.73-4.46-6.87v6.48c-1.71.96-3.76,1.46-4.02,2.44-.29,1.11.7,2.96,1.69,3.93,2.9,2.85,2.92,3.52-.85,6.59-.62-.67-1.27-1.34-1.89-2.04-1.95-2.18-3.59-2.11-5.03.58-1.6,3-2.92,2.73-4.26-.3-.95-2.16-2.28-4.15-2.84-6.68,1.49,1.16,2.98,2.31,4.42,3.42,4.15-4.41-2.28-6.52-1.45-10.55,1.97.45,3.95.9,6.38,1.46,1.4-2.24,3.13-4.82,4.64-7.52.37-.66.37-2.07-.07-2.48-.47-.43-1.71-.26-2.52-.03-.74.21-1.44,1.34-1.99,1.23-1.26-.25-2.42-1.02-3.63-1.57.62-.76,1.1-1.95,1.88-2.19,1.74-.55,3.64-.59,5.46-.93.56-.11,1.06-.53,1.59-.8,1.09-.54,2.18-1.06,3.7-1.8.19-2.03-2.47-3.85-6.54-3.54.57-1.34,1.13-2.67,1.69-4-.28.1-.55.21-.83.32-1.08-2.7-2.16-5.39-3.36-8.38-.47.23-1.39.68-2.98,1.46.61-1.74.98-2.79,1.5-4.27,15.53,3.6,31.08,8.45,46.45-1.24-4.22,6.7-10.78,11.16-12.9,20,2.63.75,5.31,1.89,8.09,2.2,2.16.25,4.03-.7,2.42-3.63-.31-.56.07-2.2.31-2.24.9-.15,2.11-.15,2.78.36,1.55,1.19,2.85,2.69,4.23,4.08,1.69,1.7,3.97,3.43,5.68,1.09,1.17-1.6,1.18-4.61.67-6.74-.53-2.2-2.17-4.2-3.61-6.07-.44-.58-1.81-.44-3.48-.78,2.53-3.43,4.85-6.58,7.64-10.36,2.13,2.52,3.86,4.95,6.01,6.94,1.12,1.03,2.94,1.39,4.52,1.75.4.09,1.61-1.21,1.51-1.43-.46-.97-1.48-1.69-1.87-2.67-.43-1.06-.4-2.32-.74-4.58,3.2,2.16,5.39,3.4,7.26,5.01.74.64.98,2.07,1.1,3.18.59,5.33,1.33,5.51,6.79,5.79,2.91.15,5.72,2.17,8.74,3.42-.76,1.14-1.42,2.14-2.23,3.37.65,1.11,1.34,2.29,1.67,2.85,1.84,0,3.27-.23,4.6.04,4.68.95,9.33,2.05,13.99,3.13,2.16.51,5.14-.15,5.22,3.61,0,.25,2.29.9,3.31.62,3.83-1.07,6.53.87,8.88,3.25.69.7.23,2.55.28,3.52h-4.4c.72,1.33,1.45,2.66,2.38,4.36-2.82,1.79-6.07,3.85-9.62,6.1,2.08,3.93-2.96,5.61-3.89,9.11-3.97-5.52-4.96-5.52-8.49.13-1.31-2.4-2.52-4.62-3.74-6.84q-3.42,1.01-2.26,8.99c-2.71-3.99-4.77-7.04-6.84-10.09-.12.15-.24.29-.36.44-.91-2.72-1.81-5.45-2.73-8.19q-4.24,1.5-1.64,8.94c-.29.19-.57.38-.86.57-1.6-2.6-3.22-5.19-4.81-7.8-1.14-1.88-2.46-2.63-4.11-.64-.84,1.01-1.44,2.2-2.15,3.32-.38-.11-.76-.21-1.14-.32.55-2.14,1.22-4.25,1.59-6.42.25-1.46.05-3.01.05-4.51-.62-.16-1.24-.32-1.86-.47-2.14,3.36-4.2,6.77-6.49,10.02-.52.74-1.89.89-3.38,1.53.21-1.76.62-2.86.36-3.77-.21-.73-1.42-1.84-1.86-1.7-1.01.31-2.08,1.1-2.65,2-1.38,2.18-2.64,4.46-3.64,6.83-.42,1-.33,3.26,0,3.36,5.7,1.73,2.49,4.57.77,7.67-1.64-4.02-3.25-8.28-8.54-3.38.03.39.11,1.37.18,2.35-.24.11-.48.22-.72.33-1.93-3.03-3.86-6.07-5.79-9.1.47-.28.93-.56,1.4-.85,1.07,1.99,2.14,3.99,3.21,5.98.43-.06.86-.11,1.29-.17,0-2.93.87-6.25-.22-8.7-1.42-3.21-1.79-5.23,1.53-7.01.45-.24,1.03-.77,1.05-1.18.05-1.17.18-2.57-.39-3.45-.3-.47-2.28-.45-3,.06-4.25,2.98-6.16,7.11-5.01,12.25h-5.46c.39-2.25.79-4.57,1.2-6.89,2.5.87,3.29-.88,3.44-2.68.1-1.14-.57-2.49-1.28-3.45-.22-.29-2.41.19-2.54.65-.42,1.48-.34,3.11-.34,4.68,0,.29.52.58.81.88"/>
      <path class="cls-2" d="M708.13,419.27c-7.43-6.92-14.86-13.84-22.29-20.77.4-.45.8-.91,1.2-1.36,9.06,7.45,18.11,14.91,27.17,22.37.21-.24.41-.48.62-.72-9.23-8.29-18.45-16.57-27.68-24.86.24-.31.48-.62.72-.93,7.9,5.55,15.8,11.09,23.71,16.64.2-.26.4-.52.6-.79-8.54-6.88-17.08-13.75-25.62-20.63.15-.26.31-.51.46-.76,6.49,3.92,12.98,7.83,19.47,11.75.25-.31.51-.61.76-.92-3.94-3.54-7.87-7.08-11.81-10.62.12-.16.24-.32.37-.47,4.66,2.55,9.31,5.1,14.66,8.03-2.72-6.85-10.1-6.52-14.52-11.87,2.12.33,3.3.42,4.43.72,1.15.31,2.24.82,3.36,1.25.31-.32.62-.64.93-.96-1.24-1.32-2.48-2.65-3.81-4.08,1.44-.33,2.97-.67,5.15-1.16-1.8-.92-3-1.54-4.21-2.16.03-.32.05-.64.07-.96.88-.09,1.78-.32,2.65-.24,14.8,1.36,30.04,15.57,32.85,31.41,2.14,12.06,1.15,24.14-2.91,35.75-3.42,9.79-10.94,12.17-19.57,6.31-2.65-1.8-4.85-4.32-7.09-6.66-3.37-3.52-6.59-7.18-9.98-10.88.78.1,1.69.22,3.2.43-8.39-8.9-16.46-17.47-24.53-26.03.59-.57,1.18-1.15,1.77-1.72,8.31,9.25,16.61,18.49,24.92,27.74.65-.62,1.3-1.24,1.96-1.86-7.56-8.21-15.11-16.42-22.67-24.64.17-.17.34-.34.51-.5,4.91,4.53,9.82,9.05,14.72,13.58.23-.21.47-.43.7-.64-5.6-6.12-11.21-12.24-16.81-18.35.17-.18.35-.37.53-.55,8.34,7.04,16.67,14.09,25.01,21.13.34-.33.67-.66,1.01-.98"/>
      <path class="cls-2" d="M185.67,295.91c2.31-2.89,4.41-5.99,6.99-8.62,3.41-3.47,7.17-6.6,10.85-9.8.39-.34,1.24-.22,1.87-.21,2.87.07,4.98-2.35,4.46-5.85-1.86,1.05-3.55,2.01-5.68,3.2-.35-1.74-.67-3.33-.93-4.65,2.58-.4,4.66-.72,7.16-1.11.11.33.41,1.2,1.14,3.32,1.06-2.44,1.68-3.86,2.47-5.69.69-.08,1.83-.21,3.15-.36-.21-2.78-.4-5.38-.64-8.74,2.44,1.1,3.75,1.69,5.66,2.56,0-1.87.22-3.43-.04-4.9-1.12-6.35-2.36-12.68-3.64-18.99-.18-.91-.73-2.36-1.3-2.47-3.31-.59-2.56-2.04-1.54-4.3,1.6-3.54,2.7-7.32,3.85-10.55-2.04-2.64-4.09-4.98-5.68-7.6-.39-.64.86-3.22,1.18-3.18,1.55.16,3.29.6,4.45,1.56.68.56.41,2.28.6,3.73,1.05.28,2.21.6,3.37.89,3.01.75,4.79,2.26,4.28,5.76-.23,1.56.08,3.26.43,4.83,1.37,6.15,3.4,12.21,4.09,18.42.39,3.54-1.22,7.33-2.12,10.96-.92,3.69-3.9,7.17-1.13,10.54-1.02,1.41-2.18,2.37-2.5,3.56-1.33,4.96-3.1,9.43-8.71,10.94-.37.1-.86.36-.97.67-2.03,5.43-7.95,6.71-11.35,10.67-1.04,1.21-2.05,2.45-2.77,3.3-2.83.58-5.43,1.17-8.04,1.62-2.63.45-5.28.76-7.92,1.13-.35-.21-.7-.42-1.05-.64"/>
      <path class="cls-2" d="M644.95,381.97c6.03,4.94,12.29,9.63,18.03,14.88,7.41,6.78,14.46,13.96,21.54,21.09,3.57,3.6,2.69,8.1,1.42,12.27-1.31,4.3-4.24,7.52-8.95,7.73-1.72.07-4.35-1.37-5.16-2.88-9.29-17.32-18.31-34.79-27.4-52.21.18-.29.35-.59.53-.88"/>
      <path class="cls-2" d="M1021.46,333.32c-.69,3.06-1.56,6.1-2.03,9.19-.49,3.21-1.56,5.48-6.27,4.76.9,2.54,1.61,4.53,2.46,6.95-1.28,4.56-2.77,9.83-4.32,15.34-10.46-5.06-19.89-9.62-29.32-14.18.14-.39.28-.78.43-1.16,1.9.57,3.81,1.08,5.69,1.71,5.91,1.99,11.79,4.09,17.73,5.97,1.25.4,2.73.06,4.6.06-10.45-5.51-19.92-10.5-29.39-15.5.15-.36.3-.73.45-1.09,7.87,2.58,15.74,5.16,23.62,7.74-6.59-6.96-15.33-9.94-23.29-14.6,9.95,2.94,19.9,5.88,29.84,8.83.13-.32.27-.65.4-.97-8.54-4.22-17.09-8.45-25.63-12.67.08-.22.16-.45.23-.67,8.22,1.81,16.45,3.63,24.67,5.44.23-.58.46-1.17.69-1.76-6.6-3.8-13.21-7.6-19.81-11.4,3.81.71,7.24,1.29,10.76,3.92,3.75,2.81,9.6,2.86,14.57,3.98,1.27.29,2.65.09,3.98.11h-.08Z"/>
      <path class="cls-2" d="M477.94,154.67c.5.06,1.02.05,1.49.18,1.06.29,2.11.65,3.16.99.34-1.13.86-2.23.98-3.38.13-1.32-.11-2.67-.19-4.01.38-.2.77-.39,1.15-.59.53.97,1.58,1.99,1.49,2.9-.45,4.45-1.78,8.88-1.71,13.29.09,5.82,1.19,11.62,1.84,17.21-1.65-1.84-3.76-4.19-6.1-6.79-1.15,1.76-2.43,3.73-3.98,6.11-2.86-4.87-5.68-9.65-8.49-14.43.28-.24.55-.48.83-.71,1.73,1.89,3.47,3.79,5.2,5.68.36-.22.71-.45,1.07-.67-.25-7.34-4.01-13.33-8.04-19.44,5.05,2.31,6.77,8.03,12.41,11.34-.43-3.09-.74-5.41-1.07-7.72,0,0-.02.04-.02.04"/>
      <path class="cls-2" d="M301.1,205.78c-1.28-3.38-3.5-3.17-6.03-2.14-1.11.45-2.33.79-3.52.88-.66.05-1.54-.38-1.98-.88-.24-.28,0-1.36.37-1.75,3.21-3.3,1.87-6.34-.33-9.45-1.69-2.39-2.8-4.91-.88-7.78,2.83,1,2.31,6.81,6.59,4.94,1.28-.56,1.43-3.68,2.11-5.66.73.58,1.98,1.71,3.36,2.65,2.11,1.42,2.14,3.08.49,4.7-2.67,2.63-1.84,5.11.13,7.53,1.73,2.12,2.53,4.16-.33,6.95"/>
      <path class="cls-2" d="M436.59,204.06c-2.05.82-4.93,2.91-5.99,2.21-3.14-2.04-5.81-5.04-5.2-9.65.53.97.83,2.33,1.64,2.81,1.42.84,3.16,1.13,4.77,1.65-.01-1.71.34-3.52-.12-5.09-.82-2.78-2.14-5.41-3.25-8.1.43-.22.85-.44,1.28-.67,2.17,2.25,4.3,4.54,6.55,6.71.34.33,1.36.29,1.85.02.47-.26.88-1,.94-1.57.18-1.95.2-3.91.28-5.87.71-.11,1.42-.23,2.12-.34,1.1,2.69,2.19,5.37,3.43,8.4-4.54.24-5.89,2.38-4.48,5.53.49,1.09,1.65,1.94,1.93,3.05.25.99-.29,2.18-.48,3.28-.92-.29-2.12-.31-2.7-.92-.81-.85-1.15-2.14-1.69-3.25-.29.59-.58,1.19-.87,1.78"/>
      <path class="cls-2" d="M990.94,193.75c.88.96,1.45,1.51,1.94,2.12q4.08,5.07,9.53.31c0,2.25.23,3.75-.06,5.16-.33,1.63-1.1,3.17-1.69,4.74,1.67.07,3.33.13,5,.22.26.01.52.13.77.2.82,3.54-.64,5.44-5.59,7.17-.73-1.03-1.48-2.09-2.2-3.1-1.89,1.49-3.64,2.87-4.99,3.93-2.54-2.3-4.64-4.2-6.74-6.1.15-.36.29-.71.44-1.07,2.01.16,4.01.32,6.09.49,1.88-3.22,1.57-3.88-2.51-5.48v-8.59Z"/>
      <path class="cls-2" d="M502.17,179.01c-.69-2.04-1.38-4.07-2.36-6.97-4.13,5.9-.28,10.36.37,14.25-2.09-.77-4.53-2.55-6.44-2.1-1.96.46-3.4,3.11-5.73,5.46.42-1.5.53-2.14.78-2.72,2.15-4.88,5.56-9.6,1.87-15.22-.13-.19.21-.69.31-.98,1.56.1,3.01.19,4.45.28-.18-1.64.09-3.52-.64-4.86-1.59-2.89-3.68-5.49-5.82-8.57,1.02-.85,2.22-1.86,3.4-2.85,1.35,3.77,2.33,7.64,4.12,11.08,1.21,2.33,3.98,3.83,5.26,6.15,1.12,2.01,1.15,4.63,1.66,6.98-.41.03-.82.05-1.23.08"/>
      <path class="cls-2" d="M662.24,189.99c1.06-1.9,1.71-3.05,2.35-4.19.34-.02.68-.04,1.02-.06.18,2.83.18,5.7.6,8.49.45,2.95.43,5.55-2.64,7.39-2.09-1.12-4.34-3.42-6.54.22-.32.52-2.24.07-3.92.07,3.64-3.02,3.27-6.55,2.54-10.42-.42-2.21.32-4.65.53-6.98.41,0,.82.01,1.22.02,1.47,1.66,2.94,3.32,4.83,5.46"/>
      <path class="cls-2" d="M324.83,175.39c2.72,7.05,6.72,5.23,11.12,2.2,2.26,3.54,4.38,6.85,6.49,10.16-.24.17-.48.34-.72.52-2.18-2.29-4.36-4.59-6.58-6.92-2.93,1.71-3.77,3.44-1.04,5.76,2.26,1.92,3.39,4.2,2,7.67-1.61-1.71-3.08-3.26-4.98-5.27-1.18,3.07-2.13,5.55-3.09,8.04-2.42-2.5-2.72-3.73-.86-6.81,1.53-2.54,1.56-4.51-.31-7-1.47-1.95-2.05-4.57-3.02-6.9.33-.48.66-.96,1-1.45"/>
      <path class="cls-2" d="M1021.54,333.33c-5.85-3.35-11.7-6.71-17.56-10.03-2.9-1.64-5.84-3.18-8.76-4.77.15-.34.3-.67.45-1.01,3.77,1.25,7.52,2.59,11.33,3.72,3.35.99,6.77,2.43,10.17,2.45,4.44.03,7.17,1.76,8.92,5.43-1.56,1.4-3.11,2.8-4.65,4.2.01,0,.09.01.09.01"/>
      <path class="cls-2" d="M238.63,172.01c1.86.4,4.18,1.68,5.47.99,1.95-1.03,3.18-3.42,4.72-5.23.58.27,1.15.53,1.73.79-.71,3.31-1.42,6.62-2.25,10.48-.26-.34-.04,0,.23.29.92.98,1.85,1.94,2.78,2.9-1.38.23-2.85.24-4.12.74-1.38.54-2.59,1.52-3.87,2.31-.87.53-1.74,1.06-2.62,1.6-.45-1.03-1.56-2.69-1.26-2.99,4.06-4.17,1.42-7.6-.96-11.12-.1-.15.1-.51.16-.77"/>
      <path class="cls-2" d="M639.68,166.35c.81,1.79,1.16,2.56,1.58,3.5,1.64-.97,3.21-1.91,4.54-2.69.34-1.4.65-2.67.95-3.93.43.12.86.24,1.29.36-.31,1.4-.42,2.89-.98,4.18-1.5,3.43-1.51,6.42,1.5,9.16.61.56.4,2.02.57,3.07-1.13-.36-2.37-.53-3.35-1.14-.86-.53-1.43-1.54-2.33-2.58-1.01,1.39-1.75,2.68-2.75,3.72-1.59,1.65-4.4.89-4.13-1.22.49-3.88,1.85-7.66,3.1-12.43"/>
      <path class="cls-2" d="M210.76,230.67c-.74,3.91-2.95,6.03-6.27,6.01-3.26-.02-5.82-2.11-5.14-4.86.64-2.61,3.52-4.66,5.42-6.96,2,1.94,3.99,3.88,5.99,5.81"/>
      <path class="cls-2" d="M597,197.32c3.33-1.09,6.06.29,7.18,3.77.94,2.92,2.33,5.69,3.09,9.32-2.01-1.37-4.02-2.73-6.3-4.29-.99,1.45-1.86,2.74-2.95,4.34-2-2.15-2.4-4.23-1.47-6.94.58-1.7.31-3.69.45-6.2"/>
      <path class="cls-2" d="M1060.35,208.97c-3.48-.65-6.49-1.21-10.72-2,5.94-3.73,3.29-7.11,1.21-10.57-2.74-4.57-2.43-6,1.13-8.25.63,3.06,1.29,6.31,2.01,9.8,2.61-.91,4.17-1.45,5.74-2-3.71,4.7-1.68,9.03.63,13.02"/>
      <path class="cls-2" d="M278.74,226.63c1.14,1.27,2.27,2.54,3.53,3.95.91-.75,1.91-1.56,2.4-1.96,1.6,3.88,3.18,7.73,5.15,12.5-2.03-1.25-3.36-2.07-4.67-2.88q-3.53,4.41-6.89,2.64c6.79-4.65.38-9.11-.46-13.77.31-.16.62-.32.94-.48"/>
      <path class="cls-2" d="M1029.06,317.75v7.43c-6.45-3.5-12.72-6.9-18.99-10.31.1-.27.21-.54.31-.82,6.18,1.22,12.36,2.44,18.68,3.69"/>
      <path class="cls-2" d="M333.77,219.01c1.8-.33,3.61-.66,5.31-.96,1.1,3.68,2.17,7.3,3.61,12.09-4.68-3.72-6.3.76-8.91,2.07v-13.2Z"/>
      <path class="cls-2" d="M685.26,230.81c.43-1.65.45-3.6,1.37-4.89,2.23-3.12,1.86-5.95.33-9.16-.4-.83.22-3.1.87-3.33,3.85-1.38,6.03-4.4,8.28-7.45.71-.96,1.63-1.77,2.46-2.65.35.28.7.57,1.05.85-1.91,2.83-3.86,5.65-5.73,8.51-1.87,2.86-3.8,5.46-3.95,9.37-.12,3.08-2.36,6.09-3.66,9.13-.34-.12-.68-.24-1.02-.36"/>
      <path class="cls-2" d="M252.11,204.82c-.11.84,0,1.7-.34,2.3-2.04,3.55-1.01,6.23,1.71,9.02,1.22,1.25,1.38,3.55,1.49,5.68-2.32-2.27-3.43-6.27-6.92-3.92-.9-2.52-1.95-5.09-2.68-7.76-.21-.77.25-2.23.87-2.61,1.74-1.08,3.73-1.76,5.88-2.72"/>
      <path class="cls-2" d="M210.04,207.9c-.52.3-1.76,1.56-2.56,1.34-2.84-.8-7.32-.17-6.9-4.87.14-1.57,2.58-3.62,4.36-4.17,2.17-.67,5.32,3.79,5.1,7.7"/>
      <path class="cls-2" d="M366.31,221.55c1.7-.24,3.62-.52,5.9-.85.15.38.84,1.21.65,1.71-1.33,3.41-.04,5.65,2.73,7.62.72.51.79,1.95.69,3.13q-5.47-3.23-8.04-1.49c-.61-3.16-1.25-6.53-1.94-10.12"/>
      <path class="cls-2" d="M782.67,206.91c-.34,2.7-.67,5.4-1.01,8.1-.23-.17-.47-.35-.7-.52-2.41,3.29-4.83,6.57-7.43,10.12-1.91-4.05,2.88-6,2.15-9.99-.39-2.16,3.96-5.17,6.18-7.8.27.03.54.07.81.1"/>
      <path class="cls-2" d="M301.54,147.84c.11,1.3.07,2.64.36,3.9.6,2.64,1.36,5.23,2.06,7.84-.65.28-1.3.56-1.95.84-1.84-2.98-4.14-5.78-5.4-8.99-1.17-2.97,1.77-3.69,3.93-4.47.33.29.67.59,1,.88"/>
      <path class="cls-2" d="M448.68,201.14c2.03.23,4.21.48,6.68.76v8.43h-4.97c-.53-2.84-1.11-5.94-1.71-9.19"/>
      <path class="cls-2" d="M265.48,194.33c-.82.18-2.31.51-3.53.77-1.01-3.81-1.89-7.19-2.95-11.19,2.72,2.56,5.09,2.64,7.31-.32-.27,3.4-.53,6.8-.84,10.74"/>
      <path class="cls-2" d="M1018.66,308.32c5.22.52,10.43,1.04,16.19,1.61-.77,1.59-1.32,2.71-2.11,4.33-4.91-1.53-9.68-3.01-14.46-4.49l.38-1.44"/>
      <path class="cls-2" d="M516.75,151.95c-1.71-3.61-.13-6.36,2.31-9.16,4.04,3.41,3.01,7.14,1.4,10.99-1.18-.45-2.27-.86-3.36-1.27-.13-.18-.25-.36-.35-.56"/>
      <path class="cls-2" d="M763.59,218.64c-4.79-5.37-4.78-8.64.15-17.96,1.02,2.22,1.86,4.07,2.34,5.12-1.59,1.05-3.27,1.57-3.75,2.63-.47,1.05-.17,3.03.59,3.93,1.67,1.97,2.58,3.71.67,6.28"/>
      <path class="cls-2" d="M365.63,206.64q-4.44-3.79-7.35-2.1c-.43-3.87-.86-7.76-1.28-11.64.44-.16.88-.32,1.33-.48,1.11,2.57,2.22,5.13,3.53,8.16,3.79-.39,3.25,2.93,3.78,6.06"/>
      <path class="cls-2" d="M484.72,138.56h6.61c-3.69,3.62-.76,5.97,1.53,8.27.72.72,2.15.73,4.1,1.32-.93,1.25-1.97,2.65-3.03,4.08-3.28-4.87-6.06-9-9.21-13.67"/>
      <path class="cls-2" d="M312.92,160.85c3.33,4.27,6.66,8.54,9.99,12.81-.19.25-.39.5-.58.75-.83-.32-1.66-.63-2.8-1.07-.46,1.01-.97,2.13-1.48,3.25-.15-.05-.31-.1-.46-.14.11-1.59.68-3.33.23-4.73-.54-1.69-1.62-3.8-3.06-4.5-2.79-1.36-3.19-3.2-1.85-6.37"/>
      <path class="cls-2" d="M542.74,152.65v5.4c1.76.49,3.51.98,5.38,1.5-.34,1.99-.67,3.98-1.17,6.96-3.33-4.99-6.06-9.07-8.77-13.12,1.31-.21,2.73-.44,4.57-.74"/>
      <path class="cls-2" d="M607.45,139.68c-.14-2.17-.39-4.35-.33-6.52.02-.53,1.22-1.57,1.58-1.46.93.3,2.33,1.03,2.42,1.74.29,2.18.16,4.44-.1,6.63-.03.25-1.9.28-2.92.42-.22-.27-.43-.54-.65-.81"/>
      <path class="cls-2" d="M453.97,177.52c5.74-.14,4.34,8.55,10.8,7.1.15,2.28.31,4.64.47,6.99-.26.12-.52.23-.78.35-3.43-4.72-6.86-9.45-10.49-14.44"/>
      <path class="cls-2" d="M1024.18,301.62c3.35,0,6.71-.21,10.03.12,1.04.1,1.94,1.65,2.9,2.53-1.07.52-2.26,1.64-3.19,1.45-3.35-.67-6.62-1.78-9.92-2.72.06-.46.12-.92.18-1.39"/>
      <path class="cls-2" d="M482.12,212.24c1.77-7.05,3.55-14.1,5.33-21.15.51.12,1.02.25,1.53.37-1.73,7.06-3.46,14.12-5.19,21.19-.55-.14-1.11-.27-1.66-.41"/>
      <path class="cls-2" d="M872.15,130.66c-2.95-2.35-4.65-3.7-6.47-5.15,2.25-3.43,5.08-2.04,7.35-.8.52.28-.46,3.32-.89,5.95"/>
      <path class="cls-2" d="M744.7,216.51c-8.33-.45-9.56-7.56-13.3-12.01.26-.25.51-.5.77-.75,1.8,2.17,3.47,4.47,5.44,6.49,2.02,2.07,4.33,3.86,7.09,6.27"/>
      <path class="cls-2" d="M853.36,136.51c1.27,2.27,2.69,4.16,3.29,6.28.19.68-1.77,1.98-3.27,2.71.98-3.09-5.05-4.89-.02-8.99"/>
      <path class="cls-2" d="M682.54,171.08c.45,3.35.81,6.08,1.25,9.36-7.36-3.51-7.39-3.72-1.25-9.36"/>
      <path class="cls-2" d="M358.24,174.42c1.3,3.28,2.41,6.08,3.52,8.89-.21.12-.42.25-.63.37-1.21-1.44-2.42-2.87-3.84-4.57-.85,1.17-1.5,2.06-2.17,2.98-.22-.2-.5-.32-.52-.48-.41-3.24.7-5.62,3.65-7.18"/>
      <path class="cls-2" d="M749.33,217.11c-.27-1.5-.58-2.31-.51-3.08.1-1.09.47-2.16.72-3.24.93.6,1.92,1.13,2.77,1.81,1.02.82,1.93,1.79,3.69,3.44-2.45.39-4.43.71-6.68,1.06"/>
      <path class="cls-2" d="M723.72,212.25c-.57,3.04.4,6.57-3.97,7.5-.79-1.85-1.56-3.67-2.63-6.19,2.85,1.48,5.19,2.06,6.6-1.31"/>
      <path class="cls-2" d="M332.5,139.86c-1.87.69-3.56,1.3-5.42,1.99-1.12-1.04-2.37-2.21-3.69-3.44,2.85-1.42,8.22-.54,9.11,1.45"/>
      <path class="cls-2" d="M528.88,291.59v10.89c-3.91-4.29-3.93-6.39,0-10.89"/>
      <path class="cls-2" d="M465.67,219.29c2.85-1.4,5.33-2.61,8.47-4.16.17,1.42.79,3.02.33,4.19-.26.65-2.32.85-3.55.81-1.73-.06-3.45-.53-5.24-.84"/>
      <path class="cls-2" d="M305.25,222.57c-2.06-1.73-4.12-3.46-6.18-5.18-.27.23-.53.45-.79.68-.07-1.59-.14-3.18-.22-4.76.29-.19.57-.38.86-.56,2.41,3.17,4.82,6.34,7.23,9.51-.3.11-.6.22-.89.33"/>
      <path class="cls-2" d="M943.55,166.98c2.32-1.94,3.92-3.27,5.51-4.6.35.16.69.33,1.04.49-.95,2.31-1.89,4.61-2.83,6.92-1.2-.9-2.39-1.81-3.72-2.81"/>
      <path class="cls-2" d="M348.53,184.12c-.97.56-2.08,1.2-3.42,1.98v-9.57h2.13c.44,2.62.86,5.08,1.29,7.59"/>
      <path class="cls-2" d="M696.6,233.51c-1.27-4.01-2.29-7.24-3.49-11.02,2.05,1.63,3.66,2.92,5.44,4.34-.54,1.86-1.16,3.98-1.95,6.68"/>
      <path class="cls-2" d="M1067.53,146.92c-.39,3.2-.72,5.94-1.14,9.43-3.3-4.25-2.9-7.64,1.14-9.43"/>
      <path class="cls-2" d="M398.37,179.71c6.49,1.68,8.58,4.26,7.35,8.39-2.31-2.64-4.68-5.35-7.35-8.39"/>
      <path class="cls-2" d="M1043.3,296.68c-2.87,2.98-5.32,2.61-11-1.99,4.02.73,7.51,1.36,11,1.99"/>
      <path class="cls-2" d="M518.27,160.62c.21,2.89.41,5.78.62,8.67-.4.17-.8.34-1.2.51-.95-1.97-1.9-3.93-2.86-5.93,1.38-1.23,2.46-2.19,3.54-3.15,0,0-.1-.1-.1-.1"/>
      <path class="cls-2" d="M877.65,146.08c-1.69-.1-3.38-.21-5.07-.31.65-1.16,1.09-3.02,2.01-3.3,1.02-.31,2.47.82,3.74,1.32-.23.76-.45,1.53-.68,2.29"/>
      <path class="cls-2" d="M545.93,205.16c-.14.53-.53,2.07-1,3.85-2.2-3.18-4.28-6.17-6.36-9.16.1-.09.2-.18.3-.26,2.18,1.72,4.36,3.45,7.05,5.57"/>
      <path class="cls-2" d="M723.49,185.2c1.72-1.78,3.43-3.55,5.45-5.63.48,1.64.88,3.01,1.31,4.48-2.01.7-3.96,1.38-5.9,2.05-.28-.3-.57-.6-.85-.9"/>
      <path class="cls-2" d="M525.47,180.36c-.6-.88-1.21-1.76-1.92-2.81-.87,1.02-1.61,1.9-2.19,2.57v-6.89c.3-.11.6-.22.9-.33,1.42,2.21,2.85,4.42,4.28,6.63-.36.28-.71.55-1.07.83"/>
      <path class="cls-2" d="M347.49,216.58c-.74,2.03-1.28,3.51-2.19,5.98-1.33-2.89-2.26-4.92-3.57-7.76,2.37.73,3.85,1.19,5.75,1.78"/>
      <path class="cls-2" d="M513.75,224.32c1.36-3.77,2.71-7.55,4.07-11.32.38.12.77.24,1.15.36-1.24,3.8-2.48,7.59-3.72,11.39-.5-.14-1-.28-1.5-.42"/>
      <path class="cls-2" d="M319.03,151.4c.28,3.15,1.48,5.99-2.77,7.12-.22-2.77-.69-5.35,2.77-7.12"/>
      <path class="cls-2" d="M716.79,207.4c-.99,2.51-1.99,5.01-2.99,7.52-.44-.17-.88-.34-1.32-.51,1.18-2.51-.79-6.17,4.3-7.01"/>
      <path class="cls-2" d="M549.79,184.88c-1.2-.76-2.41-1.52-4.35-2.74,1.57-.92,2.56-1.51,3.56-2.09.69,1.36,1.38,2.73,2.07,4.09-.42.25-.85.5-1.27.75"/>
      <path class="cls-2" d="M442.13,155.95c1.69-1.14,2.61-1.76,4.22-2.84.38,1.7.9,3.12.91,4.53,0,.75-.75,1.91-1.42,2.14-.63.22-1.86-.3-2.37-.88-1.15-1.31-2.2-2.78-2.97-4.35-1.44-2.9-2.57-5.44-6.54-6.31-3.89-.84-3.72-6.93.86-11.21.38.8.77,1.63,1.17,2.47.23.49.37,1.06.71,1.46,1.78,2.12,4.28,3.94,5.24,6.37.9,2.28.19,5.2.19,8.61"/>
      <path class="cls-2" d="M418.21,151.03c-1.28.4-2.24.71-3.03.96-2.58-1.47-2.33-7.44.19-9.96,5.76,3.77,8.79,13.37,4.7,16.94-.62-2.66-1.18-5.04-1.86-7.94"/>
      <path class="cls-2" d="M426.52,148.79c-4.85-1.31-6.09-4.44-3.65-8.16,1-1.53,1.37-3.46,2.15-5.14.36-.79,1.03-1.43,1.56-2.15.78.66,1.67,1.22,2.3,2,.38.47.59,1.33.45,1.91-.87,3.86-1.86,7.7-2.81,11.54"/>
      <path class="cls-2" d="M457.97,152.76c-3.5-6.63.27-12.07,2.55-18.07,3.01,1.78,3.87,3.58,2.42,6.57-1.16,2.39-1.5,5.17-2.49,7.66-.55,1.37-1.69,2.51-2.56,3.74l.09.09Z"/>
      <path class="cls-2" d="M502.26,143.17c-2.16-1.92-4.37-3.79-6.46-5.78-2.06-1.97-1.32-7.04,1.25-8.13.63-.27,2.23.19,2.39.65,1.48,4.36,2.73,8.8,4.06,13.22-.41.02-.82.03-1.23.05"/>
      <path class="cls-2" d="M520.82,155.04c1.33-1.37,2.74-2.83,4.15-4.29,1.22,1.95,2.94,3.76,3.55,5.88.97,3.38-1.92,5.41-4.03,3.08-.62-.69-.99-1.6-1.56-2.36-.48-.64-1.08-1.2-2.1-2.31"/>
      <path class="cls-2" d="M603.12,139.68c-3.55.76-6.9-1.84-6.33-5.3.2-1.25,1.66-2.89,2.83-3.18.8-.2,2.7,1.45,3.05,2.6.57,1.87.26,4,.32,6.03,0,0,.13-.15.13-.15"/>
      <path class="cls-2" d="M679.53,159.02c.33-4.47-2.95-8.92-.21-13.55,4.52,2.75,4.66,7.59.21,13.55"/>
      <path class="cls-2" d="M673.5,149.8c-.39-3.27-.8-6.04-.99-8.82-.04-.64.59-1.77,1.09-1.88.78-.18,1.95.05,2.56.56,2.64,2.26,1.51,8.05-2.66,10.14"/>
      <path class="cls-2" d="M479.7,140.83c-.99-2.13-2.24-4.19-2.85-6.42-.26-.94.83-2.24,1.3-3.38,1.13.72,3.06,1.28,3.23,2.19.46,2.37.16,4.88.16,7.34-.61.09-1.23.18-1.84.28"/>
      <path class="cls-2" d="M529.77,153.69c-1.4-2.83-2.65-4.96-3.46-7.25-.22-.64.68-2.16,1.42-2.5.62-.28,2.15.31,2.6.98,1.61,2.42,2.6,5.04-.56,8.78"/>
      <path class="cls-2" d="M373.92,154.17c1.42-1.29,2.27-2.06,3.12-2.83,1,1.57,2.5,3.04,2.8,4.73.19,1.06-1.44,2.45-2.25,3.69-1.14-1.73-2.27-3.46-3.67-5.59"/>
      <path class="cls-2" d="M520.13,136.9c-3-.94-5.19-4.96-3.8-7.33.4-.69,2.26-1.4,2.43-1.2,1.09,1.22,2.43,2.62,2.64,4.11.2,1.43-.87,3.03-1.39,4.56l.11-.14Z"/>
      <path class="cls-2" d="M520.02,137.04c2.38-.37,5.68-3.16,6.17,1.83.15,1.54-1.25,3.22-1.94,4.84-.65-.03-1.3-.06-1.95-.08-.72-2.24-1.44-4.48-2.16-6.73,0,0-.11.13-.11.13"/>
      <path class="cls-2" d="M659.78,139.95c-3.42,2.72-5.29,2.54-5.66-.87-.18-1.62,1.3-3.42,2.03-5.14,1.06,1.25,2.23,2.43,3.14,3.79.4.6.28,1.56.4,2.35,0-.01.09-.12.09-.12"/>
      <path class="cls-2" d="M405.16,154.45c-3.07-3.65-3.1-7.05-.86-10.68,3.95,3.37,4.19,5.92.86,10.68"/>
      <path class="cls-2" d="M444.16,145.54c-3.72-2.37-1.97-5.84-2.27-8.95,5.05.7,5.77,3.69,2.27,8.95"/>
      <path class="cls-2" d="M473.69,137.7c-1.52,1.49-2.63,2.59-3.75,3.68-.75-1.41-2.12-2.85-2.06-4.22.06-1.31,1.62-2.55,2.53-3.82.96,1.27,1.91,2.54,3.28,4.36"/>
      <path class="cls-2" d="M766.21,148.48v-8.67c.52-.17,1.04-.33,1.56-.5.87,1.56,2.73,3.42,2.38,4.62-.51,1.73-2.64,2.98-4.08,4.43,0,0,.14.12.14.12"/>
      <path class="cls-2" d="M457.88,152.66c1.11,3.02-.22,5.06-2.64,6.8-5.46-2.94.69-5.52.34-8.52.8.61,1.59,1.21,2.39,1.82,0,0-.09-.09-.09-.09"/>
      <path class="cls-2" d="M445.73,147.48c1.36-1.65,2.29-2.78,3.21-3.9.89,1.12,2.48,2.24,2.5,3.38.02,1.42-1.24,2.87-1.95,4.3-1.11-1.12-2.22-2.23-3.76-3.78"/>
      <path class="cls-2" d="M527.14,135.49c-.24-2.17-.66-4.34-.62-6.5.01-.65,1.42-1.88,1.99-1.77.8.15,2.04,1.35,1.98,2.01-.18,2.12-.87,4.19-1.36,6.28-.66,0-1.33-.02-1.99-.02"/>
      <path class="cls-2" d="M669.53,130.24c.55,3.97,3.11,7.41-.09,10.86-3.35-4.81-3.36-5.63.09-10.86"/>
      <path class="cls-2" d="M418.04,142.59c-.7-1.57-1.7-3.1-1.98-4.74-.18-1.06.7-2.3,1.11-3.46,1,.84,2.69,1.57,2.84,2.55.28,1.82-.33,3.78-.56,5.68-.47,0-.94-.01-1.41-.02"/>
      <path class="cls-2" d="M455.68,140.68c-1.19,1.46-2,2.44-2.8,3.43-.98-1.45-2.38-2.79-2.75-4.38-.19-.8,1.46-2.05,2.28-3.09.98,1.21,1.95,2.41,3.28,4.05"/>
      <path class="cls-2" d="M448.4,135.75c-3.95-1.31-5.37-4.94-3.48-7.37.35-.46,1.27-1.01,1.59-.85.74.38,1.72,1.11,1.81,1.79.24,1.95.08,3.96.08,6.43"/>
      <path class="cls-2" d="M548.11,135.5c-1.28-1.21-2.4-1.79-2.64-2.62-.45-1.53-.42-3.22-.44-4.84,0-.1,1.82-.53,2-.27.9,1.35,1.72,2.81,2.17,4.35.21.71-.5,1.69-1.09,3.39"/>
      <path class="cls-2" d="M651.18,22.76c-6.52,4.19-13.05,8.37-19.57,12.56-.22-.34-.43-.68-.65-1.02,6.57-4.11,13.15-8.21,19.72-12.32.17.26.33.52.5.78"/>
      <path class="cls-2" d="M513.2,146.37c0-2.9-.15-4.94.09-6.93.08-.61,1.18-1.38,1.93-1.52.41-.08,1.42.93,1.5,1.55.33,2.38.62,4.87-3.52,6.9"/>
      <path class="cls-2" d="M463.75,134.29c.28-2.49.52-4.59.76-6.69,1.01.66,2.47,1.09,2.95,2.02,1.12,2.16,1.12,4.24-3.71,4.67"/>
      <path class="cls-2" d="M398.41,147.18c-.27-2.29-.64-4.57-.73-6.87-.02-.48.99-1,1.53-1.51.57.63,1.62,1.25,1.62,1.88.02,2.1-.34,4.2-.56,6.3-.62.07-1.24.13-1.87.2"/>
      <path class="cls-2" d="M553.43,135.42c-.34,1.98-.68,3.96-1.01,5.95-1.15-.81-3.26-1.63-3.25-2.42.02-1.46,1.28-2.91,2.02-4.36.75.28,1.5.56,2.24.84"/>
      <path class="cls-2" d="M613.75,38.2c-4.55,3.42-9.09,6.85-13.64,10.27-.3-.41-.6-.82-.9-1.22,4.6-3.28,9.21-6.56,13.81-9.84.25.27.49.53.74.8"/>
      <path class="cls-2" d="M409.38,142.8c-.48-1.9-1.09-3.78-1.35-5.71-.1-.71.61-1.54.95-2.31.68.52,1.9.97,1.96,1.56.24,2.11.09,4.26.09,6.4-.55.02-1.1.04-1.65.06"/>
      <path class="cls-2" d="M403.76,129.15c2.09,2.72,1.29,5.33-1.47,7.89v-7.89c.49,0,.98,0,1.47,0"/>
      <path class="cls-2" d="M395.78,132.42l-1.32,5.99c-.9-.26-2.61-.66-2.6-.75.35-1.98.9-3.93,1.41-5.89.84.22,1.67.43,2.51.65"/>
      <path class="cls-2" d="M779,149.71c-1.78-.83-2.35-.92-2.42-1.16-.58-1.88-1.06-3.79-1.57-5.7.85.04,2.35-.13,2.45.16.62,1.85.92,3.81,1.54,6.69"/>
      <path class="cls-2" d="M628.1,137.46c-.4-1.54-1.07-3.08-1.1-4.63-.02-1.05.87-2.12,1.35-3.18.62,1.03,1.72,2.04,1.75,3.09.05,1.61-.62,3.24-.99,4.87-.34-.05-.67-.1-1.01-.15"/>
      <path class="cls-2" d="M386.55,144.54q-2.76-1.96-1.62-9.31l1.14-.07c.14,2.76.28,5.52.48,9.38"/>
      <path class="cls-2" d="M422.03,134.59c-.91-2.79-1.56-4.78-2.22-6.77.82-.21,2.03-.86,2.38-.54,2.08,1.85,2.27,4.02-.17,7.32"/>
      <path class="cls-2" d="M559.07,127.29v-7.12c.42,0,.83.02,1.25.02v7.31c-.42-.07-.83-.14-1.25-.22"/>
      <path class="cls-2" d="M581.73,119.95c-.55,2.08-1.1,4.16-1.66,6.23-.67-.17-1.34-.35-2.01-.52.58-2.07,1.16-4.14,1.75-6.21.64.17,1.28.33,1.92.5"/>
      <path class="cls-2" d="M470.1,126.39v-5.33c.62.07,1.75.06,1.77.21.25,1.69.32,3.41.44,5.12-.74,0-1.48,0-2.21,0"/>
      <path class="cls-2" d="M426.05,118.98c.47,1.84.94,3.69,1.41,5.53-.67.19-1.34.39-2.01.59-.52-1.81-1.03-3.62-1.55-5.44.72-.22,1.43-.45,2.15-.68"/>
      <path class="cls-2" d="M552.85,128.82c-.72-1.17-1.64-2.27-2.07-3.54-.14-.41.99-1.25,1.54-1.89.84,1.38,1.69,2.76,2.53,4.14-.67.43-1.33.85-2,1.28"/>
      <path class="cls-2" d="M390.51,141.71c-.36,2.28-.73,4.57-1.1,6.85-.66-.12-1.32-.24-1.98-.37.48-2.26.96-4.52,1.45-6.78.54.1,1.09.2,1.63.3"/>
      <path class="cls-2" d="M286.24,147.66c-.12,1.87-.23,3.75-.35,5.62-.36.14-.72.27-1.08.4-.59-.78-1.68-1.58-1.66-2.35.03-1.43.71-2.84,1.13-4.26.65.2,1.31.39,1.97.59"/>
      <path class="cls-2" d="M258.6,158.12v-5.32c.6,0,1.2-.01,1.8-.02v5.33c-.6,0-1.2.01-1.8.02"/>
      <path class="cls-2" d="M295.87,300.76c12.46-2.81,24.91-5.63,37.37-8.45.09.42.19.84.28,1.26-12.43,2.82-24.85,5.65-37.28,8.47-.12-.43-.25-.85-.37-1.28"/>
      <path class="cls-2" d="M336.93,309.05c-7.86.72-15.72,1.44-23.57,2.16-.04-.37-.07-.73-.1-1.1,7.82-.69,15.63-1.37,23.45-2.06.08.33.15.67.23,1"/>
      <path class="cls-2" d="M1062.61,172.99c.36-4.06,3.73-7.74,6.07-7.02,1.15.36,2.47,2.12,2.62,3.37.28,2.51-4.22,6.77-6.3,6.09-1.16-.38-1.93-1.95-2.38-2.44"/>
      <path class="cls-2" d="M1072.75,181.35c-.69,2.27-1.15,4.66-2.18,6.77-.46.94-2.07,1.32-3.16,1.95-.43-1.42-1.66-3.35-1.15-4.15,1.32-2.05,3.42-3.6,5.21-5.35l1.28.78Z"/>
      <path class="cls-2" d="M1001.21,180.67c-2.07-2.3-3.6-4.41-1.41-6.92.46-.53,2.69-.47,3.1.07,1.9,2.52,1,4.74-1.68,6.85"/>
      <path class="cls-2" d="M1009.58,180.43c-.28-.29-.81-.58-.81-.88,0-1.57-.08-3.2.34-4.68.13-.45,2.32-.94,2.54-.65.71.96,1.38,2.31,1.28,3.45-.15,1.8-.94,3.55-3.44,2.68,0,0,.09.07.09.07"/>
      <path class="cls-2" d="M1023.65,186.14c-.3-2.07-.61-4.14-1.02-6.92,5.27,2.23,5.48,3.27,2.55,6.77-.51.05-1.02.1-1.54.15"/>
      <path class="cls-2" d="M986.94,171.81c.43-1.59.8-3.21,1.37-4.75.05-.15,1.3.15,2,.23-.25,1.68-.5,3.35-.75,5.03-.87-.17-1.75-.34-2.62-.52"/>
      <path class="cls-2" d="M1001.36,151.96c2.4.98,4.14,1.69,6.66,2.72-6.11,2.22-6.36,2.13-6.66-2.72"/>
      <path class="cls-2" d="M1036.36,179.38c.13-1.53.27-3.06.4-4.6.71.1,2.04.17,2.04.29.05,1.5-.09,3-.19,4.5-.75-.07-1.5-.13-2.25-.2"/>
      <g>
        <path class="cls-1" d="M889.75,291.57l-.03-.13c-1.72-9.1-2.75-18.16-3.07-26.93,0-.08,0-.16,0-.25,0-.57.04-2.09-1.75-2.5l-.96-.22-.41,1.61s-.08-.09-.12-.14c-1-1.18-1.94-2.29-2.67-3.49.06-.22.25-.55.53-.94,0,.01,0,.03,0,.04.03.56.33,1.09.88,1.58.84.74,2.22,1.04,3.07.24,1-.93.75-2.19.59-3.02l-.07-.36c-.17-1-.69-1.9-1.15-2.69-.4-.68-.81-1.39-.75-1.79.79-6.05-2.24-10.44-5.18-14.69l-.33-.48c-2.89-4.19-6.92-6.86-12.04-9.31,7.39-3.31,13.15-6.92,17.13-12.89,6.51-9.78,8.84-20.84,7.14-33.81-3.37-25.6-24.16-37.6-43.28-38.14-16.39-.46-33.06-.37-49.18-.28-8.8.05-17.91.1-26.86.06-1.95,0-3.31.18-4.26,1.14-.82.82-1.17,2.04-1.16,4.07.15,24.58.12,49.57.09,73.73v11c-.02,2.48-.02,5.48,2.71,6.87-.06.02-.11.04-.18.06-1.06.39-2.67.97-2.64,3.51.2,17.63.14,35.56.09,52.9v4.68c-.02.96.08,2.05.84,2.79s1.82.82,2.7.8c7.37-.13,13.33-.13,18.77.01.07,0,.14,0,.21,0,3.45,0,3.59-2.36,3.7-4.09.17-2.72-.01-5.44-.19-8.08-.22-3.33-.45-6.77.05-10.11.02-.1.05-.24.09-.39.19-.74.52-1.97-.27-2.79-.41-.43-.96-.57-1.46-.59.61-.27,1.09-.61,1.28-1.03.93-2.08-.81-3.1-1.84-3.71-1.33-.78-1.63-1.09-1.33-1.97.18-.51-.02-1.07-.5-1.38-.12-.08-.25-.14-.4-.19.28-.03.62-.14.97-.43.5-.4,1.28-1.57.83-2.47-.79-1.56-1.09-3.31-1.4-5.17-.48-2.85-.98-5.81-3.37-8.28-.26-.27-.4-.51-.39-.66.03-.34.73-.89,1.25-1.29.43-.34.88-.68,1.22-1.08.46-.54.81-.72.83-.76,0,0,.18.14.33.79.19.79.62,1.18.94,1.37.48.28,1.05.32,1.7.12.77-.23,1.12-.83,1.05-1.78,0-.06-.01-.1-.02-.07.67-2.33.83-4.89.52-8.07-.15-1.54.02-2.56.52-3.06.49-.48,1.48-.64,2.94-.47l.36.04c1.28.16,2.87.36,3.99-.64.6-.53.94-1.32,1.04-2.34.09.13.2.25.33.33.05.07.11.31.16.47.15.52.37,1.31,1.14,1.63.81.34,1.63-.12,1.9-.27.79-.44,1.25-.97,1.42-1.62.27-1.06-.39-2.08-.87-2.82-.51-.8-.61-1.81-.29-3.22,1.34.37,2.68.49,3.94.56.15,3.14,2.73,3.51,4.5,3.76.42.06.84.12,1.24.21,1,.23,1.25.72,1.38,1.16.81,2.93,3.45,2.88,4.71,2.85,6.45-.14,12.75-.2,18.96.73,10.2,1.53,16.11,6.08,18.59,14.34.45,1.48.87,2.97,1.3,4.5l.62,2.2.53,1.61,1.2-1.25c1.17-1.21,1.3-1.26,2.09-.66.16.12.25.21.29.27-.06.09-.15.21-.22.29-.27.33-.6.74-.68,1.31-.1.72-.51,1.33-.98,2.05-.65.98-1.39,2.09-1.44,3.71-.12,4.62.27,9.25.65,13.72.15,1.71.29,3.41.41,5.12l.04.58c.3,4.43.62,9,2.79,13.23,1,1.95,2.28,3.85,5.36,3.78,4.33-.09,8.75-.08,13.02-.07,2.55,0,5.11.01,7.67,0,.15,0,.28.02.43.03.71.07,2.18.22,2.79-1.36.53-1.34.2-2.7-.92-3.82-2.1-2.08-2.62-4.87-3.18-7.82ZM793.09,231.55c.13.38.37.66.64.86-1.04.07-2.08.04-2.47-.34-.3-.3-.37-1.05-.2-2.25.12-.84.42-1.47.84-1.77.21-.15.46-.22.75-.22.12,0,.26.01.4.04.27.05.61.16.72.43.13.29.02.76-.28,1.24-.48.76-.61,1.42-.41,2.02ZM792.56,216.46c-.45-.46-.63-1.39-.57-3.02.19-5.17.15-10.43.11-15.51-.02-2.12-.03-4.24-.03-6.36,0-2.14,0-4.27.01-6.41.02-5.43.04-11.05-.06-16.58-.02-1.14.12-1.83.46-2.16.33-.33,1.05-.5,2.17-.48,6.3.06,12.7.06,18.89.05,7.26-.01,14.76-.02,22.14.09,4.95.07,9.7.75,14.12,2,10.1,2.87,13.13,11.09,13.89,17.48.65,5.46.5,9.85-.49,13.81-2.27,9.09-8.27,14.61-18.34,16.85-3.86.86-7.87.81-11.74.77-1.13-.01-2.25-.03-3.37-.02-4.41.03-8.89.02-13.23,0-6.9-.02-14.02-.04-21.04.11-1.54.03-2.47-.16-2.92-.62ZM878.71,269.3c-.08.09-.17.17-.2.19-.54.05-1-.25-1.24-.51-.18-.21-.22-.38-.21-.43.09-.48.13-.92.11-1.32.45.72.92,1.45,1.54,2.07ZM786.45,282.29c-.9.21-1.54.64-1.89,1.28-.31.57-.37,1.24-.16,2-.58.63-.59,1.6-.59,2.13-.32-.1-.65-.2-.98-.3-1.78-.53-3.48-1.04-4.52-2.41.43-.02,1.03-.11,1.53-.54.15.24.33.44.54.59.39.28.85.39,1.31.3,1.68-.34,1.6-1.97,1.56-2.75-.06-1.18.1-1.94.49-2.37.36-.4,1.03-.62,1.98-.66,0,0,.13,0,.34-.03-.1.12-.19.26-.25.42-.31.77.07,1.58.64,2.34ZM776.03,222.95c-.14-.89,0-1.25.24-1.43.9.53,1.05,1.02.97,1.64-.1.84-.1.87-1.1.88-.09,0-.18,0-.25,0,0-.02,0-.03.01-.05.08-.31.18-.65.12-1.04ZM785.32,270.75c-.49.45-.68.42-.68.43-.14-.01-.54-.53-.73-.78-.17-.22-.35-.45-.54-.67-.19-.21-.24-.34-.26-.34.08-.13.41-.36.64-.52.75-.52,1.14-.58,1.33-.54.26.06.49.37.64.63l.08.14c.19.34.48.87,1.04,1.1-.53,0-1.09.17-1.52.56Z"/>
        <path class="cls-1" d="M1041.5,187.9c-9.53-27.56-30.77-43.41-59.79-44.64-13.51-.57-27.27-.44-40.58-.32-7.2.07-14.64.13-21.95.09-1.88-.02-3.2.17-4.11,1.07-.79.79-1.12,1.96-1.12,3.93.15,55.01.1,110,.04,151.76,0,1.41.08,2.87,1.03,3.82.73.72,1.78,1.05,3.57,1.03,12.52-.1,25.25-.1,37.56-.09,6.68,0,13.36,0,20.04,0h0c.15,0,.31.03.47.06.21.04.52.09.86.09.75,0,1.67-.26,2.15-1.5l.22-.58-.58-.63c-.14-.17-.28-.32-.44-.45-.52-.45-1.13-.83-1.71-1.21-1.47-.94-2.37-1.58-2.38-2.54,0-.67-.01-.76,1.5-.8,1.05-.03,2.35-.06,3.23-1.04.11,0,.27-.01.39-.01.59,0,1.48-.01,2-.75.56-.79.19-1.83.07-2.18-.21-.6-.5-1.08-.87-1.43,1.79,1.13,3.7,2.1,5.91,3.03.03.88.2,2,.99,2.6.83.63,1.84.36,2.66.14.43-.12.88-.24,1.23-.21.69.04,1.44-.16,2.16-.36.88-.24,1.89-.51,2.33-.18.34.25.56.98.61,2.04.04.93.36,1.6.94,1.99.96.64,2.15.21,3.02-.1l.24-.08c12.1-4.24,22.08-11.33,29.65-21.07,8.67-11.16,13.7-24.75,15.38-41.56,1.89-18.9.34-35.23-4.74-49.92ZM926.27,199.33c.92,2.15,2.52,3.68,4.08,5.16l.34.33c-.12.18-.39.46-.57.65-.39.41-.79.83-1.03,1.34-1.3,2.84.53,4.22,1.62,5.04.25.19.5.37.71.58.53.5,1.33,1.14,2.24.87.48-.14.78-.47.99-.85l.2.11c.03.08.06.21.08.3.08.36.2.87.57,1.26-.4.16-.73.43-.9.59-.71.65-1.57.63-2.92.55-1.3-.08-2.89-.18-4.25.91-.19-.04-.45-.14-.53-.21-1.85-1.87-2.82-4.26-3.85-6.78-.91-2.24-1.86-4.56-3.48-6.54,0-.09.04-.23.1-.47.9-.67,5.15-2.48,6.59-2.83ZM935.48,210.48c.12-.1.25-.14.42-.14.1,0,.21.02.35.05-.25-.02-.51,0-.76.09ZM977.35,291.42c-.43.2-1.22.41-1.79-.4-.25-.36-.36-.59.34-1.49.34-.44.54-.86.65-1.25l1.92,1.46c.63.48,1.27.93,1.92,1.36-.83-.35-1.82-.24-3.02.32ZM976.62,287.92c.09-.63-.06-1.15-.21-1.47-.62-1.37-2.24-2.05-2.93-2.09-3.15-.2-6.07.04-8.71.7-.67.17-1.15.5-1.43.98-.45.78-.2,1.67,0,2.38.04.13.08.27.11.42-.11-.07-.23-.15-.36-.24-.6-.41-1.33-.91-2.36-.91-.13,0-.26,0-.39.02-.81.1-1.91.08-2.53-.53-.62-.62-.63-1.72-.54-2.54.15-1.24-.06-2.16-.64-2.79-.82-.9-2.12-.94-3.27-.91-1.67.05-3.38.03-5.03.02-1.93-.02-3.93-.03-5.9.05-.96.04-1.32-.12-1.46-.25-.14-.14-.3-.51-.27-1.49.03-.99.08-1.98.12-2.98.17-3.55.35-7.22-.27-10.75-.56-3.2-.36-6.24-.14-9.45.06-.97.13-1.94.17-2.93.31-7.03.26-14.19.21-21.11-.03-3.39-.05-6.79-.04-10.18,0-1.85-1.01-3.08-1.91-4.17-.7-.85-1.31-1.58-1.43-2.52-.03-.19-.08-.37-.17-.52.22-.03.46-.09.71-.17,1.5-.49,2.85-1.13,2.83-3.66-.04-5.17-.03-10.43-.02-15.52.02-8.25.04-16.78-.15-25.17-.04-1.6.16-2.55.62-3.01.46-.46,1.37-.63,3.19-.59,4.97.11,10.03.09,14.91.07,6.59-.02,13.4-.05,20.07.24,13.35.58,23.66,6.08,30.64,16.35,4.75,6.99,7.48,15.16,8.85,26.49,1.6,13.25,1.18,25.2-1.28,36.54-2.29,10.56-6.69,18.6-13.43,24.6l-1.15,1.02,1.4.64c1.18.54,2.37.11,3.24-.21.27-.1.65-.23.85-.26.02.05.05.14.08.27.21.98.52,3.35-1.18,4.14-2.62,1.23-4.04,2.1-4.49,3.51-.43,1.35.15,2.76,1.37,4.88,0,.05-.06.18-.1.28-.04.09-.08.19-.11.29-.39,1.11-1.29,1.99-2.34,2.29-.57.16-1.41.22-2.21-.43-.89-.72-2.01-.85-3.01-.96-1.66-.19-2.34-.33-2.49-1.87-.04-.44-.32-.8-.75-.98-.63-.25-1.55-.06-2.16.44-3.32,2.77-7.26,4.09-12.07,4.04l-2.46-.03Z"/>
        <path class="cls-1" d="M711.6,154.31c-6.09-4.58-12.17-7.75-18.57-9.69l-2.08-.63.87,1.99c2.74,6.23,2.72,7.4-.14,10.46-.42.44-.9.84-1.42,1.26-1.18.96-2.51,2.04-3.05,3.89l-.24.82.77.37c2.55,1.21,3.94-.88,4.61-1.88.82-1.22,2.67-2.02,4.73-2.03,1.95,0,3.61.68,4.41,1.85.98,1.45.62,2.51-.11,4.26-.22-.61-.29-1.2-.1-1.82.28-.89.2-1.69-.22-2.23-.36-.46-.91-.69-1.56-.66-.71.04-1.07.36-1.25.62-.41.59-.2,1.24-.07,1.67.03.1.07.2.08.29.34,2.17-1.29,3.45-1.8,3.78-1.64,1.09-2.46,2.21-2.5,3.42-.05,1.63,1.37,2.91,2.44,3.73,6.92,5.28,11.99,12.58,15.49,22.29,5.09,14.16,6.04,29.59,2.81,45.87-2.88,14.49-9.22,25.18-19.38,32.69-13.46,9.93-29.48,12.39-47.61,7.31-20.47-5.73-33.8-24.44-35.66-50.05-.88-12.15-.19-21.26,2.25-29.54l.32-1.08-1.11-.19c-1.14-.19-1.96.19-2.58.57.09-.64.18-1.27.25-1.9.01-.13.03-.23.04-.31.03.02.07.04.11.06.76.44,1.79,1.03,2.83.62.66-.26,1.13-.86,1.4-1.79.67-2.25-.08-3.92-2.05-4.6-.51-.17-1.01-.4-1.54-.64-1.61-.72-3.43-1.53-5.68-.91-.46.13-.7.19-1.42-1.18-1.07-2.03-1.14-2.71-1.01-2.93.03-.05.35-.47,2.47-.47.83,0,1.32-.62,1.74-1.12.17-.2.36-.43.5-.53.39-.28.81-.63,1.24-.99.52-.44,1.48-1.25,1.87-1.34,1.73.58,3.12.58,4.24-.01.71-.38,1.25-.95,1.67-1.64.6,1.11,1.44,2,2.23,2.83l1.06,1.12,1.91-2.45c1.29-1.66,2.58-3.31,3.86-4.96.05-.07.11-.13.16-.2.34-.4,1.38-1.6-.05-2.97-1.09-1.05-1.81-2.4-2.57-3.83-.37-.69-.74-1.39-1.17-2.08-.45-.72-1.18-1.08-1.82-1.4-1.1-.55-1.2-.68-1-1.38.63-2.19-.68-3.53-1.64-4.5-.77-.78-1.24-1.3-1.21-2l.04-1.07-.99.03c-.06-.04-.17-.12-.25-.17-.36-.26-1.44-1.07-2.5-.03-.92.9-2.08,1.44-3.31,2-1.54.71-3.28,1.51-4.67,3.15-6.33,7.47-11.3,15.82-15.17,25.52-1.03,2.58-.71,4.42.21,5.86-.08,0-.17.01-.23.02-.36.02-.97.04-1.27.62-3.39,6.35-3.68,13.32-3.69,19.35,0,1.36,1.41,2.75,2.68,3.15.99.31,1.89.05,2.41-.7.94-1.35,1.34-1.12,2.65-.36.56.33,1.2.7,1.93.89l1.75.45-.55-1.72c-.31-.96.03-1.78.46-2.82.53-1.3,1.2-2.92.56-5.1l-.76-2.58-1.11,2.45c-.5,1.11-1.21,1.7-1.95,2.33-.72.61-1.47,1.24-1.94,2.31-.11.07-.61.03-1.18-.27-.32-.17-.43-.34-.44-.38,0,0,0-.06.11-.19.99-1.26,1.27-2.73,1.54-4.16.32-1.71.6-3.18,2.02-4.12.67-.45,1.08-1.37,1-2.25-.08-.86-.61-1.55-1.45-1.9-1.41-.58-1.5-1.51-1.28-3.55.53.49,1.12.94,1.71,1.35.26.18.53.3.77.41.08.03.17.08.25.12-.49,1.16-.56,2.08-.21,2.82.48,1.03,1.58,1.35,2.46,1.61.41.12.83.24,1.11.41.57.35,1.27.47,1.96.59.42.07,1.3.22,1.39.41,0,0,.15.33-.47,1.5-.32.61-.24,1.08-.1,1.36.29.62.92.76,1.23.83.04,0,.09.02.07,0,.26.14,1.07.55,1.18.95.07.23-.06.62-.35,1.1-.83,1.38-.08,2.73.47,3.73l.19.34c2.34,4.35,2.37,7.6.09,9.93-1.12,1.14-1.45,1.14-2.14.53-.75-.65-1.74-1.36-2.74-1.01-1.05.37-1.36,1.62-1.59,2.87-.21,1.17-.66,1.98-1.22,2.21-.61.26-1.44-.15-2.02-.54-2.11-1.42-4.4-1.59-6.6-1.75-.34-.03-.68-.05-1.02-.08l-1.01-.09-.07,1.01c-.54,7.48.86,14.61,2.31,20.6,4.41,18.26,13.28,32.77,26.37,43.15,14.19,11.25,30.59,16.91,48.92,16.91,5.07,0,10.29-.43,15.64-1.3,27.05-4.38,46.39-19.4,57.49-44.66,7.27-16.54,9.39-34.93,6.32-54.65-3.58-22.98-13.64-40.4-30.74-53.25Z"/>
        <path class="cls-1" d="M447.97,290.86c-.37-.47-.95-.75-1.72-.82-2.28-.21-2.59,1.59-2.73,2.45-.03.18-.06.37-.1.55-.55,2.26-1.53,3.05-3.6,2.92-.65-.04-1.29-.12-1.93-.2-1.76-.21-3.59-.43-5.58.02-.61.14-1.52.12-2.07-.39-.43-.4-.58-1.07-.45-2,.38-2.61-.5-4.68-2.34-5.53l-.42-.19c-.14-.06-.29-.13-.42-.19.1-.13.25-.32.48-.59,1.07-1.21,1.47-2.62,1.07-3.77-.27-.79-1.03-1.81-3.1-2.2-1.54-.29-2.47-1.44-3.4-3.09-.52-.92-.66-1.73-.38-2.29.26-.54.95-.92,1.95-1.06.09-.01.2,0,.3,0,.47,0,1.71.03,2.07-1.33.35-1.33-.64-2.17-1.11-2.58-.81-.69-1.65-1.41-1.67-2.02-.02-.46.43-1,.81-1.37,1.22-1.2.25-2.55-.16-3.13-.1-.14-.2-.27-.26-.39-.6-1.11-1.18-2.23-1.77-3.36-1.82-3.48-3.7-7.07-5.88-10.42-10.93-16.83-21.89-33.64-32.85-50.45-11.71-17.96-23.43-35.93-35.1-53.92-1.3-2.01-2.75-2.44-4.65-2.44-.04,0-.09,0-.13,0-1.26.01-2.52.03-3.78.05-4.79.06-9.75.13-14.59-.11-1.92-.1-3.15.21-3.96.98-.98.94-1.18,2.36-1.18,4.21.08,39.16.08,78.97.08,117.48v28.96c0,.66,0,1.32.02,1.98.02,1.44.05,2.92-.05,4.35-.05.79-.03,1.92.74,2.73.78.82,1.94.91,2.88.89,5.17-.09,11.26-.15,17.26.02,1.12.03,2.37-.05,3.23-.89.87-.84.98-2.11.98-3.24-.08-35.59-.09-71.79-.03-110.67,0-1.27-.18-2.54-.36-3.76-.18-1.21-.36-2.45-.37-3.75.65,1.14,1.28,2.27,1.91,3.39,2.37,4.23,4.62,8.23,7.12,12.12,16.33,25.24,33.01,50.85,49.14,75.61l11.41,17.51c.8,1.22,1.55,2.6,2.28,3.93,1.84,3.35,3.74,6.81,6.73,8.76,1.83,1.19,3.98,1.54,6.23,1.54,1.53,0,3.11-.16,4.67-.31,1.58-.16,3.2-.32,4.7-.3,4.96.06,7.69.09,9.2-1.45,1.51-1.55,1.41-4.18,1.22-9.44,0-.16.03-.35.06-.54.09-.64.22-1.52-.34-2.24Z"/>
        <path class="cls-1" d="M562.12,175.45c-.65-2.11-1.15-2.66-3.22-2.2-.14.03-.21.03-.22.03-.07-.08-.15-.34-.24-.77-.03-.12-.06-.25-.1-.39.16.05.35.12.47.17l.14.05c2.07.8,3.39.36,4.13-.14.72-.49,1.59-1.53,1.6-3.65.03-6.84.03-14.13,0-22.28,0-.11.01-.23.03-.35.07-.59.26-2.37-1.86-2.71l-1.05-.17-.1,1.06c-.27,2.78-2.19,4.4-4.24,6.12-.71.59-1.44,1.21-2.1,1.88-.87.88-1.4,1.6-1.35,2.47.05.92.75,1.56,1.41,2.09,1.81,1.47,1.87,2.12,1.84,2.28-.02.15-.26.71-2.22,1.45-.97.36-1.55.91-1.96,1.48-.44-1.46-.18-2.08.83-4.47.45-1.07.17-2.11-.84-3.11-.74-.74-1.47-1.48-2.21-2.23-1.64-1.67-3.33-3.4-5.11-5-1.1-.99-3.14-.62-4.68.05-.69.3-2.93,1.4-2.96,3.08-.04,2.72-.04,5.48-.03,8.14,0,1.43,0,2.86,0,4.29,0,1.02.32,2.41,1.23,2.98.49.3,1.08.32,1.61.04,1.11-.57,2.25-.35,3.56-.1,1.03.2,2.15.41,3.3.19-.1.16-.23.33-.38.52-.55.72-1.29,1.71-.93,3.1l.08.32.26.21c.83.66,1.82.32,2.54.07.18-.06.45-.15.62-.19.03.1.07.28.09.58.06.99.5,1.8.9,2.52.48.88.75,1.4.55,2.01-.28.86-.71,1.46-1.12,1.56-.36.08-.83-.16-1.36-.69-.97-.97-1.96-1.44-2.97-1.45-.82,0-1.59.37-2.23,1.04-1.24,1.3-2.29,1.08-4.31.08l-1.45-.72v6.01c0,8.13.02,16.27.04,24.4.05,19.64.1,39.95-.21,59.91-.17,11.06-4.46,16.86-14.32,19.38-4.66,1.19-9.83,1.11-15.8-.24-6.23-1.41-10.27-5.09-12.37-11.27-.47-1.39-.91-2.83-1.33-4.21-.2-.66-.4-1.31-.6-1.96l-.63-2.02c-.01-2.62-.21-4.89-1.05-7.33l-.93-2.7-.96,2.69c-1.36,3.81-.28,6.69.97,10.01l.53-.09c-.05.17-.1.35-.14.52-.6,2.31-.89,3.02-3,2.61-1.03-.2-1.72.24-2.07,1.31-.02.07-.06.18-.07.2-1.98,2.93-4.4,5.73-8.58,6.46-2.62.46-4.14,1.3-4.78,2.67-.87,1.85.22,4.16,1.12,5.73,2.76,4.83,6.48,8.93,11.06,12.17,8.45,5.99,18.15,8.91,29.92,8.91,3.95,0,8.14-.33,12.59-.98,23.04-3.37,36.94-19.96,37.2-44.36.03-2.45.06-4.9.1-7.35.14-8.6.28-17.48-.2-26.21-.33-6.06-.07-12.27.18-18.27.48-11.57.98-23.53-2.64-35.22Z"/>
        <path class="cls-1" d="M423.54,149.81c.14,13.82.05,27.88-.04,41.48-.15,23.72-.3,48.25.73,72.38.08,1.79.44,4.01,2.56,5.27.42.25.82.35,1.2.35,1.04,0,1.93-.74,2.57-1.28,2.2-1.83,2.87-3.88,1.86-5.79-.78-1.49-.3-2.71.37-4.03,2.07-4.13,1.76-7.93-.96-11.69-.17-.23-.52-.72-.53-.86,2.41-3.75.08-6.08-1.79-7.95l-.47-.47c-1.03-1.05-1.66-3.8-1.34-5.89.15-.99.46-1.48.68-1.6.52-.28,1.03-.58,1.53-.88,2.59-1.52,4.83-2.83,8.5-1.88,3.69.96,6.17.81,7.8-.48,1.6-1.27,2.27-3.52,2.18-7.31-.2-8.21-.16-16.58-.12-24.67.02-3.42.04-6.84.04-10.26v-9.49c-.02-9.08-.03-18.48.05-27.71,0-1.18-.1-2.38-.92-3.18-.82-.8-2.02-.86-2.97-.82-3.34.12-6.76.1-10.06.08-1.56-.01-3.12-.02-4.69-.02-2.78,0-3.09.54-3.44,3.23v.02s-.05.06-.08.1c-.71-.2-1.57-.29-2.21.26-.82.69-.62,1.83-.5,2.58.03.19.07.37.07.51Z"/>
        <path class="cls-1" d="M663.92,160.49l.08-.06c.19-.16.47-.17.5-.17,1.47,2.41,3.73,2.43,5.55,2.44.75,0,1.46.01,2.07.17.28.07.57.1.85.1,1.86,0,3.61-1.41,4.56-2.34.48-.47.59-1.22.3-2.05-.32-.94-1.17-1.95-2.32-2.08-.83-.09-1.02-.22-1.02-.19-.04-.15.04-.61.24-1.36.31-1.18-.17-2.48-1.18-3.18-.99-.69-2.25-.63-3.35.16-.32.23-.48.27-.48.28-.02-.01-.05-.04-.09-.07.98-1.64.04-3.18-.49-4.06-.18-.3-.46-.76-.47-.9.22-.89.38-2.02-.28-2.76-.63-.71-1.56-.6-2.17-.52-.17.02-.44.05-.53.04,0,0,.03,0,.07.03l-1.21,1.55c1.06,1.22,1.48,2.53,1.14,3.59-.32,1-1.28,1.75-2.73,2.1-.89.22-2.71.93-3.27,2.06-.21.42-.23.87-.05,1.27.51,1.19.05,1.82-.87,2.94-.65.79-1.39,1.68-1.48,2.91l-.06.76.72.26c3.21,1.14,3.6,1.08,5.96-.9Z"/>
        <path class="cls-1" d="M673.31,151.53l.26.19c1.06.74,1.83,1.28,1.75,2.78l-.09,1.79,1.57-.86c.44-.24.82-.44,1.15-.61.64-.33,1.14-.59,1.62-.92,2.12-1.43,3.54-2.71,3.52-4.29-.02-1.61-1.51-2.88-3.74-4.31-.45-.29-.39-.42-.36-.5l.04-.1c.41-1.01.88-2.15.32-3.17-.33-.61-.96-1.01-1.86-1.19-.18-.03-.36-.07-.54-.11-1.54-.33-3.86-.83-5.51,1.81-2.3,3.69-1.66,6.97,1.88,9.49Z"/>
        <path class="cls-1" d="M473.02,258.76c1.1-1.06,2.46-2.38,1.81-4.33-.49-1.47-1.78-2.27-3.02-3.05-.97-.61-1.89-1.18-2.41-2.03-.22-.36-.55-.46-.81-.55-.12-.04-.29-.09-.55-.19l-1.32-.49-.05,2.8c-.08,3.94-.16,7.66.69,11.36,0,.07-.02.28-.04.42-.07.51-.16,1.21.32,1.79.3.37.75.57,1.33.59.04,0,.07,0,.11,0,.57,0,1.09-.23,1.48-.64.5-.55.72-1.41.58-2.34-.02-.16.09-.51.18-.78.05-.17.11-.33.15-.5.19-.73.86-1.38,1.57-2.06Z"/>
        <path class="cls-1" d="M430.84,284.75c.28.17.63.27,1.03.27.65,0,1.41-.29,2.16-1.09.35-.37.81-.73,1.3-1.11,1.17-.91,2.51-1.95,2.67-3.58.11-1.11-.34-2.28-1.41-3.56.04-.08.11-.17.14-.22l.12-.27c.51-1.77-.31-3.41-2.02-4.07-.63-.24-1.19-.24-1.66,0-.71.37-.9,1.1-1.04,1.64-.04.17-.11.43-.13.47-1.97,1.69-1.92,3.88-1.88,5.8.02,1.04.04,2.02-.23,2.87-.37,1.14.02,2.32.94,2.86Z"/>
        <path class="cls-1" d="M631.21,152.43c.14.11.29.22.41.34.29.29.59.52.88.74.33.25.64.49.83.73.05.07.11.3.16.46.13.48.34,1.21,1.04,1.58.25.13.53.2.83.2s.64-.06,1-.19c2.09-.74,1.81-2.46,1.65-3.5-.02-.11-.04-.22-.05-.34.29-.77.53-1.79.02-2.62-.59-.95-1.74-1.04-2.66-1.11-.42-.03-.89-.07-1.1-.18-.1-.05-.21-.11-.32-.18-.57-.33-1.34-.78-2.24-.52-.58.16-1.05.59-1.41,1.26-.98,1.82.34,2.85.97,3.34Z"/>
      </g>
      <rect class="cls-1" x="674.3" y="111" width="17.71" height="21.56"/>
      <path class="cls-1" d="M693,133.57h-19.71v-23.56h19.71v23.56ZM675.3,131.57h15.71v-19.56h-15.71v19.56Z"/>
      <rect class="cls-1" x="636.1" y="111" width="17.71" height="21.56"/>
      <path class="cls-1" d="M654.8,133.57h-19.71v-23.56h19.71v23.56ZM637.1,131.57h15.71v-19.56h-15.71v19.56Z"/>
    </g>
  </g>
</svg>