<?xml version="1.0" encoding="UTF-8"?>
<svg id="Layer_2" data-name="Layer 2" xmlns="http://www.w3.org/2000/svg" viewBox="0 0 1360.63 653.52">
  <defs>
    <style>
      .cls-1 {
        fill: #e41f1b;
      }

      .cls-1, .cls-2 {
        stroke-width: 0px;
      }

      .cls-2 {
        fill: #bfbebf;
      }
    </style>
  </defs>
  <g id="Livello_1" data-name="Livello 1">
    <g>
      <g>
        <path class="cls-2" d="M386.05,139.97c2.35-.16,5.46-.13,5.31-3.24-.18-3.73-3.8-4.11-6.7-4.47-2.36-.29-4.21.95-4.12,3.51.12,3.38,2.35,4.52,5.52,4.2M412.75,142.97c-2.61.35-5.3,1.32-5.4,5.18-.09,3.41,2.87,5.56,7.8,5.18,3.11-.24,5.48-2.38,6.57-5.13.74-1.88-4.97-5.31-8.96-5.23M440.78,163.27c2.65-.82,5.37-.62,8.02-.97,3.15-.41,5.04-3.09,5.83-5.59.8-2.54-2.09-3.5-4.14-4.44-2.44-1.13-4.92-2.19-7.25-3.5-3.13-1.76-5.89-1.78-8.5.96-2.06,2.16-3.61,4.27-2.21,7.54,1.6,3.74,4.52,5.34,8.25,6M467.34,159.02c-3.98.24-5.43,3.23-6.59,6.35-1.22,3.27.09,5.93,2.84,7.7,1.98,1.27,4.35,1.91,6.43,3.04,6.85,3.72,7.89,3.42,11.26-3.76.69-1.48,1.28-3.02,1.76-4.58.75-2.45.17-4.11-2.78-4.21-3.22-.11-6.05-1.4-8.76-3.02-1.28-.77-2.56-1.54-4.16-1.52M489.33,172.26c.06,3.94,3.66,8.36,8.92,11.12q7.24,3.8,10.56-3.36c.56-1.21,1.2-2.4,1.73-3.62,1.42-3.26.51-5.55-3-6.49-3.49-.94-6.6-2.28-9.2-5.05-1.91-2.03-4.62-2.13-6.54.48-1.53,2.08-2.12,4.56-2.46,6.92M586.51,216.29c4.3.41,7.17-2.05,9.33-5.53,2.04-3.28,2.29-6.74.38-10.22-1.02-1.85-2.46-3.19-4.7-2.48-3.04.96-5.09-.18-7.09-2.4-2.88-3.21-4.73-2.82-6.54,1.18-.55,1.22-1.2,2.49-1.35,3.79-.92,7.48,1.35,16.32,9.97,15.66M641,229.78c.75,0,1.5-.04,2.24,0,3.9.21,7.37-.68,8.58-4.83,1.22-4.15-.83-7.49-4.28-9.43-3.49-1.96-6.36-5.69-11.16-4.65-.82.18-1.47-.36-1.49-1.26-.03-1.26-.08-2.68-1.7-2.57-1.71.11-1.67,1.83-1.99,3.09-.18.7-.08,1.51-.39,2.14-5,10.49-.94,17.5,10.19,17.5M531.58,194.68c.75,0,1.5.08,2.24-.01,3.44-.46,8.15-5.14,8.78-8.7.77-4.38-2.36-5.99-5.43-7.72-2.47-1.39-4.84-2.94-7.25-4.44-2.53-1.56-5.03-1.71-7.54.05-3.27,2.3-5.66,12.94-3.63,16.33.29.49.77,1.06,1.27,1.19,3.87,1.07,7.43,3.18,11.55,3.29M601.28,215.74c.02,5.33,1.79,8.33,6.73,9.72,3.88,1.09,8.15.77,10.86,4.75.6.89,2.72.99,3.68-.14.91-1.07-.59-1.75-1.11-2.56-1.47-2.28-1.16-4.3.32-6.61,4.4-6.9,2.86-10.88-4.72-12.79-2.06-.52-3.21-1.95-4.43-3.52-2.49-3.2-5.23-3.26-7.74-.12-2.6,3.26-3.84,7.05-3.57,11.27M570.52,197.92c.02-4.73-.74-5.76-6.25-7.25-2.17-.59-4.32-1.06-6.12-2.56-3.33-2.77-5.51-2.58-8.18.82-3.72,4.73-3.49,9.98-1.45,15.24.94,2.42,1.52,4.53-.74,6.48-.63.55-1.72,1.05-1.1,2.12.63,1.08,1.89.94,2.84.67,2.43-.7,5.12-.95,7.26-1.97,2.8-1.33,5.78.34,8.19-1.19,4.16-2.63,5.63-6.76,5.54-12.36M396.54,179.16c-.29,5.12-2.16,8.56-3.28,12.17-1.61,5.14-3.4,10.21-3.13,15.73.26,5.2,1.74,7.23,6.86,8.47,2.6.63,5.28.96,7.93,1.37,2.18.34,3.13-1.21,4.19-2.73,4.06-5.8,6.52-12.43,9.76-18.65.93-1.78,1.46-3.91,3.86-5.2.31,5.33-1.88,9.73-3.39,14.28-1.23,3.68-2.66,7.32-3.59,11.08-1.45,5.86.64,9.1,6.43,10.67,8.44,2.29,12.52.95,17.95-5.94.93-1.18,1.87-2.78,3.53-2.24,1.89.61,1.32,2.55.98,3.9-1.88,7.55.33,11,7.79,14.45,4.85,2.24,11.94-.58,15.72-5.77,3.21-4.41,4.84-9.59,7.1-14.46.62-1.32.81-2.89,2.53-4.16.97,2.75-.38,5.06-.8,7.34-.75,4.1-2.31,8.04-2.48,12.28-.2,5.07.77,9.64,5.66,12.25,2.94,1.57,9.4-.73,12.81-4.53,3.21-3.58,5.86-7.51,7.15-12.29.66-2.46,1.35-5.17,4.72-6.38-.09,4.53-1.51,8.22-3.33,11.79-2.63,5.17-3.44,10.6-3.71,16.42-.37,8.13,8.93,12.35,15.88,9.62,3.97-1.56,6.55-4.58,8.52-8.23,1.7-3.16,3.42-6.31,5.2-9.42.41-.72.91-1.78,2.03-1.25.96.46.88,1.53.69,2.38-.29,1.31-.73,2.59-1.17,3.86-1.64,4.71-2.41,9.53-2.23,14.53.27,7.67,5.49,11.85,13.03,10.8,5.72-.79,10.46-2.47,12.37-8.6.4-1.3,1.31-2.46,3.05-1.81,1.84.69,2.55,2.03,1.98,3.91-.3,1-.89,1.91-1.18,2.9-.98,3.39-.84,6.73,2.18,8.97,3.25,2.41,6.27,5.51,11.23,2.89,4.5-2.38,7.88-5.85,11.44-9.26.92-.88,1.79-2.56,3.25-1.88,1.75.82.86,2.6.62,4.01-1.56,9.08.4,13.16,8.31,17.78,2.48,1.45,4.37,1.81,6.67-.64,2.11-2.25,4.77-4.01,6.7-7.51,2.84,4.82,1.59,11.31,7.11,13.48,5.71,2.23,9.39-2.2,13.61-5.35,1.42,3.91,1.69,7.05-1.83,9.79-1.34,1.04-2.11,2.88-2.95,4.45-1.15,2.16-2.74,2.95-5.17,2.39-4.8-1.1-9.11.91-13.44,2.47-1.59.57-2.67,1.91-3.21,3.56-.41,1.26-1.07,2.18-2.54,2.02-1.44-.16-1.92-1.29-2.2-2.49-2.2-9.44-9.52-13.23-17.71-16.04-3.49-1.2-6.42.26-9.12,2.34-3.11,2.39-5.24,5.63-7.93,8.98.08-3.6-2.33-6.19-3.04-9.38-1.34-5.98-6.97-10.95-13.31-11.68-4.65-.53-9.68,3.17-12.09,9.06-.9,2.21-1.56,4.52-2.24,6.81-.49,1.66-1.13,3.52-3.09,3.2-2.24-.36-1.48-2.59-1.53-4.11-.04-1.17.29-2.36.51-3.53.84-4.59.2-8.9-2.21-12.96-2.23-3.77-5.31-6.34-9.82-5.77-3.95.5-8.86-2.09-11.58,3.29-.69,1.37-1.83.24-2.49-.56-1.49-1.78-1.87-4.02-2.47-6.18-3.11-11.28-11.8-14.85-21.67-8.68-2.71,1.7-3.62,1.62-4.56-1.55-1.41-4.77-3.63-9.19-8.07-12.03-6.09-3.89-12.33-3.44-17.68,1.3q-5.4,4.78-8.34-2.11c-3.42-8.01-10.05-12.36-18.18-12.01-2.62.11-4.99.98-7.25,2.15-3.63,1.86-6.32,1.2-8.02-2.65-2.33-5.3-7.01-8.22-11.83-10.51-4.18-1.99-8.58-.61-12.35,1.9-3.15,2.09-4.62.87-5.41-2.25-.94-3.67-2.61-6.94-4.86-10.01-4.31-5.87-9.77-9.14-17.24-8.32-4.8.52-8.31-.35-10.66-5.54-2.8-6.16-8.85-8.6-15.33-9.58-2.28-.34-4.36.27-6.39,1.52-6.08,3.73-6.62,3.61-10.7-2.43-3.27-4.84-7.78-6.82-13.45-6.32-4.04.35-7.26,2.04-8.34,6.26-.85,3.32-3.08,5.77-4.9,8.48-.65.97-1.68,1.35-2.73.65-.91-.61-.67-1.56-.31-2.42,1.03-2.48,2.19-4.92,3.1-7.45,4.8-13.29-3.04-24.01-17.09-23.55-2.73.09-4.87,1.06-6.78,2.94-3.08,3.05-4.3,2.96-6.21-.95-2.4-4.92-5.44-8.98-11.04-10.32-2.75-.66-5.58-1.5-8.36-1.45-4,.07-6.46-1.76-8.38-4.91-5.84-9.56-14.37-13.52-25.45-12.25-4.3.49-8.05,2.03-11.22,5.06-6.91,6.6-9.43,6.3-14.48-1.65-1.28-2.01-2.78-3.68-5.39-3.25-3.62.6-3.7-1.18-2.96-3.88,3.08-11.2,10.11-19.48,19.22-26.27,6.62-4.93,12.98-10.12,17.13-17.49.93-1.64,2.49-2.53,4.3-3.01,2-.53,4.24-1.7,5.79.44,1.52,2.11-1.08,2.97-1.87,4.4-1,1.82-2.41,3.79-2.44,5.71-.11,7.6-5.61,13.72-5.6,21.24.02,7.33,2.57,9.33,9.87,10.57,10.12,1.72,17.55-1.49,22.77-10.21.59-.99,1.16-2.41,2.67-1.75,1.51.67,1.5,2.14,1.03,3.5-1.57,4.56-2.51,9.18-2.27,14.07.26,5.34,2.28,9.91,5.71,13.82,4.46,5.06,11.3,5.2,17.35.61,5.57-4.22,5.24-4.07,7.98,2.03,3.41,7.59,9.83,11.8,17.81,13.67,1.42.33,3.17.34,4.13-1.07,5.21-7.64,13.54-12.97,16.38-22.37.51-1.7,2.1-2.82,3.91-2.2,2.46.83.98,2.69.62,4.13-.96,3.76-2.04,7.5-3.01,11.26-2.15,8.38,2.53,16.23,10.86,18.19,2.43.57,4.73.45,6.63-1.57,4.89-5.21,10.61-9.76,13.11-16.84.32-.91.67-2.22,2.12-1.74,1.11.37,1.57,1.47,1.53,2.53-.05,1.17-.35,2.35-.7,3.47-1.11,3.48-1.44,7.02-1.11,10.64.63,6.86,2.89,9.33,9.58,11.16,2.57.7,5.01.49,6.72-1.25,7.21-7.34,13.6-15.26,14.09-26.19.31-6.8-2.85-10.7-10.61-13.76-6.17-2.43-10.39-1.43-14.86,3.5-.76.84-1.17,2.33-2.67,2.05-1.78-.32-1.46-2.03-1.79-3.25-1.63-5.99-4.67-10.67-11.15-12.25-7.13-1.74-12.95,0-17.19,6.28-1.76,2.6-3.54,1.64-4.84-.52-.88-1.47-.67-3.15-.23-4.8,2.18-8.19-3.27-15.68-11.83-16.42-7.45-.65-13.03,2.49-17.33,8.29-2.42,3.27-4.02,6.98-5.58,10.72-.88,2.1-2.01,4.1-3.43,6.97-1.41-3.36-1.67-6.32-.61-7.91,2.72-4.07,1.75-8.64,2.8-12.88,2.3-9.31-4.23-15.91-13.66-14.27-4.92.85-8.96,3.09-12.44,6.63-1.59,1.62-2.94,3.83-5.91,3.72,0-.51-.15-1,.02-1.31,6.31-11.46,2.25-23.27-10-28.47-3.73-1.58-7.43-2.8-10.18-6.16-1.5-1.83-4.32-1.77-6.7-2.05-7.66-.9-14.25-4.67-21.17-7.82,4.06-1.76,8.15-1.6,12.21-.78,24.91,5.05,49.44,11.7,74.02,18.11,7.67,2,14.74,5.75,22.69,6.95,33.46,5.07,65.48,16.09,98.26,23.99,36.19,8.72,71.7,20.02,107.9,28.74,1.59.38,3.21.89,4.64,1.66,15.73,8.49,33.04,12.28,50.16,16.39,18.34,4.41,36.27,10.12,54.33,15.49,12.73,3.78,25.88,5.98,38.96,8.3,3.72.66,5.37,3.71,3.51,7.09-.64,1.17-1.51,2.22-2.31,3.3-1.05,1.41-.55,2.45.66,3.44,1.04.86,3.28.47,2.99,2.72-.41,3.2.5,6.59-1.58,9.56-3.84,5.51-3.82,12.57-.07,17.92,2.01,2.86.56,6.42-4.21,8.95-2.58,1.37-5.01.97-6.41-2.37-1.26-3-11.6-6.89-14.52-5.42-2.92,1.48-6.14-.25-9.09,1.59-1.97,1.23-4.52.74-6.43,3.28-1.94,2.57-4.92,1.29-6.53-1.56-1.35-2.4-3-4.43-5.52-5.7-4.6-2.31-9.2-1.85-13.2,1.87-2.28,2.12-3.75,2.06-5.17-.67-5.01-9.6-12.18-11.75-22.11-7.22-2.91,1.33-4.9,1.13-6.91-1.59-1.93-2.62-4.16-5.17-7.28-6.53-4.89-2.14-9.54-2.3-13.66,1.82-2.46,2.46-4.52,2.78-5.36-1.38-.09-.43-.3-.84-.48-1.26-4.22-10.19-10.36-12.19-19.81-6.43-5.27,3.21-5.71,2.99-6.65-3.38-1-6.8-7.31-12.76-13.94-13.2-3.71-.25-6.85.6-8.66,4.22-1.66,3.32-2.58,1.64-3.63-.46-1.93-3.85-3.57-7.86-7.56-10.32-4.45-2.74-8.69-3.39-13.5-.78-5.52,3-6.65,2.43-9.03-3.3-3.02-7.26-12.17-10.2-18.68-6.01-4.43,2.85-4.64,2.77-6.41-2.2-3.15-8.89-10.86-12.85-18.09-9.45-2.33,1.1-3.46,3.23-5.06,4.97-.62.67-1.38,1.36-2.32.84-.74-.41-.45-1.29-.41-2.04.4-8.56-4.24-14.68-12.51-16.54-4.44-1-8.74,1-10.58,5.51-3.1,7.61-5.93,15.33-8.74,23.06-1.57,4.3-1.17,8.14,2.91,11.16,5.97,4.42,7.9,4.68,13.33,1.64,4.75-2.66,8.52-5.97,9.86-11.55.83-3.46,3.62-5.61,6.48-9.08"/>
        <path class="cls-2" d="M282.89,37.83c-8.42-2.84-15.98-5.17-23.8-6.07-6.04-.7-12.28-1.1-17.85,2.45-.87.56-2.08,1.03-1.83,2.26.27,1.31,1.61,1.13,2.6,1.16,3.88.1,7.76.13,11.64.22.77.02,1.73.11,2.01-.61,1.5-3.79,4.14-1.97,6.71-1.7,3.49.36,6.56,1.45,9.67,3.05,3.12,1.61,6.61,1.32,10.84-.76M246.13,27.57c-1.15-1.74-3.88-1.3-3.44-3.17.42-1.77,2.54-1.02,3.94-1.09,1.94-.11,3.89-.04,5.84.02.88.03,2,0,2.24,1.05.31,1.36-1.2,1.43-2.06,2.27,7.31,1.03,14.41-.34,21.44-.87,16.83-1.28,33.55-3.75,49.86-8.36,2.56-.73,4.86-1.15,6.84-3.94,2.18-3.08,6.84-3.41,10.74-3.57,4.59-.19,8.92-1.24,12.9-3.4,6.02-3.26,12.6-4.64,19.12-6.25,2.55-.63,4.93-.05,6.5,1.98,1.77,2.29,4.1,2.64,6.42,2.08,8.62-2.1,16.84-.36,24.47,3.23,13.2,6.21,27.36,9.63,40.82,14.99,11.23,4.48,21.93,10.25,33.54,13.82,1.08.33,2.29.8,2.86,2.39-2.99,1.69-6.44,1.86-9.67,2.67-3.79.95-7.51,2.03-10.94,3.93-.95.53-1.78,1.23-1.54,2.47.25,1.31,1.32,1.53,2.41,1.5,15.14-.39,29.93,3.64,45.05,3.58,1.05,0,2.1,0,3.14-.1,1.28-.13,2.41-.61,2.32-2.16-.07-1.26-1.05-1.82-2.16-1.88-5.54-.32-9.82-3.34-14.04-6.47-2.71-2.02-5.83-2.93-9.06-3.71-1.28-.31-3.45-.28-3.11-2.4.28-1.74,1.93-2.56,3.66-2.85,2.41-.41,4.28.86,6.3,1.89,6.91,3.5,14.23,5.86,21.81,7.56-11.39-8.8-26.45-10.42-37.64-19.62,20.94,5.32,40.49,14.57,61,21.18-17.8-10.01-37.67-15.86-54.75-27.34,29.63,8.24,56.64,23.89,87.25,29.83-1.35-.93-2.7-1.86-4.04-2.81-.83-.59-2.05-1.1-1.59-2.38.54-1.52,1.89-1.18,3.05-.84,5.62,1.63,11.36,2.51,17.15,3.29,11.07,1.49,22.26,2.3,33.09,5.78.15-1.72-2.33-2.01-1.64-3.46.64-1.34,2.15-.61,3.28-.63,8.02-.1,16.06-2.18,24.06.43,1.68.55,2.72-.28,1.75-2.19-.61-1.19-1.69-2.3-.33-3.59,1.34-1.27,2.79-.55,4.2-.07,3.74,1.29,7.11,3.9,12.75,3.34-4.66-1.92-7.97-3.81-10.54-8.29,9.61,2.4,17.48,7.4,26.56,8.24.53-1.59-2.48-1.81-1.21-3.35.97-1.17,2.49-.87,3.78-.49,2.73.79,5.39,1.81,8.13,2.56,4.01,1.09,7.99,1.42,11.47-1.55,1.77-1.51,3.51-1.44,5.26,0,1.22,1,2.64,1.22,4.18,1.33,1.39.09,3.43-1.37,4.01.38.42,1.26-.29,3.6-1.33,4.49-4.7,4.07-2.42,8.14-1.42,12.95.83,3.99,2.1,8.5.68,12.81-.38,1.18-1.01,2.6-.34,3.45,2.77,3.57-1.28,6.34-1,9.75.17,2.07-3.03.34-4.66.87-3.01.97-1.58-2.43-3.01-3.35-1.38,3.94-2.58,8.02-8.16,6.63-.93-.23-2.05.35-1.85,1.4,1.12,5.7-5.91,6-6.82,10.35-.05.23-1.4.38-2.09.26-10.02-1.74-20.02-.05-29.97.55-10.93.66-21.74.63-32.67-.03-22.2-1.33-43.79-5.93-65.32-10.98-6.84-1.61-13.48-3.99-19.53-7.75-6.07-3.77-12.48-3.47-19.02-1.45-11.74,3.62-23.77,5.82-35.92,7.55-13.99,1.99-28.03,1.85-42.09,1.67-8.54-.11-16.99,1.28-25.49,1.36-11.57.1-22.87-1.89-33.94-5.28-17.62-5.4-34.46-12.89-51.75-19.16-29.56-10.71-59.37-20.41-90.56-25.28-5.5-.86-10.81-2.58-15.47-5.71-2.75-1.85-5.57-.99-8.25-.59-8.73,1.32-17.69-.16-26.32,2.14-10.3,2.75-21.37,2.7-30.87,8.44-.66.4-1.67.74-2.56.19,2-7.18,11.35-11.77,19.12-11.88,7.38-.1,14.43-2.32,21.71-3.07,2.42-.25,4.32-2.03,6.24-3.43,5.54-4.04,11.64-5.2,18.3-3.9,2.77.54,5.58,1.15,3.56-3.44-.51-1.17.12-2.47,1.49-2.8,1.6-.38,3.18.89,2.95,2-1.84,8.94,4.64,5.92,8.77,6.28.57.05,1.14,0,2.16,0"/>
        <path class="cls-2" d="M882.17,102.85c7.53,4,14.96,3.61,22.08,4.67,1.18.18,1.95-.66,2.03-1.9.07-1.13-.16-2.2-1.52-2.32-7.19-.62-14.39-1.28-22.59-.45M1004.7,128.41c9.39.93,13.58-3.66,11.95-12.07-.17-.88-.4-1.75-.66-2.61-1.24-3.96-.99-7.66,1.84-10.94.83-.97,1.71-2.47-.15-2.7-5.3-.65-10.56-4.13-16.04-.47-.94.63-2.23.84-3.39,1.02-13.12,2.02-26.21,4.24-39.38,5.91-9.69,1.22-19.29,4.78-29.23,2.16-3.79-1-7.05-.55-10.2,1.59-2.46,1.67-4.85,2.38-7.12-.36-.7-.84-1.73-1.33-2.8-.68-1.27.77-1.1,2.08-.69,3.21.4,1.1.95,2.23,1.72,3.1,2.05,2.32,1.1,3.73-1.24,4.81-2.03.94-4.12,1.76-6.14,2.7-1,.46-1.75,1.24-1.48,2.47.26,1.2,1.22,1.69,2.31,1.79,1.93.18,3.9.09,5.8.39,14.65,2.26,29.19,2.04,43.45-2.31,7.22-2.2,14.45-1.87,21.73-.96,10.22,1.27,20.42,2.7,29.74,3.95M829.27,143.35c1.97.41,2.1,1.99,2.88,3.01,1.11,1.47,2.24,2.55,3.84.51.35-.44.96-1.05,1.38-.99,2.09.27,4.25,1.74,5.72-1.3,1.59-3.28,3-6.54,2.18-10.26-.2-.88-.33-1.62-.14-2.57.31-1.58,3.57-2.32,1.49-4.43-2.49-2.52-4.86-5.45-8.87-5.51-1.49-.02-3.47.58-3.42-1.56.05-1.89,2.15-.8,3.26-1.22,7.67-2.89,14.55.4,21.58,2.57,3.44,1.06,6.43.94,9.62-1.49,5.96-4.53,14.77-3.25,21.48,2.34,1.54,1.28,3.12,4.52,5.39,2.11,2.32-2.45.36-4.91-1.9-6.77-3.23-2.66-6.75-5.07-9.51-8.16-7.67-8.59-18.03-8.05-28.05-8.89-7.88-.66-15.56-2.96-23.54-2.81-1.22.02-2.71-.21-2.68-1.73.04-1.84,1.53-.9,2.6-1.1,6.88-1.27,14.66,1.91,20.59-4.4,1.96-2.08,5.17-2.19,7.93-2.83,5.97-1.38,11.16-4.22,15.63-8.36,3.99-3.71,8.45-6.12,14.1-5.53.95.1,2.06.11,2.43-.72,2.76-6.32,6.15-1.38,8.94-.28,2.45.97.19,2.38-.62,3.36-.94,1.13-2.54.76-3.72,1.33-1.32.63-1.78,1.66-.4,2.75,2.41,1.91,6.04,1.12,7.27-1.73.87-2.01,2.19-2.97,4.33-3.33,5.29-.88,10.55-1.95,15.82-2.95.29-.05.63-.1.85-.27,6.45-4.92,14.31-4.62,21.73-6.06,3.32-.64,5.59-.65,6.04,3.45.25,2.25,1.45,3.89,4.04,4.02,2.44.12,3.38-1.22,3.92-3.4.67-2.7,2.86-2.55,5.06-2.33,6.9.7,13.11,3.98,19.95,5.09,7.58,1.23,15.02.97,22.11-1.57,11.26-4.04,22.84-4.33,34.52-4.01,5.63.15,10.94-1.38,16.38-2.26,1.02-.17,2.12-.65,2.81.52.67,1.12.02,2.24-.8,2.77-3.93,2.54-3.03,6.8-3.81,10.4-.93,4.31,3.88,4.15,5.57,6.52.62.87,3.72.04,3.03,2.06-.71,2.1-.84,5.01-4.23,5.68-3.3.66-6.56.46-9.83.43-3.78-.04-6.57.94-8.41,4.58-2.2,4.36-6.75,5.11-10.97,6.09-5.94,1.37-6.43,2.09-5.01,7.88.46,1.89,1.01,3.77,1.24,5.69.96,7.97-2.59,12.26-11.34,13.37-2.75.35-5.13,1.07-7.5,2.54-4.62,2.87-9.86,3.66-15.13,2.8-10.78-1.76-20.62-.54-29.73,6.3-5.55,4.17-12.68,5.14-19.44,6.42-5.04.95-9.84,2.45-14.3,5.03-3.25,1.88-6.61,3.53-10.56,3.18-2.16-.19-3.69.98-4.97,2.55-1.74,2.15-3.98,3.03-6.73,2.78-12.94-1.18-25.92.69-38.89-.83-12.52-1.46-24.77-3.66-36.16-9.28-3.58-1.77-6.72-4.1-5.05-9.19"/>
        <path class="cls-2" d="M827.5,244.34c.41,4.15,2.11,3.86,4.33,1.16.77-.94,1.71-1.19,2.8-.93,6.51,1.56,13.1.39,19.64.41,21.93.05,42.6,5.4,62.49,14.23,5.47,2.43,10.86,5.02,16.25,7.61,1.57.76,3.74,1.59,2.56,3.88-1,1.94-3.09,1.66-4.78.81-1.86-.93-3.64-2.06-5.35-3.25-7.34-5.07-15.3-8.78-24-10.77-2.3-.53-5.22-2.09-5.39,2.53-.06,1.55-1.75,1.33-2.92,1.13-1.58-.27-3.11-1.07-5.07-.13,3.57,3.45,7.6,6.01,11.84,8.05,20.64,9.88,40.97,20.43,62.24,28.93,1.53.61,3.06,1.53,4.64,1.63,5.12.34,4.04,4.28,4.45,7.3.24,1.78-1.21,1.36-2.16,1.2-12.7-2.24-25.83-2.53-36.81-11.17-7.2-5.67-16.59-6.43-25.33-8.4-4.52-1.02-9.02-2.1-13.49-3.3-6.38-1.71-10.18-.04-12.96,6.09-.86,1.91-1.86,2.71-4.12,2.34-5.77-.95-9.29,2.09-9.28,7.88,0,2.47-.71,4.72-1.55,6.95-.98,2.58-1.23,5.23-1.04,7.94.47,6.68,4.18,12.36,8.76,13.46,4.52,1.08,12.44-3.27,15.28-8.36,1.29-2.3,2.28-4.82,4.58-6.95,1.54,2.83,2.04,5.39,1.43,8.3-.81,3.83-1.2,7.73.63,11.43,1.73,3.48,3.22,7.38,8.18,7.06,6.56-.42,11.6-4.24,12.81-9.46.4-1.74-.15-5.12,2.05-4.57,2.25.56.15,3.27-.34,4.95-2.35,7.97-.15,13.31,7.19,16.79,1.32.63,2.17,1.06,1.12,2.53-1.31,1.84-2.81,3.21-5.22,1.74-1.37-.83-2.06-2.56-4.39-3.1,2.44,4.01,1.2,5.31-2.84,4.58-1.07-.19-2.02.56-2.73,1.35-1.92,2.13-4.41,2.15-7.01,2.17-2.44.02-4.68-1.29-7.41,1.11-1.6,1.41-4.35-2.66-6.71-4.06-1.38-.81-2.97-3.03-1.16-4.99,2.49-2.69-1.06-3.84-1.32-5.83-.25-1.86-2-.97-3.32-.79-5.46.72-10.93,1.34-16.41,1.92-2.78.29-5.4-.08-7.23-2.59-1.53-2.11-2.48-4.11.29-6.1,1.93-1.39,2.9-3.39,2.65-5.85-.14-1.43.27-3.54-1.69-3.61-1.89-.06-3.89,1-4.04,3.34-.11,1.65-.08,3.24-1.2,4.81-.54-.3-1.1-.5-1.54-.86-5.34-4.38-11.08-5.33-17.57-2.64-4.61,1.91-5.96,1.04-7.32-3.84-1.69-6.05-6.61-7.76-11.95-8.57-5.51-.84-8.05.52-10.54,6.12-2.42,5.44-4.27,11.14-6.32,16.75-.3.81-.63,1.95-.3,2.6,1.59,3.13,2.1,5.76-1.52,8.02-1.03.64-.88,2.62.1,3.71,2.39,2.66,4.7,5.49,7.48,7.69,3.93,3.1,14.54-.47,16.62-5.29.77-1.77,1.41-3.62,2.31-5.32.49-.94,1.62-1.69,2.65-1.1,1.1.63.91,2.06.16,2.75-2.21,2.06-2.71,4.44-2.26,7.3.12.76-.28,2.03-.86,2.4-4.81,3.07-9.71,5.98-14.59,8.93-.94.57-1.83.2-2.4-.53-2.13-2.71-4.77-3.15-7.99-2.35-1.64.41-3.12-.8-4.57-1.58-5.3-2.85-8.96-1.83-11.89,3.48-1.44,2.61-2.77,5.31-3.93,8.06-1.04,2.45-2.72,4.16-5.86,6.23,1.84-5.89,4.16-10.52,5.04-15.61,1.23-7.08-2.87-15.97-9.09-18.98-5.93-2.87-11.9-.45-14.06,5.72-.84,2.39-1.37,4.91-2.97,6.97-.45.59-.94,1.47-1.71,1.14-.55-.23-.99-1.09-1.18-1.76-.53-1.81.11-3.54.6-5.27,2.98-10.41-.54-17.68-9.87-20.74-4.65-1.52-6.24-7.3-3.76-11.52.96-1.64,1.66-3.43,2.4-5.19,1.88-4.45,5.69-3.54,9.15-3.14,1.91.22.91,1.81.72,2.87-1.22,6.57-.39,9.05,3.88,11.43,4.23,2.36,8.71,1.44,13.12-2.17,3.45-2.82,6.81-5.68,9.69-9.64,1.6,2.72.68,4.81-.11,6.8-1.35,3.4-1.85,6.9-1.73,10.54.15,4.53,2.23,7.67,6.47,9.28,4.03,1.53,9.14.32,11.85-3.05,1.98-2.46,3.96-4.86,6.47-6.8.46-.35,1.26-1,1.17-1.22-2.59-6.47,4.4-10.25,4.32-16.53-.11-9.45-2.79-14.2-12.41-15.39-4.27-.53-8.44-.71-10.87,4.04-.48.93-1.43,2.33-2.76,1.85-1.17-.41-1.3-1.96-1.46-3.09-.85-6.23-3.51-11.05-9.82-13.24-1.14-.39-2.14-1.06-2.51-2.36-.62-2.16,5.49-12.12,7.71-12.32,3.36-.31,6.43-1.16,9.08-3.39,2.22-1.87,3.19-.69,3.42,1.66.12,1.19.04,2.39.1,3.59.5,9.88,9.46,15.42,18.45,11.43,6.07-2.7,6.65-2.52,8.09,3.81.65,2.85,1.85,4.62,4.91,4.75.59.03,1.23.09,1.76.33,5.53,2.48,10.58,3.27,14.33-3.08.71-1.2,2.52-2.7,4.16-2.07,1.79.68,1.27,2.8,1.41,4.41.74,8.56,1.87,9.68,10.62,10.62.74.08,1.52.11,2.2.37,5.45,2.05,6.41,1.96,8.99-3.41,2.11-4.37,4.44-8.76,4.56-13.89.08-3.11,2.56-4.02,5.17-4.71,6.85-1.8,7.65-4.51,2.7-9.73-3.24-3.41-7.06-6.05-12.03-6.26-3.75-.16-6.48,1.11-6.92,5.29-.18,1.74-.79,3.14-2.47,3.98-1.85.92-3.53.4-5.11-.54-1.89-1.13-.66-2.53-.23-3.91.49-1.56.76-3.19,1.17-4.78.41-1.62,0-2.56-1.85-2.71-3.27-.28-5.79-2.03-8.28-4.09-3.63-3.01-5.11-2.47-6.78,1.93-.91,2.4-1.62,5.11-5.13,4.36-3.39-.72-5.19-2.46-4.47-6.37.5-2.75-5.68-7.67-9.89-8.21-2.4-.31-4.84-.26-7.05.82-6.06,2.95-12.57.87-18.8,1.81-.95.14-1.48-.89-2-1.62-2.98-4.13-6.89-6.58-12.11-6.54-2.22.02-3.68-1.05-3.22-3.22,1.16-5.55-1.09-10.53-2.14-15.72-.77-3.84.17-4.83,3.81-3.76,15.53,4.55,31.68,6.09,47.35,9.96,2.61.65,5.28.81,5.42,4.52.05,1.22.96,2.76,2.53,2.77,2.96.02.86-3.53,3.09-4.42"/>
        <path class="cls-2" d="M1209.24,411.23c-4.18-.86-8.29-1.38-11.9,1.77-2.05,1.79-2.99,3.62-1.23,6.2,2.11,3.1,2.93,6.43,1.78,10.22-.46,1.52-.37,3.29-.14,4.9.48,3.42,3.55,4.93,6.22,2.82,2.24-1.77,4.48-2.64,7.28-2.87,2.61-.21,3.88-2.58,5.34-4.46.82-1.05,1.52-2.49,3.15-1.93,1.56.53,1.27,2.23,1.62,3.45.48,1.68-.63,2.47-2.02,2.93-.56.19-1.17.26-1.76.34-1.61.22-3.31.68-2.46,2.71.92,2.2,2.08.35,3.15-.19,2.21-1.12,4.36-1.07,6.19.73,1.1,1.08,1.92,2.4,1.1,4.01-1.06,2.08-2.26,3.31-5.17,3.17-5.77-.27-8.38,3.18-8.76,9.34-.23,3.65-2.18,6.75-5.49,9.77-.17-1.45-.45-2.09-.27-2.55,2.2-5.49,2.13-9.48-3.55-13.83-3.65-2.79-6.63-5.83-11.33-6.52-1.39-.2-2.68-.13-3.92.53-2.08,1.1-4.91,1.86-4.35,4.91.52,2.86,3.25,2.13,5.22,2.11,3-.02,3.57.75,2.25,3.65-3,6.6-2.93,13.7-2.02,20.68.64,4.86.59,9.47-1.05,14.12-1.59,4.51.02,7.73,4.01,8.75,4.12,1.05,7.04-.87,8.13-5.44,1.42-5.92,4.35-11.51,3.68-17.88-.14-1.38.5-2.92,1.88-3.29,1.65-.45,1.26,1.67,2.09,2.31,3.09,2.41,4.42,6.25,7.52,8.75,4.18,3.37,2.86,8.05,1.18,11.97-1.54,3.58-1.68,6.19,1.61,8.55.73.52,1.31,1.11,1.21,2.2-.23,2.6-5.82,7.02-8.39,6.66-5.37-.75-10.9-.66-15.66-4.07-1.14-.81-2.64-.94-3.38-2.52-.48-1.02-1.49-2.38-2.4-2.5-6.06-.81-7.66-7.22-12.41-9.6-1.32-.66-1-1.5-.2-2.5,7.03-8.79,7.69-19.15,7.19-29.76-.17-3.55-1.99-5.97-5.4-6.89-3.49-.94-6.48,0-8.72,3.01-2.73,3.67-4.09,7.93-5.57,12.18-.47,1.35-.29,3.95-2.6,3.39-2.62-.64-2.54-2.92-1.71-5.12,1.51-4.01,1.73-8.19,1.37-12.39-.4-4.78-2.4-8.57-7.2-10.43-5.28-2.04-8.93-.79-11.68,4.19-2.26,4.09-4.22,8.47-4.83,12.98-.96,7.03-6.25,11.67-8.63,17.84-.43,1.11-8.09.34-8.61-.81-.52-1.15.53-1.51,1.16-2.08,10.84-9.86,15.31-22.18,13.68-36.64-.71-6.28-9.14-10.49-16.38-8.54-5.44,1.47-6.56.21-8.6-4.96-1.6-4.06-1.07-9.11-5.89-12.11-2.69-1.68-3.87-5.54-3.93-9.23,1.56-.85,2.45.67,3.6,1.04,2.93.94,5.13.41,7.82-1.46,5.77-4.03,8.93-8.92,8.52-16.08-.07-1.28.18-2.94,1.92-4.48,1.67,4.47,2.81,8.64,2.03,13.15-.58,3.38-1.5,6.68-1.34,10.19.18,4.17,2.75,6.45,5.98,8.3,3.04,1.74,5-.53,7.21-1.99,6.65-4.37,9.36-10.99,10.76-18.42.24-1.26-.35-3.54,2.06-3.15,1.86.3,2.59,1.94,2.2,3.81-1.1,5.26-.94,10.69-2.46,15.91-1.84,6.29,1.99,10.98,8.59,10.89,6.62-.09,10.65-3.12,12.26-9.37.36-1.4.68-2.73,2.35-2.79,1.69-.05,2.16,1.38,2.58,2.67.87,2.65,1.08,5.45-.15,7.9-1.89,3.77-.21,6.82,2.36,8.64,2.69,1.9,6.37,2.88,9.78,1.1,9.06-4.73,9.65-18.52,1.07-24.06-3.26-2.11-6.67-2.74-10.02-.19-2.58,1.97-4.43,1.82-6.1-1.21-1.97-3.59-5.46-5.9-8.13-8.92-.89-1.01-1.95-2.02-1.33-3.54.62-1.53,2.04-1.58,3.42-1.51,3.05.17,4.54-1.06,4.03-4.26-.19-1.18-.4-2.56,1.32-2.79,1.61-.21,3.44-.69,4.78.4.99.81-.14,1.88-.56,2.79-.19.4-.57,1.06-.43,1.21,2.61,2.92,2.73,7.03,4.82,10.09,1.36,1.99,4.02,2.43,6.52,2.39.89-.01,2.03-.23,2.65.21,5.99,4.3,8.66,1.68,10.57-4.39,1-3.17,4.08-3.6,7.18-2.5,2.43.86,2.66,2.07.81,3.87-3.15,3.06-3.19,5.24.83,7.96,2.82,1.92,3.44,3.72,2.07,6.56l.03-.04Z"/>
        <path class="cls-2" d="M647.09,406.42c-1.09-3.24-1.37-6.09-.58-8.85,2.68-9.44-9.18-18.88-16.63-17.75-3.21.49-5.55,2.08-7.38,4.59-.97,1.33-1.78,2.78-3.23,3.67-.79.49-1.63.8-2.54.37-1.07-.5-.73-1.43-.71-2.32.4-14.73-9.3-21.02-22.32-14.37-2.7,1.38-3.49.72-3.41-2.04.13-4.41-.83-8.59-2.7-12.59-1.46-3.13-3.4-4.71-7.08-3.33-2.79,1.04-5.72,1.78-8.64,2.36-3.17.63-5.5,2.03-6.74,5.17-.52,1.31-1.23,2.97-3.1,2.79-1.56-.16-1.3-1.81-1.74-2.84-.86-2.04-2.2-3.96-4.33-4.22-5.65-.68-7.59-4.61-9.06-9.23-1.74-5.47-2.71-5.74-8-3.12-4.3,2.13-8.47,4.12-11.35,8.38-1.92,2.83-6.09,2.33-7.36-.81-1.88-4.66-4.52-7.94-9.72-8.82-5.9-1-11.3-.03-16.18,3.51-.48.35-1.06.61-1.47,1.03-2.82,2.88-4.21,1.36-5.33-1.59-1.16-3.07-2.41-6.12-3.74-9.12-1.8-4.08-4.78-6.83-9.3-7.61-2.27-.39-3.55-1.17-2.64-3.9.75-2.25-.54-3.95-2.73-5.68,6.04,1.89,10.39-1.03,14.79-4.08,2.38-1.65,3.39.31,4.34,2.15,1.92,3.71,3.85,7.35,7.47,9.9,5.76,4.06,11.33,3.94,17.1.19,5.62-3.65,5.65-3.61,9.72,1.95.53.72,1.04,1.46,1.58,2.18,4.74,6.22,10.2,7.69,17.35,4.33,2.83-1.32,5.4-3.18,8.09-4.8.74-.45,1.47-1.25,2.41-.64.85.57.94,1.68.63,2.44-1.47,3.57.68,4.99,3.32,6.64,10.03,6.29,19.71,5.84,29.33-.84,5.69-3.96,6.98-3.31,7.93,3.66.26,1.92.52,3.86,1.08,5.7,1.34,4.36,4.27,6.56,8.98,6.62,4.69.06,9.03-2.09,13.74-1.84,3.32.18,6.34-.11,5.31,5.09-.57,2.88,2.22,5.05,4.43,6.83,6.04,4.89,12.82,4.99,19.97,3.02,7.64-2.11,12.34-.21,16.61,6.33.6.92.54,1.78-.27,2.37-4.47,3.22-6.84,8.47-11.39,11.63-1.72,1.19-2.2,3.18-.48,4.59,2.43,1.99,1.7,3.72.34,5.79-1.53,2.32-2.92,4.74-4.37,7.11"/>
        <path class="cls-2" d="M272.07,260.89c-2.13,5.6-4.88,10.17-8.09,14.47-.79,1.05-1.77,2.56-3.2,1.93-1.81-.79-.57-2.47-.11-3.5,2.04-4.6,2.11-9.63,2.96-14.42.75-4.2-2.59-7.45-5.98-9.7-2.6-1.72-4.76-3.36-5.36-6.7-.54-3.04-3.55-3.03-4.67-1.47-1.58,2.21-3.36,2.65-5.61,2.88-1.85.19-2.96,1.32-3.55,3-.52,1.48-1.3,2.47-2.95,1.41-1.41-.91-2.43-2.62-1.15-3.74,3.06-2.71,2.13-7.93,6.62-9.73,1.79-.72,1.19-2.58.11-3.81-1.44-1.65-2.25-3.47-2.19-6.38,1.69,2.03,2.8,3.95,4.43,5.19,5.4,4.11,11.35,5.37,17.8,2.55,3.56-1.56,5.69-.65,7.25,3.18,2.64,6.48,10.6,11.04,17.33,10.11,4.14-.57,8.36,0,12.5-.92,1.75-.39,3.02.66,4.18,2.05,6.27,7.52,11.44,8.99,20.45,6.01,3.67-1.22,5.52.05,5.01,4.03-.41,3.16.84,5.29,3.01,7,6.21,4.89,13.04,7.58,20.76,3.93,4.33-2.05,7.44-1.19,9.97,2.61,4.29,6.4,9.59,10.61,17.95,8.97,2.17-.43,3.85,1.33,6.11,2.63-.08-4.14,2.46-5.27,5.78-5.6,1.33-.14,2.36.16,3.18,1.17,2.88,3.57-.46,6.26-1.71,8.9-1.05,2.23-2.97.91-4.71-.54-2.17-1.81-3.55.36-3.43,2.09.23,3.16-2.08,5.68-1.7,8.77.03.28.04.73-.12.84-6.29,4.22-5.11,11.77-7.86,17.56-.32.67-.62,1.36-.98,2.01-.53.96-1.23,1.84-2.47,1.31-1.22-.52-1.22-1.65-.78-2.68,1.63-3.86,1.53-7.9,1.18-11.93-.47-5.56-3.2-9.9-7.69-13.11-3.93-2.81-7.05-2.4-10.18,1.34-1.43,1.71-2.55,3.69-3.92,5.46-.93,1.2-2.17,2.39-3.78,1.97-2.07-.54-1.28-2.47-1.18-3.81.46-6.59-1.8-11.7-7.68-15.03-4.62-2.61-6.84-2.18-9.9,2.04-.61.85-1.16,1.74-1.76,2.6-.75,1.09-1.37,2.46-3.06,2.15-1.64-.3-1.86-1.76-2.27-3.03-.5-1.57-1.11-3.11-1.43-4.72-1.79-9.02-7.34-14.05-16.41-15.18-4.94-.61-7.55,1.72-9.12,6.02-.42,1.17-.73,2.86-2.66,2.33-1.42-.39-2.11-1.49-2.4-2.95-.45-2.24,1.04-5.4-1.62-6.56-3.31-1.44-7.17-1.18-10.56-.14-2.76.84-4.15.85-4.34-2.84"/>
        <path class="cls-2" d="M1005.89,566.62q-1.41-7.74,3.14-10.91c-4.13.57-5.86-1.68-7.41-4.25-3.11-5.18-9.18-5.19-12.32.02-1.69,2.82-3.12,5.79-4.79,8.62-.56.95-1.28,2.41-2.74,1.62-1.11-.59-.48-1.85-.33-2.87,1.18-8.09-3.68-16.16-11.28-18.75-2.03-.69-3.77-.42-5.19,1.41-2.2,2.85-4.15,5.83-5.91,8.97-1.81,3.22-4.05,6.18-9.19,7.07,1.94-2.87,3.42-4.99,4.83-7.16,4.51-6.92,3.89-10.14-2.85-15.06-4.21-3.08-10.93-1.79-14.8,2.82-.37.44-.77.86-1.29,1.44-3.03-3.1-2.24-6.56-.96-9.63,1.05-2.54,2.35-4.81,1.28-7.62-.52-1.36.38-2.21,1.02-3.22,2.39-3.78,2.62-7.64-.27-11.21-1.4-1.72-1.72-3.33-1.14-5.37.98-3.37-.21-5.92-3.29-7.46-3.31-1.66-4.25-3.99-2.5-7.32,1.45-2.76.69-4.91-1.93-6.44-2.6-1.52-4.59-.47-6.24,1.63-1.48,1.89-2.65,3.96-3.6,6.18-1.01,2.38-2.82,3.75-5.55,3.86-3.2.12-2.26-2.59-2.9-4.15-2.09-5.11-6.16-9.13-7.72-14.59-.49-1.73-2.78-1.92-4.73-1.39-2.7.73-4.65,2.08-4.9,5.08-.52,6.17-4.14,11.21-6.24,16.8-.46,1.24-1.6,3.25-3.16,2.58-1.92-.83-1.63-2.97-.88-4.74,1.79-4.24,2.75-8.49.91-13.03-.84-2.08.95-3.61,2.18-4.55,3.95-3,4.06-6.7,2.6-10.8-.9-2.53-.83-3.86,2.47-3.77,5.74.15,9.07-3.88,12.31-7.8,1.76-2.14,3.25-4.5,4.85-6.74,1.7,1.06,1.34,2.21.92,3.37-.46,1.26-.92,2.53-1.38,3.79-3.05,8.4-.41,10.51,9.69,9.84,2.49-.16,4.89-1.38,6.98-2.91,2.02-1.47,4.02-2.96,6.28-4.62.92,2.1-.37,3.38-.92,4.75-1.46,3.67-3.07,7.38.24,10.87,3.51,3.7,7.8,4.62,12.74,3.39,3.22-.8,5.82-3.4,9.58-3.46-.55,2.02-3.88,1.48-2.98,4.14.7,2.07,2.36,2.48,4.2,2.78,1.75.28,2.99,1.51,3.92,2.83,2.05,2.91,3.99,5.82,7.37,7.46.97.47,1.99,1.55,1.23,2.98-.97,1.82-2.27.76-3.47.29-1.11-.44-2.17-1.03-3.3-1.4-5.76-1.89-8.1-.63-10.23,5.03-1.86,4.94-2.54,10.13-3.74,15.21-.83,3.53-2.05,6.91-3.98,9.95-2.4,3.77-.99,6.18,2.53,7.91,5.92,2.91,11.98,3.58,18.16.76,1.36-.62,2.68-1.33,4.01-2.01q6.1-3.09,6.27,3.7c.02.59.11,1.2.29,1.76,1.6,4.99,10.53,10.66,17.02,10.81,6.5.15,11.17-3.12,13.59-9.64.73-1.96,1.17-4.02,1.85-5.99.77-2.2,2.92-2.25,4.48-1.91,2.25.49,1.11,2.41.61,3.66-.78,1.93-1.77,3.78-2.8,5.59-3.37,5.91-2.86,10.25,2.69,14.03,4.16,2.84,4.79,5.58,2.04,9.62-1.73,2.54-2.42,5.77-5.37,8.15"/>
        <path class="cls-2" d="M1253.18,586.28c-.14-5.7-3.53-9.39-8.3-12.14-3.04-1.75-5.23-1.21-6.8,2.17-1.37,2.95-1.98,6.45-4.51,8.65-4.03,3.5-2.69,5.82.56,9.13,4.3,4.37,8.8,2.89,13.27,1.54,4.26-1.28,5.58-5,5.79-9.35M1295.63,555.25c1.12,2.92-.61,4.41-2.7,5.92-2.91,2.1-5.74,4.32-7.51,7.59-1.7,3.14-4.65,3.31-7.75,3.31-6.91,0-8.54,1.2-10.86,7.61-.61,1.68-.95,3.57-1.95,4.99-2.41,3.44-2.91,6.32.04,9.98,2.25,2.79.82,10.48-2.05,12.97-4.76,4.14-9.97,7.65-16.38,8.85-1.65.31-3.28.34-4.89-.14-1.25-.37-3.19-.31-3.25-1.87-.09-2.05,2.03-.97,3.11-1.43.55-.23,1.15-.33,1.71-.53,3.78-1.34,5.78-4.13,6.29-7.99.35-2.7-1.29-4.35-3.61-4.97-3.82-1.03-7.81-1.49-10.99,1.58-1.67,1.61-2.5,3.72-.75,6.02.61.81,1.02,1.83,1.3,2.82.44,1.52,1.35,3.19-.51,4.46-1.62,1.11-2.93.02-4.04-.88-3.41-2.76-7.23-3.34-11.41-2.66-1.65.27-3.71.01-2.11-2.12,1.66-2.22.77-3.63-.5-5.06-3.39-3.83-3.69-8.69-4.55-13.32-.52-2.81,1.19-5.08,3.61-6.15,2.63-1.17,4.34-2.95,5.87-5.25,3.4-5.1,9.06-8.23,12.03-13.81,1.23-2.31,3.86-1.67,6.11-1.46,1.43.14,3.36,1.31,4.24-.07,2.05-3.23,4.49-3.17,7.99-3,2.35.11,4.01.17,5.81,1.7,1.83,1.56,3.92,2.94,6.25.47.67-.71,1.63-.4,2.52-.05,12.09,4.8,15.75,3.66,23.06-7.09.5-.73.96-1.59,1.66-2.08,1.19-.82,2.13-2.7,3.68-2.19,2.17.71,0,2.63.55,3.89"/>
        <path class="cls-2" d="M590.19,577.68c2.25-2.18,3.92-3.89,5.68-5.5,4.1-3.76,8.64-6.38,14.51-5.71,1.47.17,2.98,0,4.47-.08.75-.04,1.6-.24,1.69-1.12.11-.99-.8-1.12-1.51-1.28-3.86-.84-2.17-2.26-.32-3.53,9.87-6.75,19.8-13.42,30.12-19.45,3.96-2.31,12.92,1.76,14.6,6.79.97,2.89,2.5,3.74,4.95,2.37,4.66-2.6,6.25,2.73,9.57,3.57.66.17-.1,1.63-.84,2.15-1.71,1.2-3.35,2.6-5.24,3.43-12.3,5.43-23.84,12.43-36.35,17.44-4.31,1.73-8.26,4.21-11.93,7.05-3,2.32-6.35,3.87-9.84,5.26-4.04,1.61-7,.82-8.69-3.39-.58-1.46-1.35-2.73-3.12-2.81-2.09-.09-3.42-1.15-3.77-3.16-.37-2.1-2.07-1.65-4-2.04"/>
        <path class="cls-2" d="M644.19,311.48c3.37-1.59,6.82-2.2,9.44-4.59,1.31-1.19,3.22-2.35,4.87-1.03,2.12,1.7-.88,2.87-1.33,5.17,5.18-3.92,8.35.09,11.63,2.17,5.7,3.62,12.63,2.36,15.72-3.43.49-.91.91-2.35,2.12-1.78,1.95.92,5.02.43,5.69,2.94.63,2.33,1.94,3.09,3.92,3.62,9.42,2.53,17.6,7.23,24.63,14,.73.7,1.78,1.05,2.64,1.62,2.11,1.41,2.78,2.94-.08,4.14-2.3.97-1.69,2.31-1.8,4.4-.29,5.43,5.26,10.18,1.59,15.81-.7,1.08-.77,3.09-2.3,2.92-1.87-.2-1.74-2.22-1.66-3.64.1-1.62.62-3.22.93-4.83,1.15-5.86-3.31-15.15-8.46-17.64-3.3-1.6-13.05,4.19-14.24,8.37-.35,1.24.61,3.53-1.76,3.4-2.23-.12-2.19-2.17-2.03-3.82.78-7.66-4.18-12.43-9.02-13.76-5.38-1.48-10.28.98-14.42,7.35-.73,1.12-1.32,2.34-1.98,3.5-.55.96-.57,2.48-2.34,2.14-1.68-.32-2.73-1.21-2.81-2.97-.08-1.79-.08-3.58-.09-5.38-.06-10.11-5.81-16.46-15.94-17.61-.86-.1-1.81.15-2.92-1.13"/>
        <path class="cls-2" d="M1338.98,588.06c-3.01.45-5.81-.14-8.49-1.05-2.71-.91-6.17-1.36-5.04-5.82.28-1.09-.6-2.03-1.71-2.32-1.52-.4-2.51.8-3.52,1.59-1.12.88-.78,1.69.45,2.38,1.21.68.86,1.46-.29,1.77-2.33.63-3.29,2.51-4.12,4.42-2.86,6.63-8.06,10.61-14.64,12.99-3.28,1.19-6.14,2.86-8.73,5.27-3.82,3.55-8.59,5.36-13.75,5.98-2.15.26-2.92-.11-3.04-3.12-.34-8.7,5.1-12.43,11.58-15.7.82-.41,2.42.12,2.13-1.57-.24-1.38-1.48-1.72-2.71-1.94-4.29-.79-10.99,3.11-12.77,7.45-.59,1.43-.23,3.53-2.49,3.78-1.34.15-2.25-.68-2.85-1.8-1.01-1.89-.21-3.61.91-4.99,2.07-2.54,4.5-4.78,6.6-7.31,1.22-1.47,2.48-3.26,1.01-5.26-1.02-1.39-2.94-2.38-.83-4.38,1.88-1.79,3.52-3.35,6.63-2.47,4.54,1.29,7.65,3.22,6.87,8.61-.37,2.55.79,3.85,3.34,4.91,3.69,1.54,7.26,2.62,11.26,2.09,1.53-.2,3.69-.39,4-1.57,1.33-5.08,5.43-7.25,8.92-10.46,4.52-4.17,5.71-5.67,11.27-3.03,1.54.73,2.51.73,3.97.45,5.78-1.13,11.93.74,17.55-2.08.56-.28,1.49-.03,2.18.19,2.26.7,3.41,3.51,6.36,3.18.54-.06,1.82,1.66,1.56,2.95-.36,1.76-1.78,1.01-2.92.96-2.53-.11-4.61,1.1-6.59,2.46-3.69,2.55-7.66,4.03-12.11,3.42"/>
        <path class="cls-2" d="M551.93,601.69c8.56-4.75,16.14-10.26,23.71-15.71,4.72-3.4,8.09-4.16,11.82-1.6,1.73,1.19,2.49,2.26.1,3.53-1.08.57-3.68.06-2.22,2.58,1.12,1.93,1.58,4.88,4.84,4.46,1.91-.25,3.8-.76,5.67-1.24,1.43-.37,3.29-1.39,4.12.1,1.04,1.87-1.29,2.38-2.39,3.02-8.66,4.99-17.39,9.89-26.12,14.76-6.53,3.64-13.1,7.18-19.65,10.79-3.14,1.73-6.14,3.51-7.89,6.99-1.32,2.62-3.79,4.16-6.82,4.59-.73.1-1.47.25-2.18.45-1.39.38-1.44,3.95-3.55,2-2.19-2.01-5.24-3.63-5.24-7.39,0-4.36-.98-4.87-4.88-2.6-1.75,1.02-3.4,1.81-5.56.55,1.28-2.97,3.94-4.42,6.39-5.94,3.29-2.05,6.73-3.87,10.17-5.66,2.73-1.41,6.15-4.5,6.14,2.23,0,1.17,1.28,2.31,1.88,3.51,1.39,2.83,2.88,3.67,5.2.73,2.31-2.94,5.91-3.95,9.16-5.43,2.05-.93,4.12-1.82,5.71-3.47.61-.63,1.34-2.07.29-2.16-3.99-.34-3.65-3.79-4.87-6.1-.82-1.54-2.59-1.91-3.81-2.97"/>
        <path class="cls-2" d="M461.38,618.9c1.08,1.8.91,3.52.25,4.96-1.43,3.13-.89,5.61,2.13,7.15,3.31,1.69,7.09,1.36,8.68-1.94,2.27-4.71,7.04-4.66,10.59-6.77,2.06-1.23,2.37,1.48,2.27,2.99-.23,3.35-1.86,6.25-3.33,9.2-.96,1.92-2.76,3.92-.55,6.08,2.21,2.16,4.16.27,6.09-.65,2.83-1.34,5.71-2.64,8.41-4.22,6.21-3.62,12.18-3.45,18.31.31,1.85,1.14,4.24,1.37,6.34,2.13,1,.36,1.93,1.03,1.99,2.21.07,1.47-1.22,1.52-2.2,1.67-5.65.87-10.93,3-16.39,4.53-4.53,1.27-9.13,1.1-13.78.47-6.4-.87-12.78-1.13-18.99,1.34-6.54,2.6-13.99,1.44-20.37,4.89-1.55.84-2.79-.53-3.82-1.65-1.26-1.37-1.53-2.91-.47-4.5,2.46-3.69,4.42-7.62,6.36-11.62,1.88-3.88,4.58-7.21,4.31-11.94-.14-2.49,1.99-3.75,4.18-4.65"/>
        <path class="cls-2" d="M20.7,142.09c1.98-.95,2.85-1.5,3.8-1.8,1.04-.33,2.08-.2,2.85.73.8.98.69,2.11-.06,2.87-2.32,2.36-2.87,4.96-2.13,8.18.38,1.64-1.12,2.72-2.64,3.16-4.3,1.22-2.95,2.78-.33,4.45,1.08.69,1.69,2.17,3.34,2.06,1.19-1.27-.8-4.38,2.41-4.42,2.9-.04,3.06,2.49,3.64,4.38.82,2.71,1.16,5.51,1.23,8.39.07,3.11-1.63,4.02-3.88,2.93-4.75-2.31-10.3-2.05-14.81-4.97-2.16-1.4-4.63-.73-5.31,1.27-.67,2,1.8,2.61,3.56,3.07,1.16.31,2.32.62,3.42,1.07,1.08.44,2.6.77,2.66,2.11.09,1.81-1.65,1.29-2.7,1.48-1.52.28-2.22,1.13-2.73,2.56-1.43,4.07-3.43,4.68-6.73,1.74-5.63-5.03-7.47-11.47-5.57-18.71,1.52-5.8,4.27-11.15,6.83-16.56.96-2.03,2.69-3.2,4.69-3.92,4.5-1.63,5.87-4.65,4.47-9.18-.64-2.09-1.55-4.37.96-6.05,2.27-1.52,4.66-1.41,6.75.01,2.26,1.55,2.2,4.15,1.75,6.53-.57,3.05-2.77,5.22-5.48,8.62"/>
        <path class="cls-2" d="M979.53,484.64c4.33,3.03,8.56,5.05,13.17,6.51,4.91,1.55,8.8.24,12.3-3.04,2.39-2.24,4.81-4.47,6.57-7.31.64-1.04,1.5-1.96,2.94-1.15,1.53.86,1.47,2.08.72,3.43-.36.65-.77,1.28-1.17,1.91-4.29,6.84-4.31,6.89,3.25,10.29,2.44,1.1,4.98,2.09,7.58,2.71,2.33.55,3.44,1.74,3.2,4.01-.23,2.26-.81,4.25-3.38,5.29-6.01,2.43-12.73,4.28-13.13,12.61-.03.62-.32,1.25-1.01,1.26-1.14.02-.68-1.32-.82-1.42-3.39-2.3-3.02-7.07-6.29-9.44-2.79-2.02-4.48-4.38-1.96-7.89,1.53-2.13.19-2.87-1.88-3.06-2.67-.25-5.33-.65-8-.9-8.83-.81-14.01,5.27-11.77,13.81.47,1.78.15,3.25-1.47,4.29-.77.49-1.65,1.04-2.45.31-1.41-1.28-.58-2.84-.13-4.18,1.31-3.92.76-7.07-2.49-10.06-2.48-2.28-4.23-5.37-6.26-8.12-.86-1.17-.38-1.86.89-2.32,3.8-1.35,6.84,1.07,10.17,2.04.2.06.41.46.42.71.04,1.03-1.73,3.25.85,2.62,2.04-.5,3.43-2.82,2.38-5.47-.89-2.24-3.34-3.95-2.22-7.44"/>
        <path class="cls-2" d="M413.97,296.96c4.05.5,6.76-.56,9.29-2.83,3.49-3.14,6.47-2.67,8.05,1.68,3.21,8.8,9.64,11.26,22.01,8.43,2.82-.65,3.51.27,4.74,2.32,2.82,4.69.82,9.35.07,13.85-.66,4.01.76,6.23,3.78,8.15.81.52,2.22.79,1.67,2.19-.5,1.28-1.72,1.58-3.01,1.37-4.38-.7-6.78-3.29-7.62-7.63-1.52-7.79-2.18-8.21-9.78-6.37-3.45.84-7.1.73-10.38,2.55-2.14,1.2-2.76-.59-3.26-2.32-2.53-8.66-9.91-12.32-18.4-9.21-1.04.38-2.16,1.58-3.24.33-1.1-1.27-.23-2.62.49-3.7,1.02-1.56,1.55-3.24,1.67-5.04.21-2.98,1.17-4.88,3.92-3.77"/>
        <path class="cls-2" d="M117.85,263.72c-.24-2.31-.06-5.85,5.09-6.72,1.52-.26,1.99-2.04,2.07-3.65.08-1.63.07-3.3.43-4.88.32-1.43.91-3.03,2.52-3.46,1.83-.49,2.54,1.28,3.45,2.34,4.92,5.74,7.22,12.67,7.46,19.99.06,1.92-2,4.86-4.58,6.24-1.95,1.04-2.82,2.51-1.6,4.76,1.65,3.02-.4,5.85-.9,8.66-.65,3.73.24,6.22,3.64,7.58,2.22.88,3.11,2.4,3.71,4.55.45,1.58,2.07,3.22-1.33,2.93-.28-.02-.78.43-.88.76-.29.97.99,2.75-1,2.77-1.43.02-1.94-1.71-2.57-2.84-1.29-2.35-2.63-4.71-3.59-7.2-.89-2.32-1.97-4.25-4.29-5.44-.85-.44-1.78-1.37-2.02-2.25-2.07-7.43-5.66-14.49-5.61-24.12"/>
        <path class="cls-2" d="M1115.22,337.56c-5.71,1.98-11.31.79-16.82-.28-14.19-2.76-28.34-5.81-42.72-7.43-3.4-.38-6.93.18-10.27-.43-1.98-.36-6.13.77-4.51-4.63.62-2.06-1-5.66-1.88-8.42-1.04-3.26-4.57-2.7-7.31-3.06-.91-.12-2.04-.3-1.98-1.37.07-1.43,1.53-1.51,2.42-1.27,7.85,2.1,16.05,1.01,23.93,2.74,2.45.54,4.43,1.98,5.85,3.91,5.93,8.13,14.74,11.27,23.93,12.56,10.05,1.42,19.94,2.89,29.36,7.67"/>
        <path class="cls-2" d="M600.14,427c-4.93-.91-9.29,3.28-15.26-.66-4.03-2.66-5.39-3.86-4.65-8.4.55-3.37-3.12-4.38-5.46-5.79-2.44-1.47-4.68-.24-6.55,1.34-4.04,3.42-7.29,7.49-9.29,12.46-.28.69-.53,1.4-.85,2.07-1.02,2.14-2.21,5.31-4.84,3.98-2.1-1.06-.02-3.72.91-5.49,5.35-10.15,2.53-21.39-6.92-27.7-2.05-1.37-3.69-.36-5.39.6-1.4.79-2.98,1.5-3.77-.44-.85-2.09,1.19-2.62,2.5-2.84,2.91-.48,4.9-3.81,7.67-3.23,2.95.62,3.02,4.46,4.78,6.64,4.57,5.65,12.56,8.4,19.72,6.23,4.17-1.26,7.55-1.43,9.47,3.52.88,2.26,3.32,3.34,5.29,4.71,3.47,2.4,6.87,4.83,7.57,9.49.46,3.01,3.62,1.27,5.08,3.51"/>
        <path class="cls-2" d="M1171.32,346.72c5.83-.56,11.39-.03,16.91.93,5.73.99,11.48,1.82,16.93,4.08,2.94,1.22,6.09,1.44,9.24.53,2.4-.7,4.68-.04,6.11,1.81,4.29,5.56,10.47,7.08,16.81,8.39,1.6.33,3.08.76,4.45,2.85-15.57.76-30.38.75-44.34-5.76-4.63-2.16-9.26-4.01-14.34-4.92-4.87-.88-8.19-4.55-11.76-7.9"/>
        <path class="cls-2" d="M347.53,393.32c1.1,4.28,4.28,6.21,8.27,7.18.72.18,1.4.53,2.11.75,1.9.59,2.8,1.87,2.14,3.75-.65,1.83-2.18,1.69-3.76,1.16-7.66-2.55-15.41-4.83-22.76-8.27-5.97-2.79-11.97-5.52-18.77-5.52-.87,0-1.79-.3-2.6-.66-5.65-2.52-11.52-4.03-17.7-4.46-1.62-.11-4.33-.04-3.93-2.44.41-2.44,2.09-4.83,5.24-4.53,4.29.41,8.61.55,12.75,2.19,4.59,1.82,8.18-.65,8.78-5.64.14-1.17-.06-2.46.88-3.39.99-.98,2.32-1.85,3.6-1.12,1.57.88.84,2.32.09,3.49-1.68,2.6-3.92,4.85-3.54,8.43.39,3.68,2.05,6,5.8,6.15,6.59.27,12.77,1.93,18.61,4.92,2.36,1.21,2.92-1.51,4.79-1.99"/>
        <path class="cls-2" d="M158.47,334.02c-1.61,1.38-.84,4.24-3.14,3.87-1.9-.31-1.66-2.58-2.12-4.08-.23-.75.24-1.91.87-1.78,2.88.56,6.08-1.78,8.5.09,7.99,6.18,16.64,11.66,22.78,19.94,3.5,4.72,2.91,6.55-2.75,8.04-4.97,1.31-10.02,1.93-14.66-1.16-3.83-2.55-6.22-5.68-5.36-10.82.85-5.07-1.11-9.62-4.11-14.11"/>
        <path class="cls-2" d="M465.31,588.08c-1.53-.61-2.78-.84-3.7-1.52-2.37-1.77-4.64-3.12-7.68-1.44-.89.49-2.13.22-2.7-.9-.32-.62.14-1.14.7-1.42,7.58-3.77,14.05-9.53,22.52-11.79,5.62-1.5,10.29-.42,14.76,2.72,1.7,1.19,3.67,2.67,3.25,4.96-.36,1.97-2.67,2.21-4.35,2.67-7.73,2.12-15.85,2.78-22.82,6.72"/>
        <path class="cls-2" d="M250.95,321.26c-5.43-1.23-4.98-3.45-2.41-6.49,1.65-1.95,1.83-4.26.17-6.6-1.01-1.44-1.71-3.13-2.32-4.8-1.02-2.79-2.18-5.32-5.85-5.75,3.26-1.85,6.49-2.28,9.95-1.04,3.34,1.2,6.01,3.38,8.17,6.08,1.52,1.9,6.92,4.27-.25,6.12-1.58.41-1.78,2.32-1.05,3.86,1.36,2.85.33,5.04-2.06,6.53-2.6,1.62-4.36,3.85-4.81,6.71-1.34,8.56-8.27,14.36-10.75,22.35-.51,1.64-1.94,3.7-3.88,2.99-2.17-.8-1-3.03-.62-4.71.98-4.39,4.09-7.6,6.5-11.15,2.98-4.4,3.95-10.02,9.22-14.09"/>
        <path class="cls-2" d="M636.21,433.98c1.01-2.67.38-3.59-2.32-3.09-1.08.2-2.34-.26-3.44-.65-.95-.33-2.14-.75-2.26-1.93-.14-1.33,1.2-1.55,2.08-1.98,2.95-1.46,5.85-2.94,8.23-5.31,1.31-1.31,2.91-1.65,2.91.88,0,7.03,4.89,9.6,10.27,12.01,4,1.79,7.97,3.74,11.7,6.01,1.41.86,4.12,2.6,2.53,4.43-1.6,1.85-3.82,0-5.18-1.66-2.02-2.48-4.26-4.21-7.68-3.23-2.09.6-3.58,2.1-5.09,3.54-1.29,1.23-2.41,2.69-3.82,3.77-2.48,1.9-5.5.98-6.21-2.05-.85-3.6-1.2-7.32-1.73-10.75"/>
        <path class="cls-2" d="M271.3,306.28c1.81.51,3.68.95,5.53-.23,1.41-.9,2.66-.46,3.31,1.02.63,1.43.03,2.56-1.27,3.42-.91.61-3.29.75-1.46,2.62,1.5,1.54,2.63,1.1,3.46-1.13.72-1.93,2.72-1.43,4.32-1.01,1.59.42,3.37.84,3.73,2.76.31,1.72-1.28,2.1-2.43,2.75-1.76,1-2.49,2.21-.51,3.75,1.44,1.12,1.71,2.38.49,3.83-2.72,3.24-4.43,7.07-6.36,10.77-.53,1.01-.96,2.4-2.48,2.18-1.52-.23-1.7-1.58-1.65-2.78.17-4.55.07-8.79-4.32-11.88-1.83-1.29-1.53-4.29-1.42-6.36.14-2.72,1.39-5-1.55-7.42-1.39-1.15.95-2.19,2.6-2.31"/>
        <path class="cls-2" d="M442.41,434.25c-6.92-.97-12.45-2.71-17.48-5.66-7.36-4.31-14.77-8.49-22.74-11.59-.96-.37-2.65-.8-2.29-1.71.61-1.55,1.95-2.87,3.15-4.12.95-.99,1.85-.45,2.6.52,1.92,2.49,3.19,1.31,4.24-.82,1.63-3.29,2.96-2.8,4.98-.06,3.88,5.27,9.55,8.5,14.88,12.08,4.41,2.97,9.06,5.69,12.66,11.36"/>
        <path class="cls-2" d="M308.33,332.55c0-3.13-.15-6.26.04-9.38.21-3.31,1.9-5.06,5.37-3.69,2.62,1.04,5.22,2.19,7.67,3.59,3.31,1.9,6.57,3.53,10.54,2.3,1.02-.31,2.38-.4,2.46,1.01.09,1.55-1.29,1.81-2.57,1.7-2.53-.22-5.06-.35-7.54.24-1.13.27-2.52.58-2.77,1.94-.33,1.76,1.24,1.64,2.33,1.98,2.79.89,1.85,2.28.25,3.36-1.59,1.07-3.39,1.84-5.12,2.71-2.52,1.28-5.14,2.37-6.97,4.69-.69.88-.83,2.73-2.27,2.36-1.47-.38-1.4-2.1-1.41-3.43-.03-3.13,0-6.25,0-9.38"/>
        <path class="cls-2" d="M1209.21,411.27c3.55-1.6,7.21-2.7,11.13-2.87,3.41-.14,5.41-2.15,6.66-5.11.42-1.01.96-1.97,2.21-1.86,1.7.15,1.44,1.6,1.57,2.74.32,2.8.55,5.61.95,8.4.61,4.34-1.69,7.15-5.01,9.18-2.18,1.33-4.81,1.9-7.05,4.77-.01-8.19-5.35-11.64-10.42-15.29l-.03.04Z"/>
        <path class="cls-2" d="M201.86,241.45c-.61-2.54,1.01-4.32,1.88-6.21,2.08-4.51,3.04-9.04,1.16-13.86-.44-1.12-.95-2.34.33-3.24,1.22-.85,2.3-.08,3.29.56,2.38,1.54,4.91,2.92,7.04,4.76,2.65,2.28,5.34,2.91,8.61,1.74,1.25-.44,2.68-.78,3.38,1.02.84,2.16.56,4.28-.98,5.83-1.11,1.11-2.77,1.68-4.51.6-5.31-3.31-7.25-3.17-11.96,1-2.77,2.44-5.37,5.07-8.24,7.8"/>
        <path class="cls-2" d="M833.49,505.35c-3.23.57-4.89,3.93-6.22,7.68-.58,1.61-1.23,3.77-3.68,2.82-2.58-1-2.52-3.12-1.35-5.18,1.73-3.05,1.83-4.68-2.51-5.12-3.19-.33-4.41-4.1-2.93-7.08.13-.26.3-.51.46-.76,4.09-6.71,4.13-6.74,9.18-.94,2.52,2.89,4.88,5.92,7.07,8.59"/>
        <path class="cls-2" d="M1079.52,365.29c-4.27-1.47-7.95-.27-11.25,2.49-2.22,1.85-3.74,1.19-4.92-1.2-1.31-2.66-3.78-4.96-4.75-7.31-1.35-3.27-1.17-6.94-4.91-9.1-.65-.38-.01-3.11.16-4.74.2-1.89,1.39-3.29,3.22-2.99,2.64.43.87,2.26.63,3.49-.44,2.37.03,4.51,1.61,6.27,3.82,4.23,6.59,10.5,14.36,7.02,1.63-.73,3.84-.24,5.78-.2,3.18.07,2.65,2.98,2.99,4.69.38,1.92-1.62,1.56-2.92,1.57"/>
        <path class="cls-2" d="M939.9,431.4c-1.14-2.57-2.7-4.9-.32-6.79,4.45-3.55,4.04-7.46,1.77-11.87-.51-.99-1.32-2.04-.64-3.77,3.16,1.91,6.25,3.77,9.33,5.66.66.4,1.36,1.09.96,1.81-2.32,4.16,1.18,4.41,3.54,5.16,2.77.89,4.18,2.73,4.66,5.43.34,1.94-.41,3.79-1.86,4.76-1.91,1.28-2.31-1.19-3.25-2.07-1.33-1.24-2.67-2.39-4.35-3.08-3.52-1.46-6.72-1.94-8.23,2.75-.2.61-.85,1.08-1.61,2.01"/>
        <path class="cls-2" d="M78.57,81.91c3.13.98,6.44.57,9.7.7,2.22.09,4.08.83,5.63,2.35,3.4,3.33,6.6,6.84,11.14,8.81,1.67.73,2.82,2.58,1.67,4.48-1.28,2.12-2.91.57-4.23-.18-3.63-2.06-7.15-4.31-10.78-6.37-2.87-1.64-5.92-2.74-9.33-2.73-2.46,0-4.74-.78-6.23-2.92-.67-.96-1.34-2.07-.5-3.29.7-1.01,1.79-.91,2.92-.86"/>
        <path class="cls-2" d="M520.33,419.5c0-2.13.57-3.72,1.52-5.03,3.13-4.3,4.16-9.12,3.95-14.32-.12-3.11,1.05-4.84,4.53-4.21,3.21.58,5.84,1.27,4.64,5.67-.97,3.55-2.93,6.46-4.81,9.49-1.8,2.9-3.65,5.77-4.92,8.98-.51,1.29-.88,3.37-2.71,3.02-1.83-.35-1.81-2.46-2.2-3.59"/>
        <path class="cls-2" d="M241.87,367.7c2.93,2.06,5.21,1.92,7.18-1.04,1.11-1.67,2.54-.42,3.2.72,1.38,2.37,2.6,1.55,4.26.32,1.71-1.26,3.67-3.44,5.91-1.53,1.85,1.58,3.5,3.79,3.14,6.56-.37,2.88-2.47,4.67-4.65,6.29-.29.22-.93.27-1.25.1-6.06-3.34-12.09-6.72-18.12-10.1.11-.44.22-.89.33-1.33"/>
        <path class="cls-2" d="M604.82,425.55c3.09,3.01,4.91,2.88,6.06-1.23.92-3.28,3.04-2.5,5.02-.6,1.79,1.73,2.81,4.53,6.46,3.46,1.52-.45,1.57,1.35.53,2.43-2.16,2.24-4.18,4.67-6.64,6.54-2.2,1.68-5.02,3.6-6.48-1.11-.17-.55-1.04-1.06-1.68-1.25-4.38-1.24-4.09-4.28-3.27-8.25"/>
        <path class="cls-2" d="M27.23,126.08c.16-3.68,3.19-5.68,6.17-7.12,2.65-1.29,4.29,1.2,5.62,3.22,1.41,2.14,3.52,3.07,5.85,3.78,2.57.78,5.09,1.72,6.86,3.93.93,1.16,2.19,2.4.99,3.91-1.1,1.4-2.55.36-3.63-.24-4.03-2.24-7.94-4.65-12.42-5.99-2.08-.63-3.7-.46-5.27,1.12-.84.84-1.03,3.15-2.69,2.24-1.4-.78-1.43-2.8-1.48-4.83"/>
        <path class="cls-2" d="M1120.32,588.25c0,2.91-3.27,5.04-1.44,8.42.52.96-1.78,1.32-2.64.34-2.85-3.25-6.18-3.75-10.06-2.29-.82.31-1.85.52-2.43-.41-.61-.97-.42-2.03.31-2.91,2.16-2.62,4.33-5.24,6.54-7.82,1.68-1.97,3.75-1.36,5.76-.71,2.63.86,3.45,3.04,3.97,5.37"/>
        <path class="cls-2" d="M718.51,214.04c.09,1.6,2.74,2.19.93,4.03-1.62,1.65-2.58.78-3.84-.49-.79-.8-2.2-.97-3.05-1.73-3.37-3.05-2.57-8.26,1.51-10.14.93-.43,1.95-.78,2.96-.91,4.37-.59,11.51,2.68,10.49,4.63-1.6,3.07-5.09,4.4-9.02,4.62"/>
        <path class="cls-2" d="M107.18,87.97c-1.83-5.3-.66-9.26,2.16-12.37,3.59-3.96,7.78-7.39,11.78-10.97,1.9-1.69,2.22-.17,2.29,1.36.18,4.21-1.72,7.6-4.78,10.19-3.96,3.37-8.05,6.57-11.46,11.79"/>
        <path class="cls-2" d="M998.14,447.91c-.75,2.23-1.4,4.7-2.4,7.02-1.9,4.37-3.97,8.67-6.04,12.96-.65,1.35-1.49,2.87-3.35,2.16-1.75-.67-1.72-2.21-1.24-3.78,1.66-5.41,3.1-10.89,5.02-16.2,1.12-3.08,4.52-2.84,7.14-3.54.66-.18.96.53.88,1.39"/>
        <path class="cls-2" d="M1132.62,336.4c7.04,1.65,13.8,3.2,20.55,4.84.94.23,2.26.54,2.2,1.85-.05,1.12-1.17,1.62-2.06,2.17-8.39,5.21-16.71,1.82-20.69-8.85"/>
        <path class="cls-2" d="M1041.5,560.4c-.59,1.82-1.17,3.76-3.45,4.2-2.4.47-4.16-.61-4.95-2.82-1.25-3.49-2.21-6.92-5.49-9.41-1.99-1.5.55-2.74,1.6-3.74,1.1-1.05,2.46-.75,2.8.7,1.06,4.4,4.49,6.45,7.94,8.56.9.55,1.74,1.19,1.55,2.51"/>
        <path class="cls-2" d="M374.72,359.33c-.52,1.93-.27,3.77-3,3.91-2.43.12-3.42-.83-4.27-2.88-1.14-2.74-2.77-5.28-3.97-8-.61-1.37-.74-3.15.59-4.15,1.59-1.2,3.32-.27,4.4.95,2.46,2.77,6.32,5.42,1.97,9.67-.54.53-.84,1.33-.08,1.96.55.45,1.1.08,1.62-.24.73-.45,1.18-1.42,2.73-1.21"/>
        <path class="cls-2" d="M678.93,387.97c1.71-.17,2.94.66,3.53,2.49,1.26,3.86-.85,7.23-1.89,10.63-.53,1.73-2.59,1.7-3.39-.75-.6-1.83-1.39-3.64-2.35-5.31-2.2-3.85-.56-6.92,4.1-7.05"/>
        <path class="cls-2" d="M1096.84,371.05c2.04.61,5.02.47,2.67,4.05-2.35,3.58-3.36,7.59-3.62,11.86-.08,1.36-.06,3.34-2,3.52-1.05.1-2.41-.52-3.24-1.26-1.36-1.21-.71-2.74.1-4.07,2.14-3.49,3.85-7.03,3.26-11.36-.23-1.69,1.06-2.68,2.83-2.75"/>
        <path class="cls-2" d="M64.73,123.45c-2-.2-3.55-1-4.93-2.25-1.21-1.1-2.7-1.91-3.8-3.1-1.01-1.09-4.46-.34-2.96-3.22,1.2-2.3,3.76-3.56,6.11-2.1,2.88,1.79,5.33,4.28,7.88,6.57.79.71,1.2,1.89.71,2.89-.61,1.23-1.96,1.18-3.01,1.22"/>
        <path class="cls-2" d="M921.38,322.47c-4.39-8.18-4.02-9.16,3.18-12.27,2.18-.94,4.19-1.52,4.9,1.46.61,2.55,1.53,5.69-2.62,6.21-2.54.32-4.78.71-5.46,4.6"/>
        <path class="cls-2" d="M677.34,549.83c.07-3.84,5.74-8.42,9.4-7.71.79.15,1.56.55,1.62,1.3.2,2.38.22,4.84-1.85,6.53-2.32,1.9-5.05,3.33-8.03,3.22-1.58-.06-.82-2.22-1.15-3.34"/>
        <path class="cls-2" d="M104.98,114.67c.64-2.64.53-7.07,3.6-7.56,2.81-.45,2.64,3.91,3.43,6.33.14.42.34.84.38,1.28.24,2.22,2.07,4.54-.42,6.6-.93.77-1.89.79-2.88.19-2.43-1.48-3.96-3.54-4.11-6.83"/>
        <path class="cls-2" d="M893.73,306.5c-1.46.22-2.12-.53-2.44-1.61-.38-1.26-.96-2.55.21-3.77.82-.86,1.73-1.28,2.74-.48,3.04,2.42,4.48.39,5.88-1.99.67-1.14,1.36-2.32,2.26-3.28,1.06-1.13,2.5-2.05,3.79-.39.99,1.27.63,2.52-.95,3.24-.4.18-1.1.53-1.07.69,1.23,6.82-4.4,5.15-7.74,6.32-.97.34-1.88.89-2.67,1.27"/>
        <path class="cls-2" d="M796.87,507.34c1.59-4.67,2.21-8.16,1.64-11.76-.54-3.38,2.3-.24,2.94-1.76.35-1.56-2.29-.96-2.27-2.73,3.21-1.03,4.79,1.17,6.61,3.14,2.13,2.31-.07,3.4-.95,5.15-1.6,3.17-3.54,5.73-7.97,7.96"/>
        <path class="cls-2" d="M926.65,386.91c-.62-4,1.92-7.15,5.87-9.81,1.81-1.22,2.41-.64,2.93.78,1.18,3.24-3.3,10.89-6.74,12.01-2.18.71-2.81.14-2.06-2.97"/>
        <path class="cls-2" d="M425.92,442.68c-.31-.2-.86-.45-1.26-.85-3.29-3.25-6.55-6.52-9.8-9.81-.61-.62-1.37-1.36-.86-2.32.57-1.09,1.65-1.09,2.74-.88,2.94.57,10.59,9.03,10.82,12,.08,1.02-.18,1.78-1.64,1.86"/>
        <path class="cls-2" d="M527.31,437.46c.17,3.04-4.86,8.04-7.68,7.81-1.98-.16-2.83-1.12-1.32-2.86,1.73-1.99,2.97-4.04,2.24-6.81-.22-.85-.51-1.86.26-2.5,1.02-.84,1.96.07,2.82.52,1.72.89,3.32,1.96,3.68,3.85"/>
      </g>
      <g>
        <path class="cls-1" d="M783.19,329.34c-1.82-.92-3.65-1.65-5.59-2.41-.83-.33-1.68-.66-2.53-1.02.43-.19.84-.36,1.25-.54,7.24-3.2,13.01-7.64,17.15-13.21,5.8-7.79,7.76-17.37,6-29.27-2.03-13.74-9.38-24.5-21.85-31.98-8.36-5.02-18.03-7.99-29.57-9.08-13.28-1.26-25.16.37-36.33,4.98-20.78,8.58-32.74,26.22-33.68,49.69-.03.83-.08,1.96.68,2.74.51.52,1.29.78,2.31.75,6.68-.09,13.44-.06,20.36-.02h.03c1.83,0,2.79-.89,2.93-2.72.05-.68.08-1.35.12-2.03.08-1.67.16-3.25.48-4.84,2.02-10.04,6.84-17.19,14.72-21.85,9.43-5.58,19.84-6.83,31.84-3.83,13.19,3.29,20.35,10.52,21.89,22.08,1.13,8.47-1.21,15.51-6.95,20.94-6.84,6.46-15.71,7.89-24.27,8.47-4.12.28-8.36.17-12.46.06l-1.56-.04c-.86-.03-1.91.05-2.64.77-.73.72-.8,1.77-.78,2.6.07,3.18.05,6.42.04,9.55,0,1.35-.01,2.69-.01,4.04,0,2.21,0,3.32.79,4.09.75.73,1.81.77,3.85.77,1.04,0,2.17,0,3.26-.01,7.74-.04,15.73-.08,23.37,2.05,8.49,2.37,13.96,5.82,17.71,11.19,4.5,6.44,5.77,14.22,3.98,24.46-1.83,10.45-8.21,17.77-18.98,21.76-9.19,3.4-19.21,3.86-30.64,1.4-13.24-2.85-22.2-10.37-26.63-22.34-1.54-4.16-2.32-8.49-2.32-12.86,0-.83,0-1.96-.79-2.74-.53-.52-1.3-.75-2.29-.75-6.77.11-13.66.07-20.32.02h-.3s-.02,0-.04,0c-1.72,0-2.53.79-2.63,2.57-.16,2.92.05,6.06.64,9.57,2.98,17.57,12.51,31.37,28.31,41.01,1.27.77,2.48.74,3.55.7.73-.02,1.36-.04,1.96.18.86.33,1.45.04,1.72-.16.82-.61.83-1.79.75-2.74.05-.85.49-1.69.96-2.59.8-1.51,1.78-3.39.72-5.7.07-.04.18-.09.34-.14,2.4-.68,8.6,1.25,9.87,3.48,2.57,4.54,7.54,3.7,9.41,3.39.21-.04.44-.07.68-.1,2.01-.28,5.38-.75,6.29-4.36.05-.18.39-.54,1.78-1.27.46-.24.98-.19,1.39.13.1.08.13.13.13.13,0,.06-.04.23-.28.68-.93,1.69-1.04,3.33-.32,4.87.06.12.07.18.08.19-.01.02-.05.08-.17.18-1.57,1.32-2.22,3.36-1.76,5.61.03.17.07.32.1.47.04.19.1.44.11.57-.07.04-.23.12-.54.2-.86.23-1.69.9-2.11,1.7-.38.72-.44,1.5-.17,2.26.22.62.57,1.03,1.04,1.2.7.26,1.3-.08,1.7-.3.08-.04.19-.1.26-.14.04,0,.09.01.13.01,1.19,1.06,2.45,1.33,3.69,1.33.7,0,1.4-.09,2.06-.18.76-.1,1.48-.19,2.18-.15l1.9.11-.99-1.63c-.55-.89-.44-1.79-.32-2.82l.05-.42c.09-.85.99-1.3,1.53-1.49.08-.03.15-.05.21-.06.26,1.43.97,2.01,1.54,2.24,1.3.53,2.68-.35,3.21-.75,1.36-1.04,2.9-1.55,5.16-1.7,1.73-.12,2.71-1.21,3.49-2.1.42-.48.82-.93,1.28-1.19.8-.44.92-1.82.94-2.09.06-.93-.22-1.67-.79-2.09-.53-.39-.55-.58-.32-1.26.61,1.36,1.62,2.38,2.5,3.16.56.5,1.63.77,2.33.37.46-.26.69-.75.6-1.26-.27-1.49-.84-2.92-1.38-4.14,1.29-.05,1.97-1.12,2.36-1.73.08-.13.16-.25.24-.36,1.03-1.41-.49-2.77-.99-3.22-.43-.38-.79-.99-.51-1.58.1.07.21.16.3.23.21.17.42.33.61.45.26.15.77.38,1.3.22,1.37-.43,2.66.04,4.15.59,1.53.56,3.25,1.18,5.17.71.1.05.23.13.33.18.51.3,1.29.74,2.02.22.26-.19.42-.44.5-.73.61.34,1.31.34,1.76.35.23,0,.52,0,.62.05.13.05.26.1.4.16,1.17.48,3.63,1.5,4.93-1.35.01,0,.14-.07.62-.03,2.01.18,4.91.03,6.81-3.27,6.04-10.46,8.19-21.71,6.6-34.4-1.95-15.48-9.21-26.21-22.21-32.8ZM789.29,358.39c-.08.64-.97,1.39-1.4,1.59-.21.1-.42.21-.64.32-1.01.52-2.04,1.05-3.14.98-.61-.05-.65-.18-.69-.32-.04-.12-.03-.23,0-.3.03-.05.09-.09.17-.12.89-.25,1.5-.87,2.05-1.43.59-.61.94-.92,1.38-.92.19,0,.4.06.66.18l.16.06c.44.12.88.05,1.26-.01.05,0,.12-.02.18-.03ZM798.7,363.64c-.09-.5.02-1.34.17-1.76.5.2,1.14.8,1.68,1.3.22.21.45.42.71.66,0,.03.02.19-.32.75-.06.1-.11.17-.15.23-.52-.36-1.01-.5-1.46-.5-.21,0-.42.03-.61.08.04-.23.04-.48-.01-.76ZM798.41,387.18c-1.46,0-2.64,1.74-3.06,2.65-.09.21-.17.36-.24.48-.23-.16-.47-.27-.7-.38-.18-.09-.49-.23-.53-.24,0,0,0-.14.2-.47,1.18-1.99-.04-3.44-1.23-4.84-.07-.09-.06-.13-.05-.17.03-.13.14-.26.23-.32,1.25.14,1.97-.49,2.45-.9.18-.16.33-.29.48-.36.89-.46,1.51-.62,1.82-.5.16.06.29.25.4.57.4,1.15,1.5,1.25,2.02,1.3,0,0,.02,0,.03,0-.4.55-.5,1.23-.58,1.81-.15,1.08-.19,1.37-1.24,1.38Z"/>
        <path class="cls-1" d="M662.72,359.5c.03-.95-.04-2.02-.76-2.74-.72-.73-1.83-.8-2.7-.79-6.32.11-12.75.08-18.97.05h-2.97c-.46-.01-.86,0-1.21,0-.46,0-.92.01-1.18-.01-.02-.26-.02-.71,0-1.16,0-.32.01-.69.01-1.11-.01-27.18,0-54.35,0-81.53v-24.46c0-.7,0-1.4,0-2.11-.03-1.74-.96-2.11-1.74-2.12-2.3-.02-4.59-.02-6.88-.01h-3.43s-.36,3.02-.36,3.02l1.41-.35c.09-.02.17.01.54.31.49.4,1.31,1.06,2.52.61l.13-.05c.08-.03.17-.06.26-.09.08.47.33.85.53,1.15.05.08.12.18.17.27-.04.03-.09.06-.15.1-1.33.81-1.14,2.35-1.08,2.86.2,1.56-.27,2.41-1.72,3.12-1.48.73-2.49.57-3.84-.58-.05-.05-.11-.13-.17-.21-.36-.45-.96-1.21-1.89-1.22h0c-.39,0-.98.15-1.54.84-1.2,1.49-1.18,3.26.05,4.61.1.11.22.23.33.34.3.29.43.44.41.53-.74,3.65.95,6.49,2.58,8.86.15.22.6.98.11,1.65-.62.49-4.17,1.07-4.9.82-.04-.06-.07-.33-.09-.48-.05-.5-.13-1.27-.84-1.75-1.12-.77-2.37-1.08-3.58-1.38-1.52-.38-2.84-.7-3.76-1.85-.48-.59-1.19-.34-1.46-.25l-.67.2c-2.1.61-4.27,1.24-5.86,3.35-.61.81-1.11,1.68-1.59,2.53-.9,1.59-1.76,3.09-3.25,4.04-.83.53-1.12,1.64-1.19,1.97-.3,1.44-1.12,2.31-2.84,3.02-2.57,1.07-3.83,4.06-3.23,6.01.06.21.12.44.17.69.32,1.37.84,3.66,3.5,4.32.47.12,1.12.45,1.38,1,.18.38.15.82-.08,1.33-.03.05-.06.09-.1.14-.21.3-.56.79-.4,1.42.09.37.35.68.73.86,1.16.57,1.25,1.47,1.32,3.28.02.62.05,1.25.14,1.93l.31,2.23,1.44-1.73c5-5.99,8.95-12.05,13.1-18.47-.72,8.16-.83,16.23-.84,23.77-.02,15.7-.04,31.94.04,48.16,0,.95-.13,1.28-.24,1.39-.09.09-.36.23-1.34.23-10.97-.08-23.96-.15-37.13,0-4.66.05-9.25.3-14.12.56-1.51.08-3.04.16-4.59.24.27-.36.53-.7.8-1.01,2.01-2.37,4.1-4.74,6.12-7.04,4.14-4.72,8.42-9.59,12.33-14.66l.96-1.24c1.45-1.89,2.96-3.84,4.48-5.71,1.09-1.33.42-2.48.07-3.1-.08-.15-.17-.29-.23-.44-.27-.7-.75-.93-1.01-1-.43-.12-.89-.03-1.3.27-1.23.9-.91,2.06-.72,2.74.03.11.06.22.09.33.11.47.05.67.02.69-.07.07-.47.17-1.19,0-3.29-.79-6.15.1-8.27.97-.59.24-1.47.41-2.29-.15-.48-.33-.99-.61-1.47-.88-1.28-.71-2.38-1.31-2.87-2.71-.24-.68-.93-1.96-2.03-2.47-.54-.25-1.11-.28-1.64-.07-1.26.48-2.78,2.24-2.77,3.69,0,.33.02.65.04.96.02.33.05.81.01,1.02-.12.02-.43.03-1.09-.13-.86-.2-1.46.57-1.99,1.26l-.11.14c-5.57,7.12-11.12,14.24-16.68,21.36l-.39.5c-2.08,2.65-4.22,5.38-3.79,9.63.46,4.54.25,9.2.04,13.71-.06,1.25,0,2.52.84,3.39.85.89,2.22,1,3.39.99,19.56-.09,39.45-.08,58.69-.07h16.84c1.04,0,2.11,0,2.31.14.16.22.16,1.34.16,2.43v8.54c.01,8.69.02,17.68-.04,26.52,0,1.01.05,2.15.83,2.91.68.67,1.65.79,2.48.79.08,0,.17,0,.25,0,6.26-.15,12.75-.16,19.29,0,.89.02,2-.05,2.75-.78.74-.73.83-1.81.82-2.86-.04-5.8-.04-11.59-.04-17.39,0-6.14,0-12.48-.05-18.72,0-.92.13-1.26.25-1.37.12-.11.47-.25,1.39-.23,3.73.05,7.52.05,11.2.04,3.79,0,7.7-.01,11.54.05.89.01,1.98-.06,2.7-.79.71-.72.79-1.79.76-2.73-.13-4.89-.13-9.89,0-14.86Z"/>
        <path class="cls-1" d="M488.67,315.17c.61.58,1.44,1.38,2.83,1.4l2.51.05-1.79-1.76c-.63-.62-.95-1.17-.95-1.64,0-.42.26-.89.79-1.43.51-.52,1.17-1.62-.2-3.19-.46-.53-.6-.97-.53-1.15.06-.15.37-.33.93-.4,3.53-.43,5.53-2.67,7.46-4.85.82-.92,1.59-1.78,2.46-2.51.47-.39.44-.96.42-1.23,0-.05-.01-.08-.02-.07,1.06-4.51,1.2-9.45.43-15.08-1.73-12.7-8.04-22.94-18.76-30.42-8.86-6.19-19.45-9.81-32.37-11.08-11.35-1.11-22.17,0-32.16,3.28-23.65,7.79-37.2,25.93-38.14,51.08-.04.95.03,2.02.75,2.76.73.74,1.83.82,2.71.8,4.04-.09,8.15-.07,12.13-.05,1.61,0,3.22.01,4.83.01,5.19,0,5.64-.41,6.03-5.45l.03-.43c.84-10.78,5.45-19.02,13.7-24.5,9.71-6.46,20.93-7.93,34.31-4.52,11.52,2.94,23.01,12.13,20.69,29.07-.9,6.59-3.91,11.66-9.22,15.51-7.09,5.15-15.35,6.16-22.49,6.48-4.18.18-8.45.11-12.58.04l-1.2-.02c-.76-.01-1.72.06-2.4.73-.68.68-.75,1.67-.74,2.36.08,5.4.08,10.65,0,15.61-.01.68.05,1.65.74,2.33.68.67,1.65.74,2.44.72,1.72-.05,3.48-.03,5.18-.02,1.58,0,3.15.02,4.73-.01,8.63-.17,15.54.85,21.79,3.23,1.01.38,2.09.7,3.22.7,1.4,0,2.87-.49,4.31-1.96.32-.33.47-.41.48-.44,0,.04.01.08.02.12.06.38.15,1.01.74,1.37.39.24.87.27,1.43.09,1.3-.43,1.18-1.69,1.14-2.17-.01-.12-.03-.3-.02-.34.43-1.36.72-3.3-1.7-4.49-.09-.05-.22-.25-.29-.5,1.75.68,2.62-.63,3.06-1.29.17-.26.33-.5.5-.66,1.21-1.12,1.46-2.55,1.68-3.81.23-1.29.4-2.11,1.16-2.69.6-.46.44-1.19.34-1.62l-.03-.12c-.14-.71.16-1.29.66-2.18.09-.16.18-.32.26-.48,1.41-2.62,3.93-3.8,6.6-5.04.43-.2.86-.4,1.29-.61.17-.08.21-.1.8.47Z"/>
        <path class="cls-1" d="M1010.98,282.12c-6.4-3.31-13.38-4.87-20.13-6.37-1.54-.34-3.09-.69-4.63-1.05-1.03-.24-2.06-.48-3.09-.71-4.84-1.09-9.84-2.21-14.31-4.59-3.71-1.97-5.7-4.21-6.27-7.06-1.36-6.85,1.09-11.74,7.28-14.53,5.32-2.39,11.08-2.42,16-2.13,7.78.46,17.56,3.7,20,16.53.32,1.71,1.07,2.36,2.75,2.34,2.3-.03,4.6-.03,6.89-.02h2.72c2.6,0,3.9,0,4.67-.95.78-.97.49-2.33-.05-4.81-2.03-9.4-6.33-16.25-13.14-20.94-5.84-4.03-12.67-6.29-21.49-7.13-9.8-.93-18.55.35-26.75,3.92-7.69,3.34-13.2,9.5-15.52,17.33-2.34,7.91-1.13,16.87,3.17,23.38,4.7,7.11,12.1,10.22,18.02,12.13,4.59,1.48,9.34,2.56,13.93,3.6,4.19.95,8.53,1.93,12.7,3.21,4.26,1.31,8.68,2.89,11.87,6.43,2.7,2.99,3.75,7.96,2.69,12.65-.65,2.83-2.64,7.96-8.73,10.45-6.99,2.86-14.67,3.24-23.47,1.14-5.86-1.39-10.15-4.08-13.12-8.23-2.3-3.21-3.7-6.73-4.15-10.47-.19-1.57-.54-4.49-4.49-4.15-2.1.18-4.29.14-6.4.1-.95-.02-1.9-.04-2.86-.04h-.02c-1.97,0-3.06,0-3.76.77-.7.77-.6,1.94-.46,3.56.96,10.71,5.63,19.34,13.89,25.65,8.17,6.24,18.27,9.28,30.87,9.28.22,0,.44,0,.66,0h0c4.01-.06,8.68-.22,13.31-1.23,15.48-3.39,25.86-13.96,27.09-27.6,1.26-13.96-4.17-24.49-15.69-30.45Z"/>
        <path class="cls-1" d="M900.79,280.25c-.02.08-.04.13-.05.17-.02,0-.03,0-.06,0-.36.03-1.39-.38-2.22-1.13-.56-.5-.68-.85-.68-.91.1-1.68.96-1.91,1.78-1.91,2.09,0,2.77-1.55,3.1-2.72.75-2.67-.52-4.33-1.77-5.67-.61-.65-.73-.89-.53-1.71.81-3.31-.37-5.96-3.24-7.26l-.97-.44-2.04,5.39c-6.33,16.68-12.86,33.89-18.32,51.32-5.67-18-11.4-33.78-17.47-48.13l-.3-.72-.42.07c.42-.92.05-1.86-.17-2.44l-2.86-7.42c-2.78-7.22-5.66-14.69-8.42-22.06-.75-1.99-2.03-2.28-3.33-2.28-.03,0-.05,0-.08,0-5.07.05-10.46.08-15.8-.02-.75-.01-1.67.05-2.32.69-.64.63-.73,1.55-.73,2.37.04,33.35.04,67.31,0,100.92,0,.84.09,1.78.76,2.44.67.65,1.61.71,2.28.69,3.27-.08,6.65-.08,10.33,0,.74,0,1.69-.05,2.36-.71.68-.68.75-1.68.74-2.37-.14-9.84-.08-19.85-.02-29.54.09-14.27.17-28.99-.37-43.55.1.31.2.62.3.92.54,1.64,1.09,3.33,1.71,4.97,6.4,17,12.97,34.26,19.32,50.95l3.61,9.48c.31.82.57,1.71.84,2.66.69,2.41,1.41,4.91,3.17,6.34,1.15.93,2.54,1.18,4.02,1.18.89,0,1.81-.09,2.72-.19,1.15-.12,2.34-.24,3.38-.15,2.24.2,3.55-.69,4.39-2.95,2.38-6.36,4.87-12.81,7.27-19.04,1.32-3.43,2.65-6.87,3.96-10.3,2.52-6.59,5.02-13.19,7.53-19.82l3.32-8.76.5-1.44-1.54.09c-2.67.15-3.08.49-3.71,3Z"/>
        <path class="cls-1" d="M477.3,407.79c-.48-.62-.68-1.41-.57-2.23.22-1.63.31-3.3-.79-4.65.02,0,.04-.02.06-.03,1.14-.62,2.15-2.4,1.93-3.42-.11-.53-.53-.89-1.05-.93-.1,0-.18-.01-.25-.02,0-.01.01-.03.02-.04.08-.16.15-.33.22-.5.26-.66.14-1.18,0-1.49-.15-.32-.49-.76-1.22-1-.24-.08-.48-.17-.72-.26-1.47-.54-3.3-1.22-5.21.35-.68.56-1.5,1.08-2.65,1.69l-.16.08c-.73.38-1.48.78-1.64,1.65-.06.31-.02.62.08.9l-.42.16c-.83.32-1.25,1.04-1.09,1.85.03.15.1.29.15.43l-.4-.35-.51,1.34c-.55,1.45.12,2.49.57,3.18.21.33.4.61.42.85.03.31.03.7.02,1.05-.65-.04-1.25.14-1.76.28-1.05.3-1.14.24-1.36-.08-.09-.13-.14-.24-.16-.32.05-.02.11-.04.21-.06.42-.08,1.68-.33,2.01-1.37.34-1.07-.6-2.07-1.05-2.54-.87-.91-1.94-1.06-2.8-1.18-.51-.07-.95-.13-1.23-.32-.14-.1-.28-.2-.41-.3-.69-.52-1.54-1.16-3.07-.87-5.26.99-10.52.85-14.97.57-7.21-.45-13.36-2.09-18.8-5.04-7.91-4.28-13.32-10.68-16.09-19.02-1.25-3.76-2.61-4.54-6.05-3.47l-.84.26.15.87c.03.17.08.32.14.45-.15-.07-.29-.14-.44-.21-1.46-.68-2.22-1.1-2.23-2.48,0-.44-.25-1.04-.76-1.32-1.96-1.04-1.68-2.05-.86-4.23.07-.18.13-.36.2-.54l1.51.67c.38.17.73.23,1.04.23.76,0,1.33-.39,1.72-.65.16-.11.33-.22.45-.26.22.1.68.27,1.16,0,.25-.14.57-.44.62-1.06.03-.37-.03-1.25-1.35-1.5-1.46-.32-2.37.42-3.04.95-.23.19-.46.37-.68.49l-1.28.72s.03-.08.04-.12c.53-1.6.19-2.56-.19-3.08-.5-.7-1.33-1.06-2.47-1.06-1.69,0-3.37,0-5.05,0-2.47,0-4.94,0-7.41-.02-.68-.01-1.45.06-2.02.62-.58.57-.65,1.4-.65,1.97-.01,2.87.05,6.27.68,9.69,3.75,20.56,15.75,35.34,35.67,43.92,9.35,4.03,20.01,6.01,32.58,6.05.1,0,.21,0,.31,0,11.16,0,21-1.7,30.08-5.19,1.23-.47,2.24-.94,2.11-1.9-.18-1.35.51-2.24,1.66-3.57.45-.53.92-1.07,1.33-1.69l.88-1.34-1.59-.2c-1.19-.15-2.12-.62-2.7-1.37ZM465.58,401.63c.06,0,.13.01.19.01.28,0,.55-.1.78-.26-.16.26-.39.51-.72.74-.1.07-.18.11-.23.14-.06-.09-.14-.22-.19-.32-.08-.14-.17-.29-.28-.45.15.06.29.12.45.14ZM400.33,375.89s-.1-.02-.28-.17c.1.06.21.1.3.14-.02.02-.03.03-.02.03Z"/>
        <path class="cls-1" d="M927.78,233.11c-.76-.73-1.88-.79-2.77-.76-3.71.13-7.5.1-11.15.08-1.54-.01-3.06-.02-4.62-.02h-.21c-.85-.01-2.23-.02-2.89,1.82-2.02,5.67-4.15,11.4-6.2,16.95l-2.16,5.85,1.86.74c.47-1.12.92-1.12,2.5-.67.22.07.44.13.65.18-.03.08-.06.15-.08.21-.15.38-.32.82-.35,1.31l-.11,1.74,1.56-.79c.89-.45,1.86-.41,2.89-.37.87.03,1.77.07,2.75-.2.9-.25,2.27-.61,2.56-.36.01.01.33.31.12,1.89l-.09.66.57.34c1.15.68,1.15,1.65,1.05,3.29-.02.28-.03.56-.05.85-.03.16-.1.45,0,.78.08.29.21.54.38.72-.2.22-.41.58-.42,1.14-.04,2.62-.38,4.72-1.89,6.43-.38.43-.32.96-.28,1.27,0,.05.01.1.01.15v3.7c0,7.81,0,15.61,0,23.42,0,.11-.01.23-.02.35-.05.54-.18,1.96,1.1,2.27.13.03.24.07.32.1-.09.1-.23.23-.44.39-1.04.81-.99,1.77-.96,2.34,0,.09,0,.17,0,.26-.01,3.97-.01,7.95-.01,11.92,0,5.15,0,10.3-.03,15.45,0,.78.08,1.65.7,2.27.44.44,1.07.66,1.91.66.02,0,.04,0,.06,0,4.17-.05,8.39-.03,11.97,0,.91,0,1.52-.21,1.97-.67.61-.62.66-1.47.64-2.06-.05-1.95-.04-3.95-.03-5.87,0-.81,0-1.63,0-2.44v-17.25c0-24.59,0-50.02.05-75.03,0-1.05-.06-2.24-.86-3.01Z"/>
        <path class="cls-1" d="M493.84,333.82c-.13-.1-.26-.22-.41-.34-.57-.51-1.34-1.2-2.35-1.1-.6.06-1.14.38-1.6.97-.41.53-.79,1.1-1.15,1.64-.36.55-.71,1.06-1.08,1.55-.35.46-1.05,1.71.09,3.51.84,1.31,1.73,2.88,1.81,4.87.1,2.8-.09,4.8-1.38,6.76-.58.88-.58,2.55,0,3.51.45.75.26,1.48-.06,2.43-.32.95-.08,1.65.1,2.16.05.15.11.3.13.46.12.72.42,1.25.89,1.57.48.32,1,.35,1.46.3l-.47.21,2.38.81c1.59.54,2.21,1.77,2.92,3.2.52,1.05,1.06,2.12,2.02,2.96-1.06.96-.37,2.07-.15,2.43.05.08.13.21.14.23.08.57.34.96.75,1.16.18.09.36.12.53.12.4,0,.74-.19.94-.3.03-.02.07-.04.1-.06,1.31-.15,2.8-.54,4.02-2.26.44-.62.71-.92,1.59-.35.18.11.37.41.55.71.46.73,1.23,1.94,2.96,1.66l.81-.13.03-.82c.25-7.43-.73-14.09-2.97-20.37-2.62-7.3-6.86-13.19-12.61-17.49ZM491.85,356.06c-.19.01-.28-.02-.5-.32.02,0,.04-.01.06-.02,1.54-.52,1.91-.33,1.97-.29.04.03.21.21.25.99-.47-.32-1.07-.36-1.54-.36-.08,0-.16,0-.24,0ZM493.77,360.03c.27.23.45.41.57.54-.23.08-.52.16-.74.22-.12.03-.26.07-.39.11.23-.27.42-.57.56-.87Z"/>
        <path class="cls-1" d="M767.82,415.02c-.4-.18-1.07-.31-1.91.08-.05.02-.22.05-.34.07-.47.07-1.17.19-1.55.84-.25.44-.25.97-.01,1.57.19.49.18.67-.43,1.22l.92,1.71.12-.03c.85-.22,1.7-.44,2.55-.66.19-.05.38-.08.56-.11.78-.14,1.18-.56,1.38-.88.5-.82.19-1.78.09-2.1-.26-.82-.75-1.42-1.38-1.7Z"/>
      </g>
    </g>
  </g>
</svg>