<?xml version="1.0" encoding="UTF-8"?>
<svg id="Layer_2" data-name="Layer 2" xmlns="http://www.w3.org/2000/svg" viewBox="0 0 592.44 676.94">
  <defs>
    <style>
      .cls-1 {
        fill: #e41f1b;
      }

      .cls-1, .cls-2 {
        stroke-width: 0px;
      }

      .cls-2 {
        fill: #bfbebf;
      }
    </style>
  </defs>
  <g id="Livello_1" data-name="Livello 1">
    <g>
      <g>
        <path class="cls-2" d="M471.07,603.06c-.66,2.5-2.41,3.75-3.81,5.14-8.28,8.19-16.48,16.41-26.65,22.47-11.11,6.62-22.14,13.52-34.43,17.51-15.12,4.91-30.28,10.14-46.63,9.64-3.21-.1-6.44,1.58-9.71,2.16-15.6,2.74-30.8,6.98-45.86,11.82-6.02,1.93-12.4.87-18.61,1.55-14.04,1.53-28.18,2.17-42.26,3.45-9.1.83-17.62-1.83-26.26-3.69-12.04-2.6-24.1-5.22-35.91-8.67-12.81-3.75-24.31-10.35-35.67-17.44-9.08-5.67-17.73-11.89-26.58-17.85-4.31-2.9-7.42-7.05-11.42-10.29-2-1.62-1.81-5.29-4.99-6.57-.86-.34.32-1.57,1.12-1.25,2.73,1.07,6.35.13,7.7,4.37.91,2.86,6.98,3.19,8.94.79.94-1.16,1.7-2.49,3.27-1.5,1.34.85,2.99,1.87,2.42,3.93-.67,2.4-.45,3.59,2.43,2.39,1-.42,1.43.61,1.87,1.28,1.8,2.74,4.37,2.76,7.52,2.42-3.74-3.49-4.23-8.45-1.58-12.48.37-.57.96-1.17.97-1.77.01-1.33-1.76-3.39.73-3.67,2.43-.27,5.29-.54,7.38,1.24,1.18,1.01,2.17,2.09,4.32,2.43-1.9-2.49-.15-3.64,1.78-4.67-1.65-1.08-3.05-.47-4.39-.55-1.68-.1-3.1-1.28-2.53-2.58,1.83-4.13-2.26-5.79-3.21-8.71-.35-1.07-2.21-1.69-1.33-3.15.79-1.3,2.1.08,2.94-.14,2.4-.63,4.38-.98,6.86.42,1.55.87,2.54-1.55,3.02-3.16.28-.95-.96-2.5.65-2.85,1.65-.36,1.79,1.38,2.23,2.48.35.88.97,1.28,1.83,1.51,2.21.58,4.75.27,2.57,4.3-1.18,2.19,2.9,4.43,4.68,4.59,3.42.3,5.71,2.34,6.91,4.45,2.01,3.53,3.88,4.95,7.33,2.63,1.25,1.13.23,1.72-.08,2.39-.24.54-.42,1.07.03,1.53.73.74,1.19.17,1.68-.39,1.36-1.56,2.93-.83,4.59-.58,3.99.6,8.25,2.6,11.07-2.73,1.06-2.02,3.84-1.18,5.82-.86,1.72.28,1.8,1.84,1.52,3.33-.39,2.06,1.24,2.15,2.55,2.53,1.73.5,2.5,1.81,2.52,3.42.03,1.83-1.73,1.37-2.79,1.82-2.01.85-6.68.86-1.33,4.18.6.37.48,1.81.84,2.69.2.48.89,1.26,1.04,1.19,3.76-1.7,5.58,1.84,8.33,2.87,1.99.75,2.91,1.05,1.04,2.84-.81.78-1.78,1.68-1.18,2.84.59,1.13,1.77.08,2.66.23,2.56.43,5.49,1.99,6.27-2.56-2.31.4-3.34-.79-3.81-2.97-.64-3,.83-5.21,2.78-6.9,1.64-1.41,3.36-.13,4.73,1.19.38.36.83.66,1.24.98,1.49-3.29,4.16-.22,5.64-.95,3.98-1.97,7.56-.03,11.28.24,1.8.13,3.24-.26,4.9-1.79-2.15-1.21-6.31-1.48-2.96-5.35.55-.64-.62-1.42-1.53-1.4-1.29.03-1.73.91-1.34,2.01.97,2.76-.85,3.49-2.86,3.84-.85.15-2.3-.21-2.17-1.42.42-3.77-1.65-6.43-3.64-9.17-1.04-1.45-1.67-3.23-.83-4.69,1.08-1.89,2.78-.19,3.96.23,2.53.9,4.69.9,6.34-1.34,1.75-2.37,4.69-2.18,6.92-3.53.93-.56,2.09-.21,1.9,1.2-.16,1.22.15,1.95,1.28,2.18,1.26.25,1.08-.96,1.45-1.62,1.58-2.78,4.82-3.13,7.29-4.25,1.69-.76,3.89-.45,5.27-2.33.43-.58,1.31-.5,1.84.09,1.18,1.33-.73,2.07-.75,3.15,3.1.95,3.37-2.17,5.16-3.42-2.72-.66-5.91-.69-5.82-4.62.02-.83.26-2.21,1.09-1.77,3.91,2.07,8.22-1.51,12.19,1.14.98.65,4.86,3.1,4.46-1.94-.09-1.14.81-1.06,1.78-.96.93.09,1.57-.73,1.3-1.66-.16-.57-.77-1.12-1.31-1.47-.84-.54-1.93-.23-2.06.62-.95,6.08-4.29,2.41-7.41,2.04,1.81-2.34,4.63-3.95,2.5-7.11-2.42.22-2.08,5.38-4.81,3.53-2.53-1.72-6.82-1.69-7.36-5.81-.24-1.82,1.68-1.91,2.85-2.61-.11-.15-.21-.44-.34-.45-1.72-.17-3.34-.44-3.99-2.4-.2-.59-.28-1.16.44-1.31,2.45-.5,4.33-3.65,7.24-1.77,1.37.88,2.79,1.62,4.19,2.08.41,1.92-3.04,2.32-1.36,4.42.93,1.16,2.1,1.06,3.4.69,2.77-.78,4.7-3,4.4-5.38-.54-4.32,3.29-8.95-.88-12.98-.38-.37-.28-1.19.26-1.46,3.62-1.78.18-2.75-.55-3.73-1.11-1.5-2.64-2.07-4.14-.22-.34.41-1.12,1.07-1.15,1.04-2.74-2.62-5.13.26-7.67.45-1.33.1-1.73-.71-1.8-1.77-.16-2.36,1.64-4.95,3-4.81,5.1.54,5.98-3.18,7.35-6.33,1.22-2.81,2.17-1.91,3.77-.4,4.11,3.89,4.1,4.43-.86,6.68.25,1.44,1.45,1.59,2.47,1.51,4.71-.39,9.23.95,13.85,1.38,5.61.52,7.5,4.31,5.53,9.52-.95,2.49-.37,4.78,2.17,5.98,2.07.98,3.1,1.73.86,3.71-1.78,1.58-1.99,3.35-.18,5.4,2.47,2.79.43,6.01.27,9.04-.04.74-.92,1.52.05,2.16.73.48,1.22-.32,1.83-.59,5.56-2.49,11.11-4.99,16.73-7.35.78-.33,1.91,0,2.84.2,3.19.68,5.73,1.21,7.92-2.73,1.38-2.49,5.5-2.05,8.3-.85,1.46.62,2.83,1.33,3.56-.12,2.84-5.64,9.31-3.57,13.47-6.45.66-.46,2.8,1.26,4.27,1.92,1.27.57,2.62,1.29,3.81-.06,1.09-1.23,1.45-2.78.83-4.28-.75-1.82-2.04-.68-3.15-.31-.76.25-1.4.06-1.72-.68-.33-.77.1-1.38.7-1.76,3.81-2.42,7.76-4.62,12.08-6,.75-.24,1.9.13,2.3-.63,2.11-4.01,5.26-4.58,9.32-3.42,1.42.41,2.65-.6,3.83-1.83,2.23-2.32,4.45-1.63,5.39,1.43.43,1.41,1.28,2.38,2.2,3.44,1.36,1.58.52,6.05-1.19,7.05-1.77,1.04-3.93-.4-3.91-2.67,0-.82.29-1.64.4-2.46.09-.67.24-1.38-.68-2.15-3.52,2.96-4.87,6.62-3.87,11.17.72,3.25.41,6.35-1.29,9.26-1.05,1.79-2.13,2.87-3.4.13-.28-.6-.65-1.46-1.15-1.61-1.24-.36-2.32-2.53-3.53-1.16-1.06,1.2.31,2.52,1.45,3.39,3.25,2.48,5.59,5.29,3.84,9.77-.16.42,0,1.22.31,1.54,2.76,2.82.16,3.74-1.71,4.85-1.16.69-2.72.86-3.11,2.49-.23.95-.45,2,.32,2.77.79.79,1.51,0,2.21-.38,4.44-2.38,9.03,1.06,13.47-.33,6.16-1.92,11.76,2.53,17.89,1.41,3.84-.7,7.52-.82,9.98,3.62.8,1.44,4.16,1.96,5.85-.17,1.78-2.24,3.47-2.03,4.53.09,3.45,6.88,8.58,9.06,16.36,8.76,3.95-.15,6.03-1.86,8.62-3.57,1.8-1.19,3.28-2.87,6.05-2.85"/>
        <path class="cls-2" d="M559.98,420.4c-1.61-1.69-1.08-3.98-2.9-4.95-.21.19-.55.34-.57.53-.52,4.87-1.03,9.67-3.03,14.32-.96,2.24-.23,4.78,2.17,6.98,3.06,2.8,3.15,7.05,3,11.01-1.35.37-1.26-.75-1.77-1.02-1.98-1.04-2.38-5.1-5.83-3.24-2.62,1.42-4.23,6.21-2.98,9.22.76,1.84.97,3.75,1.46,5.62.26,1.01,0,2.07-1.07,2.44-1.12.39-1.43-.76-1.6-1.44-.57-2.23-2.58-2.8-4.18-3.79-1.77-1.1-2.75-.72-3.68,1.47-2.1,4.95-6.18,8.13-11.18,9.81-6.82,2.29-13.14,1.38-18.85-3.43-2.22-1.87-6.46-.36-8.04,2.82-1.04,2.09-1.52,1.7-3.26.69-4.57-2.65-5.09-5.79-3.18-10.55,1.58-3.95-1.56-6.91-4.21-9.49-1.01-.98-2.42-1.57-1.86-3.28.47-1.43,1.42-2.4,3.1-2.16.75.1,1.45.01,1.7-.78.26-.83-.41-1.27-1.02-1.58-3.1-1.59-1.79-2.21.48-3.19,2.61-1.12,4.68-2.59,7.04.79,1.48,2.13,6.71-.79,7.63-4.15.18-.66.19-1.37.24-2.05.09-1.21,3.09-1.64,1.12-3.23-1.47-1.18-3.14-.13-4.63.71-1.66.93-3.44,2.39-5.15.21-1.14-1.46-.4-3.11.58-4.21,1.53-1.7,3.57-2,5.63-.74.58.36.98,1.08,1.58,1.32,6.48,2.59,6.78,2.85,10.19,9.98.36.76.96.88,1.66,1.01,1.98.35,3.12,1.73,2.66,3.54-.58,2.3,1.46,3.12,2.06,4.71.45,1.17,1.66,1.48,2.12.21,2.47-6.83,8.88-5.69,14-7.04,2.68-.7,5.28-4.72,3.76-6.94-1.31-1.9-1.47-3.96-1.48-5.92,0-2.93-.09-5.23-3.79-5.69-1.51-.19-1.77-1.52-.89-2.9,1.58-2.48,1.03-4.36-1.52-5.88-1.58-.95-3.19-2.31-1.65-4.36,1.7-2.26,3.06-.5,4.43.68,1.14.98,2.46,1.69,3.96,1.98,1.42-3.92-2.62-3.65-3.96-5.41-.81-1.07-3.01-1.09-2.69-2.78.29-1.5,2.03-1.69,3.38-2.01,3.18-.76,3.37-2.41,1.5-4.77-1.98-2.49-2.37-4.74,1.07-6.34,1.07-.5,2.1-1.34,1.78-2.54-1-3.72,1.22-6.88,1.58-10.34.18-1.74.8-3.16,2.39-4.13,3.4-2.08,3.91-4.83.7-6.85-3.35-2.11-3.52-4.87-3.59-8.13-.1-4.98-1.84-7.33-6.56-7.66-2.24-.15-2.08-1.07-2.22-2.46-.27-2.62-.59-5.23-.88-7.85-.11-.97-.1-2.08-1.18-2.47-1.52-.55-1.33.91-1.78,1.66-.65,1.1-1.55,2.03-2.75,2.46-2.41.87-3.81,2.68-4.89,4.86-.68,1.38-1.65,3.54-2.96,3.12-4.3-1.38-4.99,1.55-6.76,4.17-1.33,1.98-3.72,3.69-6.89,2.58-2.22-.78-3.76.69-4.55,2.65-.89,2.19-1.85,2.96-4.37,1.83-1.97-.88-5.52-1.92-3.04,2.78,1.02,1.94-1.24,3.01-1.19,4.96.09,3.46-2.22,1.35-3.74.97-.44-.11-1.01.37-1.54.53-4.75,1.46-8.12-.72-8.08-5.65.03-3.91-.99-6.15-5.36-5.79-2.25.19-1.36-1.66-1.25-2.65.24-2.09.79-4.16-1.27-5.72-.92-.7-1.89-1.48-.83-2.69.94-1.08,2.47-2.14,3.66-1.35,4.12,2.72,10.16,2.71,12.19,8.44.13.38.42.73.71,1.02,1.03,1.08-.61,4.56,1.62,3.52,1.79-.83,4.99-2.88,3.87-6.49-.83-2.65-1.57-5.33-.61-8.15.16-.48.17-1.42-.11-1.6-3.81-2.48-5.36-7.29-10.33-8.84-4.57-1.43-9.48.2-13.77-2.24-1.05-.6-2.66-.92-2.29-2.51.38-1.63,1.76-2.34,3.45-2.49,4.88-.41,4.91-.44,3.49-5.46-.45-1.61.8-2.21,1.57-3.11,1.9-2.22,1.48-4.48-.98-5.4-2.68-1-1.91-1.84-.84-3.47.97-1.48,1.17-3.25-.62-4.4-1.78-1.14-1.66-2.33-.42-3.71.75-.83.08-2.89,2.03-2.62,1.63.23.74,1.83,1.17,2.73.56,1.16,1.2,2.1,2.77,2.07,1.57-.02,1.73-1.06,2.05-2.15.27-.93.44-1.94.94-2.75,1.05-1.7,1.33-4.3.21-4.94-2.87-1.62-3.62-6.82-8.51-5.13-.91.32-2.35,2.05-3.14.09-.61-1.51.86-2.75,1.99-3.29,1.89-.89,2.8-1.5,2.61-4.1-.22-3.06,2.49-4.7,5.47-5.34.81-.17,1.74-.36,1.86-1.37.12-1.03-1.02-1.83-1.48-1.7-5.45,1.53-7.15-2.35-8.8-6.42-1.33,1.99.35,4.57-1.62,5.61-1.47.78-.9-1.7-2.36-2.18-.85,4.47-5.42,2.25-7.69,4.59-1.27-2.11.23-3.08,1.08-4.25,1.27-1.75,1.96-3.24-.6-4.73-1.77-1.04-3.02-2.76-2.76-5.2.16-1.47-.92-2.28-2.35-2.36-1.3-.07-1.56.78-1.51,1.93.15,3.31-3.04.07-3.95,1.95-.32.66-2.8-.97-3.06.89-.3,2.14,2.21,2.58,3.36,3.86,1.02,1.14,2.41.7,3.22-.46,1.45-2.07,2.86-3.04,4.9-.67.89,1.04,1.61,1.9.26,3.14-2.3,2.12-1.96,4.88-1.18,7.39,1.03,3.32.25,4.63-3.32,4.36-2.55-.19-2.59-.02-2.03,2.6.14.66-.07,1.08-.59,1.37-.35.2-.92.54-1.14.4-3.13-1.9-2.04,5.41-3.62,2.37-1.79-3.45-3.57-.51-5.13-1.34-.89-.47-3.33-.2-1.16,1.99.53.54.4,1.18-.19,1.25-1.07.14-2.23.13-3.26-.15-.48-.13-.76-1.03-1.13-1.58-1.1-1.67.05-4.17-2.04-5.47-.85,2.68-4.01,2.81-5.43,4.93-.98,1.46-2.27,2.72-3.42,4.07-3.74-3.31-4.83-8.43-8.88-11.27-.6-.42-.78-1.68-1.81-.86-.82.67-.52,1.47.25,2.09.74.61,1.4,1.38,2.23,1.81.96.49,2.44.55,2.1,2.05-.35,1.54-1.83,2.4-3.2,2.07-2.39-.58-4.89,1.21-7.23-.65-1.17-.93-2.07.46-2.63,1.3-.81,1.22.01,2.01,1.11,2.62.83.46,1.68.97,2.34,1.64.72.73.98,2.47.22,2.5-3.14.09-5.68,2.62-8.82,2.09-2.23-.38-1.08-1.9-.43-2.8,1.2-1.66,3.32-3.18-.26-4.5,2.27-3.17-1.96-5.31-1.31-8.15.53-2.31,2.74-.29,3.83-1.19.42-.62.23-1.23-.2-1.53-1.68-1.15-2.1-4.43-4.18-3.99-1.99.42-1.23,3.39-1.74,5.19-.67,2.34-1.68,3.81-4.35,3.24-1.07-.23-2.13-1.52-1.52-1.99,3.81-3.01.16-6.86,1.65-10-1.42-.66-2.72,1.85-3.78-.21-.85-1.63-1-3.21.81-4.37,1.85-1.19,1.26-3.22,1.75-4.88.43-1.45,1.03-3.58,2.66-.68.88,1.57,1.99,1.15,3.17.56.49-.25,1.06-.91,1.41-.8,6.24,1.96,3.91-1.07,2.31-3.82-.19-.33.25-1.45.29-1.45,2.81.41,3.55-4.04,7.29-2.55,4.12,1.64,6.23-3.02,9.28-4.8.65-.38.86-1.31,1.96-.89,4.17,1.6,3.88-1.54,3.53-3.79-.28-1.81-.74-3.56,1.19-4.26,3.52-1.29,4.7-3.94,4.85-7.38,2.26.16,2.89,2.49,4.7,2.8,1.49.26,3.03.6,4.35-.58.66-.59.81-2.62,2.24-1.12,1.14,1.19.85,2.57-.68,3.47-.7.41-1.61.53-2.05,1.89,3.36-1.36,6.5,1.61,9.79-.3.55-.32,1.23.5,1.54,1.15.36.77-.07,1.24-.67,1.72-2.19,1.73-3.15,4.02-1.87,6.57,1.27,2.53,3.44,3.9,6.51,3.39,1.29-.21,2.51.25,3.32,1.35,1.12,1.54,2.49,2.13,4.34,1.47.25-.09.55-.09.82-.07,1.65.11-.89,3.6,2.05,2.59,1.49-.52.5-2.76,2.05-3.37,2.38-.94.2-2.68.69-3.95.18-.48.34-.97.54-1.54,3.5,3.03,3.69,3.41,3.51,7.21,2.37-.92,3.78-2.41,4.19-4.72.52-2.93,1.51-5.19,4.88-5.92,2.59-.57,2.59-3.57,3.09-5.38.36-1.3-1.92-3.03-3.96-3.62-1.03-.3-3.2-.16-2.94-.53,1.18-1.68-.05-3.94,1.59-5.35.44-.38,1.97-.57,1.29-.93-3.34-1.76-.8-4.97-2.18-7.4-2.1-3.71.66-9.57,5.15-10.63,3.89-.92,5.09-4.24,7.75-6.16,5.68-4.11,6.91-4,9.57,2.35.15.36.43.68,1.26,1.95,0-6.47,4.51-11.65.5-17.58-.69-1.03,1.08-2.68-.68-4.72-2.36-2.73-2.84-6.86-7.9-3.22-1.49,1.07-4.99-3.12-4.83-5.52.06-.83-.04-1.69.12-2.49.32-1.62-1.1-4.03,1.37-4.67,2.41-.63,4.7.35,6.3,2.36.83,1.05,1.4,2.31,2.33,3.89,1.72-2.96,4.09-4.04,7.1-3.61.25.96-.16,1.62-.84,1.81-3.38.93-1.18,2.36-.03,2.76,3.03,1.05,4.37,3.78,6.04,5.94,1.73,2.22-.74,5.12-.33,7.78,1.66.18.85-2.1,2.55-2.05,1.6,1.57-.82,5.17,2.61,6.06.46.12.73.88,1.19,1.06.97.38,2.63-1.24,2.98.91.28,1.73-.14,3.53-1.72,4.4-2.71,1.49-1.27,2.79-.11,4.24.61.76,2.17,1.33.77,2.64-1.43,1.32-3.59,3.02-2.02,4.7,1.66,1.77,2.56-1.87,4.61-1.91.97,1.42.7,3.13.41,4.66-.37,1.88-1.33,3.33-3.31,1.21-.54-.58-.9-1.67-1.86-.85-.72.62-.28,1.54.1,2.3,1.39,2.74,4.4,4.12,6.65,4.97,2.84,1.07,2.12,2.14,1.62,3.9,1.29.2,2.1-1.61,3.43-.73,1.21.8,2.42,2.61,3.9,1.05,1.74-1.83,4.82-2.37,5.21-5.59.17-1.41.24-3.55,3.1-2.27,1.47.66,1.04-.84.74-1.79-.55-1.72.06-3.05,1.96-2.42,3.28,1.08,6.78,2.09,9.51,4.06,2.59,1.86,4.86,4.65,4.13,8.53-.15.78-.25,2.09.17,2.38,3.95,2.79,3.04,7.66,4.94,11.32,1.23,2.38.11,4.81-2.35,6.29,1.97,1.72,2.9,3.83,2.19,6.44-.31,1.14-1.4,1.2-2.35,1.4-.77.17-1.86.07-1.71,1.3.12.99.59,1.88,1.76,2.03,3.86.5,4.35,2.13,2.1,5.26-2.01,2.79-.17,7.03-3.27,9.54-.7.56-.52,3.04-2.48,1.03-.78-.8-.99.5-1.2,1-1.35,3.18-.44,4.49,3.32,5.7,1.96.64.56,2.03.17,3.04-.92,2.38-4.3,1.02-5.01,2.77-.55,1.35,3.01,2.98.45,5.33,2.65-1.94,6.65-2.03,6.48-6.61-.04-1.15,1.49-1.98,1.45-3.93-.04-1.62,3.41-.78,4.71.07,2.52,1.64,5.56,3.26,5,7.23-.11.82.56,1.98,1.32,1.88,4.35-.53,3.57,2.74,3.35,4.87-.33,3.24,3.3,3.98,3.63,7.03.24,2.22.65,2.88-1.73,2.14-3.92-1.22-3.9,1.49-3.61,3.84.19,1.58.34,2.67-1.34,3.34-1.63.64-1.32,2.13-.95,3.22,1.16,3.4-.88,3.95-3.45,4.46-1.77.35-2.58.19-1.66-1.73.49-1.02.64-2.1-.46-2.48-1.23-.42-1.77.82-1.68,1.76.26,2.88-2.4,3.73-4.04,5.93,4.69-2.53,5.53.28,6.07,3.53.02.13.06.3.16.38,4.97,4.02,5.81,10.17,8.25,15.53.81,1.78.43,3.14.25,4.75-.09.78.15,1.6.34,2.38.02.07.8.1,1.11-.06,1.08-.55,1.06-1.5.75-2.51-.08-.27-.14-.54-.22-.8-.51-1.71.05-2.99,1.56-3.88.84-.49,1.75-1.07,2.68-.29,1.25,1.05.68,2.47.79,3.83.42,5.34-1.92,10.52-.71,15.88.27,1.18-.15,2.32-1.3,2.81-2.62,1.11-3.14,3.75-4.43,5.82-.89,1.42-1.1,3.07.31,4.15,1.66,1.27,1.21-2.15,3.17-1.22.1,1.91.25,4.16.32,6.41.04,1.48-1.41,2.38-2.09,1.65-1.57-1.68-6.08-1.38-4.16-5.67.48-1.08-.29-2.16-.83-3.12-1.42-2.56-2.49-5.2-2.07-8.34-1.6.29-1.6,2.54-3.42,2.15-1.07-.23-1.15.61-.75,1.31,1.55,2.68,1.08,5.67,1.44,8.53.38,3,2.67,4.35,5.11,5.56,1.07.53,2.69.84,2.68,2.32-.02,2.15-1.79.24-2.48.82-1.69,1.44-2.72,3.47-1.82,5.49,1.48,3.28,3.55,6.29,1.04,9.95-.46.66-.2,1.41.65,1.6,1.78.4,1.84,1.56,1.19,2.83-.86,1.68-2.21.72-3.24.24-1.64-.77-3.09-1.29-4.11,1.53-1.27-3.24.3-4.42,2.37-5.42-1.36-1.23-2.55-2.3-4.06-3.66-.84,3.43-1.27,6.86-3.59,9.52-.45.52-.32,1.51.39,1.8,1.33.54,1.45-1.57,3.06-1.36-.18,2.54-.33,5.03-2.89,6.56-1.2.72-2.43,1.75-.72,2.74,4.02,2.32,1.67,4.05-.3,6.31"/>
        <path class="cls-2" d="M339.17,309.45c-.97-1.22-1.89-2.39-2.82-3.54-.99-1.22-1.78-2.24-3.62-.74-1.04.84-3.24,2.16-4.32.15-.86-1.58-1.93-3.77,1.08-5.17,2.19-1.02,1.49-2.49-.58-2.9-1.35-.27-2.75-.34-2.29-2.07.53-1.98-.09-4.66,2.88-5.47,1.65-.45,3.3-1.27,4.14,1.05.28.76.83.81,1.41,1.14,2.72,1.58,5.35,3.29,5.59,6.99.09,1.33.6,3.12,2.52,2.35,1.63-.65.99-1.96.13-3.07-.68-.88-1.54-1.96-.15-2.81,1.25-.76,2.08.39,2.78,1.19,2.42,2.79,7.14,2.97,8.14,7.6.27,1.23,2.94.97,4.18.19,2.38-1.48,3.66-.42,5.31,1.23,3.38,3.39,6.8,3.43,10.1.38,1.1,1.07.87,2.76,1.91,3.93,1.1,1.23.53,2.56-1.27,2.32-2.21-.29-2.15.99-2.76,2.51-.85,2.13-1.31,5.85-5.47,2.77-1.29-.95-3.88.32-5.34,1.53-1.87,1.54.81,1.72,1.16,2.66.57,1.5.65,3.03-.16,4.42-.88,1.5-2.25,1.23-3.68.81-2.72-.8-6.87,1.65-7.32,4.31-.08.44.27,1.35.51,1.39,3.52.51,6.31,4.72,10.43,2.08.11-.07.31-.19.38-.15,2.97,1.83,7.7.64,9.42,3.68,2.46,4.37,4.93,8.5,9.15,11.42.45-.4.64-1.25.48-2.05-.64-3.18.54-3.74,3.36-2.65,2.32.9,5.29-.6,7.27,1.97.35.45,1.37-.11,1.76-.71.77-1.18-.27-2.04-.99-2.34-2.07-.87-3.99-1.92-5.65-3.44-.87-.8-1.62-1.77-.63-2.85,1.02-1.12,2.18-1.01,3.18.23,1.13,1.4,2.11,2.94,4.2,4.08-.22-3.1,2.83-5.09,1.74-8.44-.39-1.19,1.61-1.65,2.54-2.43,2.5-2.11,4.68-4.3,1.4-7.52-1.48-1.46-.99-2.43.87-2.91,2.84-.74,5.51-1.69,7.53,1.94,1.17,2.1,1.73,3.16-.75,4.42-1.27.65-1.67,2.08-1.37,3.77,2.5-.43,3.57-2.6,5.24-3.92,1.67-1.32,3.06-1.8,3.18,1.1.17,3.9,3.97,4.74,6.01,7.01,1.62,1.79,3.9,2.79,2.16,5.7-.15.24.05.88.29,1.13,2.53,2.72.29,3.03-1.78,3.4,4.45,5.86,8.27,11.33,8.31,17.43-1.28.49-2.29-1.96-3.6-.46-2.44,2.8-6.25.84-9.08,2.5-.16.09-1.24-.39-2.17.47-1.29,1.19-3.58,1.27-4.55-.09-1.99-2.77-4.68-2.43-7.11-1.92-2.74.58-5.41-.27-8.08.28-1.3.27-2.68.5-2.54,2.12.11,1.24.04,2.97,2.06,3.03.88.03,1.88.11,1.63,1.22-.22.97-1.33.95-2.13.71-3.92-1.17-7.38.15-10.76,1.96-1.28-.87-.64-2.33-1.24-3.37-.55-.95-1.17-1.56-2.22-1.59-1.1-.03-1.81.76-2.28,1.58-.7,1.23.39,1.51,1.18,2.13,1.37,1.08.57,8.38-.88,9.4-1.03.73-1.69-.03-2.59-.41-2.03-.87-4.17-.38-5.39,1.34-.77,1.08-.16,2.89,1.23,3.58,1.72.85,3.89.24,5.21-.5,3.47-1.95,4.76,1.66,6.67,2.64,1.69.87-.7,2.5-2.29,3.1-.83.31-1.6.09-2.43-.04-1.17-.19-2.93-1.7-3.37.59-.37,1.91,1.22,3.2,2.88,3.52,2.02.39,5.31-.93,2.38,3.27-.66.94,1.08,2.94,1.99,4.34.86,1.32.71,1.35-1.27,1.9-1.07.3-1.37,1.39-1.39,2.28-.02,1.19,1.08,1.2,1.84.93,2.16-.76,3.57.06,5.12,1.59,2.59,2.55,3.75-.33,5.38-1.99,1.22,2,1.6,3.14-.99,4.51-3.32,1.76-6.01,4.27-4.88,8.91.52,2.13.38,4.6-2.87,4.93-1.6.16-2.47,1.12-2.63,2.73-.23,2.27-3.69,3.33-2.38,6.24.06.14-.5.6-.81.88-2.49,2.19-11.82,2.86-14.67.96-1.2-.81-2.33-.77-3.71-.9-6.16-.58-12.28-1.91-17.42-5.59-2.27-1.63-.51-4.78-1.77-7.72-2.67,6.57-9.1,7.68-13.98,10.82-2.25,1.45.03,4.31-2.96,5.22.26-2.99-1.23-5.4-1.98-8.04-.27-.93.63-2.8-1.07-2.44-1.13.24-3.26-.43-3.62,1.8-.14.88-.61,1.6-1.64,1.54-.99-.05-1.65-.79-1.52-1.64.66-4.23-1.54-4.65-5.02-4.39-1.88.14-3.82-.41-5.72.33-.86.34-1.96.96-2.44-.44-.47-1.39.03-2.62,1.55-2.85,2.51-.39,3.38-1.4,2.25-3.89-.46-1.02-.25-2.37.47-3.19,1.99-2.3,3.09-4.03-.89-5.57-1.51-.59-.31-2.09.66-2.98,1.67-1.53,3.16-3.09,2.55-5.73-.3-1.3-.49-3.04,1.52-3.23,1.82-.18,2.22,1.27,2.42,2.75.12.93-.15,1.98.99,2.98,1.57-2.78,3.97-3.22,6.83-2.29.98.32,1.94.18,2.4-1,.66-1.71,1.32-3.44.02-5.12-.92-1.18-2.41-2.21-.91-3.88,1.43-1.6,3.04-1.92,5.24-1.26,3.25.98,6.45.2,9.23-1.77,1.03-.73,1.93-1.62,3.29-1.55,1.04.06,2.43-.48,2.88.93.31.97-.45,1.81-1.14,2.53-2.57,2.7-2.32,4.51.94,6.5.57.35,1.48.41,1.13,1.36-.28.77-1.03.77-1.76.68-2.44-.27-4.79.32-6.77,1.57-1.4.88-4.36.98-3.82,3.08.57,2.2.46,4.96,3.56,6.36,3.87,1.75,4.64,6.53,7.78,9.07.42-.66.06-1.69-.44-2.63-2.95-5.58-2.24-9.53,2.39-13.7,2.83-2.55,5.65-4.77,5.56-9.49-.09-4.45,1.72-5.39,6.35-4.35,3.23.73,6.03-.27,8.93-1.13,1.94-.58,2.8-1.99,1.78-3.85-1.03-1.88-2.65-2.41-4.5-.92-.75.61-1.54,1.22-2.15,1.96-1.52,1.87-2.96,3.24-5.58,1.51-2.68-1.77-2.3-3.78-1.06-6.09.18-.33.22-.73.53-1.79-2.82,1.9-3.91,4.02-4.14,6.71-.08.94,0,2.22-1.21,2.37-1.36.17-1.82-1.05-2.08-2.17-.92-3.89-1.73-7.82-3.81-11.75-1.34,2.26.12,4.42-.6,6.32-.8,2.11-.88,4.04-4.42,1.8-3.59-2.27-7.82-6.77-12.95-2.05-.85.79-1.55.2-1.88-.7-1.19-3.21-3.16-3.25-5.82-1.69-2.05,1.2-3.1.77-2.59-1.95.4-2.14.38-4.36.55-6.61,7.2,2.81,13.11.09,15.65-7.01.98-2.74,2.63-3.7,5.42-2.32,2.8,1.38,6.19-.25,6.75-3.37.26-1.45.21-2.64,2.12-2.91,1.65-.24,1.53-1.41,1.19-2.86-1.6-6.75-1.41-13.35,1.8-19.72.88-1.75.98-3.91-.12-5.62-1.7-2.66-.43-3.76,1.93-4.51,1.45-.46,2.73-.77,2.73-2.9,0-2.33-1.59-2.46-2.99-2.67-3.31-.5-6.8-1.77-9.62,1.44-.53.6-1.38.3-1.84-.26-1.01-1.23-1.29-2.74-1.31-4.28-.02-1.02.73-1.37,1.65-1.5,1.11-.15,2.04,1.01,3.47.27"/>
        <path class="cls-2" d="M188.21,514.74c-2.72-3.37-3.03-5.75,1.52-6.86,1.85-.45.97-1.67-.06-2.3-1.06-.64-2.28-1.01-3.41-1.53-.96-.45-1.67-1.05-1.14-2.27.32-.74.44-1.78,1.01-2.15,1.11-.72,1.64.47,2.29,1.15.66.68,1.2,1.56,2.87,1.73-1.58-2.6-2.62-4.97-.7-7.74.95-1.37,1.01-2.97,3.36-2.41.65.15,2.98-.5,1.48-2.24-.82-.95-1.17-1.43-.18-2.29.76-.65,1.55-1.23,2.62-.74,1.73.81,3.3,2.1,5.39,1.86-.79,4.88,4.64,2.47,6.15,5.14.79,1.41,2.86,2.2,2.44,4.37,2.02.03,1.7-1.33,2.04-2.31.68-1.95,2.41-2.86,3.82-1.44,1.5,1.51,1.87.79,2.73-.32.78-1.02,1.95-.29,1.68.38-.9,2.2,2.15,3.97.43,6.11-.41.52-.25.64.45,1.04,3.2,1.83,7.04.62,10.28,2.42,1.34.75,1.88-1.26,2.8-1.99.77-.61,1.6-1.34,2.6-.91,1.09.47.11,1.49.28,2.12.69,2.62.8,5.45,2.55,7.72.72.93,1.1,2.06.29,3.07-.79.98-1.82.4-2.89.35-2.13-.1-4.33.68-6.46,1.23-.56.15-.69,1-.16,1.37,1.72,1.2,1.7,4.28,4.73,4.1,9.42-.57,17.72,6.18,17.66,15.33-.02,3.48-.12,5.82,2.75,8.18.44.36.82,4.44.63,6.69-.11,1.34-2.08.74-3.02-.26-3.11-3.31-5.08-7.32-6.38-11.59-.46-1.52-1.35-2.33-2.39-3.15-.76-.61-2.21.16-1.94.52,2.53,3.3-3.72,6.88.61,10.3-3.44-1.39-7.31.34-10.13-2.49-1.73-1.73-2.81-3.49.85-4.35-1.02-1.69-2.67-2.04-3.62-1.14-1.42,1.34-3.27,2.88-2.72,5.26.66,2.88-2.77,5.52-.46,8.48.01.02-.73.86-1.15.9s-1.25-.44-1.27-.75c-.58-7.2-7.4-3.22-10.53-5.84-.27-.23-1.35.21-1.83.61-.71.6-.24,1.22.34,1.72.7.61,1.89,1.3.72,2.27-1,.82-2.12.08-3-.64-4.23-3.47-9.9-.77-14.48-3.29-.78-.43-3.59,1.31-3.15,3.88.22,1.27.43,2.69-.87,3.35-1.36.69-2.29-.57-3.21-1.38-.86-.75-2.08-1.84-2.9-1.17-4.4,3.58-6-1.4-8.56-2.83-1.81-1.01-3.27-2.67-.47-5.18,2.73-2.44-1.6-3.52-1.89-5.87-1.68.97.16,4.93-3.38,3.38-.57-.25-1.06.53-.86,1.05,1.14,2.9-1.82,4.08-2.41,6.06-1.21,4.1-4.36,4.02-7.36,4.6-4.32.83-8.56-.09-12.67-1.19-3.71-.99-3.82-2.35-1.86-5.8.82-1.45.79-3.42.99-5.16.08-.72-.48-1.35-1.28-1.36-1.05,0-1.95.46-2.14,1.58-.16.93.21,1.94-.45,2.81-.72.94-1.64,1.6-2.82,1.46-1.53-.18-1.01-1.51-.93-2.33.29-3.14.04-6.27,1.84-9.28,1.8-3.02,3.45-2.81,5.55-.86,1.68,1.56,2.62,1.69,4.21-.41,2.15-2.83,6.43-2.62,8.8-.14.85.89,1.88,2.21,3.14,1.33,1.59-1.1.06-2.06-.62-3.04-1.3-1.88-.08-2.83,1.3-4.07,1.6-1.44,5.01-1.98,3.47-5.5-.09-.2.28-.78.55-.9.59-.26,1.12.06,1.32.65.66,1.91,1.34,2.01,2.6.34.59-.78,1.79-.45,2.7.06,1.31.74,3.7,2.12,3.96,1.57.81-1.72,2.92-3.25,2.81-4.62-.32-3.79,1.81-4.36,5.14-4.45"/>
        <path class="cls-2" d="M48.37,314.8c-1.34-1.15-.59-2.58-1.25-3.97-1.71,1.21-1.57,3.87-3.81,4.61-1.19-2.18-.36-4.17.14-6.33.31-1.34,2.01-4.51-2.34-3.41-2.02.51-1.17-1.39-.8-2.15,2.86-5.91,7.9-6.17,11.9-.77,1.81,2.45,3.39,5.35,7.04,5.46.79-2.37-3.54-2.23-1.99-3.94,1.96-2.16,4.61-4.52,7.28-4.98,2.95-.51,5.25-1.9,7.53-3.25,2.49-1.48,3.8-.82,5.14,1.19,1.16,1.76,1.97,3.19,4.76,3.66,3.16.54,2.14,4.92,3.32,7.48,1.07,2.35-1.54,1.08-2.13,1.8-1.27,1.54-1.46,3.7-.07,4.77,3.53,2.71,4.91,7.12,8.51,9.83,1.92,1.45.67,4.03-.96,5.35-1.81,1.46-2.28,2.98-1.72,5.06.2.76.8,1.84-.45,2.03-3.05.46-3.09,2.68-3.26,4.94-.05.68-.16.64-1.81.35-1.44-.26-1.16,1.03-1.48,1.77-.33.76-.61,1.69-1.68,1.41-.8-.21-.69-1.08-.86-1.73-1.19-4.38-4.67-7.05-9.05-6.93-.7.02-1.48.18-1.82-.56-.37-.83.23-1.29.96-1.49,1.71-.46.58-.91.05-1.47-.83-.85-1.44-2-2.93-1.73.44-4.63-4.37-6.22-5.7-9.84-.6-1.62.65-1.85,1.63-2.29,1.55-.7,1.86-1.93.58-2.88-1.91-1.42-3.98-3.04-6.2-3.47-1.96-.38-4.15,1.81-6.17-.96-.56-.77-.83,2.1-2.35,2.43"/>
        <path class="cls-2" d="M432.43,429.26c-2.77-3.44-6.8-5.14-3.86-10.12,1.21-2.05-.14-4.41-3.06-4.51-1.54-.05-2.5-.35-2.25-2.06.78-5.22-2.3-9.3-4.38-13.52-1.35-2.75-3.03-4.91-2.47-8.36.32-1.94-1.02-4.22-3.45-5.17-1.17-.45-2.23-1.31-1.9-2.84.27-1.22.99-1.9,2.39-1.72,2.14.29,1.55-1.14,1.57-2.41.05-4.06,2.28-5.13,5.96-3.5,3.13,1.39,6.56,1.44,9.92.47,1.12-.32,2.52-1.74,3.31-.33.81,1.46,2.04,3.22,1.45,4.99-1.48,4.39-1.93,10.65-.65,14.33.3.87,1.04,1.37,1.91,1.36,5.69-.06,3.15,4.02,3.17,6.56.02,2.89-1.77,4.29-4.68,3.7-3.47-.7-3.97,2.35-5.48,4.12-1.45,1.69-.45,3.05.68,4.4.62.75,1.55,1.93,1.02,2.56-3.19,3.75-.88,6.72,1.05,9.82.16.26-.07.77-.25,2.24"/>
        <path class="cls-2" d="M479.58,492.6c-1.72-.54-3.65-.72-5.08-1.66-3.78-2.48-10-1.1-11.76,3.07-.51,1.21-.51,2.41-2.23,2.28-1.86-.13-2.06-1.56-2.37-2.92-.5-2.18-.67-4.36,0-6.55.28-.91.65-1.93.5-2.82-.59-3.39-.67-3.38,3.02-2.73.68.12,1.44.08,2.04.39,6.26,3.18,9.08-1.58,12.43-5.27,1.72-1.89-1.24-3.67.02-5.46,1.56-2.2.08-2.95-1.57-4.1-1.14-.8-1.8-2.42-2.39-3.8-1.16-2.7,1.22-3.37,2.84-4.18,1.79-.9,2.93-.01,3.16,1.94.2,1.67,1.2,2.62,2.78,2.44,4.22-.46,7.59,2.34,11.55,2.85,2.1.27,3.4,1.34,1.91,3.7-.61.96-1.22,1.81.45,2.62,3.25,1.58,2.72,4.23,1.1,6.52-2.58,3.64-5.93,6.86-9.71,8.94-1.97,1.09-4.13,1.02-4.43,3.89-.04.35-1.42.56-2.25.86"/>
        <path class="cls-2" d="M74.93,275.64c.93-1.32-2.62-3.05.26-4.07,2.61-.92,5.46-1.81,8.02-.25,1.26.77.21,1.76-.95,1.73-2.06-.05-2.52.22-2.44,2.74.11,3.91-1.12,7.86-1.84,11.78-.18.98-1.18,2.4-1.77,1.8-2.87-2.89-6.92,3.9-8.69-.81-1.44-3.82-4.25-5.98-6.8-8.61-.29-.3-.57-.63-.92-.84-3.42-2.09.32-3.61.32-5.33,0-2.56-4.6-.26-4.54-3.45.04-1.92,1.68-1.44,2.85-1.43,2.3.01,4.9.4,3.49-3.39,5.17-5.12-2.36-7.88-2.38-12.17,0-1.75-.2-3.05,1.03-4.4,4.02-4.43,10.33-3.96,13.56,1.02.57.87.45,1.46-.22,2.17-2.44,2.61-2.38,5.75-1.4,8.82.54,1.69-.03,2.82-1.1,3.64-1.72,1.33-2.66,2.66-2.81,5.06-.2,3.19-3.01.04-4.38,1.28.54,1.43.57,3.19,2.26,4.09.69.37,1.65,1.35,2.16.41,2.34-4.3,4.24-.43,6.32.2"/>
        <path class="cls-2" d="M199.39,398.11c-1.05-3.46-2.54-5.73-6.31-2.52-.66.56-1.61.36-2.34-.15-.48-.34-.86-.98-.42-1.42,3.05-3.06.23-5.93-.85-8.22-2.03-4.27-.58-7.28,2.15-10.06,1.99-2.03,3.28-4.39,4.25-6.92.42-1.1.43-2.25,1.97-1.99,1.07.18,2.37.28,2.86,1.4.55,1.27-.51,2-1.4,2.7-.74.59-1.46,1.21-2.91,2.43,6.64,1.37,10.84,7.85,18.1,5.35.55-.19,1.48,0,1.93.38,1.98,1.61,3.2,1.75,3.44-1.28.08-1.04.74-1.99,1.94-1.51,1.14.45,2.76,1.93,1.89,2.66-3.16,2.65-1.55,4.89-.08,7.38.24.41.03,1.07.03,1.28-4.58-.92-8.75.6-13.08,1.05-6.43.68-8.39,4.39-10.05,9.3-.38.05-.75.11-1.12.16"/>
        <path class="cls-2" d="M69.4,546.99c-3.32-1.05-6.34-1.89-9.52-1.93-1.33-.02-2.28-.27-1.36-1.96.78-1.43-.36-2.16-1.2-3.12-1.48-1.69-1.68-5.04-5.4-1.66-1.65,1.5-5.1-1.2-6.21-3.59-1.85-3.98-3.68-8.07-4.41-12.47-.23-1.36-.99-2.95,2.1-2.34,2.2.43,5.29-.56,7.09-2.02,2.51-2.03,3.59-.59,5.53.54,5.05,2.95,6.91,8.56,10.84,12.42.59.58.67,1.54,1.82,1.8,2.33.52,1.87,1.98.87,3.42-.39.56-.88,1.09-1.42,1.51-2.68,2.07-4.31,4.03.1,6.03,1.15.52,1.24,1.73,1.18,3.36"/>
        <path class="cls-2" d="M366.33,194.23c.68-2.15.5-3.85,3.16-4.68,2.41-.75,4.37-3.22,6.29-5.16,4.96-4.99,11.39-3.92,17.43-4.34.85-.06,2.47.67,1.59,2.19-1.55,2.66-.67,5.32-.37,8,.37,3.39-.97,4.02-4.39,4.5-2.26.32-5.5-1.19-6.37.45-1.05,1.98-2.99,4.02-2.58,6.73.12.78.07,1.66-.16,2.41-.23.72-1.02.86-1.75.79-.64-.06-.98-.42-1.04-1.06-.45-5.6-4.9-5.88-8.9-6.42-2.6-.35-2.29-2.26-2.92-3.41"/>
        <path class="cls-2" d="M169.9,558.35c.94.06,2.17.79,2.78-.1,2.32-3.45,3.75-.42,5.03.79,2.87,2.72,3.02,7.86.64,10.98q-2.55,3.34,1.16,4.84c.62.25.73.79.73,1.34,0,.91-.35,1.67-1.33,1.84-2.02.37-4,.19-5.25-1.62-1.33-1.93-2.17-1.81-3.78-.13-1.86,1.95-10.39.19-12.62-2.29-1.93-2.14-2-8.97.73-9.78,3.93-1.18,7.13-2.45,9.49-5.82.27-.39,1.59-.05,2.42-.05"/>
        <path class="cls-2" d="M165.71,349.67c-.16-2.93,2.79-5.04,1.58-8.45-.49-1.37.95-3.11,2.21-4.24.52-.47,1.58-.41,1.84.26.6,1.52,2.12,2.53,1.34,4.8-1.16,3.37,2.24,2.8,3.68,2.69,4.92-.38,6.47,3.17,8.79,6.31,1.8,2.43-.48,3.6-1.06,5-.55,1.31-2.42.07-3.72-.33-1.3-.4-3.39-2.77-3.6-1.22-.37,2.76-6.69,3.05-2.8,7.14.73.77.49,1.82-.24,2.65-.76.86-1.58.46-2.56.43-4.09-.12-4.87-1.87-3.3-5.39.41-.93.85-2.28-.24-3.06-1.11-.8-2.03.11-2.91.83-1.37,1.13-2.86,2.11-4.22,3.26-.64.54-.84,2.14-2.05,1-.73-.69-.57-1.8.09-2.68,2.23-3.03,3.81-5.99,1.22-9.79-.97-1.42.29-3.13,1.89-3.54,1.71-.44,2.46.75,2.4,2.47-.03.87.27,1.64,1.68,1.86"/>
        <path class="cls-2" d="M520.16,179.72c-2.67,2.67-5.32,3.44-7.65,1.03-2.59-2.67.91-4.64,1.93-6.38,1.26-2.15,2.39,1.18,4.39,1.25-.94-.67,2.96-2.54-1.28-2.59-1.38-.01-.59-1.66-.26-2.39,1.39-3.06,2.18-6.18,2.1-9.58-.05-2.35,1.47-1.98,2.77-1.01,2.8,2.07,4.34,4.98,5.1,8.31.92,4.03,1.58,8.11,3.74,11.8,1.17,1.99.7,4.02-1.24,5.53-.76.59-1.58,1.15-1.81,2.18-.21.98,1.37,2.37-.21,2.87-1.46.47-2.35-1.14-3.33-2.04-2.5-2.31-5.84-4.21-4.24-8.98"/>
        <path class="cls-2" d="M278.44,464.81c1.81-.47,3.88-.71,4.48-3.27.43-1.85,1.3-1.5,3-1.23,4.1.65,5.59,3.16,6.28,6.68.23,1.19.85,1.61,2.04,1.46,2.86-.35,2.48,2,2.23,3.35-.41,2.25-2,.59-2.88.26-1.99-.73-3.34-1.14-3.42,1.84-.03,1.16-6.73,1.73-8.08.32-1.13-1.19-1.68-1.3-2.44-.1-1.41,2.21-4.82,2.32-5.46,5.37-.14.67-.98.92-1.75.62-.91-.35-1.18-1.14-1.25-1.99-.19-2.19-.18-4.34-2.54-5.71-.98-.57-.98-2.36.17-2.84,3.03-1.28,6.45-1.81,7.97-5.38.24-.58.96.08,1.64.61"/>
        <path class="cls-2" d="M75.36,383.31c.54.13,1.34.33,2.15.51,2.2.49,3.78.09,4.1-2.55.31-2.6,1.34-3.83,4.44-3.22,1.71.34,4.39,1.06,5.59-1.78.15-.36,1.59-.46,2.3-.25,2.12.62,4.95,8.52,3.85,10.49-.4.72-1.16,1.95-1.68,1.55-4.16-3.19-5.27,2.61-8.3,2.71-.85.03-1.29.9-1.17,1.89.16,1.31.87,3.35-1.01,3.39-2.09.05-4.2-1.03-6.29-1.67-.17-.05-.37-.53-.3-.7,1.98-4.85-2.03-4.6-4.67-5.44-1.58-.5-2.91-1.14-2.53-3.11.35-1.79,1.8-1.85,3.52-1.83"/>
        <path class="cls-2" d="M302.05,17.94c-1.2-.93-2.34-.61-3.41-.64-4.05-.1-7.53-4.12-7.04-8.15.25-2.02,5.62-5.24,7.54-4.37,1.12.51,2.07,1.01,3.42,1.07,2.74.12,6.64-.43,4.74,4.64-.09.24-.01.78.05.79,4.99.79,3.5,6.29,6.3,8.66.59.5,1.79.58,1.61,1.63-.2,1.14-1.37,1.42-2.28,1.39-3.65-.1-7.48,2.2-10.88-1.54-1.44-1.58-1.79-2.28-.06-3.48"/>
        <path class="cls-2" d="M462.83,377.84c-1.38.63-2.61,1.16-3.81,1.76-1.82.9-3.77,1.71-5.15-.43-1.3-2.01-2.79-4-.53-6.68,1.58-1.87,1.63-4.66,5.59-3.25,2.1.75,5.12-1.17,7.05,1.58.77,1.1,1.98.77,3.01,1.05,1.94.52,5.82,6.6,5.41,8.47-.36,1.65-7.13,5.75-8.71,5.22-1.69-.56-2.34-2-2.26-3.57.07-1.43-.21-2.7-.61-4.14"/>
        <path class="cls-2" d="M473.01,417.29c1.24.29.6,3.55,3.1,1.94,1.67-1.07,2.05-2.28,1.5-4.2-.78-2.71.15-4.84,3.18-5.23,1.51-.19,2.04-1.13,2.84-2.09,1.23-1.46,2.76-2.51,4.67-1.13,1.84,1.33.96,2.65.1,4.28-1.34,2.53-1.7,5.5-3.36,7.95-.81,1.2.35,1.94.95,2.86,1.19,1.8,1.16,4.04-.43,5.26-1.73,1.32-4.13,1.73-5.97-.33-.93-1.04-1.57-1.58-3.34-1.5-3.75.16-5.16-3.64-3.23-7.82"/>
        <path class="cls-2" d="M101.71,314.7c2.45,1.78,1.63,6.26,5.96,5.95.26-.02-.39,2.73-1.54,3.8-1.24,1.15-2.62,1.78-3.88.07-.57-.77-1.07-1.67-1.32-2.58-1.1-4.08-2.26-8.02-6.84-9.7-1.02-.38-1.57-1.55-.67-3.15,1.55,1.43,2.95,3.04,5.1,3.49.93.19,1.71.14,2.17-.67.53-.92-.44-1.03-.92-1.46-.87-.77-2.73-1.6-1.71-2.79,1.1-1.29,2.05-3.71,4.49-2.97,4.43,1.35,4.81-1.6,4.56-4.49-.18-2.08.75-1.99,2.07-2.03,2.67-.08,4.88,1.2,5.48,3.57.49,1.94-1.14,3.36-3.28,4.11-2.95,1.03-4,3.44-2.77,6.29,1.35,3.12-.12,3.07-2.34,2.45-1.36-.38-2.68-.69-4.54.1"/>
        <path class="cls-2" d="M310.48,330.69c-1.33.23-3.13-1.55-3.96.74-.71,1.96-.45,3.41,1.75,4.79,3.24,2.02,2.59,3.71-.33,5.98-2.17,1.68-5.05,3.1-5.77,6.26-.25,1.08-.27,2.36-1.84,2.28-1.24-.06-2.16-.88-2.43-1.99-.79-3.15-1.53-6.23-2.88-9.28-1.21-2.76,2.64-3.33,4.2-4.89,1.91-1.9,2.2,1.32,3.9,1.36.35-2.6,1.87-4.99-.04-7.72-.82-1.18-.2-2.09,1.49-1.83,2.75.43,5.19,1.18,5.87,4.36l.05-.04Z"/>
        <path class="cls-2" d="M163.32,238.68c-1.25,2.69-2.18,5.63-4.27,7.92-.77.84-1.71.25-2.67-.08-4.57-1.55-7.83-5.04-11.68-7.66-.83-.56-1.54-2.13-.49-2.19,2.64-.16,3.06-2.58,4.7-3.67,2.73-1.82,7.66-1.97,9.1.78,1.31,2.5,4.73,1.96,5.3,4.9"/>
        <path class="cls-2" d="M473.97,435.57c-1.5,3.09-.89,6.94-3.49,9.33-1.74,1.59-2.04,2.95-1.43,5.07,1.12,3.92-1.83,7.42-5.82,7.15-.81-.05-1.37-.34-1.16-1.26.89-3.88-1.95-3.56-4.2-3.54-1.3.01-2.88,1.23-3.58-.63-.76-2.02.88-3.35,2.41-3.77,5.16-1.41,7.26-7.34,12.84-8.29,1.49-.26,3.39-2.05,4.44-4.06"/>
        <path class="cls-2" d="M62.62,286.45c-2.89,1.33-4.02,2.69-3.03,5.99,1.01,3.39-2.79,3.68-4.77,4.39-2.51.89-4.65-.73-5.38-3.26-.64-2.21-.74-4.41-2.61-6.26-1.4-1.38.63-3.01,1.12-4.47.4-1.22,1.61-.29,2.45.11.49.23,1.3.72,1.47.57,5.08-4.74,7.05,2.09,10.77,2.94"/>
        <path class="cls-2" d="M260.18,369.48c-4.88-1.91-4.63-7.47-8.01-10.2-.15-.12.23-1.02.49-1.48,1.3-2.32,2-4.6-.39-7.03,2.66.61,5.5.07,6.46,3.29.26.87,1.04,1.45,1.89,1.33,1.5-.22,3.16-.92,3.95.96.95,2.27,1.86,4.62,2.3,7.02.31,1.72-.92,2.66-2.62,1.7-1.41-.8-2.61-2.46-4.38-1.13-2.39,1.78,1.04,3.33.32,5.56"/>
        <path class="cls-2" d="M218.31,322.63c1.25,1.08,3.8-.93,3.49,1.14-.25,1.69-2.71,2.87-4.61,3.63-1.53.61-2.33.37-1.82-1.71.36-1.46-1.12-.75-1.74-.73-2.47.08-4.58-.69-6.78-2.67,3.1-.26,2.47-2.43,2.7-4.22.51-4.05,4.07-6.79,7.22-5.64,4.47,1.64,5.19,6.07,1.53,10.2"/>
        <path class="cls-2" d="M102.88,485.02c3.85-.06,10.69,4.92,10.44,7.91-.23,2.76-1.93,4.54-4.95,4.54-5.43,0-9.52-3.8-9.59-8.84-.03-2.18,1.55-3.57,4.1-3.61"/>
        <path class="cls-2" d="M444.41,420.53c-1.9-.89-4.04-.71-6.39-.52-2.16.17-2.62-2.48-1.89-4.52.71-1.97,1.62-5.48,3.93-3.99,2.74,1.76,4.93,1.29,7.5.95.13-.02.29-.02.41.04,2.08,1.01,6.14-.37,6.04,2.69-.07,2.03-3.03,4.35-6.04,4.76-1.09.15-2.18.36-3.57.59"/>
        <path class="cls-2" d="M80.68,422.55c2.09-3.43,3.74.78,5.82.19,1.08-.3,1.82.7,1.83,1.77.01,1.6-1.52,2.23-2.43,3.2-.98,1.05-1.67.05-2.28-.74-.41-.54-1.14-1.54-1.29-1.47-4.59,2.24-5.76-2-8.08-4.12-.67-.61-1.45-1.67-.78-1.9,3.84-1.31,5.71-4.74,8.43-7.23.6-.55,2.24-.41,1.92.31-1.48,3.22,4.09,3.77,2.37,6.45-.75,1.18-2.18-.52-3.15-1.12-1.99-1.21-3.12.56-4.39,1.28-1.17.66-.13,1.69.54,2.37.37.37.88.59,1.5,1"/>
        <path class="cls-2" d="M472.22,296.15c.62,4.62-4.59,2.35-6.76,4.1-1.56,1.26-2.64-.7-2.38-2.8.11-.91-1.21-.97-1.93-1.29-1.37-.62-3.38-1-2.6-2.98.61-1.55,1.52-3.55,3.5-3.77,1.55-.17,3.44.02,3.82,2.27.42,2.47,1.91,2.44,3.64,1.43,3.15-1.84,2.72.42,2.71,3.04"/>
        <path class="cls-2" d="M160.71,301.62c2.23.81,5.07,1.62,5.49,4.86.31,2.4-4.42,6.2-7.07,5.75-1.81-.31-3.93-.69-3.73-3.43.38-5.15,1.89-7.4,5.32-7.18"/>
        <path class="cls-2" d="M289.55,358.03c.06,2.01-.21,3.01-1.83,3.4-1.58.38-1.44,1.89-1.28,3.12.19,1.45,1.27,1.13,2.24.92,1.32-.29,1.67.64,1.98,1.6.22.68.39,1.4-.28,1.9-1.16.87-1.65-.45-2.46-.81-1.61-.71-3.15-1.56-5.08-1.34-2.81.31-3.89-1.97-3.67-3.91.18-1.65-.16-4.79,3.45-4.38,1.48.17,3.08-.15,4.3-1.21,2.09-1.82,2.53-.57,2.62.7"/>
        <path class="cls-2" d="M457.49,400.82c.32,2.72-1.52,2.92-3.16,3.01-2.99.18-7.44-2.82-7.43-4.83,0-1.03,4.91-6.04,5.96-6.09,1.66-.08,4.65,5.18,4.62,7.9"/>
        <path class="cls-2" d="M199.39,398.11c.37-.05.75-.1,1.12-.16,1.09-.5,1.39-1.7,2.15-2.44,1.32-1.29,2.68-5.05,4.57-.38.05.11.2.22.32.24,2.4.44,4.81,1.36,3.16,4.23-1.44,2.5-3.92.69-5.99.11-1.22,1.75,2.59,3.58.42,4.56-2.36,1.07-4.21-1.44-6.07-2.77-1.76-1.26-.64-2.34.33-3.39"/>
        <path class="cls-2" d="M264.98,3.11c3.48-2.33,7.68-3.91,9.89-2.69,3.48,1.92,7.23,1.25,10.48,2.89.9.46,2.51.47,2.17,2.03-.44,2.03-2.51.32-3.49,1.29-2.91-3.34-6.6-1.07-9.82-1.06-3.22.01-5.92-.68-9.23-2.46"/>
        <path class="cls-2" d="M90.4,574.46c2.41.03,9.1,7.08,9.01,9.47-.07,1.7-.91,2.5-2.64,2.36-3.09-.26-8.42-6.2-8.26-9.25.07-1.26.1-2.57,1.89-2.57"/>
        <path class="cls-2" d="M19.32,398.31c-1.07,2.31.32,4.18,1.35,6.13.36.68,1.21,1.45.42,2.21-.8.78-1.6.01-2.12-.56-2.71-2.94-7.37-4.18-7.77-9.16-.14-1.8-.13-3.6,1.46-4.41,1.71-.87,2.3.8,2.83,2.13.34.85,1.11,1.28,1.99,1.24,1.77-.08,2.22.78,1.85,2.42"/>
        <path class="cls-2" d="M261.25,586.41c-1.03,1.59.76,2.45-.08,3.66-.31,0-.74.12-1.06-.02-4.68-1.99-3.86-5.96-3.3-9.69.25-1.67,1.96-1.19,3.11-1.26,1.37-.08,2.96-.23,2.95,1.89,0,1.79.64,3.11,2.11,4.25,1.28.99,2.86,2.62,1.22,4.11-1.48,1.34-2.61-.7-3.73-1.58-.41-.32-.71-.78-1.23-1.37"/>
        <path class="cls-2" d="M310.43,330.73c1.99-.68,3.82-1.68,4.85-3.54.57-1.02.32-2.85,2.04-2.52,1.27.24,2.18,2.14,1.87,2.94-.92,2.39,2.19,4.85-.37,7.09-1.12.98-2.59,3.14-3.53,1.96-1.58-1.99-6.45-1.52-4.82-5.97,0,0-.05.04-.05.04"/>
        <path class="cls-2" d="M474.44,399.9c-1.16-.34-2.33-.73-3.54-1.02-2.17-.51-6.03-.27-5.47-2.8.53-2.43,3.45-4.92,6.7-5.47,1.45-.24,3.13.24,3.08,1.94-.05,1.98-.05,3.67,1.09,5.48.91,1.45-.68,1.7-1.85,1.87"/>
        <path class="cls-2" d="M251.01,62.88c-.48,2.29-1.88,3.61-3.32,4.9-2.2,1.98-3.25.03-4.71-1.21-.97-.82-3.41.23-3.23-2.18.17-2.31,2.07-3.18,4.01-3.56,2-.39,4.03-2.52,6.09-.28.61.66.85,1.67,1.17,2.33"/>
        <path class="cls-2" d="M268.02,341.08c.43-1.42-.25-1.8-.69-2.31-.75-.87-1.57-1.97-.38-2.86,1.46-1.09,2.45-.03,2.62,1.37.2,1.67,3.88,1.78,1.88,4.24-1.78,2.2-4.52,2.33-6.88,2.07-2.26-.26-4.4-1.61-6.23-3.17-1.41-1.21-1.02-2.54.06-3.61,1.28-1.27,1.85-.08,2.44.92.84,1.42,2.49,1,3.72,1.55,1.11.49,2.15,1.12,3.45,1.8"/>
        <path class="cls-2" d="M332.67,188.12c-3.38.27-5.12-1.69-5.37-4.82-.19-2.33,1.51-3.37,3.75-3.49,2.97-.15,5.25,2.03,5.38,5.05.12,2.66-1.39,3.35-3.76,3.26"/>
      </g>
      <g>
        <path class="cls-1" d="M591.93,288.98c-.79-1.94-2.37-3.36-4.45-4-1.58-.49-2.22-1.23-3.12-2.83-.99-1.73-1.28-2.71-.5-4.25,1.26-2.5-1.04-4.06-1.8-4.57-1.53-1.04-2.94-.79-4.19.75-.25.31-.78.44-1.3.57-.47.12-.91.23-1.28.49-.1.07-.54-.03-.81-.1-.61-.15-1.44-.35-2.19.13-.54.34-.89.93-1.07,1.8-1.85,8.73-7.79,19.45-25.64,21.01-10.57.92-21.38.79-31.82.66-5.87-.07-11.94-.15-17.92-.04-.51.02-.86-.06-1.01-.21-.11-.11-.25-.42-.25-1.26.03-22.9.03-40.51,0-57.09,0-.84.15-1.16.27-1.29.17-.17.61-.25,1.23-.23,2.58.07,5.2.06,7.73.04,1.07,0,2.14-.01,3.21-.01h7.16c7.17,0,14.33,0,21.5,0h.46c.99.02,2.12.05,2.76-.85.63-.89.29-2.11-.01-2.91-.14-1.07,3.19-5.65,4.45-6.12.79-.3,2.89-1.09,2.81-3.57-.02-.57-.24-1.09-.44-1.55-.11-.25-.3-.71-.28-.84,0,0,.05-.08.28-.19.3-.15.43-.16,1.2.66.4.42.86.9,1.47,1.18.2.09.39.2.68.36.19.11.43.24.73.41l2.54,1.38-1.14-2.65c-.4-.93-.24-1.02.65-1.56.71-.43,1.78-1.07,1.88-2.47,0-.07.01-.13.02-.19.05.09.1.19.16.3.51,1.06,1.28,1.32,1.69,1.39.68.1,1.38-.16,1.88-.7.31-.33.46-.75.44-1.2-.04-.89-.75-1.65-1.17-2.02-.73-.65-1.82-.84-2.58-.93-.58-.07-1.15-.14-1.73-.21-2-.25-4.06-.5-6.12-.51-11.33-.03-22.67-.04-34-.04-13.28,0-26.55-.02-39.83-.06-.85-.02-1.99.09-2.73.83-.74.74-.84,1.8-.84,2.84.04,22.47.04,44.93.04,67.4v24.01s0,.39,0,.39c-.02,1.33-.03,2.37.9,2.65.81.24,1.32.57,1.52.97.32.64-.07,1.68-.42,2.6-.24.65-.47,1.26-.51,1.84-.03.42-.06.8-.09,1.14-.28,3.42,0,4.18,3.87,5.15.86.21,1.53.7,1.92,1.35-.43.07-1,.24-1.31.81-.58,1.04-.68,1.85-.3,2.41.43.63.68,1.37.95,2.15.42,1.25.9,2.67,2.2,3.85.42.38.78.76,1.06,1.11l-.75.5c-.24.16-.48.32-.71.48-2.11,1.45-3.11,2.03-4.56.41-.3-.33-.7-.5-1.14-.46-.63.06-1.2.53-1.79,1.49-.79,1.27-.85,2.62-.85,3.79v6.63c.03,12.86.05,26.15-.04,39.22,0,.93.09,2.11.87,2.88.77.76,1.91.84,3,.82,5.48-.12,11.38-.2,17.38.02.17,0,.34.01.52.01,1.08,0,2.21-.16,2.99-.91.91-.88,1.03-2.27,1.02-3.51-.06-10.94-.06-22.07-.07-32.84,0-10.81,0-21.99-.07-32.99,0-1.15.15-1.86.47-2.18.32-.32.99-.45,2.23-.45,11.02.1,22.22.08,33.05.06h7.46c6.22-.02,12.87-.21,19.41-1.52,16.33-3.27,27.55-10.87,34.3-23.23,1.12-2.05,1.29-4.38.47-6.4ZM476.52,312.67c.08-.54.48-.74,1.72-1.1.35-.1.71-.21,1.06-.34.03.04.06.09.09.15-.3.37-.5.79-.66,1.15-.4.86-.49.89-.78.87-.43-.03-1.12-.3-1.37-.62-.06-.08-.06-.11-.06-.12ZM479.13,340.36c.15-.52.31-1.11.4-1.76v-.09c.1.27.14.54.13.79-.02.49-.24.99-.66,1.52.04-.14.08-.29.13-.46Z"/>
        <path class="cls-1" d="M293.81,376.33c.06.02.22.11.33.17.43.25,1.09.62,1.84.36.51-.17.91-.59,1.19-1.25.76-1.8.7-3.52-.17-4.83-.86-1.29-2.38-2-4.28-2h-76.96c-1.87,0-3.75,0-5.62-.02-4.7-.02-9.56-.03-14.34.06-.97.01-1.33-.13-1.46-.27-.2-.19-.3-.72-.29-1.56.08-17.92.08-35.83,0-53.24,0-.77.1-1.29.31-1.49.21-.2.73-.3,1.55-.28,4.09.08,8.23.07,12.25.05,1.64,0,3.27-.01,4.91-.01h15.57c17.16-.01,34.9-.02,52.35.06,1.18.03,2.55-.11,3.41-1.01.86-.89.91-2.25.86-3.33-.21-4.67-.21-9.24,0-13.6.06-1.21,0-2.58-.87-3.49-.89-.93-2.31-1.04-3.54-1.04-15.37.1-30.99.08-46.11.07-7.12,0-14.24,0-21.36-.03-5.56-.03-11.32-.06-16.98.1-1.12.04-1.82-.11-2.1-.42-.27-.29-.35-.96-.23-1.99.12-1.11.09-2.21.06-3.28-.02-.82-.04-1.6,0-2.37.04-.72.11-2.05-.8-2.72-.82-.61-1.93-.3-2.69-.02-.31.12-.57.14-.7.07-.15-.08-.29-.38-.36-.78-.2-1.06-1.13-1.82-1.95-2.49-.14-.12-.28-.23-.41-.34-.95-.81-1.79-1.05-2.51-.72-.7.32-1.05,1.08-1.05,2.25,0,.52-.08,1.06-.17,1.63-.2,1.24-.42,2.65.24,4.13.44.97,0,1.52-1.17,2.63-.16.15-.32.3-.47.45-.56.56-1.32,1.03-2.13,1.53-2.15,1.32-5.1,3.11-3.38,7.61-.04.16-.19.47-.29.67-.06.13-.13.26-.18.38l-.08.17c-.2.41-.59,1.21.17,2.12-.81-.41-1.66-.68-2.49-.93-.98-.29-1.91-.57-2.71-1.09l-.52-.34-.53.31s-.1.05-.15.07c-.27.12-.71.31-.92.8-.8,1.92-.83,3.93-.1,5.82.25.63.92,1.01,1.79,1.02-.13.04-.26.08-.41.14-.89.42-1.64,1.33-1.83,2.23-.13.62,0,1.19.39,1.62.49.56.38.94.06,1.8-.22.58-.46,1.23-.37,1.98.14,1.17.03,2.4-.09,3.69-.24,2.57-.51,5.48,1.53,8.11-.03.08-.11.25-.31.48-1.23,1.41-1.21,3-1.21,4.39v14.31c.01,14.91.02,30.33-.05,45.5,0,1.57.16,2.8,1.02,3.65.72.72,1.8,1.04,3.51,1.04h.04c31.74-.09,64.01-.08,95.22-.08h24.73c.29,0,.57,0,.86,0,.43,0,.87-.01,1.3,0,.74,0,1.29-.18,1.7-.59.58-.58.64-1.38.62-2.08-.02-.91-.35-1.6-.93-1.96-.3-.18-.94-.43-1.83,0-.34.16-.47.12-1.09-.35-.24-.18-.51-.38-.82-.54-.8-.39-1.73-.79-2.66-.45-.25.09-.48.22-.68.4.14-.33.26-.67.38-1,.48-1.35.82-2.32,2.42-2.82,3.16-.99,2.38-3.66,1.92-5.26-.19-.66-.39-1.35-.37-1.85,0-.03,0-.05,0-.08.06.02.13.04.21.05ZM276.11,381.86c-.04-.4.1-.98.4-1.26.12-.11.33-.25.83-.17.25.04,1,.17,1.59-.3.42-.34.55-.82.61-1.23,1.27,1.18,2.91.75,3.95.48,1.23-.32,1.38-.26,1.53-.02.11.18-.25,1-.44,1.44-.18.41-.37.85-.52,1.31-.36-.23-.8-.41-1.34-.29-.73.16-1.16.77-1.44,1.28-.33.11-1.19.15-1.67.17-.31.01-.61.03-.88.05-.03,0-.05-.02-.08-.03-.3-.11-.85-.33-1.38,0-.19.12-.51.4-.55.95-.06.81-.22,1.03-.21,1.04-.13.04-.57-.08-.86-.15-.13-.03-.27-.07-.41-.1.64-.98,1-1.91.87-3.17ZM181.72,304.81c.35-.28.7-.55,1.03-.81.77-.6,1.5-1.16,2.18-1.8.1-.09.16-.13.17-.15.11.06.32.24.46.37l.12.1s.05.04.07.06c-.07.12-.19.27-.25.34-.77,1.02-1.41,2.11-2.04,3.17l-.33.56c-.05.08-.09.14-.13.19-.47-.96-1.11-1.43-1.78-1.64l.5-.4ZM172.14,303.15c.18-.47.33-.57.32-.58.2,0,.64.28.88.43.26.16.52.32.79.43,1.91.75,2.69-.51,3.02-1.04.07-.12.19-.3.24-.34.59-.4.9-.88.92-1.43,0-.06,0-.12-.01-.18.59.54,1.29,1.01,2.19,1.16-.35.64-.72,1.5-.35,2.72l.22.75c-.55-.02-1.07.06-1.49.13-1.09.17-1.44.17-1.73-.19l-.89-1.11-.75,1.21-.12.17c-.13.19-.29.42-.4.72-.32.86-.56,1.25-.7,1.42-.15-.16-.44-.54-.84-1.4l-.1-.22c-.25-.58-.63-1.46-1.51-1.8-.15-.06-.36-.1-.59-.11.43-.12.74-.36.88-.73Z"/>
        <path class="cls-1" d="M140.14,287.22c.03-8.79.03-17.58.02-26.37v-7.61c0-2.69,0-4.04-.9-4.9-.89-.86-2.18-.8-4.77-.7h-.18c-1.42.06-2.41.47-3.03,1.24-.58.73-.76,1.74-.52,3,.28,1.47-.25,2.26-1.78,2.64-1.54.39-2.73,1.33-3.09,2.47-.5,1.59-1.65,2.79-2.87,4.06-1.34,1.4-2.73,2.84-3.36,4.93-.23.77-.98,1.17-1.86,1.04-1.13-.19-1.98-.02-2.59.5-.84.73-.95,1.88-.93,3.02.03,2.15.01,4.3,0,6.45-.02,3.31-.04,6.72.09,10.09.04,1.05-.07,1.7-.34,1.98-.28.29-1.01.43-2.14.42-28.88-.11-56.99-.1-83.56,0-1.23-.03-1.95-.16-2.27-.49-.3-.32-.41-1.01-.34-2.11.15-2.3.12-4.56.08-7.17-.02-1.18-.03-2.43-.03-3.76v-2.42l-1.71,1.71c-.96.97-2.01,1.34-3.02,1.71-1.08.39-2.18.79-3.02,1.83-.13-.05-.27-.11-.38-.15-.13-.05-.27-.11-.39-.15-.27-.1-.54-.21-.82-.32-1.39-.56-2.97-1.19-4.34-.43-.85.47-1.42,1.36-1.75,2.73-1.43-.34-5.2-1.64-6.03-2.1-.3-.53-1-1.61-2.21-1.16-.76.28-1.65,1.03-1.88,1.92-.22.83-.2,1.67-.19,2.48v.55c0,14.96,0,29.92,0,44.88v23.08c0,12.77.02,25.97-.04,38.95,0,1.17.1,2.36.93,3.12.65.6,1.53.74,2.28.74.21,0,.4,0,.58-.02,1.67-.12,3.41-.1,5.09-.08.98.01,1.97.03,2.95.01.1,0,.2,0,.31.01.64.03,1.44.07,1.93-.5.25-.3.35-.7.27-1.11-.39-1.82.46-2.49,2.13-3.59,1-.66,2.12-1.41,2.7-2.64.06-.12.23-.48,1.05-.73,5.2-1.53,5.57-2.02,5.57-7.42v-12.36c0-16.79.01-34.14-.04-51.21,0-1.06.11-1.64.35-1.89.24-.24.8-.36,1.67-.36h.03c27.6.1,56.03.1,84.5,0h.03c.88,0,1.45.12,1.69.36.24.24.35.83.34,1.84-.1,11.27-.06,22.5-.02,33.37,0,.21-.03.43-.05.65-.1.88-.24,2.21.96,3.26l.69.61.66-.64c.73-.71,1.29-1.52,1.84-2.3,1.1-1.57,2.04-2.92,4.03-3.23,1.56-.24,3.43-2.09,3.39-3.91-.03-1.4.34-2.76.73-4.21.24-.9.5-1.83.68-2.84l.26-1.44-1.44.28c-.22.04-.39.07-.52.09-.28.04-.49.08-.73.19-.74.35-.93.29-.95.28-.04-.02-.17-.14-.29-.53-.08-.25-.1-.41-.11-.49.08-.02.24-.05.54-.05.05,0,.1,0,.15,0,1.39,0,1.66-1.05,1.78-1.51.02-.09.05-.2.09-.3.77-2.2-.3-3.68-1.15-4.87-.29-.4-.56-.78-.75-1.16-.42-.84-.5-1.2-.51-1.34.12-.06.46-.16,1.35-.21.75-.04,1.59-.37,2.25-.89.87-.68,1.83-.49,3.32-.13,1.47.36,3.25.79,4.86-.38,1.44.74,2.6,1.11,3.54.54.97-.59,1.18-1.86,1.18-3.59.01-2.35,0-4.71,0-7.06,0-3.51-.02-7.13.04-10.69.04-2.41-.25-4.92-2.57-6.91-.43-.37-.61-.83-.51-1.38.1-.57.44-.93.55-.97,2.75-.66,2.6-2.61,2.52-3.66-.01-.2-.03-.4-.03-.59Z"/>
        <path class="cls-1" d="M443.58,368.74c-8.69.06-17.52.05-26.07.05-5.23,0-10.46,0-15.68,0-.6,0-1.22.02-1.84.07l.04-.56-.5.6c-1.59.17-3.21.59-4.74,1.59-1.63,1.06-3.86,1.28-5.2.52-2.88-1.65-4.56-.86-6.49,1.05-.43.42-.72.49-.81.47-.1-.02-.34-.23-.56-.86-.66-1.86-2.19-2.91-4.31-2.91-4.23.03-8.46.03-12.69.03-3.04,0-6.08,0-9.12,0-.87,0-2.05.79-3.51,2.32-.74.78-2.46,2.74-2.4,4,.06,1.28.9,2.11,2.14,2.13,1.08.02,2.32-.02,3.69-.56.39-.16.79-.3,1.19-.45,1.98-.73,4.03-1.48,5.52-3.25.44-.53.97-.49,2.14-.26,1.06.21,2.6.51,3.74-.73.26.06.53.08.78.11.19.02.45.05.6.08,0,.02,0,.05,0,.08-.04.25-.07.5-.1.76-.24,1.92-.49,3.12-1.84,3.73-.56.25-1.73.78-1.72,1.83.01,1.05,1.17,1.54,1.73,1.78.39.16.61.33.73.45-.08.04-.19.1-.36.15-2.49.82-4.28,2.06-5.65,3.89-.23.3-.37.49-1.27.17-.15-.05-.26-.09-.33-.13,0-.11.03-.26.04-.39.18-1.48-.47-2.05-.88-2.26-.42-.21-1.29-.41-2.43.66-1.12,1.05-2.72,1.44-4.13,1.69-2.48.43-5.23.42-8.94-.02-.76-.09-1.62-.81-2.15-1.79-.48-.91-.58-1.83-.25-2.47.06-.11.13-.24.21-.36.34-.57.81-1.35.47-2.13-.14-.32-.47-.74-1.23-.89-.15-.03-.39-.14-.62-.26-.66-.32-1.79-.86-2.95-.18.19-.21.3-.45.36-.57.41-.9,2.05-7,1.19-8.21-.87-1.24-1.18-2.06-.68-3.76.2-.67.42-1.42.59-1.74.15.06.45.22,1,.6,1.12.79,2.03,1.24,2.88.85.95-.43,1.05-1.5,1.19-2.87v-.11c.46-4.53-.03-9.03-.51-13.38-.27-2.49-.56-5.07-.65-7.6-.03-.88.26-1.66.56-2.49.32-.85.68-1.82.68-2.97,0-3.33-.13-7.7-1.24-11.86-.49-1.83-1.5-5.65-5.16-6.56l-.4-.1c-1.22-.29-1.54-.43-1.69-1.02-.12-.48-.1-.98,1.36-1.68,4.12-1.98,5.71-5.43,4.74-10.27,0-.03-.01-.06-.02-.1.19-1.34-.12-2.58-.41-3.78-.41-1.68-.77-3.12.18-4.71.9-1.5-.17-3.58-1.62-4.96-1.47-1.41-2.98-1.83-4.04-1.14-1,.66-2.08,1.15-3.21,1.66-.71.32-1.45.65-2.17,1.03l-.25.13c-.9.48-1.82.97-2,.99-.19-.15-.56-1.02-.92-1.87l-.15-.35c-.09-.21-.18-.46-.27-.71-.4-1.1-.89-2.48-2.11-3-.69-.29-1.47-.25-2.32.13-2.78,1.25-4.19,3.07-4.19,5.41.02,33.03.03,65.38-.03,98,0,.75.08,1.83.81,2.54.74.73,1.79.78,2.81.77,3.95-.06,7.98-.05,11.87-.04,1.54,0,3.09,0,4.63,0h10.46l-.53-1.36c-.57-1.48-1.51-1.95-2.19-2.28-.07-.04-.15-.07-.24-.12l.1-.17c.03-.06.08-.13.13-.22.62.2,1.35.07,1.9-.03.18-.03.43-.08.62-.1-.03.19-.09.5-.27,1-.24.68-.11,1.47.36,2.11.59.8,1.6,1.26,2.72,1.2,2.43-.11,5.05-.11,8.02,0,1.03.04,2.18,0,2.95-.73h0s1.26.41,1.26.41c.11.04.2.07.28.1.21.08.45.17.75.17h20.79c19.56.01,39.11.02,58.67.06h.02c.71,0,1.71-.08,2.41-.78.72-.72.77-1.75.76-2.65v-1.42c-.07-5.03-.12-10.23.03-15.33.03-.97-.04-2.19-.85-3.03-.81-.83-1.97-.92-3.2-.93ZM394.55,376.4c1.13-.41,2.02-1.06,2.79-1.81-.33,1.02-.93,1.67-2.15,1.98l-.24.07c-.11.03-.29.08-.41.1-.04-.16.02-.33.02-.34ZM329.71,385.19c-.34.42-1.1.61-1.5.64-.41.03-2.49.07-2.82-1.49-.15-.7.2-1.51,1.09-2.51.93.39,3.02,1.97,3.4,2.59.06.43-.07.65-.17.77ZM335.88,385.21c.1.01.28.05.57.16l.26.1.27-.05c1.03-.19,1.95,0,2.6.5.56.44.89,1.09.93,1.85.04.59.04.7-1.44.87-.65.07-1.44.16-2.12.52-.58-.93-1.05-2.03-1.1-3.32-.01-.33.01-.52.04-.63ZM337.11,377.12c-1.92,2.06-2.17,2.34-4.21.98.08-.07.16-.15.24-.24.66-.81,1.45-.87,2.79-.9.39,0,.78-.02,1.17-.06.12-.01.23-.04.33-.08-.11.09-.21.19-.31.3ZM364.11,389.96c-.21.25-.38.52-.53.77-.06.1-.13.21-.2.32l-.17.25c.19-.5.22-1.11.12-1.85-.03-.19,0-.28,0-.29.06-.02.44-.03.73-.06.17-.02.43-.04.5.01.07.13.08.21-.45.83Z"/>
        <path class="cls-1" d="M318.96,265.47c.4.62.9.82,1.24.87.82.13,1.47-.38,1.94-.75.1-.08.2-.16.29-.22.23-.15.35-.16.36-.16.04,0,.2.13.38.54,1.68,3.87,5.12,4.59,8.5,5.01.16.08.46.23.85.23.34,0,.74-.11,1.18-.48,1.52-1.28,2.31-2.57,2.39-3.95.08-1.35-.51-2.68-1.8-4.08,1.51-.15,2.77-.91,3.92-1.59.8-.48,1.56-.93,2.35-1.17,4-1.21,3.86-4.17,3.76-6.33-.03-.58-.05-1.12-.02-1.63.14-1.93.09-3.87.04-5.75-.07-2.56-.13-4.99.24-7.42.44-.01.88-.02,1.31-.04.29,0,.58,0,.88.01,1.08.04,2.6.09,3.64-1.1,1.23.86,2.61,1.22,4.29,1.15,2.32-.11,4.77-.16,7.49-.14,15.33.08,30.91.08,45.98.09,11.05,0,22.1,0,33.14.04.83.01,1.96-.08,2.73-.86.74-.75.82-1.83.8-2.89-.07-4.23-.14-9.81.01-15.4.03-.94-.04-2.12-.82-2.91-.77-.79-1.92-.9-2.95-.9h-.02c-38.2.06-77.02.06-118.68,0-1.31,0-2.32.15-3.04.88-.76.78-.85,1.91-.83,2.82.09,6.06.08,12.22.07,18.19,0,2.69-.01,5.37,0,8.06,0,1.82,0,2.92,1.06,3.05.72.08.79.21.83,1.46.03.87.07,2.11,1.09,2.87-.1.18-.24.4-.4.56-.05.05-.11.1-.17.15-.35.28-1.18.95-.79,2.24.7,2.28.39,3.95-1.01,5.4-1.09,1.13-.97,3.01-.21,4.16ZM342.27,233.4c.69.22,1.39.42,2.09.62l.48.14c.5.15.64.29.64.29,0,.02,0,.27-.48.88-.09.12-.34.24-.59.36-.35.17-.78.37-1.14.73-.05-.82-.37-1.53-.64-2.12-.16-.35-.29-.64-.36-.9ZM322.22,240.1c1.66-1.02.97-2.45.67-3.06-.04-.09-.09-.18-.13-.28-.3-.68-.44-1.54.77-2.82.04-.04.07-.07.1-.1,1.44,2.09,3.59,2.11,5.34,2.12.49,0,.94,0,1.36.05.29.03.57.06.86.08,2.9.26,4.19.5,4.35,3.26.1,1.75,1.72,2.25,2.68,2.54.19.06.38.12.55.18.4.15.81.12,1.14.1,0,0,0,0,.01,0-.08.74-.31,1.14-.7,1.18-5.41.62-9.64,1.87-13.29,3.92h0c-.07,0-.13,0-.2,0h-.02c-2.51-.23-3.53-2.12-4.51-4.38-.32-.73-.56-1.81,1.01-2.78Z"/>
        <path class="cls-1" d="M169.91,272.42c.68.8.74,1.12.71,1.25-.03.13-.24.38-.76.66-.76.41-1.2,1.18-1.12,1.97.08.73.6,1.32,1.36,1.53,1.41.4,2.8.92,4.14,1.42l1.23.46c.22.08.42.12.62.12,1.05,0,1.86-1,2.53-1.82.33-.41.68-.83.98-1.07,1.01-.79,1.31-1.8,1.47-2.69.34-1.85.92-3.66,1.73-5.38.27-.57.68-1.14,1.11-1.73,1.19-1.64,2.66-3.67,1.33-6.55.04-.17.18-.5.42-.72.16-.14.32-.21.52-.21.04,0,.08,0,.12,0,0,.07-.02.14-.02.2-.06.44-.14,1.04.24,1.57.11.16.12.26.02.76-.08.43-.19,1.02.03,1.67l.36,1.03,1-.45c.28-.13.57-.3.86-.47.23-.13.56-.33.72-.38,1.32.37,2.33.3,3.1-.22,1.15-.78,1.29-2.28,1.4-3.48l.04-.41c.1-.98-.09-1.9-.27-2.79-.26-1.24-.48-2.32.12-3.39.35-.64.35-1.35,0-1.9-.25-.38-.87-1-2.3-.88-.98.08-2.27.04-2.85-.64-.55-.65-.4-1.84-.17-2.72.04-.18.12-.35.19-.52.26-.65.7-1.73-.14-2.89-.83-1.14-1.39-2.53-1.93-3.87-.25-.61-.49-1.21-.76-1.8-.38-.83-.25-1.97-.1-3.17.13-1.1.28-2.33.05-3.55,2.4-.12,3.04-2.01,3.46-3.29.11-.33.22-.65.35-.95l.08-.17c.09-.2.24-.54.36-.6.12.01.33.03.36.57.04.63.18,1.21.32,1.77.26,1.03.46,1.85-.01,2.78-.9,1.77-.07,3.35.59,4.62.29.55.56,1.08.69,1.57.32,1.25,1.72.94,2.65.73.34-.08.92-.21,1.07-.18,1.89.56,3.65.3,5.35.04,1.17-.18,2.27-.34,3.33-.22,6.94.79,13.98.68,20.78.57,4.11-.06,8.36-.13,12.53,0,.4,0,1.63.05,2.22-.87.38-.59.35-1.33-.09-2.21-.13-.26-.3-.49-.44-.69-.07-.1-.18-.24-.23-.34.02-.02.05-.05.09-.08.31-.25.49-.38,1.3.51.71.78,1.51,1.09,2.19.86.34-.12.93-.47,1.02-1.52.17-2.01-.82-3.8-2.65-4.78-.25-.13-.5-.16-.73-.14.21-.67.67-1.29,1.33-1.78.22-.16.4-.19.42-.17,1.18,2.23,3.34,2.64,5.08,2.97l.28.05c.88.17.88.2.92,1,0,.1-.03.3-.06.48-.1.58-.25,1.38.26,2.08.33.46.87.74,1.59.84,2.18.31,3.47-1.49,3.96-2.16.25-.35.39-.74.49-1.05.04-.11.09-.27.14-.37.04,0,.08.02.14.03l.2.06c.73.2.73.26.74.55.03.64.04.76-.89.87-1.19.14-1.74.92-1.64,2.33,0,.12.02.23.01.33-.04.58.13,1.15.48,1.59.37.47.91.76,1.5.8.63.04,1.03-.2,1.26-.41.54-.49.57-1.19.58-1.66,2.06.66,3.39-.46,4.32-1.58.19.22.29.43.31.63.05.5-.39,1.23-1.25,2.1l-1.7,1.71h10.36c7.65,0,15.05-.01,22.45.03h.03c.9,0,1.56-.22,2.02-.68.69-.69.69-1.65.68-2.52,0-1.33-.02-2.67-.03-4-.04-3.85-.08-7.84.09-11.74.06-1.48-.2-2.44-.84-3.1-.77-.8-1.9-.96-3.36-.94-7.33.08-14.8.06-22.01.05-2.73,0-5.46,0-8.2,0-2.23,0-4.41,1.29-5.69,3.38-.58.95-.92,1.98-1,2.99-.83-.77-2.37-.65-2.88-.49-2.24.7-3.12-.42-4.48-2.46l-.38-.56c-1.43-2.08-3.03-2.97-5.38-2.91-5.17.09-10.43.07-15.51.06-1.99,0-3.97-.01-5.96-.01h-9.88c-12.18,0-24.36,0-36.54.02h0c-.19,0-.4-.01-.6-.03-.85-.06-1.91-.13-2.7.6-.53.5-.79,1.23-.79,2.25.01,6.43.01,12.86,0,19.37v8.47s.92-.06.92-.06c-.66.64-.97,1.52-.95,2.65.01.68,0,1.36-.02,2.04-.03,1.18-.05,2.39.06,3.61.03.29-.01.67-.06,1.08-.11.98-.24,2.19.56,3.1.45.52,1.12.83,2.02.95,0,.16,0,.33.04.5.34,1.42-.38,2.56-1.27,3.8-2.1,2.89-2.01,5.72.26,8.4ZM183.11,254c.19,1.03.38,2,.08,2.9-.45,1.33-.97,1.48-2.14,1.5-.2,0-.42.02-.64.04-.32.03-.98.08-1.1-.03-.03-.03-.11-.21-.1-.66,0-.41.04-1.5-.84-1.89-.18-.08-.35-.11-.52-.11-.29,0-.57.1-.81.24.04-.39,0-.85-.33-1.26-.51-.64-1.37-.65-1.65-.65-.27,0-1.1-.01-1.59.62-.03.04-.06.08-.08.12-.6-1.38-.73-2.97-.34-4.51.49-1.95,1.74-3.59,3.43-4.49,1.1-.59,1.67-.54,2.42.19l.27.27c.78.8,1.84,1.88,4.16.77.12.43.21,1.21.26,1.72.03.25.05.5.08.74-1.14,1.45-.83,3.13-.57,4.5ZM171.34,245.14c.05-.06.12-.12.19-.19.01.02.03.04.04.07.01.02.02.04.03.06-.09.05-.22.1-.34.15.03-.03.06-.06.08-.09ZM271.97,229.82c-1.17-.45-1.39-.9-1.38-1.53.02-.94.09-1.43.15-1.7.77.57,1.79.45,2.48.37,1.14-.14,1.25-.09,1.36.47-.25.66-1.94,2.21-2.61,2.39ZM263.32,225.17s.07.05.11.08c0,0,0,0-.01.01-.44.5-.95.56-1.82.62-.42.03-.85.06-1.32.18-.02,0-.11-.06-.22-.23-.18-.3-.24-.68-.19-.88.35-1.41,1.39-2.3,2.72-2.39,0,.01.03.1-.06.27-.71,1.26.42,2.07.78,2.33ZM253.68,224.25c.09.28.2.54.33.8.52,1.02.47,1.06-.12,1.53-.62.49-1.37.48-1.63.26-.12-.1-.13-.16-.13-.2-.01-.23.2-.72.71-1.26.37-.4.65-.78.84-1.14Z"/>
        <path class="cls-1" d="M1.33,265.6l1.08.51.32-1.15c.29-1.06.83-1.83,1.46-2.11.49-.21,1.07-.15,1.72.19.87.46,1.77.67,2.63.88,1.1.26,2.13.52,2.99,1.24l1.58-1.12c-.53-1.38-.48-2.3.11-2.76.11.03.38.28.56.44.38.34.85.77,1.48.95.27.08.6.33.94.59.27.21.54.42.83.59.71.43,1.52.49,2.12.15.5-.29.79-.81.79-1.44,0-1.3.74-1.81,2.05-2.6.49-.29.99-.6,1.44-.98,1.27-1.09,1.77-2.15,1.76-3.76v-1.71c-.02-11.23-.05-22.83.02-34.25,0-.91-.09-2.05-.86-2.81-.77-.76-1.87-.82-2.75-.82-6.51.13-12.36.12-17.87,0-.92-.02-2.08.05-2.85.81-.78.76-.88,1.92-.87,2.95.06,9.33.06,18.81.06,27.98,0,5.12,0,10.24,0,15.36,0,.09-.01.18-.03.28-.07.56-.24,1.86,1.28,2.58Z"/>
        <path class="cls-1" d="M352.94,308.16s-.15.02-.59-.18c-1.84-.84-3.41-.02-4.67.65-.51.27-.99.52-1.46.67l.29,1.96h58.31l-3.14-1.86c-5.52-3.27-6.53-5.76-4.13-10.27l.8-1.52-1.72.05c-3.18.09-6.47.18-8.83,3.2-.39-.55-.91-1.05-1.61-1.12-.23-.03-.44,0-.63.05.57-.44,1.02-.99,1.15-1.75.16-.95-.23-1.95-1.24-3.13.03-.06.08-.13.15-.19.74-.73,1.09-1.43,1.07-2.15-.02-.43-.18-1.06-.88-1.65-1.25-1.06-2.81-.96-4.06.26-.06.06-.14.11-.23.15-.14-.61-.4-1.06-.81-1.37-.83-.63-1.82-.39-2.55-.21-.2.05-.47.11-.58.11,0,0,0,0,0,0-1.92-.06-3.87-.02-5.75.01-2.91.05-5.92.11-8.81-.2-3.39-.36-5.4,1.38-7.17,2.91-.59.51-1.15,1-1.75,1.41-.91.62-.75,1.68-.67,2.18.02.11.04.29.04.33-.11.69-.04,1.39.03,2.07.19,1.85.17,2.5-1.6,2.87-.57.12-1.01.53-1.18,1.11-.25.83.06,1.93.73,2.61.46.46.99.79,1.51,1.11l.39.24c.37.24.44.28-.1,1.25-.2.35-.29.41-.29.41ZM378.27,302.5c-.04-.23.2-.68.67-.99.33-.22.54-.31.69-.31.17,0,.27.12.41.27.03.04.07.09.11.14.16.21.38.51.68.71-.43.08-.85.13-1.27.13-.16,0-.35.02-.56.05-.21.03-.64.08-.73,0ZM384.05,300.98c-.16.19-.43.51-.54.57-.28.1-.56.19-.83.27.02-.04.04-.08.07-.12.17-.35.85-.73,1.46-1.06.11-.06.22-.12.33-.18-.17.17-.33.36-.47.52Z"/>
        <path class="cls-1" d="M140.15,380.53c0-1.26.01-2.52.01-3.77v-1.72c0-5.15,0-10.3,0-15.46,0-.63,0-1.68-.7-2.33-.27-.25-.72-.52-1.47-.46-1.16.1-2.37.93-2.26,2.99.04.77.28,1.41.51,2.04.1.27.2.54.28.81-.03,0-.06-.01-.09-.02-1.99-.46-3.62-.28-4.85.52-1.2.79-2.01,2.15-2.39,4.05-.69.93-5.31,4.29-6.45,4.71-.09-.03-.17-.14-.38-.55-.51-1-1.11-1.56-1.83-1.73-1.01-.23-1.83.39-2.49.88-.5.38-.9.66-1.1.57-.47-.21-.96-.18-1.35.08-.73.5-.68,1.49-.63,2.35,0,.16.02.3.02.41-.03,2.56-.03,5.12-.02,7.67,0,2.65,0,5.31-.03,7.96,0,.89.07,1.9.78,2.6.67.66,1.61.76,2.3.76.04,0,.09,0,.13,0,5.95-.1,12.1-.1,18.8,0,.81.03,1.82-.07,2.52-.77.7-.71.77-1.71.75-2.51-.07-3.02-.06-6.1-.04-9.08ZM120.25,376.37c-.16.09-.4.1-.67.07h.03c.33-.17.68-.33,1.04-.52-.12.21-.25.37-.39.45Z"/>
        <path class="cls-1" d="M136.75,215.64c-7.34.12-12.94.11-18.16-.01-.84-.02-2.04.04-2.83.83-.79.78-.88,1.97-.86,3.02.08,4.73.06,9.54.05,14.2,0,1.83-.01,3.66-.01,5.48,0,1.93,0,3.85.01,5.78.02,4.76.04,9.68-.05,14.52-.04,2.23,1.2,2.85,1.74,3.02.22.07.45.1.69.1.83,0,1.69-.4,2.11-1.06.72-1.12,1.65-2.05,2.64-3.03,1.13-1.12,2.3-2.28,3.16-3.77.74-1.28.25-2.29-.08-2.95-.07-.14-.14-.29-.2-.44-.08-.2-.18-.4-.29-.59-.06-.1-.15-.25-.15-.25,1.81-3.11,1.86-3.33,1.25-7.41,1.4-1.79,1.48-3.84,1.55-5.66.04-1.05.08-2.05.35-2.94.84-2.79.24-4.44-2.14-5.89-1.69-1.03-2.86-5.52-1.95-7.51.39-.87.81-1.38,1.2-1.48.48-.13,1.19.3,1.7.68.56.42,1.48.76,2.26.57,1.39-.33,2.74.08,4.17.51.76.23,1.54.47,2.36.6.48.08,1.34.3,1.68.88.26.44.23,1.1-.08,1.96-.43,1.19-1.25,1.99-2.11,2.84-.41.41-.84.83-1.24,1.3-.33.4-1.34,1.61-.93,2.83.37,1.09,1.56,1.47,2.43,1.67.28.06.57.1.87.12.05,0,.1,0,.15.02.04.39.15,1.02.73,1.35.67.38,1.4.04,1.64-.07,1.82-.85,1.8-2.7,1.79-3.49v-1.44c-.05-3.55-.09-7.23.02-10.83.03-.84-.04-1.9-.77-2.64-.73-.74-1.82-.83-2.68-.81Z"/>
        <path class="cls-1" d="M410.96,309.23c.11.06.2.11.26.18,1.36,1.35,2.93,1.31,4.19,1.28.66-.02,1.27-.03,1.78.14,1.72.59,3.37.88,4.92.88,4.6,0,8.37-2.55,10.71-7.4l.86-1.79-1.95.37c-1.93.37-2.29.02-2.32-.02-.1-.11-.17-.58.2-1.63.62-1.75-.52-2.91-1.35-3.76l-.31-.32c-.61-.65-.85-.99-.93-1.17.14-.08.46-.21,1.14-.32,2.35-.37,3.4-1.47,3.14-3.26-.39-2.68-2.75-2.66-3.88-2.66-5.05.04-10.1.04-15.15.03-3.13,0-6.26,0-9.39,0-1.38,0-2.74.15-3.32,1.18-.59,1.03-.02,2.29.69,3.49.19.32.4.64.62.95.9,1.3,1.29,1.98.58,3.1-.34.53-.33,1.23.02,1.78.35.56,1,.84,1.66.76,1.26-.16,2.17.51,3.23,1.28.66.48,1.33.98,2.14,1.31,1.69.69,2.2,1.65,1.69,3.2-.47,1.43.13,2,.78,2.38ZM412.46,299.32c-.17,0-.34.03-.51.07.03-.17.05-.32.05-.46.15.14.3.27.46.4ZM410.33,297.82l.44-.62s.02.05.04.08l-.47.54ZM408.73,299.85c.19,0,.52.1,1.13.4.1.05.2.08.3.1-.12.1-.23.21-.34.31-.15.14-.4.37-.41.41,0,0-.09-.04-.28-.23l-.11-.12c-.19-.21-.55-.59-.58-.69.06-.09.12-.17.3-.17Z"/>
        <path class="cls-1" d="M574.33,236.83c.58.46,1.19.87,1.78,1.27.85.58,1.65,1.12,2.37,1.78.55.51,1.39.79,2.17.79.34,0,.68-.06.98-.17.61-.25,1-.75,1.04-1.36.09-1.29.72-1.61,2.02-2.16.65-.27,1.38-.58,2.01-1.12l.68-.58-.5-.74c-1.91-2.83-4.43-5.44-7.7-7.96-.14-.11-.27-.24-.41-.38-.57-.56-1.62-1.59-3.11-.89-1.9.9-1.62,2.9-1.49,3.86.07.47-.2.91-.64,1.59-.09.14-.18.27-.26.41-1.26,2.03-.85,4.15,1.08,5.67Z"/>
        <path class="cls-1" d="M341.73,274.09c-.94-.56-2.62-.92-5.36.56-2.02,1.09-3.23,3.08-3.33,5.45-.08,1.84,1.1,3.58,3,4.43.36.16.68.23.97.23.86,0,1.41-.57,1.72-.89.1-.1.25-.26.35-.27,1.48.44,2.59.36,3.4-.24,1.23-.92,1.24-2.66,1.25-4.2v-.29c.01-2.96-1.08-4.23-1.99-4.78Z"/>
        <path class="cls-1" d="M140.16,329.66v-4.1s-1.81,1.55-1.81,1.55c-.71.61-1.9,1.63-2.3,1.63,0,0-.01,0-.02,0,0,0-.34-.23-.56-1.75-.18-1.26-1.3-1.73-2.12-2.07-.31-.13-.6-.25-.79-.38-1.02-.71-2.24-.55-2.92.35-.55.74-.48,1.71.19,2.55.98,1.23,1.18,2.34.71,3.84-.31.97-.03,2.04.7,2.65.7.58,1.65.65,2.55.17.79-.42,1.03-.35,1.06-.34.04.01.25.13.55.93.34.89,1.04,1.33,2.09,1.33.33,0,.69-.04,1.09-.13,1.6-.35,1.59-1.79,1.58-2.4v-.2c.01-1.14.01-2.28,0-3.63Z"/>
        <path class="cls-1" d="M359.33,381.45c.3-.03.5-.05.63.01l.47.22.35-.2c.06,0,.16.02.22.03.47.07,1.72.25,2.28-1.07.39-.91.18-1.86-.54-2.48-1.04-.87-2.05-.76-3.03.33-.05.06-.11.12-.16.17,0,0,0,0,0,0-.1-.07-.23-.15-.37-.23,0-.02-.01-.04-.02-.05-.13-.29-.38-.83-1.01-.98-.43-.1-.89.02-1.34.38-.57.45-.71.95-.73,1.29-.04.82.54,1.4.97,1.83l.16.16c.72.74,1.6.65,2.12.6Z"/>
        <path class="cls-1" d="M248.44,218.44c.41,1.1,1.03,2.76,3.23,2.84l1.1.04-.07-1.1c-.23-3.83-.4-4.64-4.01-4.43l-1.88.1,1.14,1.5c.19.25.33.64.49,1.05Z"/>
        <path class="cls-1" d="M192.62,271.05l1.35.5v-6.16l-1.96-.27c-1.22,4.38-1.44,5.17.62,5.93Z"/>
      </g>
    </g>
  </g>
</svg>