<?xml version="1.0" encoding="UTF-8"?>
<svg id="Layer_2" data-name="Layer 2" xmlns="http://www.w3.org/2000/svg" viewBox="0 0 1360.63 334.48">
  <defs>
    <style>
      .cls-1 {
        fill: #e41f1b;
      }

      .cls-1, .cls-2 {
        stroke-width: 0px;
      }

      .cls-2 {
        fill: #bfbebf;
      }
    </style>
  </defs>
  <g id="Livello_1" data-name="Livello 1">
    <g>
      <g>
        <path class="cls-2" d="M765,95.06c-1.58-3.97-5.1-4.04-7.73-5.4-7.98-4.14-15.89-8.88-25.11-9.36-3.13-.16-6.16,2.71-8.1,5.09-4.24,5.18-9.29,5.96-15.11,4.23-2.69-.8-5.2,1.45-7.86-.03-.85-.47-.95.69-1.09,1.35-.48,2.24-2.02,3.94-3.81,4.88-4.4,2.32-7.46,5.17-9.05,10.27-.58,1.85-2.46,3.67-3.29,6.23-1.55,4.82,2.23,7.41,3.22,11.04-1.52,1.11-2.19-.17-2.97-.8-.87-.69-1.84-1.3-2.36.05-1.16,2.98-3.28,1.93-5.27,1.48-3.27-.74-6.34-2.12-9.85-2.13-3.33-.01-1.76-2.61-1.47-4.34-2-.48-3.05,2.34-5.18,1.22.02-2.15,2.08-2.85,3.03-4.31.42-.64.61-1.29.12-1.94-.44-.59-1.06-.49-1.35.08-2.01,3.92-6.38,5.54-8.78,9.05-.58.85-1.49,1.76-.85,3.01.91.14,1.36-.48,1.77-1.01,2.36-3.08,4.18-3.27,5.88.68,1.13,2.63,3.47,2.56,5.77,1.52,1.75-.79,3.49-1.42,5.16-.05,2,1.64.26,3.37-.11,5.01-.71,3.16-3.15,6.18.05,9.94-3.68-.44-4.4,2.73-6.6,3.83-1.2.6-.83,1.81-.45,2.63,1.54,3.33.43,5.91-1.88,8.38-1.15,1.22-1.99,2.76-1.87,4.57.1,1.58-.34,2.83-1.96,3.31-1.65.49-2.81-.42-3.45-1.76-2.07-4.38-3.35-1.66-5.28.25-3.44,3.4-2.44,7.42-2.2,11.36.1,1.55.88,3.83-.32,4.41-4.75,2.3-2.28,4.1-.18,6.51,1.08,1.23,2.1,3.16-.05,4.8-1.35,1.03-.49,1.84.45,2.69,2.54,2.29,1.92,4.86-1.75,5.8-3.19.82-6.56,1-9.87,1.35-.83.09-1.79-.21-2.29.62-.68,1.12.73,1.25,1.05,1.89,1.25,2.5,1.98,5.34,1.67,7.98-.36,3.13-1.94,6.02-1.45,9.42.24,1.67-1.47,2.59-3.24,2.6-3.26.02-5.29,1.82-6.4,4.64-.99,2.52-3.91,3.05-5.1,5.32-.15.28-.93.57-1.12.44-3.05-2.21-7.63-.66-10.05-3.27-2.44-2.64-5.38-3.07-7.9-2.49-4.36,1-7.69-2.35-11.89-1.73-2.48.36-3.77,1.24-3.87,3.46-.18,4.1-2.64,4.15-5.76,3.88-3.86-.33-6.9,1.56-9.06,4.59-1.14,1.6-1.21,3.28,1.71,2.97,1.39-.15,2.81.03,4.19-.17,3.2-.46,4.44.95,3.83,3.96-.21,1.05-.66,2.05.68,2.37,1.14.27,2.09-.71,2.14-1.62.21-3.6,2.89-3.58,5.38-4.11,1.5-.32,2.34.19,3.19,1.35,1.02,1.41.98,9.69-.24,11.04,2.71,1.56,4.61,3.75,5.98,6.61.94,1.95,2.1,4.71,5.21,2.23.91-.72,1.18-.02,1.38.7.27.98.52,2.14,1.89,1.56,1.2-.51.7-1.74.6-2.65-.16-1.53-.63-3.04-.73-4.57-.09-1.33-.53-3.08,1.23-3.66,1.9-.63,2.7,1.05,3.59,2.3.91,1.27,2.11,2.64.26,3.97-1.61,1.16-2.49,2.57-2.68,4.54-.16,1.72-.83,3.08,2.08,3.39,2.52.26,2.04,3.14,1.37,4.67-1.74,3.92-2.44,8.07-3.4,12.17-.51,2.17-1.46,3.92-3.7,4.78-.9.34-2.03.8-2.46,1.55-2.24,3.92-4.66,6.69-9.71,3.94-1.35-.74-2.01.48-1.29,1.92.82,1.64,1.68,3.26,2.45,4.92.92,1.98,1.01,3.34-1.93,2.76-3.86-.76-7.75-1.47-11.65-2-2.21-.3-3.16-1.05-2.1-3.26.71-1.48.56-2.92-.84-3.72-2.91-1.65-6.04-2.89-8.04-5.84-.56-.83-1.6-.17-2.2.44-1.44,1.47-3.39,2.6-3.14,5.17.49,4.97,2.49,7.26,7.81,8.2-3.8,2.39-6.58,4.36-11.5,4.83-4.58.43-9.54-.2-14.1,1.23-2.1.66-3.61,2.24-4.59,4.18-1.1,2.17-2.47,1.94-4.05.7-2.35-1.83-4.47-3.83-5.84-6.57-.88-1.75-1.84-3.58-3.19-4.94-3.52-3.54-8.06-2.85-9.24,1.78-1.22,4.78-4.36,5.71-8.32,6.08-9.1.84-17.11,4.47-24.55,9.55-1.8,1.23-3.43,2.56-2.05,5.19.73,1.38,2.33,3.12.24,4.44-2.01,1.27-4.59,2.47-6.75.82-2.64-2.02-5.39-3.99-7.47-6.75-2.27-3.01-.05-5.26.84-7.77.87-2.46,2.87-1.6,5.28-1.14-2.25-3.67-5.66-4.49-8.33-6.22-2.16-1.4-2.94-2.49-.54-4.34.74-.57,1.68-1.55,1.67-2.33-.17-8.95,2.82-18.23-3.62-26.49-5-6.42-1.53-17.31,6.35-21.08,2.27-1.09,4.77-1.71,7.15-2.57,1.77-.64,3.29-1.59,4.02-3.48.86-2.21.39-3.64-2.2-3.74-16.8-.68-33.27-3.72-49.74-6.77-.28-.05-.57,0-.84-.09-1.55-.47-4.1-.11-4.4-1.65-.34-1.74.95-3.85,2.5-5.07,2.09-1.66,5-2.62,2.15-6.11-.85-1.04.86-1.4,1.66-1.84,2.24-1.25,2.29-3.38,1.24-5.09-1.25-2.05-2.15.03-3.23.74-1.68,1.09-1.86-.34-1.94-1.5-.44-6.28-.43-6.25-6.79-6.7-1.67-.12-3.79-.29-4.28-2.11-.77-2.88,1.11-3.91,3.65-3.38,3.22.68,5.25-1.08,6.72-3.3,1.59-2.39.83-5.32.04-7.78-.65-2.01-2.43-1.5-3.6,0-.79,1-1.66,1.7-2.82.8-.97-.75-1.33-2.06-.75-3.07,2.15-3.74,1.29-7.92,1.8-11.86.35-2.69,1.57-2.68,3.32-2.21,2.44.66,4.78,1.68,7.22,2.35,1.35.37,3.12.55,3.77-.99.81-1.93-1.28-2.19-2.36-2.83-2.91-1.72-5.9-3.32-8.89-4.9-1.58-.83-2.59-2.17-3.47-3.61-.47-.77-.29-1.66.53-2.24.76-.54,1.1.22,1.69.48,7.51,3.43,15.38,5.49,23.5,3.04,3.07-.92,4.36-.41,5.59,2.15,1.35,2.79,2.92,5.47,4.3,8.25.91,1.84,2.14,2.46,4.1,1.65,1.3-.54,2.75-1.23,4.1-.67,7.88,3.24,15.59.47,23.33-.54,11.72-1.54,23.42-3.22,35.12-4.81.96-.13,1.98-.25,2.91-.07.79.15,1.73.72,1.71,1.61,0,.49-.79,1.1-1.36,1.42-1.83,1.03-3.73,1.96-6,3.14,2.66,2.14,5.57,1.28,8.27,1.73-4.75,3.32-8.56,4.17-13.52,2.99-3-.72-5.82-.47-8.62.9-12.16,5.96-24.32,11.9-36.53,17.75-2.68,1.28-4.56,3.24-6.1,5.66-.45.71-1.07,1.49-.14,2.22.83.66,1.6.14,2.23-.46,1.63-1.56,3.19-3.2,4.85-4.72,3.45-3.15,6-3.19,9.76-.32.88.68,1.85,1.82,2.76,1.8,9.04-.14,16.85,4.73,25.5,6.08,8.76,1.37,17.53,2.62,26.73,3.98-.8-5.66,1.03-10.96,1.03-16.3,0-6.26,5.04-9.45,8.06-15.25-4.15,2.53-6.2.15-8.34-1.62-1.75-1.45-.92-2.44.93-2.78,10.33-1.93,20.48-.74,30.53,1.83,1.46.37,2.73,1.22.94,2.94-2.81,2.7-2.85,8.67.2,10.74,1.85,1.26,2.51,2.45,1.89,4.51-.25.83-.31,1.83.77,2.09.97.23,1.46-.66,1.93-1.35,1.71-2.53,2.25-5.41,2.6-8.38.78-6.71,4.56-9.34,11.35-8.63,5.14.53,10.07-.76,14.35-3.72,1.44-1,2.32-1.45,3.36.27,2,3.29,5.23,6.11,3.5,10.68-.54,1.44.37,2.71,1.42,3.76,4.84,4.82,5.6,10.48,3.48,16.75-.58,1.72-1.66,3.76.43,4.94,1.78,1,3.11-.73,4.26-1.92,1.9-1.97,4.57-3.73,2.59-7.16-.16-.28-.09-.95.13-1.16,4.91-4.42,2.39-9.96,1.93-14.94-.58-6.31-.39-11.9,5.83-15.43,1.5-.85,1.66-2.3,1.63-3.66-.12-4.15,3.12-8.29-2.06-12.47-2.47-1.99-2.48-7.82-1.61-12.12.51-2.51,1.46-4.85,2.83-7.02.6-.94,1.59-2.34.43-3-4.15-2.36-.66-3.39.73-4.59,1.19-1.04,2.23-1.8,2.32-3.69.22-4.69,2.56-7.06,7.24-7.67,1.76-.23,3.59-.09,2.89-2.78-.07-.25-.04-.75.08-.8,7.77-3.34.16-7.34.47-10.99,0-.08-.2-.18-.34-.29-1.27.11-1.09,1.5-1.8,2.11-.96.82-2.28.91-2.06-.42.45-2.75-1.61-3.58-2.93-5.11-3.35-3.92-7.44-7.6-5.18-13.99-3.17,2.58-6.07,4.5-10.05,3.91-1.26-.19-2.35.87-2.25,2.47.24,3.68-2.15,3.21-4.11,2.24-6.26-3.09-12.41-3.2-18.34.52-3.54,2.22-6.93,1.59-10.49.41-3.34-1.11-5.07-3.58-7.35-6.17-2.83-3.21-6.37-4.95-5.68-10.17.2-1.52-2.33-1.61-3.87-.87-1.82.88-4.45,1.3-3.56,4.29,1.12,3.77-.4,4.65-3.74,3.7-.73-.21-.97.26-1.45.49-4.52,2.19-5.51,1.51-5.26-3.53.02-.49-.26-1.4-.48-1.43-2.44-.3-3.4,2.89-6.18,2.56-.92-.11.43,1.44.99,2.72-2.6-.58-4.85-1.34-7.06.13-1.51,1.01-2.9,2.02-2.64,3.94.46,3.35-1.35,5.15-3.88,6.78-1.31.85-3.55,1.76-2.46,3.8,1.21,2.27,3.23.34,4.9.19,1.21-.11,2.25-3.35,3.5-.51.75,1.7,1.63,4.23-1.56,5.16-.63.18-1.31.61-1.69,1.13-.91,1.26-.05,3.17-1.39,4.31-1.91,1.62-1.35-1.58-3.28-1.67-3.97-.17-8.03,1.35-11.93-.27-.76-.32-1.31.07-1.93.44-3.96,2.37-3.92,2.35-4.05-2.43-.06-2.17.5-4.46-.68-6.49-1.68.11-1.85,1.44-2.45,2.3-1.04,1.46-1.73,2.72-3.89.99-2.6-2.08-5.67.45-8.58-.08-3.58-.65-4.29,3.1-6.71,4.93-1.32-2.3-.21-4.82-1.07-7.34-2.17,1.74-1.05,5.1-3.77,6.55-1.44-2.83,1-5.36.48-8.22-1.75,1.45-1.97,3.37-2.83,4.92-.58,1.04-.74,3.08-2.2,2.57-1.77-.62-.22-2.1.09-3.19.15-.54.47-1.03.63-1.57.25-.85.3-1.76-.65-2.19-.88-.39-1.13.49-1.59.98-.45.49-1.33,1.32-1.53,1.2-3.65-2.25-3.99.97-4.97,2.98-1.39,2.83-.95,5.21,1.26,7.69,3.4,3.82,3.42,7.58.57,11.48-1.9-2.5-1.38-5.73-2.75-8.53-1.78,2,.85,4.05-.79,6.48-3.25-4.21-8.24-6.88-8.66-12.76-.13-1.81-1.02-1.73-2.14-1.75-1.6-.03-3.63.05-3.38,2.15.55,4.76-1.86,6.05-6,7.08-4.1,1.02-6.56,4.25-6.02,8.94.41,3.55-.54,5.93-4.57,6.65-3.18.56-5.3,3.07-7.48,5.3-.47.48-.99,1.16-1.78.8-.76-.35-.66-1.17-.65-1.85.04-2.43.68-4.72,1.69-6.93.79-1.72-.11-2.79-1.62-3.24-1.39-.41-2.56.17-2.72,1.8-.17,1.72-.8,3.16-2.61,3.34-2.13.21-3.75-1.52-4.15-3.04-.61-2.33-2.33-3.7-3.37-5.6-.8-1.47-1.9-2.73-3.64-2.14-1.53.52-2.26,2.03-2.35,3.69-.08,1.5.38,3.61-1.86,3.5-1.76-.09-2.2-1.98-2.23-3.6-.03-1.74-.57-3.28-1.38-4.81-.51-.96-1.13-2.02-.77-3.21.47-1.54,2.65-3.1,1.3-4.55-2.47-2.66-3.03-6.61-6.51-8.62-1.99-1.15-4.07-1.88-5.94-1.23-3.93,1.36-6.68-.38-8.99-2.9-3.99-4.35-8.29-6.81-14.48-5.01-2.7.78-4.18-1.39-2.87-4.01,1.32-2.63.78-4.86-.57-7.13-1.46-2.47-1.92-5.05-2.11-7.98-.31-4.86,3-7.12,6.03-8.87,6.26-3.62,6.8-4.54,3.08-10.4-1.14-1.79-5.44-4.38.96-5.2,1.61-.2,1.94-2.75,1.77-4.41-.25-2.4.73-3.1,2.93-3.31,6.86-.66,13.69-1.81,20.56-2.17,9.84-.52,19.69-.79,29.51-1.78,12.46-1.26,24.91-2.54,37.37-3.82,1.4-.14,2.8-.33,4.21-.39,46.35-2.02,92.7-3.26,139.1-2.59,15.78.23,31.53.75,47.23,2.44,3.06.33,6.18.05,10.5.05-5.23-1.97-9.6-1.56-13.79-2.21-5.69-.88-11.47-1.22-17.21-1.79-.98-.1-2.24-.01-2.45-1.19-.27-1.52,1.27-1.7,2.23-2.04,2.83-.98,5.82-.91,8.76-1.23,20.04-2.18,39.58,1.25,59.02,5.29,17.72,3.68,33.94,1.27,49.09-9.27,12.95-9.01,26.58-17.06,39.85-25.61,4.57-2.94,9.29-4.1,14.4-1.74,2.82,1.3,4.5,3.44,3.37,6.77-.42,1.22-1.57,2.24-2.23.45-.91-2.46-2.42-1.76-4.07-1.46-10.78,1.95-20.25,6.77-28.99,13.2-4.26,3.13-6.41,7.78-8.97,12.15-.37.64-.48,1.28-.13,1.99,1.64,3.28,7.6,4.81,10.66,2.71.35-.24.7-.48,1.06-.7,1.13-.69,2.26-2.46,3.59-1.23,1.12,1.03-.56,2.19-1,3.3-.15.39-.43.72-.64,1.09-2.6,4.64-2.45,4.33,2.42,6.76,7.88,3.93,16.32,4.83,24.86,5.94,6.65.86,13,3.21,19.04,6.72-4.64,1.26-9.49.91-14.28,2.31.99,1.68,2.42,1.59,3.74,1.86,8.42,1.69,16.86,3.33,25.25,5.18,5.29,1.16,5.48,1.96,1.79,5.85-.6.63-1.55,1.36-1.2,2.07,1.9,3.87-1.47,5.73-3.46,7.03-2.09,1.37-3.34,5.63-7.24,3.37-.24-.14-1.01.11-1.12.36-2.56,5.76-5.91,1.43-8.47.34-4.26-1.82-8.1-4.04-13.16-3.29-2.63.39-5.35-1.57-8.29-1.95-6.45-.83-15.09,5.57-15.43,12.05-.05.99.95,2.65-.69,2.88-1.65.23-.57-1.84-1.58-2.83-1.7,1.96-3.51,3.13-.9,6.18,1.75,2.04,2.33,5.46,2.55,8.33.31,4.14-3.71,5.97-6.09,8.38-3.31,3.36-8.2,2.48-12.55,2.65-1.15.05-2.75-.59-2.65-1.65.32-3.35-2.28-4.59-4.09-6.4-1.22-1.22-1.48-2.64-1.45-4.24.04-1.69.32-3.44-.03-5.05-.76-3.48-.27-6.19,3.45-7.31"/>
        <path class="cls-2" d="M1277.64,165.98c1.74.42,3.07-.47,3.72-1.94.89-2.02-1.33-1.63-2.17-2.27-1.55-1.17-2.29-2.39-.98-4.24.65-.92,2.83-1.63,1.58-2.86-1.45-1.43-2.11,1.12-3.3,1.58-.76.29-1.52.81-2.07,1.41-1.68,1.86-1.78,4.13-1.01,6.32.65,1.82,2.3,2.3,4.23,2M1275.29,126.15c1.04-.07,6.32-5.74,6.05-5.92-2.51-1.67-4.92-3.69-7.69-4.67-1.49-.52-2.59,1.79-2.11,3.34.83,2.68,1.92,5.34,3.75,7.24M997.94,124.84c12.41,4.11,24.05,8.42,35.98,11.68,3.73,1.02,4.54,4.58,7.89,5.6,6.19,1.9,12.12,4.63,18.28,6.64,9.37,3.06,17.35,9.22,26.96,11.73,2.34.61,4.4,1,6.94.37,5.43-1.35,10.61.17,15.39,2.96.56.33,1.42,1.13,1.32,1.44-1.31,4.04,2.08,3.6,4.05,4.07,3.46.82,6.97.83,10.4-.51,2.89-1.13,5.8-1.15,8.56.43.98.56,2.51,1.54,2.2,2.35-1.85,4.89,2.33,3.95,4.42,4.53,14.52,4.03,29.34,5.13,44.38,4.7,6.6-.19,10.57-4.41,14.65-8.32,14.99-14.33,28.53-30.01,41.6-46.08,9.95-12.24,19.78-24.57,29.71-36.83,3.8-4.7,5.05-4.6,7.99.57.69,1.22,2.1,1.88,2.32,3.44.2,1.4,1.21,1.04,1.83.46,1.88-1.75,3.22-3.13,3.66,1.06.28,2.71,2.59,1.07,4.1,1.03,1.8-.05,3.46-2.46,5.11-1.01,2.16,1.9,3.84,4.36,5.62,6.67.54.7.18,1.66-.21,2.42-2.16,4.28-1.25,8.29,1.02,12.2.87,1.49,1.63,3.02.52,4.74-.77,1.19-.66,2.41-.15,3.64.7,1.7.64,2.88-1.58,3.29-1.42.27-2.44,1.38-3.23,2.59-.86,1.31-1.99,1.79-3.59,1.69-4.05-.27-6.74,3.07-5.44,7.03.64,1.95,1.65,4.51,3.24,5.3,5.62,2.79,1.96,4.31-.46,6.17-.33.25-.66.51-.98.79-.09.08-.09.25-.28.79,5.37.24,4.4,3.59,2.61,6.38-6.57,10.26-8.2,22.08-11.22,33.49-.86,3.26-.86,6.33.07,9.55,1.81,6.22,3.46,12.49,5.17,18.74.33,1.19,1.08,2.91-.54,3.26-1.88.41-1.39-1.65-1.59-2.71-.64-3.4-4.57-5.39-3.94-9.36.06-.36-.91-1.1-1.53-1.33-4.06-1.54-7.31-3.94-9.89-7.56-1.83-2.56-4.29-1.19-6.33.27-4.82,3.45-6.38,3.23-10.05-1.52-.95-1.22-1.82-2.51-2.87-3.65-1.21-1.32-2.82-1.41-4.25-.52-1.5.94-1.94,2.63-1.06,4.08.89,1.46.55,3.8,2.88,4.32.94.21,1.6.79.94,1.81-.59.9-1.39.62-2.22.19-3.13-1.62-4.75-6.02-3.72-10.4.33-1.4,1.64-2.68-.59-4.26,6.57-.2,12.09,1.14,17.74,1.09,5.27-.04,8.87-2.26,11.32-6.7,1.36-2.47,2.62-4.98,3.92-7.48.54-1.03,1.2-2.02-.59-2.61-2.82-.92-8.57,1.32-9.69,4.1-1.5,3.72-4.35,5.38-8.08,5.88-.94.13-2.15.32-2.53-.9-.43-1.35.82-1.59,1.69-1.95,1.42-.58,2.86-1.09,4.21-1.9-2.75.04-5.25,1.07-7.68,2.16-3.29,1.48-6.19,3.45-10.27,3.01-3.38-.37-4.69,2.46-3.34,5.71.67,1.6-.61,2.15-1.61,2.23-3.78.33-7.33,2.31-11.23,1.54-1.84-.36-2.5.11-2.39,2.17.35,6.74-4.07,10.13-10.84,8.15-1.94-.57-3.5-1.2-5.47-.09-.82.46-2.23.15-3.27-.15-1.26-.37-3.17-.03-3.47-1.84-.33-1.98,1.55-2.46,2.84-3.21,2.28-1.34,4.77-2.35,7.33-4.75-29.92-9.08-59.57-7.6-90.34-3.35,2.25,1.73,3.74,2.87,5.59,4.28-4.38,2.32-8.95.6-13.11,1.77-1.36.38-1.57-1.19-1.03-2.04,1.02-1.59,1.53-3.76,3.92-4.1.71-.1,1.46-.46,1.34-1.32-.11-.83-.96-.86-1.64-1.06-4.98-1.47-9.64.55-14.39,1.39-2.13.38-1.31,1.9-.81,3.31,1.81,5.08,1.16,6.15-4.13,7.05-6.66,1.13-13.33,2.22-20.01,3.28-4.31.69-8.36-.95-12.5-1.66-4.93-.85-9.76-1.57-14.35,1.26-1.25.77-2.74.75-4.12.38-3.47-.93-7.01-.6-10.52-.69-2.31-.06-4.27.02-6.85-1.03-4.82-1.97-10.87-3.7-16.25.54-2.44,1.92-5.53,2.07-8.29,0-1.69-1.27-1.91-2.48-.29-4.15,8.52-8.79,18.92-10.31,30.27-7.79,5.28,1.17,6.9-.16,8.61-8.47-2.46.86-4.7,1.52-6.83,2.43-4.73,2.01-9.35,2.06-13.73-.77-2.02-1.31-3.5-1.17-5.14.6-.86.92-2.86,2.32-2.77-.42.1-3.07-1.22-2.78-3.29-2.52-2.8.36-5.39-.19-7.02-2.81-1.18-1.89-2.96-2.03-4.83-1.76-2.73.4-3.52-.75-3.96-3.42-.85-5.17-.97-10.09-.19-15.39.84-5.71-.88-11.73.5-17.59.95-4.05,1.07-8.08-.13-12.11-.41-1.37-.89-2.7-1.94-3.7-1.02-.96-2.16-2.26-3.64-1.46-1.57.85-.4,2.34-.05,3.4.76,2.31.71,4.97,3.44,6.46,1.6.87.32,2.58-.21,3.78-2.01,4.51-4.06,8.99-6.2,13.44-.78,1.61-1.18,3.03-.21,4.76,1.61,2.88,1.19,5.85-.66,8.39-2.69,3.7-4.53,7.78-6.25,11.95-2.29,5.54-5.35,10.06-12.43,9.06-.53-.07-1.12.12-1.66.25-.25.06-.46.29-.69.44,2.95,1.88,2.99,2.01,6.18,1.12,2.33-.64,2.58.45,2.02,2.12-.34,1.03-.96,2.23-1.82,2.77-3.83,2.4-7.09,5.13-7.58,10.01-.01.13-.11.32-.21.35-3.41,1.2-7.64.29-10.19,3.94-.15.21-1.04-1.45-1.37-2.34-1.36-3.7-2.6-7.45-4.04-11.13-1.3-3.34-2.76-3.58-5.07-.77-3.53,4.29-6.1,9.09-7.49,14.54-.42,1.66-.15,4.68-2.99,4.24-2.92-.44-3.85-2.99-3.73-5.81.02-.56.21-1.1.31-1.66.28-1.65,1.9-3.31,1.09-4.8-1.55-2.83-3.36-5.66-5.64-7.89-1.2-1.17-3.65-1.04-3.88,1.77-.25,3.1-2.51,3.86-4.94,4.24-2.59.4-3.73-1.47-4.7-3.44-.37-.76-.8-1.49-1.15-2.25-.34-.72-.24-1.86-1.38-1.85-.99,0-1.36.85-1.57,1.72-.26,1.06-.19,2.72-1.59,2.6-1.79-.14-.94-2.02-1.25-3.11-.88-3.17-.58-6.44-.71-9.68-.04-.95-.15-2.13,1.01-2.55,1.27-.46,1.76.65,2.18,1.49,1.04,2.1,2.9,2.99,4.98,3.6,1.22.36,2.25.6,2.51,2.32.42,2.79,2.42,2.45,4.08,1.2,2.22-1.67,4.22-3.44,6.84-4.71,2.4-1.17,1.77-4.39.28-6.34-1.34-1.76-1.12-2.3.05-4.26,2.78-4.67,6.23-8.77,9.38-13.12.78-1.08,2.06-2.46,1.27-3.83-1.65-2.83-1.13-5.33.3-7.98,1.17-2.18-.34-2.6-2.08-2.91-2.52-.46-3.95-1.33-1.9-4.17.83-1.14.71-2.95,1.04-4.46.96-4.34,3.19-7.47,7.89-8.2,1.79-.28,2.83-1.18,3.84-2.81,1.8-2.93,1.65-5.14-1.19-7.05-3.04-2.05-1.82-5.05-1.63-7.71.11-1.57,1.54-2,2.91-1.36,3.88,1.82,7.32.97,10.74-1.28,2.07-1.36,4.29-.92,6.48.04,7.09,3.15,14.19,6.27,21.31,9.34,1.65.71,2.96,1.99,4.57-.96,1.36-2.5,4.85-3.28,7.98-2.23,3.61,1.22,6.96,3.33,7.89,7.05.63,2.53-2.62,1.53-4.86,2.61"/>
        <path class="cls-2" d="M759.09,196.06c1.13-1.07,3.55,1.35,3.69-1.17.11-1.9.96-2.74,2.19-3.7.68-.53,1.16-1.18.55-2.16-1.81-2.87-6.37-3.03-8.07-.16-.79,1.34-1.51,2.7-2.75,3.68-1.85,1.47-.77,2.51.67,3.07,1.13.44,2.47.31,3.72.44M727.37,192.27c5.3-1.89,7.01-5.3,7.68-9.07,2.14-11.88,4.75-23.73,4.34-35.9-.12-3.7,1.42-4.35,4.55-3.7,2.9.6,5.76,1.85,9.02,1.17-2.94-4.11-6.51-6.35-10.5-6.76-3.97-.4-8.26,2.56-7.38,5.37,1.19,3.79.01,6.88-1.77,10.02-3.61,6.38-2.26,13.91-4.7,20.57-.09.24.07.55.08.83.11,5.52,2.38,11.11-1.33,17.46M794.84,151.47c3.16-2,6.03-3.76,7.76-7.35,1.38-2.85,7.41-1.85,10.23,1.41,2.57,2.97-.97,4.74-1.71,7.06-.09.28-.74.62-1.04.55-5.75-1.29-3.92,3.21-3.07,4.95,2.42,4.98-.15,8.18-3.19,11.19-2.28,2.25-3.8,4.13-1.12,7.03.53.57.95,1.58.87,2.34-.36,3.56,2.02,3.83,4.53,3.97,1.4.08,3.14-.48,4.15.16,2.1,1.34,6.63.08,5.48,5.44-.52,2.43,7.03,4.8,9.71,4.32,6.17-1.1,10.65-5.5,16.29-7.5,1.41-.5,2.67-.65,4.08-.07,1.98.81,4.19,1.77,5.7-.54,1.58-2.41-1.67-3.17-2.1-4.97-.44-1.83-5.21-1.63-2.49-4.87,1.81-2.15,7.75-1.78,9.7.56,1.58,1.89,3.43,3.63,3.76,6.42.46,3.84,2.22,4.4,5.26,1.92,4.47-3.65,4.67-3.61,7.35,1.48,1.3,2.47,2.19,5.38,6.02,4.72.86-.15,1.65.72,1.88,1.49.73,2.4,2.26,3.34,4.7,3.28,1.77-.04,2.48,1.07,2.29,2.79-.52,4.89-.66,9.82-1.91,14.63-1.67,6.44-5.84,10.09-12.27,11.29-1.24.23-2.63.07-3.56,1.08-2.33,2.53-4.56,4.41-8.02,1.41-1.37-1.18-2.51.55-3.5,1.49-3.25,3.08-6.58,3.56-9.98.71-2-1.67-3.01-1.05-4.61.25-4.27,3.45-8.74,6.65-12.98,10.15-2.3,1.9-4.13,2.56-6.41-.03-2.45-2.79-4.82-2.78-6.74.8-2,3.72-4.59,3.74-7.8,1.29-2.46-1.87-5.19-3.38-7.83-5.01-1.51-.93-2.97-2.44-4.79-.39-1.31,1.49-3.09,2.79-1.05,4.97,1.06,1.14.28,1.72-.73,2.18-.64.29-1.26.68-1.94.84-5.5,1.29-9.09,4.52-11.06,9.9-.8,2.18-1.93,5.86-5.35,1.82-.91-1.08-2.15-.34-3.07.3-4.58,3.15-9.16,4.43-13.88-.36-.89,2.62.87,3.65,1.53,5.04.43.91,1.12,1.76.1,2.62-1.03.87-1.83.08-2.57-.57-1.04-.92-2.04-1.88-3.79-3.51.72,2.45,1.27,3.96,1.59,5.52.39,1.87-.55,3.14-2.39,3.22-1.66.07-2.21-1.44-1.86-2.69,1.32-4.8-3.81-5.31-5.45-8.15-.74-1.28-3.23.33-4.4,1.4-2.69,2.47-4.75,2.48-7.51-.15-1.91-1.81-4.89-2.36-3.69-6.16.31-.98-1.09-2.76-2.91-1.3-2.2,1.76-3.2.12-4.36-1.4-3.71-4.84-6.7-4.14-12.69-2.75-7.36,1.71-2.97,4.48-1.86,7.23,1.09,2.69,2.32,5.41-.66,7.61-1.52,1.12,1.42,4.68-2.33,4.2-3.54-.46-7.74-4.62-8.11-8.23-.21-1.99-1-3.05-2.55-3.86-1.31.51-.54,1.47-.58,2.21-.05.91-.18,1.71-1.22,1.93-1.07.22-1.96-.2-2.66-.97-2.02-2.21,1-4.09.42-6.37-.43-1.7,1.08-.97,1.98-.8,1.16.21,1.51-.51,1.45-1.47-.06-.95-.57-1.62-1.61-1.53-2.15.19-4.05.93-5.79,2.3-1.27,1-2.79,1.77-3.56-.69-.57-1.81-2.23-2.06-3.73-2.32-3.75-.67-6.05-3.38-8.58-5.8-.7-.67-.84-1.39-.67-2.28.23-1.22.92-2.86-.45-3.45-1.56-.67-3.43-.16-4.69,1.09-1.47,1.45-2.7,3.15-4.32,5.09-1.45-3.73-4.9-5.45-5.41-9.93-.38-3.35.34-3.64,2.68-4.73,2.78-1.3,7-1.35,6.59-6.41.71.48,1.15.63,1.34.93.86,1.4.75,4.33,3.41,3.13,2.49-1.13,5.06-2.77,4.32-6.4-.87-4.23-2.4-8.34-2.28-12.76.06-2.23.6-3.93,3.27-3.94,1.32,0,2.41-.66,3.54-1.26,1.72-.92,5.1-.06,4.91-2.86-.2-2.95-.98-6.7-4.19-7.83-3.96-1.4-1.77-4.06-2.01-6.19-.27-2.36,1.55-1.73,2.89-1.78.78-.02,1.34-.5,1.41-1.3.07-.88-.52-1.32-1.31-1.26-2.65.22-1.85-1.19-1.8-2.9.16-6.02,2.77-10.11,8.12-12.94,2.15-1.14,3.14-4.01,4.23-6.12,1.34-2.6,2.94-2.86,5.3-3,3.16-.19,6.63.08,8.34-3.64.2-.44.89-1,1.28-.94,7.55,1.04,9.4-4.76,11.59-9.84,1.77-4.09,3.47-7.47,8.97-6.59,2.4.38,4.95-.15,7.28-1.6,2.82-1.76,5.46-1.4,7.81,1.44,1.82,2.21,3.81,4.48,7.4,3.92,2.02-.31,3.78,1.3,5.29,2.38,5.67,4.05,12.11,6.08,18.79,6.75,4.28.44,5.77,4.74,9.72,5.37,1.36.22,3.27.89,4.23,2.4-.18,1.83-2.32.77-3.02,2.42,3.07,1.57,6.15,3.19,9.26,4.72,2.16,1.07,2.48,2.32.24,3.49-4.22,2.21-3.1,6.2-3.05,9.58.04,2.45,1.32,4.87.94,7.47-.12.84-.28,1.79.94,1.93.8.1,1.27-.48,1.62-1.13.13-.25.34-.52.33-.77-.29-7.32,4.31-13.95,3-21.44-.56-3.22-1.88-5.55-5.58-6.47"/>
        <path class="cls-2" d="M41.15,171.22c.37,2.61.72,5.22,1.11,7.82.17,1.11.61,2.36-.76,2.95-1.17.51-1.8-.51-2.32-1.33-1.22-1.91-3-2.31-5.12-2.27-3.52.07-7.05-.03-10.58,0-2.77.02-5.16-.71-5.94-3.64-.81-3.05,1.23-4.71,3.59-5.97,9.6-5.1,19.46-10,29.79-13.03,18.58-5.44,33.79-17.26,51.05-25.11,3.61-1.64,6.49-.8,9.48.13,2.91.9,1.72,3.46.83,5.33-1.01,2.14-1.94,4.36-2.97,6.42-1.35,2.68-.73,3.51,1.55,4.55,2.07.95,3.63,2.65,5.18,4.29,1.89,2.01,3.35,4.69,6.84,4.04.32-.06.92.25,1.08.55,3.4,6.13,9.77,3.51,14.73,5.01,1.37.42,1.92-.76,2.61-1.67,1.08-1.44,2.54-2.44,4.37-1.59,1.55.72,3.31,2.08,2.96,3.77-.63,3.03-3.12-.51-4.88,1.23,1.32,2.23,3.44,2.14,5.6,1.85,6.01-.78,8.89,2.78,6.68,8.4-.74,1.89-.91,2.66,1.69,2.63,1.46-.02,3.86,1.19.81,3.07-1.45.89-1.51,2.65-2.55,3.81-.67.75-2.06,1.48-.85,2.79,1.03,1.1,2.31,1.79,3.75.77,3.75-2.66,3.72.76,3.91,2.67.75,7.5.3,14.93-2.57,22.03-.91,2.26-1.51,5.16-5.1,2.84-.36-.23-1.27.37-1.87.56-.49,1.93,2.7,1.05,1.94,2.58-.64,1.29-2.35,1.35-3.76,1.46-5.8.47-11.51-.65-17.25-1.14-1.37-.12-2.82-.96-2.77,1.62.04,2.08-1.46,1.09-2.4.71-3.58-1.43-6.82-3.52-9.52-6.2-4.73-4.7-10.11-8.52-15.42-12.48-8.12-6.05-10.77-14.02-8.59-23.82,1.06-4.78,3.09-9.25,4.22-14.09-3.31,5.28-6.81,10.3-11.85,14.05-1.48,1.1-.89,2.79-.64,4.33.27,1.66.36,3.35.6,5.03.21,1.54.18,2.9-1.83,3.06-1.99.16-3.53-.62-3.44-2.73.17-3.64.5-7.3,1.12-10.89.46-2.68-.66-3.69-3.02-3.91-3.36-.32-6.72-.67-10.08-.88-4.41-.27-8.77-.46-11.53,4.18-.56.94-2.07,1.43-3.24,1.86-2.47.9-4.82,1.75-4.68,5.07.04.9-.58,1.69-1.6,1.54-1.16-.17-1.52-1.26-1.66-2.2-.61-4.23-2.78-7.51-6.73-10.04"/>
        <path class="cls-2" d="M260.6,90.79c2.42-1.38,5.03-1.38,7.4-1.73,4.06-.59,6.14,3.34,8.58,5.87,2.39,2.47,2.43,5.86,2.46,9.16.01,1.62-.64,4.06,2.66,3.39,1.89-.38,1.18.96.99,1.87-.41,1.95-1.03,3.79-2.23,5.43-.66.9-1.34,2-.16,2.99.99.82,2.05.62,3.12-.04,1.67-1.04,3.32-2.2,5.13-2.92,1.69-.68,4.43-2.44,3.68,1.93-.17.99.29,1.83,1.17,1.95,6.35.86,4.58,7.23,7.17,10.64.65.86-1,2.05-2.03,3.28-3.32-7.73-9.43-11.1-17.32-11.57-1.24-.07-3.45-1.48-3.51,1.8-.03,1.8-1.78.7-2.71.51-5.95-1.25-11.9-2.07-18-.99-1.89.33-3.24.75-3.39,2.92-.13,1.91-1.18,3.11-3.06,3.56-2.09.5-2.63-.95-3.28-2.45-.61-1.41-2.02-1.54-3.27-1.39-3.82.45-8.07-1.6-11.41,2.22-.61.7-3.99,1.58-3.11-2.05.25-1.05-.26-1.91-.63-2.82-.81-2-2.5-2.56-4.39-2.76-2.31-.24-.85,2.41-2.55,3.1-1.13-1.21-2.3-2.59-3.59-3.83-1-.97-1.82-1.79-.57-3.16,1.12-1.23.31-2.13-.79-2.66-1.14-.55-1.8.28-2.32,1.21-.65,1.15-1.13,2.47-.65,3.65,1.33,3.18-1.71,5.47-1.54,8.46.07,1.18-1.71,1.26-2.8,1.38-6.5.74-12.63,2.69-18.66,5.2-3.66,1.52-7.48,1.16-11.12-.43-1.96-.85-4.01-1.97-6.08-1.47-4.93,1.19-8.15-.39-10.44-4.89-.73-1.44-2.66-2.6-2-4.34,1.85-4.83-.31-9.35-.75-13.98-.3-3.12.69-4.7,3.53-5.74,14.95-5.5,30.13-10.33,45.32-15.12,11.69-3.69,23.38-7.41,35.09-11.03,2.35-.73,5.64-2.28,3.65,2.92-.88,2.29.87,3.51,2.87,3.68,3.37.29,5.87,1.64,8.31,4.09,1.38,1.39,1.24,2.46,1.21,4.19"/>
        <path class="cls-2" d="M423.1,219.75c-4.83-1.28-6.45,4.5-10.66,4.69-1.03.04-.05,1.31.38,1.95,1.14,1.7.9,3.48.2,5.24-.39.97-1.08,1.76-2.24,1.53-1.05-.2-2.46-.27-2.17-1.93.42-2.4-.9-2.25-2.05-1.19-2.93,2.67-6.01,1.54-8.66.13-6.38-3.41-13.58-3.5-20.27-5.59-1.11-.35-2.3-.53-3.3.08-3.5,2.16-6.83,2.19-10.11-.43-.42-.33-1.34-.68-1.47-.11-1.14,5.01-4.92,1.03-7.56,2.37,6.4,4.87,2.84,11.97,4.05,18.05,2.31,11.61,2.78,23.47,1,35.29-.45,2.96-1.26,6.04-3.48,8.03-4.18,3.74-4.67,8.79-5.93,13.67-.53,2.04-.45,5.48-2.8,5.53-2.61.05-3.63-3.12-4.54-5.52-1.09-2.89-.8-5.81-.21-8.75,4.31-21.6,3.6-43.06-1.47-64.48-1.45-6.13-3.37-12.25-2.88-18.72.18-2.47-1.52-3.81-3.27-5.06-3.45-2.46-5.75-5.75-7.1-9.74-.32-.94-.79-2,.06-2.77.99-.89,1.81.08,2.56.65,1.85,1.41,3.54,3.17,6.1,1.01.6-.51,1.94-.33,2.89-.19,2.08.31,5.38-1.26,5.92,1.47.52,2.65-2.93,2.34-4.76,2.92-2.28.72-2.43,1.81-1.54,3.77,2.66,5.91,5.22,11.87,7.76,17.84.96,2.26,1.91,2.67,4,.92,5.83-4.88,11.79-9.62,17.83-14.24,2.02-1.55,4.28-3.57,7.05-.8,1.02,1.02,2.45.17,3.66-.01,1.86-.28,3.61-1.26,4.97,1.23.75,1.38,1.74.61,2.43-.66,1.34-2.44,2.62-2.15,3.75.27,1.39,3,3.26,2.74,5.78,1.11,4.76-3.08,7.24-2.43,10.31,1.7,1.29,1.74.71,3.09.1,4.69-.54,1.42-1.42,3.04-.15,4.37,1.43,1.49,3.15.56,4.72-.06,5.38-2.12,7.37-1.88,11.12,1.76"/>
        <path class="cls-2" d="M223.92,298.81c-6.86-.69-13.74-1.19-20.57-2.11-4.89-.67-8.7-5.11-8.79-9.5-.09-4.62,4.22-10.35,8.65-11.15,7.21-1.3,13.3-5.29,19.89-8.07,8.11-3.42,15.54-7.68,21.64-14.32,3.71-4.04,9.87-3.77,14.56-6.37,1.19-.66,2.05.69,2.52,1.71,3.82,8.27,6.99,16.62,3.78,25.94-2.03,5.88-4.74,11.44-7.43,17.02-.95,1.97-2.37,3.06-4.55,3.25-.98.08-1.94.47-2.92.48-7.48.05-14.88.61-22.12,2.74-1.43.42-3.08.06-4.63.06,0,.11-.01.21-.02.32"/>
        <path class="cls-2" d="M111,274.04c-9.75-4.97-19.82-8.71-30.53-10.98-9.77-2.07-19.59-4.26-27.6-10.95-1.4-1.17-3.16-1.74-5.16-1.23-2.01.52-3.89-.4-4.68-2.07-.94-1.98,1.48-2.28,2.49-3.26.3-.29.88-.41,1.01-.73,2.91-7.02,9.5-3.03,14.2-4.67,1.17-.41,3.27-.38,2.4,2.41-.43,1.38,1.45,1.26,2.35,1.47,6.53,1.59,13.13,2.63,19.34,5.7,3.94,1.95,7.12,4.22,9.89,7.53,2.11,2.53,3.9,5.73,7.58,6.34,6.93,1.15,7.48.05,11.24-6.17,2.92-4.84,2.74-10.09,4.3-15.05.44-1.39-1.07-2.18-1.26-3.22.82-.97,1.71-.83,2.52-.85,5.6-.14,5.78.17,4.2,5.56-2.13,7.29-3.31,14.57.61,21.73,2,3.66,5.43,5.62,8.71,7.82.92.61,3.03.93,1.98,2.54-.93,1.42-2.65,2.75-4.71,1.53-1.47-.87-2.54-2.19-3.5-3.62-2.52-3.74-5.07-7.46-7.66-11.15-.53-.75-1.19-2.03-2.27-1.22-1.26.94-.33,2,.48,2.83,4.93,5.06,6.69,11.53,8.26,18.13.68,2.88-.3,2.98-2.48,1.94-3.56-1.7-7.16-3.32-10.71-5.06-4.02-1.98-4-2.02-1-5.3"/>
        <path class="cls-2" d="M78.04,229.83c-4.54-5.66-9.71-8.87-14.38-12.6-7.65-6.11-15.13-12.31-18.54-21.96-.49-1.39-1.89-3.45-.43-4.19,1.75-.88,4.38.35,4.89,2.23,1.87,6.89,7.42,5.45,12.01,5.35,2.07-.04,2.53.56,2.76,1.99.3,1.86-1.21,1.96-2.48,2.06-1.4.1-2.82,0-4.23.09-1.07.07-2.52-.38-2.97.97-.42,1.24.86,1.97,1.58,2.77,1.9,2.11,4.05,3.93,6.53,5.33,8.82,5.02,16.83,11.36,26.03,15.75,2.85,1.36,4.61,2.94,1.17,5.67-1.94,1.54-1.1,3.2.01,4.82,3.89,5.7,7.77,11.42,11.65,17.14.84,1.24,1.65,2.5,2.71,4.1-1.01.07-1.55.28-1.74.1-5.51-5.11-13.15-7.91-17.9-13.26-8.15-9.18-18.8-9.26-29.09-10.91-9.85-1.58-19.87-2.09-29.89-2.03-4.36.03-8.25.64-11.72,3.73-2.48,2.2-5.88,2.76-9.17,1.73-2.51-.78-4.74-2.32-4.83-5.22-.09-2.76,1.94-4.28,4.35-5.11,7.1-2.45,14.16-1.51,21.15.54,1.78.52,3.53,1.14,5.37.94,14.21-1.49,28.42-1.09,42.63-.07,1.11.08,2.22.01,4.55.01"/>
        <path class="cls-2" d="M612.04,266.01c2.23-.91,3.47-1.42,4.68-1.91-.34-1.67-4.22-1.3-2.07-3.68,1.48-1.64,2.73.31,3.83,1.25,4.39,3.77,4.24,3.24,8.16-.66,2.41-2.4,6.54-3.41,10.09-4.2,1.79-.4,1.37,1.65.92,3.14-1.46,4.85-2.48,9.68.05,14.63,1.2,2.35,2.46,3.92,5.04,2.31,3.04-1.91,5.08,1.26,8.5,1.13-2.39,1.36-4.46,2.15-5.58,4.06-.96,1.64-1.88,3.2.21,4.78,1.44,1.08,1.25,1.71.09,3.53-1.86,2.92-2.73,6.08-7.14,5.02-.12-.03-.43.37-.53.61-3.02,7.91-11.15,5.99-16.86,8.68-1.7.8-1.92-.69-1.3-1.87,1.22-2.33.26-3.8-1.36-5.53-2.8-2.96-3.7-6.63-2.37-10.57,1.3-3.86,2.8-7.66,4.25-11.47,1.95-5.16,1.06-6.8-4.35-7.99-1.08-.24-2.12-.61-4.24-1.24"/>
        <path class="cls-2" d="M1277.27,302.69c-3.64,2.21-5.92.3-8.13-2.35-8.73-10.49-17.53-20.93-26.29-31.38-.52-.61-1.46-1.23-.82-2.12.54-.74,1.63-.65,2.37-.35,1.81.72,3.69,1.43,5.29,2.51,3.98,2.7,9.97,1.31,11.66-3.16.57-1.51.74-2.8,2.51-3.35,1.02-.31,1.68-1.58.95-2.4-2.18-2.44-.36-3.35,1.24-4.88,2.83-2.71,4.15-6.27,3.83-10.22-.23-2.89-.08-4.51,3.26-2.28,1.68,1.12,1.82.92,4.75-2.87,1.69,2.5,3.21,4.83,6.48,5.83,2.46.76,1.27,3.39-.39,4.71-2.74,2.18-5.13,4.24-3.68,8.35.53,1.51-.58,3.04-1.91,3.97-2.19,1.53-2.09,3.05-.38,4.87,1.29,1.37,2.52,2.89.68,4.72-1.64,1.63-3.33,1.81-5.22.22-.94-.79-2.17-1.29-3.33-1.76-2.54-1.03-4.58-.96-5.34,2.37-.6,2.58-4.03,4.78-2.18,7.55,2.7,4.04,6.09,7.79,11.17,8.89,1.79.39,3.31.56,3.9,2.48.55,1.77.16,2.98-1.46,4.32-2.97,2.44,1.67,3.9,1.05,6.33"/>
        <path class="cls-2" d="M1360.63,25.06c-.37,2.87-1.14,5.15-2.97,6.51-4.35,3.23-7.48,7.06-9.53,12.23-.9,2.26-4.32,3.55-6.65,5.2-2.03,1.44-3.03,2.76-.01,4.19,2.46,1.16,1.55,3.04.8,4.67-1.03,2.25-3.14,2.8-5.33,2.38-1.82-.35-3.38-1.47-4.05-3.34-.24-.66.44-.86.99-1.07,1.94-.74,1.21-1.81-.06-2.14-2.64-.68-2.97-2.18-2.88-4.65.05-1.48-1.49-2.95-2.06-4.52-1.68-4.57-1.3-7.86,3.72-9.73,8.03-2.99,15.71-6.94,23.56-10.42,1.71-.76,3.69-1.79,4.47.7"/>
        <path class="cls-2" d="M1201.21,217.57c3.08-.92,6.11-2.17,9.26-2.63,2.18-.31,4.08-.36,6,2.7,2.27,3.63,2.85,8.09,6.01,11.2,1.35,1.33,2.01,3.26.73,5.01-1.28,1.76-2.47-.09-3.67-.46-.88-.26-1.71-.32-2.24.54-.62,1,.17,1.5.85,2.04.8.64,1.73,1.5.53,2.36-.91.66-1.36-.55-1.88-1.14-2.59-2.96-5.28-5.85-7.74-8.92-1.06-1.33-3.25-2.79-.1-4.66,1.39-.82-.38-1.51-1.11-1.87-2.24-1.09-4.53-2.07-6.8-3.09.05-.36.11-.72.16-1.08"/>
        <path class="cls-2" d="M597.2,151.97c.16-2.12,0-4.47,2.87-1.92.82.73,2.1,1.12,2.52,0,1.2-3.19,5.29-3.2,6.53-6.28.37-.91,1.21-1.76,2.32-1.38,1.4.48,1.27,1.87.94,2.87-.74,2.25.02,3.95,1.1,5.91,1.99,3.6.08,6.77-1.86,9.77-.47.72-1.29,1.06-2.23.79-3.4-.97-6.74-2.17-10.37-2.06-.28,0-.77-.77-.86-1.24-.39-2.21-.68-4.44-.98-6.48"/>
        <path class="cls-2" d="M372.16,197.68c-2.32-1.11-4.02-.66-5.66-.63-4.52.08-7.72-2.25-10.48-5.47-.61-.72-1.68-1.43-.98-2.5.61-.92,1.77-.68,2.74-.59,1.04.09,2.2.53,2.46,1.43,1.25,4.35,4.09,3.02,6.96,2.25,4.07-1.1,6.54.28,8.29,5.28,1.09,3.1-1.22,4.97-3.83,6.12-2.83,1.25-5.73,2.35-8.64,3.4-.85.31-2.06.83-2.66-.31-.64-1.21.56-1.78,1.33-2.28,3.28-2.16,6.62-4.24,10.47-6.69"/>
        <path class="cls-2" d="M273.92,198.85c-2.85,2.23-6.41.95-9.47,3.17,2.31,1.31,4.32,2.48,6.35,3.59,2,1.09,1.97,2.45.77,4.15-1.1,1.55-2.19,2.13-3.68.45-1.28-1.44-2.93-1.48-4.67-1-.54.15-1.13.38-1.64.28-2.05-.41-4.68-.52-5.53-2.46-.71-1.64,1.24-3.22,2.45-4.54,4.81-5.23,10.44-6.63,15.42-3.63"/>
        <path class="cls-2" d="M217.75,181.86c-1.53-2.99-3.11-5.96-4.58-8.98-.52-1.07-1.51-2.47.15-3.29,1.35-.67,1.96.7,2.48,1.66,2.28,4.21,4.53,8.44,6.77,12.67.39.73.96,1.57.31,2.33-.68.79-1.59.18-2.36-.06-4.3-1.33-8.61-2.67-12.89-4.08-.86-.28-2.07-.53-1.87-1.89.18-1.19,1.3-1.42,2.21-1.68,1.69-.5,3.33-.35,4.82.76,1.44,1.07,2.92,2.09,4.38,3.13l.55-.56Z"/>
        <path class="cls-2" d="M325.99,210.27c-3.75-3.74-7.5-3.19-11.47-2.12-4.35,1.18-8.76,1.1-13.08-.04-.06-.37-.12-.73-.18-1.1,6.43-1.67,12.79-3.65,19.3-4.87,3.39-.64,5.39,2.51,5.43,8.12"/>
        <path class="cls-2" d="M435.15,156.67c-2.27,3.89-6.31,4.94-9.67,3.74-3.81-1.36-7.61-1.36-11.39-2.1-2.84-.55-3.19-1.78-1.2-5.12.1,3.73,1.42,4.54,3.87,2.05,1.62-1.64,2.53-.41,3.81.62,3.03,2.46,4.44,1.95,5.14-1.57.46-2.28,4.09-3.91,6.1-2.74.64.37,1.3.81.34,1.52-1.27.95-2.01,2.19-1,3.58,1.15,1.59,2.46-1.05,4,.02"/>
        <path class="cls-2" d="M110.47,221.53c2.79.68,6.4,1.74,9.52,3.93.86.6,2.6,2.09.65,2.82-2.94,1.11-6.2,1.66-9.36,1.85-2.11.13-3.22-2.02-4.26-3.67-.68-1.08-2.44-1.95-1.29-3.58.87-1.23,2.35-1.42,4.72-1.35"/>
        <path class="cls-2" d="M312.24,146.06c-.33,2.93.11,7.02-1.99,7.56-2.85.73-4.47-3.19-6.5-5.2-1.27-1.26-2.43-3.33-.89-4.84,1.4-1.36,3.49-2.49,5.77-1.35,1.77.88,4.48.98,3.61,3.83"/>
        <path class="cls-2" d="M842.33,175.32c-.95,2.35-3.26,3.31-5.16,4.67-1.58,1.13-2.61-.2-3.53-1.21-1.88-2.06-5.02-2.31-6.65-4.81-.4-.61-1.52-.79-.93-1.83.38-.68,1.06-.71,1.83-.6,4.21.64,8.43,1.22,12.64,1.83,1.07.16,1.84.65,1.8,1.94"/>
        <path class="cls-2" d="M132.44,227.76c-.06,1.27-1.02,2.91-3.01,3.21-1.72.26-3.25-.61-3.8-2.57-.74-2.59-2.09-4.86-3.8-6.94-.6-.73-1.4-1.66.2-2.25,4.22-1.55,10.57,3.2,10.41,8.56"/>
        <path class="cls-2" d="M666.81,248.47c-.27-.06-.91-.05-1.34-.34-3.38-2.34-4.14-.14-4.48,2.6-.13,1.08.39,2.46-1.08,2.83-1.49.38-1.65-1.19-2.3-2.02-2.14-2.76-1-5.55.57-7.78,1.48-2.1,3.76-2.07,5.79-.04.65.66,1.57.18,2.3-.36,1.61-1.19,2.21.55,3.08,1.21.88.68.78,1.77.29,2.7-.53.98-1.51,1.18-2.83,1.21"/>
        <path class="cls-2" d="M469.5,128.85c-.43,2.07-.96,4.54-.85,7.1.04.83-.11,1.85-1.18,1.93-1.13.09-1.21-.92-1.35-1.75-.04-.28-.03-.56-.06-.84-.59-6.02-.58-5.96-6.52-5.19-1.3.17-3.42,1.62-3.88-.75-.34-1.77,1.82-1.74,3.08-2.17,2.13-.73,4.25-1.47,6.41-2.11,3.74-1.11,4.58-.45,4.35,3.78"/>
        <path class="cls-2" d="M362.95,187.66c-.46-.1-1.32-.2-2.09-.49-1.47-.55-4.01-.13-3.96-2.23.05-1.68,2.43-1.4,3.83-1.91,2.27-.82,4.35-1.94,5.58-4.17.75-1.36,2.01-1.57,3.27-1.09,1.6.61,1.16,2.04.91,3.27-.75,3.59-4.13,6.69-7.54,6.62"/>
        <path class="cls-2" d="M32.52,254.27c-3.92-1.75-6.89-4.52-10.2-6.71-.62-.41-.97-1.64-.39-1.69,3.02-.3,4.44-4.73,8.41-2.88,2.25,1.05,4.11,1.01,1.39,3.81-2.2,2.27,1.07,4.61.78,7.48"/>
        <path class="cls-2" d="M1332.62,329.58c.36-1.44.33-3.05,1.35-4.3.78-.96,1.5-2.23,2.85-2.25,1.64-.03,1.61,1.66,2.15,2.71.44.86.7,1.81,1.09,2.71.67,1.55,1.59,3.21-.1,4.55-1.15.91-2.57,2.02-4.18,1.22-1.81-.91-3.02-2.43-3.16-4.63"/>
        <path class="cls-2" d="M261.18,182.6c-7.83-2.62-15.42-5.56-18.62-14.63,6.43,4.52,12.85,9.04,19.28,13.57-.22.35-.44.71-.66,1.06"/>
        <path class="cls-2" d="M213.78,188.95c6.16-.33,10.65.41,12.22,6.26.36,1.33,2.44,2.93.51,3.97-1.91,1.03-5.24.15-5.43-1.66-.46-4.36-3.89-5.78-7.3-8.57"/>
      </g>
      <g>
        <path class="cls-1" d="M1077.67,147.63c.69-.79,1.41-1.6,2.04-2.47.4-.55,1.02-1.03,1.67-1.53,1.28-.98,2.87-2.21,2.88-4.45.04-11.67.05-23.34.05-35,0-10.03,0-20.06.04-30.08,0-.86-.09-1.93-.82-2.65-.72-.71-1.76-.8-2.68-.78l-.97.02c-5.6.1-11.39.19-17.06-.05-1.39-.06-2.95,0-3.96.98-1.02.98-1.16,2.58-1.16,4.02.1,37.77.09,76.17.08,113.31v27.63c-5.49-9.1-11.3-17.93-16.94-26.5l-2.23-3.4c-21.78-33.17-45.26-69.06-73.89-112.95-1.46-2.23-3.11-3.12-5.71-3.07-7.06.15-14.03.15-20.72,0-1.07-.03-2.27.06-3.08.86-.82.8-.92,2.03-.91,3.12.08,11.5.07,23.19.06,34.49v11.47s0,24.62,0,24.62c0,36.58,0,74.4-.06,111.6,0,1.29.12,2.6,1,3.45.88.85,2.18.92,3.33.88,7-.26,12.34-.25,17.32.02.24.01.46.02.68.02,1.48,0,2.48-.31,3.17-.97.96-.91,1.15-2.32,1.15-4.17-.1-46.26-.07-93.3-.05-138.79v-2.12c0-.29-.02-.59-.04-.9,0-.11-.01-.21-.02-.31,8.32,14.28,17.52,28.09,26.43,41.46,3.33,5,6.77,10.16,10.11,15.27,11.11,17,22.47,34.24,33.45,50.91,8.08,12.27,16.16,24.54,24.22,36.82.96,1.46,2.02,2.75,4.47,2.73,6.96-.11,14.16-.11,21.41,0,.83,0,1.87-.07,2.59-.78.72-.71.82-1.78.82-2.72-.04-24.1-.05-50.01-.01-81.52,0-1.17-.07-2.27-.91-2.92-.82-.64-1.93-.45-2.7-.25-.46.12-1.88-.33-3.39-1.49-1.2-.92-1.6-1.66-1.6-1.83.17-.94.15-1.89.12-2.82-.06-2.12-.1-3.8,1.96-5.06.74-.46,1.37-1.46,1.64-2.63.28-1.2.13-2.34-.41-3.21-.93-1.49-2.91-2.07-4.91-1.45-.05.02-.1.03-.14.04,0-.12,0-.3.05-.57.39-2.55,1.97-4.35,3.64-6.24Z"/>
        <path class="cls-1" d="M583.4,137.84c-1.14-.03-1.91-.75-2.24-1.4-.22-.43-.41-.88-.61-1.32-.93-2.14-2.09-4.79-5.76-4.63-1.79.09-3.51-.26-5.32-.63-1.17-.24-2.38-.49-3.62-.61-.62-.06-1.04.34-1.33.62-1.31,1.22-1.64,4.35-1.47,6.18.15,1.53.62,2.56,1.4,3.04,1.3.82,2.43,1.85,3.63,2.95.81.74,1.63,1.49,2.51,2.17l-1.29-.9c-1.04,1.04-1.61,2.32-1.6,3.62,0,1.19.5,2.32,1.39,3.19l1.39,1.35.3-1.91c.12-.8.03-1.55-.06-2.27-.13-.99-.24-1.85.2-2.84.84.62,1.74,1.19,2.74,1.62-.86.64-.7,1.67-.64,2.07.02.12.05.3.04.35-.12.49-.22,1-.32,1.51-.29,1.47-.55,2.86-1.53,3.91-.2.22-.58.63-.84.8-.06-.11-.15-.31-.25-.64-.16-.56-.43-1.25-1.1-1.57-.68-.33-1.4-.1-1.88.1-1.11.47-1.38,1.13-1.41,1.61-.04.7.4,1.35,1.23,1.83.15.09.25.16.31.21-.07.11-.19.25-.27.34-.22.26-.47.56-.62.92-.34.33-1.71.92-2.34,1.08-.15-.19-.35-.61-.48-.87-.4-.83-.9-1.87-2.01-2.05-.68-.11-1.32.17-1.87.56-.59-.88-1.24-1.61-2.16-1.4-.66.15-1.03.71-1.26,1.54-.3-.3-.63-.51-.9-.69-.21-.14-.47-.31-.54-.41-.43-.65-.73-1.61-.58-1.91.03-.07.22-.13.46-.15,2.13-.17,3.27-1.41,4.28-2.51.59-.64,1.14-1.24,1.84-1.56,2.14-.97,1.31-3.58,1-4.57-.23-.73-.85-2.66-2.93-2.68-1.75-.01-2.26,1.33-2.56,2.05-.07.18-.14.35-.23.5-5.29,9.43-14.02,14.23-26.69,14.67-10.55.38-21.31.34-31.71.31-5.96-.02-12.12-.04-18.18.02-1.21.01-1.89-.11-2.18-.4-.29-.29-.42-.95-.42-2.03.13-18.49.13-37.92.01-59.4,0-1.07.11-1.7.38-1.96.26-.26.9-.39,1.94-.37,8.56.07,17.26.06,25.68.06,6.96,0,13.93,0,20.89.03,12.67.06,21.62,3.57,28.19,11.02l.81.92.74-.98c2.35-3.11.96-6.04-.16-8.39l-.25-.52c-.68-1.46-.61-1.81-.59-1.86,0-.01.24-.27,1.77-.33,2.17-.08,5.13-.2,6.96-1.65.99-.78,2.17-1.1,3.43-1.44,1.47-.4,3-.81,4.28-1.99.06-.06.13-.1.21-.14l-.37,1.7.64-.51c-.15.41-.33.76-.66,1.04-1.39,1.17-2.52,3.18-.03,6.16l.2.24c.62.72.67.78.28,1.47-1.15,2.02.55,4.29,1.28,5.27.51.68,1.1.9,1.68.9.72,0,1.41-.34,1.88-.58.26-.13.5-.25.69-.31.37-.11.73-.27,1.1-.42,1.24-.54,1.7-.65,2.39.07.66.7,1.89.41,2.26.25.52-.22.75-.58.85-.85.25-.66-.07-1.3-.2-1.58l-.38-.77c-2.2-4.49-4.47-9.12-8.67-12.5l.33-.79.28-.23-.17-.04.36-.86-1.28.64-.27-.06c-.2-.92-.91-1.52-1.38-1.91-.12-.1-.25-.21-.36-.31-10.26-9.85-22.73-14.97-37.07-15.22-16.79-.29-33.87-.24-50.38-.2-9.95.03-20.25.05-30.37,0-1.31,0-2.81.11-3.76,1.06-.94.94-1.07,2.39-1.07,3.81.08,45.72.07,92.21.07,137.17v28.91c0,1.52,0,3.04.02,4.56.02,3.67.04,7.46-.07,11.18-.03.95.04,2.14.83,2.94.79.8,1.98.89,3.02.87,5.96-.12,12.88-.22,19.71.03.14,0,.29,0,.45,0,1.03,0,2.19-.15,2.99-.92.86-.83,1.03-2.07,1.02-3.67-.11-23.67-.08-47.11-.05-69.78,0-.65,0-1.21-.02-1.69-.01-.75-.03-1.53.04-1.81.28-.07,1.08-.06,1.85-.04.51,0,1.11.01,1.81.02,6.04-.02,12.08,0,18.12,0,8.67,0,17.63.02,26.45-.04,9.08-.06,16.39-.96,22.99-2.81.61-.17,1.28-.28,2-.39,2.18-.34,4.85-.76,6.26-3.41,1.25.96,2.49.2,3.12-.19.16-.1.31-.19.46-.26,6.39-2.97,11.76-7.22,15.96-12.63.42-.54.88-1.07,1.34-1.61,2.23-2.6,4.75-5.53,3.7-9.93,3.18-1.56,3.72-4.42,4.2-6.94.2-1.07.39-2.08.76-2.98.44-1.06.39-2.16-.13-2.96-.35-.55-1.08-1.21-2.53-1.25Z"/>
        <path class="cls-1" d="M1266.15,255.78l-13.98-38.01c-10.86-29.52-21.71-59.04-32.58-88.56-2.9-7.89-5.83-15.76-8.79-23.73l-4.72-12.72-1.11,1.31c-.6.71-.99,1.47-1.34,2.14-.45.86-.8,1.54-1.43,1.91-1.49.89-2.4,1.1-3.05.72-.19-.11-.26-.15.09-1.14.12-.35.25-.71.32-1.1l.02-.11c.24-1.34.65-3.59-2.33-4.61-.92-.31-.96-.71-.72-2.3.12-.81.25-1.71.02-2.57.23-.12.63-.26,1.04-.32,2.3-.32,3.38-1.36,3.87-2.18.47-.79.89-2.15.15-4.18-.47-1.31-.98-2.61-1.49-3.9-.3-.77-.6-1.53-.89-2.3-.51-1.36-1.3-2.98-2.82-3.45-1.54-.48-3.17.46-4.41,1.32-1.68,1.17-4.53.8-5.01.44-2.46-2.32-5.07-2.02-7.37-1.75-.93.11-1.81.21-2.65.14-2.41-.2-2.71,1.87-2.87,2.98-.08.56-.16,1.14-.38,1.41-.45.55-.58,1.07-.4,1.56.27.73,1.04.87,1.49.95.09.02.18.03.26.05,2.41,2.59,4.61,1.05,6.07.02.28-.2.56-.39.84-.56,1.32-.81,2.59-.73,2.94-.55-.41,1.26.04,2.23.37,2.93.02.05.04.09.06.14-.05-.02-.1-.04-.15-.05-.75-.28-1.69-.62-2.46-.04-.72.55-.72,1.52-.65,2.2.09.99-.01,2-.12,3.06-.15,1.5-.31,3.05.13,4.57.12.4.15.65.16.81-.15-.03-.38-.1-.75-.25-1.31-.57-2.33-.6-3.1-.11-1.04.66-1.2,2.01-1.23,2.97-.03.85-.31,1.64-.67,1.9-1.16.83-2.76,1-4.4.47-1.88-.61-3.41-2.02-3.98-3.69-.68-2-1.46-4.28-3.69-6.11l-1.09-.89-8.15,22.22c-4.97,13.54-9.94,27.08-14.89,40.63-.06.17-.17.37-.27.57-.38.74-.85,1.65-.47,2.52.15.34.49.78,1.24.98.84.22,1.38.52,1.55.86.25.5-.12,1.43-.48,2.34l-.13.33c-.72,1.85-.74,3.68-.76,5.46,0,.37,0,.75-.02,1.12,0,.32,0,.64.02.97.05.81.06,1.33-.23,1.79-2.35,3.69-.45,6.56,1.23,9.1.19.28.39.58.59.87,1.27,1.84,2.57,3.74,2.04,5.6-.55,1.92-.59,3.57-.14,5.17.26.92.06,1.31-.53,2.44-1.81,3.49-4.3,6.74-8.05,10.55-.26.26-1.04,1.05-.96,2.05.03.39.2.95.86,1.44,2.2,1.63,3.75,3.02,3.72,6.1,0,.8.35,1.51.66,2.14.58,1.17.79,1.69-.09,2.54-.49.47-.71,1.32-.55,2.07.17.8.75,1.41,1.61,1.71.27.1,1.11.39,1.81-.08.66-.45.69-1.22.71-1.64,0-.05,0-.11,0-.15,1.06-2.62,2.06-5.2,2.79-7.83.42-1.51.96-1.91,2.55-1.9,22.05.06,44.69.07,67.3,0h.03c1.54,0,2.04.38,2.52,1.93.61,1.98,1.33,3.94,2.03,5.84.8,2.17,1.62,4.42,2.27,6.66.61,2.12,1.88,3.02,3.87,2.75,1.48-.2,2.72.34,4.77,2.06l2.67,2.24-1.07-3.32c-.13-.41-.29-.81-.43-1.17-.12-.31-.28-.71-.35-.98,1.89-.44,3.17-1.6,4.31-2.62l.17-.16c1.1-.99,1.88-.67,3.4.1.89.44,1.94.97,3.09.9-.14.4-.24.8-.33,1.18-.25,1.05-.41,1.53-.85,1.7-1.4.53-2.28,1.27-2.69,2.25-.4.98-.26,2.05.07,3.08-2.21.23-3.91,1.27-5.44,2.2-.99.6-1.92,1.17-2.92,1.49-1.29.41-2.12,1.03-2.54,1.88-.63,1.28-.12,2.67.37,4.01l.51,1.4c2.34,6.48,4.76,13.19,6.89,19.85.86,2.69,2.43,3.27,4.52,3.27.06,0,.11,0,.17,0,5.05-.07,10.19-.06,15.16-.05,1.97,0,3.95.02,5.92,0,2.53,0,3.68,0,4.32-.92.64-.92.25-2-.62-4.36ZM1155.81,180.62s-.12-.33.34-1.6c3.08-8.65,6.2-17.3,9.31-25.95,5.98-16.63,12.16-33.79,18.1-50.92.27.86.55,1.71.82,2.57,1.27,3.96,2.58,8.06,3.94,12.07l.94,2.79c6.56,19.43,13.35,39.53,20.16,59.24.48,1.4.42,1.74.4,1.79-.06.05-.38.23-1.8.21-16.91-.11-33.91-.11-50.53,0-1.43.02-1.67-.19-1.68-.2ZM1191.84,78.26c-.78.64-1.06,1.44-1.21,2.22-.8-1.08-.85-1.49-.81-1.64.01-.06.15-.36,1.39-.8.19-.07.51-.18.61-.18,0,0,.01,0,.02,0,.1.13.11.31,0,.39ZM1199.04,109.68c-.03-.08-.02-.35-.02-.51,0-.12,0-.24,0-.35-.03-1.69.03-2.93,1-3.41.97-.48,1.67.06,2.94,1.32.16.15.31.31.46.45.83.79.38,2.26.04,3.07-.88,2.09-2.8,3.1-5.42,4.32-.14.06-.19.06-.19.06-.12-.04-.4-.43-.56-.64-.1-.14-.21-.3-.35-.46.1-.03.2-.06.3-.09.72-.17,1.72-.5,2.12-1.41.44-1-.15-2.03-.34-2.35Z"/>
        <path class="cls-1" d="M421.79,235.04c-18.59.07-37.5.08-55.79.09-16,0-32,.01-48.01.06-1.17,0-1.81-.13-2.09-.41-.28-.28-.41-.94-.4-2.08.15-21.24.14-38.8-.02-55.26-.01-1.32.14-2.1.5-2.45.35-.36,1.14-.49,2.59-.5,15.97.06,32.21.07,47.91.08,14.05,0,28.11.01,42.16.06,1.75,0,3.03-.17,3.89-1.08.71-.75.98-1.86.88-3.58-.29-4.84-.29-9.99,0-15.28.07-1.26.02-2.68-.88-3.63-.91-.95-2.35-1.06-3.78-1.07-23.04.09-46.46.08-69.12.08h-19.27c-2.31,0-3.84,0-4.28-.41-.42-.39-.47-1.83-.55-4.01v-.38c-.03-.48.05-1.02.13-1.59.18-1.25.39-2.75-.42-4.12l.24-.12-1.04-.96.08-.11c1.01-1.41,1.09-2.97,1.09-4.32v-2.58c-.04-7.13-.07-14.5.03-21.74.02-1.14-.05-2.41-1-3.12-.08-.06-.16-.11-.24-.16,1.35-1.69,1.28-3.74,1.22-5.49,0-.24-.02-.48-.02-.72,0-.25,0-.5.02-.75.03-.55.05-1.12-.06-1.71-.21-1.12-.16-1.88.15-2.26.48-.58,1.98-.64,3.03-.64,19.05.07,38.42.08,57.16.08,14.41,0,28.81,0,43.22.04,1.51.02,2.73-.17,3.52-1,.66-.69.92-1.69.85-3.23-.24-5.33-.24-10.61,0-15.69.05-1.09,0-2.46-.87-3.37-.82-.86-2.11-1.07-3.69-1.03-28.48.07-57.44.07-85.44.06h-21.62s-5.7,0-5.7,0c-5.01,0-10.03,0-15.04,0h-.2c-.89,0-1.9-.01-2.62.71-.5.5-.74,1.23-.73,2.24.05,10.77.05,21.73.04,32.33v11.47s1.02-.02,1.02-.02c1.16-.02,2-.31,2.6-.91-.08.74,0,1.52.08,2.28.18,1.64.19,2.44-.46,2.74-3.36,1.56-3.3,4.07-3.25,6.1.01.53.02,1.02-.01,1.51-.07.84-.04,1.79.66,2.38.79.67,1.91.38,2.28.29,0,0,.02,0,.03.02-.12.09-.24.18-.35.27-2.78,2.52-3.14,4.37-1.7,8.62l.7,2.07c-.76.68-1.01,1.82-1.19,2.63-.04.18-.07.33-.1.45-.04.15-.12.33-.2.52-.37.92-.92,2.3-.22,3.48.43.72,1.24,1.17,2.4,1.35.04.1.08.25.11.35.1.35.22.75.49,1.08.16.2.15.38.09.9-.06.51-.14,1.21.25,1.92l.07.13c.26.48.57,1.03,1,1.49-.33-.17-.71-.28-1.14-.23-.62.08-1.16.47-1.66,1.19-.76,1.12-1.57,2.46-1.56,4.2.03,3.82.03,7.63.03,11.45,0,3.33,0,6.65.02,9.97,0,.06-.02.13-.03.19-.08.38-.2,1,.21,1.59.31.44.82.7,1.55.81.56.08.77.23.8.26.02.15-.24.55-.44.69-.86.11-1.46.4-1.83.89-.53.69-.4,1.5-.31,2.04.02.14.05.28.05.4-.02,9.39-.02,18.77-.02,28.16,0,12.94-.01,25.87-.05,38.81,0,.97.09,2.06.82,2.79.73.73,1.81.83,2.77.83h.02c47.05-.06,90.2-.06,131.92,0h.02c1.36,0,2.24-.27,2.84-.89.8-.81.84-2,.82-3.05v-.73c-.12-5.34-.22-10.87.04-16.27.07-1.39,0-2.95-.97-3.96-.99-1.03-2.59-1.18-4.04-1.16ZM304.37,168.54s-.03.03-.03.04c-.01,0-.05-.02-.11-.07.05.01.1.03.15.04ZM293.45,164.69s.06.04.09.06c.29.19.57.37.78.49.96.52,1.88.65,2.72.4,1.27-.38,2.01-1.54,2.46-2.37.2-.36.31-.72.34-1.06.56.31,1.18.53,1.84.64-.3,1.32-.26,2.52.12,3.49-.56-.03-1.08.26-1.56.55l-.1.06c-.58.37-.63.33-.83.17-.49-.38-1.23-.87-2.1-.66-.94.23-1.42,1.12-1.83,2.02-.21.45-.41.74-.56.9-.1-.15-.25-.45-.42-.99-.43-1.37-1.17-2.33-2.07-2.71.42-.23.83-.54,1.1-.99ZM303.56,110.45c-.02,1.34-.04,2.6-.4,3.8-.25.84-.65,1.11-1.66,1.14,0-.08,0-.18,0-.25,0-.3.02-.63-.06-.97-.79-3.28-3.39-3.29-5.11-3.29-.4,0-.78,0-1.14-.03-.78-1.38-.8-2.95-.81-4.61-.01-.97-.02-1.98-.19-2.98-.04-.27.01-.49.17-.71.3-.41.86-.64,1.09-.67.47-.06.96-.17,1.46-.28,2.2-.49,3.39-.66,4.2,1.34.43,1.06,1.3,1.69,2.57,1.86.42.06.68.31.7.39-.77,1.77-.8,3.54-.82,5.26ZM293.22,113.64c-.19,0-.36,0-.51.04.34-.49.71-.72,1.13-.81.01.04.03.08.04.12.06.17.15.43.19.61-.14.03-.4.06-.85.04ZM306.09,133.46c2.49.29,4.06,1.95,5.73,3.71.17.18.34.36.51.54l-.02.02.65.71c-.41.2-1.01.47-1.2.38-.01,0-.25-.12-.46-1-.22-.89-.93-1.52-1.56-2.08-.22-.19-.44-.38-.62-.58-.4-.43-1.35-1.45-2.76-1.01-.41.13-.69.32-.89.55.16-.37.29-.78.33-1.29.11.02.21.04.3.05ZM293.59,136.25c.37,1.4.98,2.8,2.25,3.24,1.49.52,3.07-.59,4.13-1.48.44-.37,1.15-.59,1.9-.82,1.05-.32,2.42-.77,3.24-1.89-.14.47-.09.94-.06,1.2.01.09.02.19.02.27,0,.54-.1,1.09-.21,1.68-.23,1.21-.48,2.58.16,4.13.39.94-.26,1.88-1.61,3.28-.6.62-1.44,1.14-2.34,1.69-2.04,1.25-4.71,2.91-4.05,6.52-.4-.37-.92-.56-1.23-.68-.21-.08-.49-.18-.57-.26-.55-.49-.84-1.06-.87-1.3.04-.02.11-.03.21-.05,1.98-.3,3.02-1.52,3.94-2.6.62-.73,1.16-1.36,1.92-1.66,1.02-.41,1.2-1.26,1.03-1.86-.22-.79-1.18-1.64-2.07-1.51-1.05.17-2.04-.2-3.18-.63-1.16-.43-2.45-.92-3.95-.81-.78-.45-1.49-.58-2.14-.42l.34-1.73c.53-2.71,1.44-4,3.15-4.33ZM294.22,158.02c1.24-.02,2.2-.39,2.78-1.03-.05.88.08,1.74.42,2.52-.13-.06-.26-.11-.38-.17-1.16-.57-2.43-.98-3.67-1.2-.11-.03-.38-.27-.55-.41.37.18.81.29,1.33.29.02,0,.04,0,.06,0Z"/>
        <path class="cls-1" d="M906.49,71.57c-.96-.93-2.41-1-3.71-.95-3.64.14-7.36.12-10.96.09-2.24-.02-4.47-.03-6.7,0-.74,0-1.35-.02-1.86-.03-1.31-.05-2.17-.08-2.83.55-.76.73-.76,1.86-.76,4.59v.36c0,17.96,0,35.93,0,53.89,0,20.96,0,41.91,0,62.87v.45c0,4.96,0,10.09-.91,15.03-2.01,10.96-6.76,18.79-14.52,23.93-6.76,4.49-14.54,5.75-22.05,6.97-1.46.24-3.12.08-4.88-.09-4.43-.42-9.91-.95-12.24,6.18-.23.11-.52.3-.65.67l-.04.11c-.19.51-.44,1.21-.14,1.87,2.12,4.67,1.44,8.38-2.16,11.7-.81.74-1.11,1.77-.78,2.61.16.42.75,1.4,2.6,1.4h0c2.5,0,4.94.06,7.65.14,1.26.03,2.5.05,3.73.05,12.71,0,23.79-1.85,33.78-5.64,23.51-8.91,37.03-27.55,38.07-52.49.63-15.08.48-30.44.33-45.28-.06-6.17-.12-12.55-.13-18.83h.21v-1c0-5.28,0-10.56,0-15.84-.01-16.25-.02-33.05.07-49.58,0-1.32-.11-2.8-1.08-3.73Z"/>
        <path class="cls-1" d="M800.14,249.61c-.14-.01-.24-.05-.31-.09,2.08-3.04-.05-5.03-1.47-6.35l-.42-.39c-.24-.23-.29-.31-.04-1.07.3-.89.57-1.8.84-2.7.51-1.7,1.04-3.45,1.72-5.08.86-2.06.53-3.56-1.13-5.18-3.32-3.24-5.91-7.22-7.72-11.81-2.91-7.41-3.29-15.02-3.28-21.49.03-18.92.03-37.84.03-56.76,0-21.23,0-42.45.05-63.68,0-1.31-.12-2.64-1-3.5-.88-.86-2.22-.93-3.28-.89-5.97.19-12.35.19-19.5.01-.96-.02-2.18.05-3,.85s-.93,2.01-.92,3.19c.04,23.89.05,47.78.06,71.67,0,14.47,0,28.93.02,43.4,0,.08-.02.17-.03.26-.08.56-.31,2.05,1.55,2.72l1.44.52-.11-1.53c-.14-2.07.82-2.65,3-3.77l1.13-.59c2.58-1.35,4.84-2.54,7.52-2.17.08.84.42,1.94,1.91,2.18.54.09,1.25.28,1.53.68.34.5.13,1.51-.08,2.49-.06.27-.11.54-.16.81-.4,2.24-1.84,2.57-4.57,2.99l-3.14.51,2.24,1.41c.85.54.92,1.12.99,2.28.01.21.02.42.04.63.22,2.36.63,6.76,5.8,6.9.07,0,.13,0,.17.01-.02.09-.07.23-.16.38-.65,1.12-1.8,1.77-3.01,2.46-.76.43-1.55.88-2.27,1.47l-.26.21c-1.09.89-2.59,2.1-2.33,3.69.09.55,0,.96-.12,1.12-.02.03-.06.07-.19.08-2.12.12-2.35-.3-2.4-.71-.17-1.31-.62-2.2-1.36-2.71-.97-.67-2.18-.48-3.01-.28-.22.05-.44-.03-.83-.18-.39-.16-.88-.35-1.47-.34l-1.12.04.28,2c.09.69.19,1.38.31,2.07.2,1.09.46,2.16.67,2.97,4.14,16.37,13.41,28.53,27.56,36.16.49.26.99.44,1.47.62.2.07.41.15.61.23l.96.38.35-.97c.36-.98.82-1.59,1.37-1.81.61-.24,1.49-.09,2.62.47.07.04.15.07.22.09-.15.2-.28.44-.35.72-.02.08-.08.13-.42.33-.45.26-1.14.66-1.44,1.59l-.3.91.9.34c.84.31,1.7.4,2.52.48,1.26.13,2.34.24,3.14,1.09.13.14.39.34.81.34.12,0,.25-.02.4-.06.82-.22,2.13-1.15,2.45-2.54.55-2.35.43-3.91-.4-5.05-.86-1.19-2.44-1.83-5.1-2.07ZM767.15,172.01c-.16.44-1.03,1.33-1.51,1.58-1.08-.54-1.77-1.67-1.93-3.13,1.1-.19,2.68-.11,3.45,1.56ZM779.51,174.08l-.21.1c-.06.03-.11.05-.16.07,0-.02,0-.04,0-.05-.01-.44-.03-.94-.28-1.39-.02-.03-.03-.05-.04-.08.92.25,2.58.74,2.84,1.07.02.07.02.12.02.13-.28.18-1.32.17-1.77.16h-.4ZM773.58,172.38c.11-.07.34-.1.55-.1.14,0,.27.02.36.05.23.63.02.89-.96,1.68-.06.05-.11.09-.17.14-.22-.94-.22-1.38.22-1.76ZM774.5,179.04c.05-.15.2-.28.44-.39.06-.03.1-.04.11-.05.1.06.32.29.48.47l.24.26c.29.31.61.59.92.86,1.15,1.01,1.58,1.38.79,2.81-.22.41-.23.42-.75.35-.75-.81-1.25-1.83-1.78-2.91l-.31-.63c-.16-.31-.2-.58-.14-.77Z"/>
        <path class="cls-1" d="M693.06,70.7c-12.17,0-24.34,0-36.51,0h-22.56c-11.86.02-24.12.02-36.18-.05-1.1,0-2.36.1-3.16.93-.8.83-.87,2.07-.84,3.05.18,5.65.18,11.11,0,16.25-.04,1.17.03,2.49.89,3.37.87.89,2.22,1,3.41,1,9.55-.06,19.27-.06,28.66-.07,8.68,0,17.66,0,26.49-.05,1.01-.01,1.59.11,1.83.35.24.24.35.82.33,1.78-.09,7.67-.08,15.46-.07,23,0,3.44.01,6.88,0,10.32,0,.22,0,.44,0,.65-.03,1.45-.06,2.96,1.09,3.61.3.17.62.24.95.24.92,0,1.91-.54,2.73-1.06.05-.03.19-.02.25-.05,2.73,1.55,4.75.32,6.71-.88l.42-.26c.34-.2.68-.43,1.03-.65,2.48-1.62,4.12-2.5,6.39-.15.84.87,2.18.99,3.79.35,2.2-.88,4.57-3.13,4.57-5.22,0-2.42.03-4.83.05-7.25.07-6.81.13-13.85-.19-20.77-.07-1.57.53-2.92,1.17-4.36.66-1.48,1.34-3,1.29-4.8.05-.05.11-.1.15-.15,2.36-2.62,1.62-5.42.58-7.81-.78-1.8-.42-3.93.78-4.54,2.01-1.04,4.73-1,6.91.1l.2.1c1.25.64,3.14,1.61,4.53-.36,1.49-2.11-.15-3.95-.93-4.84-1.57-1.78-3.17-1.78-4.76-1.78Z"/>
        <path class="cls-1" d="M133.1,137.06c-.26-.28-.62-.43-1.02-.43h0c-.2,0-.43-.02-.66-.05-1.01-.11-2.7-.28-3.72,1.39-.42.68-.5.82-1.97.15-1.68-.77-3.45-1.38-5.03-.66-.95.43-1.67,1.29-2.13,2.57-1.03-.44-2.09-.52-3.06-.6-.97-.08-1.88-.15-2.57-.53-.07-.07-.21-.34-.3-.52-.31-.62-1.14-2.26-3.06-1.45-2.02.85-1.81,2.79-1.69,3.95.03.29.06.57.06.84-.03,15.42-.03,30.84-.03,46.26v49.02c.01,6.74.02,13.71-.03,20.56,0,1,.05,2.12.83,2.87.74.71,1.78.74,2.5.7,1.76-.09,3.57-.08,5.33-.06,1.27,0,2.54.02,3.79,0,.07,0,.14.02.22.04.18.04.41.08.67.08.32,0,.68-.07,1-.33.41-.32.64-.83.68-1.53.21-3.69,3.16-5.12,6.02-6.5l.69-.33c2.69-1.33,3.97-2.52,3.96-5.71-.04-23.4-.05-46.8-.05-70.2,0-12.09,0-24.17-.01-36.26,0-.19.02-.42.03-.65.06-.96.13-1.96-.45-2.58Z"/>
        <path class="cls-1" d="M682.23,149.13c-.86-.56-1.87-.73-2.76-.87-1.6-.25-2.46-.45-2.83-1.88l-.37-1.03-1.02.36c-.25.06-.79.17-1.04.7-.17.36-.31.58-.41.71-.11-.13-.23-.3-.32-.42-.46-.63-1.23-1.69-2.41-1.34l-.56.17-.13.57c-.06.28-.09.6-.12.92-.02.29-.06.77-.15.87-1.17.19-1.96.61-2.43,1.29-.67.96-.45,2.11-.27,3.04.12.61.24,1.25.06,1.53-.45.69-.04,1.4.2,1.83.06.1.14.25.2.37-.26.13-.6.19-1.39-1.01-.46-.69-1-1.08-1.61-1.17-.93-.14-1.64.46-2.15.89-.16.13-.34.28-.44.34-.27.14-1.09.57-1.18,1.44-.08.85.58,1.38,1.01,1.74.1.08.2.15.26.22,1.12,1.32,1.74,2.47,1.8,2.87-1.78,3.04-.11,5,1.12,6.44.35.42.69.81.93,1.2.88,1.41.88,2.3.02,3.78-.19.33-.51.66-.85,1-.79.81-1.88,1.91-1.63,3.73l.05.41.32.25c.92.71,1.77.12,2.22-.29.04.09.08.18.12.28.49,1.14.48,1.35-.13,1.75-.86.56-1.8.92-2.8,1.29l-.21.08c-.12.04-.26.09-.4.13-.8.25-2.92.93-2.36,3.07.43,1.65.03,2.68-1.56,3.96-.36.29-1.32,1.06-1.22,2.1.03.33.2.94,1,1.38.62.33,1.23.7,1.84,1.06,1.97,1.17,4.01,2.37,6.38,2.74,2.65.41,3.84,1.6,3.86,3.85.03,2.8.02,5.61.02,8.41,0,1.62,0,3.23,0,4.85,0,.9-.04,1.29-.44,1.62-1.3,1.05-1.78,2.49-2.19,3.76-.19.58-.37,1.14-.62,1.63-.6,1.2-.37,2.35-.19,3.27.17.89.26,1.46-.06,2.01-.71,1.19-1.03,1.16-1.07,1.15-.1-.02-.18-.07-.25-.21-.12-.26-.08-.63.03-.83,1.05-1.9,1.54-3.24.72-4.06-.9-.9-2.37-.18-4,.76-.08.02-.3,0-.45-.01-.13,0-.26-.02-.39-.02-.86-.03-1.5.22-1.89.72-.24.31-.47.85-.24,1.66.21.73.59,1.17,1.15,1.32.12.03.23.05.36.04-.97.96-1.44,2.23-1.84,3.32-.34.92-.66,1.79-1.2,2.32-2.34,2.31-2.42,4.79-2.49,7.19-.02.55-.03,1.11-.08,1.67-.1,1.14.16,2.15.4,3.12.23.93.45,1.81.3,2.67-.59,3.32-.62,6.68-.65,9.94,0,.72-.01,1.45-.03,2.17-.01.78.06,1.76.72,2.44.67.67,1.63.74,2.29.74,7.82-.08,14.78-.08,21.29,0,.04,0,.07,0,.11,0,.74,0,1.74-.1,2.42-.82.71-.75.71-1.84.65-2.59-.07-.87-.05-1.75-.03-2.67,0-.42.02-.84.02-1.26v-8.76c0-30.65,0-61.29-.02-91.93,0-.23.03-.47.07-.72.12-.94.3-2.36-1-3.22Z"/>
        <path class="cls-1" d="M257.85,182.18c-.02-.15-.05-.3-.05-.44.02-3.36.02-6.72.02-10.09,0-4.09,0-8.18.04-12.26.01-1.45-.2-3.28-1.97-4.56-.57-.41-.83-.94-.77-1.57.06-.67.44-1.15.58-1.22,2.27-1.12,2.2-2.82,2.14-4.06,0-.19-.02-.39-.02-.58.02-13.78.02-26.44,0-38.71,0-.21.02-.43.04-.65.07-.88.17-2.08-.74-3.17l-.47-.58-.69.29c-1.31.56-2.73.6-4.07.57-1.18-.02-2.18.4-2.81,1.2-.64.81-.86,1.96-.57,3.06.46,1.76-.15,2.34-2.11,3.09-.85.33-2.36,1.08-2.81,2.42-.56,1.69-1.77,2.96-3.04,4.31-1.42,1.5-2.88,3.06-3.55,5.28-.07.25-.5,1.46-1.58,1.3-1.24-.18-2.15,0-2.78.56-.93.81-.92,2.13-.9,3.28v.39c.01,13.07.02,26.14.02,39.22,0,14.18,0,28.35.02,42.53,0,.15-.02.31-.04.46-.08.7-.21,1.87.87,2.82l.49.43c-.56.83-.46,1.71-.4,2.18.32,2.46-1.51,6.1-3.75,8.11.06-.49,0-1.06-.19-1.74-.18-.6-.67-2.61.47-3.46,2.8-2.08,1.32-4.32.52-5.53-.55-.83-1.01-1.71-1.5-2.64-.39-.74-.79-1.51-1.24-2.24-10.55-17.31-21.89-34.49-32.85-51.12-6.85-10.38-13.93-21.12-20.75-31.78-.95-1.48-2.52-2.51-4.31-2.81-1.78-.3-3.61.16-5,1.26-2.59,2.05-4.73,2.49-7.16,1.48l-.97-.4-.36.99c-.16.44-.51.55-1.61.67-1.19.13-3.17.36-3.48,2.82-.09.74-.35,1.52-2.36,1.44l-1.76-.07.85,1.55c.14.25.25.47.35.65.19.36.33.63.5.88,3.68,5.61,7.36,11.21,11.04,16.81,9.06,13.79,18.43,28.05,27.57,42.13,3.15,4.85,6.74,9.61,10.67,14.17.96,1.11,2.29,1.55,3.76,1.24,1.11-.23,2.46-.99,2.75-1.94.27-.9.33-.88,1.19-.7.42.09.89.19,1.41.13,1.2-.14,2.45.17,3.76.51,1.83.47,3.87.96,6.03.2l-.04.04c-.1.1-.22.19-.34.28-.45.35-1.39,1.08-.97,2.31.52,1.49,1.84,2.16,2.9,2.71l.18.09c.2.1.41.15.62.15.32,0,.64-.12.9-.34.48-.41.68-1.08.49-1.67-.45-1.38-1.25-2.55-2.46-3.58l-.44-.37c.22-.11.43-.21.65-.35.23-.14.8-.06,1.58.46,1.52,1.02,2.83,3.03,2.64,4.05-.4,2.18-1.83,3.61-4.26,4.25-2.64.69-3.73,2.46-3.26,5.26v.05c-.96.02-1.65.36-2.04.69-.67.58-1.05,1.45-1.08,2.52,0,.02,0,.04,0,.06-.38-.42-.83-.81-1.4-1.11-.53-.28-.59-1.03-.55-1.48,2.04-.52,2.98-2.12,3.75-3.42.21-.36.42-.71.65-1.04.12-.18.39-.4.64-.61.73-.61,2.08-1.75,1.09-3.43-.1-.17-.2-.35-.3-.53-.8-1.43-2.01-3.6-4.82-3.2-.43.06-.53.02-1.17-.65-2.86-3.04-5.58-.63-7.2.81l-.1.09c-1.77,1.58-2.11,3.96-.85,6.08,1.8,3.04,3.8,6,5.73,8.88l.44.65c.55.81,1.45,2.16,2.99,2.16.48,0,1.03-.13,1.65-.46l.92-.48c.65.29,1.37.38,1.82.44.48.06.89.43.99.78-.11.06-.3.13-.44.19-.32.12-.69.27-1.01.51-.1.07-.56.03-.77,0-.55-.05-1.7-.16-2.09.9l-.06.29c-.04.73.14,1.32.54,1.73.32.33.71.48,1.07.55-.59,1.45.25,2.33.65,2.74.07.08.15.14.2.22,4.64,7.32,9.45,14.71,14.1,21.85l1.04,1.6c.64.98,1.61,2.11,3.48,2.11h.03c8.08-.06,15.99-.04,22.67-.01.59.02,1.48-.07,2.1-.69.46-.46.69-1.13.68-2.04-.02-7.14-.02-14.29-.02-21.43,0-4.24,0-8.48,0-12.72v-.23c.02-.52.05-1.3-.49-1.85-.22-.22-.61-.49-1.24-.49h0c-1.55,0-2.64.99-2.76,2.52-.1,1.19.21,2.24.51,3.25.04.13.08.26.11.38-.52-.23-1.16-.44-1.95-.26-.47.11-.88.35-1.25.56-.88.5-.95.54-1.46-.26-.63-.98-.69-1.95-.76-3.07-.02-.3-.04-.6-.07-.87,0-.08.12-.29.19-.43.24-.46.96-1.86-.53-2.74-1.22-.72-2.64-.39-3.9.92-.31.32-.84.27-1.1.11.06-.19.28-.54.42-.77l.12-.2c.56-.91,1.23-2.26.67-3.42-.56-1.17-2.06-1.51-3.29-1.67-.71-.09-1.41.02-2.03.13-1.16.19-1.79.26-2.39-.4-.72-.79-1.44-1.09-2.15-.9.39-.44.76-.88,1.11-1.31,1.35-1.64,2.62-3.18,4.72-4.07,3.36-1.42,3.66-4.33,3.96-7.16.18-1.68.36-3.41,1.19-4.89l1.54-2.76-2.84,1.37c-.46.22-.8.39-1.06.52-.36.18-.55.28-.75.35-.69.24-.94.2-1.02.16-.1-.05-.2-.24-.28-.5-.05-.16-.07-.28-.09-.37.15-.02.35-.02.5-.02.18,0,.36,0,.56-.02.56-.04,1.5-.12,1.89-.88.13-.24.29-.75-.08-1.37-.18-.3-.14-.76-.09-1.29.09-1.03.22-2.58-1.5-3.71-.71-.47-1.22-1.99-.85-3.28.03.02.07.04.1.05.51.28,1.36.76,2.23.21.13-.08.25-.15.38-.23.15-.09.3-.18.45-.27.22-.14.43-.29.65-.43.61-.42,1.31-.89,1.7-.81.17.04.52.24.99,1.11.42.78,1.05.96,1.38.99.98.1,1.84-.65,2.38-1.3.73-.86,1.02-.89,1.06-.89.04,0,.13.05.31.29,1.19,1.61,2.51,1.38,3.53,1.01,1.66-.61,1.44-2.14,1.34-2.79ZM244.5,226.08c-.06.15-.23.25-.7.27-.12,0-.38.02-.56,0,.1-1.15.34-1.29.64-1.36.07-.01.11-.02.13-.02.06.09.14.3.2.45.08.21.17.44.3.66ZM232.69,230.38c-.45.04-.89.05-1.03-.07-.1-.08-.21-.37-.24-.92,0-.14-.02-.29-.04-.44.51.14.93.53,1.31,1.43ZM229.07,234.3c1.23,1.21,2.87,1.23,4.13,1.24.83.01,1.62.02,2.1.33-.21.1-.4.25-.54.42-.83,1.04-1.35.88-2.8-.23l-.13-.1c-.98-.74-1.95-.98-2.89-.98-.15,0-.31,0-.46.02.22-.2.42-.43.59-.71ZM226.68,230.94c-.09.28-.19.57-.23.85-1.33-1.33-2.93-1.81-4.47-2.27l-.72-.22c-.11-.08-.22-.61-.28-.9,0-.05-.02-.09-.03-.14,1-.08,1.87.4,3.04,1.1.86.51,1.74,1.04,2.8,1.26-.03.11-.07.23-.1.32ZM240.08,237.97c.1,0,.21,0,.31-.02-.06.02-.11.03-.16.04-.03,0-.08,0-.14-.02Z"/>
        <path class="cls-1" d="M1137.47,219.47c-.49-.8-1.01-1.63-.85-2.22.13-.49.74-.92,1.23-1.19l.42-.26.1-.44c.1-.45-.06-1.2-.35-1.61-.66-.9-.47-1.96-.09-3.59l.54-2.32-2.03,1.24c-.45.28-.86.53-1.24.77-.76.48-1.42.9-2.09,1.23l-.3.16c-1.14.6-1.67.79-2.25.32l-.53-.44c-2.75-2.25-5.35-4.38-5.43-8.19.02-.3.03-.61.03-.93l-2-.07c-.02.33-.03.65-.03.96-.16,2.26-1.02,3.86-2.65,4.99-2.71,1.88-3.83,4.62-4.83,7.5-1.66,4.78-3.45,9.61-5.19,14.28-1.03,2.77-2.06,5.53-3.07,8.31-1.78,4.91-3.54,9.84-5.33,14.89l-2.92,8.2h1.42c2.22,0,4.41,0,6.58-.01,5.77-.01,11.22-.03,16.75.06.05,0,.1,0,.15,0,2.47,0,3.8-.98,4.59-3.34,3.21-9.63,6.6-19.48,10.09-29.27.85-2.38.92-4.44.24-7.12-.17-.66-.56-1.29-.94-1.91Z"/>
        <path class="cls-1" d="M147.79,108.01c.06-.43.13-.76.18-1.04.11-.56.2-1.01.09-1.49-.83-3.66-.85-6.15-.05-8.6.06-.2.07-.37.07-.52.39-3.59.79-7.31-2.27-10.91-2.92-3.43-5.37-7.41-7.73-11.25l-.59-.95c-1.14-1.86-2.54-2.61-4.84-2.58l-2.59.03c-5.53.07-11.25.15-16.85-.08-1.61-.07-3.4.02-4.48,1.18-.81.87-1.09,2.17-.88,4.1.17,1.55.13,3.1.09,4.75-.04,1.41-.07,2.86.03,4.3.05.66.15,1.3.25,1.91.25,1.54.46,2.87-.13,4.31-.5,1.21-.5,2.22,0,3,.53.83,1.55,1.29,3.05,1.37,1.18.06,2.66.8,4.09,1.51.52.26,1.03.51,1.52.73,1.04.47,2.03,1.06,3.08,1.68,1.23.73,2.51,1.49,3.91,2.07.44.18.9.3,1.34.42,1.26.33,1.99.56,2.39,1.56.21.52.63.89,1.17,1.04.8.22,1.84-.08,2.78-.8,1.23-.94,2.23-2.06,3.2-3.13.77-.86,1.5-1.67,2.33-2.39.94-.82,1.84-.54,3.23,0,.41.16.83.32,1.24.42.07.02.11.04.12.04h0c.03.21-.18.93-.88,1.81-.63.79-.82,1.63-.53,2.26.11.24.47.8,1.38.82,1.85.03,2.51,1.14,3.6,3.25.26.5.53,1.02.84,1.55l1.45,2.47.4-2.83Z"/>
        <path class="cls-1" d="M744.53,71.47c-.74-.74-1.81-.82-2.76-.81-3.66.06-7.38.05-10.99.04-1.43,0-2.86,0-4.29,0h-1.24l.26,1.21c.06.28.04.75.01,1.21-.06,1.1-.12,2.34.89,2.93.08.04.16.08.24.11-.19.08-.38.18-.56.31-.06.03-.13.05-.21.07-.38.11-1,.3-1.29.94-.19.43-.17.92.08,1.46,1.04,2.26.31,4.41-.47,6.69-.28.83-.58,1.69-.78,2.55-.69,2.94.67,4.45,2,5.64.99.89,3.48,1.12,5.34,1.12.48,0,.91-.02,1.27-.04,2.1-.14,3.48-.56,4.08-1.27,1.41-1.64,3.13-1.68,5.11-.12,1.19.94,2.16,1.48,3.05,1.05,1.01-.48,1.02-1.79,1.02-2.94.01-2.37,0-4.73,0-7.1,0-3.45-.01-7.02.04-10.52.01-.73-.06-1.79-.8-2.53ZM729.96,75.22c.08.12.19.34.23.63,0,.02,0,.03,0,.05-.09.02-.24.04-.47.05-.27.02-.55,0-.83-.02-.06,0-.13,0-.2-.01.42-.19.85-.43,1.26-.69Z"/>
        <path class="cls-1" d="M232,114.19c.81.9,2.27,1,4.34.3.25-.08.27-.09.73.32.68.58,1.29.8,1.83.8,1.09,0,1.9-.88,2.37-1.39.12-.14.25-.27.38-.39,1.46-1.42,1.54-3.18.21-4.6-.26-.28-.5-.58-.75-.89-.81-1-1.75-2.18-3.29-2.55.54-.5,1.05-.47,1.76-.23,2.24.78,3.67-1.1,4.14-1.71.19-.25.76-1,.56-1.83-.18-.75-.85-1.07-1.25-1.25-.1-.05-.25-.12-.25-.1-.3-.45-1.21-1.81-1.04-2.41.1-.36.72-.8,1.87-1.33.2-.09.37-.2.52-.34.42-.39.6-1.45.64-2.7h.02s-.02-.04-.02-.04c.07-2.2-.27-4.96-.4-5.58-.17-.84-.43-1.65-1.14-1.9-1.92-.68-3.08-1.53-3.56-2.61-.44-.99-.34-2.25.31-3.83.17-.4.04-.76-.04-.94-.29-1.79,1.46-5.09,3.03-5.67.03-.01.05-.02.07-.02,2.42,2.74,5.52,3.61,9.22,2.57.92-.26,1.27-.07,1.49.16,1.84,1.83,2.99,1.07,3.4.67.91-.91.78-2.12.69-3-.03-.28-.06-.57-.05-.84.02-.65-.15-1.17-.52-1.55-.58-.6-1.4-.6-2.06-.6h-6.82c-4.61,0-9.21,0-13.82-.02-.74,0-1.56.08-2.17.68-.45.45-.67,1.09-.67,1.95.02,5.72.02,11.44.02,17.16,0,5.33,0,10.66.01,15.98,0,.62.15,1.16.28,1.64.22.78.37,1.35-.02,2.22-.78,1.72-.79,3.02-.03,3.86ZM239.1,93.23c-.13-.18-.29-.38-.46-.57-.14-.16-.35-.4-.44-.56.03-.02.07-.05.12-.08.84-.49,1.86-.83,3.39.99-.18.12-.34.24-.5.35-.48.34-.98.69-1.26.64-.1-.02-.39-.13-.84-.77Z"/>
        <path class="cls-1" d="M248.32,197.34c.41.95,1.26,1.67,2.59,2.2.33.13.65.24.98.34.82.27,1.53.5,2.13,1.07.71.66,1.34.85,1.82.85.29,0,.52-.07.69-.14.46-.2,1.24-.78,1.28-2.47.03-1.49.02-2.98.02-4.63v-4.43s-1.63,1.3-1.63,1.3c-1.53,1.22-2.02,1.04-2.03,1.04-.06-.02-.24-.24-.35-.91-.49-3.16-2.67-3.58-4.99-4.04l-2.35-.46,1.19,1.94c1.19,1.93,1.42,3.54.75,5.21-.47,1.17-.51,2.22-.12,3.12Z"/>
        <path class="cls-1" d="M717.12,70.69h-.09c-3.54-.01-3.91.06-5.7,2.47-.42.56-.84,1.53-.65,2.41.28,1.3,1.73,1.21,2.2,1.18h.18c1.67-.08,2.76.08,3.77,1.1.43.44,1.05.67,1.75.67.4,0,.83-.07,1.27-.22.97-.33,2.16-1.13,2.3-2.3.19-1.59-.13-2.87-.96-3.81-.88-1-2.25-1.5-4.07-1.51Z"/>
        <path class="cls-1" d="M657.4,196.29l-1.66-1.44v4.55c0,1.89.01,3.77,0,5.66-.02,1.98,1.49,2.41,2.21,2.61l.28.08c.19.06.38.09.57.09.4,0,.79-.13,1.12-.38.38-.28.68-.71.83-1.21.19-.6.06-1.26-.35-1.77-.36-.44-.86-.68-1.36-.64-.13.01-.23.02-.32.01.07-.14.19-.32.37-.56,2.55-3.33,0-5.55-1.69-7.02Z"/>
        <path class="cls-1" d="M257.83,80.65l-1.94-.33c-.31.9-.98,1.45-1.75,2.08-.44.36-.9.74-1.32,1.21-1.1,1.24-1.26,2.82-.38,3.83.68.79,2.05,2.13,3.58,2.24.04,0,.08,0,.12,0,.4,0,.77-.14,1.06-.41.67-.63.65-1.69.64-2.63v-.33c0-1.32,0-2.64,0-3.96v-1.7Z"/>
        <path class="cls-1" d="M1123.81,199.23s.07,0,.11,0c1.06-.06,2.08-1.02,2.61-1.94.15-.27.62-1.08.33-1.88-.27-.74-.97-1-1.43-1.17-.14-.05-.34-.12-.4-.17.04.03.09.12.09.18l-1.97-.32c-.08.37-.29.77-.52,1.2-.48.91-1.14,2.17-.23,3.4.34.46.83.71,1.39.71Z"/>
        <path class="cls-1" d="M659.27,154.45c.09.02.19.02.28.02.44,0,.89-.17,1.36-.52.38-.28,1.02-.87,1.09-1.76.04-.43-.05-1.07-.68-1.71-1.56-1.6-2.9-.5-3.55.03-.2.17-.4.33-.59.44l-1.72,1.02,1.85.77c.11.04.31.33.44.52.31.45.74,1.06,1.52,1.19Z"/>
        <path class="cls-1" d="M150.35,105.01l.67,1.42,1.01-1.2c.43-.51.89-.91,1.34-1.29.75-.64,1.53-1.3,1.89-2.35.27-.78-.4-1.28-.76-1.55-.08-.06-.16-.12-.22-.17l-1.17-1.05-.45,1.5c-.07.23-.38.41-.89.68-.77.41-1.93,1.02-1.96,2.55,0,.48.21.85.38,1.15.06.1.12.2.17.31Z"/>
      </g>
    </g>
  </g>
</svg>