<?xml version="1.0" encoding="UTF-8"?>
<svg id="Layer_2" data-name="Layer 2" xmlns="http://www.w3.org/2000/svg" viewBox="0 0 1128.97 647.24">
  <defs>
    <style>
      .cls-1 {
        fill: #e41f1b;
      }

      .cls-1, .cls-2 {
        stroke-width: 0px;
      }

      .cls-2 {
        fill: #bfbebf;
      }
    </style>
  </defs>
  <g id="Livello_1" data-name="Livello 1">
    <g>
      <g>
        <path class="cls-2" d="M345.67,419.87c-.66,5.32,4.67,8.06,4.95,13,.05.9.77,1.31,1.64,1.67,2.89,1.2,3.78,4.43,2.09,7.11-8.53,13.51-5.23,26.77,8.83,35.07,6.51,3.84,13.53,6.92,17.96,13.57,1.37,2.05,2.41.58,2.92-.84.95-2.64,1.64-5.37,2.59-8.01.7-1.93,1.87-3.54,4.22-3.53,2.33.01,4.05,1.14,4.99,3.26.62,1.4,1.05,2.89,1.56,4.35,2.46,7.14,8.78,11.95,15.34,11.61.97-.05,2.3.05,2.84-.52,3.64-3.82,7.48-.55,11.21-.5,1.35.02,1.41,1.15,1.54,2.13.42,3.13,2.38,3,4.14,1.53,1.7-1.42,5.37-1.49,4.08-5.52-.4-1.26,1.97-1.71,3.01-2.58,1.76-1.48,1.89.62,2.45,1.56.41.69,1.17,1.23,1.67.66,4.05-4.66,6.94-.3,10.09,1.29,3.63,1.83,6.96,2.65,10.44-.45,1.52-1.36,3.6-2.12,5.46-3.08.3-.16.79.05,1.53.13-.35,2.26-2.36,2.66-3.67,3.6-11.52,8.3-24.46,14.22-36.54,21.57-33.23,20.23-66.21,40.89-99.29,61.38-1.91,1.18-3.81,2.38-5.74,3.53-.71.42-1.53.95-2.31.26-.74-.66-.37-1.55-.19-2.37.51-2.33,1.92-4.19,3.79-5.41,3.19-2.08,4.31-5.34,5.69-8.55.9-2.09.43-3.53-1.53-4.54-2.23-1.14-3.18.21-4.29,1.94-5.3,8.23-10.55,16.53-17.54,23.51-3.38,3.37-7.63,4.35-12.34,4.8-.23-2.16,1.3-2.62,2.29-3.43,6.49-5.31,11.91-11.55,16-18.84,6.06-10.8,4.08-24.71-4.57-34.01-1.03-1.1-2.44-1.91-3.04-4.13,4.74.11,9.12-1.22,13.63-1.84,4.6-.64,7.87,1.2,9.97,5.35.85,1.68,1.58,3.94,4.23,3.18,2.57-.74,3.29-2.8,3.26-5.27-.03-2.67.02-5.34-.03-8.01-.06-3.43-1.58-6-4.84-7.19-2.9-1.06-4.71-3.06-5.57-5.89-1.07-3.49-1.82-7.09-4.59-9.79-.35-.34-.59-1.09-.47-1.55,1.42-5.68-1.7-10.01-4.17-14.57-.86-1.59-1.62-3.29-2.1-5.03-1.38-4.93-1.55-5.03-6.09-2.25-3.81,2.33-4.46,2.1-4.98-2.19-.23-1.9-.76-3.19-2.84-3.52-16.62-2.65-32.05-9.42-48.16-13.87-6.18-1.71-10.93,2.92-9.75,9.46.29,1.62,1.38,2.37,2.67,2.99,3.61,1.74,5.9,4.67,7.46,8.25,2.35,5.39,4.6,10.85,9.83,14.16-.8,1.36-1.93,1.07-2.82,1.32-9.27,2.66-12.52,6.5-12.95,16.19-.17,3.79-2.1,3.14-4.07,1.98-2.16-1.27-3.97-3.11-6.08-4.48-1.37-.88-3.21-2-4.45,0-1.24,1.99-.85,4.06,1.07,5.64.32.26.71.47,1.1.61,13.07,4.68,18.23,16.38,24.2,27.33.69,1.27,1.07,2.75-.23,3.87-1.42,1.22-2.91.56-4.28-.27-1.81-1.09-2.43-2.98-3.25-4.78-2.73-6.02-5.34-12.15-11.18-15.98-1.12-.73-2.38-2.1-3.73-.98-1.1.91-.28,2.43.12,3.56,1.24,3.46,2.37,6.91,2.28,10.64-.05,2.14,1.04,3.18,3.16,3.76,5.32,1.47,6.65,3.71,3.94,8.61-2.63,4.78-1.89,10.65-5.7,14.98-1.29,1.47-.6,3.77.2,5.66,1.05,2.45,2.1,4.91,3.08,7.39.56,1.42.77,3.28,2.83,3.07,1.91-.19,1.77-1.96,1.82-3.3.07-2.03,1.43-2.95,2.93-3.77,1.28-.7,2.5-.22,3.54.55.98.73.63,1.76.25,2.69-1.85,4.61-.72,8.79,1.8,12.8,2.11,3.36,2.67,6.92,1.83,10.89-1.4,6.66-4.03,12.54-9.24,17.08-4.57,3.98-8.06,2.87-9.21-2.98-.27-1.37-.27-2.79-.43-4.19-.23-2.03-1.24-3.52-3.36-3.73-3.2-.33-6.45-.12-9.61-1.03-1.13-.33-1.87.5-2.04,1.61-.21,1.38-.67,3,.41,4.03.99.94,1.62-.55,2.35-1.06,2.58-1.77,3.95-.58,4.54,1.97,1.49,6.41,1.62,12.79-.87,19.04-1.4,3.51-.9,4.23,2.81,3.98,1.11-.08,2.21-.38,3.32-.55,3.19-.48,5.97-.24,6.83,3.67.28,1.29,1.25,2.18,2.19,3.03,1.9,1.71,3.5,1.58,4.67-.83.24-.5.4-1.05.64-1.56.74-1.56.57-3.95,2.99-4.06,1.59-.08,1.81,1.5,2.11,2.73.59,2.39.4,5.05-2.01,5.8-4.25,1.31-8.74,1.89-13.15,2.63-4.79.81-8.49-1.09-11.33-4.9-1.26-1.7-3.03-1.98-4.92-1.5-3.19.8-6.43.64-9.65.52-5.43-.21-9.86-2.22-12.13-7.54-.9-2.11-2.17-3.12-4.59-2.32-4.08,1.35-7.73,0-10.33-2.98-5.07-5.78-11.14-10.61-15.73-16.83-.64-.86-1.66-1.51-2.61-2.06-7.17-4.11-11.83-10.21-14.42-17.98-1.38-4.13-2.45-8.38-4.15-12.37-3.27-7.67-7.75-9.39-15.09-5.55-10.7,5.59-21.17,11.62-31.81,17.35-7.66,4.12-15.22,8.55-24.27,9.03-6.36.34-12.31-1-17.8-4.17-12.41-7.17-24.78-14.4-35.12-24.54-11.01-10.8-17.8-24.04-22.39-38.58-.86-2.72-.18-4.98,1.57-7.02.91-1.06,2.01-1.97,2.95-3.01,2.69-3,2.74-5.81-.01-7.53-2.97-1.85-5.54-1.66-6.98,2.51-8.91-17.17-4.27-33.28,1.88-49.47,2.62,3.73,2.8,6.84.71,11.75-.55,1.29-1.42,2.46-1.85,3.78-.54,1.71-.33,3.55,1.4,4.42,1.71.86,2.44-.88,3.25-1.93,2.51-3.29,3.89-7.14,5.15-11.02.72-2.21,3.12-3.78.97-7.01-1.23-1.85.99-4.86,4-5.28,3.19-.44,6.43-.73,9.64-.73,3.88,0,5.11,1.85,5.25,5.84.31,8.86-1.1,17.65-.97,26.5.02,1.35.37,3.02-1.18,3.78-1.56.76-2.59-.57-3.67-1.41-.33-.26-.63-.58-.99-.79-1.18-.69-2.38-2.13-3.74-1.36-1.46.83-.56,2.6-.45,3.89.29,3.36,1.03,6.64,2.14,9.85,2.07,6.02,6.58,8.81,12.56,9.81,1.21.2,3.34-.48,2.98,1.82-.32,2.06-2.16,2.49-3.96,2.09-1.63-.36-3.19-1.05-4.79-1.58-.65-.22-1.37-.67-1.94-.01-.53.62-.14,1.33.18,1.95,1.4,2.76,2.66,5.6,4.24,8.24,3.94,6.57,7.04,7.92,14.71,6.72,4.51-.71,7.29,1.62,8.15,6.82.59,3.61-2.22,7.04-6.22,7.53-1.25.15-2.55.03-3.78.28-2.3.45-3.37,2.02-3.03,4.3.32,2.12,1.88,3.43,3.89,3,5.92-1.29,10.14,1.91,13.95,5.38,6.74,6.13,13.54,12.3,18.04,20.46.25.45.69.79,1.45,1.65,1.04-2.72,1.9-5.02,2.8-7.31,1.83-4.66,5.04-8.42,8.17-12.2,1.91-2.3,3.39-1.41,4.22,1.04.8,2.38.24,4.71-.52,7.02-.7,2.13-1.6,4.22-1.56,6.53.02,1.24-.18,2.72,1.27,3.29,1.66.65,3.03-.25,4.09-1.44,1.41-1.58,1.56-3.59,1.43-5.57-.18-2.73.73-4.89,2.79-6.7,3.97-3.47,5.5-8.13,5.6-13.18.18-8.98-.36-18.03,4.42-26.23.6-1.03.7-2.3-.39-3.06-6.97-4.9-8.54-12.98-11.6-20.06-5.57-12.9-10.81-25.94-18.81-37.61-.48-.7-.82-1.56-1.45-2.06-7.71-6.09-7.58-14.54-6.91-23.09.16-2.08-.57-3.16-2.13-4.53-2.91-2.56-5.31-5.68-8.12-8.78,7.28-3.17,13.87-8.16,20.19-13.47,7.08-5.95,13.56-12.65,21.64-17.36,2.18-1.27,4.36-2.67,6.72-3.5,3.11-1.09,3.98-2.66,2.44-5.64-.63-1.22-.87-2.63-1.63-5.01,3.74,3.2,6.65,5.84,9.71,8.28,9.11,7.26,19.39,11.16,31.17,10.8,3.64-.11,7.18-.18,5.16,5.47-.73,2.05,5.28,7.14,8.06,6.95,3.73-.25,5.13-2.47,4.21-6.1-.43-1.68,1.35-3.09.65-4.77-.24-.05-.39-.12-.52-.09-1.4.33-1.77,2.92-3.8,1.79-1.16-.64-1.23-1.7-.96-2.93.44-2.06,1.8-2.76,3.69-2.63,4.37.31,6.33-3.75,9.73-5.3,9.21-4.22,16.85-10.6,22.91-18.73,11.51-15.45,12.19-32.05,4.9-49.4-.16-.39-.43-.74-.55-1.14-.47-1.63-2.53-2.97-1.12-4.94.52-.73,1.53-.72,2.34-.32,1.89.93,3.65,2.65,3.3,4.51-.89,4.71,3.27,7.97,2.9,12.65-.19,2.42,1.8,4.83,5.65,4.86,2.71.03,3.4,3.43,3.86,5.98.17.94-.11,1.95-.14,2.94-.12,5.27-.11,5.31,4.95,4.94,3.02-.22,4.12,1.98,5.34,4.03.85,1.43-.05,3.64,2.37,4.48.86.3,0,1.92-.74,1.72-2.24-.6-5.04-.21-6.29-3.02-1.42-3.15-4.74-4.15-7.52-2.35-6.88,4.44-7.92,11.99-2.63,18.17,1.61,1.89,2.76,2.4,4.73.38,2.59-2.67,8.85-.88,9.49,2.81.32,1.84.74,3.09,2.34,4.03.87.51,1.17,1.48,1.31,2.52.19,1.38-1.77,3.01.36,4.12,2.12,1.11,4.41,2.39,6.81,1.64,4.77-1.48,6.2,3.83,9.9,4.59,1.02.21.37,1.99-.36,2.92-.93,1.17-1.12,2.56-1.16,3.97-.04,1.3.7,2.08,1.87,2.49.87.3,1.69.17,2.29-.55.75-.9.46-1.81-.07-2.72-.53-.9-1.88-1.82-.7-2.9,1.29-1.18,2.33.27,3.31.88,4.51,2.8,5.55,2.59,8.64-2,.56-.83,1.38-2.19,2.13-1.67,3.63,2.48,4.48-1.1,6.01-2.7,1.36-1.42,2.26-2.56,3.92-.51.84,1.04,2.05,1.39,2.72,0,1.41-2.92,5.02-4.23,5.52-7.79.09-.65.52-1.51,1.37-1.27,1.11.31.83,1.23.57,2.08-.62,2.03-1.6,4.49,1.52,5.05,2.78.5,5.33-.39,6.25-3.63.24-.85.04-2.35,1.52-2.01,1.47.34,1.92,1.69,1.39,3.02-.81,2.02-1.03,3.62,1.07,5.13,2.08,1.49,3.42.05,4.95-.76,1.91-1.01,3.92-1.94,6.04-1.26,5.2,1.67,10.8.74,15.97,2.83,1.8.72,2.64,1.38,2.32,3.22-.56,3.29.16,5.79,3.71,6.95,1.02.33,2.39,1.56,1.78,2.5-2.08,3.19,2.83,5.45.9,8.53-.26.41.46,1.35,1.23,1.45.81.11,1.29-.59,1.53-1.21.48-1.26.8-2.58,1.19-3.88.37-.04.74-.08,1.11-.11"/>
        <path class="cls-2" d="M895.53,271.78c-13.8,6.54-27.59,13.11-41.43,19.58-2.43,1.14-4.93,1.23-7.72.31-5.05-1.67-10.31-2.71-15.47-4.08-2.28-.6-3.78-.11-4.52,2.34-1.13,3.75-3.61,5.68-7.69,5.96-3.6.24-6.35,1.68-4.83,6.24.56,1.67-.47,2.93-1.55,4.11-4.16,4.56-10.26,4.59-15.49,6.63-.49.19-1.46-.2-1.9-.64-3.23-3.2-6.46-1.92-8.9.61-3.38,3.5-8.74,5.17-9.75,11.02-.42,2.42-3.37,3.23-5.57,4.09-6.28,2.46-12.5,5.09-19.05,6.78-3.95,1.02-7.81,2.29-11.4,4.3-1.19.67-3.23,1.71-3.76.24-1.49-4.08-4.42-2.16-6.93-2.25-1.9-.07-3.07.95-3.21,2.65-.25,3.2-2.59,4.47-4.86,5.87-5.01,3.07-10.22,5.86-14.51,9.99-.61.59-1.32,1.21-2.22.87-1.09-.4-1.42-1.51-1.23-2.45.68-3.39.8-6.43-3.03-8.16-.33-.15-.2-1.29-.34-2.48-2.49,2.28-4.73,2.1-7.06,0-1.55-1.4-3.43-1.38-5.51-.55-3.49,1.4-4.73.31-4.14-3.41.55-3.47,1.25-6.97,2.84-10.12,6.55-13.02,5.54-25.85.1-39.03-8.17-19.8-22.6-32.75-42.24-40.45-2.91-1.14-3.91-1.13-3.5,2.59.59,5.37-6.22,11.09-11.59,10.37-1.24-.17-1.6-.96-2.02-1.85-.47-1-.8-2.31-2.3-1.91-1.24.32-1.67,1.4-1.75,2.61-.06.99.87,2.37-1,2.63-.88.12-1.7-.19-2.21-.95-.76-1.15-.1-2.13.5-3.1.81-1.32,1.48-2.74,2.42-3.95,1.18-1.52,2.2-2.74.32-4.6-1.01-.99-.58-2.69-.32-4.07.58-3-.04-5.87-1.01-8.66-1.17-3.35-2.47-6.47.67-9.71,1.54-1.59-.7-5.89-3.16-6.69-1.05-.34-2.18-.47-3.21-.86-1.27-.48-3.04-.68-3.18-2.36-.15-1.75,1.25-2.84,2.76-3.31,1.86-.57,1.53-1.91,1.8-3.29,1.2-6.03-.3-12.8,4.23-17.93,2.83-3.21,3.83-7.69,8.91-9.48,4.34-1.53,7.1-6.17,9.83-10.1.97-1.4.56-3.01-.3-4.39-1.18-1.9-2.39-3.8-3.73-5.59-.92-1.23-2.52-2.38-.97-3.92,1.53-1.51,2.99-.2,4.5.62,4.33,2.36,8.32,5.61,13.99,3.69,3.56-1.21,5.41-3.82,7.05-6.65.96-1.65,1.38-2.32,3.42-1.43,4.72,2.06,7.83.96,10.54-3.17.68-1.03,1.31-2.79,2.62-2.42,2.93.84,2.89-1.17,3.14-3.11,2.33.67,2.25,5.3,5,3.45,2.27-1.53,4.62.19,6.31-1.04,3.47-2.54,4.27-6.56,4.13-10.53-.07-1.88-.56-3.52.97-5.01,1.2-1.16.28-2.06-.57-2.81-2.66-2.36-4.96-5.44-9.21-4.78-.8.13-1.48-.2-1.55-1.02-.11-1.2.77-1.28,1.68-1.23.98.06,1.96.17,2.93.08.9-.08,1.6-.64,1.7-1.59.08-.83-.52-1.2-1.26-1.41-6.06-1.69-7.51-7.42-10-12-1.12-2.06,1.5-4.79.78-7.43-.02-.05.21-.25.31-.24,7.34.29,7.9-8.52,13.92-10.38,1.83-.57,2.89-.98,4.36.12,5.66,4.26,6.81,10.68,8.03,17.01.23,1.2-.35,2.63,1.22,3.19,1.63.58,2.96,0,4.12-1.3,1.11-1.25,1.66-3.81,4.06-2.74,2.18.98,3.21,3.1,3.41,5.48.26,3.11.41,6.95-1.7,8.78-2.2,1.92-5.16-.93-7.61-2.09-4.19-2-8.27-4.24-12.88-5.13-1.29-.25-3.08-.83-3.75.82-.57,1.4.92,2.25,1.93,2.9,3.53,2.29,5.18,4.72,1.52,8.38-1.33,1.33-.2,2.63.99,3.52,1.64,1.22,2.67.3,3.17-1.26,1.28-4.04,4.49-3.66,7.6-3.36,3.27.32,5.92,1.35,6.58,5.24.34,2.03,1.47,3.92,2.2,5.89,1.48,3.96,1.77,7.79-.3,11.79-1.65,3.18-1.24,7.12-3.51,10.22-.86,1.17.21,2.42,1.44,3.06,2.35,1.22,4.63.76,6.83-.47,2.12-1.2,2.82-2.93,2.21-5.33-.71-2.82-.11-5.6.67-8.31,2.11-7.33,3.47-14.47-5.06-19.62,3.06-1.45,5.03-.09,7.01.61,4.63,1.65,6.88.47,7.83-4.39.49-2.51.41-5.06-.55-7.48-1.96-4.96-3.76-10.01-6.04-14.82-3.11-6.59-8.28-11.24-14.87-14.34-1.02-.48-2.59-.29-2.51-2.25.1-2.35-.79-3.28-2.99-1.54-1.02.81-2.4.24-2.35-.64.2-3.72-2.61-6.8-2.02-10.56.26-1.69,1.08-1.82,2.3-1.06.83.52,1.49,1.31,2.34,1.78,4.22,2.37,6.93,1.42,8.55-3.01,1.53-4.16,3.54-6.66,8.49-8.47,4.35-1.59,9.7-.47,13.41-4.34,1.18-1.23,3.5-.07,5.27.37,2.98.75,5.35-.03,6.43-3.1,1.12-3.17,3.59-5.99,1.72-9.89-1.02-2.14,1.3-2.76,2.89-3.22,5.12-1.49,10.29-2.84,15.41-4.36,16.72-4.96,33.21-10.56,49.21-17.55,2.48-1.08,4.46-2.37,4.68,2.36.17,3.66,4.15,5.11,7.28,5.19,4.36.11,5.48,2.23,5.57,5.88.02,1.09-.29,2.42,1.01,2.97,1.15.49,1.61-.84,2.42-1.27,2.29-1.2,4.74-1.98,3.9-5.61-.28-1.21,5.38-1.36,7.16.16.74.63,1.22,1.55,1.93,2.22,1.81,1.74,3.68,2.72,5.67.18,1.72-2.2,3.56-1.4,4.95.19,5.03,5.75,10.98,10.41,17.77,13.65,3.94,1.88,8.74,3.36,12.96,2.96,6.8-.63,11.74-7.57,11.9-14.5.14-5.79,1.23-6.48,6.09-3.57,1.36.81,1.94.36,2.75-.65,2.99-3.74,5.3-3.5,7.4.9,3.27,6.88,5.78,14.02,6.81,21.62.26,1.95.59,3.88.88,5.83.14.96.06,2.16,1.34,2.3,1.25.14,2.15-.67,2.56-1.81.69-1.92.44-3.88.03-5.82-.4-1.89-.73-3.77.14-6.2,3.68,3.72,5.53,7.81,6.56,12.34.34,1.49-.02,2.52-1.86,2.39-1.55-.11-2.8,1.09-4.48.85-2.15-.3-2.87,1.11-2.02,2.91.89,1.9,1.17,3.54-.81,4.76-1.75,1.08-3.52,2.66-5.79,1.37-4.07-2.29-7.28-1.48-11.62.58-3.64,1.73-9.12,4.59-13.61,0-1.04-1.06-1.97-1.06-2.39.61-.07.27.02.67-.15.81-5.7,4.91-2.42,10.61-1.44,16.09.25,1.4.59,2.81,2.29,3.17,1,.21,2.85-.25,2.43,1.38-.47,1.8-.8,4.55-2.49,5-1.88.5-3.37,1.03-4.54,2.52-1.05,1.33-2.39,2.31-4.71,3.55,4.21.28,4.01,6.2,8.78,4.97-2.87,1.28-5.78,2.49-8.62,3.84-18.57,8.76-36.19,19.3-54.29,28.95-6.07,3.24-12.29,6.2-18.43,9.32-1.74.89-3.54,1.74-5.11,2.88-1.32.96-2.96,2.27-2.2,4.12.75,1.83,2.74,2.42,4.63,2.29,2.09-.14,4.2-.46,6.24-.97,6.13-1.55,12.25-3.15,18.33-4.88,3.34-.95,6.58-1.81,8.13-5.82,1.1-2.85,4.37-2.6,7.08-2.38.82.07,1.8.26,1.82,1.34.02,1.04-.95,1.25-1.72,1.57-1.41.59-4.22-.12-3.82,2.1.32,1.79,3.1,1.18,4.8,1.64,5.84,1.57,10.44.49,14.55-4.45,2.27-2.73,6.49-3.15,10.03-4.05,9.8-2.51,19.61-5.02,29.44-7.41,1.43-.35,3.37-2.33,4.45.78.99,2.85,3.05,5.71-1.12,7.75-4.96,2.42-10.17,4.03-15.66,4.71-2.22.28-4.46.59-6.61,1.18-3.52.96-5.35,3.47-5.6,7.08-.14,1.96-.04,3.93-.13,5.9-.13,3.15-1.78,4.72-4.94,4.11-2.37-.45-4.73-.64-7.12-.48-.42.03-1.01.21-1.24.01-2.96-2.61-5.86-4.68-9.59-1.05-.57.56-1.32-.72-1.9-1.3-2-2.01-4.67-2.69-6.98-1.53-2.42,1.21-4.32,2.29-6.81.36-.98-.77-1.38.43-1.75,1.15-.49.93-.85,2.07.28,2.58,1.59.71,3.08,2.19,5.05,1.46,1.67-.62,3.19-.85,3.53,1.37.31,2.05-1.28,2.5-2.91,2.82-9.31,1.81-17.99,5.4-26.59,9.31-7.8,3.55-15.53,7.29-23.76,9.79-3.49,1.06-7.02,1.99-10.57,2.85-8.27,1.99-15.7,5.84-21.45,11.95-6.94,7.39-14.32,13.39-24.77,14.62-1.61.19-3.16,1.13-4.68,1.86-.97.46-2.37.97-1.88,2.35.41,1.18,1.82,1.3,2.93,1.19,1.52-.16,3.04-.51,4.52-.93,2.16-.62,4.25-1.55,6.43-2.01,2.01-.42,4.54-1.18,5.92.75,1.43,2.01-.86,3.59-1.86,5.13-4.57,7.07-9.49,13.83-15.66,19.7-10.1,9.61-21.17,7.98-31.44,2.47-.49-.27-.94-.62-1.43-.89-.84-.45-1.72-1.32-2.67-.57-.97.77-.26,1.83-.01,2.74,2.13,7.72,4.46,15.37,6.21,23.2,2.97,13.3,5.15,26.74,7.38,40.17.21,1.24.11,2.86,1.26,3.43,1.58.79,1.92-1.16,2.75-1.94,5.75-5.44,12.92-8.05,20.44-7.48,12.78.96,21.62-5.02,29.57-13.87,5.08-5.65,11.89-8.29,19.31-9.46.86-.14,1.75-.29,2.31.52.85,1.21-.02,2.08-.73,2.96-.87,1.07-2.18,2.11-1.3,3.66.66,1.17,1.99,1.53,3.31,1.44,1.81-.12,2.8-1.33,3.17-2.93,2.9-12.59,12.73-17.96,23.44-22.12,7.24-2.81,14.8-4.51,22.69-2.74,1.73.39,3.29-.09,4.7-1.27,3.53-2.94,7.47-2.75,10.91-.31,5.18,3.67,10.4,3.4,15.46.6,3.68-2.04,7.78-.84,11.41-2.43.36-.16,1.39.22,1.44.46.84,4.84,4.24,2.54,6.86,2.88"/>
        <path class="cls-2" d="M216.76,224.09c6.49-1.7,13.02-3.28,19.47-5.12,22.72-6.48,44.59-15.52,67.19-22.31,31.88-9.58,63.36-20.53,95.7-28.56,16.44-4.09,30.55.31,42.39,12.17,3.69,3.69,6.44,8.15,8.56,12.94,1.96,4.42,4.97,7.86,9.52,9.63,8.78,3.43,13.52,10.21,15.84,18.93,1.41,5.29,2.3,10.71,3.67,16.01,1.3,5.01,2.17,5.44,7.07,4.1,1.22-.33,2,.03,2.39,1.02.56,1.43.97,2.83-.69,4.1-3.85,2.96-3.33,11.9.95,14.44,1.65.98,2.54,1.67,2.37,3.77-.18,2.19,2.09,2.28,3.53,3.01,1.33.67,2.48,1.51,1.98,3.24-.51,1.78-1.86,1.86-3.38,1.52-.55-.12-1.12-.22-1.67-.18-1.57.12-3.77-1.49-4.58.51-.78,1.91,1.97,1.17,2.82,2.25,1.89,2.4,3.85,4.57,1.75,7.81-.37.56-.78,1.38-.64,1.95,1.33,5.38-.91,9.48-4.26,13.42-1.73,2.04-1.96,4.2.22,6.7,2.66,3.05,1.38,7.23,1.71,10.92.11,1.22-.64,2.83.88,3.32,3.66,1.19,2.92,3.48,1.85,5.99-.34.8-.61,1.78-.02,2.42,3.41,3.74-.02,4.57-2.41,5.9-18.19,10.14-35.87,20.91-50.93,35.61-7.78,7.59-17.63,12.51-27.15,17.59-16.53,8.81-30.71,20.15-41.24,35.78-.39.58-.91,1.06-1.38,1.6-1.65-.1-.99-1.78-1.83-2.48-2.84-2.37-1.08-4.01,1.26-4.85,2.9-1.04,2.57-2.37,1.11-4.36-1.76-2.39-3.53-4.75-6.35-5.97-2.2-.95-3.03-2.69-2.28-4.76.91-2.5.47-5.32,2.11-7.65,1.29-1.84.14-2.46-1.67-2.5-7.12-.15-10.82-3.53-12.14-10.68-.53-2.87-1.18-5.48-5.52-5.32-3.32.13-5.23-3.71-8.25-5.21-8.49-4.2-16.68-8.93-26.83-6.47-2.65.65-5.57.36-8.36.2-2.45-.14-3.65-.99-1.85-3.75,1.82-2.79,3.42-5.92.73-9.25-.32-.4-.58-1.12-.46-1.58,1.21-4.46-1.56-7.14-4.39-9.7-2.23-2.02-2.92-3.83-.55-6.31,1.93-2.01-.83-2.14-1.61-2.84-4.34-3.95-7.39-3.68-11.29.63-1.4,1.55-2.55,3.99-5.45,2.3-2.56-1.49-2.21-3.63-1.51-5.89.81-2.64,2.39-5.59,2.45-7.8.12-4.55-.14-7.72,5.64-8.37,1.25-.14,2.97-3.64,3.01-5.62.11-5.08,2.72-9.45,3.25-14.53.47-4.58,1.68-10.73,7.58-13.08.87-.35,1.56-.92,1.37-1.85-.87-4.16.55-8.2.52-12.29-.02-3.22-2.24-5.72-4.5-7.71-2.51-2.21-5.47-3.92-8.33-5.69-2.73-1.69-5.37-3.28-8.98-1.63-2.34,1.07-10.62-3.62-11.47-6.5-.89-3.01-2.77-4.72-5.18-6.29-.91-.59-1.82-1.44-2.29-2.39-1.33-2.7-3.28-2.94-5.96-2.32-2.52.59-5.09,1.54-7.77-.01-1.45-.84-2.37.4-2.61,1.8-.45,2.65-2.09,2.48-4.08,1.97-3.16-.8-5.99-1.86-8.43-4.35-2.9-2.97-6.85-4.62-10.71-6.23.03-.38.07-.75.11-1.13"/>
        <path class="cls-2" d="M453.54,181.35c1.48-1.18,1.88-1.56,2.34-1.84,2.01-1.21,4.91-1.99,4.62-4.85-.27-2.67-3.1-3.53-5.27-4.34-5.87-2.18-7.56-7.3-8.77-12.49-.81-3.45,1.27-6.15,4.24-8.03,4.66-2.96,9.83-4.83,14.93-6.81,27.89-10.84,55.78-21.66,83.69-32.44,1.61-.62,3.35-1.79,4.98.17,1.71,2.05.47,3.43-.73,5.16-3.47,4.98-3.32,15.28.11,20.21.81,1.17,1.79,2.28,3.26,2.51,1.92.3,3.39,1.12,4.51,2.74.86,1.25,2.19,1.73,3.71,1.46,3.57-.63,4.88,1.51,4.26,4.37-.44,2.03,2.51,3.58.15,5.77-1.99,1.84-3.64,3.04-6.55,2.23-2.72-.76-4.24.25-2.67,3.35.38.75.64,1.56.96,2.34,2.46,5.98,2.85,6.09,8.15,2.31.63,3.42-.16,5.68-3.04,6.46-2.84.77-4.28,2.18-4.69,5.06-.24,1.72-1.72,2.68-3.37,2.64-2.91-.06-6.19.36-8.65-.81-4.66-2.22-6.42.55-7.49,3.76-.94,2.82-2.61,4.27-5.15,4.82-4.06.88-8.05,2.33-12.31,1.92-2.06-.2-4.73-.24-4.9,1.96-.2,2.64-6.39,3.92-1.46,7.97,1.35,1.1,1.63,5.75-1.12,8.34-2.09,1.96-2.11,3.7.84,5.17,2.09,1.03,2.11,7.56-.02,10.66-1.32,1.92-2.24,3.88-2.57,6.13-.31,2.14.27,4.18,2.43,4.83,4.62,1.38,3.53,4.56,2.31,7.36-1.1,2.52-2.78,4.81-5.22,6.45-2.7,1.82-4.97,1.44-6.43-1.39-1.54-2.97-10.66-6.58-13.9-5.49-4.56,1.52-5.38.59-6.48-3.88-3.53-14.36-7.7-28.51-18.51-39.49-1.8-1.83-3.2-3.91-4.53-6.06-2.52-4.03-5.52-7.44-11.64-8.21"/>
        <path class="cls-2" d="M181.11,231.23c4.78-1.06,9.4-3.12,13.38,1.97,1.96,2.51,3.25.43,3.88-1.79,1.36-4.76,4.92-6.09,8.9-2.97,3.77,2.97,7.52,5.17,12.56,4.13,1.25-.26,2.75.3,3.4,1.35,2.93,4.65,8.53,5.17,12.44,8.28.89.71,2.03.82,3.21.66,3.25-.44,6.09.83,8.73,2.47,2.6,1.62,5.15,2.91,8.26,1.48,1.85-.85,2.57.18,2.9,1.81.68,3.42,4.1,6.26,2.12,10.3-.34.71.57,1.54,1.44,1.81,1.32.41,2.61.23,3.37-1,1.87-3.03,3.55-3.64,5.89-.29,1.24,1.78,3,.88,4.33-.77,1.53,2.65,1.08,4.16-1.74,4.75-.93.2-2.12.22-2.03,1.63.07,1.05.67,1.99,1.6,2.32,1.55.53,2.71,2.63,4.44,1.83,1.57-.73.47-2.5.47-3.83,0-2.45,5.58-6.76,8.02-6.25,1.05.22,1.22.97,1.13,1.91-.35,3.45-2.26,6.58-2,10.2.04.54-1.62,1.56-2.62,1.77-5.52,1.15-9.73,3.82-11.82,9.29-.84,2.21-2.55,2.99-4.18,1.17-3.03-3.39-3.55-.59-4.34,1.53-.71,1.9.75,4.35-2.13,5.85-1.03.54.69,2.91,1.63,3.86,2.36,2.37,5.05,4.37,5.67,7.97.22,1.27,1.94.8,2.52,1.79-3.6,2.62-5.94,6.77-10.89,7.55-1.91.31-2.59,2.52-2.09,4.5.74,2.93-.41,3.95-3.23,3.57-.27-.04-.6-.05-.83.06-6.72,3.13-13.66,1.06-21.79,1.12,4.8-2.57,2.24-7.18,4.97-10.03.94-.98-.56-2.96-2.16-3.51-2.07-.71-4.45-1.93-6.21.37-2.12,2.75-5.54,4.33-6.8,7.85-.41,1.13-1.34,2.51-2.7,2.35-1.75-.22-1.09-1.99-1.29-3.12-2.97-16.91-7.95-33.05-18.07-47.21-12.15-17-28.43-26.25-49.59-26.4-3.44-.02-6.93.42-10.72-.43,1.29-2.37,3.41-2.84,5.26-3.55,7.54-2.9,15.51-3.86,23.43-5.03,1.79-.27,3.2.48,4.62,1.57,2.18,1.68,4.16,3.79,7.22,3.96,1.59.09,1.4,1.49,1.6,2.55.24,1.24.41,2.99,1.91,2.83,1.96-.21,3.42-1.81,4.78-3.22.83-.87,1.23-2.4.23-3.03-2.66-1.67-3.41-5.48-7.08-5.96"/>
        <path class="cls-2" d="M510.46,315.1c1.95-.51.25,3.04,2.01,2.03,1.91-1.1,2.84-3.34,3.71-5.37.21-.5-.66-.94-1.21-.81-2.98.69-4.33-3.06-7.5-2.58-1.25.19-.96-1.98.33-2.25,3.58-.75,6.24-3.08,9.3-4.76,3.08-1.69,4.84.77,6.88,2.5.9.77,1.53,3.53,3.27,1.56,1.4-1.58,3.74-3.93.72-6.07-3.02-2.14-3.37-4.46-1.72-7.53,1.5-2.8-.62-4.87-1.92-6.85-1.45-2.21-1.39-3.9.61-5.47,1.92-1.52,2.33-3.34,1.64-5.61-1-3.29,2.29-5.27,2.63-8.18.07-.6,1-.71,1.4-.32,2.2,2.13,5.39,2.25,7.82,3.99,2.17,1.56,1.31,3.7,1.85,5.61,1.12,3.97,2.55,7.78.18,11.76-.12.21-.12.75-.03.79,5.06,2.08,1.47,7.66,4.45,10.81,2.07,2.19,1.83,4.67-2.1,5.14-6.21.74-11.32,3.86-16.17,7.58-6.93,5.3-14.45,9.7-21.96,14.1-1.59.93-2.98,1.63-4.39-.21-.33-.43-.91-.65-1.31-1.04-.97-.92-3.57.83-3.28-1.36.28-2.13,2.02-3.96,4.05-5.1,1.61-.91,2.76-.19,4.01,1.09,1.76,1.8,5.83-.37,6.72-3.42"/>
        <path class="cls-2" d="M1065.81,149.05c10.55-4.33,20.39-6.71,30.84-6.05,2.21.14,4.51.29,6.57-.95,1.14-.69,2.02-1.67,1.99-3.02-.04-1.67-1.46-1.81-2.73-2-.55-.09-1.14-.12-1.64-.34-1.38-.58-1.97-1.7-1.34-3.05.77-1.64,1.79-1.25,2.97-.19,2.57,2.33,4.07,1.69,7.13-.52,3.5-2.54,8.94-2.51,13.59-3.3,1.01-.17,1.5,1.52,1.92,2.54,2.09,5.1,3.31,10.45,3.81,15.89.46,4.98-2.13,7.69-7.22,6.48-13.67-3.26-27.66-1.57-41.42-3.32-4.53-.57-9.14-.45-14.46-2.17"/>
        <path class="cls-2" d="M582.46,197.62c-.41,3.22-.69,6.13,4.07,5.85.97-.05,3.04,1.59-.09,2.32-.65.15-.86.73-.84,1.3.17,5.73-5.6,7.12-8.13,10.91-1.55,2.32-7.31-.74-7.91-4.13-1.24-6.97-4.99-12.36-9.97-17.25-3.65-3.59-4.55-8.5-4.3-13.5.09-1.73,1.7-2.08,3.17-2.1,3.67-.06,6.4-1.25,7.84-5.05,1.01-2.67,3.72-2.61,6.16-2.51,2.91.13,2.73,2.49,2.84,4.34.31,5.33,2.39,9.94,5.3,14.27,1.14,1.7,2.9,3.2,1.85,5.55"/>
        <path class="cls-2" d="M1064.49,213.53c-2.35-.82-3.23,3.15-6.3,1.63-2.86-1.41-7.99-7.12-7.7-10.3.2-2.23,2.01-2.08,3.35-2.53,11.56-3.88,23.28-7.29,34.54-12.03,5.96-2.51,11.14-6.58,17.33-8.58,2.42-.78,5.72-3.13,7.3-.67,1.41,2.2-1.78,4.59-3.5,6.5-5.54,6.11-12.39,10.56-19.49,14.52-7.1,3.96-14.36,7.67-21.93,10.72-1.15.46-2.21,1.31-3.6.73"/>
        <path class="cls-2" d="M1042.14,223.09c-7.56,1.42-13.97,6.16-21.99,6.15-2.26,0-6.13-.57-6.13,3.91,0,.58-.63.96-1.25.89-.71-.08-.69-.69-.8-1.25-.8-4.23-1.6-8.45-3.8-12.27-1.06-1.84-.42-3.11,1.66-3.82,5.45-1.84,10.85-3.8,16.29-5.66,1.58-.54,2.4-.48,3.35,1.62,1.84,4.06,6.41,5.49,9.77,8.11.84.66,2.2.59,2.89,2.32"/>
        <path class="cls-2" d="M99.22,287.8c1.68,1.44,2.32,3.79,4.54,3.27,4.47-1.05,3.05,1.41,2.29,3.58-2.24,6.4-3.48,12.95-3.29,19.76.16,5.84-1.74,11.65-.2,17.54.39,1.49-.54,2.76-2.2,3.03-2,.32-4.06.34-5.25-1.65-.7-1.17-1.27-2.58-1.34-3.92-.71-13.51.21-26.85,4.51-39.79.17-.51.5-.98.95-1.83"/>
        <path class="cls-2" d="M51.94,477.84c.95.09,2.16-.19,2.54.98.32.98-.72,1.37-1.34,1.9-1.17,1.01-2.41,1.95-3.47,3.06-2.66,2.79-3.02,5.6-.72,9.06,5.4,8.13,3.57,17.04-4.27,23.07-1.95,1.5-2.73.1-3.75-1.02-1.93-2.12-4.66-5.33-1.6-7.09,6.65-3.82,3.89-8.46,2.57-13.28-.3-1.08-.53-2.19-.82-3.27-2.74-9.95,3.89-12.55,10.86-13.41"/>
        <path class="cls-2" d="M594.45,162.15c-1.14-1.2-2.03-2.02-2.99-2.78-2.03-1.61-3.6-3.69-1.89-6.52.58-.95,1.46-1.87.31-2.97-1.01-.97-2.09-.51-3.14-.07-1.54.64-3.03,1.84-4.77,1.22-2.83-1.02-7.25-.84-5.1-6.17.26-.63-.77-1.73-1.07-2.66-.15-.47.02-1.04.05-1.56,4.12,1.36,2.36-1.99,3.32-3.52,1.17-1.84,4.44-1,6.75-1.06,2-.06,2.18,1.72,1.73,3.46-.37,1.45.69,1.88,1.71,1.54,2.53-.84,3.71.93,5.44,2.11,1.95,1.34,2.69,2.15,1.51,4.6-1.34,2.78,1.28,3.28,3.2,3.44,2.47.21,2.42,1.62,1.01,2.55-3.03,1.99-3.93,5.35-6.07,8.4"/>
        <path class="cls-2" d="M73.31,541.81c2.77-4,6.86-6.05,11.25-7.69,7.07-2.65,14.37-3.58,21.87-3.16,1.21.07,2.53.01,3.57,1.47-11.68,5.65-23.87,8.74-36.71,9.36l.03.03Z"/>
        <path class="cls-2" d="M951.15,28.73c.18,1.98-.44,3.34-1.82,4.29-1.28.87-2.06-.14-2.89-.89-1.33-1.19-1.76-2.61-.67-4.1,1.59-2.19.44-3.97-.18-6.2-2.28-8.26-8.99-12.08-15.32-16.38-.81-.55-1.68-1.1-2.28-1.84-.99-1.22-.49-2.47.61-3.28,1.01-.74,1.92-.16,2.36.87,1.25,2.95,4.09,4.02,6.65,4.73,6.7,1.87,9.72,6.66,11.28,12.82.86,3.4,1.55,6.84,2.26,9.97"/>
        <path class="cls-2" d="M73.28,541.78c-.58,1.86-1.18,3.72-1.74,5.6-.24.8-.33,1.65-.6,2.44-1.33,3.95-5.34,7.26-7.51,5.84-3.48-2.27-1.85-5.69-1.03-8.7.36-1.32,1.04-2.66,1.9-3.72,2.16-2.65,2.13-5.28.62-8.18-.57-1.09-.99-2.38-1.03-3.59-.05-1.84,1.03-3.5,2.79-3.73,2.22-.29,2.02,1.92,2.19,3.29.24,1.94.21,3.92.12,5.88-.13,3.07,1.09,4.83,4.31,4.9l-.03-.03Z"/>
        <path class="cls-2" d="M1066.36,132.5c2.86-2.76,6.22-4.17,8.2-7.15.67-1.01,1.35-.53,2.08.06,1.2.97,2.39.57,3.44-.28,5.11-4.12,10.24-2.14,15.33-.03.98.4,2.08,1.22,1.79,2.54-.22,1-1.32.97-2.12.91-7.61-.6-14.57,2.61-21.88,3.77-2.09.33-4.13.68-6.85.19"/>
        <path class="cls-2" d="M570.81,121.55c-1.41-.85-3.6.69-3.89-1.85-.23-1.99,1.21-2.48,2.65-3.2,5.2-2.61,7.52-1.54,8.67,4.17.32,1.57-3.49,7.39-5.06,7.73-.13.03-.28.03-.42,0-1.92-.47-3.26,3.64-4.95,1.19-1.73-2.52,1.26-4.41,2.37-6.51.24-.46.86-.73.62-1.53"/>
        <path class="cls-2" d="M99.45,357.12c-2.46-1.14-3.36-3.04-3.17-5.74.18-2.63-.16-5.29.02-7.92.14-2.05,1.09-3.95,3.42-4.12,2.19-.16,2.99,1.67,3.64,3.43,1.49,3.98,1.15,7.65-1.82,10.88-.94,1.03-1.94,2.02-2.13,3.51l.03-.03Z"/>
        <path class="cls-2" d="M251.7,355.23c-2.95.37-5.3-1.58-6.55-5.17-.85-2.46-3.28-4.15-3.2-7.15.05-2.16.94-2.69,2.83-2.45,4.11.53,7.17,6,5.34,9.65-.48.96-1.65,1.94-.27,2.85,1.11.73,1.64-.63,2.35-1.21,1.18-.97,2.35-2.28,4.04-1.48,1.29.61.3,1.76.08,2.59-.62,2.27-1.09,2.52-4.62,2.37"/>
        <path class="cls-2" d="M291.03,615.13c-.85,3.6-3.71,5.79-6.3,8.06-1.58,1.39-3.83,3.77-5.59,2.51-1.45-1.03.3-3.83,1.03-5.74,1.12-2.94,3.05-5.33,5.41-7.38.87-.75,1.75-1.57,2.96-.75,1.15.79,2.28,1.65,2.51,3.3"/>
        <path class="cls-2" d="M65.76,495.22c-.01.14.03.33-.04.41-3.71,3.89-1.19,7.73.05,11.61.61,1.91-.67,1.76-1.87,1.54-2.99-.57-4.65-3.55-3.46-6.4.59-1.42,1.55-2.68,2.11-4.11,1.55-3.95-.05-6.55-4.2-7.13-1.09-.15-2.29-.22-3.2-.75-1.25-.73-1.29-2.13-.8-3.38.56-1.44,1.79-1.61,3.15-1.32,1.36.29,8.22,8.19,8.27,9.54"/>
        <path class="cls-2" d="M69.82,441.13c-.02,3.72-1.66,4.54-4.48,3.02-1.88-1.01-2.96-3.56-6.08-2.12-1.2.56-1.67-2.15-2.18-3.54-.49-1.33-.35-2.59,1.1-3.15,1.93-.75,3.98-1.68,5.95-.16,2.37,1.82,5.36,3.15,5.68,5.95"/>
        <path class="cls-2" d="M112.1,276.69c-.12.95-.24,2.91-.62,4.81-.23,1.15-.09,2.89-1.66,3.04-1.36.14-2-1.45-2.66-2.4-2.58-3.7-1.85-10.04,1.27-13.38,1.53-1.64,2.39-.89,3.06.69.84,2,.45,4.14.62,7.23"/>
        <path class="cls-2" d="M76.68,504.64c-2.7-.12-6.02-.33-6.6-4.65-.19-1.39-.18-2.96,1.62-3.41,1.64-.41,2.93.02,3.87,1.66,2.75,4.78,2.82,4.77,6.77.62,1.07-1.12,2.3-1.99,3.63-.89,1.37,1.13.66,2.61-.24,3.74-2.17,2.7-5.25,2.95-9.04,2.94"/>
        <path class="cls-2" d="M278.33,592.26c.02-.3,0-.87.1-1.42.45-2.59,4.78-6.74,6.36-5.82,2.77,1.62,1.7,4.34,1.15,6.76-.19.82-.31,1.72-.74,2.4-1.12,1.75-1.14,5.34-3.76,4.72-2.44-.58-3.1-3.71-3.09-6.64"/>
        <path class="cls-2" d="M593.02,209.91c-1.62.49-1.21,3.26-3.77,3.15.08-1.99-2.04-4.11.6-5.96,2.19-1.54,4.55-2.22,7.1-.81,2.03,1.12,3.23,2.7,2.71,5.15-.31,1.46-.27,3.37-2.41,3.36-1.85,0-3.19-.97-3.42-3.02-.07-.66,0-1.42-.81-1.87"/>
        <path class="cls-2" d="M555.47,243.78c-3.9.17-4.31,2.87-5.54,5.66-1.92-3.63-5.47-5.21-6.95-8.74-.76-1.82-1.35-3.02,1.42-2.68,2.16.27,5.57-2.01,5.59,2.96,0,.79,2.97,1.56,5.49,2.79"/>
        <path class="cls-2" d="M567.43,235.24c-2.64.43-4.89.78-5.53,4.01-.39,1.97-2.54,1.24-3.9.46-1.64-.94-.94-2.22.03-3.11,2.61-2.4,3.42-4.71.28-7.33-.78-.65-1.1-1.89-.15-2.59.93-.69,1.31.48,1.88,1.03,2.46,2.39,5.73,3.98,7.4,7.53"/>
        <path class="cls-2" d="M498.79,282.38c.24-1.27.27-2.59.76-3.71.83-1.89,2.55-2.36,4.07-1.1,2.97,2.48,1.89,9.91-1.5,11.7-1.42.75-1.77-.3-2.02-1.22-.51-1.87-.88-3.79-1.3-5.68"/>
        <path class="cls-2" d="M1040.23,206.6c1.45-.19,2.45.02,2.81,1.1.65,1.95,2.01,3.33,3.42,4.7,1.15,1.12,1.48,2.32.61,3.75-.53.88-1.16,1.71-2.3,1.48-1.55-.31-2.4-1.53-2.58-2.96-.19-1.49.4-3.14-2.21-2.94-2.17.17-3.73-1.86-3.61-3.35.15-1.89,2.87-.98,3.86-1.8"/>
        <path class="cls-2" d="M99.42,357.16c4.14.31,9.32,5.87,8.99,9.69-.14,1.59-1.33,1.07-2.2.96-4.69-.6-6.61-3.67-6.76-10.68l-.03.03Z"/>
      </g>
      <g>
        <path class="cls-1" d="M736.96,386.16c-16.84.06-33.96.06-50.52.07-14.36,0-28.73.01-43.09.05-1,.02-1.6-.12-1.85-.36-.25-.25-.37-.85-.36-1.84.11-17.09.11-34.24,0-50.98,0-.94.12-1.54.37-1.79s.85-.37,1.92-.37c14.25.09,28.75.06,42.76.04h4.51c.22,0,.42,0,.64.02.93.06,2.09.13,3.35-.68l1.3-.84-1.3-.84c-.8-.52-.85-.81-.85-.84,0-.08.08-.27.35-.54,1.03-1.02,1.54-2.12,1.53-3.26-.02-1.13-.55-2.2-1.59-3.17-1.99-1.86-3.55-.2-4.22.5-.23.24-.46.49-.62.58-2.86,1.65-4.15,1.44-6.25-1.02-.65-.76-1.24-1.58-1.87-2.44-1.88-2.59-3.83-5.27-7.4-6.39-.29-.09-.63-.35-.68-.4-.63-2.64-2.73-2.56-3.98-2.51-.19,0-.38,0-.56.01-2.13,0-4.27,0-6.4-.02-6.05-.02-12.31-.04-18.46.07-1.19.03-1.85-.1-2.14-.39-.3-.29-.43-.97-.42-2.06.12-10.21.1-20.58.08-30.62,0-3.65-.01-7.3-.01-10.95,0-2.59,0-4.3.5-4.8.5-.5,2.24-.5,4.87-.5h10.81c25.88,0,51.77,0,77.65-.03h0c.17,0,.35.03.54.06.73.11,2.46.36,3.04-1.45.63-1.96-.04-3.3-.72-4.08-1.4-1.62-2.68-.92-3.5-.3-.5-1.62-.94-3.4-.8-5.5.05-.73-.29-1.41-.57-1.97.21.02.49.06.86.13.54.1.92-.08,1.14-.24.53-.4.58-1.02.62-1.43,0-.08.01-.16.03-.23.11-.48.22-.64.21-.67.03,0,.1.02.21.07.8.38,1.46.39,1.98.05.77-.52.71-1.52.69-1.85-.01-.25.02-.57.07-.9.11-.92.29-2.32-.92-3.25-1.81-1.39-3.07.1-3.61.73-.18.21-.36.42-.5.52-1.52,1.09-2.8,1.32-3.34,1.08-.1-.04-.34-.15-.41-.68-.35-2.81-2.1-2.66-3.04-2.58-.17.01-.33.03-.5.03h-26.43c-25.99,0-52.86,0-79.3-.08-1.29-.01-2.7.11-3.6,1.02-.85.85-1.02,2.08-1.02,3.67.08,35.78.07,72.16.07,107.34v25.23s0,8.09,0,8.09c0,7.69.01,15.63-.03,23.45,0,.97.05,2.07.81,2.83.57.57,1.38.83,2.63.83h.01c37.72-.06,76.56-.06,118.76,0,.94,0,1.93-.09,2.63-.81.7-.71.76-1.77.75-2.61l-.02-.94c-.11-4.75-.22-9.66.06-14.44.11-1.8-.17-2.95-.9-3.72-.88-.93-2.22-1.11-3.96-1.11ZM734.11,254.37l.56.79-.66-.76s.06-.03.1-.03Z"/>
        <path class="cls-1" d="M1030.2,255.26c-.45-.56-1.19-1.5-2.5-1.28-1.26.21-1.57,1.17-1.7,1.85-.04-.02-.07-.04-.1-.06-.05-.03-.12-.07-.18-.1.7-1.17.93-2.4,1.16-3.59.22-1.16.42-2.26,1.06-3.18,1.37-1.98,1.52-3.87.44-5.62-.13-.22-.1-.36-.06-.45.08-.19.33-.45.79-.57l.11-.03c.63-.16,1.41-.37,1.81-1.09.26-.46.29-1.01.09-1.64-.45-1.47-1.44-2.19-2.93-2.12-2.43.1-5.28.17-8.06-.01-2.36-.15-3.86.69-5.21,2.91-12.13,20-24.52,40.3-36.5,59.93l-8.41,13.78c-.47.77-.95,1.55-1.25,1.94-.32-.4-.82-1.24-1.32-2.07-14.72-24.48-29.43-48.97-44.16-73.45l-.24-.42c-.68-1.19-1.52-2.67-3.91-2.63-5.61.09-11.17.08-17.06.06-2.23,0-4.49-.01-6.79-.01h-1.75l1.63,2.78c.44.76.81,1.39,1.2,2.01l8.2,13.08c16.18,25.82,32.92,52.53,49.42,78.76,1.27,2.03,1.84,3.95,1.83,6.24-.04,10.42-.04,20.83-.04,31.25,0,11.23,0,22.85-.06,34.27,0,1.11.1,2.35.94,3.16.72.7,1.75.84,2.72.84.14,0,.27,0,.41,0,3.22-.11,6.5-.09,9.67-.07,2.01.01,4.02.02,6.03,0,.67,0,1.23,0,1.7.01,1.43.03,2.29.04,2.91-.57.65-.64.64-1.53.62-3.29,0-.37,0-.78,0-1.25.02-21.52.04-42.61-.03-64.01,0-2.1.51-3.85,1.67-5.68,4.84-7.63,9.66-15.27,14.48-22.92,8.71-13.81,17.71-28.09,26.69-42.06.93-1.44,1.7-2.98,2.45-4.46,1.35-2.69,2.63-5.22,4.73-7.25.37-.35.56-.8.55-1.27-.01-.47-.23-.91-.62-1.25-.12-.11-.26-.28-.41-.47Z"/>
        <path class="cls-1" d="M469.91,306.74c0,1.38-.01,3.95,3.11,4.41.62.09,1.07.41,1.06.62-.14,3.79,2.51,4.52,4.58,4.87-.22.88-.85,1.19-2.23,1.25-5.63.25-6.47,1.13-6.47,6.71,0,.88,0,1.76.02,2.64.02,2,.04,4.06-.05,6.08-.05,1.16.24,2.03.87,2.59.48.42,1.11.63,1.9.63.3,0,.63-.03.99-.09,5.65-.97,9.68-5.04,10.78-10.88.09-.46.23-.61.28-.62.08-.03.29.03.48.19.84.73,1.79,1.27,2.7,1.8,1.38.79,2.68,1.55,3.48,2.84.75,1.21,1.91,1.59,3.27,1.05,1.16-.46,1.31-1.27,1.41-1.86.02-.09.03-.19.05-.29.35-1.67,1.35-3.16,2.23-3.32.98-.19,1.63-.55,2-1.11.35-.53.36-1.1.29-1.63.29.05.57.06.82.07.06,0,.11,0,.16,0-.04.19-.07.39-.08.6-.08,2.03.79,4.31,2.23,5.81.96,1,2.08,1.55,3.16,1.55,9.55,0,19.1.01,28.65.01,14.98,0,29.96,0,44.94.04.75,0,1.8-.08,2.52-.81.71-.72.79-1.75.77-2.75l-.02-1.27c-.08-4.03-.16-8.19.06-12.26.06-1.19.02-2.68-.91-3.66-.94-.98-2.41-1.12-3.75-1.11-13.88.06-27.99.06-41.64.07-13.15,0-26.75,0-40.12.06-1.14,0-1.81-.14-2.1-.44-.3-.3-.43-.97-.42-2.11.09-10.06.08-20.28.07-30.17,0-4.35,0-8.71,0-13.06v-.91c0-1.14,0-2.22.08-2.41.19-.1,1.01-.08,1.8-.07.43,0,.96.04,1.49.02h.47c29.42-.02,59.85-.03,89.77.04h.04c1.13,0,2.38-.12,3.2-.96.82-.85.88-2.09.85-3.08-.19-5.28-.18-9.9.01-14.12.05-1.08,0-2.44-.87-3.34-.87-.91-2.21-1.03-3.54-1.03-36.69.08-75.09.09-114.16,0-1.25-.02-2.47.11-3.28.93-.82.83-.93,2.08-.92,3.19.12,23.88.07,47.43.02,65.27ZM481.31,308.26c.46.15.92.21,1.32.25,1.16.14,1.22.24,1.28.7.05.4-.07.74-.39,1.05-.53.51-1.31.69-1.54.65-.23-.04-.33-.06-.45-1.26-.04-.43-.09-.91-.22-1.39ZM493.13,316.05c-.08.05-.17.11-.27.18-.03-.11-.07-.22-.12-.33.17.04.34.07.5.08-.04.02-.07.05-.11.07ZM498.01,313.45c.65.6.93.9.91,1.34-.01.25-.42.58-1.04.84-.04-.11-.08-.29-.12-.57-.06-.37-.25-.6-.42-.82-.06-.08-.14-.17-.23-.3l-.18-.26c.12-.15.25-.29.37-.43.08-.08.15-.18.22-.27.16.16.33.32.48.46Z"/>
        <path class="cls-1" d="M122.19,312.36c5.64,4.62,12.43,8.09,22,11.28,7.42,2.47,15.13,4.19,22.6,5.86,6.76,1.51,13.74,3.07,20.45,5.17.07.02,1.78.54,2.49-.39.54-.7,1.38-1.16,2.27-1.64,1.42-.77,3.02-1.63,3.7-3.67.15-.44,1.05-.23,1.15-.21l.25.06c.75.18.84.25.9.48.15.57.07.73-.47.94-.61.24-1.21.77-1.6,1.43-.41.69-.53,1.48-.34,2.2.19.73.67,1.35,1.35,1.75.13.08.27.17.42.27.53.35,1.3.87,2.17.87.38,0,.77-.1,1.17-.34,1.77-1.09.73-2.86.34-3.53l-.11-.18c-.06-.11-.13-.22-.2-.33-.12-.19-.29-.47-.31-.53,0,0,.03-.06.18-.18,1.11-.84,4.69-.69,5.88.5l2.39,2.38-.71-3.3c-.13-.62.12-1.08.58-1.84.52-.86,1.18-1.94.67-3.39-.37-1.05-.14-2.11.13-3.33.22-.98.44-2,.37-3.11-.1-1.5-.24-2.45-1.9-3.14l-.48-.2c-.68-.28-1.37-.56-2.06-.83-9.95-3.88-20.48-6.05-30.66-8.15-2.41-.5-4.82-1-7.23-1.52-8.44-1.82-16.63-3.79-24.07-7.85-6.08-3.31-9.58-7.35-11.01-12.73-3.1-11.64,2.74-22.56,14.55-27.17,10.78-4.21,22.49-4.86,34.8-1.93,12.97,3.09,21.5,11.17,25.34,24.01.61,2.04,1.28,4.45,1.58,6.89.21,1.66.75,3.36,3.6,3.32,5.88-.08,11.9-.05,17.55-.02.91,0,1.9-.09,2.51-.84.61-.76.46-1.77.3-2.47-.29-1.23-.5-2.52-.71-3.77-.21-1.29-.43-2.63-.74-3.94-5.13-21.71-17.69-35.69-37.34-41.54-17.2-5.12-34.56-5.16-51.61-.13-23.34,6.88-35.73,24.14-34,47.33.85,11.38,5.51,20.61,13.85,27.43Z"/>
        <path class="cls-1" d="M888.86,241.94c.06-1.25,0-2.65-.9-3.57-.91-.94-2.36-1.05-3.53-1.04-11.38.12-22.96.1-34.16.09-4.1,0-8.21,0-12.31,0-1.89,0-3.19.48-3.97,1.47-.8,1.01-.96,2.43-.51,4.35.19.81.24,1.6.29,2.48.01.22-.02.4-.04.5-3.26.47-4.28,2.85-5.19,4.97-.2.47-.4.94-.63,1.39-.17.33-.34.52-.45.59-.05-.05-.13-.16-.23-.35-.47-.9-1.09-1.24-1.52-1.38-.58-.18-1.2-.1-1.78.21-.51.28-.86.71-1.01,1.24-.26.91.15,1.81.42,2.27.08.14.18.28.28.43.01.02.03.04.05.07-1.4.91-1.48,2.48-1.55,3.64-.08,1.52-.2,2.03-1.22,2.29-.42.11-.75.44-.84.87-.17.75.4,1.54.79,1.86.83.68.94,1.02.97,1.03-.02.02-.07.08-.23.17-.18.1-1.83.97-2.87-.11-1.3-1.36-2.81-2.35-4.74-3.1l-.26-.1c-2.52-.98-3.67-1.44-4.64-.77-.98.67-.98,1.93-.98,4.78v138.32c0,.21,0,.41.01.62.01.39.02.76-.01,1.1-.11,1.17.11,2.03.66,2.63.76.83,1.94.9,2.77.89,6.51-.11,11.97-.15,17.46.02.13,0,.27,0,.41,0,1.01,0,2.07-.15,2.82-.87.86-.83.97-2.14.96-3.31-.08-18.5-.07-37.31-.06-55.5v-32.51c.02-18.18.03-36.98-.06-55.47,0-1.05.12-1.69.38-1.95.26-.26.88-.37,1.99-.36,7.86.06,15.85.06,23.58.06,8.2,0,16.68,0,25.02.07,1.78.02,3.13-.17,4.01-1.1.73-.78,1-1.92.87-3.7-.33-4.63-.2-9.28-.02-13.22Z"/>
        <path class="cls-1" d="M216.01,326.93c-2.32,1.28-2.93,3.1-1.85,5.58,1.91,4.37,1.68,5.33-2.02,8.51-2.03,1.74-3.49,1.79-5.03.15-1.27-1.35-2.76-.75-3.25-.56l-.92.37.36.93c.4,1.03,1.19,1.57,1.82,2,.21.15.43.29.62.46,3.68,3.24,5.94,6.86,6.92,11.07,2.77,11.91-.36,27.9-18.32,33.79-15.35,5.03-30.92,4.25-46.27-2.34-7.54-3.24-13.28-8.73-17.04-16.33-.73-1.47-1.53-2.29-2.52-2.58-1.27-.37-2.54.25-3.51.83-2.33,1.4-4.87,2.71-7.59,2.83-2.31.1-3.68.96-4.6,2.9-.08.18-.16.37-.23.57-.09.23-.25.66-.44.73-.58-.06-2.34-.25-3.17.93-.85,1.21-.06,2.83.41,3.8l.13.27c1.09,2.24,2.21,4.56,3.82,6.65,6.07,7.91,13.25,13.73,21.32,17.29,13.04,5.75,26.12,8.63,39.14,8.63,11.6,0,23.16-2.29,34.59-6.86,18.91-7.56,29.25-22.36,29.93-42.79.49-15.05-3.66-26.65-12.7-35.47-3.28-3.2-5.61-3.53-9.59-1.34Z"/>
        <path class="cls-1" d="M371.81,318.32q-.32-.54.25-1.15c.96-1.02,2.24-1.45,3.6-1.91,1.31-.44,2.66-.89,3.82-1.89.07-.06.3-.17.45-.25.56-.27,1.26-.61,1.42-1.38.07-.31.06-.79-.36-1.29-.56-.68-.56-1.37-.51-2.45.03-.68.06-1.45-.15-2.24-5.79-21.22-11.7-43.19-17.57-65.28-.6-2.28-1.73-3.15-4.03-3.11-5.73.1-12.23.21-18.64-.04-3.25-.11-4.33,1.41-5.02,3.91-2.8,10.2-5.63,20.4-8.45,30.59-3.59,12.95-7.3,26.34-10.9,39.53-.15.54-.38,1.11-.62,1.7-.72,1.78-1.6,3.96-.35,6.31-2.36,2-2.85,4.64-3.33,7.19-.23,1.25-.46,2.43-.89,3.51-.32.81-.26,1.62.19,2.29.51.76,1.46,1.23,2.48,1.24.65,0,.83.06.81.02.03.06.09.27.07,1.08-.05,1.84-.83,2.88-2.25,4.17-.44.4-1.31.67-2.01.89-.93.29-1.66.52-2,1.15-1.24,2.29-2.29,4.86-1.62,8.11l.67,3.21,1.24-3.04c.58-1.41,1.62-1.84,2.82-2.33.67-.27,1.36-.55,1.98-1.01.17.16.39.43.51.58l.22.26c.25.29.28.73.28.78-1.4,1.06-2.27,1.98-1.99,2.98.29,1.04,1.48,1.17,2.44,1.28.34.04.81.09.98.17.2.09.41.18.62.27.51.21.99.42,1.4.68l.15.09c.29.19.87.57,1.52.57.47,0,.99-.2,1.46-.82.32-.43.73-.8,1.17-1.2,1.08-1,2.31-2.13,2.51-4.3.2-2.1.89-4.78,2.24-6,2.17-1.98,2.26-3.58,1.66-6.01-.07-.29-.02-.62.15-.89.13-.21.38-.48.84-.59.01,0,.03,0,.04,0,.03.14.05.33.07.48.06.46.14,1.04.39,1.58l1.13,2.4,1.43-4.97c.5-1.71.94-3.24,1.36-4.78.27-.99.51-2.12-.07-3.09-.41-.68-1.11-1.12-2.16-1.36-.41-.09-.54-.17-.54-.18,0-.04-.02-.3.35-1.04,1.56-3.05-.14-6.18-1.26-8.25-.24-.44-.52-.82-.79-1.2-.89-1.24-1.13-1.57-.03-2.52l.62-.54-.41-.72c-1.33-2.32-.46-3.5,2.12-5.43.63-.47.84-1.24,1.03-1.91.08-.29.23-.84.35-.93,0,0,.03,0,.12,0,.26.03.35.04.43,1.19.05.68.11,1.45.5,2.1.05.13.03.57-.09.82-1.14,2.33-.17,4.22.61,5.73.4.78.79,1.52.9,2.28l1.94.14c4.44-14.23,8.31-27.8,11.8-41.34,2.98,11.99,6.16,24.06,9.23,35.77,2.03,7.73,4.07,15.48,6.07,23.27l.33,1.3,1.15-.69c.95-.57,1.68-1.22,2.33-1.79.49-.43.96-.84,1.45-1.16,5.54-3.6,5.8-4.79,2.33-10.56ZM325.96,328.04c.14,1,.28,1.95.04,2.85-.38,1.41-.85,1.56-1.85,1.56-.23,0-.48.02-.73.04-.3.02-.99.08-1.11-.03-.03-.03-.12-.24-.1-.74.05-1.03-.38-1.48-.74-1.68-.14-.08-.35-.16-.62-.16-.19,0-.41.04-.66.15.04-.49-.11-.84-.27-1.06-.46-.64-1.24-.68-1.54-.7-.46-.02-1.33-.08-1.82.61,0,0,0,.01-.01.02-.51-1.24-.58-2.81-.16-4.41.56-2.13,1.89-3.86,3.47-4.51.91-.37,1.31-.25,1.75.12.18.16.35.34.51.52.71.78,1.87,2.04,4.01.85.13.52.24,1.31.31,1.8.02.13.04.26.05.39-.95,1.42-.73,2.99-.53,4.39ZM314.88,319.28s0,0,0,0c0,0,0,0,0,0h0Z"/>
        <path class="cls-1" d="M423.16,347.28c-.8-1.61-1.64-3.28-2.97-4.76-.85-.95-1.97-1.29-2.86-1.56-.75-.23-1.21-.38-1.32-.66-1.35-3.27-3.92-3.39-5.98-3.48-.4-.02-.81-.04-1.22-.08-2.57-.25-3.92.75-4.52,3.35-2.12,9.29-4.31,18.34-6.75,28.35-.08.32-.13.66-.18,1-.02.11-.03.21-.05.31-1.89-8.27-3.85-16.82-6.16-25.15-.88-3.17-3.28-4.34-5.28-5.02-1.17-.39-1.83-.01-2.13.25-.47.41-.65,1.06-.5,1.79.08.37.13.66.16.89l-.02-.02c-.57-.39-1.16-.78-1.78-.83-.23-.02-.3-.06-.63-.65-.34-.59-.8-1.41-1.91-1.8l-.83-.29-.4.78c-.03.07-.07.15-.11.25-.07.16-.15.35-.24.46-.87,1.08-2.41,1.48-3.77,1.84-.3.08-.6.16-.86.24l-.18.06c-3.05.91-4.59,1.57-3.59,5.51,1.16,4.54,2.31,9.07,3.49,13.6,1.02,3.94,2.05,7.88,3.08,11.83,2.82,10.8,5.73,21.97,8.52,32.98.51,2.03,1.41,3.38,4.17,3.3,5.54-.13,11.08-.13,16.47,0,.07,0,.15,0,.22,0,2.25,0,3.38-.92,4-3.24,2.02-7.58,4.16-15.27,6.23-22.71.74-2.67,1.48-5.33,2.22-8,.35-1.27.69-2.54,1.04-3.81.84-3.12,1.71-6.34,2.68-9.47.6-1.92-.43-2.92-1.18-3.66l-.14-.14c-.39-.39-1.01-.9-1.78-.8-.35.04-.85.22-1.25.85-.18.28-.31.32-1.05.29-.47-.02-1.05-.04-1.6.23-.62.3-.86.27-.86.28-.12-.12-.22-.67-.27-.97-.06-.31-.11-.63-.22-.92-.02-.05-.03-.09-.04-.13.15-.02.34-.02.48-.03.35-.01.72-.03,1.04-.15.24-.08.48-.13.71-.18.88-.18,2.21-.45,2.77-2.35,0,0,0,0,0,0,.12.06.32.21.51.48.74,1.05,1.52,1.61,2.32,1.66.41.02,1.02-.07,1.57-.68,1.8-1.98,3.1-5.15,1.97-7.15-.35-.62-.67-1.26-1-1.91Z"/>
        <path class="cls-1" d="M451.86,237.35c-5.56.14-11.42.15-17.91,0-2.78-.09-3.56,1.48-3.98,3.15-5.08,20.26-9.69,38.55-14.61,57.3-.26,1-.04,1.96.14,2.74.17.72.25,1.17.08,1.35-1.85,1.93-2.34,4.19-2.81,6.38-.19.9-.38,1.74-.65,2.56l-.14.41c-.64,1.86-1.7,4.97,2.16,6.47.04.02.15.11.2.24.02.04.03.09.03.14-.09-.03-.19-.07-.26-.11-.2-.08-.39-.17-.65-.24-.65-.19-2.61-.78-3.24,1.11-.11.34-.24.68-.37,1.03-.54,1.48-1.16,3.15-.82,4.69.15.69.48,1.16.98,1.38.77.34,1.48-.07,2.05-.4.2-.11.54-.31.59-.33.13.04.25.06.36.06,1.52,1.59,3.38,1.43,4.97,1.15-.42.8-.81,1.69-.31,2.52.25.41.64.64,1.07.78-1.56,4.64,1.42,7.05,4.06,9.21.99.8,2.01,1.63,2.77,2.55l1.22,1.47,12.76-46c5.05-18.23,10.27-37.07,15.46-55.59.32-1.14.53-2.31-.12-3.15-.68-.87-1.92-.91-3.03-.88Z"/>
        <path class="cls-1" d="M592.73,386.7h0c-3.17,0-6.34,0-9.51,0-6.41,0-13.04,0-19.56.04-1.77.01-3.84,1.53-4.88,2.94-.19.26-.34.51-.46.75-.51-1.02-1.18-1.94-2.28-1.73-.92.17-1.47-.19-2.35-.84-.55-.41-1.18-.87-1.98-1.08-1.24-.32-2.81-.59-3.97.27-.9.66-1.23,1.77-1.36,2.85-.1-.88-.4-1.58-.9-2.1-.94-.99-2.35-1.18-4.2-1.16-7.79.06-15.73.06-23.39.06-6.94,0-13.87,0-20.81.04-1.01,0-1.59-.11-1.83-.36-.22-.23-.32-.76-.28-1.57.15-3.69.1-7.44.06-11.06l-.02-2.05c0-.22.01-.44.03-.67.06-.94.14-2.11-.7-3.31l-.89-1.28-.79,1.35c-.09.16-.18.29-.26.39-.21.3-.45.65-.44,1.13.01.65.12,1.3.22,1.92.37,2.25.43,3.28-1.85,4-.49.15-.84.58-.94,1.15-.13.78.2,1.98,1.1,2.65.33.25.68.48,1.02.71.24.16.49.32.72.49.07.05.11.09.12.09-.03.13-.19.43-.31.66-.13.25-.25.44-.34.58-1.4-.84-2.65-.38-3.58-.03-.27.1-.54.2-.83.28-4.27,1.07-6,3.67-5.44,8.18l.19,1.58,1.34-.86c.92-.59,2.04-.44,3.33-.27,1.22.16,2.63.34,4.01-.17.1.8.4,1.51.67,2.15.28.68.55,1.31.52,1.9-.02.6.21.98.41,1.2.48.51,1.16.53,1.61.55,2.33.06,2.73.45,2.83,2.79.02.43.05,1.16.84,1.74,1,.73,1.56,1.64,1.55,2.5-.01.73-.43,1.4-1.21,1.93-.15.1-.3.2-.46.3-.96.61-2.58,1.64-1.83,3.44.39.93,1.23,1.15,2.03,1.15.4,0,.79-.05,1.11-.1.28-.04.56-.08.81-.08h0c25.35.03,50.71.03,76.06.02h12.83c.45,0,.89,0,1.34,0h.2c.64-.01,1.85,0,2.4-1.49.43-1.16.04-2.14-1.16-2.9-1.38-.87-2.28-1.89-2.83-3.2-.49-1.16-1.59-1.22-2.19-1.25-.17,0-.4-.02-.48-.05-.72-.29-1.44-.35-2.13-.32.61-.69.76-1.73.81-2.51.03-.47-.1-.93-.21-1.34-.03-.1-.06-.23-.09-.35,0,0,.02,0,.02,0,.18,0,.38,0,.6,0,1.71-.03,2.07.17,2.12,1.09.09,1.51.82,2.27,2.22,2.23,1.1-.03,1.88-.28,2.62-1.5.64-1.05,1.02-2.16,1.39-3.24.47-1.36.91-2.65,1.84-3.71.6-.69.98-1.99.5-3.04-.25-.54-.93-1.46-2.72-1.46ZM505.71,392.87c-.29.4-1.12,1.15-1.67,1.54-.51-.51-1.28-1.08-2.32-1.08h-.04c.19-.16.41-.34.6-.56.94-1.06,1.63-.93,2.22-.62.14.07.29.14.43.21.53.24.71.36.78.51ZM537,401.26h.02c1.2-.14,2.26-.74,3.28-1.32.41-.23.82-.46,1.23-.66.8-.37,1.01-.17,1.68.64.13.16.27.32.41.48-.15.06-.29.13-.42.21-.12.07-.31.14-.5.21-.53.19-1.5.55-1.79,1.58-.68-.3-1.39-.44-2.04-.57-.7-.14-1.36-.28-1.88-.58Z"/>
        <path class="cls-1" d="M269.73,327.29c-.56-1.58-.42-2.69.56-4.37.07-.12.15-.25.23-.39.6-.98,1.42-2.31,1-3.74-.2-.67-.64-1.25-1.33-1.71,1.17-1.64,1.26-3.48,1.34-5.12.05-.93.09-1.81.31-2.61.87-3.11.2-4.94-2.4-6.52-.67-.41-1.3-1.55-1.64-2.99-.41-1.72-.33-3.5.19-4.33.88-1.41,1.27-1.59,3.72-.48,2.25,1.01,5.65,2.07,9.15,1.35l1.02-.21-3.16-13.1c-3.42-14.19-6.96-28.86-10.38-43.27-.57-2.42-2.26-2.41-3.56-2.41l-4.01.02c-4.73.02-9.63.04-14.43-.05-1.28-.02-2.49.03-3.18.9s-.47,2.14-.17,3.27c2.62,9.9,5.18,20,7.66,29.77,1.12,4.44,2.25,8.88,3.38,13.32,2.66,10.41,5.33,20.81,8.02,31.28l4.05,15.79,1.09-.49c1.83-.83,2.99-2.63,2.54-3.92Z"/>
        <path class="cls-1" d="M284.83,392.32c-.34-.89-.02-1.26.79-2.11l.12-.13c.97-1.01,1.24-1.83.8-2.44-.77-1.08-.74-1.52-.71-1.63.09-.34.91-.7,1.57-.99.41-.18.83-.36,1.22-.58l.22-.12c.84-.45,1.99-1.08,2.32-2.27.19-.68.07-1.4-.36-2.14-.65-1.11-.8-1.66-.42-2.69.5-1.38-.14-3.4-1.91-4.22-1.91-.89-3.18-2.48-4.54-4.16-.51-.64-1.04-1.3-1.61-1.92-.49-.54-.47-.82-.16-2.02.17-.67.21-.67,1.12-.65h.12c.57.02,1.35.04,1.93-.54.38-.38.58-.92.57-1.61,0-.93.72-1.45,1.75-2.09.71-.44,2.03-1.26,1.77-3.04-.11-.73.18-.99,1.1-1.6.37-.25.77-.51,1.11-.86.04.87.33,1.53.84,1.94.38.31,1.04.6,2.06.27,2.02-.67,1.44-2.72,1.19-3.59-.05-.16-.09-.32-.13-.47-.32-1.36-.65-2.72-.98-4.08-.97-4-1.97-8.14-2.81-12.23-.51-2.5-1.95-3.79-4.4-3.97l-.3-.02c-1.07-.06-1.09-.15-1.16-.45-.14-.65-.39-1.25-.62-1.82-.51-1.23-.9-2.21-.31-3.49.44-.95.51-2.57-.24-3.68-.54-.8-1.4-1.21-2.45-1.17-.64.03-1.3.11-1.94.19-.6.08-1.22.15-1.8.18-1.37.07-2.12.67-2.5,1.17-.56.72-.75,1.72-.53,2.79.3,1.47-.1,2.09-1.81,2.75-3.41,1.31-6.24,6.95-5.31,10.58l2.93,11.56c1.5,5.92,3,11.85,4.51,17.77,1.42,5.58,2.86,11.16,4.29,16.74l2.02,7.87,3.27.6-.64-1.66Z"/>
        <path class="cls-1" d="M810.22,251.33c.78.81,1.85.99,2.99.5l.9-.38-.36-.91c-.62-1.57-.17-3.07.31-4.67.2-.66.41-1.34.54-2.04.07-.37.78-.58,1.91-.58.18,0,.31.01.37.02.02.14.02.29.02.44.01.62.02,1.46.67,2.04.42.38,1,.53,1.73.46,1.75-.16,3.05-1.02,3.66-2.41.37-.83.65-1.26,1.28-1.46.3-.1,1.23-.4,1.52-1.27.28-.85-.24-1.57-.58-2.04-.08-.11-.16-.21-.21-.31-.37-.76-.99-1.2-1.72-1.22-.77-.03-1.5.45-1.91,1.22-.47.87-.66.8-1.75.39-.33-.12-.7-.26-1.09-.36-.32-.08-.63-.28-.98-.51-.59-.4-1.33-.89-2.42-.89h-.02c-10.67.07-21.52.06-32.02.04h-2.75s0,0,0,0c-2.09,0-2.7,1.53-3.06,2.45-.16.41-.32.81-.53,1-.69.62-.86,1.71-.66,2.46.18.69.64,1.17,1.26,1.32,1.19.28,1.65,1.05,2.3,2.27.36.68.74,1.39,1.33,1.99l.19.2c1.19,1.22,3.18,3.27,6.11,1.33.92-.61,2.02-.41,3.31-.18.24.04.48.09.72.12-2.56.32-4.62,2.17-5.33,3.53-.61,1.16-1.14,1.15-2.19,1.11-.4-.01-.85-.03-1.28.03-.07,0-.15-.02-.23-.04-.39-.08-1.11-.22-1.67.31-.55.52-.5,1.3-.42,1.84.23,1.51.87,2.11,2.39,2.08,5.47-.03,11.3-.06,17.07,0,.04,0,.08,0,.14,0,.56,0,1.78-.06,2.42-.97.44-.63.47-1.46.09-2.47-.07-.18-.19-.5-.25-.72.09-.02.22-.03.41-.03.58-.01,1.04-.19,1.37-.54.52-.55.5-1.27.49-1.75v-.23c0-.42.06-.63.09-.72.76-.11,1.48-.39,2.16-.67,1.65-.65,2.56-.94,3.67.2ZM794.39,246.81c-.75-.47-1.6-.76-2.43-1.05-1.57-.54-2.64-.97-3.19-2.03.39.09.77.18,1.15.27,1.1.27,2.24.54,3.41.71.76.11.92.4,1.05,1.94,0,.05,0,.1.01.15Z"/>
        <path class="cls-1" d="M482.78,398.29c-.89-.81-1.13-1.34-1.13-2.46,0-2.31-3.02-7.6-5.19-7.62-1.28-.01-1.58-.31-1.75-.92-.13-.47-.14-.98,1.13-1.6,3.92-1.91,5.39-5.23,4.48-10.15-.01-.06-.03-.12-.04-.17.18-1.25-.1-2.41-.37-3.53-.37-1.54-.69-2.87.14-4.33.37-.65.41-1.49.13-2.43-.46-1.51-1.68-3.02-2.99-3.68-.94-.48-2.2-.28-3.57.55-1.79,1.1-3.7,3.27-3.7,5.13,0,4.62,0,9.24,0,13.85v5.63c0,1.41,0,2.82,0,4.23,0,3.33-.02,6.78.03,10.17,0,.69-.08,1.46-.17,2.27-.23,2.08-.47,4.24.86,5.63.87.91,2.03,1.15,3.23,1.15.68,0,1.38-.08,2.05-.15.88-.1,1.78-.2,2.54-.11,2.99.33,5.35-1.19,6.83-4.39,1.55-3.36-1.3-5.96-2.52-7.08Z"/>
        <path class="cls-1" d="M110.98,371.16c.45-.92.58-.86.94-.69.65.31,1.72.84,2.64.35.34-.18.78-.57.9-1.38.12-.86-.09-1.7-.59-2.32-.36-.45-1.06-1-2.32-1.08-.37-.02-.75-.02-1.13,0-.91.02-1.7.04-2.33-.41l-.2-.14c-.12-.09-.31-.22-.42-.32,0,0,0,0,0,0l.07-.11c.14-.21.42-.65.54-.7,0,0,.1,0,.31.15.06.04.11.1.16.16.31.33,1.02,1.09,2.22.59l.87-.35c2.29-.93,4.9-1.98,6.36-4.34.15-.24.48-.51.81-.78.95-.79,2.55-2.1,1.28-4.47-.17-.32-.25-.53-.29-.67.14-.01.38,0,.74.06,1.2.19,1.94-.18,2.35-.52.41-.34.89-1.01.9-2.22,0-.81-.22-1.45-.66-1.89-.68-.69-1.65-.68-2.42-.68h-.13c-2.84,0-5.67,0-8.51,0-.84,0-1.69.01-2.53.02-1.85.02-3.77.05-5.63-.06-1.06-.06-2.38-.02-3.22.86-.85.88-.83,2.23-.74,3.16.61,6.41,1.73,11.92,3.42,16.84.07.19.11.41.16.64.18.88.53,2.53,2.44,2.68.12,0,.24.01.36.01,1.58,0,2.91-.85,3.66-2.39Z"/>
        <path class="cls-1" d="M475.22,358.24l.82.53.55-.81c.46-.68,1.06-.7,2.16-.67.69.02,1.49.04,2.24-.26.98-.38,1.86-.87,2.7-1.33,1.46-.8,2.84-1.56,4.72-1.86,2.46-.38,2.54-.14,3.13,1.74l.32.99,2.42-.29v-3.65c.01-2.51.02-5.11-.02-7.67-.01-.79-.75-1.31-1.47-1.72-.04-.02-3.98-2.13-5.37-1.33-.66.39-.96.9-.85,1.45.19.92-.28,1.39-1.19,2.22-.62.56-1.32,1.2-1.6,2.12-.22.76-.43.87-.44.88-.14.07-.69-.1-1.06-.22l-.21-.07c-.79-.25-1.56-.64-2.21-.98-2.65-1.4-4.47.44-5.55,1.54l-.29.29c-1.16,1.14-3.31,3.26-1.63,6.2.66,1.16,1.54,2.05,2.84,2.89Z"/>
        <path class="cls-1" d="M299.41,398.5c.51-.78,1.72-2.6.1-3.76-1.26-.9-2.99-.06-4.19.65-.16.1-.31.22-.45.35-.05.05-.1.1-.16.13-.82.41-1.55,1-2.25,1.57-1.92,1.57-3.12,2.38-5.32.88-.59-.4-1.28-.43-1.84-.06-.73.48-1.08,1.54-.87,2.63.24,1.22.7,2.33,1.15,3.41.38.91.74,1.78.94,2.65.7,3.03,2.96,2.63,4.05,2.44.3-.05.61-.11.8-.1.89,0,1.49-.26,1.83-.8.53-.85.05-1.81-.24-2.38-.04-.07-.07-.14-.09-.19-.02-.18-.03-.32-.04-.43.14.03.33.08.59.16,1.51.45,2.35,1.25,2.82,2.66l.54,1.64,1.15-1.28c1.93-2.15,2.31-4.4,1.1-6.69-.59-1.11-.53-2.04.19-3.19l.18-.27Z"/>
        <path class="cls-1" d="M295.38,357.95c-.49.11-.98.52-1.18.86-.23.37-.19.7-.14.87.22.87-.12,1.2-.98,1.92-.5.42-1.06.89-1.4,1.58-.07.14-.38.46-.61.69-.69.69-1.63,1.64-1.36,2.83.2.88.97,1.43,1.73,1.79-.3,1.09-.43,2.38.37,3.23.9.97,2.42.81,3.98.43.05.03.1.06.16.1l1.06.66.33-.97c.07,0,.15-.02.21-.02.47-.04,1.17-.11,1.64-.72.32-.42.42-.97.31-1.67-.42-2.46-.98-4.93-1.52-7.31-.22-.97-.44-1.93-.65-2.9-.11-.52-.38-.94-.76-1.18-.34-.22-.76-.29-1.17-.2Z"/>
        <path class="cls-1" d="M709.41,313.51c.52.39,1.02.77,1.47,1.18.47.43,1.2.67,1.89.67.37,0,.73-.07,1.04-.21.58-.26.93-.77.92-1.36-.01-.76.3-.95,1.22-1.37.57-.26,1.22-.56,1.69-1.15l1.3-1.62h-13.55l1.49,1.67c.82.91,1.69,1.57,2.53,2.2Z"/>
        <path class="cls-1" d="M379.12,321.33c-.4.34-.59.87-.56,1.55,0,.08-.06.33-.1.49-.15.59-.35,1.4.12,2.14.31.49.84.81,1.57.95.89.18,1.52.75,2.23,2.03.52.93,1.35,2.01,3.2,2.07l1.31.04-.31-1.28c-.12-.48-.24-.94-.37-1.39-.25-.9-.49-1.76-.58-2.59-.29-2.53-1.7-3.95-4.21-4.22-.11-.01-.24-.04-.36-.06-.53-.1-1.32-.26-1.94.27Z"/>
        <path class="cls-1" d="M729.23,310.18c-.46-.48-1.16-.72-2.05-.69-.84.02-1.68.02-2.7.01h-3.68s1.24,1.61,1.24,1.61c.34.44.63.84.91,1.22.6.83,1.13,1.54,1.77,2.18,1.05,1.04,1.97,1.36,2.72,1.36.43,0,.81-.11,1.11-.25,1.48-.69,1.34-2.15,1.26-2.94-.02-.25-.05-.49-.03-.66.06-.77-.12-1.39-.55-1.84Z"/>
        <path class="cls-1" d="M279.9,302.37c-1.06.89-2.15,1.81-2.41,3.27-.13.74-.02,1.33.34,1.76.55.66,1.4.66,2.02.67.18,0,.45,0,.58,0,.03.35.1,1.01.72,1.34.14.07.27.11.41.13-.22.11-.46.27-.71.53-.35.36-.54.79-.53,1.23,0,.4.18.79.49,1.08.34.32.78.48,1.21.48.4,0,.78-.13,1.07-.4.05,0,.2,0,.29,0,.4.02,1.06.06,1.67-.41l.76-.59-.57-.78c-.59-.81-1.39-.87-1.87-.91-.1,0-.25-.02-.24,0-.14-.12-.39-.28-.71-.35.15-.06.28-.13.35-.17.61-.35,2.04-1.16,1.59-2.94l-1.71-6.74-1.25,1.41c-.46.52-.99.97-1.51,1.4Z"/>
        <path class="cls-1" d="M301.45,372.49c.06,0,.12,0,.18,0,.54,0,1.03-.2,1.41-.56.43-.42.65-1.01.62-1.66-.06-1.17.28-1.82,1.25-2.4,1.38-.82.8-2.6.61-3.18-.32-.98-.89-1.52-1.7-1.59l-.32-.03-.27.16c-.13.07-.26.14-.4.2-.65.31-1.64.79-1.89,2.16-.16.88-.35,1.75-.54,2.63-.12.54-.24,1.08-.35,1.63-.01.07-.04.15-.06.23-.12.45-.3,1.14.13,1.74.28.39.72.61,1.31.66Z"/>
        <path class="cls-1" d="M470.23,343.79l.38,1.58,1.24-1.05c1.35-1.15,2.72-2.56,2.57-4.2-.11-1.25-1.04-2.34-2.93-3.43l-1.5-.87v1.73c0,.54-.02,1.08-.04,1.61-.06,1.48-.11,3.02.28,4.62Z"/>
        <path class="cls-1" d="M381.31,333.18c-.6-.79-1.53-1.27-2.76-1.43l-.76-.1-.29.71c-.49,1.17-.2,2.19.03,3.01.15.52.27.97.21,1.39-.07.47.03.9.29,1.26.51.68,1.41.81,2,.89l.14.02c.11.02.21.02.31.02.48,0,.8-.18.99-.35.53-.47.51-1.16.5-1.57,0-.09-.01-.18,0-.26.22-1.53,0-2.71-.66-3.58Z"/>
        <path class="cls-1" d="M319.01,366.12c.48,1.74.37,3.26.25,5.03,0,.13-.02.27-.03.4-.26-.17-.56-.31-.94-.43-.28-.09-.57-.16-.86-.23-.53-.13-1.02-.26-1.39-.48-.94-.57-2.18-1.17-3.4-.75-.92.32-1.62,1.14-2.15,2.53-.27.7-.56.95-.64.96-.04.02-.32-.08-.78-.65-.72-.91-2.19-.56-2.68-.45-1.65.39-5.03,1.84-5.38,3.47-.11.53-.05.97.2,1.32.36.5.91.57,1.2.6.05,0,.09,0,.12.01.04.02.08.03.11.04-.03.07-.08.17-.18.31-.23.32-.34.67-.44.98-.04.12-.1.3-.14.4-.02,0-.05,0-.09-.02-.97-.22-1.89-.43-2.36.38-.5.84.26,1.7.75,2.26.07.08.08.12.08.12.01.12-.27.52-.4.71-.08.11-.15.22-.22.33-1.31-1.23-2.61-.35-3.18.04-.18.12-.48.33-.59.33-.44.02-.82.28-.99.69-.29.69.13,1.6.5,2,.64.69,1.65,1.32,3.08.92-.04.45.01.86.15,1.26.47,1.31,1.78,1.93,2.84,2.43.24.11.48.23.71.34.79.42,1.41.98,2.08,1.57l.25.22c.97.86.87,1.93.58,3.59-.05.29-.1.57-.13.84,0,0,0,0,0,0-.19-.02-.5-.11-.7-.16-.28-.08-.56-.15-.81-.19-1.15-.18-2.08.56-2.32,1.84-.21,1.12.02,2.1.67,2.82.39.44.83.65,1.29.63.68-.03,1.07-.53,1.27-.81.04-.05.08-.11.11-.14.36-.28.57-.37,1.53.54,1.86,1.77,2.62,2.93,1.96,4.79-.03.07-.07.14-.12.22-.23.4-.61,1.07-.34,1.8.12.32.4.75,1.1,1,.29.1.54.14.77.14.35,0,.62-.1.81-.21.73-.41.9-1.22,1.01-1.76.02-.11.04-.21.07-.3.29-.99.54-2.01.78-2.99.42-1.73.83-3.36,1.45-4.92.67-1.68-.37-2.59-.92-3.07-.46-.4-.47-.46-.45-.6.02-.11.04-.16.04-.16.07-.05.39-.09.57-.12.7-.09,2.15-.28,2.46-2.09.32-1.87.88-3.76,1.43-5.59.43-1.43.87-2.91,1.21-4.41.43-1.91-.66-3.29-1.53-4.4-.33-.42-.65-.82-.87-1.22-.23-.42-.52-.71-.85-.88.61-.31,1.27-.4,1.82-.24.11.03.23.09.35.14.54.24,1.35.59,2.17.19.58-.28.96-.84,1.17-1.71.18-.75.43-1.78.1-2.68l.9.22c1.12-2.43,1.56-5.13,2.03-7.98.09-.53.17-1.06.27-1.6l.33-1.88-1.73.81c-.88.41-3.57,1.67-2.96,3.87Z"/>
      </g>
    </g>
  </g>
</svg>